<svg width="48" height="48" viewBox="0 0 48 48" fill="none" xmlns="http://www.w3.org/2000/svg">
<circle cx="24" cy="24" r="24" fill="#141414"/>
<path d="M26.8184 24.3338L32.1892 29.7051C32.3567 29.8727 32.4508 30.1 32.4508 30.3369C32.4508 30.5739 32.3567 30.8011 32.1892 30.9687L30.2953 32.8628C30.1278 33.0303 29.9005 33.1243 29.6636 33.1243C29.4267 33.1243 29.1995 33.0303 29.0319 32.8628L23.6611 27.4915L18.2904 32.8628C18.123 33.0302 17.8959 33.1243 17.6591 33.1243C17.4223 33.1243 17.1952 33.0302 17.0278 32.8628L15.1348 30.9661C14.9674 30.7985 14.8733 30.5712 14.8733 30.3343C14.8733 30.0973 14.9674 29.8701 15.1348 29.7025L20.5056 24.3312L15.1348 18.9599C14.9674 18.7923 14.8733 18.5651 14.8733 18.3281C14.8733 18.0912 14.9674 17.8639 15.1348 17.6963L17.0305 15.8085C17.1979 15.641 17.425 15.547 17.6617 15.547C17.8985 15.547 18.1256 15.641 18.293 15.8085L23.6638 21.1798L29.0345 15.8085C29.2021 15.641 29.4293 15.5469 29.6663 15.5469C29.9032 15.5469 30.1304 15.641 30.298 15.8085L32.1857 17.7034C32.3532 17.871 32.4472 18.0982 32.4472 18.3352C32.4472 18.5721 32.3532 18.7994 32.1857 18.967L26.8149 24.3382L26.8184 24.3338Z" fill="white"/>
</svg>
