<svg width="392" height="102" viewBox="0 0 392 102" fill="none" xmlns="http://www.w3.org/2000/svg">
<path d="M390.406 1H1.79228C1.39614 1 1 1.39063 1 1.78125V101H390.208C390.604 101 391 100.609 391 100.219V1.58594C391 1.19531 390.802 1 390.406 1Z" fill="#F2F2F2" stroke="#333333" stroke-miterlimit="10"/>
<path d="M168.223 62V55.6035H162.861V62H161.602V47.9961H162.861V54.4023H168.223V47.9961H169.482V62H168.223ZM178.379 62L177.715 61.0039C177.441 61.362 177.1 61.6517 176.689 61.873C176.279 62.0879 175.83 62.1953 175.342 62.1953H175.039C174.635 62.1953 174.255 62.1204 173.896 61.9707C173.538 61.8145 173.226 61.6029 172.959 61.3359C172.692 61.069 172.48 60.7565 172.324 60.3984C172.174 60.0404 172.1 59.6595 172.1 59.2559V59.1582C172.1 58.7546 172.174 58.3737 172.324 58.0156C172.48 57.6576 172.692 57.3451 172.959 57.0781C173.226 56.8112 173.538 56.6029 173.896 56.4531C174.255 56.2969 174.635 56.2188 175.039 56.2188H177.578V54.6758C177.578 54.4349 177.533 54.2103 177.441 54.002C177.35 53.7871 177.227 53.6016 177.07 53.4453C176.914 53.2891 176.729 53.1654 176.514 53.0742C176.305 52.9831 176.081 52.9375 175.84 52.9375H175.137C174.896 52.9375 174.668 52.9831 174.453 53.0742C174.245 53.1654 174.062 53.2891 173.906 53.4453C173.75 53.6016 173.626 53.7871 173.535 54.002C173.444 54.2103 173.398 54.4349 173.398 54.6758V55.0371L172.197 54.8418V54.7441C172.197 54.3405 172.272 53.9596 172.422 53.6016C172.578 53.2435 172.79 52.931 173.057 52.6641C173.324 52.3971 173.636 52.1888 173.994 52.0391C174.352 51.8828 174.733 51.8047 175.137 51.8047H175.84C176.243 51.8047 176.624 51.8828 176.982 52.0391C177.34 52.1888 177.653 52.3971 177.92 52.6641C178.187 52.931 178.395 53.2435 178.545 53.6016C178.701 53.9596 178.779 54.3405 178.779 54.7441V62H178.379ZM177.578 57.1562H175.039C174.798 57.1562 174.57 57.2018 174.355 57.293C174.147 57.3841 173.965 57.5111 173.809 57.6738C173.652 57.8301 173.529 58.0156 173.438 58.2305C173.346 58.4388 173.301 58.6634 173.301 58.9043V59.3242C173.301 59.5651 173.346 59.793 173.438 60.0078C173.529 60.2161 173.652 60.3984 173.809 60.5547C173.965 60.7109 174.147 60.8346 174.355 60.9258C174.57 61.0169 174.798 61.0625 175.039 61.0625H175.84C176.081 61.0625 176.305 61.0169 176.514 60.9258C176.729 60.8346 176.914 60.7109 177.07 60.5547C177.227 60.3984 177.35 60.2161 177.441 60.0078C177.533 59.793 177.578 59.5651 177.578 59.3242V57.1562ZM181.582 62V47.9961H182.783V62H181.582ZM192.275 59.2559C192.275 59.6595 192.197 60.0404 192.041 60.3984C191.891 60.7565 191.683 61.069 191.416 61.3359C191.149 61.6029 190.837 61.8145 190.479 61.9707C190.12 62.1204 189.74 62.1953 189.336 62.1953H188.535C188.132 62.1953 187.751 62.1204 187.393 61.9707C187.035 61.8145 186.722 61.6029 186.455 61.3359C186.188 61.069 185.977 60.7565 185.82 60.3984C185.671 60.0404 185.596 59.6595 185.596 59.2559V54.7441C185.596 54.3405 185.671 53.9596 185.82 53.6016C185.977 53.2435 186.188 52.931 186.455 52.6641C186.722 52.3971 187.035 52.1888 187.393 52.0391C187.751 51.8828 188.132 51.8047 188.535 51.8047H189.336C189.74 51.8047 190.12 51.8828 190.479 52.0391C190.837 52.1888 191.149 52.3971 191.416 52.6641C191.683 52.931 191.891 53.2435 192.041 53.6016C192.197 53.9596 192.275 54.3405 192.275 54.7441V57.0977H186.797V59.3242C186.797 59.5651 186.842 59.793 186.934 60.0078C187.025 60.2161 187.148 60.3984 187.305 60.5547C187.461 60.7109 187.643 60.8346 187.852 60.9258C188.066 61.0169 188.294 61.0625 188.535 61.0625H189.336C189.577 61.0625 189.801 61.0169 190.01 60.9258C190.225 60.8346 190.41 60.7109 190.566 60.5547C190.723 60.3984 190.846 60.2161 190.938 60.0078C191.029 59.793 191.074 59.5651 191.074 59.3242V58.6602L192.275 58.8555V59.2559ZM191.074 54.6758C191.074 54.4349 191.029 54.2103 190.938 54.002C190.846 53.7871 190.723 53.6016 190.566 53.4453C190.41 53.2891 190.225 53.1654 190.01 53.0742C189.801 52.9831 189.577 52.9375 189.336 52.9375H188.535C188.294 52.9375 188.066 52.9831 187.852 53.0742C187.643 53.1654 187.461 53.2891 187.305 53.4453C187.148 53.6016 187.025 53.7871 186.934 54.002C186.842 54.2103 186.797 54.4349 186.797 54.6758V56.1602H191.074V54.6758ZM196.299 66.0039H195.137L196.914 61.1406L193.672 52H194.873L197.48 59.5781L197.52 60.0957L197.559 59.5781L200.156 52H201.357L196.299 66.0039ZM215.459 53.1816C215.459 53.6569 215.368 54.1029 215.186 54.5195C215.01 54.9362 214.766 55.3008 214.453 55.6133C214.141 55.9258 213.773 56.1732 213.35 56.3555C212.933 56.5312 212.487 56.6191 212.012 56.6191H208.838V62H207.578V47.9961H212.012C212.487 47.9961 212.933 48.0872 213.35 48.2695C213.773 48.4453 214.141 48.6895 214.453 49.002C214.766 49.3145 215.01 49.6823 215.186 50.1055C215.368 50.5221 215.459 50.9681 215.459 51.4434V53.1816ZM214.199 51.4434C214.199 51.1309 214.141 50.8411 214.023 50.5742C213.906 50.3008 213.743 50.0632 213.535 49.8613C213.333 49.653 213.096 49.4902 212.822 49.373C212.555 49.2559 212.266 49.1973 211.953 49.1973H208.838V55.418H211.953C212.266 55.418 212.555 55.3594 212.822 55.2422C213.096 55.125 213.333 54.9655 213.535 54.7637C213.743 54.5618 213.906 54.3275 214.023 54.0605C214.141 53.7871 214.199 53.4941 214.199 53.1816V51.4434ZM213.506 62V60.4961H215.01V62H213.506Z" fill="black"/>
<path d="M180.64 75.704C180.64 76.592 180.488 77.368 180.184 78.032C179.888 78.688 179.448 79.2 178.864 79.568C178.28 79.936 177.556 80.12 176.692 80.12C175.804 80.12 175.064 79.936 174.472 79.568C173.888 79.2 173.452 78.684 173.164 78.02C172.876 77.356 172.732 76.58 172.732 75.692C172.732 74.812 172.876 74.044 173.164 73.388C173.452 72.732 173.888 72.22 174.472 71.852C175.064 71.484 175.808 71.3 176.704 71.3C177.56 71.3 178.28 71.484 178.864 71.852C179.448 72.212 179.888 72.724 180.184 73.388C180.488 74.044 180.64 74.816 180.64 75.704ZM173.872 75.704C173.872 76.784 174.1 77.636 174.556 78.26C175.012 78.876 175.724 79.184 176.692 79.184C177.668 79.184 178.38 78.876 178.828 78.26C179.276 77.636 179.5 76.784 179.5 75.704C179.5 74.624 179.276 73.78 178.828 73.172C178.38 72.556 177.672 72.248 176.704 72.248C175.736 72.248 175.02 72.556 174.556 73.172C174.1 73.78 173.872 74.624 173.872 75.704ZM185.491 73.448C186.259 73.448 186.839 73.636 187.231 74.012C187.623 74.38 187.819 74.98 187.819 75.812V80H186.775V75.884C186.775 74.852 186.295 74.336 185.335 74.336C184.623 74.336 184.131 74.536 183.859 74.936C183.587 75.336 183.451 75.912 183.451 76.664V80H182.395V73.568H183.247L183.403 74.444H183.463C183.671 74.108 183.959 73.86 184.327 73.7C184.695 73.532 185.083 73.448 185.491 73.448ZM190.869 80H189.813V70.88H190.869V80ZM193.447 71.156C193.607 71.156 193.747 71.212 193.867 71.324C193.995 71.428 194.059 71.596 194.059 71.828C194.059 72.052 193.995 72.22 193.867 72.332C193.747 72.444 193.607 72.5 193.447 72.5C193.271 72.5 193.123 72.444 193.003 72.332C192.883 72.22 192.823 72.052 192.823 71.828C192.823 71.596 192.883 71.428 193.003 71.324C193.123 71.212 193.271 71.156 193.447 71.156ZM193.963 73.568V80H192.907V73.568H193.963ZM199.096 73.448C199.864 73.448 200.444 73.636 200.836 74.012C201.228 74.38 201.424 74.98 201.424 75.812V80H200.38V75.884C200.38 74.852 199.9 74.336 198.94 74.336C198.228 74.336 197.736 74.536 197.464 74.936C197.192 75.336 197.056 75.912 197.056 76.664V80H196V73.568H196.852L197.008 74.444H197.068C197.276 74.108 197.564 73.86 197.932 73.7C198.3 73.532 198.688 73.448 199.096 73.448ZM205.902 73.448C206.454 73.448 206.926 73.568 207.318 73.808C207.718 74.048 208.022 74.388 208.23 74.828C208.446 75.26 208.554 75.768 208.554 76.352V76.988H204.15C204.166 77.716 204.35 78.272 204.702 78.656C205.062 79.032 205.562 79.22 206.202 79.22C206.61 79.22 206.97 79.184 207.282 79.112C207.602 79.032 207.93 78.92 208.266 78.776V79.7C207.938 79.844 207.614 79.948 207.294 80.012C206.974 80.084 206.594 80.12 206.154 80.12C205.546 80.12 205.006 79.996 204.534 79.748C204.07 79.5 203.706 79.132 203.442 78.644C203.186 78.148 203.058 77.544 203.058 76.832C203.058 76.128 203.174 75.524 203.406 75.02C203.646 74.516 203.978 74.128 204.402 73.856C204.834 73.584 205.334 73.448 205.902 73.448ZM205.89 74.312C205.386 74.312 204.986 74.476 204.69 74.804C204.402 75.124 204.23 75.572 204.174 76.148H207.45C207.442 75.604 207.314 75.164 207.066 74.828C206.818 74.484 206.426 74.312 205.89 74.312Z" fill="#828282"/>
<circle cx="164" cy="76" r="4" fill="#6FCF97"/>
<circle cx="130" cy="63" r="22" fill="#BDBDBD"/>
<mask id="mask0" mask-type="alpha" maskUnits="userSpaceOnUse" x="108" y="41" width="44" height="44">
<circle cx="130" cy="63" r="22" fill="#BDBDBD"/>
</mask>
<g mask="url(#mask0)">
<path d="M135.589 71.1868C135.589 71.1868 137.634 71.859 139.721 73.2246C141.699 74.5229 143.945 78.4711 143.945 78.4711H143.018C143.018 78.4711 138.295 79.1326 137.963 84.1102C137.963 84.1102 135.911 85.8119 135.596 86.9864H111.26V78.8602C111.26 78.8602 116.902 68.1055 120.55 68.1055C124.197 68.1055 125.595 68.6184 125.595 68.6184L135.589 71.1868Z" fill="#F8A9A7" stroke="black" stroke-width="0.265604"/>
<path d="M137.761 65.2281C137.252 66.4663 133.105 69.7458 133.105 69.7458C133.105 69.7458 126.532 66.01 126.408 69.7458C126.288 73.4817 120.737 74.0406 119.545 75.477C115.788 80.0159 115.035 84.4557 115.035 84.4557C114.727 81.2222 116.103 74.8472 116.103 74.8472C113.895 76.5206 112.615 84.109 112.615 84.109V75.9722L114.094 72.01C116.28 65.5182 117.03 60.8095 117.865 57.3849C118.562 54.53 120.033 51.9191 122.145 49.8778C124.127 47.9639 126.999 46.0359 130.565 46.0005C133.64 45.9686 136.035 47.5359 137.259 49.3401C138.256 50.8118 138.911 52.4887 139.3 54.2222C139.3 54.2257 140.549 58.4427 137.761 65.2281Z" fill="#313234"/>
<path d="M133.434 67.8559C133.434 67.8559 134.121 70.205 135.589 71.1849C135.589 71.1849 131.478 77.2557 129.423 80.192C127.367 83.1284 121.785 84.1083 121.785 84.1083C121.785 84.1083 119.977 78.5187 120.709 75.1012C121.158 73.0104 125.832 72.7663 126.097 70.8064C126.366 68.8429 125.545 66.8477 125.545 66.8477L133.434 67.8559Z" fill="#E4E4E4" stroke="black" stroke-width="0.265604"/>
<path d="M124.321 63.5812C124.247 60.7227 124.788 58.1614 126.115 56.0883C128.418 52.4833 130.647 50.3289 133.229 51.4079C133.268 51.4256 133.311 51.4432 133.349 51.4574C135.599 52.4267 136.99 54.7157 136.848 57.1602C136.717 59.4279 136.381 62.4527 135.55 64.7027C135.242 65.5412 134.736 66.2912 134.085 66.9032C134.085 66.9032 131.298 70.8195 128.22 69.4574C125.142 68.0954 124.364 65.1697 124.321 63.5812Z" fill="#E4E4E4" stroke="black" stroke-width="0.265604"/>
<path d="M137.959 84.1107L139.059 85.5434C139.406 85.9963 139.703 86.4809 139.955 86.9939L141.409 90.001L149.556 88.968L143.945 78.4715C143.945 78.4715 138.295 77.2722 137.959 84.1107Z" fill="#E4E4E4" stroke="black" stroke-width="0.265604"/>
<path d="M120.157 55.5576C120.157 55.5576 121.671 50.2864 126.115 48.6484" stroke="#565656" stroke-width="2.78456" stroke-miterlimit="10" stroke-linecap="round"/>
<path d="M133.303 67.9023C133.303 67.9023 133.01 70.7891 128.28 71.3764C123.55 71.9637 120.907 79.9307 120.907 79.9307C120.907 79.9307 119.74 74.7656 122.124 73.6583C126.575 71.5887 126.238 70.6476 126.334 70.1276C126.426 69.6075 126.023 68.0403 126.023 68.0403C126.023 68.0403 127.402 69.8552 129.224 69.8552C130.976 69.8552 132.122 68.9637 132.193 68.854L133.303 67.9023Z" fill="#AFAFAF"/>
<path d="M125.934 67.669C125.934 67.669 124.201 64.7716 125.05 60.8907C125.903 57.0098 126.727 56.5605 127.201 55.6619C127.647 54.8235 129.469 52.7574 129.84 52.4674C130.371 52.0499 131.407 51.2539 131.407 51.2539C131.407 51.2539 130.13 51.5192 129.171 52.4072C128.213 53.2952 127.891 53.5994 127.898 53.6949C127.905 53.7869 125.984 55.9768 125.181 58.2374C124.378 60.498 124.526 61.2056 124.505 61.3046C124.484 61.4037 124.364 63.873 124.608 64.9556C124.862 66.0346 125.524 67.2622 125.934 67.669Z" fill="#AFAFAF"/>
<path d="M130.647 86.9849H135.589L137.956 84.1087C137.956 84.1087 135.925 82.2868 136.013 81.2148C136.013 81.2148 129.578 85.7998 122.74 86.9884" fill="#C48684"/>
<path d="M138.03 84.0864L139.83 86.5522L141.426 89.8706L142.141 89.7786C142.141 89.7786 140.039 85.8128 139.353 84.0545C139.353 84.0545 138.635 81.2986 138.808 80.8281C138.805 80.8281 138.047 82.2326 138.03 84.0864Z" fill="#AFAFAF"/>
<path d="M136.017 81.2145C136.017 81.2145 137.531 78.6885 137.959 78.5859C137.959 78.5859 136.76 80.4114 136.399 82.7782C136.396 82.7746 135.858 82.2617 136.017 81.2145Z" fill="#C48684"/>
<path d="M136.76 82.9546C136.76 82.9546 137.849 79.5336 138.84 79.2188C138.84 79.2188 138.076 82.1515 137.842 84.0018" fill="#C48684"/>
</g>
<path d="M47.2573 21.684C47.2573 22.444 46.9813 23.04 46.4293 23.472C45.8773 23.904 45.1213 24.12 44.1613 24.12C43.6973 24.12 43.2573 24.08 42.8413 24C42.4333 23.928 42.0853 23.82 41.7973 23.676V22.452C42.1173 22.596 42.4933 22.728 42.9253 22.848C43.3573 22.96 43.7973 23.016 44.2453 23.016C44.8213 23.016 45.2533 22.904 45.5413 22.68C45.8293 22.456 45.9733 22.156 45.9733 21.78C45.9733 21.516 45.9053 21.296 45.7693 21.12C45.6413 20.936 45.4373 20.768 45.1573 20.616C44.8773 20.464 44.5093 20.296 44.0533 20.112C43.6293 19.952 43.2533 19.764 42.9253 19.548C42.6053 19.332 42.3533 19.064 42.1693 18.744C41.9853 18.424 41.8933 18.032 41.8933 17.568C41.8933 16.864 42.1493 16.312 42.6613 15.912C43.1733 15.512 43.8453 15.312 44.6773 15.312C45.1413 15.312 45.5693 15.36 45.9613 15.456C46.3613 15.544 46.7413 15.668 47.1013 15.828L46.6933 16.896C46.3653 16.76 46.0293 16.648 45.6853 16.56C45.3493 16.472 45.0013 16.428 44.6413 16.428C44.1693 16.428 43.8093 16.532 43.5613 16.74C43.3133 16.948 43.1893 17.22 43.1893 17.556C43.1893 17.82 43.2493 18.044 43.3693 18.228C43.4893 18.404 43.6813 18.564 43.9453 18.708C44.2093 18.852 44.5573 19.012 44.9893 19.188C45.4693 19.38 45.8773 19.584 46.2133 19.8C46.5573 20.008 46.8173 20.264 46.9933 20.568C47.1693 20.864 47.2573 21.236 47.2573 21.684ZM51.3349 15.432C52.4549 15.432 53.2709 15.66 53.7829 16.116C54.2949 16.564 54.5509 17.192 54.5509 18C54.5509 18.48 54.4429 18.928 54.2269 19.344C54.0189 19.76 53.6669 20.1 53.1709 20.364C52.6749 20.62 52.0029 20.748 51.1549 20.748H50.2309V24H48.9349V15.432H51.3349ZM51.2389 16.524H50.2309V19.656H51.0109C51.7389 19.656 52.2869 19.532 52.6549 19.284C53.0309 19.036 53.2189 18.624 53.2189 18.048C53.2189 17.536 53.0589 17.156 52.7389 16.908C52.4189 16.652 51.9189 16.524 51.2389 16.524ZM62.9306 15.432V20.976C62.9306 21.568 62.8066 22.104 62.5586 22.584C62.3106 23.056 61.9346 23.432 61.4306 23.712C60.9346 23.984 60.3026 24.12 59.5346 24.12C58.4466 24.12 57.6186 23.832 57.0506 23.256C56.4906 22.672 56.2106 21.904 56.2106 20.952V15.432H57.5066V20.892C57.5066 22.308 58.2026 23.016 59.5946 23.016C60.3146 23.016 60.8346 22.824 61.1546 22.44C61.4826 22.056 61.6466 21.536 61.6466 20.88V15.432H62.9306ZM72.078 19.632C72.078 21.08 71.678 22.172 70.878 22.908C70.086 23.636 68.974 24 67.542 24H65.142V15.432H67.794C68.666 15.432 69.422 15.592 70.062 15.912C70.702 16.232 71.198 16.704 71.55 17.328C71.902 17.944 72.078 18.712 72.078 19.632ZM70.722 19.668C70.722 18.588 70.458 17.796 69.93 17.292C69.41 16.78 68.67 16.524 67.71 16.524H66.438V22.908H67.482C69.642 22.908 70.722 21.828 70.722 19.668Z" fill="#141414"/>
<path d="M85.7825 21.2552L86.8319 22.2986C87.182 21.9496 87.5978 21.6727 88.0556 21.4838C88.5135 21.2949 89.0043 21.1976 89.5 21.1976C89.9957 21.1976 90.4865 21.2949 90.9444 21.4838C91.4022 21.6727 91.818 21.9496 92.1681 22.2986L93.2175 21.2552C92.7294 20.7696 92.1499 20.3844 91.512 20.1217C90.8741 19.8589 90.1904 19.7236 89.5 19.7236C88.8096 19.7236 88.1259 19.8589 87.488 20.1217C86.8501 20.3844 86.2706 20.7696 85.7825 21.2552ZM83.3924 18.8787L84.4418 19.9221C85.1054 19.2605 85.8937 18.7355 86.7617 18.3773C87.6297 18.0191 88.5602 17.8347 89.5 17.8347C90.4398 17.8347 91.3703 18.0191 92.2383 18.3773C93.1063 18.7355 93.8946 19.2605 94.5582 19.9221L95.6093 18.877C94.8072 18.0794 93.8549 17.4467 92.8069 17.0151C91.7588 16.5834 90.6355 16.3612 89.5011 16.3612C88.3667 16.3612 87.2434 16.5834 86.1953 17.0151C85.1473 17.4467 84.195 18.0794 83.3929 18.877L83.3924 18.8787ZM89.5 13C87.9211 12.998 86.3573 13.3062 84.8985 13.9071C83.4398 14.5079 82.1149 15.3895 81 16.5011L82.0517 17.5468C83.0289 16.5727 84.1898 15.7999 85.468 15.2726C86.7461 14.7453 88.1162 14.4739 89.5 14.4739C90.8838 14.4739 92.2539 14.7453 93.532 15.2726C94.8102 15.7999 95.9711 16.5727 96.9483 17.5468L98 16.5011C96.8851 15.3895 95.5602 14.5079 94.1015 13.9071C92.6427 13.3062 91.0789 12.998 89.5 13ZM89.5 22.7894C89.2801 22.7894 89.0652 22.8542 88.8824 22.9756C88.6996 23.0971 88.5571 23.2697 88.4729 23.4717C88.3888 23.6737 88.3668 23.8959 88.4097 24.1103C88.4526 24.3247 88.5584 24.5217 88.7139 24.6763C88.8694 24.8309 89.0675 24.9361 89.2831 24.9788C89.4988 25.0214 89.7223 24.9995 89.9254 24.9159C90.1286 24.8322 90.3022 24.6905 90.4243 24.5088C90.5465 24.327 90.6117 24.1133 90.6117 23.8947C90.6117 23.6015 90.4946 23.3204 90.2861 23.1131C90.0776 22.9058 89.7948 22.7894 89.5 22.7894Z" fill="#141414"/>
</svg>
