<svg width="392" height="102" viewBox="0 0 392 102" fill="none" xmlns="http://www.w3.org/2000/svg">
<path d="M390.406 1H1.79228C1.39614 1 1 1.39063 1 1.78125V101H390.208C390.604 101 391 100.609 391 100.219V1.58594C391 1.19531 390.802 1 390.406 1Z" fill="#F2F2F2" stroke="#333333" stroke-miterlimit="10"/>
<path d="M349.273 22.2727H348.182V21.1818C348.182 20.6032 347.952 20.0482 347.543 19.639C347.134 19.2299 346.579 19 346 19H324.182C323.603 19 323.048 19.2299 322.639 19.639C322.23 20.0482 322 20.6032 322 21.1818V28.8182C322 29.3968 322.23 29.9518 322.639 30.361C323.048 30.7701 323.603 31 324.182 31H346C346.579 31 347.134 30.7701 347.543 30.361C347.952 29.9518 348.182 29.3968 348.182 28.8182V27.7273H349.273C349.562 27.7273 349.84 27.6123 350.044 27.4078C350.249 27.2032 350.364 26.9257 350.364 26.6364V23.3636C350.364 23.0743 350.249 22.7968 350.044 22.5922C349.84 22.3877 349.562 22.2727 349.273 22.2727ZM347.091 28.8182C347.091 29.1075 346.976 29.385 346.771 29.5896C346.567 29.7942 346.289 29.9091 346 29.9091H324.182C323.892 29.9091 323.615 29.7942 323.41 29.5896C323.206 29.385 323.091 29.1075 323.091 28.8182V21.1818C323.091 20.8925 323.206 20.615 323.41 20.4104C323.615 20.2058 323.892 20.0909 324.182 20.0909H346C346.289 20.0909 346.567 20.2058 346.771 20.4104C346.976 20.615 347.091 20.8925 347.091 21.1818V28.8182ZM324.182 28.8182H330.727V21.1818H324.182V28.8182ZM331.818 28.8182H338.364V21.1818H331.818V28.8182ZM339.455 28.8182H346V21.1818H339.455V28.8182Z" fill="#141414"/>
<path d="M61.5097 28.912C61.5097 29.9253 61.1417 30.72 60.4057 31.296C59.6697 31.872 58.6617 32.16 57.3817 32.16C56.763 32.16 56.1764 32.1067 55.6217 32C55.0777 31.904 54.6137 31.76 54.2297 31.568V29.936C54.6564 30.128 55.1577 30.304 55.7337 30.464C56.3097 30.6133 56.8964 30.688 57.4937 30.688C58.2617 30.688 58.8377 30.5387 59.2217 30.24C59.6057 29.9413 59.7977 29.5413 59.7977 29.04C59.7977 28.688 59.707 28.3947 59.5257 28.16C59.355 27.9147 59.083 27.6907 58.7097 27.488C58.3364 27.2853 57.8457 27.0613 57.2377 26.816C56.6724 26.6027 56.171 26.352 55.7337 26.064C55.307 25.776 54.971 25.4187 54.7257 24.992C54.4804 24.5653 54.3577 24.0427 54.3577 23.424C54.3577 22.4853 54.699 21.7493 55.3817 21.216C56.0644 20.6827 56.9604 20.416 58.0697 20.416C58.6884 20.416 59.259 20.48 59.7817 20.608C60.315 20.7253 60.8217 20.8907 61.3017 21.104L60.7577 22.528C60.3204 22.3467 59.8724 22.1973 59.4137 22.08C58.9657 21.9627 58.5017 21.904 58.0217 21.904C57.3924 21.904 56.9124 22.0427 56.5817 22.32C56.251 22.5973 56.0857 22.96 56.0857 23.408C56.0857 23.76 56.1657 24.0587 56.3257 24.304C56.4857 24.5387 56.7417 24.752 57.0937 24.944C57.4457 25.136 57.9097 25.3493 58.4857 25.584C59.1257 25.84 59.6697 26.112 60.1177 26.4C60.5764 26.6773 60.923 27.0187 61.1577 27.424C61.3924 27.8187 61.5097 28.3147 61.5097 28.912ZM66.9466 20.576C68.4399 20.576 69.5279 20.88 70.2106 21.488C70.8932 22.0853 71.2346 22.9227 71.2346 24C71.2346 24.64 71.0906 25.2373 70.8026 25.792C70.5252 26.3467 70.0559 26.8 69.3946 27.152C68.7332 27.4933 67.8372 27.664 66.7066 27.664H65.4746V32H63.7466V20.576H66.9466ZM66.8186 22.032H65.4746V26.208H66.5146C67.4852 26.208 68.2159 26.0427 68.7066 25.712C69.2079 25.3813 69.4586 24.832 69.4586 24.064C69.4586 23.3813 69.2452 22.8747 68.8186 22.544C68.3919 22.2027 67.7252 22.032 66.8186 22.032ZM82.4074 20.576V27.968C82.4074 28.7573 82.2421 29.472 81.9114 30.112C81.5808 30.7413 81.0794 31.2427 80.4074 31.616C79.7461 31.9787 78.9034 32.16 77.8794 32.16C76.4288 32.16 75.3248 31.776 74.5674 31.008C73.8208 30.2293 73.4474 29.2053 73.4474 27.936V20.576H75.1754V27.856C75.1754 29.744 76.1034 30.688 77.9594 30.688C78.9194 30.688 79.6128 30.432 80.0394 29.92C80.4768 29.408 80.6954 28.7147 80.6954 27.84V20.576H82.4074ZM94.6039 26.176C94.6039 28.1067 94.0706 29.5627 93.0039 30.544C91.9479 31.5147 90.4653 32 88.5559 32H85.3559V20.576H88.8919C90.0546 20.576 91.0626 20.7893 91.9159 21.216C92.7693 21.6427 93.4306 22.272 93.8999 23.104C94.3693 23.9253 94.6039 24.9493 94.6039 26.176ZM92.7959 26.224C92.7959 24.784 92.4439 23.728 91.7399 23.056C91.0466 22.3733 90.0599 22.032 88.7799 22.032H87.0839V30.544H88.4759C91.3559 30.544 92.7959 29.104 92.7959 26.224Z" fill="#141414"/>
<path d="M293.377 28.0069L294.776 29.3981C295.243 28.9328 295.797 28.5636 296.408 28.3117C297.018 28.0598 297.672 27.9302 298.333 27.9302C298.994 27.9302 299.649 28.0598 300.259 28.3117C300.87 28.5636 301.424 28.9328 301.891 29.3981L303.29 28.0069C302.639 27.3595 301.866 26.8459 301.016 26.4955C300.166 26.1452 299.254 25.9648 298.333 25.9648C297.413 25.9648 296.501 26.1452 295.651 26.4955C294.8 26.8459 294.027 27.3595 293.377 28.0069ZM290.19 24.8383L291.589 26.2295C292.474 25.3473 293.525 24.6473 294.682 24.1697C295.84 23.6922 297.08 23.4463 298.333 23.4463C299.586 23.4463 300.827 23.6922 301.984 24.1697C303.142 24.6473 304.193 25.3473 305.078 26.2295L306.479 24.836C305.41 23.7726 304.14 22.929 302.742 22.3534C301.345 21.7779 299.847 21.4817 298.335 21.4817C296.822 21.4817 295.325 21.7779 293.927 22.3534C292.53 22.929 291.26 23.7726 290.191 24.836L290.19 24.8383ZM298.333 17C296.228 16.9973 294.143 17.4083 292.198 18.2094C290.253 19.0105 288.487 20.186 287 21.6682L288.402 23.0624C289.705 21.7636 291.253 20.7332 292.957 20.0301C294.661 19.327 296.488 18.9651 298.333 18.9651C300.178 18.9651 302.005 19.327 303.709 20.0301C305.414 20.7332 306.961 21.7636 308.264 23.0624L309.667 21.6682C308.18 20.186 306.414 19.0105 304.469 18.2094C302.524 17.4083 300.439 16.9973 298.333 17ZM298.333 30.0525C298.04 30.0525 297.754 30.1389 297.51 30.3008C297.266 30.4628 297.076 30.6929 296.964 30.9622C296.852 31.2315 296.822 31.5279 296.88 31.8137C296.937 32.0996 297.078 32.3622 297.285 32.5683C297.493 32.7745 297.757 32.9148 298.044 32.9717C298.332 33.0285 298.63 32.9994 298.901 32.8878C299.171 32.7763 299.403 32.5874 299.566 32.345C299.729 32.1027 299.816 31.8177 299.816 31.5262C299.816 31.1354 299.659 30.7605 299.381 30.4841C299.103 30.2077 298.726 30.0525 298.333 30.0525Z" fill="#141414"/>
<path d="M169.277 58.7578C169.277 59.2331 169.186 59.679 169.004 60.0957C168.828 60.5124 168.584 60.877 168.271 61.1895C167.959 61.502 167.594 61.7493 167.178 61.9316C166.761 62.1074 166.315 62.1953 165.84 62.1953H164.844C164.368 62.1953 163.919 62.1074 163.496 61.9316C163.079 61.7493 162.715 61.502 162.402 61.1895C162.09 60.877 161.842 60.5124 161.66 60.0957C161.484 59.679 161.396 59.2331 161.396 58.7578V51.2383C161.396 50.763 161.484 50.3171 161.66 49.9004C161.842 49.4837 162.09 49.1191 162.402 48.8066C162.715 48.4941 163.079 48.25 163.496 48.0742C163.919 47.8919 164.368 47.8008 164.844 47.8008H165.84C166.315 47.8008 166.761 47.8919 167.178 48.0742C167.594 48.25 167.959 48.4941 168.271 48.8066C168.584 49.1191 168.828 49.4837 169.004 49.9004C169.186 50.3171 169.277 50.763 169.277 51.2383V51.8047L168.018 52V51.2383C168.018 50.9258 167.959 50.6361 167.842 50.3691C167.725 50.0957 167.565 49.8581 167.363 49.6562C167.161 49.4544 166.924 49.2949 166.65 49.1777C166.383 49.0605 166.094 49.002 165.781 49.002H164.902C164.59 49.002 164.297 49.0605 164.023 49.1777C163.757 49.2949 163.519 49.4544 163.311 49.6562C163.109 49.8581 162.949 50.0957 162.832 50.3691C162.715 50.6361 162.656 50.9258 162.656 51.2383V58.7578C162.656 59.0703 162.715 59.3633 162.832 59.6367C162.949 59.9036 163.109 60.1413 163.311 60.3496C163.519 60.5514 163.757 60.7109 164.023 60.8281C164.297 60.9453 164.59 61.0039 164.902 61.0039H165.781C166.094 61.0039 166.383 60.9453 166.65 60.8281C166.924 60.7109 167.161 60.5514 167.363 60.3496C167.565 60.1413 167.725 59.9036 167.842 59.6367C167.959 59.3633 168.018 59.0703 168.018 58.7578V57.9961L169.277 58.2012V58.7578ZM174.629 53.1426C174.388 53.1426 174.16 53.1882 173.945 53.2793C173.737 53.3704 173.555 53.4941 173.398 53.6504C173.242 53.8066 173.118 53.9922 173.027 54.207C172.936 54.4154 172.891 54.64 172.891 54.8809V62H171.689V52H172.09L172.744 53.0156C173.018 52.6445 173.359 52.3516 173.77 52.1367C174.186 51.9154 174.639 51.8047 175.127 51.8047H175.83V53.1426H174.629ZM177.734 49.5977V47.9961H179.131V49.5977H177.734ZM177.832 62V52H179.033V62H177.832ZM188.721 59.4609C188.721 59.8646 188.639 60.2357 188.477 60.5742C188.314 60.9062 188.092 61.1927 187.812 61.4336C187.533 61.6745 187.207 61.8633 186.836 62C186.471 62.1302 186.087 62.1953 185.684 62.1953H184.883C184.479 62.1953 184.092 62.1204 183.721 61.9707C183.356 61.8145 183.034 61.6029 182.754 61.3359C182.48 61.069 182.259 60.7565 182.09 60.3984C181.927 60.0404 181.846 59.6595 181.846 59.2559V58.8555L183.047 58.6602V59.3242C183.047 59.5651 183.096 59.793 183.193 60.0078C183.298 60.2161 183.434 60.3984 183.604 60.5547C183.773 60.7109 183.968 60.8346 184.189 60.9258C184.411 61.0169 184.642 61.0625 184.883 61.0625H185.684C185.924 61.0625 186.156 61.0267 186.377 60.9551C186.598 60.8835 186.794 60.7826 186.963 60.6523C187.139 60.5156 187.275 60.3529 187.373 60.1641C187.477 59.9753 187.529 59.7604 187.529 59.5195C187.529 59.1615 187.451 58.8685 187.295 58.6406C187.139 58.4128 186.93 58.224 186.67 58.0742C186.416 57.918 186.123 57.791 185.791 57.6934C185.465 57.5892 185.13 57.4883 184.785 57.3906C184.44 57.2865 184.102 57.1693 183.77 57.0391C183.444 56.9089 183.151 56.7396 182.891 56.5312C182.637 56.3164 182.432 56.0495 182.275 55.7305C182.119 55.4115 182.041 55.0143 182.041 54.5391C182.041 54.1354 182.119 53.7676 182.275 53.4355C182.432 53.097 182.643 52.8073 182.91 52.5664C183.177 52.3255 183.486 52.14 183.838 52.0098C184.196 51.873 184.577 51.8047 184.98 51.8047H185.684C186.087 51.8047 186.468 51.8828 186.826 52.0391C187.184 52.1888 187.497 52.3971 187.764 52.6641C188.031 52.931 188.239 53.2435 188.389 53.6016C188.545 53.9596 188.623 54.3405 188.623 54.7441V54.7832L187.422 54.9785V54.6758C187.422 54.4349 187.376 54.2103 187.285 54.002C187.194 53.7871 187.07 53.6016 186.914 53.4453C186.758 53.2891 186.572 53.1654 186.357 53.0742C186.149 52.9831 185.924 52.9375 185.684 52.9375H184.98C184.74 52.9375 184.512 52.9733 184.297 53.0449C184.089 53.1165 183.906 53.2207 183.75 53.3574C183.594 53.4876 183.47 53.6471 183.379 53.8359C183.288 54.0247 183.242 54.2396 183.242 54.4805C183.242 54.8255 183.32 55.1087 183.477 55.3301C183.633 55.5449 183.838 55.7272 184.092 55.877C184.352 56.0267 184.645 56.1536 184.971 56.2578C185.303 56.3555 185.638 56.4596 185.977 56.5703C186.322 56.6745 186.657 56.7949 186.982 56.9316C187.314 57.0684 187.607 57.2441 187.861 57.459C188.122 57.6738 188.33 57.944 188.486 58.2695C188.643 58.5885 188.721 58.9857 188.721 59.4609ZM205.391 62H204.736L202.012 51.4629L201.973 50.916L201.914 51.4629L199.209 62H198.555L194.834 47.9961H196.094L198.838 58.6406L198.877 59.1582L198.916 58.6406L201.611 47.9961H202.314L205.01 58.6406L205.049 59.1582L205.098 58.6406L207.832 47.9961H209.092L205.391 62ZM209.287 62V60.4961H210.791V62H209.287Z" fill="black"/>
<path d="M180.64 75.704C180.64 76.592 180.488 77.368 180.184 78.032C179.888 78.688 179.448 79.2 178.864 79.568C178.28 79.936 177.556 80.12 176.692 80.12C175.804 80.12 175.064 79.936 174.472 79.568C173.888 79.2 173.452 78.684 173.164 78.02C172.876 77.356 172.732 76.58 172.732 75.692C172.732 74.812 172.876 74.044 173.164 73.388C173.452 72.732 173.888 72.22 174.472 71.852C175.064 71.484 175.808 71.3 176.704 71.3C177.56 71.3 178.28 71.484 178.864 71.852C179.448 72.212 179.888 72.724 180.184 73.388C180.488 74.044 180.64 74.816 180.64 75.704ZM173.872 75.704C173.872 76.784 174.1 77.636 174.556 78.26C175.012 78.876 175.724 79.184 176.692 79.184C177.668 79.184 178.38 78.876 178.828 78.26C179.276 77.636 179.5 76.784 179.5 75.704C179.5 74.624 179.276 73.78 178.828 73.172C178.38 72.556 177.672 72.248 176.704 72.248C175.736 72.248 175.02 72.556 174.556 73.172C174.1 73.78 173.872 74.624 173.872 75.704ZM185.491 73.448C186.259 73.448 186.839 73.636 187.231 74.012C187.623 74.38 187.819 74.98 187.819 75.812V80H186.775V75.884C186.775 74.852 186.295 74.336 185.335 74.336C184.623 74.336 184.131 74.536 183.859 74.936C183.587 75.336 183.451 75.912 183.451 76.664V80H182.395V73.568H183.247L183.403 74.444H183.463C183.671 74.108 183.959 73.86 184.327 73.7C184.695 73.532 185.083 73.448 185.491 73.448ZM190.869 80H189.813V70.88H190.869V80ZM193.447 71.156C193.607 71.156 193.747 71.212 193.867 71.324C193.995 71.428 194.059 71.596 194.059 71.828C194.059 72.052 193.995 72.22 193.867 72.332C193.747 72.444 193.607 72.5 193.447 72.5C193.271 72.5 193.123 72.444 193.003 72.332C192.883 72.22 192.823 72.052 192.823 71.828C192.823 71.596 192.883 71.428 193.003 71.324C193.123 71.212 193.271 71.156 193.447 71.156ZM193.963 73.568V80H192.907V73.568H193.963ZM199.096 73.448C199.864 73.448 200.444 73.636 200.836 74.012C201.228 74.38 201.424 74.98 201.424 75.812V80H200.38V75.884C200.38 74.852 199.9 74.336 198.94 74.336C198.228 74.336 197.736 74.536 197.464 74.936C197.192 75.336 197.056 75.912 197.056 76.664V80H196V73.568H196.852L197.008 74.444H197.068C197.276 74.108 197.564 73.86 197.932 73.7C198.3 73.532 198.688 73.448 199.096 73.448ZM205.902 73.448C206.454 73.448 206.926 73.568 207.318 73.808C207.718 74.048 208.022 74.388 208.23 74.828C208.446 75.26 208.554 75.768 208.554 76.352V76.988H204.15C204.166 77.716 204.35 78.272 204.702 78.656C205.062 79.032 205.562 79.22 206.202 79.22C206.61 79.22 206.97 79.184 207.282 79.112C207.602 79.032 207.93 78.92 208.266 78.776V79.7C207.938 79.844 207.614 79.948 207.294 80.012C206.974 80.084 206.594 80.12 206.154 80.12C205.546 80.12 205.006 79.996 204.534 79.748C204.07 79.5 203.706 79.132 203.442 78.644C203.186 78.148 203.058 77.544 203.058 76.832C203.058 76.128 203.174 75.524 203.406 75.02C203.646 74.516 203.978 74.128 204.402 73.856C204.834 73.584 205.334 73.448 205.902 73.448ZM205.89 74.312C205.386 74.312 204.986 74.476 204.69 74.804C204.402 75.124 204.23 75.572 204.174 76.148H207.45C207.442 75.604 207.314 75.164 207.066 74.828C206.818 74.484 206.426 74.312 205.89 74.312Z" fill="#828282"/>
<circle cx="164" cy="76" r="4" fill="#6FCF97"/>
<circle cx="130" cy="63" r="22" fill="#BDBDBD"/>
<mask id="mask0" mask-type="alpha" maskUnits="userSpaceOnUse" x="108" y="41" width="44" height="44">
<circle cx="130" cy="63" r="22" fill="#BDBDBD"/>
</mask>
<g mask="url(#mask0)">
<path d="M124.659 66.7903C124.659 66.7903 123.812 67.9389 123.472 68.2795C123.131 68.6202 119.602 70.4064 118.965 70.6204C118.327 70.8344 115.606 71.8126 115.305 72.0659C115.008 72.3192 114.226 72.3236 114.03 74.2976C113.833 76.2716 113.239 79.761 112.846 80.2851C112.453 80.8092 112.846 82.1936 112.846 82.9185C112.846 83.6435 111.265 85.945 111.265 85.945C111.265 85.945 110.999 86.2682 110.964 87.4649C110.933 88.6615 118.943 87.4649 118.943 87.4649L119.039 87.0412H143.041C143.041 87.0412 150.099 84.0016 151.182 84.9013C152.26 85.7966 152.012 84.9013 152.012 84.9013C152.012 84.9013 151.985 84.1283 151.409 83.84C151.409 83.84 151.728 83.4557 151.343 83.0059C150.959 82.5561 150.959 82.5561 150.959 82.5561C150.959 82.5561 151.859 82.2023 151.793 81.4643C151.728 80.7262 149.727 77.1887 149.19 75.6907C148.609 74.0661 148.561 73.0879 148.561 73.0879C148.561 73.0879 148.509 71.7908 147.675 70.6815C146.841 69.5722 137.399 66.1701 136.774 65.7509C136.15 65.336 134.499 63.0781 134.499 63.0781L125.192 64.9342L124.659 66.7903Z" fill="#999999" stroke="black" stroke-width="0.097477"/>
<path d="M125.079 62.6799L125.345 65.6147L128.97 68.7416L129.18 68.4796C129.18 68.4796 133.071 65.5011 133.459 64.9945C133.848 64.4879 134.101 64.0993 134.084 63.1865C134.067 62.2737 134.084 59.2734 134.084 59.2734L125.079 62.6799Z" fill="#E4E4E4" stroke="black" stroke-width="0.097477"/>
<path d="M125.07 48.8589C122.729 49.2039 123.183 50.2783 123.183 51.4618C123.179 54.497 123.314 60.4059 124.402 61.786C125.882 63.6639 127.363 64.5854 128.219 64.6902C130.04 64.9085 130.629 64.4543 130.629 64.4543C130.629 64.4543 132.245 63.4805 133.114 62.3537C133.791 61.4803 134.097 61.0697 134.097 60.2705C134.097 59.4713 134.451 54.9468 134.451 54.9468C134.451 54.9468 134.813 50.0119 132.63 48.955C131.001 48.1689 130.699 48.1339 128.228 48.1689C127.184 48.1907 125.917 48.7322 125.07 48.8589Z" fill="#E4E4E4" stroke="black" stroke-width="0.097477"/>
<path d="M134.018 55.8035C134.018 55.8035 134.586 53.55 135.477 53.6941C136.368 53.8382 136.224 54.9999 136.259 55.5983C136.294 56.1966 135.626 56.8997 135.626 57.1836C135.626 57.4631 135.381 58.4501 134.957 58.4501C134.534 58.4501 134.119 58.4501 134.119 58.4501L134.018 55.8035Z" fill="#E4E4E4" stroke="black" stroke-width="0.097477"/>
<path d="M122.471 55.2924C122.471 55.2924 122.048 54.9081 122.153 55.9432C122.257 56.9826 122.07 56.9302 122.471 57.4586C122.873 57.9914 122.947 58.7644 123.083 58.9478C123.218 59.1356 123.223 59.4457 123.646 59.4501L123.301 56.0655C123.301 56.0698 122.886 55.5283 122.471 55.2924Z" fill="#E4E4E4" stroke="black" stroke-width="0.097477"/>
<path d="M120.401 69.9685C120.401 69.9685 119.152 73.9995 120.061 77.7728C120.969 81.5461 122.987 85.2539 122.987 85.2539L124.288 87.075H126.118C126.118 87.075 124.926 85.0705 124.314 83.7909C123.703 82.5113 122.987 78.1702 122.926 77.371C122.865 76.5718 123.926 70.1476 124.655 69.3047" stroke="black" stroke-width="0.097477" stroke-miterlimit="10"/>
<path d="M134.364 55.8695C134.364 55.8695 134.992 53.9698 135.477 54.3104C135.962 54.6511 135.84 54.7253 135.84 54.7253C135.84 54.7253 135.171 55.0398 134.717 55.6075C134.595 55.7603 134.599 55.8346 134.385 56.0661L134.364 55.8695Z" fill="#AFAFAF"/>
<path d="M134.385 56.0718L134.717 55.6133C134.717 55.6133 135.001 55.7225 135.045 56.2858C135.088 56.8492 134.835 57.4956 134.835 57.4956C134.835 57.4956 134.949 56.6964 134.848 56.4605" fill="#AFAFAF"/>
<path d="M123.148 56.2381C123.148 56.2381 122.637 55.6616 122.41 55.6223C122.183 55.583 122.288 55.7796 122.288 55.8407C122.288 55.9018 122.389 56.5962 122.389 56.7316C122.389 56.867 122.62 56.2993 122.572 56.1158C122.524 55.928 123.148 56.2381 123.148 56.2381Z" fill="#AFAFAF"/>
<path d="M123.148 48.794C123.148 49.7942 123.148 48.7809 123.153 48.7547C123.336 47.0471 124.537 45.6234 126.188 45.1561C126.834 44.9727 127.581 44.8242 128.293 44.8242C130.153 44.8242 131.551 45.3876 133.075 46.4314C134.822 47.6324 135.106 49.947 135.241 50.5016C135.377 51.0563 135.53 53.515 135.53 53.515C135.53 53.515 134.481 53.8557 134.416 54.7728C134.333 55.9127 134.071 55.6244 134.071 55.6244C134.071 55.6244 133.267 50.1217 132.625 49.5015C131.983 48.8858 129.472 48.2088 127.734 48.3923C127.179 48.449 126.642 48.5189 126.175 48.5844C125.083 48.7373 124.044 49.1522 123.148 49.7942V48.794Z" fill="#313234" stroke="black" stroke-width="0.0436725" stroke-miterlimit="10"/>
<path d="M123.096 49.2031C123.096 49.2031 121.585 49.3472 121.886 51.8628C122.188 54.3783 122.471 55.2911 122.471 55.2911C122.471 55.2911 123.249 55.9156 123.301 56.0641L123.096 49.2031Z" fill="#313234" stroke="black" stroke-width="0.0503107" stroke-miterlimit="10"/>
<path d="M114.833 72.3594C114.833 72.3594 115.886 80.1899 117.104 82.5438C118.323 84.8978 118.742 85.0812 118.89 86.0638C119.039 87.0421 119.039 87.0421 119.039 87.0421" stroke="black" stroke-width="0.097477" stroke-miterlimit="10"/>
<path d="M145.308 69.3125C145.308 69.3125 142.439 73.326 142.6 77.2129C142.762 81.0997 142.342 80.8988 142.591 82.0037C142.845 83.1086 143.046 87.0435 143.046 87.0435" stroke="black" stroke-width="0.097477" stroke-miterlimit="10"/>
<path d="M133.123 71.2955L130.424 80.1479L129.778 82.1612L128.293 87.0831H130.28C130.28 87.0831 137.303 73.0293 137.905 71.7409C138.508 70.4526 139.416 68.4873 139.416 68.4873L139.805 67.0025L136.779 65.7578" stroke="black" stroke-width="0.097477" stroke-miterlimit="10"/>
<path d="M132.87 62.7891C132.87 62.7891 130.162 65.5055 129.891 66.6148C129.621 67.7241 129.551 67.9468 129.551 67.9468L129.149 68.4053L128.896 68.5669L125.363 64.9509L125.157 62.8109C125.157 62.8109 126.786 64.3394 128.131 64.7456C129.38 65.1255 130.852 64.4661 130.852 64.4661L132.87 62.7891Z" fill="#AFAFAF"/>
<path d="M128.686 68.6476L133.77 69.39L128.083 87.1603H125.913L124.109 83.8762L122.72 77.4563C122.72 77.4563 123.764 69.2721 124.948 68.7087C126.131 68.1453 128.686 68.6476 128.686 68.6476Z" fill="#E6E6E6" stroke="black" stroke-width="0.097477"/>
<path d="M125.192 64.7578C125.192 64.7578 124.97 64.7578 124.917 65.3256C124.865 65.8933 124.677 67.9896 124.659 68.3346C124.642 68.6796 125.249 72.5752 125.284 72.6232C125.319 72.6713 125.319 72.977 125.795 72.3132C126.271 71.6493 127.179 70.6318 127.219 70.4658C127.254 70.2999 127.586 69.1993 128.179 68.8892C128.773 68.5792 128.97 68.5661 128.97 68.5661L125.192 64.7578Z" fill="#E6E6E6" stroke="black" stroke-width="0.097477"/>
<path d="M129.18 68.6311C129.18 68.6311 131.062 70.7055 131.385 71.2208C131.708 71.7362 132.512 72.4917 132.512 72.4917C132.512 72.4917 132.534 72.6795 133.119 71.4348C133.704 70.1902 135.303 66.4605 135.18 65.2726C135.058 64.0848 134.674 63.4166 134.508 63.2244C134.342 63.0322 134.115 63.0847 134.115 63.0847L129.18 68.6311Z" fill="#E6E6E6" stroke="black" stroke-width="0.097477"/>
<path d="M128.092 69.2376C128.092 69.2376 127.524 70.9932 127.524 71.657C127.524 71.657 127.227 72.7488 126.73 73.8057C126.232 74.8626 126.109 75.7972 126.035 76.461C125.961 77.1248 125.537 86.6454 125.537 86.6454L125.826 87.7023L128.206 87.6412L130.398 80.3129C130.398 80.3129 130.437 75.3473 130.044 73.3864C129.931 72.8274 129.791 71.9671 129.887 71.8448C129.983 71.7182 130.525 70.4429 130.525 70.4429L129.097 68.6523L128.092 69.2376Z" fill="#32557C" stroke="#030F1E" stroke-width="0.097477" stroke-miterlimit="10"/>
<path d="M127.428 71.738C127.428 71.738 129.642 70.9737 129.97 71.6768L130.608 70.2749L129.18 68.4844L128.179 69.0696C128.179 69.0696 127.441 70.5326 127.428 71.738Z" fill="#32557C" stroke="#030F1E" stroke-width="0.097477" stroke-miterlimit="10"/>
<path d="M125.533 72.7333C125.533 72.7333 127.158 71.4144 127.284 70.9907C127.407 70.5671 128.027 69.1172 128.027 69.1172C128.027 69.1172 127.621 69.4142 127.481 69.9819C127.337 70.5496 126.332 71.7681 126.332 71.7681L125.533 72.7333Z" fill="#AFAFAF"/>
<path d="M130.42 86.973H131.062C131.062 86.973 139.194 70.4823 139.451 69.3119C139.709 68.1414 139.945 67.1719 139.945 67.1719L139.862 67.0977L139.495 68.4602L139.172 69.4167L130.42 86.973Z" fill="#666666"/>
<path d="M130.629 70.3711C130.629 70.3711 131.202 71.0437 131.258 71.2009C131.315 71.3537 132.477 72.5591 132.477 72.5591C132.477 72.5591 131.957 72.2534 131.638 71.8996C131.319 71.5459 130.59 70.4759 130.59 70.4759L130.629 70.3711Z" fill="#AFAFAF"/>
<path d="M137.023 86.9733C137.023 86.9733 141.041 82.7851 141.412 80.7325C141.788 78.6755 142.508 77.457 142.508 77.457C142.508 77.457 142.609 79.5402 142.452 80.5796C142.294 81.619 142.508 82.1562 142.508 82.1562L142.954 86.9776H137.023V86.9733Z" fill="#666666"/>
<path d="M116.58 81.4321C116.58 81.4321 116.305 81.0521 116.467 81.5849C116.729 82.4409 117.397 84.4673 117.502 85.3233C117.672 86.7077 117.532 87.5288 117.532 87.5288L118.886 87.4196L118.973 87.044C118.973 87.044 118.864 85.6945 118.419 84.9695C117.973 84.2446 116.58 81.4321 116.58 81.4321Z" fill="#666666"/>
<path d="M127.577 71.7908C127.577 71.7908 128.769 71.3846 129.319 71.4632C129.87 71.5418 129.878 71.6554 129.878 71.6554C129.878 71.6554 129.743 71.7995 129.76 71.9829C129.76 71.9829 128.022 71.7209 127.507 72.031L127.577 71.7908Z" fill="#253F5C"/>
<path d="M133.608 48.0742C133.608 48.0742 134.582 48.9346 134.918 52.293" stroke="#565656" stroke-width="0.393053" stroke-miterlimit="10" stroke-linecap="round"/>
</g>
</svg>
