<svg width="392" height="102" viewBox="0 0 392 102" fill="none" xmlns="http://www.w3.org/2000/svg">
<path d="M390.406 1H1.79228C1.39614 1 1 1.39063 1 1.78125V101H390.208C390.604 101 391 100.609 391 100.219V1.58594C391 1.19531 390.802 1 390.406 1Z" fill="#F2F2F2" stroke="#333333" stroke-miterlimit="10"/>
<path d="M165 49.1973V62H163.74V49.1973H160.4V47.9961H168.34V49.1973H165ZM175.83 59.2559C175.83 59.6595 175.752 60.0404 175.596 60.3984C175.446 60.7565 175.238 61.069 174.971 61.3359C174.704 61.6029 174.391 61.8145 174.033 61.9707C173.675 62.1204 173.294 62.1953 172.891 62.1953H172.09C171.686 62.1953 171.305 62.1204 170.947 61.9707C170.589 61.8145 170.277 61.6029 170.01 61.3359C169.743 61.069 169.531 60.7565 169.375 60.3984C169.225 60.0404 169.15 59.6595 169.15 59.2559V54.7441C169.15 54.3405 169.225 53.9596 169.375 53.6016C169.531 53.2435 169.743 52.931 170.01 52.6641C170.277 52.3971 170.589 52.1888 170.947 52.0391C171.305 51.8828 171.686 51.8047 172.09 51.8047H172.891C173.294 51.8047 173.675 51.8828 174.033 52.0391C174.391 52.1888 174.704 52.3971 174.971 52.6641C175.238 52.931 175.446 53.2435 175.596 53.6016C175.752 53.9596 175.83 54.3405 175.83 54.7441V59.2559ZM174.629 54.6758C174.629 54.4349 174.583 54.2103 174.492 54.002C174.401 53.7871 174.277 53.6016 174.121 53.4453C173.965 53.2891 173.779 53.1654 173.564 53.0742C173.356 52.9831 173.132 52.9375 172.891 52.9375H172.09C171.849 52.9375 171.621 52.9831 171.406 53.0742C171.198 53.1654 171.016 53.2891 170.859 53.4453C170.703 53.6016 170.579 53.7871 170.488 54.002C170.397 54.2103 170.352 54.4349 170.352 54.6758V59.3242C170.352 59.5651 170.397 59.793 170.488 60.0078C170.579 60.2161 170.703 60.3984 170.859 60.5547C171.016 60.7109 171.198 60.8346 171.406 60.9258C171.621 61.0169 171.849 61.0625 172.09 61.0625H172.891C173.132 61.0625 173.356 61.0169 173.564 60.9258C173.779 60.8346 173.965 60.7109 174.121 60.5547C174.277 60.3984 174.401 60.2161 174.492 60.0078C174.583 59.793 174.629 59.5651 174.629 59.3242V54.6758ZM184.512 62L183.848 61.0039C183.574 61.362 183.232 61.6517 182.822 61.873C182.412 62.0879 181.963 62.1953 181.475 62.1953H181.172C180.768 62.1953 180.387 62.1204 180.029 61.9707C179.671 61.8145 179.359 61.6029 179.092 61.3359C178.825 61.069 178.613 60.7565 178.457 60.3984C178.307 60.0404 178.232 59.6595 178.232 59.2559V59.1582C178.232 58.7546 178.307 58.3737 178.457 58.0156C178.613 57.6576 178.825 57.3451 179.092 57.0781C179.359 56.8112 179.671 56.6029 180.029 56.4531C180.387 56.2969 180.768 56.2188 181.172 56.2188H183.711V54.6758C183.711 54.4349 183.665 54.2103 183.574 54.002C183.483 53.7871 183.359 53.6016 183.203 53.4453C183.047 53.2891 182.861 53.1654 182.646 53.0742C182.438 52.9831 182.214 52.9375 181.973 52.9375H181.27C181.029 52.9375 180.801 52.9831 180.586 53.0742C180.378 53.1654 180.195 53.2891 180.039 53.4453C179.883 53.6016 179.759 53.7871 179.668 54.002C179.577 54.2103 179.531 54.4349 179.531 54.6758V55.0371L178.33 54.8418V54.7441C178.33 54.3405 178.405 53.9596 178.555 53.6016C178.711 53.2435 178.923 52.931 179.189 52.6641C179.456 52.3971 179.769 52.1888 180.127 52.0391C180.485 51.8828 180.866 51.8047 181.27 51.8047H181.973C182.376 51.8047 182.757 51.8828 183.115 52.0391C183.473 52.1888 183.786 52.3971 184.053 52.6641C184.32 52.931 184.528 53.2435 184.678 53.6016C184.834 53.9596 184.912 54.3405 184.912 54.7441V62H184.512ZM183.711 57.1562H181.172C180.931 57.1562 180.703 57.2018 180.488 57.293C180.28 57.3841 180.098 57.5111 179.941 57.6738C179.785 57.8301 179.661 58.0156 179.57 58.2305C179.479 58.4388 179.434 58.6634 179.434 58.9043V59.3242C179.434 59.5651 179.479 59.793 179.57 60.0078C179.661 60.2161 179.785 60.3984 179.941 60.5547C180.098 60.7109 180.28 60.8346 180.488 60.9258C180.703 61.0169 180.931 61.0625 181.172 61.0625H181.973C182.214 61.0625 182.438 61.0169 182.646 60.9258C182.861 60.8346 183.047 60.7109 183.203 60.5547C183.359 60.3984 183.483 60.2161 183.574 60.0078C183.665 59.793 183.711 59.5651 183.711 59.3242V57.1562ZM194.189 59.4609C194.189 59.8646 194.108 60.2357 193.945 60.5742C193.783 60.9062 193.561 61.1927 193.281 61.4336C193.001 61.6745 192.676 61.8633 192.305 62C191.94 62.1302 191.556 62.1953 191.152 62.1953H190.352C189.948 62.1953 189.561 62.1204 189.189 61.9707C188.825 61.8145 188.503 61.6029 188.223 61.3359C187.949 61.069 187.728 60.7565 187.559 60.3984C187.396 60.0404 187.314 59.6595 187.314 59.2559V58.8555L188.516 58.6602V59.3242C188.516 59.5651 188.564 59.793 188.662 60.0078C188.766 60.2161 188.903 60.3984 189.072 60.5547C189.242 60.7109 189.437 60.8346 189.658 60.9258C189.88 61.0169 190.111 61.0625 190.352 61.0625H191.152C191.393 61.0625 191.624 61.0267 191.846 60.9551C192.067 60.8835 192.262 60.7826 192.432 60.6523C192.607 60.5156 192.744 60.3529 192.842 60.1641C192.946 59.9753 192.998 59.7604 192.998 59.5195C192.998 59.1615 192.92 58.8685 192.764 58.6406C192.607 58.4128 192.399 58.224 192.139 58.0742C191.885 57.918 191.592 57.791 191.26 57.6934C190.934 57.5892 190.599 57.4883 190.254 57.3906C189.909 57.2865 189.57 57.1693 189.238 57.0391C188.913 56.9089 188.62 56.7396 188.359 56.5312C188.105 56.3164 187.9 56.0495 187.744 55.7305C187.588 55.4115 187.51 55.0143 187.51 54.5391C187.51 54.1354 187.588 53.7676 187.744 53.4355C187.9 53.097 188.112 52.8073 188.379 52.5664C188.646 52.3255 188.955 52.14 189.307 52.0098C189.665 51.873 190.046 51.8047 190.449 51.8047H191.152C191.556 51.8047 191.937 51.8828 192.295 52.0391C192.653 52.1888 192.965 52.3971 193.232 52.6641C193.499 52.931 193.708 53.2435 193.857 53.6016C194.014 53.9596 194.092 54.3405 194.092 54.7441V54.7832L192.891 54.9785V54.6758C192.891 54.4349 192.845 54.2103 192.754 54.002C192.663 53.7871 192.539 53.6016 192.383 53.4453C192.227 53.2891 192.041 53.1654 191.826 53.0742C191.618 52.9831 191.393 52.9375 191.152 52.9375H190.449C190.208 52.9375 189.98 52.9733 189.766 53.0449C189.557 53.1165 189.375 53.2207 189.219 53.3574C189.062 53.4876 188.939 53.6471 188.848 53.8359C188.757 54.0247 188.711 54.2396 188.711 54.4805C188.711 54.8255 188.789 55.1087 188.945 55.3301C189.102 55.5449 189.307 55.7272 189.561 55.877C189.821 56.0267 190.114 56.1536 190.439 56.2578C190.771 56.3555 191.107 56.4596 191.445 56.5703C191.79 56.6745 192.126 56.7949 192.451 56.9316C192.783 57.0684 193.076 57.2441 193.33 57.459C193.59 57.6738 193.799 57.944 193.955 58.2695C194.111 58.5885 194.189 58.9857 194.189 59.4609ZM200.137 62C199.772 62 199.427 61.9316 199.102 61.7949C198.783 61.6582 198.503 61.4694 198.262 61.2285C198.027 60.9876 197.839 60.7077 197.695 60.3887C197.559 60.0697 197.49 59.7279 197.49 59.3633V53.1426H195.693V52H197.49V49.5977L198.691 49.4023V52H201.23V53.1426H198.691V59.4219C198.691 59.6237 198.727 59.8125 198.799 59.9883C198.877 60.1576 198.981 60.3073 199.111 60.4375C199.242 60.5677 199.395 60.6719 199.57 60.75C199.746 60.8216 199.935 60.8574 200.137 60.8574H201.23V62H200.137ZM210.127 59.2559C210.127 59.6595 210.049 60.0404 209.893 60.3984C209.743 60.7565 209.535 61.069 209.268 61.3359C209.001 61.6029 208.688 61.8145 208.33 61.9707C207.972 62.1204 207.591 62.1953 207.188 62.1953H206.387C205.983 62.1953 205.602 62.1204 205.244 61.9707C204.886 61.8145 204.574 61.6029 204.307 61.3359C204.04 61.069 203.828 60.7565 203.672 60.3984C203.522 60.0404 203.447 59.6595 203.447 59.2559V54.7441C203.447 54.3405 203.522 53.9596 203.672 53.6016C203.828 53.2435 204.04 52.931 204.307 52.6641C204.574 52.3971 204.886 52.1888 205.244 52.0391C205.602 51.8828 205.983 51.8047 206.387 51.8047H207.188C207.591 51.8047 207.972 51.8828 208.33 52.0391C208.688 52.1888 209.001 52.3971 209.268 52.6641C209.535 52.931 209.743 53.2435 209.893 53.6016C210.049 53.9596 210.127 54.3405 210.127 54.7441V57.0977H204.648V59.3242C204.648 59.5651 204.694 59.793 204.785 60.0078C204.876 60.2161 205 60.3984 205.156 60.5547C205.312 60.7109 205.495 60.8346 205.703 60.9258C205.918 61.0169 206.146 61.0625 206.387 61.0625H207.188C207.428 61.0625 207.653 61.0169 207.861 60.9258C208.076 60.8346 208.262 60.7109 208.418 60.5547C208.574 60.3984 208.698 60.2161 208.789 60.0078C208.88 59.793 208.926 59.5651 208.926 59.3242V58.6602L210.127 58.8555V59.2559ZM208.926 54.6758C208.926 54.4349 208.88 54.2103 208.789 54.002C208.698 53.7871 208.574 53.6016 208.418 53.4453C208.262 53.2891 208.076 53.1654 207.861 53.0742C207.653 52.9831 207.428 52.9375 207.188 52.9375H206.387C206.146 52.9375 205.918 52.9831 205.703 53.0742C205.495 53.1654 205.312 53.2891 205.156 53.4453C205 53.6016 204.876 53.7871 204.785 54.002C204.694 54.2103 204.648 54.4349 204.648 54.6758V56.1602H208.926V54.6758ZM215.469 53.1426C215.228 53.1426 215 53.1882 214.785 53.2793C214.577 53.3704 214.395 53.4941 214.238 53.6504C214.082 53.8066 213.958 53.9922 213.867 54.207C213.776 54.4154 213.73 54.64 213.73 54.8809V62H212.529V52H212.93L213.584 53.0156C213.857 52.6445 214.199 52.3516 214.609 52.1367C215.026 51.9154 215.479 51.8047 215.967 51.8047H216.67V53.1426H215.469ZM226.348 58.7578C226.348 59.2331 226.25 59.679 226.055 60.0957C225.866 60.5124 225.609 60.877 225.283 61.1895C224.964 61.502 224.59 61.7493 224.16 61.9316C223.737 62.1074 223.288 62.1953 222.812 62.1953H221.807C221.331 62.1953 220.879 62.1074 220.449 61.9316C220.026 61.7493 219.652 61.502 219.326 61.1895C219.007 60.877 218.75 60.5124 218.555 60.0957C218.366 59.679 218.271 59.2331 218.271 58.7578V58.2012L219.531 57.9961V58.7578C219.531 59.0703 219.593 59.3633 219.717 59.6367C219.847 59.9036 220.02 60.1413 220.234 60.3496C220.449 60.5514 220.697 60.7109 220.977 60.8281C221.263 60.9453 221.562 61.0039 221.875 61.0039H222.754C223.066 61.0039 223.363 60.9453 223.643 60.8281C223.923 60.7109 224.17 60.5514 224.385 60.3496C224.6 60.1413 224.769 59.9036 224.893 59.6367C225.023 59.3633 225.088 59.0703 225.088 58.7578V58.3379C225.088 57.8561 224.993 57.4557 224.805 57.1367C224.616 56.8177 224.365 56.5475 224.053 56.3262C223.74 56.0983 223.385 55.9062 222.988 55.75C222.598 55.5938 222.194 55.4375 221.777 55.2812C221.361 55.125 220.954 54.9525 220.557 54.7637C220.166 54.5749 219.814 54.3405 219.502 54.0605C219.189 53.7741 218.939 53.4258 218.75 53.0156C218.561 52.6055 218.467 52.1009 218.467 51.502V51.2383C218.467 50.763 218.555 50.3171 218.73 49.9004C218.913 49.4837 219.16 49.1191 219.473 48.8066C219.785 48.4941 220.15 48.25 220.566 48.0742C220.99 47.8919 221.439 47.8008 221.914 47.8008H222.812C223.288 47.8008 223.734 47.8919 224.15 48.0742C224.567 48.25 224.932 48.4941 225.244 48.8066C225.557 49.1191 225.801 49.4837 225.977 49.9004C226.159 50.3171 226.25 50.763 226.25 51.2383V51.5996L224.99 51.8047V51.2383C224.99 50.9258 224.932 50.6361 224.814 50.3691C224.697 50.0957 224.538 49.8581 224.336 49.6562C224.134 49.4544 223.896 49.2949 223.623 49.1777C223.356 49.0605 223.066 49.002 222.754 49.002H221.973C221.66 49.002 221.367 49.0605 221.094 49.1777C220.827 49.2949 220.589 49.4544 220.381 49.6562C220.179 49.8581 220.02 50.0957 219.902 50.3691C219.785 50.6361 219.727 50.9258 219.727 51.2383V51.502C219.727 51.9512 219.821 52.3288 220.01 52.6348C220.199 52.9408 220.449 53.2044 220.762 53.4258C221.074 53.6406 221.426 53.8294 221.816 53.9922C222.214 54.1484 222.62 54.3112 223.037 54.4805C223.454 54.6432 223.857 54.8255 224.248 55.0273C224.645 55.2227 225 55.4668 225.312 55.7598C225.625 56.0462 225.876 56.3978 226.064 56.8145C226.253 57.2311 226.348 57.7389 226.348 58.3379V58.7578ZM232.305 62C231.94 62 231.595 61.9316 231.27 61.7949C230.951 61.6582 230.671 61.4694 230.43 61.2285C230.195 60.9876 230.007 60.7077 229.863 60.3887C229.727 60.0697 229.658 59.7279 229.658 59.3633V53.1426H227.861V52H229.658V49.5977L230.859 49.4023V52H233.398V53.1426H230.859V59.4219C230.859 59.6237 230.895 59.8125 230.967 59.9883C231.045 60.1576 231.149 60.3073 231.279 60.4375C231.41 60.5677 231.562 60.6719 231.738 60.75C231.914 60.8216 232.103 60.8574 232.305 60.8574H233.398V62H232.305ZM238.555 53.1426C238.314 53.1426 238.086 53.1882 237.871 53.2793C237.663 53.3704 237.48 53.4941 237.324 53.6504C237.168 53.8066 237.044 53.9922 236.953 54.207C236.862 54.4154 236.816 54.64 236.816 54.8809V62H235.615V52H236.016L236.67 53.0156C236.943 52.6445 237.285 52.3516 237.695 52.1367C238.112 51.9154 238.564 51.8047 239.053 51.8047H239.756V53.1426H238.555ZM247.637 62L246.973 60.9844C246.699 61.3555 246.357 61.6517 245.947 61.873C245.537 62.0879 245.088 62.1953 244.6 62.1953H244.297C243.893 62.1953 243.512 62.1204 243.154 61.9707C242.796 61.8145 242.484 61.6029 242.217 61.3359C241.95 61.069 241.738 60.7565 241.582 60.3984C241.432 60.0404 241.357 59.6595 241.357 59.2559V52H242.559V59.3242C242.559 59.5651 242.604 59.793 242.695 60.0078C242.786 60.2161 242.91 60.3984 243.066 60.5547C243.223 60.7109 243.405 60.8346 243.613 60.9258C243.828 61.0169 244.056 61.0625 244.297 61.0625H245.098C245.339 61.0625 245.563 61.0169 245.771 60.9258C245.986 60.8346 246.172 60.7109 246.328 60.5547C246.484 60.3984 246.608 60.2161 246.699 60.0078C246.79 59.793 246.836 59.5651 246.836 59.3242V52H248.037V62H247.637ZM256.719 62L256.055 60.9844C255.781 61.3555 255.439 61.6517 255.029 61.873C254.619 62.0879 254.17 62.1953 253.682 62.1953H253.379C252.975 62.1953 252.594 62.1204 252.236 61.9707C251.878 61.8145 251.566 61.6029 251.299 61.3359C251.032 61.069 250.82 60.7565 250.664 60.3984C250.514 60.0404 250.439 59.6595 250.439 59.2559V54.7441C250.439 54.3405 250.514 53.9596 250.664 53.6016C250.82 53.2435 251.032 52.931 251.299 52.6641C251.566 52.3971 251.878 52.1888 252.236 52.0391C252.594 51.8828 252.975 51.8047 253.379 51.8047H253.682C254.131 51.8047 254.548 51.8958 254.932 52.0781C255.316 52.2604 255.645 52.5143 255.918 52.8398V47.9961H257.119V62H256.719ZM255.918 54.6758C255.918 54.4349 255.872 54.2103 255.781 54.002C255.69 53.7871 255.566 53.6016 255.41 53.4453C255.254 53.2891 255.068 53.1654 254.854 53.0742C254.645 52.9831 254.421 52.9375 254.18 52.9375H253.379C253.138 52.9375 252.91 52.9831 252.695 53.0742C252.487 53.1654 252.305 53.2891 252.148 53.4453C251.992 53.6016 251.868 53.7871 251.777 54.002C251.686 54.2103 251.641 54.4349 251.641 54.6758V59.3242C251.641 59.5651 251.686 59.793 251.777 60.0078C251.868 60.2161 251.992 60.3984 252.148 60.5547C252.305 60.7109 252.487 60.8346 252.695 60.9258C252.91 61.0169 253.138 61.0625 253.379 61.0625H254.18C254.421 61.0625 254.645 61.0169 254.854 60.9258C255.068 60.8346 255.254 60.7109 255.41 60.5547C255.566 60.3984 255.69 60.2161 255.781 60.0078C255.872 59.793 255.918 59.5651 255.918 59.3242V54.6758ZM266.201 59.2559C266.201 59.6595 266.123 60.0404 265.967 60.3984C265.817 60.7565 265.609 61.069 265.342 61.3359C265.075 61.6029 264.762 61.8145 264.404 61.9707C264.046 62.1204 263.665 62.1953 263.262 62.1953H262.461C262.057 62.1953 261.676 62.1204 261.318 61.9707C260.96 61.8145 260.648 61.6029 260.381 61.3359C260.114 61.069 259.902 60.7565 259.746 60.3984C259.596 60.0404 259.521 59.6595 259.521 59.2559V54.7441C259.521 54.3405 259.596 53.9596 259.746 53.6016C259.902 53.2435 260.114 52.931 260.381 52.6641C260.648 52.3971 260.96 52.1888 261.318 52.0391C261.676 51.8828 262.057 51.8047 262.461 51.8047H263.262C263.665 51.8047 264.046 51.8828 264.404 52.0391C264.762 52.1888 265.075 52.3971 265.342 52.6641C265.609 52.931 265.817 53.2435 265.967 53.6016C266.123 53.9596 266.201 54.3405 266.201 54.7441V57.0977H260.723V59.3242C260.723 59.5651 260.768 59.793 260.859 60.0078C260.951 60.2161 261.074 60.3984 261.23 60.5547C261.387 60.7109 261.569 60.8346 261.777 60.9258C261.992 61.0169 262.22 61.0625 262.461 61.0625H263.262C263.503 61.0625 263.727 61.0169 263.936 60.9258C264.15 60.8346 264.336 60.7109 264.492 60.5547C264.648 60.3984 264.772 60.2161 264.863 60.0078C264.954 59.793 265 59.5651 265 59.3242V58.6602L266.201 58.8555V59.2559ZM265 54.6758C265 54.4349 264.954 54.2103 264.863 54.002C264.772 53.7871 264.648 53.6016 264.492 53.4453C264.336 53.2891 264.15 53.1654 263.936 53.0742C263.727 52.9831 263.503 52.9375 263.262 52.9375H262.461C262.22 52.9375 261.992 52.9831 261.777 53.0742C261.569 53.1654 261.387 53.2891 261.23 53.4453C261.074 53.6016 260.951 53.7871 260.859 54.002C260.768 54.2103 260.723 54.4349 260.723 54.6758V56.1602H265V54.6758ZM269.004 62V47.9961H270.205V62H269.004Z" fill="black"/>
<path d="M180.64 75.704C180.64 76.592 180.488 77.368 180.184 78.032C179.888 78.688 179.448 79.2 178.864 79.568C178.28 79.936 177.556 80.12 176.692 80.12C175.804 80.12 175.064 79.936 174.472 79.568C173.888 79.2 173.452 78.684 173.164 78.02C172.876 77.356 172.732 76.58 172.732 75.692C172.732 74.812 172.876 74.044 173.164 73.388C173.452 72.732 173.888 72.22 174.472 71.852C175.064 71.484 175.808 71.3 176.704 71.3C177.56 71.3 178.28 71.484 178.864 71.852C179.448 72.212 179.888 72.724 180.184 73.388C180.488 74.044 180.64 74.816 180.64 75.704ZM173.872 75.704C173.872 76.784 174.1 77.636 174.556 78.26C175.012 78.876 175.724 79.184 176.692 79.184C177.668 79.184 178.38 78.876 178.828 78.26C179.276 77.636 179.5 76.784 179.5 75.704C179.5 74.624 179.276 73.78 178.828 73.172C178.38 72.556 177.672 72.248 176.704 72.248C175.736 72.248 175.02 72.556 174.556 73.172C174.1 73.78 173.872 74.624 173.872 75.704ZM185.491 73.448C186.259 73.448 186.839 73.636 187.231 74.012C187.623 74.38 187.819 74.98 187.819 75.812V80H186.775V75.884C186.775 74.852 186.295 74.336 185.335 74.336C184.623 74.336 184.131 74.536 183.859 74.936C183.587 75.336 183.451 75.912 183.451 76.664V80H182.395V73.568H183.247L183.403 74.444H183.463C183.671 74.108 183.959 73.86 184.327 73.7C184.695 73.532 185.083 73.448 185.491 73.448ZM190.869 80H189.813V70.88H190.869V80ZM193.447 71.156C193.607 71.156 193.747 71.212 193.867 71.324C193.995 71.428 194.059 71.596 194.059 71.828C194.059 72.052 193.995 72.22 193.867 72.332C193.747 72.444 193.607 72.5 193.447 72.5C193.271 72.5 193.123 72.444 193.003 72.332C192.883 72.22 192.823 72.052 192.823 71.828C192.823 71.596 192.883 71.428 193.003 71.324C193.123 71.212 193.271 71.156 193.447 71.156ZM193.963 73.568V80H192.907V73.568H193.963ZM199.096 73.448C199.864 73.448 200.444 73.636 200.836 74.012C201.228 74.38 201.424 74.98 201.424 75.812V80H200.38V75.884C200.38 74.852 199.9 74.336 198.94 74.336C198.228 74.336 197.736 74.536 197.464 74.936C197.192 75.336 197.056 75.912 197.056 76.664V80H196V73.568H196.852L197.008 74.444H197.068C197.276 74.108 197.564 73.86 197.932 73.7C198.3 73.532 198.688 73.448 199.096 73.448ZM205.902 73.448C206.454 73.448 206.926 73.568 207.318 73.808C207.718 74.048 208.022 74.388 208.23 74.828C208.446 75.26 208.554 75.768 208.554 76.352V76.988H204.15C204.166 77.716 204.35 78.272 204.702 78.656C205.062 79.032 205.562 79.22 206.202 79.22C206.61 79.22 206.97 79.184 207.282 79.112C207.602 79.032 207.93 78.92 208.266 78.776V79.7C207.938 79.844 207.614 79.948 207.294 80.012C206.974 80.084 206.594 80.12 206.154 80.12C205.546 80.12 205.006 79.996 204.534 79.748C204.07 79.5 203.706 79.132 203.442 78.644C203.186 78.148 203.058 77.544 203.058 76.832C203.058 76.128 203.174 75.524 203.406 75.02C203.646 74.516 203.978 74.128 204.402 73.856C204.834 73.584 205.334 73.448 205.902 73.448ZM205.89 74.312C205.386 74.312 204.986 74.476 204.69 74.804C204.402 75.124 204.23 75.572 204.174 76.148H207.45C207.442 75.604 207.314 75.164 207.066 74.828C206.818 74.484 206.426 74.312 205.89 74.312Z" fill="#828282"/>
<circle cx="164" cy="76" r="4" fill="#6FCF97"/>
<circle cx="130" cy="63" r="22" fill="#BDBDBD"/>
<mask id="mask0" mask-type="alpha" maskUnits="userSpaceOnUse" x="108" y="41" width="44" height="44">
<circle cx="130" cy="63" r="22" fill="#C4C4C4"/>
</mask>
<g mask="url(#mask0)">
<path d="M126.873 62.2296L123.568 64.5934L124.264 77.635L133.221 85.7044L138.351 68.995L134.873 57.8281L126.873 62.2296Z" fill="#E4E4E4" stroke="black" stroke-width="0.117247"/>
<path d="M141.133 69.4818L141.394 69.0742C141.452 69.4818 141.568 70.3947 141.568 70.7859C141.568 71.275 140.959 73.3127 140.872 73.8833C140.786 74.4539 138.959 77.9588 138.351 79.0999C137.864 80.0128 135.945 82.5233 135.046 83.6645C135.655 82.7678 137.151 80.4856 138.264 78.5293C139.377 76.5731 140.641 71.6825 141.133 69.4818Z" stroke="black" stroke-width="0.117247"/>
<path d="M115.568 85.6195C116.403 84.3153 118.699 80.0225 119.742 78.0391C120.148 78.0391 121.325 78.1532 122.786 78.6096C124.247 79.0661 126.699 87.2225 127.742 91.2436L126.873 94.0965L123.417 92.0912C123.287 92.0159 123.141 91.9653 122.992 91.946C118.683 91.3861 118.218 93.1351 117.22 94.0965H113.655C111.742 92.1402 114.525 87.2497 115.568 85.6195Z" fill="#B4D2A9" stroke="black" stroke-width="0.117247"/>
<path d="M122.438 64.5888C122.272 64.6408 121.162 65.1594 120.873 65.4039C120.316 74.4678 127.945 81.57 131.829 83.9881L132.873 82.9285C130.09 82.3579 126.699 74.696 126.699 72.9843C126.699 71.6149 124.554 66.7081 123.481 64.4258C123.365 64.453 122.96 64.4258 122.438 64.5888Z" fill="#B4D2A9" stroke="black" stroke-width="0.117247"/>
<path d="M131.481 49.8376C128.699 46.9033 125.162 48.0173 123.742 48.941C120.82 50.3103 121.539 54.8913 122.264 57.0106C122.901 58.6952 124.82 62.2436 127.394 62.9608C130.612 63.8574 132.325 63.273 133.742 61.2491C135.568 58.6408 134.959 53.5056 131.481 49.8376Z" fill="#E4E4E4" stroke="black" stroke-width="0.117247"/>
<path d="M146.872 67.4429C146.594 65.0955 142.872 64.1826 141.046 64.0195C138.727 69.3177 134.003 79.9954 134.003 79.9954C134.003 79.9954 133.046 82.8483 131.655 83.9079C130.542 84.7556 127.829 91.0807 126.611 94.1781L133.742 94.2596C133.858 93.7434 135.046 90.6732 135.829 89.2875C137.555 86.2313 144.524 74.4528 146.003 72.089C147.185 70.198 147.075 68.2037 146.872 67.4429Z" fill="#E4E4E4" stroke="black" stroke-width="0.117247"/>
<path d="M120.002 61.7379C117.498 57.369 118.003 51.4677 120.002 49.4299C121.307 47.6367 125.237 44.5883 130.524 46.7401C137.133 49.4299 138.698 55.3803 139.133 56.929C139.568 58.4777 140.09 62.5532 143.22 65.569C146.49 69.5467 143.481 76.4641 141.568 79.4257C142.539 77.3616 142.079 72.4057 141.66 69.7145C142.128 74.2907 136.594 82.4426 134.589 84.2591C134.567 84.2818 134.546 84.3009 134.524 84.3162C134.545 84.2979 134.567 84.2789 134.589 84.2591C135.761 83.0202 137.209 70.9236 136.611 69.563C136.194 70.4759 135.22 72.1713 133.394 73.883L134.524 68.5849C135.655 63.2867 134.437 53.4241 131.568 49.9192C130.628 48.7711 127.498 47.3762 125.481 48.289C123.597 48.8867 121.829 50.4897 121.829 53.9946C121.829 55.9509 122.524 57.255 122.872 58.1516C122.993 58.4623 125.22 61.7379 126.698 62.7162L128.351 66.1396C127.133 66.1396 122.09 64.4279 120.002 61.7379Z" fill="#313234" stroke="black" stroke-width="0.117247"/>
<path d="M124.699 85.3761C122.892 82.5555 122.438 82.4418 118.351 75.2689C116.055 70.7413 119.076 66.8073 120.873 65.4062C121.337 66.0312 122.647 67.9494 124.177 70.6229C125.708 73.2964 125.511 74.4538 125.221 74.6984C125.29 76.8502 129.597 81.6267 131.742 83.8274C131.22 84.4795 128.699 89.0441 127.655 91.4078C127.366 90.2124 125.221 86.1912 124.699 85.3761Z" fill="#E4E4E4" stroke="black" stroke-width="0.117247"/>
<path d="M122.959 79.0166C120.733 76.2126 118.901 71.4362 118.264 69.3984C117.481 70.0505 117.655 72.6588 117.829 73.6369C118.003 74.6151 118.785 75.7562 118.959 76.1637C119.133 76.5713 123.481 83.4181 124.177 84.3962C124.872 85.3743 125.742 87.086 125.916 87.4121C126.048 87.6596 127.162 89.9389 127.655 91.08L129.046 88.3087C127.945 86.3796 125.185 81.8205 122.959 79.0166Z" fill="#AFAFAF"/>
<path d="M128.525 66.2205L126.873 62.8786L128.699 63.3677C129.655 63.5307 130.525 63.4492 131.047 63.3677C133.047 62.8786 134.148 60.9496 134.612 59.7812C134.699 60.1888 134.873 64.6718 134.786 64.6718C134.96 66.9541 133.568 72.2522 133.481 72.9043C133.412 73.426 132.989 74.6975 132.786 75.2681C133.342 73.3119 127.626 67.7149 124.699 65.1609C126.003 65.976 127.829 66.1933 128.525 66.2205Z" fill="#AFAFAF"/>
<path d="M123.394 59.6976C122.264 58.3935 121.916 56.6818 121.916 55.7852C122.148 56.4101 122.629 57.7251 122.699 57.9859C122.786 58.312 123.307 59.0455 124.177 60.1867C124.873 61.0996 126.09 62.3059 126.612 62.795L126.699 63.0395C126.467 63.0123 126.003 62.9091 126.003 62.7135C126.003 62.469 124.525 61.0018 123.394 59.6976Z" fill="black"/>
<path d="M136.878 52.8361C136.391 52.51 136.496 52.827 136.525 53.0172C136.786 53.5063 138.443 59.846 138.53 60.3351C138.617 60.8242 139.574 62.0468 139.4 60.3351C139.226 58.6234 137.487 53.2436 136.878 52.8361Z" fill="#565656"/>
<path d="M136.437 68.9921C136.437 69.2529 134.524 72.0351 133.568 73.3936V73.5565C133.985 73.5565 135.742 71.2743 136.611 69.3995C136.582 69.155 136.437 68.7313 136.437 68.9921Z" fill="#19191B"/>
<path d="M126.003 87.9841C124.872 88.0656 121.597 84.452 120.003 82.4414C119.864 84.3976 124.872 89.5056 127.394 91.815L127.481 91.489V91.2445C127.481 90.9836 126.496 88.9622 126.003 87.9841Z" fill="#99B390"/>
<path d="M125.431 89.2713C124.607 89.5331 121.43 87.3715 119.831 86.1284C120.13 87.6369 124.903 90.6254 127.253 91.9311L127.25 91.6684L127.2 91.4829C127.147 91.285 125.998 89.926 125.431 89.2713Z" fill="#99B390"/>
<path d="M134.003 84.4786C134.351 84.2177 135.713 78.0665 136.351 75.0234C136.235 75.9744 136.003 77.9252 136.003 78.1208C136.003 78.3653 135.307 81.9518 134.959 83.1744C134.681 84.1525 134.206 84.4514 134.003 84.4786Z" fill="#AFAFAF"/>
<path d="M141.22 79.832C141.777 78.3974 141.8 73.5285 141.742 71.2734C141.8 71.9799 141.916 73.409 141.916 73.4742C141.916 73.5557 142.003 75.1859 142.003 75.5935C142.003 76.001 141.829 78.0387 141.742 78.5278C141.672 78.919 141.365 79.5603 141.22 79.832Z" fill="#AFAFAF"/>
</g>
<path d="M349.273 22.2727H348.182V21.1818C348.182 20.6032 347.952 20.0482 347.543 19.639C347.134 19.2299 346.579 19 346 19H324.182C323.603 19 323.048 19.2299 322.639 19.639C322.23 20.0482 322 20.6032 322 21.1818V28.8182C322 29.3968 322.23 29.9518 322.639 30.361C323.048 30.7701 323.603 31 324.182 31H346C346.579 31 347.134 30.7701 347.543 30.361C347.952 29.9518 348.182 29.3968 348.182 28.8182V27.7273H349.273C349.562 27.7273 349.84 27.6123 350.044 27.4078C350.249 27.2032 350.364 26.9257 350.364 26.6364V23.3636C350.364 23.0743 350.249 22.7968 350.044 22.5922C349.84 22.3877 349.562 22.2727 349.273 22.2727ZM347.091 28.8182C347.091 29.1075 346.976 29.385 346.771 29.5896C346.567 29.7942 346.289 29.9091 346 29.9091H324.182C323.892 29.9091 323.615 29.7942 323.41 29.5896C323.206 29.385 323.091 29.1075 323.091 28.8182V21.1818C323.091 20.8925 323.206 20.615 323.41 20.4104C323.615 20.2058 323.892 20.0909 324.182 20.0909H346C346.289 20.0909 346.567 20.2058 346.771 20.4104C346.976 20.615 347.091 20.8925 347.091 21.1818V28.8182ZM324.182 28.8182H330.727V21.1818H324.182V28.8182ZM331.818 28.8182H338.364V21.1818H331.818V28.8182ZM339.455 28.8182H346V21.1818H339.455V28.8182Z" fill="#141414"/>
<path d="M61.5097 28.912C61.5097 29.9253 61.1417 30.72 60.4057 31.296C59.6697 31.872 58.6617 32.16 57.3817 32.16C56.763 32.16 56.1764 32.1067 55.6217 32C55.0777 31.904 54.6137 31.76 54.2297 31.568V29.936C54.6564 30.128 55.1577 30.304 55.7337 30.464C56.3097 30.6133 56.8964 30.688 57.4937 30.688C58.2617 30.688 58.8377 30.5387 59.2217 30.24C59.6057 29.9413 59.7977 29.5413 59.7977 29.04C59.7977 28.688 59.707 28.3947 59.5257 28.16C59.355 27.9147 59.083 27.6907 58.7097 27.488C58.3364 27.2853 57.8457 27.0613 57.2377 26.816C56.6724 26.6027 56.171 26.352 55.7337 26.064C55.307 25.776 54.971 25.4187 54.7257 24.992C54.4804 24.5653 54.3577 24.0427 54.3577 23.424C54.3577 22.4853 54.699 21.7493 55.3817 21.216C56.0644 20.6827 56.9604 20.416 58.0697 20.416C58.6884 20.416 59.259 20.48 59.7817 20.608C60.315 20.7253 60.8217 20.8907 61.3017 21.104L60.7577 22.528C60.3204 22.3467 59.8724 22.1973 59.4137 22.08C58.9657 21.9627 58.5017 21.904 58.0217 21.904C57.3924 21.904 56.9124 22.0427 56.5817 22.32C56.251 22.5973 56.0857 22.96 56.0857 23.408C56.0857 23.76 56.1657 24.0587 56.3257 24.304C56.4857 24.5387 56.7417 24.752 57.0937 24.944C57.4457 25.136 57.9097 25.3493 58.4857 25.584C59.1257 25.84 59.6697 26.112 60.1177 26.4C60.5764 26.6773 60.923 27.0187 61.1577 27.424C61.3924 27.8187 61.5097 28.3147 61.5097 28.912ZM66.9466 20.576C68.4399 20.576 69.5279 20.88 70.2106 21.488C70.8932 22.0853 71.2346 22.9227 71.2346 24C71.2346 24.64 71.0906 25.2373 70.8026 25.792C70.5252 26.3467 70.0559 26.8 69.3946 27.152C68.7332 27.4933 67.8372 27.664 66.7066 27.664H65.4746V32H63.7466V20.576H66.9466ZM66.8186 22.032H65.4746V26.208H66.5146C67.4852 26.208 68.2159 26.0427 68.7066 25.712C69.2079 25.3813 69.4586 24.832 69.4586 24.064C69.4586 23.3813 69.2452 22.8747 68.8186 22.544C68.3919 22.2027 67.7252 22.032 66.8186 22.032ZM82.4074 20.576V27.968C82.4074 28.7573 82.2421 29.472 81.9114 30.112C81.5808 30.7413 81.0794 31.2427 80.4074 31.616C79.7461 31.9787 78.9034 32.16 77.8794 32.16C76.4288 32.16 75.3248 31.776 74.5674 31.008C73.8208 30.2293 73.4474 29.2053 73.4474 27.936V20.576H75.1754V27.856C75.1754 29.744 76.1034 30.688 77.9594 30.688C78.9194 30.688 79.6128 30.432 80.0394 29.92C80.4768 29.408 80.6954 28.7147 80.6954 27.84V20.576H82.4074ZM94.6039 26.176C94.6039 28.1067 94.0706 29.5627 93.0039 30.544C91.9479 31.5147 90.4653 32 88.5559 32H85.3559V20.576H88.8919C90.0546 20.576 91.0626 20.7893 91.9159 21.216C92.7693 21.6427 93.4306 22.272 93.8999 23.104C94.3693 23.9253 94.6039 24.9493 94.6039 26.176ZM92.7959 26.224C92.7959 24.784 92.4439 23.728 91.7399 23.056C91.0466 22.3733 90.0599 22.032 88.7799 22.032H87.0839V30.544H88.4759C91.3559 30.544 92.7959 29.104 92.7959 26.224Z" fill="#141414"/>
<path d="M293.377 28.0069L294.776 29.3981C295.243 28.9328 295.797 28.5636 296.408 28.3117C297.018 28.0598 297.672 27.9302 298.333 27.9302C298.994 27.9302 299.649 28.0598 300.259 28.3117C300.87 28.5636 301.424 28.9328 301.891 29.3981L303.29 28.0069C302.639 27.3595 301.866 26.8459 301.016 26.4955C300.166 26.1452 299.254 25.9648 298.333 25.9648C297.413 25.9648 296.501 26.1452 295.651 26.4955C294.8 26.8459 294.027 27.3595 293.377 28.0069V28.0069ZM290.19 24.8383L291.589 26.2295C292.474 25.3473 293.525 24.6473 294.682 24.1697C295.84 23.6922 297.08 23.4463 298.333 23.4463C299.586 23.4463 300.827 23.6922 301.984 24.1697C303.142 24.6473 304.193 25.3473 305.078 26.2295L306.479 24.836C305.41 23.7726 304.14 22.929 302.742 22.3534C301.345 21.7779 299.847 21.4817 298.335 21.4817C296.822 21.4817 295.325 21.7779 293.927 22.3534C292.53 22.929 291.26 23.7726 290.191 24.836L290.19 24.8383ZM298.333 17C296.228 16.9973 294.143 17.4083 292.198 18.2094C290.253 19.0105 288.487 20.186 287 21.6682L288.402 23.0624C289.705 21.7636 291.253 20.7332 292.957 20.0301C294.661 19.327 296.488 18.9651 298.333 18.9651C300.178 18.9651 302.005 19.327 303.709 20.0301C305.414 20.7332 306.961 21.7636 308.264 23.0624L309.667 21.6682C308.18 20.186 306.414 19.0105 304.469 18.2094C302.524 17.4083 300.439 16.9973 298.333 17V17ZM298.333 30.0525C298.04 30.0525 297.754 30.1389 297.51 30.3008C297.266 30.4628 297.076 30.6929 296.964 30.9622C296.852 31.2315 296.822 31.5279 296.88 31.8137C296.937 32.0996 297.078 32.3622 297.285 32.5683C297.493 32.7745 297.757 32.9148 298.044 32.9717C298.332 33.0285 298.63 32.9994 298.901 32.8878C299.171 32.7763 299.403 32.5874 299.566 32.345C299.729 32.1027 299.816 31.8177 299.816 31.5262C299.816 31.1354 299.659 30.7605 299.381 30.4841C299.103 30.2077 298.726 30.0525 298.333 30.0525V30.0525Z" fill="#141414"/>
</svg>
