<svg width="392" height="102" viewBox="0 0 392 102" fill="none" xmlns="http://www.w3.org/2000/svg">
<path d="M390.406 1H1.79228C1.39614 1 1 1.39063 1 1.78125V101H390.208C390.604 101 391 100.609 391 100.219V1.58594C391 1.19531 390.802 1 390.406 1Z" fill="#F2F2F2" stroke="#333333" stroke-miterlimit="10"/>
<path d="M349.273 22.2727H348.182V21.1818C348.182 20.6032 347.952 20.0482 347.543 19.639C347.134 19.2299 346.579 19 346 19H324.182C323.603 19 323.048 19.2299 322.639 19.639C322.23 20.0482 322 20.6032 322 21.1818V28.8182C322 29.3968 322.23 29.9518 322.639 30.361C323.048 30.7701 323.603 31 324.182 31H346C346.579 31 347.134 30.7701 347.543 30.361C347.952 29.9518 348.182 29.3968 348.182 28.8182V27.7273H349.273C349.562 27.7273 349.84 27.6123 350.044 27.4078C350.249 27.2032 350.364 26.9257 350.364 26.6364V23.3636C350.364 23.0743 350.249 22.7968 350.044 22.5922C349.84 22.3877 349.562 22.2727 349.273 22.2727ZM347.091 28.8182C347.091 29.1075 346.976 29.385 346.771 29.5896C346.567 29.7942 346.289 29.9091 346 29.9091H324.182C323.892 29.9091 323.615 29.7942 323.41 29.5896C323.206 29.385 323.091 29.1075 323.091 28.8182V21.1818C323.091 20.8925 323.206 20.615 323.41 20.4104C323.615 20.2058 323.892 20.0909 324.182 20.0909H346C346.289 20.0909 346.567 20.2058 346.771 20.4104C346.976 20.615 347.091 20.8925 347.091 21.1818V28.8182ZM324.182 28.8182H330.727V21.1818H324.182V28.8182ZM331.818 28.8182H338.364V21.1818H331.818V28.8182ZM339.455 28.8182H346V21.1818H339.455V28.8182Z" fill="#141414"/>
<path d="M61.5097 28.912C61.5097 29.9253 61.1417 30.72 60.4057 31.296C59.6697 31.872 58.6617 32.16 57.3817 32.16C56.763 32.16 56.1764 32.1067 55.6217 32C55.0777 31.904 54.6137 31.76 54.2297 31.568V29.936C54.6564 30.128 55.1577 30.304 55.7337 30.464C56.3097 30.6133 56.8964 30.688 57.4937 30.688C58.2617 30.688 58.8377 30.5387 59.2217 30.24C59.6057 29.9413 59.7977 29.5413 59.7977 29.04C59.7977 28.688 59.707 28.3947 59.5257 28.16C59.355 27.9147 59.083 27.6907 58.7097 27.488C58.3364 27.2853 57.8457 27.0613 57.2377 26.816C56.6724 26.6027 56.171 26.352 55.7337 26.064C55.307 25.776 54.971 25.4187 54.7257 24.992C54.4804 24.5653 54.3577 24.0427 54.3577 23.424C54.3577 22.4853 54.699 21.7493 55.3817 21.216C56.0644 20.6827 56.9604 20.416 58.0697 20.416C58.6884 20.416 59.259 20.48 59.7817 20.608C60.315 20.7253 60.8217 20.8907 61.3017 21.104L60.7577 22.528C60.3204 22.3467 59.8724 22.1973 59.4137 22.08C58.9657 21.9627 58.5017 21.904 58.0217 21.904C57.3924 21.904 56.9124 22.0427 56.5817 22.32C56.251 22.5973 56.0857 22.96 56.0857 23.408C56.0857 23.76 56.1657 24.0587 56.3257 24.304C56.4857 24.5387 56.7417 24.752 57.0937 24.944C57.4457 25.136 57.9097 25.3493 58.4857 25.584C59.1257 25.84 59.6697 26.112 60.1177 26.4C60.5764 26.6773 60.923 27.0187 61.1577 27.424C61.3924 27.8187 61.5097 28.3147 61.5097 28.912ZM66.9466 20.576C68.4399 20.576 69.5279 20.88 70.2106 21.488C70.8932 22.0853 71.2346 22.9227 71.2346 24C71.2346 24.64 71.0906 25.2373 70.8026 25.792C70.5252 26.3467 70.0559 26.8 69.3946 27.152C68.7332 27.4933 67.8372 27.664 66.7066 27.664H65.4746V32H63.7466V20.576H66.9466ZM66.8186 22.032H65.4746V26.208H66.5146C67.4852 26.208 68.2159 26.0427 68.7066 25.712C69.2079 25.3813 69.4586 24.832 69.4586 24.064C69.4586 23.3813 69.2452 22.8747 68.8186 22.544C68.3919 22.2027 67.7252 22.032 66.8186 22.032ZM82.4074 20.576V27.968C82.4074 28.7573 82.2421 29.472 81.9114 30.112C81.5808 30.7413 81.0794 31.2427 80.4074 31.616C79.7461 31.9787 78.9034 32.16 77.8794 32.16C76.4288 32.16 75.3248 31.776 74.5674 31.008C73.8208 30.2293 73.4474 29.2053 73.4474 27.936V20.576H75.1754V27.856C75.1754 29.744 76.1034 30.688 77.9594 30.688C78.9194 30.688 79.6128 30.432 80.0394 29.92C80.4768 29.408 80.6954 28.7147 80.6954 27.84V20.576H82.4074ZM94.6039 26.176C94.6039 28.1067 94.0706 29.5627 93.0039 30.544C91.9479 31.5147 90.4653 32 88.5559 32H85.3559V20.576H88.8919C90.0546 20.576 91.0626 20.7893 91.9159 21.216C92.7693 21.6427 93.4306 22.272 93.8999 23.104C94.3693 23.9253 94.6039 24.9493 94.6039 26.176ZM92.7959 26.224C92.7959 24.784 92.4439 23.728 91.7399 23.056C91.0466 22.3733 90.0599 22.032 88.7799 22.032H87.0839V30.544H88.4759C91.3559 30.544 92.7959 29.104 92.7959 26.224Z" fill="#141414"/>
<path d="M293.377 28.0069L294.776 29.3981C295.243 28.9328 295.797 28.5636 296.408 28.3117C297.018 28.0598 297.672 27.9302 298.333 27.9302C298.994 27.9302 299.649 28.0598 300.259 28.3117C300.87 28.5636 301.424 28.9328 301.891 29.3981L303.29 28.0069C302.639 27.3595 301.866 26.8459 301.016 26.4955C300.166 26.1452 299.254 25.9648 298.333 25.9648C297.413 25.9648 296.501 26.1452 295.651 26.4955C294.8 26.8459 294.027 27.3595 293.377 28.0069V28.0069ZM290.19 24.8383L291.589 26.2295C292.474 25.3473 293.525 24.6473 294.682 24.1697C295.84 23.6922 297.08 23.4463 298.333 23.4463C299.586 23.4463 300.827 23.6922 301.984 24.1697C303.142 24.6473 304.193 25.3473 305.078 26.2295L306.479 24.836C305.41 23.7726 304.14 22.929 302.742 22.3534C301.345 21.7779 299.847 21.4817 298.335 21.4817C296.822 21.4817 295.325 21.7779 293.927 22.3534C292.53 22.929 291.26 23.7726 290.191 24.836L290.19 24.8383ZM298.333 17C296.228 16.9973 294.143 17.4083 292.198 18.2094C290.253 19.0105 288.487 20.186 287 21.6682L288.402 23.0624C289.705 21.7636 291.253 20.7332 292.957 20.0301C294.661 19.327 296.488 18.9651 298.333 18.9651C300.178 18.9651 302.005 19.327 303.709 20.0301C305.414 20.7332 306.961 21.7636 308.264 23.0624L309.667 21.6682C308.18 20.186 306.414 19.0105 304.469 18.2094C302.524 17.4083 300.439 16.9973 298.333 17V17ZM298.333 30.0525C298.04 30.0525 297.754 30.1389 297.51 30.3008C297.266 30.4628 297.076 30.6929 296.964 30.9622C296.852 31.2315 296.822 31.5279 296.88 31.8137C296.937 32.0996 297.078 32.3622 297.285 32.5683C297.493 32.7745 297.757 32.9148 298.044 32.9717C298.332 33.0285 298.63 32.9994 298.901 32.8878C299.171 32.7763 299.403 32.5874 299.566 32.345C299.729 32.1027 299.816 31.8177 299.816 31.5262C299.816 31.1354 299.659 30.7605 299.381 30.4841C299.103 30.2077 298.726 30.0525 298.333 30.0525V30.0525Z" fill="#141414"/>
<path d="M167.48 62L166.816 61.0039C166.543 61.362 166.201 61.6517 165.791 61.873C165.381 62.0879 164.932 62.1953 164.443 62.1953H164.141C163.737 62.1953 163.356 62.1204 162.998 61.9707C162.64 61.8145 162.327 61.6029 162.061 61.3359C161.794 61.069 161.582 60.7565 161.426 60.3984C161.276 60.0404 161.201 59.6595 161.201 59.2559V59.1582C161.201 58.7546 161.276 58.3737 161.426 58.0156C161.582 57.6576 161.794 57.3451 162.061 57.0781C162.327 56.8112 162.64 56.6029 162.998 56.4531C163.356 56.2969 163.737 56.2188 164.141 56.2188H166.68V54.6758C166.68 54.4349 166.634 54.2103 166.543 54.002C166.452 53.7871 166.328 53.6016 166.172 53.4453C166.016 53.2891 165.83 53.1654 165.615 53.0742C165.407 52.9831 165.182 52.9375 164.941 52.9375H164.238C163.997 52.9375 163.77 52.9831 163.555 53.0742C163.346 53.1654 163.164 53.2891 163.008 53.4453C162.852 53.6016 162.728 53.7871 162.637 54.002C162.546 54.2103 162.5 54.4349 162.5 54.6758V55.0371L161.299 54.8418V54.7441C161.299 54.3405 161.374 53.9596 161.523 53.6016C161.68 53.2435 161.891 52.931 162.158 52.6641C162.425 52.3971 162.738 52.1888 163.096 52.0391C163.454 51.8828 163.835 51.8047 164.238 51.8047H164.941C165.345 51.8047 165.726 51.8828 166.084 52.0391C166.442 52.1888 166.755 52.3971 167.021 52.6641C167.288 52.931 167.497 53.2435 167.646 53.6016C167.803 53.9596 167.881 54.3405 167.881 54.7441V62H167.48ZM166.68 57.1562H164.141C163.9 57.1562 163.672 57.2018 163.457 57.293C163.249 57.3841 163.066 57.5111 162.91 57.6738C162.754 57.8301 162.63 58.0156 162.539 58.2305C162.448 58.4388 162.402 58.6634 162.402 58.9043V59.3242C162.402 59.5651 162.448 59.793 162.539 60.0078C162.63 60.2161 162.754 60.3984 162.91 60.5547C163.066 60.7109 163.249 60.8346 163.457 60.9258C163.672 61.0169 163.9 61.0625 164.141 61.0625H164.941C165.182 61.0625 165.407 61.0169 165.615 60.9258C165.83 60.8346 166.016 60.7109 166.172 60.5547C166.328 60.3984 166.452 60.2161 166.543 60.0078C166.634 59.793 166.68 59.5651 166.68 59.3242V57.1562ZM173.223 53.1426C172.982 53.1426 172.754 53.1882 172.539 53.2793C172.331 53.3704 172.148 53.4941 171.992 53.6504C171.836 53.8066 171.712 53.9922 171.621 54.207C171.53 54.4154 171.484 54.64 171.484 54.8809V62H170.283V52H170.684L171.338 53.0156C171.611 52.6445 171.953 52.3516 172.363 52.1367C172.78 51.9154 173.232 51.8047 173.721 51.8047H174.424V53.1426H173.223ZM179.668 62C179.303 62 178.958 61.9316 178.633 61.7949C178.314 61.6582 178.034 61.4694 177.793 61.2285C177.559 60.9876 177.37 60.7077 177.227 60.3887C177.09 60.0697 177.021 59.7279 177.021 59.3633V53.1426H175.225V52H177.021V49.5977L178.223 49.4023V52H180.762V53.1426H178.223V59.4219C178.223 59.6237 178.258 59.8125 178.33 59.9883C178.408 60.1576 178.512 60.3073 178.643 60.4375C178.773 60.5677 178.926 60.6719 179.102 60.75C179.277 60.8216 179.466 60.8574 179.668 60.8574H180.762V62H179.668ZM188.457 62V54.6758C188.457 54.4349 188.411 54.2103 188.32 54.002C188.229 53.7871 188.105 53.6016 187.949 53.4453C187.793 53.2891 187.607 53.1654 187.393 53.0742C187.184 52.9831 186.96 52.9375 186.719 52.9375H185.918C185.677 52.9375 185.449 52.9831 185.234 53.0742C185.026 53.1654 184.844 53.2891 184.688 53.4453C184.531 53.6016 184.408 53.7871 184.316 54.002C184.225 54.2103 184.18 54.4349 184.18 54.6758V62H182.979V47.9961H184.18V52.8398C184.453 52.5143 184.782 52.2604 185.166 52.0781C185.55 51.8958 185.967 51.8047 186.416 51.8047H186.719C187.122 51.8047 187.503 51.8828 187.861 52.0391C188.219 52.1888 188.532 52.3971 188.799 52.6641C189.066 52.931 189.274 53.2435 189.424 53.6016C189.58 53.9596 189.658 54.3405 189.658 54.7441V62H188.457ZM198.34 62L197.676 60.9844C197.402 61.3555 197.061 61.6517 196.65 61.873C196.24 62.0879 195.791 62.1953 195.303 62.1953H195C194.596 62.1953 194.215 62.1204 193.857 61.9707C193.499 61.8145 193.187 61.6029 192.92 61.3359C192.653 61.069 192.441 60.7565 192.285 60.3984C192.135 60.0404 192.061 59.6595 192.061 59.2559V52H193.262V59.3242C193.262 59.5651 193.307 59.793 193.398 60.0078C193.49 60.2161 193.613 60.3984 193.77 60.5547C193.926 60.7109 194.108 60.8346 194.316 60.9258C194.531 61.0169 194.759 61.0625 195 61.0625H195.801C196.042 61.0625 196.266 61.0169 196.475 60.9258C196.689 60.8346 196.875 60.7109 197.031 60.5547C197.188 60.3984 197.311 60.2161 197.402 60.0078C197.493 59.793 197.539 59.5651 197.539 59.3242V52H198.74V62H198.34ZM204.082 53.1426C203.841 53.1426 203.613 53.1882 203.398 53.2793C203.19 53.3704 203.008 53.4941 202.852 53.6504C202.695 53.8066 202.572 53.9922 202.48 54.207C202.389 54.4154 202.344 54.64 202.344 54.8809V62H201.143V52H201.543L202.197 53.0156C202.471 52.6445 202.812 52.3516 203.223 52.1367C203.639 51.9154 204.092 51.8047 204.58 51.8047H205.283V53.1426H204.082ZM205.869 62V60.4961H207.373V62H205.869ZM210.371 62V47.9961H211.572V62H210.371ZM220.664 62L220 61.0039C219.727 61.362 219.385 61.6517 218.975 61.873C218.564 62.0879 218.115 62.1953 217.627 62.1953H217.324C216.921 62.1953 216.54 62.1204 216.182 61.9707C215.824 61.8145 215.511 61.6029 215.244 61.3359C214.977 61.069 214.766 60.7565 214.609 60.3984C214.46 60.0404 214.385 59.6595 214.385 59.2559V59.1582C214.385 58.7546 214.46 58.3737 214.609 58.0156C214.766 57.6576 214.977 57.3451 215.244 57.0781C215.511 56.8112 215.824 56.6029 216.182 56.4531C216.54 56.2969 216.921 56.2188 217.324 56.2188H219.863V54.6758C219.863 54.4349 219.818 54.2103 219.727 54.002C219.635 53.7871 219.512 53.6016 219.355 53.4453C219.199 53.2891 219.014 53.1654 218.799 53.0742C218.59 52.9831 218.366 52.9375 218.125 52.9375H217.422C217.181 52.9375 216.953 52.9831 216.738 53.0742C216.53 53.1654 216.348 53.2891 216.191 53.4453C216.035 53.6016 215.911 53.7871 215.82 54.002C215.729 54.2103 215.684 54.4349 215.684 54.6758V55.0371L214.482 54.8418V54.7441C214.482 54.3405 214.557 53.9596 214.707 53.6016C214.863 53.2435 215.075 52.931 215.342 52.6641C215.609 52.3971 215.921 52.1888 216.279 52.0391C216.637 51.8828 217.018 51.8047 217.422 51.8047H218.125C218.529 51.8047 218.91 51.8828 219.268 52.0391C219.626 52.1888 219.938 52.3971 220.205 52.6641C220.472 52.931 220.68 53.2435 220.83 53.6016C220.986 53.9596 221.064 54.3405 221.064 54.7441V62H220.664ZM219.863 57.1562H217.324C217.083 57.1562 216.855 57.2018 216.641 57.293C216.432 57.3841 216.25 57.5111 216.094 57.6738C215.938 57.8301 215.814 58.0156 215.723 58.2305C215.632 58.4388 215.586 58.6634 215.586 58.9043V59.3242C215.586 59.5651 215.632 59.793 215.723 60.0078C215.814 60.2161 215.938 60.3984 216.094 60.5547C216.25 60.7109 216.432 60.8346 216.641 60.9258C216.855 61.0169 217.083 61.0625 217.324 61.0625H218.125C218.366 61.0625 218.59 61.0169 218.799 60.9258C219.014 60.8346 219.199 60.7109 219.355 60.5547C219.512 60.3984 219.635 60.2161 219.727 60.0078C219.818 59.793 219.863 59.5651 219.863 59.3242V57.1562ZM228.945 62V54.6758C228.945 54.4349 228.9 54.2103 228.809 54.002C228.717 53.7871 228.594 53.6016 228.438 53.4453C228.281 53.2891 228.096 53.1654 227.881 53.0742C227.673 52.9831 227.448 52.9375 227.207 52.9375H226.406C226.165 52.9375 225.938 52.9831 225.723 53.0742C225.514 53.1654 225.332 53.2891 225.176 53.4453C225.02 53.6016 224.896 53.7871 224.805 54.002C224.714 54.2103 224.668 54.4349 224.668 54.6758V62H223.467V52H223.867L224.521 53.0156C224.795 52.6445 225.137 52.3516 225.547 52.1367C225.964 51.9154 226.416 51.8047 226.904 51.8047H227.207C227.611 51.8047 227.992 51.8828 228.35 52.0391C228.708 52.1888 229.02 52.3971 229.287 52.6641C229.554 52.931 229.762 53.2435 229.912 53.6016C230.068 53.9596 230.146 54.3405 230.146 54.7441V62H228.945ZM239.326 63.2598C239.326 63.6634 239.248 64.0345 239.092 64.373C238.942 64.7116 238.734 65.0013 238.467 65.2422C238.2 65.4831 237.887 65.6686 237.529 65.7988C237.171 65.9355 236.79 66.0039 236.387 66.0039H235.889C235.485 66.0039 235.104 65.9355 234.746 65.7988C234.388 65.6686 234.076 65.4831 233.809 65.2422C233.542 65.0013 233.33 64.7116 233.174 64.373C233.024 64.0345 232.949 63.6634 232.949 63.2598V63.2207C232.949 62.8301 233.021 62.472 233.164 62.1465C233.307 61.821 233.503 61.5378 233.75 61.2969C233.438 61.1081 233.187 60.8542 232.998 60.5352C232.816 60.2096 232.725 59.8516 232.725 59.4609C232.725 59.1094 232.799 58.7839 232.949 58.4844C233.099 58.1784 233.304 57.931 233.564 57.7422C233.252 57.4688 233.005 57.14 232.822 56.7559C232.64 56.3717 232.549 55.9518 232.549 55.4961V54.7441C232.549 54.3405 232.624 53.9596 232.773 53.6016C232.93 53.2435 233.141 52.931 233.408 52.6641C233.675 52.3971 233.988 52.1888 234.346 52.0391C234.704 51.8828 235.085 51.8047 235.488 51.8047H235.986C236.475 51.8047 236.924 51.9154 237.334 52.1367C237.751 52.3516 238.096 52.6445 238.369 53.0156L239.023 52H239.424V55.4961C239.424 55.8997 239.346 56.2806 239.189 56.6387C239.04 56.9967 238.831 57.3092 238.564 57.5762C238.298 57.8431 237.985 58.0547 237.627 58.2109C237.269 58.3607 236.888 58.4355 236.484 58.4355H234.746C234.609 58.4355 234.479 58.4648 234.355 58.5234C234.232 58.5755 234.121 58.6471 234.023 58.7383C233.932 58.8294 233.861 58.9401 233.809 59.0703C233.757 59.194 233.73 59.3242 233.73 59.4609C233.73 59.5977 233.757 59.7279 233.809 59.8516C233.861 59.9753 233.932 60.0859 234.023 60.1836C234.121 60.2747 234.232 60.3464 234.355 60.3984C234.479 60.4505 234.609 60.4766 234.746 60.4766H236.387C236.79 60.4766 237.171 60.5449 237.529 60.6816C237.887 60.8118 238.2 60.9974 238.467 61.2383C238.734 61.4792 238.942 61.7689 239.092 62.1074C239.248 62.446 239.326 62.8171 239.326 63.2207V63.2598ZM238.232 54.6758C238.232 54.4349 238.187 54.2103 238.096 54.002C238.005 53.7871 237.878 53.6016 237.715 53.4453C237.559 53.2891 237.373 53.1654 237.158 53.0742C236.95 52.9831 236.725 52.9375 236.484 52.9375H235.488C235.247 52.9375 235.02 52.9831 234.805 53.0742C234.596 53.1654 234.414 53.2891 234.258 53.4453C234.102 53.6016 233.978 53.7871 233.887 54.002C233.796 54.2103 233.75 54.4349 233.75 54.6758V55.5645C233.75 55.8053 233.796 56.0332 233.887 56.248C233.978 56.4564 234.102 56.6387 234.258 56.7949C234.414 56.9512 234.596 57.0749 234.805 57.166C235.02 57.2572 235.247 57.3027 235.488 57.3027H236.484C236.725 57.3027 236.95 57.2572 237.158 57.166C237.373 57.0749 237.559 56.9512 237.715 56.7949C237.878 56.6387 238.005 56.4564 238.096 56.248C238.187 56.0332 238.232 55.8053 238.232 55.5645V54.6758ZM238.184 63.1621C238.184 62.9212 238.138 62.7031 238.047 62.5078C237.956 62.319 237.832 62.1595 237.676 62.0293C237.52 61.8991 237.334 61.7982 237.119 61.7266C236.911 61.6549 236.686 61.6191 236.445 61.6191H235.83C235.589 61.6191 235.361 61.6549 235.146 61.7266C234.938 61.7982 234.756 61.8991 234.6 62.0293C234.443 62.1595 234.32 62.319 234.229 62.5078C234.137 62.7031 234.092 62.9212 234.092 63.1621V63.3184C234.092 63.5592 234.137 63.7741 234.229 63.9629C234.32 64.1517 234.443 64.3112 234.6 64.4414C234.756 64.5781 234.938 64.6823 235.146 64.7539C235.361 64.8255 235.589 64.8613 235.83 64.8613H236.445C236.686 64.8613 236.911 64.8255 237.119 64.7539C237.334 64.6823 237.52 64.5781 237.676 64.4414C237.832 64.3112 237.956 64.1517 238.047 63.9629C238.138 63.7741 238.184 63.5592 238.184 63.3184V63.1621ZM242.031 62V47.9961H243.232V62H242.031ZM252.725 59.2559C252.725 59.6595 252.646 60.0404 252.49 60.3984C252.34 60.7565 252.132 61.069 251.865 61.3359C251.598 61.6029 251.286 61.8145 250.928 61.9707C250.57 62.1204 250.189 62.1953 249.785 62.1953H248.984C248.581 62.1953 248.2 62.1204 247.842 61.9707C247.484 61.8145 247.171 61.6029 246.904 61.3359C246.637 61.069 246.426 60.7565 246.27 60.3984C246.12 60.0404 246.045 59.6595 246.045 59.2559V54.7441C246.045 54.3405 246.12 53.9596 246.27 53.6016C246.426 53.2435 246.637 52.931 246.904 52.6641C247.171 52.3971 247.484 52.1888 247.842 52.0391C248.2 51.8828 248.581 51.8047 248.984 51.8047H249.785C250.189 51.8047 250.57 51.8828 250.928 52.0391C251.286 52.1888 251.598 52.3971 251.865 52.6641C252.132 52.931 252.34 53.2435 252.49 53.6016C252.646 53.9596 252.725 54.3405 252.725 54.7441V57.0977H247.246V59.3242C247.246 59.5651 247.292 59.793 247.383 60.0078C247.474 60.2161 247.598 60.3984 247.754 60.5547C247.91 60.7109 248.092 60.8346 248.301 60.9258C248.516 61.0169 248.743 61.0625 248.984 61.0625H249.785C250.026 61.0625 250.251 61.0169 250.459 60.9258C250.674 60.8346 250.859 60.7109 251.016 60.5547C251.172 60.3984 251.296 60.2161 251.387 60.0078C251.478 59.793 251.523 59.5651 251.523 59.3242V58.6602L252.725 58.8555V59.2559ZM251.523 54.6758C251.523 54.4349 251.478 54.2103 251.387 54.002C251.296 53.7871 251.172 53.6016 251.016 53.4453C250.859 53.2891 250.674 53.1654 250.459 53.0742C250.251 52.9831 250.026 52.9375 249.785 52.9375H248.984C248.743 52.9375 248.516 52.9831 248.301 53.0742C248.092 53.1654 247.91 53.2891 247.754 53.4453C247.598 53.6016 247.474 53.7871 247.383 54.002C247.292 54.2103 247.246 54.4349 247.246 54.6758V56.1602H251.523V54.6758ZM256.748 66.0039H255.586L257.363 61.1406L254.121 52H255.322L257.93 59.5781L257.969 60.0957L258.008 59.5781L260.605 52H261.807L256.748 66.0039Z" fill="black"/>
<path d="M180.64 75.704C180.64 76.592 180.488 77.368 180.184 78.032C179.888 78.688 179.448 79.2 178.864 79.568C178.28 79.936 177.556 80.12 176.692 80.12C175.804 80.12 175.064 79.936 174.472 79.568C173.888 79.2 173.452 78.684 173.164 78.02C172.876 77.356 172.732 76.58 172.732 75.692C172.732 74.812 172.876 74.044 173.164 73.388C173.452 72.732 173.888 72.22 174.472 71.852C175.064 71.484 175.808 71.3 176.704 71.3C177.56 71.3 178.28 71.484 178.864 71.852C179.448 72.212 179.888 72.724 180.184 73.388C180.488 74.044 180.64 74.816 180.64 75.704ZM173.872 75.704C173.872 76.784 174.1 77.636 174.556 78.26C175.012 78.876 175.724 79.184 176.692 79.184C177.668 79.184 178.38 78.876 178.828 78.26C179.276 77.636 179.5 76.784 179.5 75.704C179.5 74.624 179.276 73.78 178.828 73.172C178.38 72.556 177.672 72.248 176.704 72.248C175.736 72.248 175.02 72.556 174.556 73.172C174.1 73.78 173.872 74.624 173.872 75.704ZM185.491 73.448C186.259 73.448 186.839 73.636 187.231 74.012C187.623 74.38 187.819 74.98 187.819 75.812V80H186.775V75.884C186.775 74.852 186.295 74.336 185.335 74.336C184.623 74.336 184.131 74.536 183.859 74.936C183.587 75.336 183.451 75.912 183.451 76.664V80H182.395V73.568H183.247L183.403 74.444H183.463C183.671 74.108 183.959 73.86 184.327 73.7C184.695 73.532 185.083 73.448 185.491 73.448ZM190.869 80H189.813V70.88H190.869V80ZM193.447 71.156C193.607 71.156 193.747 71.212 193.867 71.324C193.995 71.428 194.059 71.596 194.059 71.828C194.059 72.052 193.995 72.22 193.867 72.332C193.747 72.444 193.607 72.5 193.447 72.5C193.271 72.5 193.123 72.444 193.003 72.332C192.883 72.22 192.823 72.052 192.823 71.828C192.823 71.596 192.883 71.428 193.003 71.324C193.123 71.212 193.271 71.156 193.447 71.156ZM193.963 73.568V80H192.907V73.568H193.963ZM199.096 73.448C199.864 73.448 200.444 73.636 200.836 74.012C201.228 74.38 201.424 74.98 201.424 75.812V80H200.38V75.884C200.38 74.852 199.9 74.336 198.94 74.336C198.228 74.336 197.736 74.536 197.464 74.936C197.192 75.336 197.056 75.912 197.056 76.664V80H196V73.568H196.852L197.008 74.444H197.068C197.276 74.108 197.564 73.86 197.932 73.7C198.3 73.532 198.688 73.448 199.096 73.448ZM205.902 73.448C206.454 73.448 206.926 73.568 207.318 73.808C207.718 74.048 208.022 74.388 208.23 74.828C208.446 75.26 208.554 75.768 208.554 76.352V76.988H204.15C204.166 77.716 204.35 78.272 204.702 78.656C205.062 79.032 205.562 79.22 206.202 79.22C206.61 79.22 206.97 79.184 207.282 79.112C207.602 79.032 207.93 78.92 208.266 78.776V79.7C207.938 79.844 207.614 79.948 207.294 80.012C206.974 80.084 206.594 80.12 206.154 80.12C205.546 80.12 205.006 79.996 204.534 79.748C204.07 79.5 203.706 79.132 203.442 78.644C203.186 78.148 203.058 77.544 203.058 76.832C203.058 76.128 203.174 75.524 203.406 75.02C203.646 74.516 203.978 74.128 204.402 73.856C204.834 73.584 205.334 73.448 205.902 73.448ZM205.89 74.312C205.386 74.312 204.986 74.476 204.69 74.804C204.402 75.124 204.23 75.572 204.174 76.148H207.45C207.442 75.604 207.314 75.164 207.066 74.828C206.818 74.484 206.426 74.312 205.89 74.312Z" fill="#828282"/>
<circle cx="164" cy="76" r="4" fill="#6FCF97"/>
<circle cx="130" cy="63" r="22" fill="#BDBDBD"/>
<mask id="mask0" mask-type="alpha" maskUnits="userSpaceOnUse" x="108" y="41" width="44" height="44">
<circle cx="130" cy="63" r="22" fill="#C4C4C4"/>
</mask>
<g mask="url(#mask0)">
<path d="M113 92C113 92 113.224 88.0698 113.742 86.9469C114.26 85.824 113.371 83.6502 113.447 81.9994C113.523 80.3486 113.595 75.9817 114.56 74.6813C115.526 73.3808 122.879 66.0867 122.879 66.0867L123.873 64.1096L133.937 61C133.937 61 135.512 61.4847 135.773 61.7486C136.035 62.0173 136.325 62.5212 136.325 62.5212C136.325 62.5212 147.997 63.8361 152.735 68.3373C152.735 68.3373 154.518 69.8633 154.656 71.6628C154.656 71.6628 156.873 75.4011 157.401 76.2361C157.933 77.0663 157.933 77.0663 157.933 77.0663C157.933 77.0663 161.386 87.3164 162 89.3943" fill="#3E512E"/>
<path d="M113 92C113 92 113.224 88.0698 113.742 86.9469C114.26 85.824 113.371 83.6502 113.447 81.9994C113.523 80.3486 113.595 75.9817 114.56 74.6813C115.526 73.3808 122.879 66.0867 122.879 66.0867L123.873 64.1096L133.937 61C133.937 61 135.512 61.4847 135.773 61.7486C136.035 62.0173 136.325 62.5212 136.325 62.5212C136.325 62.5212 147.997 63.8361 152.735 68.3373C152.735 68.3373 154.518 69.8633 154.656 71.6628C154.656 71.6628 156.873 75.4011 157.401 76.2361C157.933 77.0663 157.933 77.0663 157.933 77.0663C157.933 77.0663 161.386 87.3164 162 89.3943" stroke="black" stroke-width="0.0893838" stroke-miterlimit="10"/>
<path d="M164 91.9952H150.899L150.554 90.7802C150.554 90.7802 149.238 89.5315 149.723 88.6334C150.208 87.7305 148.503 86.2129 148.33 85.0747C148.153 83.9365 147.98 83 147.98 83C147.98 83 147.802 85.3388 147.365 85.4253C146.928 85.5117 147.485 92 147.485 92H113" fill="#3E512E"/>
<path d="M164 91.9952H150.899L150.554 90.7802C150.554 90.7802 149.238 89.5315 149.723 88.6334C150.208 87.7305 148.503 86.2129 148.33 85.0747C148.153 83.9365 147.98 83 147.98 83C147.98 83 147.802 85.3388 147.365 85.4253C146.928 85.5117 147.485 92 147.485 92H113" stroke="black" stroke-width="0.0893838" stroke-miterlimit="10"/>
<path d="M119.634 56C119.634 56 118.091 52.1088 118.231 50.9046C118.371 49.7004 118.166 48.4514 118.222 48.2474C118.278 48.0483 118.073 47.6851 118.007 47.6353C117.942 47.5905 118.329 47.3617 118.436 47.5458C118.543 47.7299 118.52 47.0432 118.31 46.9735C118.101 46.9039 118.651 46.7695 118.93 46.9735C118.93 46.9735 118.986 46.451 118.679 46.3366C118.679 46.3366 119.122 46.1077 119.634 46.3366C119.634 46.3366 119.653 45.63 119.355 45.6051C119.355 45.6051 120.166 45.0578 120.786 45.1025C121.406 45.1473 121.83 44.7841 121.895 44.5801C121.961 44.376 123.028 43.7341 124.436 44.1223C125.844 44.5104 129.224 45.4061 130.077 46.5356C130.93 47.6652 131.453 49.2575 131.984 50.2477C132.515 51.238 119.634 56 119.634 56Z" fill="#313234"/>
<path d="M124 63.464C124 63.464 124.818 67.1975 125.434 68.6029C126.049 70.0084 128.247 72.1595 128.687 72.8145C129.128 73.4694 129.289 74 129.289 74C129.289 74 131.303 69.7168 132.66 67.7903C134.017 65.8638 134.759 65.3427 134.961 63.7652C135.167 62.1924 134.52 61.5327 133.896 61.0117C133.276 60.4858 132.952 58 132.952 58L124 63.464Z" fill="#E4E4E4" stroke="black" stroke-width="0.0893838"/>
<path d="M126.265 68.8743C124.672 69.0189 124 64.3171 124 64.3171L132 62C132 62 126.265 68.8695 129.02 74" fill="#AFAFAF"/>
<path d="M120.034 48.6606C120.034 48.6606 119.038 50.005 119.001 51.2333C118.965 52.4616 119.714 53.8495 119.787 54.2461C119.86 54.6426 120.235 57.4958 120.646 58.4872C121.058 59.4785 122.332 62.2543 122.858 62.6895C123.383 63.1248 125.028 65.1849 127.313 64.9866C129.598 64.7883 132.778 60.2329 132.778 60.2329C132.778 60.2329 133.226 59.4398 133.002 58.1341C132.778 56.8285 132.778 56.8285 132.778 56.8285C132.778 56.8285 133.153 56.9977 133.445 56.5625C133.738 56.1272 133.943 54.9134 133.957 54.6233C133.975 54.3331 134.044 52.8969 133.957 52.6067C133.87 52.3166 133.82 52.157 133.733 51.9587C133.646 51.7604 133.226 51.185 132.988 51.33C132.751 51.4751 132.44 51.9297 132.44 51.9297C132.44 51.9297 132.408 50.5902 132.116 49.7922C131.823 48.9943 128.688 42.4272 120.034 48.6606Z" fill="#E4E4E4" stroke="black" stroke-width="0.0893838"/>
<path d="M133 52.9185C133 52.9185 133.437 51.8107 133.506 52.0283C133.575 52.246 134.283 52.4879 133.873 54.123C133.46 55.763 133.253 56 133.253 56C133.253 56 133.588 54.3359 133.501 53.9972C133.409 53.6634 133 52.9185 133 52.9185Z" fill="#AFAFAF"/>
<path d="M126.773 45.2341C126.773 45.2341 125.238 44.755 124.367 45.1676C123.496 45.5801 124.448 45.6156 124.448 45.6156C124.448 45.6156 128.305 46.2632 127.981 45.8773C127.636 45.4736 126.773 45.2341 126.773 45.2341Z" fill="#565656"/>
<path d="M128.651 82C128.651 82 130.036 78.5701 129.475 77.2018C128.915 75.8336 130.641 75.51 131.77 74.8675C132.9 74.225 138 73 138 73L131.525 73.1895L128.651 74.0817L128 74.5716L128.651 82Z" fill="#2D3A21"/>
<path d="M129.687 92C129.687 92 129.289 87.9042 129.015 85.5603C128.716 82.9998 128.124 77.0463 128.03 76.1655C127.881 74.8323 131.707 74.0959 131.831 73.6772C131.955 73.2537 134.732 73.1141 135.712 73.1526C136.692 73.1959 138.936 72.7868 138.936 72.7868C138.936 72.7868 139.349 66.7466 138.08 64.5856C136.811 62.4246 136.563 62.1455 136.563 62.1455L134.652 61L128 75.8671L129.687 92Z" fill="#566347" stroke="black" stroke-width="0.0893838" stroke-miterlimit="10"/>
<path d="M121 75.2279C121 75.2279 126.958 73.6523 127.966 76L129 73.5263L127.223 71L121 73.9097V75.2279Z" fill="#2D3A21"/>
<path d="M124.038 64C124.038 64 122.725 67.2634 121.479 70.6658C120.233 74.0683 121.812 75 121.812 75C121.812 75 126.26 71.6207 129 73.067L124.038 64Z" fill="#566347" stroke="black" stroke-width="0.0893838" stroke-miterlimit="10"/>
<path d="M148 82.6667C148 82.6667 149.026 80.8986 149.026 79C149.026 79 151.911 80 152.005 83.7923C152.1 87.5845 153.121 89.4831 154.422 90.285C155.722 91.087 157 92 157 92H150.844L150.466 90.8019C150.466 90.8019 149.642 90.0097 149.656 89.2657C149.665 88.5217 149.786 88.9372 149.768 88.5217C149.75 88.1063 149.697 87.401 149.503 87.2126C149.31 87.0242 148.563 85.8841 148.563 85.744C148.554 85.6087 148 82.6667 148 82.6667Z" fill="#2D3A21"/>
<path d="M116.075 77C116.075 77 115.572 78.019 117.173 80.7251C118.775 83.4313 119.435 87.0095 119.435 87.0095C119.435 87.0095 120.345 89.5213 121 90.2986V92" stroke="black" stroke-width="0.0893838" stroke-miterlimit="10"/>
<path d="M117.945 82.8923C117.945 82.8923 119.104 85.1645 119.24 86.8038C119.375 88.448 120.879 90.3798 120.879 90.3798L121 92H117.794C117.794 92 119.104 89.4163 118.886 88.3713C118.672 87.3263 117.964 86.3341 117.964 86.3341C117.964 86.3341 116.281 79.5081 116 79L117.945 82.8923Z" fill="#2D3A21"/>
<path d="M135 77C135 77 140.679 76.3543 142.128 76.4383C143.577 76.5223 146 75.5407 146 75.5407L145.809 75L135 76.4383" fill="#2D3A21"/>
<path d="M135.365 77C135.365 77 134.85 74.2446 135.044 74.4356C135.238 74.6266 144.108 73.631 145.271 73L146 75.4139C146 75.4139 143.285 76.288 142.22 76.288C141.156 76.288 135.365 77 135.365 77Z" fill="#B5C99B" stroke="black" stroke-width="0.0893838" stroke-miterlimit="10"/>
<path d="M136.296 74.8757L136.396 75.6318C136.42 75.8041 136.521 75.8519 136.636 75.8375C136.76 75.8184 136.827 75.7371 136.803 75.5744L136.703 74.8183L137.085 74.7656L137.181 75.4834C137.239 75.8902 136.994 76.0481 136.664 76.096C136.32 76.1438 136.061 76.0433 136.004 75.6461L135.908 74.9283L136.296 74.8757Z" fill="#333333"/>
<path d="M137.889 75.5308C137.928 75.6361 138.014 75.6696 138.138 75.6552C138.253 75.6408 138.301 75.593 138.291 75.5212C138.282 75.4399 138.22 75.4207 138.004 75.4016C137.607 75.3681 137.511 75.2437 137.487 75.081C137.459 74.8752 137.597 74.679 137.961 74.6311C138.339 74.5785 138.521 74.7412 138.564 74.9278L138.196 74.9805C138.177 74.9182 138.133 74.856 137.995 74.8752C137.909 74.8847 137.856 74.923 137.865 74.99C137.875 75.057 137.928 75.0762 138.133 75.0953C138.55 75.1336 138.65 75.2628 138.674 75.4351C138.708 75.6648 138.535 75.8514 138.153 75.904C137.789 75.9519 137.578 75.8227 137.516 75.5882L137.889 75.5308Z" fill="#333333"/>
<path d="M139.99 75.4402L139.947 75.6699L139.612 75.7129L139.847 74.5262L140.296 74.4688L140.828 75.5646L140.464 75.6077L140.363 75.3923L139.99 75.4402ZM140.273 75.1531C140.196 74.9808 140.129 74.8277 140.091 74.7176H140.086C140.072 74.842 140.048 75.0095 140.019 75.1818L140.273 75.1531Z" fill="#333333"/>
<path d="M141.364 75.0597L141.416 75.4904L141.081 75.5335L140.943 74.3897L141.531 74.318C141.813 74.2845 141.962 74.4089 141.986 74.5812C142.005 74.7391 141.919 74.83 141.842 74.8731C141.919 74.8874 142.01 74.9544 142.034 75.1506L142.038 75.1985C142.048 75.2703 142.062 75.3612 142.081 75.409L141.751 75.4521C141.727 75.4042 141.713 75.3229 141.699 75.208L141.694 75.1793C141.679 75.0788 141.651 75.031 141.498 75.0501L141.364 75.0597ZM141.335 74.8252L141.498 74.8061C141.612 74.7917 141.651 74.7391 141.641 74.6625C141.632 74.5859 141.574 74.5477 141.469 74.562L141.306 74.5812L141.335 74.8252Z" fill="#333333"/>
<path d="M143.34 74.8682C143.316 74.6911 143.297 74.4614 143.283 74.3227H143.273C143.254 74.5763 143.216 74.9208 143.172 75.2654L142.895 75.2989C142.79 74.983 142.665 74.6529 142.589 74.404H142.574C142.603 74.538 142.636 74.7581 142.66 74.9543L142.703 75.318L142.392 75.3563L142.254 74.2126L142.756 74.1504C142.842 74.3753 142.952 74.7007 143 74.8682H143.005C143.015 74.6816 143.053 74.3657 143.091 74.1121L143.574 74.0547L143.713 75.1984L143.378 75.2415L143.34 74.8682Z" fill="#333333"/>
<path d="M144.359 75.1252L144.311 74.7281C144.311 74.7137 144.307 74.7041 144.292 74.685L143.799 74.0342L144.192 73.9863C144.287 74.1395 144.393 74.3117 144.464 74.4362C144.498 74.307 144.57 74.0868 144.622 73.9337L144.986 73.8906L144.661 74.6419C144.656 74.6515 144.651 74.6611 144.656 74.685L144.704 75.0822L144.359 75.1252Z" fill="#333333"/>
</g>
</svg>
