<svg width="510" height="551" viewBox="0 0 510 551" fill="none" xmlns="http://www.w3.org/2000/svg">
<rect y="70" width="510" height="481" fill="black"/>
<rect x="17.7947" y="59.7636" width="491.17" height="51.7685" fill="#F2F2F2" stroke="black" stroke-width="1.26265"/>
<rect x="17.7944" y="109.009" width="491.17" height="265.156" fill="#F4DC88" stroke="black" stroke-width="1.26265"/>
<rect x="17.7944" y="374.165" width="491.17" height="142.679" fill="#F2F2F2" stroke="black" stroke-width="1.26265"/>
<path d="M52.6187 408.048C52.6187 409.327 52.154 410.331 51.2247 411.058C50.2954 411.785 49.0227 412.149 47.4065 412.149C46.6253 412.149 45.8846 412.081 45.1842 411.947C44.4973 411.826 43.9115 411.644 43.4266 411.401V409.341C43.9654 409.583 44.5984 409.805 45.3256 410.007C46.0529 410.196 46.7937 410.29 47.5479 410.29C48.5176 410.29 49.2449 410.102 49.7298 409.725C50.2146 409.347 50.457 408.842 50.457 408.209C50.457 407.765 50.3426 407.395 50.1136 407.098C49.8981 406.788 49.5547 406.506 49.0833 406.25C48.6119 405.994 47.9924 405.711 47.2247 405.401C46.5108 405.132 45.8778 404.815 45.3256 404.452C44.7869 404.088 44.3627 403.637 44.0529 403.098C43.7431 402.559 43.5882 401.899 43.5882 401.118C43.5882 399.933 44.0192 399.004 44.8812 398.33C45.7432 397.657 46.8745 397.32 48.2752 397.32C49.0563 397.32 49.7769 397.401 50.4368 397.563C51.1102 397.711 51.75 397.92 52.3561 398.189L51.6692 399.987C51.117 399.758 50.5513 399.569 49.9722 399.421C49.4065 399.273 48.8206 399.199 48.2146 399.199C47.42 399.199 46.8139 399.374 46.3964 399.724C45.9789 400.075 45.7701 400.532 45.7701 401.098C45.7701 401.543 45.8711 401.92 46.0731 402.229C46.2752 402.526 46.5984 402.795 47.0428 403.038C47.4873 403.28 48.0732 403.549 48.8004 403.846C49.6085 404.169 50.2954 404.512 50.8611 404.876C51.4402 405.226 51.8779 405.657 52.1742 406.169C52.4705 406.667 52.6187 407.294 52.6187 408.048ZM59.4835 400.856C60.9112 400.856 62.0358 401.3 62.8573 402.189C63.6789 403.064 64.0897 404.263 64.0897 405.785V406.957H56.7764C56.8034 408.075 57.0929 408.93 57.6451 409.522C58.2108 410.115 58.9987 410.411 60.0088 410.411C60.7092 410.411 61.3287 410.351 61.8674 410.23C62.4196 410.095 62.9853 409.9 63.5644 409.644V411.422C63.0122 411.664 62.46 411.846 61.9078 411.967C61.3556 412.088 60.6957 412.149 59.928 412.149C58.864 412.149 57.928 411.94 57.1199 411.523C56.3252 411.105 55.699 410.485 55.241 409.664C54.7966 408.829 54.5744 407.805 54.5744 406.593C54.5744 405.368 54.7764 404.33 55.1804 403.482C55.598 402.633 56.1704 401.987 56.8976 401.543C57.6384 401.085 58.5004 400.856 59.4835 400.856ZM59.4835 402.512C58.7159 402.512 58.0963 402.761 57.6249 403.26C57.167 403.758 56.8976 404.465 56.8168 405.381H61.9482C61.9348 404.533 61.726 403.846 61.322 403.32C60.9314 402.782 60.3186 402.512 59.4835 402.512ZM72.277 400.856C73.543 400.856 74.5127 401.172 75.1861 401.805C75.8595 402.438 76.1963 403.455 76.1963 404.856V411.947H74.075V405.159C74.075 403.462 73.3275 402.613 71.8325 402.613C70.7147 402.613 69.947 402.943 69.5295 403.603C69.112 404.263 68.9032 405.213 68.9032 406.452V411.947H66.7618V401.058H68.4588L68.7618 402.512H68.883C69.2332 401.947 69.7113 401.529 70.3174 401.26C70.9369 400.99 71.5901 400.856 72.277 400.856ZM86.7193 408.876C86.7193 409.94 86.3287 410.755 85.5476 411.321C84.7664 411.873 83.6822 412.149 82.295 412.149C81.5273 412.149 80.8674 412.088 80.3152 411.967C79.7764 411.859 79.2781 411.698 78.8202 411.482V409.603C79.2916 409.832 79.8438 410.041 80.4768 410.23C81.1233 410.405 81.7495 410.492 82.3556 410.492C83.1637 410.492 83.7428 410.364 84.093 410.108C84.4566 409.852 84.6385 409.509 84.6385 409.078C84.6385 408.836 84.5711 408.62 84.4364 408.432C84.3018 408.23 84.0459 408.028 83.6688 407.825C83.3051 407.61 82.7664 407.368 82.0526 407.098C81.3522 406.815 80.7596 406.539 80.2748 406.27C79.8034 405.987 79.4397 405.657 79.1838 405.28C78.9279 404.889 78.8 404.391 78.8 403.785C78.8 402.842 79.1771 402.122 79.9313 401.623C80.699 401.112 81.7091 400.856 82.9617 400.856C83.6216 400.856 84.2412 400.923 84.8203 401.058C85.4129 401.192 85.9853 401.381 86.5375 401.623L85.8304 403.26C85.359 403.058 84.8742 402.889 84.3758 402.755C83.8775 402.607 83.3725 402.532 82.8607 402.532C82.2142 402.532 81.7226 402.633 81.3859 402.836C81.0492 403.038 80.8808 403.32 80.8808 403.684C80.8808 403.94 80.9616 404.162 81.1233 404.351C81.2849 404.539 81.5542 404.728 81.9313 404.916C82.3219 405.105 82.8539 405.334 83.5273 405.603C84.2007 405.859 84.7731 406.122 85.2445 406.391C85.7294 406.66 86.093 406.99 86.3355 407.381C86.5914 407.772 86.7193 408.27 86.7193 408.876ZM98.6463 401.058V411.947H96.9291L96.626 410.512H96.525C96.1748 411.078 95.69 411.496 95.0705 411.765C94.4509 412.021 93.7977 412.149 93.1108 412.149C91.8313 412.149 90.8549 411.832 90.1815 411.199C89.5081 410.566 89.1714 409.563 89.1714 408.189V401.058H91.333V407.866C91.333 409.549 92.067 410.391 93.5351 410.391C94.6529 410.391 95.4274 410.061 95.8583 409.401C96.2893 408.741 96.5048 407.799 96.5048 406.573V401.058H98.6463ZM111.594 406.492C111.594 408.297 111.129 409.691 110.2 410.674C109.27 411.657 108.018 412.149 106.442 412.149C105.459 412.149 104.583 411.927 103.816 411.482C103.061 411.038 102.462 410.398 102.018 409.563C101.587 408.714 101.371 407.691 101.371 406.492C101.371 404.687 101.829 403.3 102.745 402.33C103.661 401.347 104.913 400.856 106.503 400.856C107.499 400.856 108.375 401.078 109.129 401.522C109.897 401.953 110.496 402.586 110.927 403.421C111.371 404.256 111.594 405.28 111.594 406.492ZM103.573 406.492C103.573 407.718 103.802 408.674 104.26 409.361C104.732 410.048 105.472 410.391 106.482 410.391C107.493 410.391 108.227 410.048 108.684 409.361C109.156 408.674 109.392 407.718 109.392 406.492C109.392 405.253 109.156 404.304 108.684 403.644C108.213 402.97 107.472 402.633 106.462 402.633C105.452 402.633 104.718 402.97 104.26 403.644C103.802 404.304 103.573 405.253 103.573 406.492ZM123.682 401.058V411.947H121.965L121.662 410.512H121.561C121.211 411.078 120.726 411.496 120.106 411.765C119.487 412.021 118.834 412.149 118.147 412.149C116.867 412.149 115.891 411.832 115.217 411.199C114.544 410.566 114.207 409.563 114.207 408.189V401.058H116.369V407.866C116.369 409.549 117.103 410.391 118.571 410.391C119.689 410.391 120.463 410.061 120.894 409.401C121.325 408.741 121.541 407.799 121.541 406.573V401.058H123.682ZM134.266 408.876C134.266 409.94 133.875 410.755 133.094 411.321C132.313 411.873 131.229 412.149 129.842 412.149C129.074 412.149 128.414 412.088 127.862 411.967C127.323 411.859 126.825 411.698 126.367 411.482V409.603C126.838 409.832 127.39 410.041 128.023 410.23C128.67 410.405 129.296 410.492 129.902 410.492C130.71 410.492 131.289 410.364 131.64 410.108C132.003 409.852 132.185 409.509 132.185 409.078C132.185 408.836 132.118 408.62 131.983 408.432C131.848 408.23 131.592 408.028 131.215 407.825C130.852 407.61 130.313 407.368 129.599 407.098C128.899 406.815 128.306 406.539 127.821 406.27C127.35 405.987 126.986 405.657 126.73 405.28C126.474 404.889 126.347 404.391 126.347 403.785C126.347 402.842 126.724 402.122 127.478 401.623C128.246 401.112 129.256 400.856 130.508 400.856C131.168 400.856 131.788 400.923 132.367 401.058C132.959 401.192 133.532 401.381 134.084 401.623L133.377 403.26C132.906 403.058 132.421 402.889 131.922 402.755C131.424 402.607 130.919 402.532 130.407 402.532C129.761 402.532 129.269 402.633 128.932 402.836C128.596 403.038 128.427 403.32 128.427 403.684C128.427 403.94 128.508 404.162 128.67 404.351C128.831 404.539 129.101 404.728 129.478 404.916C129.868 405.105 130.4 405.334 131.074 405.603C131.747 405.859 132.32 406.122 132.791 406.391C133.276 406.66 133.64 406.99 133.882 407.381C134.138 407.772 134.266 408.27 134.266 408.876ZM147.91 411.947H145.385L140.657 405.3L139.243 406.472V411.947H137.061V397.522H139.243V404.492C139.593 404.088 139.944 403.684 140.294 403.28C140.644 402.862 140.994 402.452 141.344 402.048L145.243 397.522H147.748L142.233 403.825L147.91 411.947ZM150.674 396.916C150.998 396.916 151.28 397.011 151.523 397.199C151.765 397.388 151.887 397.704 151.887 398.149C151.887 398.58 151.765 398.896 151.523 399.098C151.28 399.287 150.998 399.381 150.674 399.381C150.324 399.381 150.028 399.287 149.786 399.098C149.557 398.896 149.442 398.58 149.442 398.149C149.442 397.704 149.557 397.388 149.786 397.199C150.028 397.011 150.324 396.916 150.674 396.916ZM151.725 401.058V411.947H149.583V401.058H151.725ZM159.007 410.411C159.29 410.411 159.579 410.391 159.876 410.351C160.172 410.297 160.428 410.23 160.643 410.149V411.765C160.401 411.873 160.085 411.96 159.694 412.028C159.317 412.108 158.933 412.149 158.542 412.149C157.95 412.149 157.404 412.048 156.906 411.846C156.408 411.644 156.01 411.294 155.714 410.795C155.431 410.297 155.29 409.603 155.29 408.714V402.694H153.775V401.724L155.371 400.916L156.118 398.613H157.431V401.058H160.542V402.694H157.431V408.674C157.431 409.267 157.573 409.704 157.856 409.987C158.152 410.27 158.536 410.411 159.007 410.411ZM166.741 410.411C167.024 410.411 167.313 410.391 167.61 410.351C167.906 410.297 168.162 410.23 168.377 410.149V411.765C168.135 411.873 167.818 411.96 167.428 412.028C167.051 412.108 166.667 412.149 166.276 412.149C165.684 412.149 165.138 412.048 164.64 411.846C164.141 411.644 163.744 411.294 163.448 410.795C163.165 410.297 163.024 409.603 163.024 408.714V402.694H161.508V401.724L163.104 400.916L163.852 398.613H165.165V401.058H168.276V402.694H165.165V408.674C165.165 409.267 165.306 409.704 165.589 409.987C165.886 410.27 166.269 410.411 166.741 410.411ZM174.838 400.856C176.266 400.856 177.39 401.3 178.212 402.189C179.034 403.064 179.444 404.263 179.444 405.785V406.957H172.131C172.158 408.075 172.448 408.93 173 409.522C173.565 410.115 174.353 410.411 175.363 410.411C176.064 410.411 176.683 410.351 177.222 410.23C177.774 410.095 178.34 409.9 178.919 409.644V411.422C178.367 411.664 177.815 411.846 177.262 411.967C176.71 412.088 176.05 412.149 175.283 412.149C174.219 412.149 173.283 411.94 172.474 411.523C171.68 411.105 171.054 410.485 170.596 409.664C170.151 408.829 169.929 407.805 169.929 406.593C169.929 405.368 170.131 404.33 170.535 403.482C170.953 402.633 171.525 401.987 172.252 401.543C172.993 401.085 173.855 400.856 174.838 400.856ZM174.838 402.512C174.07 402.512 173.451 402.761 172.98 403.26C172.522 403.758 172.252 404.465 172.171 405.381H177.303C177.289 404.533 177.081 403.846 176.677 403.32C176.286 402.782 175.673 402.512 174.838 402.512ZM187.632 400.856C188.898 400.856 189.867 401.172 190.541 401.805C191.214 402.438 191.551 403.455 191.551 404.856V411.947H189.43V405.159C189.43 403.462 188.682 402.613 187.187 402.613C186.069 402.613 185.302 402.943 184.884 403.603C184.467 404.263 184.258 405.213 184.258 406.452V411.947H182.116V401.058H183.813L184.116 402.512H184.238C184.588 401.947 185.066 401.529 185.672 401.26C186.292 400.99 186.945 400.856 187.632 400.856Z" fill="black"/>
<path d="M50.0681 435.85C50.0681 436.809 49.7197 437.562 49.0227 438.107C48.3257 438.653 47.3711 438.926 46.159 438.926C45.5731 438.926 45.0176 438.875 44.4923 438.774C43.9771 438.683 43.5377 438.547 43.1741 438.365V436.819C43.5781 437.001 44.0529 437.168 44.5984 437.319C45.1438 437.461 45.6994 437.532 46.2651 437.532C46.9923 437.532 47.5378 437.39 47.9014 437.107C48.2651 436.825 48.4469 436.446 48.4469 435.971C48.4469 435.638 48.361 435.36 48.1893 435.138C48.0277 434.905 47.7701 434.693 47.4166 434.501C47.063 434.309 46.5984 434.097 46.0226 433.865C45.4873 433.663 45.0125 433.425 44.5984 433.153C44.1943 432.88 43.8761 432.542 43.6438 432.138C43.4115 431.734 43.2953 431.239 43.2953 430.653C43.2953 429.764 43.6185 429.067 44.265 428.562C44.9115 428.057 45.76 427.804 46.8105 427.804C47.3964 427.804 47.9368 427.865 48.4318 427.986C48.9368 428.097 49.4166 428.254 49.8712 428.456L49.356 429.804C48.9419 429.632 48.5176 429.491 48.0833 429.38C47.659 429.269 47.2196 429.213 46.7651 429.213C46.1691 429.213 45.7145 429.345 45.4014 429.607C45.0883 429.87 44.9317 430.213 44.9317 430.638C44.9317 430.971 45.0075 431.254 45.159 431.486C45.3105 431.708 45.5529 431.91 45.8863 432.092C46.2196 432.274 46.659 432.476 47.2045 432.698C47.8105 432.941 48.3257 433.198 48.7499 433.471C49.1843 433.734 49.5126 434.057 49.7348 434.441C49.957 434.814 50.0681 435.284 50.0681 435.85ZM55.1713 430.456C56.1915 430.456 56.9542 430.683 57.4592 431.138C57.9744 431.582 58.232 432.284 58.232 433.244V438.774H57.0956L56.7774 437.638H56.7168C56.3633 438.082 55.9895 438.41 55.5956 438.623C55.2117 438.825 54.6764 438.926 53.9895 438.926C53.2521 438.926 52.641 438.729 52.1561 438.335C51.6713 437.931 51.4288 437.304 51.4288 436.456C51.4288 435.628 51.742 434.996 52.3683 434.562C52.9945 434.128 53.9592 433.89 55.2622 433.85L56.6562 433.804V433.35C56.6562 432.754 56.5198 432.335 56.2471 432.092C55.9744 431.84 55.5905 431.713 55.0956 431.713C54.6814 431.713 54.2824 431.774 53.8986 431.895C53.5147 432.016 53.146 432.163 52.7925 432.335L52.2773 431.168C52.6612 430.966 53.1006 430.799 53.5955 430.668C54.1006 430.526 54.6259 430.456 55.1713 430.456ZM56.6411 434.85L55.5501 434.88C54.6208 434.92 53.9743 435.077 53.6107 435.35C53.2572 435.612 53.0804 435.986 53.0804 436.471C53.0804 436.895 53.2067 437.203 53.4592 437.395C53.7117 437.587 54.04 437.683 54.444 437.683C55.0703 437.683 55.5905 437.506 56.0047 437.153C56.4289 436.799 56.6411 436.269 56.6411 435.562V434.85ZM64.8415 430.456C65.791 430.456 66.5183 430.693 67.0233 431.168C67.5284 431.643 67.7809 432.405 67.7809 433.456V438.774H66.19V433.683C66.19 432.41 65.6294 431.774 64.5081 431.774C63.6697 431.774 63.094 432.021 62.7808 432.516C62.4677 433.011 62.3111 433.723 62.3111 434.653V438.774H60.705V430.607H61.9778L62.2051 431.698H62.296C62.5586 431.274 62.9172 430.961 63.3717 430.759C63.8364 430.557 64.3263 430.456 64.8415 430.456ZM83.1243 433.259C83.1243 435.087 82.6193 436.466 81.6091 437.395C80.6091 438.314 79.2051 438.774 77.397 438.774H74.3666V427.956H77.7151C78.8162 427.956 79.7707 428.158 80.5788 428.562C81.3869 428.966 82.0132 429.562 82.4576 430.35C82.9021 431.127 83.1243 432.097 83.1243 433.259ZM81.4122 433.304C81.4122 431.941 81.0788 430.941 80.4122 430.304C79.7556 429.658 78.8212 429.334 77.6091 429.334H76.003V437.395H77.3212C80.0485 437.395 81.4122 436.032 81.4122 433.304ZM86.1153 427.501C86.3577 427.501 86.5698 427.572 86.7516 427.713C86.9334 427.855 87.0244 428.092 87.0244 428.425C87.0244 428.749 86.9334 428.986 86.7516 429.138C86.5698 429.279 86.3577 429.35 86.1153 429.35C85.8526 429.35 85.6304 429.279 85.4486 429.138C85.2769 428.986 85.191 428.749 85.191 428.425C85.191 428.092 85.2769 427.855 85.4486 427.713C85.6304 427.572 85.8526 427.501 86.1153 427.501ZM86.9031 430.607V438.774H85.2971V430.607H86.9031ZM92.6375 430.456C93.7082 430.456 94.5517 430.789 95.1678 431.456C95.784 432.112 96.0921 433.011 96.0921 434.153V435.032H90.6072C90.6274 435.87 90.8445 436.511 91.2587 436.956C91.6829 437.4 92.2739 437.623 93.0314 437.623C93.5567 437.623 94.0214 437.577 94.4254 437.486C94.8396 437.385 95.2638 437.239 95.6982 437.047V438.38C95.284 438.562 94.8699 438.698 94.4557 438.789C94.0416 438.88 93.5466 438.926 92.9708 438.926C92.1728 438.926 91.4708 438.769 90.8647 438.456C90.2688 438.143 89.7991 437.678 89.4556 437.062C89.1223 436.436 88.9556 435.668 88.9556 434.759C88.9556 433.84 89.1071 433.062 89.4102 432.425C89.7233 431.789 90.1526 431.304 90.6981 430.971C91.2536 430.627 91.9001 430.456 92.6375 430.456ZM92.6375 431.698C92.0617 431.698 91.5971 431.885 91.2435 432.259C90.9001 432.633 90.6981 433.163 90.6375 433.85H94.486C94.4759 433.213 94.3193 432.698 94.0163 432.304C93.7234 431.9 93.2638 431.698 92.6375 431.698ZM100.914 430.456C101.995 430.456 102.829 430.865 103.414 431.683H103.49L103.672 430.607H104.975V438.88C104.975 440.042 104.662 440.921 104.036 441.517C103.419 442.112 102.475 442.41 101.202 442.41C100.606 442.41 100.061 442.37 99.5659 442.289C99.081 442.208 98.6315 442.082 98.2174 441.91V440.501C99.0861 440.926 100.111 441.138 101.293 441.138C101.96 441.138 102.475 440.946 102.839 440.562C103.202 440.188 103.384 439.658 103.384 438.971V438.698C103.384 438.567 103.389 438.395 103.399 438.183C103.409 437.971 103.419 437.809 103.43 437.698H103.369C103.096 438.123 102.753 438.436 102.339 438.638C101.925 438.83 101.45 438.926 100.914 438.926C99.8841 438.926 99.076 438.557 98.4901 437.819C97.9143 437.072 97.6264 436.037 97.6264 434.713C97.6264 433.4 97.9143 432.365 98.4901 431.607C99.076 430.84 99.8841 430.456 100.914 430.456ZM101.248 431.789C100.611 431.789 100.121 432.042 99.778 432.547C99.4447 433.052 99.278 433.779 99.278 434.729C99.278 435.678 99.4447 436.4 99.778 436.895C100.121 437.39 100.621 437.638 101.278 437.638C102.026 437.638 102.571 437.436 102.914 437.032C103.268 436.617 103.445 435.946 103.445 435.016V434.713C103.445 433.673 103.268 432.925 102.914 432.471C102.561 432.016 102.005 431.789 101.248 431.789ZM114.689 434.683C114.689 436.037 114.341 437.082 113.644 437.819C112.947 438.557 112.007 438.926 110.825 438.926C110.088 438.926 109.431 438.759 108.856 438.426C108.29 438.092 107.841 437.612 107.507 436.986C107.184 436.35 107.022 435.582 107.022 434.683C107.022 433.33 107.366 432.289 108.053 431.562C108.74 430.824 109.679 430.456 110.871 430.456C111.618 430.456 112.275 430.622 112.841 430.956C113.416 431.279 113.866 431.754 114.189 432.38C114.522 433.006 114.689 433.774 114.689 434.683ZM108.674 434.683C108.674 435.602 108.846 436.319 109.189 436.835C109.543 437.35 110.098 437.607 110.856 437.607C111.613 437.607 112.164 437.35 112.507 436.835C112.861 436.319 113.038 435.602 113.038 434.683C113.038 433.754 112.861 433.042 112.507 432.547C112.154 432.042 111.598 431.789 110.841 431.789C110.083 431.789 109.532 432.042 109.189 432.547C108.846 433.042 108.674 433.754 108.674 434.683ZM118.407 437.016L118.513 437.183C118.382 437.718 118.195 438.304 117.952 438.941C117.71 439.587 117.463 440.183 117.21 440.729H116.043C116.185 440.143 116.326 439.506 116.468 438.82C116.609 438.143 116.72 437.542 116.801 437.016H118.407ZM129.607 429.213C128.526 429.213 127.683 429.587 127.077 430.335C126.471 431.072 126.168 432.087 126.168 433.38C126.168 434.663 126.451 435.673 127.016 436.41C127.582 437.148 128.441 437.516 129.592 437.516C130.057 437.516 130.501 437.476 130.925 437.395C131.36 437.304 131.799 437.188 132.244 437.047V438.456C131.819 438.617 131.385 438.734 130.941 438.804C130.506 438.885 129.991 438.926 129.395 438.926C128.284 438.926 127.365 438.698 126.637 438.244C125.91 437.779 125.365 437.133 125.001 436.304C124.637 435.466 124.456 434.486 124.456 433.365C124.456 432.274 124.653 431.309 125.047 430.471C125.451 429.632 126.036 428.981 126.804 428.516C127.572 428.042 128.511 427.804 129.622 427.804C130.168 427.804 130.698 427.865 131.213 427.986C131.739 428.097 132.218 428.259 132.653 428.471L132.047 429.835C131.693 429.673 131.309 429.531 130.895 429.41C130.491 429.279 130.062 429.213 129.607 429.213ZM141.317 438.774L140.165 435.653H135.983L134.832 438.774H133.135L137.241 427.91H138.938L143.029 438.774H141.317ZM139.711 434.229L138.62 431.183C138.589 431.072 138.534 430.905 138.453 430.683C138.382 430.461 138.312 430.228 138.241 429.986C138.17 429.744 138.115 429.547 138.074 429.395C137.993 429.708 137.902 430.042 137.801 430.395C137.7 430.749 137.62 431.011 137.559 431.183L136.468 434.229H139.711ZM148.015 433.425C148.015 433.032 148.111 432.754 148.303 432.592C148.505 432.431 148.752 432.35 149.045 432.35C149.328 432.35 149.57 432.431 149.772 432.592C149.984 432.754 150.09 433.032 150.09 433.425C150.09 433.819 149.984 434.102 149.772 434.274C149.57 434.446 149.328 434.532 149.045 434.532C148.752 434.532 148.505 434.446 148.303 434.274C148.111 434.102 148.015 433.819 148.015 433.425ZM157.018 438.774L161.336 429.38H155.654V427.956H163.063V429.107L158.76 438.774H157.018ZM178.079 430.456C178.999 430.456 179.69 430.693 180.155 431.168C180.62 431.643 180.852 432.405 180.852 433.456V438.774H179.246V433.668C179.246 432.405 178.736 431.774 177.716 431.774C176.988 431.774 176.468 432.001 176.155 432.456C175.842 432.9 175.685 433.542 175.685 434.38V438.774H174.094V433.668C174.094 432.405 173.579 431.774 172.549 431.774C171.781 431.774 171.251 432.021 170.958 432.516C170.675 433.011 170.534 433.723 170.534 434.653V438.774H168.928V430.607H170.2L170.428 431.698H170.519C170.761 431.274 171.099 430.961 171.534 430.759C171.968 430.557 172.428 430.456 172.913 430.456C174.175 430.456 175.004 430.895 175.397 431.774H175.519C175.781 431.319 176.145 430.986 176.61 430.774C177.074 430.562 177.564 430.456 178.079 430.456ZM184.128 427.501C184.371 427.501 184.583 427.572 184.765 427.713C184.946 427.855 185.037 428.092 185.037 428.425C185.037 428.749 184.946 428.986 184.765 429.138C184.583 429.279 184.371 429.35 184.128 429.35C183.866 429.35 183.643 429.279 183.462 429.138C183.29 428.986 183.204 428.749 183.204 428.425C183.204 428.092 183.29 427.855 183.462 427.713C183.643 427.572 183.866 427.501 184.128 427.501ZM184.916 430.607V438.774H183.31V430.607H184.916ZM189.044 438.774H187.438V427.259H189.044V438.774ZM194.779 430.456C195.849 430.456 196.693 430.789 197.309 431.456C197.925 432.112 198.233 433.011 198.233 434.153V435.032H192.748C192.769 435.87 192.986 436.511 193.4 436.956C193.824 437.4 194.415 437.623 195.173 437.623C195.698 437.623 196.163 437.577 196.567 437.486C196.981 437.385 197.405 437.239 197.839 437.047V438.38C197.425 438.562 197.011 438.698 196.597 438.789C196.183 438.88 195.688 438.926 195.112 438.926C194.314 438.926 193.612 438.769 193.006 438.456C192.41 438.143 191.94 437.678 191.597 437.062C191.264 436.436 191.097 435.668 191.097 434.759C191.097 433.84 191.248 433.062 191.551 432.425C191.865 431.789 192.294 431.304 192.839 430.971C193.395 430.627 194.041 430.456 194.779 430.456ZM194.779 431.698C194.203 431.698 193.738 431.885 193.385 432.259C193.041 432.633 192.839 433.163 192.779 433.85H196.627C196.617 433.213 196.461 432.698 196.158 432.304C195.865 431.9 195.405 431.698 194.779 431.698ZM205.662 436.471C205.662 437.269 205.369 437.88 204.783 438.304C204.197 438.718 203.384 438.926 202.343 438.926C201.768 438.926 201.273 438.88 200.859 438.789C200.455 438.708 200.081 438.587 199.737 438.426V437.016C200.091 437.188 200.505 437.345 200.98 437.486C201.465 437.617 201.934 437.683 202.389 437.683C202.995 437.683 203.429 437.587 203.692 437.395C203.965 437.203 204.101 436.946 204.101 436.622C204.101 436.441 204.051 436.279 203.95 436.138C203.849 435.986 203.657 435.835 203.374 435.683C203.101 435.521 202.697 435.34 202.162 435.138C201.636 434.925 201.192 434.718 200.828 434.516C200.475 434.304 200.202 434.057 200.01 433.774C199.818 433.481 199.722 433.107 199.722 432.653C199.722 431.946 200.005 431.405 200.571 431.031C201.146 430.648 201.904 430.456 202.843 430.456C203.338 430.456 203.803 430.506 204.237 430.607C204.682 430.708 205.111 430.85 205.525 431.031L204.995 432.259C204.641 432.107 204.278 431.981 203.904 431.88C203.53 431.769 203.152 431.713 202.768 431.713C202.283 431.713 201.914 431.789 201.662 431.941C201.409 432.092 201.283 432.304 201.283 432.577C201.283 432.769 201.343 432.936 201.465 433.077C201.586 433.218 201.788 433.36 202.071 433.501C202.364 433.643 202.763 433.814 203.268 434.016C203.773 434.208 204.202 434.405 204.556 434.607C204.919 434.809 205.192 435.057 205.374 435.35C205.566 435.643 205.662 436.016 205.662 436.471ZM214.679 430.456C215.699 430.456 216.462 430.683 216.967 431.138C217.482 431.582 217.74 432.284 217.74 433.244V438.774H216.603L216.285 437.638H216.225C215.871 438.082 215.497 438.41 215.103 438.623C214.72 438.825 214.184 438.926 213.497 438.926C212.76 438.926 212.149 438.729 211.664 438.335C211.179 437.931 210.937 437.304 210.937 436.456C210.937 435.628 211.25 434.996 211.876 434.562C212.502 434.128 213.467 433.89 214.77 433.85L216.164 433.804V433.35C216.164 432.754 216.028 432.335 215.755 432.092C215.482 431.84 215.098 431.713 214.603 431.713C214.189 431.713 213.79 431.774 213.406 431.895C213.023 432.016 212.654 432.163 212.3 432.335L211.785 431.168C212.169 430.966 212.608 430.799 213.103 430.668C213.608 430.526 214.134 430.456 214.679 430.456ZM216.149 434.85L215.058 434.88C214.129 434.92 213.482 435.077 213.119 435.35C212.765 435.612 212.588 435.986 212.588 436.471C212.588 436.895 212.714 437.203 212.967 437.395C213.22 437.587 213.548 437.683 213.952 437.683C214.578 437.683 215.098 437.506 215.512 437.153C215.937 436.799 216.149 436.269 216.149 435.562V434.85ZM226.895 438.759L225.728 434.683C225.647 434.42 225.561 434.117 225.471 433.774C225.39 433.431 225.314 433.107 225.243 432.804C225.173 432.491 225.117 432.254 225.077 432.092H225.016C224.986 432.254 224.935 432.491 224.864 432.804C224.794 433.117 224.713 433.446 224.622 433.789C224.541 434.133 224.46 434.436 224.38 434.698L223.167 438.759H221.38L219.122 430.592H220.758L221.819 434.729C221.93 435.153 222.031 435.607 222.122 436.092C222.223 436.567 222.294 436.951 222.334 437.244H222.395C222.425 437.072 222.465 436.845 222.516 436.562C222.577 436.279 222.637 435.996 222.698 435.713C222.768 435.42 222.834 435.183 222.895 435.001L224.198 430.592H225.955L227.228 435.001C227.289 435.203 227.354 435.446 227.425 435.729C227.496 436.001 227.556 436.274 227.607 436.547C227.668 436.809 227.708 437.037 227.728 437.229H227.789C227.809 437.067 227.844 436.845 227.895 436.562C227.945 436.279 228.006 435.976 228.077 435.653C228.157 435.33 228.233 435.021 228.304 434.729L229.395 430.592H231.016L228.728 438.759H226.895ZM235.602 430.456C236.622 430.456 237.384 430.683 237.89 431.138C238.405 431.582 238.662 432.284 238.662 433.244V438.774H237.526L237.208 437.638H237.147C236.794 438.082 236.42 438.41 236.026 438.623C235.642 438.825 235.107 438.926 234.42 438.926C233.682 438.926 233.071 438.729 232.586 438.335C232.102 437.931 231.859 437.304 231.859 436.456C231.859 435.628 232.172 434.996 232.799 434.562C233.425 434.128 234.389 433.89 235.693 433.85L237.086 433.804V433.35C237.086 432.754 236.95 432.335 236.677 432.092C236.405 431.84 236.021 431.713 235.526 431.713C235.112 431.713 234.713 431.774 234.329 431.895C233.945 432.016 233.576 432.163 233.223 432.335L232.708 431.168C233.091 430.966 233.531 430.799 234.026 430.668C234.531 430.526 235.056 430.456 235.602 430.456ZM237.071 434.85L235.98 434.88C235.051 434.92 234.405 435.077 234.041 435.35C233.687 435.612 233.511 435.986 233.511 436.471C233.511 436.895 233.637 437.203 233.889 437.395C234.142 437.587 234.47 437.683 234.874 437.683C235.501 437.683 236.021 437.506 236.435 437.153C236.859 436.799 237.071 436.269 237.071 435.562V434.85ZM239.893 430.607H241.62L243.317 435.244C243.448 435.597 243.56 435.941 243.651 436.274C243.752 436.597 243.827 436.915 243.878 437.229H243.938C243.989 436.966 244.065 436.658 244.166 436.304C244.277 435.951 244.398 435.592 244.529 435.229L246.135 430.607H247.863L244.363 439.88C244.07 440.668 243.676 441.284 243.181 441.729C242.696 442.183 242.06 442.41 241.272 442.41C241.019 442.41 240.802 442.395 240.62 442.365C240.438 442.345 240.282 442.32 240.15 442.289V441.017C240.251 441.037 240.383 441.057 240.544 441.077C240.706 441.097 240.873 441.107 241.044 441.107C241.509 441.107 241.883 440.971 242.166 440.698C242.448 440.436 242.671 440.087 242.832 439.653L243.166 438.774L239.893 430.607ZM252.834 433.425C252.834 433.032 252.93 432.754 253.122 432.592C253.324 432.431 253.572 432.35 253.864 432.35C254.147 432.35 254.39 432.431 254.592 432.592C254.804 432.754 254.91 433.032 254.91 433.425C254.91 433.819 254.804 434.102 254.592 434.274C254.39 434.446 254.147 434.532 253.864 434.532C253.572 434.532 253.324 434.446 253.122 434.274C252.93 434.102 252.834 433.819 252.834 433.425ZM268.065 438.774L266.913 435.653H262.731L261.58 438.774H259.883L263.989 427.91H265.686L269.777 438.774H268.065ZM266.459 434.229L265.368 431.183C265.337 431.072 265.282 430.905 265.201 430.683C265.13 430.461 265.06 430.228 264.989 429.986C264.918 429.744 264.863 429.547 264.822 429.395C264.741 429.708 264.651 430.042 264.55 430.395C264.448 430.749 264.368 431.011 264.307 431.183L263.216 434.229H266.459ZM274.342 438.926C273.211 438.926 272.302 438.592 271.615 437.926C270.928 437.249 270.584 436.188 270.584 434.744C270.584 433.734 270.751 432.915 271.084 432.289C271.418 431.663 271.877 431.203 272.463 430.91C273.049 430.607 273.716 430.456 274.463 430.456C274.918 430.456 275.342 430.506 275.736 430.607C276.14 430.698 276.473 430.804 276.736 430.925L276.251 432.228C275.968 432.117 275.665 432.021 275.342 431.941C275.029 431.86 274.731 431.819 274.448 431.819C272.973 431.819 272.236 432.789 272.236 434.729C272.236 435.658 272.418 436.365 272.781 436.85C273.145 437.335 273.68 437.577 274.388 437.577C274.842 437.577 275.241 437.527 275.584 437.426C275.938 437.325 276.261 437.193 276.554 437.032V438.426C276.261 438.597 275.943 438.724 275.6 438.804C275.256 438.885 274.837 438.926 274.342 438.926ZM281.421 437.623C281.634 437.623 281.851 437.607 282.073 437.577C282.295 437.537 282.487 437.486 282.649 437.426V438.638C282.467 438.718 282.23 438.784 281.937 438.835C281.654 438.895 281.366 438.926 281.073 438.926C280.629 438.926 280.219 438.85 279.846 438.698C279.472 438.547 279.174 438.284 278.952 437.91C278.74 437.537 278.634 437.016 278.634 436.35V431.835H277.497V431.107L278.694 430.501L279.255 428.774H280.24V430.607H282.573V431.835H280.24V436.319C280.24 436.764 280.346 437.092 280.558 437.304C280.78 437.516 281.068 437.623 281.421 437.623ZM285.101 427.501C285.343 427.501 285.555 427.572 285.737 427.713C285.919 427.855 286.01 428.092 286.01 428.425C286.01 428.749 285.919 428.986 285.737 429.138C285.555 429.279 285.343 429.35 285.101 429.35C284.838 429.35 284.616 429.279 284.434 429.138C284.262 428.986 284.176 428.749 284.176 428.425C284.176 428.092 284.262 427.855 284.434 427.713C284.616 427.572 284.838 427.501 285.101 427.501ZM285.888 430.607V438.774H284.282V430.607H285.888ZM290.244 438.774L287.153 430.607H288.85L290.547 435.38C290.658 435.693 290.769 436.047 290.88 436.441C290.991 436.825 291.062 437.143 291.092 437.395H291.153C291.193 437.143 291.274 436.819 291.395 436.426C291.517 436.032 291.628 435.683 291.729 435.38L293.426 430.607H295.123L292.017 438.774H290.244ZM299.598 430.456C300.669 430.456 301.512 430.789 302.128 431.456C302.745 432.112 303.053 433.011 303.053 434.153V435.032H297.568C297.588 435.87 297.805 436.511 298.219 436.956C298.644 437.4 299.235 437.623 299.992 437.623C300.517 437.623 300.982 437.577 301.386 437.486C301.8 437.385 302.224 437.239 302.659 437.047V438.38C302.245 438.562 301.831 438.698 301.416 438.789C301.002 438.88 300.507 438.926 299.931 438.926C299.133 438.926 298.431 438.769 297.825 438.456C297.229 438.143 296.76 437.678 296.416 437.062C296.083 436.436 295.916 435.668 295.916 434.759C295.916 433.84 296.068 433.062 296.371 432.425C296.684 431.789 297.113 431.304 297.659 430.971C298.214 430.627 298.861 430.456 299.598 430.456ZM299.598 431.698C299.022 431.698 298.558 431.885 298.204 432.259C297.861 432.633 297.659 433.163 297.598 433.85H301.447C301.437 433.213 301.28 432.698 300.977 432.304C300.684 431.9 300.224 431.698 299.598 431.698ZM312.008 432.062C313.079 432.062 313.942 432.34 314.599 432.895C315.255 433.451 315.584 434.244 315.584 435.274C315.584 436.405 315.225 437.299 314.508 437.956C313.791 438.602 312.776 438.926 311.462 438.926C310.897 438.926 310.366 438.875 309.872 438.774C309.387 438.673 308.973 438.527 308.629 438.335V436.865C308.993 437.077 309.432 437.249 309.947 437.38C310.473 437.511 310.973 437.577 311.447 437.577C312.205 437.577 312.811 437.405 313.266 437.062C313.72 436.708 313.947 436.163 313.947 435.426C313.947 434.769 313.74 434.269 313.326 433.925C312.922 433.572 312.281 433.395 311.402 433.395C311.109 433.395 310.791 433.42 310.447 433.471C310.104 433.521 309.826 433.572 309.614 433.622L308.871 433.183L309.281 427.956H314.841V429.38H310.675L310.432 432.213C310.604 432.183 310.821 432.153 311.084 432.122C311.346 432.082 311.654 432.062 312.008 432.062ZM324.785 436.38H323.285V438.774H321.724V436.38H316.709V435.107L321.694 427.91H323.285V435.016H324.785V436.38ZM321.724 435.016V432.077C321.724 431.602 321.734 431.158 321.755 430.744C321.775 430.319 321.79 429.966 321.8 429.683H321.739C321.659 429.885 321.558 430.092 321.436 430.304C321.325 430.516 321.209 430.703 321.088 430.865L318.224 435.016H321.724ZM339.422 430.456C340.341 430.456 341.033 430.693 341.498 431.168C341.962 431.643 342.195 432.405 342.195 433.456V438.774H340.589V433.668C340.589 432.405 340.079 431.774 339.058 431.774C338.331 431.774 337.811 432.001 337.498 432.456C337.185 432.9 337.028 433.542 337.028 434.38V438.774H335.437V433.668C335.437 432.405 334.922 431.774 333.892 431.774C333.124 431.774 332.594 432.021 332.301 432.516C332.018 433.011 331.876 433.723 331.876 434.653V438.774H330.27V430.607H331.543L331.77 431.698H331.861C332.104 431.274 332.442 430.961 332.876 430.759C333.311 430.557 333.77 430.456 334.255 430.456C335.518 430.456 336.346 430.895 336.74 431.774H336.861C337.124 431.319 337.488 430.986 337.952 430.774C338.417 430.562 338.907 430.456 339.422 430.456ZM345.471 427.501C345.713 427.501 345.925 427.572 346.107 427.713C346.289 427.855 346.38 428.092 346.38 428.425C346.38 428.749 346.289 428.986 346.107 429.138C345.925 429.279 345.713 429.35 345.471 429.35C345.208 429.35 344.986 429.279 344.804 429.138C344.632 428.986 344.547 428.749 344.547 428.425C344.547 428.092 344.632 427.855 344.804 427.713C344.986 427.572 345.208 427.501 345.471 427.501ZM346.259 430.607V438.774H344.653V430.607H346.259ZM352.917 430.456C353.867 430.456 354.594 430.693 355.099 431.168C355.604 431.643 355.857 432.405 355.857 433.456V438.774H354.266V433.683C354.266 432.41 353.705 431.774 352.584 431.774C351.746 431.774 351.17 432.021 350.857 432.516C350.544 433.011 350.387 433.723 350.387 434.653V438.774H348.781V430.607H350.054L350.281 431.698H350.372C350.634 431.274 350.993 430.961 351.448 430.759C351.912 430.557 352.402 430.456 352.917 430.456ZM365.427 430.456C366.448 430.456 367.21 430.683 367.715 431.138C368.23 431.582 368.488 432.284 368.488 433.244V438.774H367.352L367.033 437.638H366.973C366.619 438.082 366.246 438.41 365.852 438.623C365.468 438.825 364.932 438.926 364.245 438.926C363.508 438.926 362.897 438.729 362.412 438.335C361.927 437.931 361.685 437.304 361.685 436.456C361.685 435.628 361.998 434.996 362.624 434.562C363.251 434.128 364.215 433.89 365.518 433.85L366.912 433.804V433.35C366.912 432.754 366.776 432.335 366.503 432.092C366.23 431.84 365.847 431.713 365.352 431.713C364.937 431.713 364.538 431.774 364.155 431.895C363.771 432.016 363.402 432.163 363.049 432.335L362.533 431.168C362.917 430.966 363.357 430.799 363.852 430.668C364.357 430.526 364.882 430.456 365.427 430.456ZM366.897 434.85L365.806 434.88C364.877 434.92 364.23 435.077 363.867 435.35C363.513 435.612 363.336 435.986 363.336 436.471C363.336 436.895 363.463 437.203 363.715 437.395C363.968 437.587 364.296 437.683 364.7 437.683C365.326 437.683 365.847 437.506 366.261 437.153C366.685 436.799 366.897 436.269 366.897 435.562V434.85ZM373.779 430.456C374.86 430.456 375.693 430.865 376.279 431.683H376.355L376.537 430.607H377.84V438.88C377.84 440.042 377.527 440.921 376.901 441.517C376.284 442.112 375.34 442.41 374.067 442.41C373.471 442.41 372.926 442.37 372.431 442.289C371.946 442.208 371.496 442.082 371.082 441.91V440.501C371.951 440.926 372.976 441.138 374.158 441.138C374.825 441.138 375.34 440.946 375.704 440.562C376.067 440.188 376.249 439.658 376.249 438.971V438.698C376.249 438.567 376.254 438.395 376.264 438.183C376.274 437.971 376.284 437.809 376.294 437.698H376.234C375.961 438.123 375.618 438.436 375.204 438.638C374.789 438.83 374.315 438.926 373.779 438.926C372.749 438.926 371.941 438.557 371.355 437.819C370.779 437.072 370.491 436.037 370.491 434.713C370.491 433.4 370.779 432.365 371.355 431.607C371.941 430.84 372.749 430.456 373.779 430.456ZM374.113 431.789C373.476 431.789 372.986 432.042 372.643 432.547C372.31 433.052 372.143 433.779 372.143 434.729C372.143 435.678 372.31 436.4 372.643 436.895C372.986 437.39 373.486 437.638 374.143 437.638C374.89 437.638 375.436 437.436 375.779 437.032C376.133 436.617 376.31 435.946 376.31 435.016V434.713C376.31 433.673 376.133 432.925 375.779 432.471C375.426 432.016 374.87 431.789 374.113 431.789ZM387.554 434.683C387.554 436.037 387.206 437.082 386.509 437.819C385.812 438.557 384.872 438.926 383.69 438.926C382.953 438.926 382.296 438.759 381.721 438.426C381.155 438.092 380.705 437.612 380.372 436.986C380.049 436.35 379.887 435.582 379.887 434.683C379.887 433.33 380.231 432.289 380.918 431.562C381.604 430.824 382.544 430.456 383.736 430.456C384.483 430.456 385.14 430.622 385.706 430.956C386.281 431.279 386.731 431.754 387.054 432.38C387.387 433.006 387.554 433.774 387.554 434.683ZM381.539 434.683C381.539 435.602 381.71 436.319 382.054 436.835C382.407 437.35 382.963 437.607 383.721 437.607C384.478 437.607 385.029 437.35 385.372 436.835C385.726 436.319 385.902 435.602 385.902 434.683C385.902 433.754 385.726 433.042 385.372 432.547C385.019 432.042 384.463 431.789 383.705 431.789C382.948 431.789 382.397 432.042 382.054 432.547C381.71 433.042 381.539 433.754 381.539 434.683Z" fill="#828282"/>
<path d="M232.445 126.685L208.455 144.993L213.505 246.005L278.531 308.506L315.78 179.084L290.527 92.5931L232.445 126.685Z" fill="#E4E4E4" stroke="black" stroke-width="1.26265"/>
<path d="M335.981 182.875L337.875 179.718C338.296 182.875 339.138 189.946 339.138 192.976C339.138 196.764 334.719 212.547 334.087 216.966C333.456 221.386 320.198 248.533 315.779 257.371C312.243 264.442 298.312 283.887 291.789 292.725C296.208 285.781 307.067 268.104 315.148 252.952C323.228 237.8 332.404 199.921 335.981 182.875Z" stroke="black" stroke-width="1.26265"/>
<path d="M150.373 307.872C156.434 297.771 173.101 264.521 180.677 249.159C183.623 249.159 192.167 250.043 202.774 253.578C213.38 257.114 231.183 320.288 238.759 351.433L232.446 373.53L208.116 358.468C206.674 357.576 205.056 356.971 203.374 356.752C172.92 352.799 169.539 366.155 162.369 373.53H136.484C122.595 358.378 142.797 320.499 150.373 307.872Z" fill="#B4D2A9" stroke="black" stroke-width="1.26265"/>
<path d="M200.247 144.992C199.04 145.394 190.988 149.411 188.883 151.305C184.843 221.508 240.231 276.518 268.43 295.247L276.006 287.04C255.803 282.621 231.182 223.276 231.182 210.018C231.182 199.412 215.609 161.406 207.823 143.729C206.981 143.94 204.035 143.729 200.247 144.992Z" fill="#B4D2A9" stroke="black" stroke-width="1.26265"/>
<path d="M265.904 30.7201C245.702 7.99251 220.028 16.6206 209.717 23.7756C188.504 34.381 193.723 69.8625 198.984 86.2777C203.614 99.325 217.545 126.809 236.232 132.364C259.591 139.309 272.032 134.782 282.319 119.106C295.577 98.9041 291.157 59.1297 265.904 30.7201Z" fill="#E4E4E4" stroke="black" stroke-width="1.26265"/>
<path d="M377.649 167.088C375.629 148.906 348.608 141.835 335.35 140.572C318.515 181.608 284.213 264.312 284.213 264.312C284.213 264.312 277.268 286.408 267.167 294.615C259.086 301.181 239.389 350.172 230.551 374.162L282.319 374.793C283.161 370.795 291.789 347.015 297.471 336.283C310.003 312.61 360.603 221.382 371.336 203.073C379.922 188.427 379.122 172.98 377.649 167.088Z" fill="#E4E4E4" stroke="black" stroke-width="1.26265"/>
<path d="M182.567 122.896C164.385 89.0571 168.051 43.3493 182.568 27.5662C192.039 13.6771 220.576 -9.93443 258.96 6.7325C306.941 27.5662 318.305 73.654 321.462 85.6491C324.618 97.6443 328.406 129.21 351.134 152.569C374.872 183.378 353.028 236.956 339.139 259.894C346.192 243.907 342.848 205.522 339.806 184.678C343.202 220.122 303.024 283.262 288.469 297.331C288.312 297.507 288.156 297.655 288.001 297.774C288.154 297.632 288.31 297.484 288.469 297.331C296.979 287.735 307.493 194.043 303.153 183.504C300.123 190.575 293.052 203.707 279.794 216.964L288.001 175.928C296.209 134.892 287.37 58.5022 266.536 31.3553C259.713 22.4634 236.991 11.659 222.344 18.7288C208.665 23.3585 195.828 35.7746 195.828 62.9215C195.828 78.0732 200.879 88.1744 203.404 95.119C204.279 97.525 220.45 122.896 231.179 130.473L243.178 156.989C234.339 156.989 197.722 143.731 182.567 122.896Z" fill="#313234" stroke="black" stroke-width="1.26265"/>
<path d="M216.662 305.982C203.547 284.135 200.249 283.254 170.577 227.698C153.91 192.629 175.838 162.159 188.885 151.308C192.252 156.148 201.764 171.005 212.876 191.712C223.988 212.42 222.557 221.384 220.452 223.278C220.957 239.945 252.227 276.941 267.799 293.987C264.011 299.037 245.705 334.391 238.129 352.7C236.025 343.44 220.452 312.295 216.662 305.982Z" fill="#E4E4E4" stroke="black" stroke-width="1.26265"/>
<path d="M204.035 256.737C187.873 235.019 174.573 198.023 169.943 182.24C164.261 187.291 165.524 207.493 166.787 215.069C168.049 222.645 173.731 231.484 174.994 234.64C176.256 237.797 207.823 290.828 212.873 298.404C217.924 305.98 224.238 319.238 225.5 321.763C226.457 323.68 234.549 341.334 238.126 350.172L248.227 328.707C240.23 313.766 220.196 278.454 204.035 256.737Z" fill="#AFAFAF"/>
<path d="M136.483 373.534H161.736H164.893C165.103 372.271 167.544 368.231 175.625 362.171C185.726 354.595 195.196 357.12 202.141 357.12C207.696 357.12 223.395 368.273 230.55 374.166L236.864 357.12H223.606C196.838 355.605 163.63 323.659 150.372 307.876C151.845 305.14 151.761 305.225 139.639 327.447C127.518 349.67 132.484 367.431 136.483 373.534Z" fill="#43ABAB" stroke="black" stroke-width="1.26265"/>
<path d="M244.44 157.621L232.445 131.737L245.703 135.525C252.647 136.787 258.961 136.156 262.748 135.525C277.269 131.737 285.266 116.795 288.633 107.746C289.264 110.903 290.527 145.626 289.895 145.626C291.158 163.303 281.057 204.339 280.426 209.39C279.92 213.43 276.848 223.279 275.375 227.698C279.415 212.546 237.916 169.195 216.662 149.414C226.132 155.727 239.39 157.411 244.44 157.621Z" fill="#AFAFAF"/>
<path d="M201.51 353.961C185.853 343.354 149.11 354.592 132.695 361.537C131.685 365.072 134.8 371.007 136.483 373.532H164.893C182.065 352.825 203.193 356.907 211.611 361.537C214.767 363.431 217.166 364.567 201.51 353.961Z" fill="#5ACFCF" stroke="black" stroke-width="1.26265"/>
<path d="M207.192 107.114C198.985 97.0131 196.459 83.7553 196.459 76.8107C198.143 81.6509 201.636 91.8362 202.141 93.8565C202.772 96.3818 206.56 102.064 212.874 110.902C217.924 117.973 226.763 127.317 230.551 131.105L231.182 132.999C229.498 132.788 226.131 131.988 226.131 130.473C226.131 128.579 215.399 117.215 207.192 107.114Z" fill="black"/>
<path d="M305.089 53.9423C301.554 51.417 302.311 53.8721 302.522 55.3452C304.416 59.1331 316.452 108.237 317.084 112.025C317.715 115.813 324.66 125.283 323.397 112.025C322.134 98.7672 309.509 57.0989 305.089 53.9423Z" fill="#565656"/>
<path d="M301.89 179.085C301.89 181.105 288.001 202.654 281.056 213.176V214.438C284.087 214.438 296.839 196.761 303.152 182.24C302.942 180.346 301.89 177.064 301.89 179.085Z" fill="#19191B"/>
<path d="M226.133 326.183C217.926 326.815 194.146 298.826 182.571 283.253C181.561 298.405 217.926 337.968 236.234 355.856L236.865 353.33V351.436C236.865 349.416 229.71 333.759 226.133 326.183Z" fill="#99B390"/>
<path d="M221.979 336.152C215.998 338.18 192.927 321.438 181.322 311.81C183.488 323.494 218.145 346.641 235.203 356.754L235.186 354.719L234.822 353.282C234.433 351.75 226.098 341.224 221.979 336.152Z" fill="#99B390"/>
<rect x="276.631" y="21.8861" width="180.558" height="44.1926" rx="22.0963" fill="#F9DA52" stroke="black" stroke-width="1.26265"/>
<rect x="289.895" y="25.041" width="154.043" height="6.31323" rx="3.15662" fill="#FFED9D"/>
<path d="M314.371 50.725C314.371 51.2051 314.273 51.6556 314.075 52.0764C313.885 52.4973 313.625 52.8656 313.296 53.1813C312.974 53.4969 312.596 53.7468 312.162 53.9309C311.734 54.1085 311.28 54.1973 310.8 54.1973H309.784C309.304 54.1973 308.847 54.1085 308.413 53.9309C307.986 53.7468 307.607 53.4969 307.279 53.1813C306.956 52.8656 306.697 52.4973 306.499 52.0764C306.309 51.6556 306.213 51.2051 306.213 50.725V50.1627L307.486 49.9556V50.725C307.486 51.0407 307.548 51.3366 307.673 51.6128C307.805 51.8824 307.979 52.1225 308.196 52.3329C308.413 52.5368 308.663 52.6979 308.946 52.8163C309.235 52.9346 309.538 52.9938 309.853 52.9938H310.741C311.057 52.9938 311.356 52.9346 311.639 52.8163C311.922 52.6979 312.171 52.5368 312.388 52.3329C312.605 52.1225 312.776 51.8824 312.901 51.6128C313.033 51.3366 313.099 51.0407 313.099 50.725V50.3008C313.099 49.8142 313.003 49.4098 312.813 49.0875C312.622 48.7653 312.369 48.4924 312.053 48.2688C311.737 48.0386 311.379 47.8446 310.978 47.6868C310.583 47.5289 310.176 47.3711 309.755 47.2133C309.334 47.0554 308.923 46.8812 308.522 46.6905C308.127 46.4997 307.772 46.263 307.456 45.9802C307.141 45.6909 306.887 45.339 306.697 44.9247C306.506 44.5104 306.411 44.0008 306.411 43.3957V43.1294C306.411 42.6493 306.499 42.1989 306.677 41.778C306.861 41.3571 307.111 40.9888 307.427 40.6732C307.742 40.3575 308.111 40.1109 308.531 39.9333C308.959 39.7492 309.413 39.6571 309.893 39.6571H310.8C311.28 39.6571 311.731 39.7492 312.152 39.9333C312.573 40.1109 312.941 40.3575 313.257 40.6732C313.572 40.9888 313.819 41.3571 313.996 41.778C314.18 42.1989 314.273 42.6493 314.273 43.1294V43.4944L313 43.7015V43.1294C313 42.8137 312.941 42.5211 312.822 42.2515C312.704 41.9753 312.543 41.7352 312.339 41.5314C312.135 41.3275 311.895 41.1664 311.619 41.048C311.349 40.9296 311.057 40.8704 310.741 40.8704H309.952C309.636 40.8704 309.34 40.9296 309.064 41.048C308.795 41.1664 308.554 41.3275 308.344 41.5314C308.14 41.7352 307.979 41.9753 307.861 42.2515C307.742 42.5211 307.683 42.8137 307.683 43.1294V43.3957C307.683 43.8495 307.778 44.2309 307.969 44.54C308.16 44.8491 308.413 45.1154 308.729 45.339C309.044 45.556 309.4 45.7468 309.794 45.9112C310.195 46.069 310.606 46.2334 311.027 46.4044C311.448 46.5688 311.856 46.7529 312.25 46.9568C312.652 47.1541 313.01 47.4007 313.326 47.6966C313.641 47.986 313.894 48.3411 314.085 48.762C314.276 49.1829 314.371 49.6958 314.371 50.3008V50.725ZM323.456 51.2281C323.456 51.6358 323.377 52.0205 323.22 52.3822C323.068 52.7439 322.858 53.0596 322.588 53.3292C322.319 53.5988 322.003 53.8126 321.641 53.9704C321.28 54.1217 320.895 54.1973 320.487 54.1973H319.678C319.271 54.1973 318.886 54.1217 318.524 53.9704C318.162 53.8126 317.847 53.5988 317.577 53.3292C317.308 53.0596 317.094 52.7439 316.936 52.3822C316.785 52.0205 316.709 51.6358 316.709 51.2281V46.6707C316.709 46.263 316.785 45.8783 316.936 45.5166C317.094 45.1549 317.308 44.8392 317.577 44.5696C317.847 44.3 318.162 44.0895 318.524 43.9383C318.886 43.7805 319.271 43.7015 319.678 43.7015H320.487C320.895 43.7015 321.28 43.7805 321.641 43.9383C322.003 44.0895 322.319 44.3 322.588 44.5696C322.858 44.8392 323.068 45.1549 323.22 45.5166C323.377 45.8783 323.456 46.263 323.456 46.6707V49.0481H317.922V51.2971C317.922 51.5405 317.968 51.7706 318.061 51.9877C318.153 52.1981 318.278 52.3822 318.435 52.5401C318.593 52.6979 318.777 52.8228 318.988 52.9149C319.205 53.007 319.435 53.053 319.678 53.053H320.487C320.73 53.053 320.957 53.007 321.168 52.9149C321.385 52.8228 321.572 52.6979 321.73 52.5401C321.888 52.3822 322.013 52.1981 322.105 51.9877C322.197 51.7706 322.243 51.5405 322.243 51.2971V50.6264L323.456 50.8237V51.2281ZM322.243 46.6017C322.243 46.3584 322.197 46.1315 322.105 45.921C322.013 45.704 321.888 45.5166 321.73 45.3588C321.572 45.2009 321.385 45.076 321.168 44.9839C320.957 44.8918 320.73 44.8458 320.487 44.8458H319.678C319.435 44.8458 319.205 44.8918 318.988 44.9839C318.777 45.076 318.593 45.2009 318.435 45.3588C318.278 45.5166 318.153 45.704 318.061 45.921C317.968 46.1315 317.922 46.3584 317.922 46.6017V48.1011H322.243V46.6017ZM331.417 54V46.6017C331.417 46.3584 331.371 46.1315 331.279 45.921C331.187 45.704 331.062 45.5166 330.904 45.3588C330.746 45.2009 330.559 45.076 330.342 44.9839C330.131 44.8918 329.904 44.8458 329.661 44.8458H328.852C328.609 44.8458 328.379 44.8918 328.162 44.9839C327.951 45.076 327.767 45.2009 327.609 45.3588C327.451 45.5166 327.326 45.704 327.234 45.921C327.142 46.1315 327.096 46.3584 327.096 46.6017V54H325.883V43.8988H326.287L326.948 44.9247C327.225 44.5499 327.57 44.2539 327.984 44.0369C328.405 43.8133 328.862 43.7015 329.355 43.7015H329.661C330.069 43.7015 330.454 43.7805 330.815 43.9383C331.177 44.0895 331.493 44.3 331.762 44.5696C332.032 44.8392 332.242 45.1549 332.394 45.5166C332.551 45.8783 332.63 46.263 332.63 46.6707V54H331.417ZM342.001 51.4352C342.001 51.843 341.919 52.2178 341.755 52.5598C341.59 52.8952 341.367 53.1845 341.084 53.4279C340.801 53.6712 340.472 53.8619 340.098 54C339.729 54.1315 339.341 54.1973 338.934 54.1973H338.125C337.717 54.1973 337.326 54.1217 336.951 53.9704C336.583 53.8126 336.257 53.5988 335.974 53.3292C335.698 53.0596 335.475 52.7439 335.304 52.3822C335.139 52.0205 335.057 51.6358 335.057 51.2281V50.8237L336.27 50.6264V51.2971C336.27 51.5405 336.32 51.7706 336.418 51.9877C336.523 52.1981 336.662 52.3822 336.833 52.5401C337.003 52.6979 337.201 52.8228 337.424 52.9149C337.648 53.007 337.881 53.053 338.125 53.053H338.934C339.177 53.053 339.41 53.0168 339.634 52.9445C339.858 52.8722 340.055 52.7702 340.226 52.6387C340.403 52.5006 340.542 52.3362 340.64 52.1455C340.745 51.9548 340.798 51.7378 340.798 51.4944C340.798 51.1327 340.719 50.8368 340.561 50.6066C340.403 50.3765 340.193 50.1858 339.93 50.0345C339.673 49.8767 339.378 49.7484 339.042 49.6498C338.713 49.5446 338.375 49.4426 338.026 49.344C337.678 49.2388 337.336 49.1204 337 48.9889C336.671 48.8573 336.375 48.6864 336.112 48.4759C335.856 48.2589 335.649 47.9893 335.491 47.667C335.333 47.3448 335.254 46.9436 335.254 46.4636C335.254 46.0558 335.333 45.6843 335.491 45.3489C335.649 45.0069 335.863 44.7143 336.132 44.471C336.402 44.2276 336.714 44.0402 337.069 43.9087C337.431 43.7706 337.816 43.7015 338.223 43.7015H338.934C339.341 43.7015 339.726 43.7805 340.088 43.9383C340.449 44.0895 340.765 44.3 341.035 44.5696C341.304 44.8392 341.515 45.1549 341.666 45.5166C341.824 45.8783 341.903 46.263 341.903 46.6707V46.7102L340.689 46.9075V46.6017C340.689 46.3584 340.643 46.1315 340.551 45.921C340.459 45.704 340.334 45.5166 340.177 45.3588C340.019 45.2009 339.831 45.076 339.614 44.9839C339.404 44.8918 339.177 44.8458 338.934 44.8458H338.223C337.98 44.8458 337.75 44.882 337.533 44.9543C337.322 45.0267 337.138 45.1319 336.98 45.27C336.823 45.4015 336.698 45.5626 336.606 45.7533C336.514 45.9441 336.468 46.1611 336.468 46.4044C336.468 46.7529 336.546 47.039 336.704 47.2626C336.862 47.4796 337.069 47.6637 337.326 47.815C337.589 47.9663 337.885 48.0945 338.214 48.1997C338.549 48.2984 338.888 48.4036 339.23 48.5154C339.578 48.6206 339.917 48.7423 340.246 48.8804C340.581 49.0185 340.877 49.196 341.133 49.413C341.396 49.6301 341.607 49.903 341.765 50.2318C341.923 50.554 342.001 50.9552 342.001 51.4352ZM350.672 54L350.002 52.9741C349.725 53.3489 349.38 53.6482 348.966 53.8718C348.551 54.0888 348.098 54.1973 347.604 54.1973H347.299C346.891 54.1973 346.506 54.1217 346.145 53.9704C345.783 53.8126 345.467 53.5988 345.198 53.3292C344.928 53.0596 344.714 52.7439 344.556 52.3822C344.405 52.0205 344.329 51.6358 344.329 51.2281V43.8988H345.543V51.2971C345.543 51.5405 345.589 51.7706 345.681 51.9877C345.773 52.1981 345.898 52.3822 346.056 52.5401C346.214 52.6979 346.398 52.8228 346.608 52.9149C346.825 53.007 347.055 53.053 347.299 53.053H348.108C348.351 53.053 348.578 53.007 348.788 52.9149C349.005 52.8228 349.193 52.6979 349.35 52.5401C349.508 52.3822 349.633 52.1981 349.725 51.9877C349.817 51.7706 349.863 51.5405 349.863 51.2971V43.8988H351.077V54H350.672ZM360.251 51.2281C360.251 51.6358 360.172 52.0205 360.014 52.3822C359.863 52.7439 359.652 53.0596 359.383 53.3292C359.113 53.5988 358.797 53.8126 358.436 53.9704C358.074 54.1217 357.689 54.1973 357.281 54.1973H356.473C356.065 54.1973 355.68 54.1217 355.318 53.9704C354.957 53.8126 354.641 53.5988 354.371 53.3292C354.102 53.0596 353.888 52.7439 353.73 52.3822C353.579 52.0205 353.503 51.6358 353.503 51.2281V46.6707C353.503 46.263 353.579 45.8783 353.73 45.5166C353.888 45.1549 354.102 44.8392 354.371 44.5696C354.641 44.3 354.957 44.0895 355.318 43.9383C355.68 43.7805 356.065 43.7015 356.473 43.7015H357.281C357.689 43.7015 358.074 43.7805 358.436 43.9383C358.797 44.0895 359.113 44.3 359.383 44.5696C359.652 44.8392 359.863 45.1549 360.014 45.5166C360.172 45.8783 360.251 46.263 360.251 46.6707V51.2281ZM359.037 46.6017C359.037 46.3584 358.991 46.1315 358.899 45.921C358.807 45.704 358.682 45.5166 358.524 45.3588C358.367 45.2009 358.179 45.076 357.962 44.9839C357.752 44.8918 357.525 44.8458 357.281 44.8458H356.473C356.229 44.8458 355.999 44.8918 355.782 44.9839C355.572 45.076 355.387 45.2009 355.23 45.3588C355.072 45.5166 354.947 45.704 354.855 45.921C354.763 46.1315 354.717 46.3584 354.717 46.6017V51.2971C354.717 51.5405 354.763 51.7706 354.855 51.9877C354.947 52.1981 355.072 52.3822 355.23 52.5401C355.387 52.6979 355.572 52.8228 355.782 52.9149C355.999 53.007 356.229 53.053 356.473 53.053H357.281C357.525 53.053 357.752 53.007 357.962 52.9149C358.179 52.8228 358.367 52.6979 358.524 52.5401C358.682 52.3822 358.807 52.1981 358.899 51.9877C358.991 51.7706 359.037 51.5405 359.037 51.2971V46.6017ZM369.02 54L368.349 52.9741C368.073 53.3489 367.728 53.6482 367.314 53.8718C366.899 54.0888 366.446 54.1973 365.952 54.1973H365.647C365.239 54.1973 364.854 54.1217 364.492 53.9704C364.131 53.8126 363.815 53.5988 363.545 53.3292C363.276 53.0596 363.062 52.7439 362.904 52.3822C362.753 52.0205 362.677 51.6358 362.677 51.2281V43.8988H363.891V51.2971C363.891 51.5405 363.937 51.7706 364.029 51.9877C364.121 52.1981 364.246 52.3822 364.404 52.5401C364.561 52.6979 364.746 52.8228 364.956 52.9149C365.173 53.007 365.403 53.053 365.647 53.053H366.455C366.699 53.053 366.926 53.007 367.136 52.9149C367.353 52.8228 367.54 52.6979 367.698 52.5401C367.856 52.3822 367.981 52.1981 368.073 51.9877C368.165 51.7706 368.211 51.5405 368.211 51.2971V43.8988H369.425V54H369.02ZM378.796 51.4352C378.796 51.843 378.714 52.2178 378.549 52.5598C378.385 52.8952 378.161 53.1845 377.878 53.4279C377.596 53.6712 377.267 53.8619 376.892 54C376.524 54.1315 376.136 54.1973 375.728 54.1973H374.919C374.511 54.1973 374.12 54.1217 373.745 53.9704C373.377 53.8126 373.051 53.5988 372.769 53.3292C372.492 53.0596 372.269 52.7439 372.098 52.3822C371.933 52.0205 371.851 51.6358 371.851 51.2281V50.8237L373.065 50.6264V51.2971C373.065 51.5405 373.114 51.7706 373.213 51.9877C373.318 52.1981 373.456 52.3822 373.627 52.5401C373.798 52.6979 373.995 52.8228 374.219 52.9149C374.442 53.007 374.676 53.053 374.919 53.053H375.728C375.971 53.053 376.205 53.0168 376.428 52.9445C376.652 52.8722 376.849 52.7702 377.02 52.6387C377.198 52.5006 377.336 52.3362 377.434 52.1455C377.54 51.9548 377.592 51.7378 377.592 51.4944C377.592 51.1327 377.513 50.8368 377.356 50.6066C377.198 50.3765 376.987 50.1858 376.724 50.0345C376.468 49.8767 376.172 49.7484 375.836 49.6498C375.508 49.5446 375.169 49.4426 374.82 49.344C374.472 49.2388 374.13 49.1204 373.795 48.9889C373.466 48.8573 373.17 48.6864 372.907 48.4759C372.65 48.2589 372.443 47.9893 372.285 47.667C372.127 47.3448 372.049 46.9436 372.049 46.4636C372.049 46.0558 372.127 45.6843 372.285 45.3489C372.443 45.0069 372.657 44.7143 372.926 44.471C373.196 44.2276 373.508 44.0402 373.864 43.9087C374.225 43.7706 374.61 43.7015 375.018 43.7015H375.728C376.136 43.7015 376.52 43.7805 376.882 43.9383C377.244 44.0895 377.559 44.3 377.829 44.5696C378.099 44.8392 378.309 45.1549 378.46 45.5166C378.618 45.8783 378.697 46.263 378.697 46.6707V46.7102L377.484 46.9075V46.6017C377.484 46.3584 377.438 46.1315 377.346 45.921C377.254 45.704 377.129 45.5166 376.971 45.3588C376.813 45.2009 376.626 45.076 376.409 44.9839C376.198 44.8918 375.971 44.8458 375.728 44.8458H375.018C374.774 44.8458 374.544 44.882 374.327 44.9543C374.117 45.0267 373.933 45.1319 373.775 45.27C373.617 45.4015 373.492 45.5626 373.4 45.7533C373.308 45.9441 373.262 46.1611 373.262 46.4044C373.262 46.7529 373.341 47.039 373.499 47.2626C373.656 47.4796 373.864 47.6637 374.12 47.815C374.383 47.9663 374.679 48.0945 375.008 48.1997C375.343 48.2984 375.682 48.4036 376.024 48.5154C376.372 48.6206 376.711 48.7423 377.04 48.8804C377.375 49.0185 377.671 49.196 377.928 49.413C378.191 49.6301 378.401 49.903 378.559 50.2318C378.717 50.554 378.796 50.9552 378.796 51.4352ZM388.433 54L383.107 46.9272L388.433 39.8544H390.012L384.576 46.9272L390.012 54H388.433ZM381.528 54V39.8544H382.801V54H381.528ZM391.945 41.4722V39.8544H393.356V41.4722H391.945ZM392.044 54V43.8988H393.257V54H392.044ZM399.777 54C399.409 54 399.061 53.9309 398.732 53.7928C398.41 53.6547 398.127 53.464 397.883 53.2207C397.647 52.9774 397.456 52.6946 397.311 52.3724C397.173 52.0501 397.104 51.7049 397.104 51.3366V45.053H395.289V43.8988H397.104V41.4722L398.317 41.2749V43.8988H400.882V45.053H398.317V51.3958C398.317 51.5997 398.354 51.7904 398.426 51.9679C398.505 52.1389 398.61 52.2902 398.742 52.4217C398.873 52.5532 399.028 52.6584 399.205 52.7374C399.383 52.8097 399.574 52.8459 399.777 52.8459H400.882V54H399.777ZM406.801 54C406.433 54 406.084 53.9309 405.755 53.7928C405.433 53.6547 405.15 53.464 404.907 53.2207C404.67 52.9774 404.479 52.6946 404.335 52.3724C404.197 52.0501 404.128 51.7049 404.128 51.3366V45.053H402.313V43.8988H404.128V41.4722L405.341 41.2749V43.8988H407.906V45.053H405.341V51.3958C405.341 51.5997 405.377 51.7904 405.449 51.9679C405.528 52.1389 405.634 52.2902 405.765 52.4217C405.897 52.5532 406.051 52.6584 406.229 52.7374C406.406 52.8097 406.597 52.8459 406.801 52.8459H407.906V54H406.801ZM416.892 51.2281C416.892 51.6358 416.813 52.0205 416.655 52.3822C416.504 52.7439 416.294 53.0596 416.024 53.3292C415.755 53.5988 415.439 53.8126 415.077 53.9704C414.715 54.1217 414.331 54.1973 413.923 54.1973H413.114C412.706 54.1973 412.322 54.1217 411.96 53.9704C411.598 53.8126 411.283 53.5988 411.013 53.3292C410.743 53.0596 410.53 52.7439 410.372 52.3822C410.221 52.0205 410.145 51.6358 410.145 51.2281V46.6707C410.145 46.263 410.221 45.8783 410.372 45.5166C410.53 45.1549 410.743 44.8392 411.013 44.5696C411.283 44.3 411.598 44.0895 411.96 43.9383C412.322 43.7805 412.706 43.7015 413.114 43.7015H413.923C414.331 43.7015 414.715 43.7805 415.077 43.9383C415.439 44.0895 415.755 44.3 416.024 44.5696C416.294 44.8392 416.504 45.1549 416.655 45.5166C416.813 45.8783 416.892 46.263 416.892 46.6707V49.0481H411.358V51.2971C411.358 51.5405 411.404 51.7706 411.496 51.9877C411.588 52.1981 411.713 52.3822 411.871 52.5401C412.029 52.6979 412.213 52.8228 412.424 52.9149C412.641 53.007 412.871 53.053 413.114 53.053H413.923C414.166 53.053 414.393 53.007 414.604 52.9149C414.821 52.8228 415.008 52.6979 415.166 52.5401C415.324 52.3822 415.449 52.1981 415.541 51.9877C415.633 51.7706 415.679 51.5405 415.679 51.2971V50.6264L416.892 50.8237V51.2281ZM415.679 46.6017C415.679 46.3584 415.633 46.1315 415.541 45.921C415.449 45.704 415.324 45.5166 415.166 45.3588C415.008 45.2009 414.821 45.076 414.604 44.9839C414.393 44.8918 414.166 44.8458 413.923 44.8458H413.114C412.871 44.8458 412.641 44.8918 412.424 44.9839C412.213 45.076 412.029 45.2009 411.871 45.3588C411.713 45.5166 411.588 45.704 411.496 45.921C411.404 46.1315 411.358 46.3584 411.358 46.6017V48.1011H415.679V46.6017ZM424.853 54V46.6017C424.853 46.3584 424.807 46.1315 424.715 45.921C424.623 45.704 424.498 45.5166 424.34 45.3588C424.182 45.2009 423.995 45.076 423.778 44.9839C423.567 44.8918 423.34 44.8458 423.097 44.8458H422.288C422.045 44.8458 421.815 44.8918 421.598 44.9839C421.387 45.076 421.203 45.2009 421.045 45.3588C420.887 45.5166 420.762 45.704 420.67 45.921C420.578 46.1315 420.532 46.3584 420.532 46.6017V54H419.319V43.8988H419.723L420.384 44.9247C420.66 44.5499 421.006 44.2539 421.42 44.0369C421.841 43.8133 422.298 43.7015 422.791 43.7015H423.097C423.505 43.7015 423.889 43.7805 424.251 43.9383C424.613 44.0895 424.928 44.3 425.198 44.5696C425.468 44.8392 425.678 45.1549 425.829 45.5166C425.987 45.8783 426.066 46.263 426.066 46.6707V54H424.853Z" fill="black"/>
<path d="M195.828 357.116C207.823 356.488 223.185 368.265 229.288 374.157L164.893 372.894C168.891 367.423 180.663 357.91 195.828 357.116Z" fill="#E4E4E4" stroke="black" stroke-width="1.26265"/>
<path d="M284.214 299.035C286.739 297.015 296.63 249.371 301.26 225.802C300.418 233.167 298.735 248.277 298.735 249.792C298.735 251.686 293.684 279.464 291.159 288.934C289.138 296.51 285.687 298.825 284.214 299.035Z" fill="#AFAFAF"/>
<path d="M336.612 263.049C340.653 251.938 340.821 214.227 340.4 196.76C340.821 202.232 341.663 213.301 341.663 213.806C341.663 214.437 342.294 227.064 342.294 230.22C342.294 233.377 341.032 249.16 340.4 252.948C339.895 255.978 337.665 260.945 336.612 263.049Z" fill="#AFAFAF"/>
<circle cx="408.585" cy="85.6498" r="14.5204" fill="white" stroke="black" stroke-width="1.26265"/>
<path d="M416.839 79.3197C415.936 78.5168 414.77 78.0732 413.561 78.0732C412.353 78.0732 411.187 78.5168 410.284 79.3197L409.057 80.447L407.827 79.3197C406.924 78.5169 405.758 78.0734 404.55 78.0734C403.342 78.0734 402.176 78.5169 401.273 79.3197C400.793 79.7424 400.409 80.2626 400.145 80.8455C399.882 81.4283 399.746 82.0607 399.746 82.7003C399.746 83.3399 399.882 83.9722 400.145 84.5551C400.409 85.138 400.793 85.6582 401.273 86.0809L409.057 93.2251L416.839 86.0809C417.319 85.658 417.703 85.1378 417.966 84.5549C418.229 83.9721 418.366 83.3398 418.366 82.7003C418.366 82.0608 418.229 81.4285 417.966 80.8457C417.703 80.2628 417.319 79.7426 416.839 79.3197ZM415.689 84.9698L409.057 91.1572L402.426 84.9698C402.119 84.6802 401.877 84.328 401.717 83.937C401.557 83.5459 401.483 83.1252 401.499 82.703C401.462 82.3036 401.517 81.9011 401.659 81.526C401.801 81.1508 402.026 80.8129 402.318 80.5377C402.93 79.9869 403.727 79.6866 404.551 79.6966C405.399 79.7659 406.193 80.1424 406.784 80.7556L409.057 82.7328L411.33 80.7556C411.92 80.1426 412.714 79.7661 413.563 79.6966C414.386 79.6869 415.183 79.9871 415.796 80.5377C416.087 80.813 416.312 81.151 416.454 81.5261C416.595 81.9013 416.65 82.3037 416.613 82.703C416.63 83.125 416.556 83.5457 416.397 83.9367C416.237 84.3277 415.996 84.68 415.689 84.9698Z" fill="#E65047"/>
<circle cx="448.988" cy="85.6498" r="14.5204" fill="white" stroke="black" stroke-width="1.26265"/>
<path d="M451.71 85.6476L456.34 90.2777C456.484 90.4221 456.565 90.618 456.565 90.8223C456.565 91.0265 456.484 91.2224 456.34 91.3669L454.707 92.9995C454.563 93.1439 454.367 93.225 454.163 93.225C453.958 93.225 453.763 93.1439 453.618 92.9995L448.988 88.3695L444.358 92.9995C444.214 93.1439 444.018 93.2249 443.814 93.2249C443.61 93.2249 443.414 93.1439 443.269 92.9995L441.638 91.3646C441.493 91.2201 441.412 91.0242 441.412 90.82C441.412 90.6157 441.493 90.4198 441.638 90.2754L446.268 85.6453L441.638 81.0153C441.493 80.8708 441.412 80.6749 441.412 80.4707C441.412 80.2664 441.493 80.0705 441.638 79.9261L443.272 78.2987C443.416 78.1544 443.612 78.0733 443.816 78.0733C444.02 78.0733 444.216 78.1544 444.36 78.2987L448.99 82.9288L453.62 78.2987C453.765 78.1543 453.961 78.0732 454.165 78.0732C454.369 78.0732 454.565 78.1543 454.71 78.2987L456.337 79.9321C456.481 80.0766 456.562 80.2725 456.562 80.4767C456.562 80.681 456.481 80.8769 456.337 81.0213L451.707 85.6514L451.71 85.6476Z" fill="#E65047"/>
</svg>
