<svg width="123" height="104" viewBox="0 0 123 104" fill="none" xmlns="http://www.w3.org/2000/svg">
<path d="M111.945 10.3108C98.5373 -2.1036 76.8942 -2.1036 63.487 10.3108C62.7209 11.0202 62.0505 11.6409 61.4759 12.3503L61.3802 12.2616L61.2844 12.3503C60.8056 11.8183 60.231 11.2862 59.7521 10.7542C46.3449 -1.66023 24.7018 -1.66023 11.2946 10.7542C-2.11267 23.1686 -2.11267 43.209 11.2946 55.6234C11.8692 56.1554 12.4438 56.5988 13.0183 57.0421L12.9226 57.1308L61.3802 102L109.838 57.1308L109.742 57.0421C110.508 56.4214 111.274 55.8007 111.945 55.18C125.352 42.7656 125.352 22.7252 111.945 10.3108Z" fill="#FB1364" stroke="black" stroke-width="2" stroke-miterlimit="10"/>
<path d="M26 10.5C14.8333 14.8333 -2.70001 29.7 16.5 54.5C14.6667 49 14 32.5 26 10.5Z" fill="#FF83AE"/>
</svg>
