<svg width="213" height="58" viewBox="0 0 213 58" fill="none" xmlns="http://www.w3.org/2000/svg">
<path d="M29 0.5H184C199.74 0.5 212.5 13.2599 212.5 29C212.5 44.7401 199.74 57.5 184 57.5H29C13.2599 57.5 0.5 44.7401 0.5 29C0.5 13.2599 13.2599 0.5 29 0.5Z" fill="#F3D568" stroke="#333333"/>
<rect x="20.6392" y="8.5625" width="170.981" height="7.00742" rx="3.50371" fill="#FFF1C1"/>
<path d="M73.8639 32.4372H79.0239V39.5572C78.2639 39.8105 77.4839 39.9972 76.6839 40.1172C75.8972 40.2505 74.9972 40.3172 73.9839 40.3172C71.7972 40.3172 70.1172 39.6705 68.9439 38.3772C67.7839 37.0705 67.2039 35.2705 67.2039 32.9772C67.2039 31.4839 67.4906 30.1905 68.0639 29.0972C68.6506 27.9905 69.4972 27.1372 70.6039 26.5372C71.7106 25.9372 73.0506 25.6372 74.6239 25.6372C75.4106 25.6372 76.1639 25.7172 76.8839 25.8772C77.6039 26.0239 78.2706 26.2305 78.8839 26.4972L78.1039 28.2972C77.6106 28.0839 77.0572 27.8972 76.4439 27.7372C75.8439 27.5772 75.2106 27.4972 74.5439 27.4972C72.9572 27.4972 71.7106 27.9905 70.8039 28.9772C69.8972 29.9639 69.4439 31.3039 69.4439 32.9972C69.4439 34.0772 69.6106 35.0305 69.9439 35.8572C70.2772 36.6705 70.8039 37.3105 71.5239 37.7772C72.2439 38.2439 73.1839 38.4772 74.3439 38.4772C74.9172 38.4772 75.3972 38.4505 75.7839 38.3972C76.1839 38.3305 76.5506 38.2572 76.8839 38.1772V34.2972H73.8639V32.4372ZM86.4352 29.1372C87.8485 29.1372 88.9618 29.5772 89.7752 30.4572C90.5885 31.3239 90.9952 32.5105 90.9952 34.0172V35.1772H83.7552C83.7818 36.2839 84.0685 37.1305 84.6152 37.7172C85.1752 38.3039 85.9552 38.5972 86.9552 38.5972C87.6485 38.5972 88.2618 38.5372 88.7952 38.4172C89.3418 38.2839 89.9018 38.0905 90.4752 37.8372V39.5972C89.9285 39.8372 89.3818 40.0172 88.8352 40.1372C88.2885 40.2572 87.6352 40.3172 86.8752 40.3172C85.8218 40.3172 84.8952 40.1105 84.0952 39.6972C83.3085 39.2839 82.6885 38.6705 82.2352 37.8572C81.7952 37.0305 81.5752 36.0172 81.5752 34.8172C81.5752 33.6039 81.7752 32.5772 82.1752 31.7372C82.5885 30.8972 83.1552 30.2572 83.8752 29.8172C84.6085 29.3639 85.4618 29.1372 86.4352 29.1372ZM86.4352 30.7772C85.6752 30.7772 85.0618 31.0239 84.5952 31.5172C84.1418 32.0105 83.8752 32.7105 83.7952 33.6172H88.8752C88.8618 32.7772 88.6552 32.0972 88.2552 31.5772C87.8685 31.0439 87.2618 30.7772 86.4352 30.7772ZM97.5205 38.5972C97.8005 38.5972 98.0871 38.5772 98.3805 38.5372C98.6738 38.4839 98.9271 38.4172 99.1405 38.3372V39.9372C98.9005 40.0439 98.5871 40.1305 98.2005 40.1972C97.8271 40.2772 97.4471 40.3172 97.0605 40.3172C96.4738 40.3172 95.9338 40.2172 95.4405 40.0172C94.9471 39.8172 94.5538 39.4705 94.2605 38.9772C93.9805 38.4839 93.8405 37.7972 93.8405 36.9172V30.9572H92.3405V29.9972L93.9205 29.1972L94.6605 26.9172H95.9605V29.3372H99.0405V30.9572H95.9605V36.8772C95.9605 37.4639 96.1005 37.8972 96.3805 38.1772C96.6738 38.4572 97.0538 38.5972 97.5205 38.5972ZM108.612 24.9172V28.9772C108.612 29.3239 108.599 29.6639 108.572 29.9972C108.545 30.3172 108.519 30.5839 108.492 30.7972H108.632C108.979 30.2372 109.439 29.8239 110.012 29.5572C110.599 29.2905 111.232 29.1572 111.912 29.1572C113.179 29.1572 114.145 29.4705 114.812 30.0972C115.492 30.7239 115.832 31.7239 115.832 33.0972V40.1172H113.732V33.3972C113.732 31.7172 112.992 30.8772 111.512 30.8772C110.405 30.8772 109.645 31.2105 109.232 31.8772C108.819 32.5305 108.612 33.4705 108.612 34.6972V40.1172H106.492V24.9172H108.612ZM123.33 29.1372C124.743 29.1372 125.856 29.5772 126.67 30.4572C127.483 31.3239 127.89 32.5105 127.89 34.0172V35.1772H120.65C120.676 36.2839 120.963 37.1305 121.51 37.7172C122.07 38.3039 122.85 38.5972 123.85 38.5972C124.543 38.5972 125.156 38.5372 125.69 38.4172C126.236 38.2839 126.796 38.0905 127.37 37.8372V39.5972C126.823 39.8372 126.276 40.0172 125.73 40.1372C125.183 40.2572 124.53 40.3172 123.77 40.3172C122.716 40.3172 121.79 40.1105 120.99 39.6972C120.203 39.2839 119.583 38.6705 119.13 37.8572C118.69 37.0305 118.47 36.0172 118.47 34.8172C118.47 33.6039 118.67 32.5772 119.07 31.7372C119.483 30.8972 120.05 30.2572 120.77 29.8172C121.503 29.3639 122.356 29.1372 123.33 29.1372ZM123.33 30.7772C122.57 30.7772 121.956 31.0239 121.49 31.5172C121.036 32.0105 120.77 32.7105 120.69 33.6172H125.77C125.756 32.7772 125.55 32.0972 125.15 31.5772C124.763 31.0439 124.156 30.7772 123.33 30.7772ZM132.655 40.1172H130.535V24.9172H132.655V40.1172ZM141.364 29.1372C142.658 29.1372 143.698 29.6039 144.484 30.5372C145.284 31.4705 145.684 32.8639 145.684 34.7172C145.684 36.5439 145.284 37.9372 144.484 38.8972C143.684 39.8439 142.638 40.3172 141.344 40.3172C140.518 40.3172 139.844 40.1705 139.324 39.8772C138.818 39.5705 138.411 39.2105 138.104 38.7972H137.964C138.004 39.0372 138.038 39.3239 138.064 39.6572C138.091 39.9772 138.104 40.2639 138.104 40.5172V44.9172H135.984V29.3372H137.704L138.004 30.7772H138.104C138.411 30.3239 138.818 29.9372 139.324 29.6172C139.844 29.2972 140.524 29.1372 141.364 29.1372ZM140.864 30.8772C139.864 30.8772 139.158 31.1705 138.744 31.7572C138.331 32.3305 138.118 33.2039 138.104 34.3772V34.6972C138.104 35.9372 138.304 36.8972 138.704 37.5772C139.104 38.2439 139.838 38.5772 140.904 38.5772C141.784 38.5772 142.438 38.2172 142.864 37.4972C143.291 36.7772 143.504 35.8372 143.504 34.6772C143.504 33.5039 143.291 32.5772 142.864 31.8972C142.438 31.2172 141.771 30.8772 140.864 30.8772Z" fill="#141414"/>
</svg>
