<svg width="700" height="173" viewBox="0 0 700 173" fill="none" xmlns="http://www.w3.org/2000/svg">
<rect x="1.5" y="1.5" width="697" height="170" rx="48.5" fill="#D1F2FD" stroke="black" stroke-width="3"/>
<path d="M70.04 56H62.84V54.248L64.904 53.48V41.408L62.84 40.616V38.864H70.04V40.616L67.976 41.408V53.48L70.04 54.248V56ZM79.7868 42.752C81.2428 42.752 82.3788 43.128 83.1948 43.88C84.0268 44.632 84.4428 45.848 84.4428 47.528V56H81.4188V48.128C81.4188 46.176 80.6188 45.2 79.0188 45.2C77.8028 45.2 76.9708 45.584 76.5228 46.352C76.0748 47.12 75.8508 48.216 75.8508 49.64V56H72.8268V42.992H75.1548L75.5868 44.696H75.7548C76.1708 44.024 76.7388 43.536 77.4588 43.232C78.1948 42.912 78.9708 42.752 79.7868 42.752ZM105.284 56H93.5476V53.768L97.9156 49.352C98.7796 48.472 99.4836 47.72 100.028 47.096C100.588 46.472 100.996 45.888 101.252 45.344C101.524 44.784 101.66 44.184 101.66 43.544C101.66 42.76 101.436 42.176 100.988 41.792C100.54 41.392 99.9476 41.192 99.2116 41.192C98.4916 41.192 97.8196 41.344 97.1956 41.648C96.5716 41.936 95.9236 42.352 95.2516 42.896L93.5956 40.904C94.2996 40.296 95.0996 39.768 95.9956 39.32C96.8916 38.856 98.0196 38.624 99.3796 38.624C100.484 38.624 101.436 38.824 102.236 39.224C103.036 39.608 103.644 40.144 104.06 40.832C104.492 41.52 104.708 42.32 104.708 43.232C104.708 44.16 104.524 45.016 104.156 45.8C103.788 46.568 103.252 47.344 102.548 48.128C101.86 48.896 101.036 49.728 100.076 50.624L97.3636 53.24V53.384H105.284V56ZM118.97 47.432C118.97 49.272 118.778 50.848 118.394 52.16C118.01 53.472 117.386 54.48 116.522 55.184C115.658 55.888 114.514 56.24 113.09 56.24C111.074 56.24 109.594 55.464 108.65 53.912C107.706 52.344 107.234 50.184 107.234 47.432C107.234 45.576 107.426 43.992 107.81 42.68C108.194 41.368 108.81 40.36 109.658 39.656C110.522 38.952 111.666 38.6 113.09 38.6C115.09 38.6 116.57 39.376 117.53 40.928C118.49 42.48 118.97 44.648 118.97 47.432ZM110.282 47.432C110.282 49.528 110.482 51.104 110.882 52.16C111.298 53.216 112.034 53.744 113.09 53.744C114.13 53.744 114.858 53.224 115.274 52.184C115.706 51.128 115.922 49.544 115.922 47.432C115.922 45.32 115.706 43.736 115.274 42.68C114.858 41.624 114.13 41.096 113.09 41.096C112.034 41.096 111.298 41.624 110.882 42.68C110.482 43.736 110.282 45.32 110.282 47.432ZM129.368 56H126.344V45.32C126.344 44.808 126.352 44.264 126.368 43.688C126.384 43.112 126.408 42.576 126.44 42.08C126.28 42.24 126.08 42.432 125.84 42.656C125.6 42.864 125.352 43.08 125.096 43.304L123.176 44.84L121.664 42.968L126.848 38.864H129.368V56ZM140.703 45.224C141.791 45.224 142.751 45.424 143.583 45.824C144.415 46.208 145.063 46.784 145.527 47.552C146.007 48.32 146.247 49.256 146.247 50.36C146.247 52.184 145.671 53.624 144.519 54.68C143.383 55.72 141.735 56.24 139.575 56.24C138.679 56.24 137.839 56.16 137.055 56C136.271 55.84 135.591 55.608 135.015 55.304V52.616C135.607 52.936 136.319 53.2 137.151 53.408C137.983 53.616 138.767 53.72 139.503 53.72C140.639 53.72 141.527 53.472 142.167 52.976C142.823 52.48 143.151 51.704 143.151 50.648C143.151 49.704 142.847 48.984 142.239 48.488C141.631 47.976 140.687 47.72 139.407 47.72C138.959 47.72 138.471 47.76 137.943 47.84C137.431 47.92 137.007 48 136.671 48.08L135.375 47.36L136.023 38.864H145.047V41.504H138.687L138.327 45.464C138.599 45.416 138.919 45.368 139.287 45.32C139.655 45.256 140.127 45.224 140.703 45.224ZM152.373 53.216L152.541 53.48C152.317 54.328 152.013 55.256 151.629 56.264C151.245 57.288 150.861 58.232 150.477 59.096H148.293C148.517 58.168 148.741 57.16 148.965 56.072C149.189 55 149.357 54.048 149.469 53.216H152.373ZM169.295 42.752C170.751 42.752 171.887 43.128 172.703 43.88C173.535 44.632 173.951 45.848 173.951 47.528V56H170.927V48.128C170.927 46.176 170.127 45.2 168.527 45.2C167.311 45.2 166.479 45.584 166.031 46.352C165.583 47.12 165.359 48.216 165.359 49.64V56H162.335V42.992H164.663L165.095 44.696H165.263C165.679 44.024 166.247 43.536 166.967 43.232C167.703 42.912 168.479 42.752 169.295 42.752ZM189.349 49.472C189.349 51.632 188.789 53.304 187.669 54.488C186.549 55.656 185.029 56.24 183.109 56.24C181.925 56.24 180.869 55.976 179.941 55.448C179.013 54.92 178.285 54.152 177.757 53.144C177.229 52.136 176.965 50.912 176.965 49.472C176.965 47.312 177.517 45.656 178.621 44.504C179.741 43.336 181.261 42.752 183.181 42.752C184.381 42.752 185.445 43.016 186.373 43.544C187.301 44.056 188.029 44.816 188.557 45.824C189.085 46.816 189.349 48.032 189.349 49.472ZM180.061 49.472C180.061 50.848 180.301 51.912 180.781 52.664C181.277 53.416 182.069 53.792 183.157 53.792C184.245 53.792 185.029 53.416 185.509 52.664C186.005 51.912 186.253 50.848 186.253 49.472C186.253 48.096 186.005 47.04 185.509 46.304C185.029 45.568 184.237 45.2 183.133 45.2C182.061 45.2 181.277 45.568 180.781 46.304C180.301 47.04 180.061 48.096 180.061 49.472ZM197.515 53.816C197.883 53.816 198.243 53.784 198.595 53.72C198.963 53.64 199.299 53.552 199.603 53.456V55.712C199.283 55.856 198.867 55.976 198.355 56.072C197.843 56.184 197.307 56.24 196.747 56.24C196.011 56.24 195.339 56.12 194.731 55.88C194.123 55.624 193.643 55.192 193.291 54.584C192.939 53.976 192.763 53.128 192.763 52.04V45.272H191.011V43.952L192.931 42.896L193.891 40.136H195.787V42.992H199.483V45.272H195.787V52.016C195.787 52.624 195.947 53.08 196.267 53.384C196.587 53.672 197.003 53.816 197.515 53.816ZM213.841 49.472C213.841 51.632 213.281 53.304 212.161 54.488C211.041 55.656 209.521 56.24 207.601 56.24C206.417 56.24 205.361 55.976 204.433 55.448C203.505 54.92 202.777 54.152 202.249 53.144C201.721 52.136 201.457 50.912 201.457 49.472C201.457 47.312 202.009 45.656 203.113 44.504C204.233 43.336 205.753 42.752 207.673 42.752C208.873 42.752 209.937 43.016 210.865 43.544C211.793 44.056 212.521 44.816 213.049 45.824C213.577 46.816 213.841 48.032 213.841 49.472ZM204.553 49.472C204.553 50.848 204.793 51.912 205.273 52.664C205.769 53.416 206.561 53.792 207.649 53.792C208.737 53.792 209.521 53.416 210.001 52.664C210.497 51.912 210.745 50.848 210.745 49.472C210.745 48.096 210.497 47.04 210.001 46.304C209.521 45.568 208.729 45.2 207.625 45.2C206.553 45.2 205.769 45.568 205.273 46.304C204.793 47.04 204.553 48.096 204.553 49.472ZM223.783 42.752C223.991 42.752 224.215 42.76 224.455 42.776C224.711 42.792 224.927 42.824 225.103 42.872L224.839 45.68C224.679 45.648 224.487 45.624 224.263 45.608C224.039 45.576 223.839 45.56 223.663 45.56C223.023 45.56 222.423 45.696 221.863 45.968C221.303 46.224 220.847 46.632 220.495 47.192C220.159 47.736 219.991 48.424 219.991 49.256V56H216.967V42.992H219.295L219.727 45.248H219.871C220.255 44.56 220.783 43.976 221.455 43.496C222.127 43 222.903 42.752 223.783 42.752ZM229.026 37.976C229.49 37.976 229.882 38.096 230.202 38.336C230.538 38.56 230.706 38.968 230.706 39.56C230.706 40.152 230.538 40.568 230.202 40.808C229.882 41.048 229.49 41.168 229.026 41.168C228.562 41.168 228.162 41.048 227.826 40.808C227.506 40.568 227.346 40.152 227.346 39.56C227.346 38.968 227.506 38.56 227.826 38.336C228.162 38.096 228.562 37.976 229.026 37.976ZM230.538 42.992V56H227.514V42.992H230.538ZM246.021 49.472C246.021 51.632 245.461 53.304 244.341 54.488C243.221 55.656 241.701 56.24 239.781 56.24C238.597 56.24 237.541 55.976 236.613 55.448C235.685 54.92 234.957 54.152 234.429 53.144C233.901 52.136 233.637 50.912 233.637 49.472C233.637 47.312 234.189 45.656 235.293 44.504C236.413 43.336 237.933 42.752 239.853 42.752C241.053 42.752 242.117 43.016 243.045 43.544C243.973 44.056 244.701 44.816 245.229 45.824C245.757 46.816 246.021 48.032 246.021 49.472ZM236.733 49.472C236.733 50.848 236.973 51.912 237.453 52.664C237.949 53.416 238.741 53.792 239.829 53.792C240.917 53.792 241.701 53.416 242.181 52.664C242.677 51.912 242.925 50.848 242.925 49.472C242.925 48.096 242.677 47.04 242.181 46.304C241.701 45.568 240.909 45.2 239.805 45.2C238.733 45.2 237.949 45.568 237.453 46.304C236.973 47.04 236.733 48.096 236.733 49.472ZM260.691 42.992V56H258.315L257.907 54.32H257.763C257.331 54.992 256.747 55.48 256.011 55.784C255.291 56.088 254.523 56.24 253.707 56.24C252.251 56.24 251.107 55.864 250.275 55.112C249.459 54.36 249.051 53.152 249.051 51.488V42.992H252.075V50.888C252.075 52.824 252.875 53.792 254.475 53.792C255.691 53.792 256.523 53.416 256.971 52.664C257.435 51.896 257.667 50.792 257.667 49.352V42.992H260.691ZM273.402 52.232C273.402 53.544 272.93 54.544 271.986 55.232C271.058 55.904 269.722 56.24 267.978 56.24C267.066 56.24 266.282 56.176 265.626 56.048C264.986 55.92 264.362 55.72 263.754 55.448V52.88C264.394 53.184 265.098 53.44 265.866 53.648C266.65 53.856 267.386 53.96 268.074 53.96C268.906 53.96 269.506 53.832 269.874 53.576C270.242 53.32 270.426 52.976 270.426 52.544C270.426 52.288 270.354 52.064 270.21 51.872C270.066 51.664 269.778 51.44 269.346 51.2C268.93 50.96 268.306 50.664 267.474 50.312C266.642 49.992 265.946 49.664 265.386 49.328C264.842 48.976 264.426 48.568 264.138 48.104C263.866 47.64 263.73 47.04 263.73 46.304C263.73 45.136 264.186 44.256 265.098 43.664C266.026 43.056 267.258 42.752 268.794 42.752C269.594 42.752 270.346 42.832 271.05 42.992C271.77 43.152 272.49 43.392 273.21 43.712L272.25 45.944C271.642 45.688 271.05 45.472 270.474 45.296C269.898 45.12 269.306 45.032 268.698 45.032C267.37 45.032 266.706 45.408 266.706 46.16C266.706 46.432 266.786 46.664 266.946 46.856C267.122 47.048 267.418 47.256 267.834 47.48C268.266 47.688 268.874 47.944 269.658 48.248C270.426 48.552 271.09 48.872 271.65 49.208C272.21 49.528 272.642 49.928 272.946 50.408C273.25 50.888 273.402 51.496 273.402 52.232ZM286.842 56.24C285.322 56.24 284.098 55.672 283.17 54.536C282.242 53.4 281.778 51.728 281.778 49.52C281.778 47.28 282.25 45.592 283.194 44.456C284.138 43.32 285.378 42.752 286.914 42.752C287.874 42.752 288.658 42.936 289.266 43.304C289.89 43.672 290.386 44.12 290.754 44.648H290.898C290.85 44.424 290.802 44.08 290.754 43.616C290.706 43.152 290.682 42.72 290.682 42.32V37.76H293.706V56H291.354L290.802 54.296H290.682C290.314 54.84 289.826 55.304 289.218 55.688C288.61 56.056 287.818 56.24 286.842 56.24ZM287.754 53.792C288.874 53.792 289.658 53.472 290.106 52.832C290.57 52.192 290.81 51.224 290.826 49.928V49.544C290.826 48.152 290.602 47.088 290.154 46.352C289.722 45.6 288.906 45.224 287.706 45.224C286.778 45.224 286.066 45.608 285.57 46.376C285.09 47.128 284.85 48.192 284.85 49.568C284.85 50.944 285.098 51.992 285.594 52.712C286.09 53.432 286.81 53.792 287.754 53.792ZM302.753 42.752C304.433 42.752 305.705 43.12 306.569 43.856C307.449 44.592 307.889 45.728 307.889 47.264V56H305.753L305.153 54.2H305.057C304.497 54.904 303.905 55.424 303.281 55.76C302.657 56.08 301.809 56.24 300.737 56.24C299.569 56.24 298.601 55.912 297.833 55.256C297.065 54.6 296.681 53.584 296.681 52.208C296.681 50.864 297.169 49.856 298.145 49.184C299.137 48.512 300.633 48.136 302.633 48.056L304.889 47.984V47.336C304.889 46.52 304.689 45.936 304.289 45.584C303.889 45.216 303.329 45.032 302.609 45.032C301.953 45.032 301.321 45.128 300.713 45.32C300.121 45.512 299.529 45.736 298.937 45.992L297.977 43.88C298.617 43.544 299.345 43.272 300.161 43.064C300.993 42.856 301.857 42.752 302.753 42.752ZM304.889 49.856L303.305 49.904C301.977 49.952 301.057 50.184 300.545 50.6C300.033 51 299.777 51.544 299.777 52.232C299.777 52.856 299.953 53.304 300.305 53.576C300.673 53.832 301.153 53.96 301.745 53.96C302.625 53.96 303.369 53.712 303.977 53.216C304.585 52.704 304.889 51.952 304.889 50.96V49.856ZM316.718 53.816C317.086 53.816 317.446 53.784 317.798 53.72C318.166 53.64 318.502 53.552 318.806 53.456V55.712C318.486 55.856 318.07 55.976 317.558 56.072C317.046 56.184 316.51 56.24 315.95 56.24C315.214 56.24 314.542 56.12 313.934 55.88C313.326 55.624 312.846 55.192 312.494 54.584C312.142 53.976 311.966 53.128 311.966 52.04V45.272H310.214V43.952L312.134 42.896L313.094 40.136H314.99V42.992H318.686V45.272H314.99V52.016C314.99 52.624 315.15 53.08 315.47 53.384C315.79 53.672 316.206 53.816 316.718 53.816ZM322.94 37.976C323.404 37.976 323.796 38.096 324.116 38.336C324.452 38.56 324.62 38.968 324.62 39.56C324.62 40.152 324.452 40.568 324.116 40.808C323.796 41.048 323.404 41.168 322.94 41.168C322.476 41.168 322.076 41.048 321.74 40.808C321.42 40.568 321.26 40.152 321.26 39.56C321.26 38.968 321.42 38.56 321.74 38.336C322.076 38.096 322.476 37.976 322.94 37.976ZM324.452 42.992V56H321.428V42.992H324.452ZM335.279 42.752C336.735 42.752 337.871 43.128 338.687 43.88C339.519 44.632 339.935 45.848 339.935 47.528V56H336.911V48.128C336.911 46.176 336.111 45.2 334.511 45.2C333.295 45.2 332.463 45.584 332.015 46.352C331.567 47.12 331.343 48.216 331.343 49.64V56H328.319V42.992H330.647L331.079 44.696H331.247C331.663 44.024 332.231 43.536 332.951 43.232C333.687 42.912 334.463 42.752 335.279 42.752ZM348.085 42.752C349.733 42.752 351.021 43.392 351.949 44.672H352.069L352.357 42.992H354.877V56.096C354.877 57.952 354.349 59.36 353.293 60.32C352.253 61.28 350.693 61.76 348.613 61.76C347.685 61.76 346.829 61.696 346.045 61.568C345.261 61.456 344.517 61.256 343.813 60.968V58.472C345.301 59.144 346.965 59.48 348.805 59.48C349.797 59.48 350.549 59.2 351.061 58.64C351.589 58.096 351.853 57.296 351.853 56.24V55.904C351.853 55.664 351.861 55.384 351.877 55.064C351.893 54.744 351.917 54.488 351.949 54.296H351.853C351.405 54.968 350.853 55.464 350.197 55.784C349.557 56.088 348.829 56.24 348.013 56.24C346.429 56.24 345.189 55.648 344.293 54.464C343.397 53.28 342.949 51.632 342.949 49.52C342.949 47.408 343.397 45.752 344.293 44.552C345.205 43.352 346.469 42.752 348.085 42.752ZM348.877 45.224C346.989 45.224 346.045 46.672 346.045 49.568C346.045 52.416 347.005 53.84 348.925 53.84C349.981 53.84 350.757 53.552 351.253 52.976C351.765 52.384 352.021 51.392 352.021 50V49.544C352.021 48.008 351.765 46.904 351.253 46.232C350.757 45.56 349.965 45.224 348.877 45.224ZM373.831 52.232C373.831 53.544 373.359 54.544 372.415 55.232C371.487 55.904 370.151 56.24 368.407 56.24C367.495 56.24 366.711 56.176 366.055 56.048C365.415 55.92 364.791 55.72 364.183 55.448V52.88C364.823 53.184 365.527 53.44 366.295 53.648C367.079 53.856 367.815 53.96 368.503 53.96C369.335 53.96 369.935 53.832 370.303 53.576C370.671 53.32 370.855 52.976 370.855 52.544C370.855 52.288 370.783 52.064 370.639 51.872C370.495 51.664 370.207 51.44 369.775 51.2C369.359 50.96 368.735 50.664 367.903 50.312C367.071 49.992 366.375 49.664 365.815 49.328C365.271 48.976 364.855 48.568 364.567 48.104C364.295 47.64 364.159 47.04 364.159 46.304C364.159 45.136 364.615 44.256 365.527 43.664C366.455 43.056 367.687 42.752 369.223 42.752C370.023 42.752 370.775 42.832 371.479 42.992C372.199 43.152 372.919 43.392 373.639 43.712L372.679 45.944C372.071 45.688 371.479 45.472 370.903 45.296C370.327 45.12 369.735 45.032 369.127 45.032C367.799 45.032 367.135 45.408 367.135 46.16C367.135 46.432 367.215 46.664 367.375 46.856C367.551 47.048 367.847 47.256 368.263 47.48C368.695 47.688 369.303 47.944 370.087 48.248C370.855 48.552 371.519 48.872 372.079 49.208C372.639 49.528 373.071 49.928 373.375 50.408C373.679 50.888 373.831 51.496 373.831 52.232ZM378.253 37.976C378.717 37.976 379.109 38.096 379.429 38.336C379.765 38.56 379.933 38.968 379.933 39.56C379.933 40.152 379.765 40.568 379.429 40.808C379.109 41.048 378.717 41.168 378.253 41.168C377.789 41.168 377.389 41.048 377.053 40.808C376.733 40.568 376.573 40.152 376.573 39.56C376.573 38.968 376.733 38.56 377.053 38.336C377.389 38.096 377.789 37.976 378.253 37.976ZM379.765 42.992V56H376.741V42.992H379.765ZM388.672 53.816C389.04 53.816 389.4 53.784 389.752 53.72C390.12 53.64 390.456 53.552 390.76 53.456V55.712C390.44 55.856 390.024 55.976 389.512 56.072C389 56.184 388.464 56.24 387.904 56.24C387.168 56.24 386.496 56.12 385.888 55.88C385.28 55.624 384.8 55.192 384.448 54.584C384.096 53.976 383.92 53.128 383.92 52.04V45.272H382.168V43.952L384.088 42.896L385.048 40.136H386.944V42.992H390.64V45.272H386.944V52.016C386.944 52.624 387.104 53.08 387.424 53.384C387.744 53.672 388.16 53.816 388.672 53.816ZM398.614 42.752C400.358 42.752 401.734 43.272 402.742 44.312C403.766 45.352 404.278 46.8 404.278 48.656V50.192H395.686C395.718 51.376 396.046 52.296 396.67 52.952C397.294 53.592 398.158 53.912 399.262 53.912C400.094 53.912 400.846 53.832 401.518 53.672C402.19 53.496 402.878 53.248 403.582 52.928V55.352C402.942 55.656 402.278 55.88 401.59 56.024C400.902 56.168 400.078 56.24 399.118 56.24C397.854 56.24 396.726 56 395.734 55.52C394.758 55.024 393.99 54.28 393.43 53.288C392.886 52.296 392.614 51.064 392.614 49.592C392.614 47.368 393.166 45.672 394.27 44.504C395.374 43.336 396.822 42.752 398.614 42.752ZM398.614 44.984C397.798 44.984 397.134 45.248 396.622 45.776C396.126 46.288 395.838 47.056 395.758 48.08H401.35C401.334 47.184 401.102 46.448 400.654 45.872C400.222 45.28 399.542 44.984 398.614 44.984ZM424.433 56L422.873 51.464H416.417L414.881 56H411.617L417.905 38.792H421.409L427.697 56H424.433ZM422.081 48.824L420.593 44.408C420.529 44.184 420.433 43.88 420.305 43.496C420.177 43.112 420.049 42.72 419.921 42.32C419.809 41.904 419.721 41.56 419.657 41.288C419.577 41.608 419.473 41.976 419.345 42.392C419.233 42.808 419.121 43.2 419.009 43.568C418.897 43.936 418.817 44.216 418.769 44.408L417.257 48.824H422.081ZM438.519 52.232C438.519 53.544 438.047 54.544 437.103 55.232C436.175 55.904 434.839 56.24 433.095 56.24C432.183 56.24 431.399 56.176 430.743 56.048C430.103 55.92 429.479 55.72 428.871 55.448V52.88C429.511 53.184 430.215 53.44 430.983 53.648C431.767 53.856 432.503 53.96 433.191 53.96C434.023 53.96 434.623 53.832 434.991 53.576C435.359 53.32 435.543 52.976 435.543 52.544C435.543 52.288 435.471 52.064 435.327 51.872C435.183 51.664 434.895 51.44 434.463 51.2C434.047 50.96 433.423 50.664 432.591 50.312C431.759 49.992 431.063 49.664 430.503 49.328C429.959 48.976 429.543 48.568 429.255 48.104C428.983 47.64 428.847 47.04 428.847 46.304C428.847 45.136 429.303 44.256 430.215 43.664C431.143 43.056 432.375 42.752 433.911 42.752C434.711 42.752 435.463 42.832 436.167 42.992C436.887 43.152 437.607 43.392 438.327 43.712L437.367 45.944C436.759 45.688 436.167 45.472 435.591 45.296C435.015 45.12 434.423 45.032 433.815 45.032C432.487 45.032 431.823 45.408 431.823 46.16C431.823 46.432 431.903 46.664 432.063 46.856C432.239 47.048 432.535 47.256 432.951 47.48C433.383 47.688 433.991 47.944 434.775 48.248C435.543 48.552 436.207 48.872 436.767 49.208C437.327 49.528 437.759 49.928 438.063 50.408C438.367 50.888 438.519 51.496 438.519 52.232ZM444.452 37.76V42.104C444.452 42.616 444.428 43.12 444.38 43.616C444.348 44.096 444.316 44.456 444.284 44.696H444.476C444.892 44.04 445.436 43.552 446.108 43.232C446.78 42.912 447.524 42.752 448.34 42.752C449.812 42.752 450.964 43.128 451.796 43.88C452.628 44.632 453.044 45.848 453.044 47.528V56H450.02V48.128C450.02 46.176 449.22 45.2 447.62 45.2C446.404 45.2 445.572 45.584 445.124 46.352C444.676 47.12 444.452 48.216 444.452 49.64V56H441.428V37.76H444.452ZM459.851 56H456.827V37.76H459.851V56ZM468.949 42.752C470.693 42.752 472.069 43.272 473.077 44.312C474.101 45.352 474.613 46.8 474.613 48.656V50.192H466.021C466.053 51.376 466.381 52.296 467.005 52.952C467.629 53.592 468.493 53.912 469.597 53.912C470.429 53.912 471.181 53.832 471.853 53.672C472.525 53.496 473.213 53.248 473.917 52.928V55.352C473.277 55.656 472.613 55.88 471.925 56.024C471.237 56.168 470.413 56.24 469.453 56.24C468.189 56.24 467.061 56 466.069 55.52C465.093 55.024 464.325 54.28 463.765 53.288C463.221 52.296 462.949 51.064 462.949 49.592C462.949 47.368 463.501 45.672 464.605 44.504C465.709 43.336 467.157 42.752 468.949 42.752ZM468.949 44.984C468.133 44.984 467.469 45.248 466.957 45.776C466.461 46.288 466.173 47.056 466.093 48.08H471.685C471.669 47.184 471.437 46.448 470.989 45.872C470.557 45.28 469.877 44.984 468.949 44.984ZM475.25 42.992H478.538L481.13 50.336C481.306 50.8 481.45 51.256 481.562 51.704C481.674 52.152 481.754 52.608 481.802 53.072H481.898C481.962 52.672 482.058 52.232 482.186 51.752C482.314 51.272 482.458 50.8 482.618 50.336L485.114 42.992H488.378L482.834 57.728C482.338 59.024 481.658 60.016 480.794 60.704C479.946 61.408 478.898 61.76 477.65 61.76C477.25 61.76 476.906 61.736 476.618 61.688C476.33 61.656 476.074 61.616 475.85 61.568V59.168C476.026 59.2 476.234 59.232 476.474 59.264C476.73 59.296 476.994 59.312 477.266 59.312C478.018 59.312 478.61 59.088 479.042 58.64C479.49 58.208 479.834 57.664 480.074 57.008L480.458 55.952L475.25 42.992ZM504.209 56L499.505 41.96H499.409C499.425 42.28 499.449 42.736 499.481 43.328C499.513 43.904 499.537 44.536 499.553 45.224C499.585 45.896 499.601 46.528 499.601 47.12V56H496.841V38.864H501.113L505.625 52.328H505.721L510.425 38.864H514.697V56H511.769V46.976C511.769 46.432 511.777 45.84 511.793 45.2C511.825 44.544 511.849 43.928 511.865 43.352C511.897 42.776 511.921 42.32 511.937 41.984H511.841L506.945 56H504.209ZM524.026 42.752C525.706 42.752 526.978 43.12 527.842 43.856C528.722 44.592 529.162 45.728 529.162 47.264V56H527.026L526.426 54.2H526.33C525.77 54.904 525.178 55.424 524.554 55.76C523.93 56.08 523.082 56.24 522.01 56.24C520.842 56.24 519.874 55.912 519.106 55.256C518.338 54.6 517.954 53.584 517.954 52.208C517.954 50.864 518.442 49.856 519.418 49.184C520.41 48.512 521.906 48.136 523.906 48.056L526.162 47.984V47.336C526.162 46.52 525.962 45.936 525.562 45.584C525.162 45.216 524.602 45.032 523.882 45.032C523.226 45.032 522.594 45.128 521.986 45.32C521.394 45.512 520.802 45.736 520.21 45.992L519.25 43.88C519.89 43.544 520.618 43.272 521.434 43.064C522.266 42.856 523.13 42.752 524.026 42.752ZM526.162 49.856L524.578 49.904C523.25 49.952 522.33 50.184 521.818 50.6C521.306 51 521.05 51.544 521.05 52.232C521.05 52.856 521.226 53.304 521.578 53.576C521.946 53.832 522.426 53.96 523.018 53.96C523.898 53.96 524.642 53.712 525.25 53.216C525.858 52.704 526.162 51.952 526.162 50.96V49.856ZM537.248 56.24C535.728 56.24 534.504 55.672 533.576 54.536C532.648 53.4 532.184 51.728 532.184 49.52C532.184 47.28 532.656 45.592 533.6 44.456C534.544 43.32 535.784 42.752 537.32 42.752C538.28 42.752 539.064 42.936 539.672 43.304C540.296 43.672 540.792 44.12 541.16 44.648H541.304C541.256 44.424 541.208 44.08 541.16 43.616C541.112 43.152 541.088 42.72 541.088 42.32V37.76H544.112V56H541.76L541.208 54.296H541.088C540.72 54.84 540.232 55.304 539.624 55.688C539.016 56.056 538.224 56.24 537.248 56.24ZM538.16 53.792C539.28 53.792 540.064 53.472 540.512 52.832C540.976 52.192 541.216 51.224 541.232 49.928V49.544C541.232 48.152 541.008 47.088 540.56 46.352C540.128 45.6 539.312 45.224 538.112 45.224C537.184 45.224 536.472 45.608 535.976 46.376C535.496 47.128 535.256 48.192 535.256 49.568C535.256 50.944 535.504 51.992 536 52.712C536.496 53.432 537.216 53.792 538.16 53.792ZM549.487 37.976C549.951 37.976 550.343 38.096 550.663 38.336C550.999 38.56 551.167 38.968 551.167 39.56C551.167 40.152 550.999 40.568 550.663 40.808C550.343 41.048 549.951 41.168 549.487 41.168C549.023 41.168 548.623 41.048 548.287 40.808C547.967 40.568 547.807 40.152 547.807 39.56C547.807 38.968 547.967 38.56 548.287 38.336C548.623 38.096 549.023 37.976 549.487 37.976ZM550.999 42.992V56H547.975V42.992H550.999ZM563.722 52.232C563.722 53.544 563.25 54.544 562.306 55.232C561.378 55.904 560.042 56.24 558.298 56.24C557.386 56.24 556.602 56.176 555.946 56.048C555.306 55.92 554.682 55.72 554.074 55.448V52.88C554.714 53.184 555.418 53.44 556.186 53.648C556.97 53.856 557.706 53.96 558.394 53.96C559.226 53.96 559.826 53.832 560.194 53.576C560.562 53.32 560.746 52.976 560.746 52.544C560.746 52.288 560.674 52.064 560.53 51.872C560.386 51.664 560.098 51.44 559.666 51.2C559.25 50.96 558.626 50.664 557.794 50.312C556.962 49.992 556.266 49.664 555.706 49.328C555.162 48.976 554.746 48.568 554.458 48.104C554.186 47.64 554.05 47.04 554.05 46.304C554.05 45.136 554.506 44.256 555.418 43.664C556.346 43.056 557.578 42.752 559.114 42.752C559.914 42.752 560.666 42.832 561.37 42.992C562.09 43.152 562.81 43.392 563.53 43.712L562.57 45.944C561.962 45.688 561.37 45.472 560.794 45.296C560.218 45.12 559.626 45.032 559.018 45.032C557.69 45.032 557.026 45.408 557.026 46.16C557.026 46.432 557.106 46.664 557.266 46.856C557.442 47.048 557.738 47.256 558.154 47.48C558.586 47.688 559.194 47.944 559.978 48.248C560.746 48.552 561.41 48.872 561.97 49.208C562.53 49.528 562.962 49.928 563.266 50.408C563.57 50.888 563.722 51.496 563.722 52.232ZM578.247 49.472C578.247 51.632 577.688 53.304 576.568 54.488C575.448 55.656 573.928 56.24 572.008 56.24C570.824 56.24 569.768 55.976 568.84 55.448C567.912 54.92 567.184 54.152 566.656 53.144C566.128 52.136 565.864 50.912 565.864 49.472C565.864 47.312 566.416 45.656 567.52 44.504C568.64 43.336 570.16 42.752 572.08 42.752C573.28 42.752 574.344 43.016 575.272 43.544C576.2 44.056 576.928 44.816 577.456 45.824C577.984 46.816 578.247 48.032 578.247 49.472ZM568.96 49.472C568.96 50.848 569.2 51.912 569.68 52.664C570.176 53.416 570.968 53.792 572.056 53.792C573.144 53.792 573.928 53.416 574.408 52.664C574.904 51.912 575.152 50.848 575.152 49.472C575.152 48.096 574.904 47.04 574.408 46.304C573.928 45.568 573.136 45.2 572.032 45.2C570.96 45.2 570.176 45.568 569.68 46.304C569.2 47.04 568.96 48.096 568.96 49.472ZM588.334 42.752C589.79 42.752 590.926 43.128 591.742 43.88C592.574 44.632 592.99 45.848 592.99 47.528V56H589.966V48.128C589.966 46.176 589.166 45.2 587.566 45.2C586.35 45.2 585.518 45.584 585.07 46.352C584.622 47.12 584.398 48.216 584.398 49.64V56H581.374V42.992H583.702L584.134 44.696H584.302C584.718 44.024 585.286 43.536 586.006 43.232C586.742 42.912 587.518 42.752 588.334 42.752ZM74.6 96L73.16 90.408C73.08 90.104 72.984 89.728 72.872 89.28C72.76 88.816 72.64 88.336 72.512 87.84C72.4 87.344 72.296 86.888 72.2 86.472C72.104 86.056 72.032 85.736 71.984 85.512H71.888C71.84 85.736 71.768 86.056 71.672 86.472C71.576 86.888 71.472 87.352 71.36 87.864C71.248 88.36 71.128 88.84 71 89.304C70.888 89.752 70.792 90.128 70.712 90.432L69.2 96H65.888L62.24 82.968H65.288L66.896 89.184C67.008 89.616 67.112 90.096 67.208 90.624C67.32 91.136 67.408 91.64 67.472 92.136C67.552 92.616 67.616 93.008 67.664 93.312H67.76C67.792 93.024 67.848 92.632 67.928 92.136C68.024 91.64 68.12 91.16 68.216 90.696C68.312 90.216 68.392 89.856 68.456 89.616L70.328 82.968H73.64L75.44 89.616C75.504 89.904 75.584 90.28 75.68 90.744C75.792 91.208 75.888 91.68 75.968 92.16C76.048 92.624 76.096 93 76.112 93.288H76.208C76.24 93.032 76.296 92.664 76.376 92.184C76.456 91.704 76.552 91.192 76.664 90.648C76.776 90.104 76.896 89.616 77.024 89.184L78.656 82.968H81.656L77.96 96H74.6ZM89.0499 82.752C90.7299 82.752 92.0019 83.12 92.8659 83.856C93.7459 84.592 94.1859 85.728 94.1859 87.264V96H92.0499L91.4499 94.2H91.3539C90.7939 94.904 90.2019 95.424 89.5779 95.76C88.9539 96.08 88.1059 96.24 87.0339 96.24C85.8659 96.24 84.8979 95.912 84.1299 95.256C83.3619 94.6 82.9779 93.584 82.9779 92.208C82.9779 90.864 83.4659 89.856 84.4419 89.184C85.4339 88.512 86.9299 88.136 88.9299 88.056L91.1859 87.984V87.336C91.1859 86.52 90.9859 85.936 90.5859 85.584C90.1859 85.216 89.6259 85.032 88.9059 85.032C88.2499 85.032 87.6179 85.128 87.0099 85.32C86.4179 85.512 85.8259 85.736 85.2339 85.992L84.2739 83.88C84.9139 83.544 85.6419 83.272 86.4579 83.064C87.2899 82.856 88.1539 82.752 89.0499 82.752ZM91.1859 89.856L89.6019 89.904C88.2739 89.952 87.3539 90.184 86.8419 90.6C86.3299 91 86.0739 91.544 86.0739 92.232C86.0739 92.856 86.2499 93.304 86.6019 93.576C86.9699 93.832 87.4499 93.96 88.0419 93.96C88.9219 93.96 89.6659 93.712 90.2739 93.216C90.8819 92.704 91.1859 91.952 91.1859 90.96V89.856ZM106.831 92.232C106.831 93.544 106.359 94.544 105.415 95.232C104.487 95.904 103.151 96.24 101.407 96.24C100.495 96.24 99.7113 96.176 99.0553 96.048C98.4153 95.92 97.7913 95.72 97.1833 95.448V92.88C97.8233 93.184 98.5273 93.44 99.2953 93.648C100.079 93.856 100.815 93.96 101.503 93.96C102.335 93.96 102.935 93.832 103.303 93.576C103.671 93.32 103.855 92.976 103.855 92.544C103.855 92.288 103.783 92.064 103.639 91.872C103.495 91.664 103.207 91.44 102.775 91.2C102.359 90.96 101.735 90.664 100.903 90.312C100.071 89.992 99.3753 89.664 98.8153 89.328C98.2713 88.976 97.8553 88.568 97.5673 88.104C97.2953 87.64 97.1593 87.04 97.1593 86.304C97.1593 85.136 97.6153 84.256 98.5273 83.664C99.4553 83.056 100.687 82.752 102.223 82.752C103.023 82.752 103.775 82.832 104.479 82.992C105.199 83.152 105.919 83.392 106.639 83.712L105.679 85.944C105.071 85.688 104.479 85.472 103.903 85.296C103.327 85.12 102.735 85.032 102.127 85.032C100.799 85.032 100.135 85.408 100.135 86.16C100.135 86.432 100.215 86.664 100.375 86.856C100.551 87.048 100.847 87.256 101.263 87.48C101.695 87.688 102.303 87.944 103.087 88.248C103.855 88.552 104.519 88.872 105.079 89.208C105.639 89.528 106.071 89.928 106.375 90.408C106.679 90.888 106.831 91.496 106.831 92.232ZM118.999 77.76V82.104C118.999 82.616 118.975 83.12 118.927 83.616C118.895 84.096 118.863 84.456 118.831 84.696H119.023C119.439 84.04 119.983 83.552 120.655 83.232C121.327 82.912 122.071 82.752 122.887 82.752C124.359 82.752 125.511 83.128 126.343 83.88C127.175 84.632 127.591 85.848 127.591 87.528V96H124.567V88.128C124.567 86.176 123.767 85.2 122.167 85.2C120.951 85.2 120.119 85.584 119.671 86.352C119.223 87.12 118.999 88.216 118.999 89.64V96H115.975V77.76H118.999ZM136.558 82.752C138.238 82.752 139.51 83.12 140.374 83.856C141.254 84.592 141.694 85.728 141.694 87.264V96H139.558L138.958 94.2H138.862C138.302 94.904 137.71 95.424 137.086 95.76C136.462 96.08 135.614 96.24 134.542 96.24C133.374 96.24 132.406 95.912 131.638 95.256C130.87 94.6 130.486 93.584 130.486 92.208C130.486 90.864 130.974 89.856 131.95 89.184C132.942 88.512 134.438 88.136 136.438 88.056L138.694 87.984V87.336C138.694 86.52 138.494 85.936 138.094 85.584C137.694 85.216 137.134 85.032 136.414 85.032C135.758 85.032 135.126 85.128 134.518 85.32C133.926 85.512 133.334 85.736 132.742 85.992L131.782 83.88C132.422 83.544 133.15 83.272 133.966 83.064C134.798 82.856 135.662 82.752 136.558 82.752ZM138.694 89.856L137.11 89.904C135.782 89.952 134.862 90.184 134.35 90.6C133.838 91 133.582 91.544 133.582 92.232C133.582 92.856 133.758 93.304 134.11 93.576C134.478 93.832 134.958 93.96 135.55 93.96C136.43 93.96 137.174 93.712 137.782 93.216C138.39 92.704 138.694 91.952 138.694 90.96V89.856ZM150.739 96.24C148.867 96.24 147.395 95.704 146.323 94.632C145.251 93.56 144.715 91.872 144.715 89.568C144.715 87.968 144.979 86.672 145.507 85.68C146.051 84.672 146.795 83.936 147.739 83.472C148.683 82.992 149.763 82.752 150.979 82.752C151.795 82.752 152.523 82.832 153.163 82.992C153.803 83.152 154.347 83.344 154.795 83.568L153.907 85.944C153.411 85.752 152.915 85.592 152.419 85.464C151.923 85.32 151.443 85.248 150.979 85.248C148.867 85.248 147.811 86.68 147.811 89.544C147.811 90.936 148.075 91.984 148.603 92.688C149.147 93.392 149.923 93.744 150.931 93.744C151.651 93.744 152.291 93.656 152.851 93.48C153.411 93.304 153.947 93.064 154.459 92.76V95.376C153.963 95.664 153.427 95.88 152.851 96.024C152.291 96.168 151.587 96.24 150.739 96.24ZM160.507 77.76V86.424C160.507 86.84 160.491 87.28 160.459 87.744C160.427 88.208 160.395 88.648 160.363 89.064H160.435C160.627 88.776 160.867 88.448 161.155 88.08C161.443 87.712 161.715 87.384 161.971 87.096L165.811 82.992H169.243L164.035 88.608L169.579 96H166.051L162.019 90.432L160.507 91.68V96H157.507V77.76H160.507ZM176.848 82.752C178.592 82.752 179.968 83.272 180.976 84.312C182 85.352 182.512 86.8 182.512 88.656V90.192H173.92C173.952 91.376 174.28 92.296 174.904 92.952C175.528 93.592 176.392 93.912 177.496 93.912C178.328 93.912 179.08 93.832 179.752 93.672C180.424 93.496 181.112 93.248 181.816 92.928V95.352C181.176 95.656 180.512 95.88 179.824 96.024C179.136 96.168 178.312 96.24 177.352 96.24C176.088 96.24 174.96 96 173.968 95.52C172.992 95.024 172.224 94.28 171.664 93.288C171.12 92.296 170.848 91.064 170.848 89.592C170.848 87.368 171.4 85.672 172.504 84.504C173.608 83.336 175.056 82.752 176.848 82.752ZM176.848 84.984C176.032 84.984 175.368 85.248 174.856 85.776C174.36 86.288 174.072 87.056 173.992 88.08H179.584C179.568 87.184 179.336 86.448 178.888 85.872C178.456 85.28 177.776 84.984 176.848 84.984ZM189.857 96.24C188.337 96.24 187.113 95.672 186.185 94.536C185.257 93.4 184.793 91.728 184.793 89.52C184.793 87.28 185.265 85.592 186.209 84.456C187.153 83.32 188.393 82.752 189.929 82.752C190.889 82.752 191.673 82.936 192.281 83.304C192.905 83.672 193.401 84.12 193.769 84.648H193.913C193.865 84.424 193.817 84.08 193.769 83.616C193.721 83.152 193.697 82.72 193.697 82.32V77.76H196.721V96H194.369L193.817 94.296H193.697C193.329 94.84 192.841 95.304 192.233 95.688C191.625 96.056 190.833 96.24 189.857 96.24ZM190.769 93.792C191.889 93.792 192.673 93.472 193.121 92.832C193.585 92.192 193.825 91.224 193.841 89.928V89.544C193.841 88.152 193.617 87.088 193.169 86.352C192.737 85.6 191.921 85.224 190.721 85.224C189.793 85.224 189.081 85.608 188.585 86.376C188.105 87.128 187.865 88.192 187.865 89.568C187.865 90.944 188.113 91.992 188.609 92.712C189.105 93.432 189.825 93.792 190.769 93.792ZM203.561 93.216L203.729 93.48C203.505 94.328 203.201 95.256 202.817 96.264C202.433 97.288 202.049 98.232 201.665 99.096H199.481C199.705 98.168 199.929 97.16 200.153 96.072C200.377 95 200.545 94.048 200.657 93.216H203.561ZM218.754 82.752C220.498 82.752 221.874 83.272 222.882 84.312C223.906 85.352 224.418 86.8 224.418 88.656V90.192H215.826C215.858 91.376 216.186 92.296 216.81 92.952C217.434 93.592 218.298 93.912 219.402 93.912C220.234 93.912 220.986 93.832 221.658 93.672C222.33 93.496 223.018 93.248 223.722 92.928V95.352C223.082 95.656 222.418 95.88 221.73 96.024C221.042 96.168 220.218 96.24 219.258 96.24C217.994 96.24 216.866 96 215.874 95.52C214.898 95.024 214.13 94.28 213.57 93.288C213.026 92.296 212.754 91.064 212.754 89.592C212.754 87.368 213.306 85.672 214.41 84.504C215.514 83.336 216.962 82.752 218.754 82.752ZM218.754 84.984C217.938 84.984 217.274 85.248 216.762 85.776C216.266 86.288 215.978 87.056 215.898 88.08H221.49C221.474 87.184 221.242 86.448 220.794 85.872C220.362 85.28 219.682 84.984 218.754 84.984ZM229.807 89.352L225.511 82.992H228.943L231.775 87.408L234.607 82.992H238.039L233.695 89.352L238.255 96H234.823L231.775 91.272L228.727 96H225.295L229.807 89.352ZM247.268 82.752C248.788 82.752 250.012 83.32 250.94 84.456C251.868 85.576 252.332 87.248 252.332 89.472C252.332 91.696 251.852 93.384 250.892 94.536C249.948 95.672 248.716 96.24 247.196 96.24C246.236 96.24 245.46 96.064 244.868 95.712C244.276 95.36 243.804 94.952 243.452 94.488H243.26C243.308 94.792 243.348 95.128 243.38 95.496C243.428 95.848 243.452 96.176 243.452 96.48V101.76H240.428V82.992H242.876L243.308 84.72H243.452C243.804 84.176 244.284 83.712 244.892 83.328C245.5 82.944 246.292 82.752 247.268 82.752ZM246.404 85.2C245.332 85.2 244.572 85.52 244.124 86.16C243.692 86.8 243.468 87.768 243.452 89.064V89.448C243.452 90.84 243.66 91.912 244.076 92.664C244.508 93.4 245.3 93.768 246.452 93.768C247.396 93.768 248.092 93.384 248.54 92.616C249.004 91.832 249.236 90.768 249.236 89.424C249.236 88.08 249.004 87.04 248.54 86.304C248.092 85.568 247.38 85.2 246.404 85.2ZM267.068 89.472C267.068 91.632 266.508 93.304 265.388 94.488C264.268 95.656 262.748 96.24 260.828 96.24C259.644 96.24 258.588 95.976 257.66 95.448C256.732 94.92 256.004 94.152 255.476 93.144C254.948 92.136 254.684 90.912 254.684 89.472C254.684 87.312 255.236 85.656 256.34 84.504C257.46 83.336 258.98 82.752 260.9 82.752C262.1 82.752 263.164 83.016 264.092 83.544C265.02 84.056 265.748 84.816 266.276 85.824C266.804 86.816 267.068 88.032 267.068 89.472ZM257.78 89.472C257.78 90.848 258.02 91.912 258.5 92.664C258.996 93.416 259.788 93.792 260.876 93.792C261.964 93.792 262.748 93.416 263.228 92.664C263.724 91.912 263.972 90.848 263.972 89.472C263.972 88.096 263.724 87.04 263.228 86.304C262.748 85.568 261.956 85.2 260.852 85.2C259.78 85.2 258.996 85.568 258.5 86.304C258.02 87.04 257.78 88.096 257.78 89.472ZM279.05 92.232C279.05 93.544 278.578 94.544 277.634 95.232C276.706 95.904 275.37 96.24 273.626 96.24C272.714 96.24 271.93 96.176 271.274 96.048C270.634 95.92 270.01 95.72 269.402 95.448V92.88C270.042 93.184 270.746 93.44 271.514 93.648C272.298 93.856 273.034 93.96 273.722 93.96C274.554 93.96 275.154 93.832 275.522 93.576C275.89 93.32 276.074 92.976 276.074 92.544C276.074 92.288 276.002 92.064 275.858 91.872C275.714 91.664 275.426 91.44 274.994 91.2C274.578 90.96 273.954 90.664 273.122 90.312C272.29 89.992 271.594 89.664 271.034 89.328C270.49 88.976 270.074 88.568 269.786 88.104C269.514 87.64 269.378 87.04 269.378 86.304C269.378 85.136 269.834 84.256 270.746 83.664C271.674 83.056 272.906 82.752 274.442 82.752C275.242 82.752 275.994 82.832 276.698 82.992C277.418 83.152 278.138 83.392 278.858 83.712L277.898 85.944C277.29 85.688 276.698 85.472 276.122 85.296C275.546 85.12 274.954 85.032 274.346 85.032C273.018 85.032 272.354 85.408 272.354 86.16C272.354 86.432 272.434 86.664 272.594 86.856C272.77 87.048 273.066 87.256 273.482 87.48C273.914 87.688 274.522 87.944 275.306 88.248C276.074 88.552 276.738 88.872 277.298 89.208C277.858 89.528 278.29 89.928 278.594 90.408C278.898 90.888 279.05 91.496 279.05 92.232ZM283.472 77.976C283.936 77.976 284.328 78.096 284.648 78.336C284.984 78.56 285.152 78.968 285.152 79.56C285.152 80.152 284.984 80.568 284.648 80.808C284.328 81.048 283.936 81.168 283.472 81.168C283.008 81.168 282.608 81.048 282.272 80.808C281.952 80.568 281.792 80.152 281.792 79.56C281.792 78.968 281.952 78.56 282.272 78.336C282.608 78.096 283.008 77.976 283.472 77.976ZM284.984 82.992V96H281.96V82.992H284.984ZM295.81 82.752C297.266 82.752 298.402 83.128 299.218 83.88C300.05 84.632 300.466 85.848 300.466 87.528V96H297.442V88.128C297.442 86.176 296.642 85.2 295.042 85.2C293.826 85.2 292.994 85.584 292.546 86.352C292.098 87.12 291.874 88.216 291.874 89.64V96H288.85V82.992H291.178L291.61 84.696H291.778C292.194 84.024 292.762 83.536 293.482 83.232C294.218 82.912 294.994 82.752 295.81 82.752ZM308.617 82.752C310.265 82.752 311.553 83.392 312.481 84.672H312.601L312.889 82.992H315.409V96.096C315.409 97.952 314.881 99.36 313.825 100.32C312.785 101.28 311.225 101.76 309.145 101.76C308.217 101.76 307.361 101.696 306.577 101.568C305.793 101.456 305.049 101.256 304.345 100.968V98.472C305.833 99.144 307.497 99.48 309.337 99.48C310.329 99.48 311.081 99.2 311.593 98.64C312.121 98.096 312.385 97.296 312.385 96.24V95.904C312.385 95.664 312.393 95.384 312.409 95.064C312.425 94.744 312.449 94.488 312.481 94.296H312.385C311.937 94.968 311.385 95.464 310.729 95.784C310.089 96.088 309.361 96.24 308.545 96.24C306.961 96.24 305.721 95.648 304.825 94.464C303.929 93.28 303.481 91.632 303.481 89.52C303.481 87.408 303.929 85.752 304.825 84.552C305.737 83.352 307.001 82.752 308.617 82.752ZM309.409 85.224C307.521 85.224 306.577 86.672 306.577 89.568C306.577 92.416 307.537 93.84 309.457 93.84C310.513 93.84 311.289 93.552 311.785 92.976C312.297 92.384 312.553 91.392 312.553 90V89.544C312.553 88.008 312.297 86.904 311.785 86.232C311.289 85.56 310.497 85.224 309.409 85.224ZM340.411 82.752C341.883 82.752 342.987 83.128 343.723 83.88C344.475 84.632 344.851 85.848 344.851 87.528V96H341.827V88.104C341.827 86.168 341.091 85.2 339.619 85.2C338.563 85.2 337.811 85.544 337.363 86.232C336.915 86.92 336.691 87.92 336.691 89.232V96H333.667V88.104C333.667 86.168 332.923 85.2 331.435 85.2C330.331 85.2 329.571 85.584 329.155 86.352C328.739 87.12 328.531 88.216 328.531 89.64V96H325.507V82.992H327.835L328.267 84.696H328.435C328.819 84.024 329.355 83.536 330.043 83.232C330.747 82.912 331.475 82.752 332.227 82.752C333.203 82.752 334.019 82.92 334.675 83.256C335.347 83.576 335.859 84.08 336.211 84.768H336.451C336.851 84.064 337.411 83.552 338.131 83.232C338.851 82.912 339.611 82.752 340.411 82.752ZM350.151 77.976C350.615 77.976 351.007 78.096 351.327 78.336C351.663 78.56 351.831 78.968 351.831 79.56C351.831 80.152 351.663 80.568 351.327 80.808C351.007 81.048 350.615 81.168 350.151 81.168C349.687 81.168 349.287 81.048 348.951 80.808C348.631 80.568 348.471 80.152 348.471 79.56C348.471 78.968 348.631 78.56 348.951 78.336C349.287 78.096 349.687 77.976 350.151 77.976ZM351.663 82.992V96H348.639V82.992H351.663ZM358.554 96H355.53V77.76H358.554V96ZM365.445 96H362.421V77.76H365.445V96ZM370.823 77.976C371.287 77.976 371.679 78.096 371.999 78.336C372.335 78.56 372.503 78.968 372.503 79.56C372.503 80.152 372.335 80.568 371.999 80.808C371.679 81.048 371.287 81.168 370.823 81.168C370.359 81.168 369.959 81.048 369.623 80.808C369.303 80.568 369.143 80.152 369.143 79.56C369.143 78.968 369.303 78.56 369.623 78.336C369.959 78.096 370.359 77.976 370.823 77.976ZM372.335 82.992V96H369.311V82.992H372.335ZM387.818 89.472C387.818 91.632 387.258 93.304 386.138 94.488C385.018 95.656 383.498 96.24 381.578 96.24C380.394 96.24 379.338 95.976 378.41 95.448C377.482 94.92 376.754 94.152 376.226 93.144C375.698 92.136 375.434 90.912 375.434 89.472C375.434 87.312 375.986 85.656 377.09 84.504C378.21 83.336 379.73 82.752 381.65 82.752C382.85 82.752 383.914 83.016 384.842 83.544C385.77 84.056 386.498 84.816 387.026 85.824C387.554 86.816 387.818 88.032 387.818 89.472ZM378.53 89.472C378.53 90.848 378.77 91.912 379.25 92.664C379.746 93.416 380.538 93.792 381.626 93.792C382.714 93.792 383.498 93.416 383.978 92.664C384.474 91.912 384.722 90.848 384.722 89.472C384.722 88.096 384.474 87.04 383.978 86.304C383.498 85.568 382.706 85.2 381.602 85.2C380.53 85.2 379.746 85.568 379.25 86.304C378.77 87.04 378.53 88.096 378.53 89.472ZM397.904 82.752C399.36 82.752 400.496 83.128 401.312 83.88C402.144 84.632 402.56 85.848 402.56 87.528V96H399.536V88.128C399.536 86.176 398.736 85.2 397.136 85.2C395.92 85.2 395.088 85.584 394.64 86.352C394.192 87.12 393.968 88.216 393.968 89.64V96H390.944V82.992H393.272L393.704 84.696H393.872C394.288 84.024 394.856 83.536 395.576 83.232C396.312 82.912 397.088 82.752 397.904 82.752ZM415.198 92.232C415.198 93.544 414.726 94.544 413.782 95.232C412.854 95.904 411.518 96.24 409.774 96.24C408.862 96.24 408.078 96.176 407.422 96.048C406.782 95.92 406.158 95.72 405.55 95.448V92.88C406.19 93.184 406.894 93.44 407.662 93.648C408.446 93.856 409.182 93.96 409.87 93.96C410.702 93.96 411.302 93.832 411.67 93.576C412.038 93.32 412.222 92.976 412.222 92.544C412.222 92.288 412.15 92.064 412.006 91.872C411.862 91.664 411.574 91.44 411.142 91.2C410.726 90.96 410.102 90.664 409.27 90.312C408.438 89.992 407.742 89.664 407.182 89.328C406.638 88.976 406.222 88.568 405.934 88.104C405.662 87.64 405.526 87.04 405.526 86.304C405.526 85.136 405.982 84.256 406.894 83.664C407.822 83.056 409.054 82.752 410.59 82.752C411.39 82.752 412.142 82.832 412.846 82.992C413.566 83.152 414.286 83.392 415.006 83.712L414.046 85.944C413.438 85.688 412.846 85.472 412.27 85.296C411.694 85.12 411.102 85.032 410.494 85.032C409.166 85.032 408.502 85.408 408.502 86.16C408.502 86.432 408.582 86.664 408.742 86.856C408.918 87.048 409.214 87.256 409.63 87.48C410.062 87.688 410.67 87.944 411.454 88.248C412.222 88.552 412.886 88.872 413.446 89.208C414.006 89.528 414.438 89.928 414.742 90.408C415.046 90.888 415.198 91.496 415.198 92.232ZM435.958 89.472C435.958 91.632 435.398 93.304 434.278 94.488C433.158 95.656 431.638 96.24 429.718 96.24C428.534 96.24 427.478 95.976 426.55 95.448C425.622 94.92 424.894 94.152 424.366 93.144C423.838 92.136 423.574 90.912 423.574 89.472C423.574 87.312 424.126 85.656 425.23 84.504C426.35 83.336 427.87 82.752 429.79 82.752C430.99 82.752 432.054 83.016 432.982 83.544C433.91 84.056 434.638 84.816 435.166 85.824C435.694 86.816 435.958 88.032 435.958 89.472ZM426.67 89.472C426.67 90.848 426.91 91.912 427.39 92.664C427.886 93.416 428.678 93.792 429.766 93.792C430.854 93.792 431.638 93.416 432.118 92.664C432.614 91.912 432.862 90.848 432.862 89.472C432.862 88.096 432.614 87.04 432.118 86.304C431.638 85.568 430.846 85.2 429.742 85.2C428.67 85.2 427.886 85.568 427.39 86.304C426.91 87.04 426.67 88.096 426.67 89.472ZM445.829 85.272H442.685V96H439.661V85.272H437.573V83.832L439.661 82.968V82.08C439.661 80.416 440.053 79.264 440.837 78.624C441.637 77.968 442.725 77.64 444.101 77.64C444.725 77.64 445.293 77.696 445.805 77.808C446.333 77.904 446.765 78.016 447.101 78.144L446.333 80.4C446.061 80.32 445.757 80.248 445.421 80.184C445.101 80.104 444.749 80.064 444.365 80.064C443.789 80.064 443.365 80.248 443.093 80.616C442.821 80.968 442.685 81.48 442.685 82.152V82.992H445.829V85.272ZM469.129 82.752C470.601 82.752 471.705 83.128 472.441 83.88C473.193 84.632 473.569 85.848 473.569 87.528V96H470.545V88.104C470.545 86.168 469.809 85.2 468.337 85.2C467.281 85.2 466.529 85.544 466.081 86.232C465.633 86.92 465.409 87.92 465.409 89.232V96H462.385V88.104C462.385 86.168 461.641 85.2 460.153 85.2C459.049 85.2 458.289 85.584 457.873 86.352C457.457 87.12 457.249 88.216 457.249 89.64V96H454.225V82.992H456.553L456.985 84.696H457.153C457.537 84.024 458.073 83.536 458.761 83.232C459.465 82.912 460.193 82.752 460.945 82.752C461.921 82.752 462.737 82.92 463.393 83.256C464.065 83.576 464.577 84.08 464.929 84.768H465.169C465.569 84.064 466.129 83.552 466.849 83.232C467.569 82.912 468.329 82.752 469.129 82.752ZM482.542 82.752C484.222 82.752 485.494 83.12 486.358 83.856C487.238 84.592 487.678 85.728 487.678 87.264V96H485.542L484.942 94.2H484.846C484.286 94.904 483.694 95.424 483.07 95.76C482.446 96.08 481.598 96.24 480.526 96.24C479.358 96.24 478.39 95.912 477.622 95.256C476.854 94.6 476.47 93.584 476.47 92.208C476.47 90.864 476.958 89.856 477.934 89.184C478.926 88.512 480.422 88.136 482.422 88.056L484.678 87.984V87.336C484.678 86.52 484.478 85.936 484.078 85.584C483.678 85.216 483.118 85.032 482.398 85.032C481.742 85.032 481.11 85.128 480.502 85.32C479.91 85.512 479.318 85.736 478.726 85.992L477.766 83.88C478.406 83.544 479.134 83.272 479.95 83.064C480.782 82.856 481.646 82.752 482.542 82.752ZM484.678 89.856L483.094 89.904C481.766 89.952 480.846 90.184 480.334 90.6C479.822 91 479.566 91.544 479.566 92.232C479.566 92.856 479.742 93.304 480.094 93.576C480.462 93.832 480.942 93.96 481.534 93.96C482.414 93.96 483.158 93.712 483.766 93.216C484.374 92.704 484.678 91.952 484.678 90.96V89.856ZM498.283 82.752C498.491 82.752 498.715 82.76 498.955 82.776C499.211 82.792 499.427 82.824 499.603 82.872L499.339 85.68C499.179 85.648 498.987 85.624 498.763 85.608C498.539 85.576 498.339 85.56 498.163 85.56C497.523 85.56 496.923 85.696 496.363 85.968C495.803 86.224 495.347 86.632 494.995 87.192C494.659 87.736 494.491 88.424 494.491 89.256V96H491.467V82.992H493.795L494.227 85.248H494.371C494.755 84.56 495.283 83.976 495.955 83.496C496.627 83 497.403 82.752 498.283 82.752ZM508.83 82.752C509.038 82.752 509.262 82.76 509.502 82.776C509.758 82.792 509.974 82.824 510.15 82.872L509.886 85.68C509.726 85.648 509.534 85.624 509.31 85.608C509.086 85.576 508.886 85.56 508.71 85.56C508.07 85.56 507.47 85.696 506.91 85.968C506.35 86.224 505.894 86.632 505.542 87.192C505.206 87.736 505.038 88.424 505.038 89.256V96H502.014V82.992H504.342L504.774 85.248H504.918C505.302 84.56 505.83 83.976 506.502 83.496C507.174 83 507.95 82.752 508.83 82.752ZM514.073 77.976C514.537 77.976 514.929 78.096 515.249 78.336C515.585 78.56 515.753 78.968 515.753 79.56C515.753 80.152 515.585 80.568 515.249 80.808C514.929 81.048 514.537 81.168 514.073 81.168C513.609 81.168 513.209 81.048 512.873 80.808C512.553 80.568 512.393 80.152 512.393 79.56C512.393 78.968 512.553 78.56 512.873 78.336C513.209 78.096 513.609 77.976 514.073 77.976ZM515.585 82.992V96H512.561V82.992H515.585ZM524.684 82.752C526.428 82.752 527.804 83.272 528.812 84.312C529.836 85.352 530.348 86.8 530.348 88.656V90.192H521.756C521.788 91.376 522.116 92.296 522.74 92.952C523.364 93.592 524.228 93.912 525.332 93.912C526.164 93.912 526.916 93.832 527.588 93.672C528.26 93.496 528.948 93.248 529.652 92.928V95.352C529.012 95.656 528.348 95.88 527.66 96.024C526.972 96.168 526.148 96.24 525.188 96.24C523.924 96.24 522.796 96 521.804 95.52C520.828 95.024 520.06 94.28 519.5 93.288C518.956 92.296 518.684 91.064 518.684 89.592C518.684 87.368 519.236 85.672 520.34 84.504C521.444 83.336 522.892 82.752 524.684 82.752ZM524.684 84.984C523.868 84.984 523.204 85.248 522.692 85.776C522.196 86.288 521.908 87.056 521.828 88.08H527.42C527.404 87.184 527.172 86.448 526.724 85.872C526.292 85.28 525.612 84.984 524.684 84.984ZM537.693 96.24C536.173 96.24 534.949 95.672 534.021 94.536C533.093 93.4 532.629 91.728 532.629 89.52C532.629 87.28 533.101 85.592 534.045 84.456C534.989 83.32 536.229 82.752 537.765 82.752C538.725 82.752 539.509 82.936 540.117 83.304C540.741 83.672 541.237 84.12 541.605 84.648H541.749C541.701 84.424 541.653 84.08 541.605 83.616C541.557 83.152 541.533 82.72 541.533 82.32V77.76H544.557V96H542.205L541.653 94.296H541.533C541.165 94.84 540.677 95.304 540.069 95.688C539.461 96.056 538.669 96.24 537.693 96.24ZM538.605 93.792C539.725 93.792 540.509 93.472 540.957 92.832C541.421 92.192 541.661 91.224 541.677 89.928V89.544C541.677 88.152 541.453 87.088 541.005 86.352C540.573 85.6 539.757 85.224 538.557 85.224C537.629 85.224 536.917 85.608 536.421 86.376C535.941 87.128 535.701 88.192 535.701 89.568C535.701 90.944 535.949 91.992 536.445 92.712C536.941 93.432 537.661 93.792 538.605 93.792ZM69.2 136.24C67.328 136.24 65.856 135.704 64.784 134.632C63.712 133.56 63.176 131.872 63.176 129.568C63.176 127.968 63.44 126.672 63.968 125.68C64.512 124.672 65.256 123.936 66.2 123.472C67.144 122.992 68.224 122.752 69.44 122.752C70.256 122.752 70.984 122.832 71.624 122.992C72.264 123.152 72.808 123.344 73.256 123.568L72.368 125.944C71.872 125.752 71.376 125.592 70.88 125.464C70.384 125.32 69.904 125.248 69.44 125.248C67.328 125.248 66.272 126.68 66.272 129.544C66.272 130.936 66.536 131.984 67.064 132.688C67.608 133.392 68.384 133.744 69.392 133.744C70.112 133.744 70.752 133.656 71.312 133.48C71.872 133.304 72.408 133.064 72.92 132.76V135.376C72.424 135.664 71.888 135.88 71.312 136.024C70.752 136.168 70.048 136.24 69.2 136.24ZM78.9914 117.76V122.104C78.9914 122.616 78.9674 123.12 78.9194 123.616C78.8874 124.096 78.8554 124.456 78.8234 124.696H79.0154C79.4314 124.04 79.9754 123.552 80.6474 123.232C81.3194 122.912 82.0634 122.752 82.8794 122.752C84.3514 122.752 85.5034 123.128 86.3354 123.88C87.1674 124.632 87.5834 125.848 87.5834 127.528V136H84.5594V128.128C84.5594 126.176 83.7594 125.2 82.1594 125.2C80.9434 125.2 80.1114 125.584 79.6634 126.352C79.2154 127.12 78.9914 128.216 78.9914 129.64V136H75.9674V117.76H78.9914ZM96.5979 122.752C98.3419 122.752 99.7179 123.272 100.726 124.312C101.75 125.352 102.262 126.8 102.262 128.656V130.192H93.6699C93.7019 131.376 94.0299 132.296 94.6539 132.952C95.2779 133.592 96.1419 133.912 97.2459 133.912C98.0779 133.912 98.8299 133.832 99.5019 133.672C100.174 133.496 100.862 133.248 101.566 132.928V135.352C100.926 135.656 100.262 135.88 99.5739 136.024C98.8859 136.168 98.0619 136.24 97.1019 136.24C95.8379 136.24 94.7099 136 93.7179 135.52C92.7419 135.024 91.9739 134.28 91.4139 133.288C90.8699 132.296 90.5979 131.064 90.5979 129.592C90.5979 127.368 91.1499 125.672 92.2539 124.504C93.3579 123.336 94.8059 122.752 96.5979 122.752ZM96.5979 124.984C95.7819 124.984 95.1179 125.248 94.6059 125.776C94.1099 126.288 93.8219 127.056 93.7419 128.08H99.3339C99.3179 127.184 99.0859 126.448 98.6379 125.872C98.2059 125.28 97.5259 124.984 96.5979 124.984ZM110.495 122.752C112.175 122.752 113.447 123.12 114.311 123.856C115.191 124.592 115.631 125.728 115.631 127.264V136H113.495L112.895 134.2H112.799C112.239 134.904 111.647 135.424 111.023 135.76C110.399 136.08 109.551 136.24 108.479 136.24C107.311 136.24 106.343 135.912 105.575 135.256C104.807 134.6 104.423 133.584 104.423 132.208C104.423 130.864 104.911 129.856 105.887 129.184C106.879 128.512 108.375 128.136 110.375 128.056L112.631 127.984V127.336C112.631 126.52 112.431 125.936 112.031 125.584C111.631 125.216 111.071 125.032 110.351 125.032C109.695 125.032 109.063 125.128 108.455 125.32C107.863 125.512 107.271 125.736 106.679 125.992L105.719 123.88C106.359 123.544 107.087 123.272 107.903 123.064C108.735 122.856 109.599 122.752 110.495 122.752ZM112.631 129.856L111.047 129.904C109.719 129.952 108.799 130.184 108.287 130.6C107.775 131 107.519 131.544 107.519 132.232C107.519 132.856 107.695 133.304 108.047 133.576C108.415 133.832 108.895 133.96 109.487 133.96C110.367 133.96 111.111 133.712 111.719 133.216C112.327 132.704 112.631 131.952 112.631 130.96V129.856ZM124.461 133.816C124.829 133.816 125.189 133.784 125.541 133.72C125.909 133.64 126.245 133.552 126.549 133.456V135.712C126.229 135.856 125.813 135.976 125.301 136.072C124.789 136.184 124.253 136.24 123.693 136.24C122.957 136.24 122.285 136.12 121.677 135.88C121.069 135.624 120.589 135.192 120.237 134.584C119.885 133.976 119.709 133.128 119.709 132.04V125.272H117.957V123.952L119.877 122.896L120.837 120.136H122.733V122.992H126.429V125.272H122.733V132.016C122.733 132.624 122.893 133.08 123.213 133.384C123.533 133.672 123.949 133.816 124.461 133.816ZM134.403 122.752C136.147 122.752 137.523 123.272 138.531 124.312C139.555 125.352 140.067 126.8 140.067 128.656V130.192H131.475C131.507 131.376 131.835 132.296 132.459 132.952C133.083 133.592 133.947 133.912 135.051 133.912C135.883 133.912 136.635 133.832 137.307 133.672C137.979 133.496 138.667 133.248 139.371 132.928V135.352C138.731 135.656 138.067 135.88 137.379 136.024C136.691 136.168 135.867 136.24 134.907 136.24C133.643 136.24 132.515 136 131.523 135.52C130.547 135.024 129.779 134.28 129.219 133.288C128.675 132.296 128.403 131.064 128.403 129.592C128.403 127.368 128.955 125.672 130.059 124.504C131.163 123.336 132.611 122.752 134.403 122.752ZM134.403 124.984C133.587 124.984 132.923 125.248 132.411 125.776C131.915 126.288 131.627 127.056 131.547 128.08H137.139C137.123 127.184 136.891 126.448 136.443 125.872C136.011 125.28 135.331 124.984 134.403 124.984ZM149.932 122.752C150.14 122.752 150.364 122.76 150.604 122.776C150.86 122.792 151.076 122.824 151.252 122.872L150.988 125.68C150.828 125.648 150.636 125.624 150.412 125.608C150.188 125.576 149.988 125.56 149.812 125.56C149.172 125.56 148.572 125.696 148.012 125.968C147.452 126.224 146.996 126.632 146.644 127.192C146.308 127.736 146.14 128.424 146.14 129.256V136H143.116V122.992H145.444L145.876 125.248H146.02C146.404 124.56 146.932 123.976 147.604 123.496C148.276 123 149.052 122.752 149.932 122.752ZM162.519 132.232C162.519 133.544 162.047 134.544 161.103 135.232C160.175 135.904 158.839 136.24 157.095 136.24C156.183 136.24 155.399 136.176 154.743 136.048C154.103 135.92 153.479 135.72 152.871 135.448V132.88C153.511 133.184 154.215 133.44 154.983 133.648C155.767 133.856 156.503 133.96 157.191 133.96C158.023 133.96 158.623 133.832 158.991 133.576C159.359 133.32 159.543 132.976 159.543 132.544C159.543 132.288 159.471 132.064 159.327 131.872C159.183 131.664 158.895 131.44 158.463 131.2C158.047 130.96 157.423 130.664 156.591 130.312C155.759 129.992 155.063 129.664 154.503 129.328C153.959 128.976 153.543 128.568 153.255 128.104C152.983 127.64 152.847 127.04 152.847 126.304C152.847 125.136 153.303 124.256 154.215 123.664C155.143 123.056 156.375 122.752 157.911 122.752C158.711 122.752 159.463 122.832 160.167 122.992C160.887 123.152 161.607 123.392 162.327 123.712L161.367 125.944C160.759 125.688 160.167 125.472 159.591 125.296C159.015 125.12 158.423 125.032 157.815 125.032C156.487 125.032 155.823 125.408 155.823 126.16C155.823 126.432 155.903 126.664 156.063 126.856C156.239 127.048 156.535 127.256 156.951 127.48C157.383 127.688 157.991 127.944 158.775 128.248C159.543 128.552 160.207 128.872 160.767 129.208C161.327 129.528 161.759 129.928 162.063 130.408C162.367 130.888 162.519 131.496 162.519 132.232ZM182.319 136L180.879 130.408C180.799 130.104 180.703 129.728 180.591 129.28C180.479 128.816 180.359 128.336 180.231 127.84C180.119 127.344 180.015 126.888 179.919 126.472C179.823 126.056 179.751 125.736 179.703 125.512H179.607C179.559 125.736 179.487 126.056 179.391 126.472C179.295 126.888 179.191 127.352 179.079 127.864C178.967 128.36 178.847 128.84 178.719 129.304C178.607 129.752 178.511 130.128 178.431 130.432L176.919 136H173.607L169.959 122.968H173.007L174.615 129.184C174.727 129.616 174.831 130.096 174.927 130.624C175.039 131.136 175.127 131.64 175.191 132.136C175.271 132.616 175.335 133.008 175.383 133.312H175.479C175.511 133.024 175.567 132.632 175.647 132.136C175.743 131.64 175.839 131.16 175.935 130.696C176.031 130.216 176.111 129.856 176.175 129.616L178.047 122.968H181.359L183.159 129.616C183.223 129.904 183.303 130.28 183.399 130.744C183.511 131.208 183.607 131.68 183.687 132.16C183.767 132.624 183.815 133 183.831 133.288H183.927C183.959 133.032 184.015 132.664 184.095 132.184C184.175 131.704 184.271 131.192 184.383 130.648C184.495 130.104 184.615 129.616 184.743 129.184L186.375 122.968H189.375L185.679 136H182.319ZM203.201 129.472C203.201 131.632 202.641 133.304 201.521 134.488C200.401 135.656 198.881 136.24 196.961 136.24C195.777 136.24 194.721 135.976 193.793 135.448C192.865 134.92 192.137 134.152 191.609 133.144C191.081 132.136 190.817 130.912 190.817 129.472C190.817 127.312 191.369 125.656 192.473 124.504C193.593 123.336 195.113 122.752 197.033 122.752C198.233 122.752 199.297 123.016 200.225 123.544C201.153 124.056 201.881 124.816 202.409 125.824C202.937 126.816 203.201 128.032 203.201 129.472ZM193.913 129.472C193.913 130.848 194.153 131.912 194.633 132.664C195.129 133.416 195.921 133.792 197.009 133.792C198.097 133.792 198.881 133.416 199.361 132.664C199.857 131.912 200.105 130.848 200.105 129.472C200.105 128.096 199.857 127.04 199.361 126.304C198.881 125.568 198.089 125.2 196.985 125.2C195.913 125.2 195.129 125.568 194.633 126.304C194.153 127.04 193.913 128.096 193.913 129.472ZM213.143 122.752C213.351 122.752 213.575 122.76 213.815 122.776C214.071 122.792 214.287 122.824 214.463 122.872L214.199 125.68C214.039 125.648 213.847 125.624 213.623 125.608C213.399 125.576 213.199 125.56 213.023 125.56C212.383 125.56 211.783 125.696 211.223 125.968C210.663 126.224 210.207 126.632 209.855 127.192C209.519 127.736 209.351 128.424 209.351 129.256V136H206.327V122.992H208.655L209.087 125.248H209.231C209.615 124.56 210.143 123.976 210.815 123.496C211.487 123 212.263 122.752 213.143 122.752ZM219.898 136H216.874V117.76H219.898V136ZM228.06 136.24C226.54 136.24 225.316 135.672 224.388 134.536C223.46 133.4 222.996 131.728 222.996 129.52C222.996 127.28 223.468 125.592 224.412 124.456C225.356 123.32 226.596 122.752 228.132 122.752C229.092 122.752 229.876 122.936 230.484 123.304C231.108 123.672 231.604 124.12 231.972 124.648H232.116C232.068 124.424 232.02 124.08 231.972 123.616C231.924 123.152 231.9 122.72 231.9 122.32V117.76H234.924V136H232.572L232.02 134.296H231.9C231.532 134.84 231.044 135.304 230.436 135.688C229.828 136.056 229.036 136.24 228.06 136.24ZM228.972 133.792C230.092 133.792 230.876 133.472 231.324 132.832C231.788 132.192 232.028 131.224 232.044 129.928V129.544C232.044 128.152 231.82 127.088 231.372 126.352C230.94 125.6 230.124 125.224 228.924 125.224C227.996 125.224 227.284 125.608 226.788 126.376C226.308 127.128 226.068 128.192 226.068 129.568C226.068 130.944 226.316 131.992 226.812 132.712C227.308 133.432 228.028 133.792 228.972 133.792ZM249.444 136L248.004 130.408C247.924 130.104 247.828 129.728 247.716 129.28C247.604 128.816 247.484 128.336 247.356 127.84C247.244 127.344 247.14 126.888 247.044 126.472C246.948 126.056 246.876 125.736 246.828 125.512H246.732C246.684 125.736 246.612 126.056 246.516 126.472C246.42 126.888 246.316 127.352 246.204 127.864C246.092 128.36 245.972 128.84 245.844 129.304C245.732 129.752 245.636 130.128 245.556 130.432L244.044 136H240.732L237.084 122.968H240.132L241.74 129.184C241.852 129.616 241.956 130.096 242.052 130.624C242.164 131.136 242.252 131.64 242.316 132.136C242.396 132.616 242.46 133.008 242.508 133.312H242.604C242.636 133.024 242.692 132.632 242.772 132.136C242.868 131.64 242.964 131.16 243.06 130.696C243.156 130.216 243.236 129.856 243.3 129.616L245.172 122.968H248.484L250.284 129.616C250.348 129.904 250.428 130.28 250.524 130.744C250.636 131.208 250.732 131.68 250.812 132.16C250.892 132.624 250.94 133 250.956 133.288H251.052C251.084 133.032 251.14 132.664 251.22 132.184C251.3 131.704 251.396 131.192 251.508 130.648C251.62 130.104 251.74 129.616 251.868 129.184L253.5 122.968H256.5L252.804 136H249.444ZM260.222 117.976C260.686 117.976 261.078 118.096 261.398 118.336C261.734 118.56 261.902 118.968 261.902 119.56C261.902 120.152 261.734 120.568 261.398 120.808C261.078 121.048 260.686 121.168 260.222 121.168C259.758 121.168 259.358 121.048 259.022 120.808C258.702 120.568 258.542 120.152 258.542 119.56C258.542 118.968 258.702 118.56 259.022 118.336C259.358 118.096 259.758 117.976 260.222 117.976ZM261.734 122.992V136H258.71V122.992H261.734ZM269.896 136.24C268.376 136.24 267.152 135.672 266.224 134.536C265.296 133.4 264.832 131.728 264.832 129.52C264.832 127.28 265.304 125.592 266.248 124.456C267.192 123.32 268.432 122.752 269.968 122.752C270.928 122.752 271.712 122.936 272.32 123.304C272.944 123.672 273.44 124.12 273.808 124.648H273.952C273.904 124.424 273.856 124.08 273.808 123.616C273.76 123.152 273.736 122.72 273.736 122.32V117.76H276.76V136H274.408L273.856 134.296H273.736C273.368 134.84 272.88 135.304 272.272 135.688C271.664 136.056 270.872 136.24 269.896 136.24ZM270.808 133.792C271.928 133.792 272.712 133.472 273.16 132.832C273.624 132.192 273.864 131.224 273.88 129.928V129.544C273.88 128.152 273.656 127.088 273.208 126.352C272.776 125.6 271.96 125.224 270.76 125.224C269.832 125.224 269.12 125.608 268.624 126.376C268.144 127.128 267.904 128.192 267.904 129.568C267.904 130.944 268.152 131.992 268.648 132.712C269.144 133.432 269.864 133.792 270.808 133.792ZM285.856 122.752C287.6 122.752 288.976 123.272 289.984 124.312C291.008 125.352 291.52 126.8 291.52 128.656V130.192H282.928C282.96 131.376 283.288 132.296 283.912 132.952C284.536 133.592 285.4 133.912 286.504 133.912C287.336 133.912 288.088 133.832 288.76 133.672C289.432 133.496 290.12 133.248 290.824 132.928V135.352C290.184 135.656 289.52 135.88 288.832 136.024C288.144 136.168 287.32 136.24 286.36 136.24C285.096 136.24 283.968 136 282.976 135.52C282 135.024 281.232 134.28 280.672 133.288C280.128 132.296 279.856 131.064 279.856 129.592C279.856 127.368 280.408 125.672 281.512 124.504C282.616 123.336 284.064 122.752 285.856 122.752ZM285.856 124.984C285.04 124.984 284.376 125.248 283.864 125.776C283.368 126.288 283.08 127.056 283 128.08H288.592C288.576 127.184 288.344 126.448 287.896 125.872C287.464 125.28 286.784 124.984 285.856 124.984ZM294.137 134.464C294.137 133.792 294.313 133.32 294.665 133.048C295.017 132.76 295.449 132.616 295.961 132.616C296.457 132.616 296.889 132.76 297.257 133.048C297.625 133.32 297.809 133.792 297.809 134.464C297.809 135.12 297.625 135.592 297.257 135.88C296.889 136.168 296.457 136.312 295.961 136.312C295.449 136.312 295.017 136.168 294.665 135.88C294.313 135.592 294.137 135.12 294.137 134.464Z" fill="#141414"/>
</svg>
