<svg width="392" height="102" viewBox="0 0 392 102" fill="none" xmlns="http://www.w3.org/2000/svg">
<path d="M390.406 1H1.79228C1.39614 1 1 1.39063 1 1.78125V101H390.208C390.604 101 391 100.609 391 100.219V1.58594C391 1.19531 390.802 1 390.406 1Z" fill="#F2F2F2" stroke="#333333" stroke-miterlimit="10"/>
<path d="M165 49.1973V62H163.74V49.1973H160.4V47.9961H168.34V49.1973H165ZM175.83 59.2559C175.83 59.6595 175.752 60.0404 175.596 60.3984C175.446 60.7565 175.238 61.069 174.971 61.3359C174.704 61.6029 174.391 61.8145 174.033 61.9707C173.675 62.1204 173.294 62.1953 172.891 62.1953H172.09C171.686 62.1953 171.305 62.1204 170.947 61.9707C170.589 61.8145 170.277 61.6029 170.01 61.3359C169.743 61.069 169.531 60.7565 169.375 60.3984C169.225 60.0404 169.15 59.6595 169.15 59.2559V54.7441C169.15 54.3405 169.225 53.9596 169.375 53.6016C169.531 53.2435 169.743 52.931 170.01 52.6641C170.277 52.3971 170.589 52.1888 170.947 52.0391C171.305 51.8828 171.686 51.8047 172.09 51.8047H172.891C173.294 51.8047 173.675 51.8828 174.033 52.0391C174.391 52.1888 174.704 52.3971 174.971 52.6641C175.238 52.931 175.446 53.2435 175.596 53.6016C175.752 53.9596 175.83 54.3405 175.83 54.7441V59.2559ZM174.629 54.6758C174.629 54.4349 174.583 54.2103 174.492 54.002C174.401 53.7871 174.277 53.6016 174.121 53.4453C173.965 53.2891 173.779 53.1654 173.564 53.0742C173.356 52.9831 173.132 52.9375 172.891 52.9375H172.09C171.849 52.9375 171.621 52.9831 171.406 53.0742C171.198 53.1654 171.016 53.2891 170.859 53.4453C170.703 53.6016 170.579 53.7871 170.488 54.002C170.397 54.2103 170.352 54.4349 170.352 54.6758V59.3242C170.352 59.5651 170.397 59.793 170.488 60.0078C170.579 60.2161 170.703 60.3984 170.859 60.5547C171.016 60.7109 171.198 60.8346 171.406 60.9258C171.621 61.0169 171.849 61.0625 172.09 61.0625H172.891C173.132 61.0625 173.356 61.0169 173.564 60.9258C173.779 60.8346 173.965 60.7109 174.121 60.5547C174.277 60.3984 174.401 60.2161 174.492 60.0078C174.583 59.793 174.629 59.5651 174.629 59.3242V54.6758ZM184.512 62L183.848 61.0039C183.574 61.362 183.232 61.6517 182.822 61.873C182.412 62.0879 181.963 62.1953 181.475 62.1953H181.172C180.768 62.1953 180.387 62.1204 180.029 61.9707C179.671 61.8145 179.359 61.6029 179.092 61.3359C178.825 61.069 178.613 60.7565 178.457 60.3984C178.307 60.0404 178.232 59.6595 178.232 59.2559V59.1582C178.232 58.7546 178.307 58.3737 178.457 58.0156C178.613 57.6576 178.825 57.3451 179.092 57.0781C179.359 56.8112 179.671 56.6029 180.029 56.4531C180.387 56.2969 180.768 56.2188 181.172 56.2188H183.711V54.6758C183.711 54.4349 183.665 54.2103 183.574 54.002C183.483 53.7871 183.359 53.6016 183.203 53.4453C183.047 53.2891 182.861 53.1654 182.646 53.0742C182.438 52.9831 182.214 52.9375 181.973 52.9375H181.27C181.029 52.9375 180.801 52.9831 180.586 53.0742C180.378 53.1654 180.195 53.2891 180.039 53.4453C179.883 53.6016 179.759 53.7871 179.668 54.002C179.577 54.2103 179.531 54.4349 179.531 54.6758V55.0371L178.33 54.8418V54.7441C178.33 54.3405 178.405 53.9596 178.555 53.6016C178.711 53.2435 178.923 52.931 179.189 52.6641C179.456 52.3971 179.769 52.1888 180.127 52.0391C180.485 51.8828 180.866 51.8047 181.27 51.8047H181.973C182.376 51.8047 182.757 51.8828 183.115 52.0391C183.473 52.1888 183.786 52.3971 184.053 52.6641C184.32 52.931 184.528 53.2435 184.678 53.6016C184.834 53.9596 184.912 54.3405 184.912 54.7441V62H184.512ZM183.711 57.1562H181.172C180.931 57.1562 180.703 57.2018 180.488 57.293C180.28 57.3841 180.098 57.5111 179.941 57.6738C179.785 57.8301 179.661 58.0156 179.57 58.2305C179.479 58.4388 179.434 58.6634 179.434 58.9043V59.3242C179.434 59.5651 179.479 59.793 179.57 60.0078C179.661 60.2161 179.785 60.3984 179.941 60.5547C180.098 60.7109 180.28 60.8346 180.488 60.9258C180.703 61.0169 180.931 61.0625 181.172 61.0625H181.973C182.214 61.0625 182.438 61.0169 182.646 60.9258C182.861 60.8346 183.047 60.7109 183.203 60.5547C183.359 60.3984 183.483 60.2161 183.574 60.0078C183.665 59.793 183.711 59.5651 183.711 59.3242V57.1562ZM194.189 59.4609C194.189 59.8646 194.108 60.2357 193.945 60.5742C193.783 60.9062 193.561 61.1927 193.281 61.4336C193.001 61.6745 192.676 61.8633 192.305 62C191.94 62.1302 191.556 62.1953 191.152 62.1953H190.352C189.948 62.1953 189.561 62.1204 189.189 61.9707C188.825 61.8145 188.503 61.6029 188.223 61.3359C187.949 61.069 187.728 60.7565 187.559 60.3984C187.396 60.0404 187.314 59.6595 187.314 59.2559V58.8555L188.516 58.6602V59.3242C188.516 59.5651 188.564 59.793 188.662 60.0078C188.766 60.2161 188.903 60.3984 189.072 60.5547C189.242 60.7109 189.437 60.8346 189.658 60.9258C189.88 61.0169 190.111 61.0625 190.352 61.0625H191.152C191.393 61.0625 191.624 61.0267 191.846 60.9551C192.067 60.8835 192.262 60.7826 192.432 60.6523C192.607 60.5156 192.744 60.3529 192.842 60.1641C192.946 59.9753 192.998 59.7604 192.998 59.5195C192.998 59.1615 192.92 58.8685 192.764 58.6406C192.607 58.4128 192.399 58.224 192.139 58.0742C191.885 57.918 191.592 57.791 191.26 57.6934C190.934 57.5892 190.599 57.4883 190.254 57.3906C189.909 57.2865 189.57 57.1693 189.238 57.0391C188.913 56.9089 188.62 56.7396 188.359 56.5312C188.105 56.3164 187.9 56.0495 187.744 55.7305C187.588 55.4115 187.51 55.0143 187.51 54.5391C187.51 54.1354 187.588 53.7676 187.744 53.4355C187.9 53.097 188.112 52.8073 188.379 52.5664C188.646 52.3255 188.955 52.14 189.307 52.0098C189.665 51.873 190.046 51.8047 190.449 51.8047H191.152C191.556 51.8047 191.937 51.8828 192.295 52.0391C192.653 52.1888 192.965 52.3971 193.232 52.6641C193.499 52.931 193.708 53.2435 193.857 53.6016C194.014 53.9596 194.092 54.3405 194.092 54.7441V54.7832L192.891 54.9785V54.6758C192.891 54.4349 192.845 54.2103 192.754 54.002C192.663 53.7871 192.539 53.6016 192.383 53.4453C192.227 53.2891 192.041 53.1654 191.826 53.0742C191.618 52.9831 191.393 52.9375 191.152 52.9375H190.449C190.208 52.9375 189.98 52.9733 189.766 53.0449C189.557 53.1165 189.375 53.2207 189.219 53.3574C189.062 53.4876 188.939 53.6471 188.848 53.8359C188.757 54.0247 188.711 54.2396 188.711 54.4805C188.711 54.8255 188.789 55.1087 188.945 55.3301C189.102 55.5449 189.307 55.7272 189.561 55.877C189.821 56.0267 190.114 56.1536 190.439 56.2578C190.771 56.3555 191.107 56.4596 191.445 56.5703C191.79 56.6745 192.126 56.7949 192.451 56.9316C192.783 57.0684 193.076 57.2441 193.33 57.459C193.59 57.6738 193.799 57.944 193.955 58.2695C194.111 58.5885 194.189 58.9857 194.189 59.4609ZM200.137 62C199.772 62 199.427 61.9316 199.102 61.7949C198.783 61.6582 198.503 61.4694 198.262 61.2285C198.027 60.9876 197.839 60.7077 197.695 60.3887C197.559 60.0697 197.49 59.7279 197.49 59.3633V53.1426H195.693V52H197.49V49.5977L198.691 49.4023V52H201.23V53.1426H198.691V59.4219C198.691 59.6237 198.727 59.8125 198.799 59.9883C198.877 60.1576 198.981 60.3073 199.111 60.4375C199.242 60.5677 199.395 60.6719 199.57 60.75C199.746 60.8216 199.935 60.8574 200.137 60.8574H201.23V62H200.137ZM210.127 59.2559C210.127 59.6595 210.049 60.0404 209.893 60.3984C209.743 60.7565 209.535 61.069 209.268 61.3359C209.001 61.6029 208.688 61.8145 208.33 61.9707C207.972 62.1204 207.591 62.1953 207.188 62.1953H206.387C205.983 62.1953 205.602 62.1204 205.244 61.9707C204.886 61.8145 204.574 61.6029 204.307 61.3359C204.04 61.069 203.828 60.7565 203.672 60.3984C203.522 60.0404 203.447 59.6595 203.447 59.2559V54.7441C203.447 54.3405 203.522 53.9596 203.672 53.6016C203.828 53.2435 204.04 52.931 204.307 52.6641C204.574 52.3971 204.886 52.1888 205.244 52.0391C205.602 51.8828 205.983 51.8047 206.387 51.8047H207.188C207.591 51.8047 207.972 51.8828 208.33 52.0391C208.688 52.1888 209.001 52.3971 209.268 52.6641C209.535 52.931 209.743 53.2435 209.893 53.6016C210.049 53.9596 210.127 54.3405 210.127 54.7441V57.0977H204.648V59.3242C204.648 59.5651 204.694 59.793 204.785 60.0078C204.876 60.2161 205 60.3984 205.156 60.5547C205.312 60.7109 205.495 60.8346 205.703 60.9258C205.918 61.0169 206.146 61.0625 206.387 61.0625H207.188C207.428 61.0625 207.653 61.0169 207.861 60.9258C208.076 60.8346 208.262 60.7109 208.418 60.5547C208.574 60.3984 208.698 60.2161 208.789 60.0078C208.88 59.793 208.926 59.5651 208.926 59.3242V58.6602L210.127 58.8555V59.2559ZM208.926 54.6758C208.926 54.4349 208.88 54.2103 208.789 54.002C208.698 53.7871 208.574 53.6016 208.418 53.4453C208.262 53.2891 208.076 53.1654 207.861 53.0742C207.653 52.9831 207.428 52.9375 207.188 52.9375H206.387C206.146 52.9375 205.918 52.9831 205.703 53.0742C205.495 53.1654 205.312 53.2891 205.156 53.4453C205 53.6016 204.876 53.7871 204.785 54.002C204.694 54.2103 204.648 54.4349 204.648 54.6758V56.1602H208.926V54.6758ZM215.469 53.1426C215.228 53.1426 215 53.1882 214.785 53.2793C214.577 53.3704 214.395 53.4941 214.238 53.6504C214.082 53.8066 213.958 53.9922 213.867 54.207C213.776 54.4154 213.73 54.64 213.73 54.8809V62H212.529V52H212.93L213.584 53.0156C213.857 52.6445 214.199 52.3516 214.609 52.1367C215.026 51.9154 215.479 51.8047 215.967 51.8047H216.67V53.1426H215.469ZM226.348 58.7578C226.348 59.2331 226.25 59.679 226.055 60.0957C225.866 60.5124 225.609 60.877 225.283 61.1895C224.964 61.502 224.59 61.7493 224.16 61.9316C223.737 62.1074 223.288 62.1953 222.812 62.1953H221.807C221.331 62.1953 220.879 62.1074 220.449 61.9316C220.026 61.7493 219.652 61.502 219.326 61.1895C219.007 60.877 218.75 60.5124 218.555 60.0957C218.366 59.679 218.271 59.2331 218.271 58.7578V58.2012L219.531 57.9961V58.7578C219.531 59.0703 219.593 59.3633 219.717 59.6367C219.847 59.9036 220.02 60.1413 220.234 60.3496C220.449 60.5514 220.697 60.7109 220.977 60.8281C221.263 60.9453 221.562 61.0039 221.875 61.0039H222.754C223.066 61.0039 223.363 60.9453 223.643 60.8281C223.923 60.7109 224.17 60.5514 224.385 60.3496C224.6 60.1413 224.769 59.9036 224.893 59.6367C225.023 59.3633 225.088 59.0703 225.088 58.7578V58.3379C225.088 57.8561 224.993 57.4557 224.805 57.1367C224.616 56.8177 224.365 56.5475 224.053 56.3262C223.74 56.0983 223.385 55.9062 222.988 55.75C222.598 55.5938 222.194 55.4375 221.777 55.2812C221.361 55.125 220.954 54.9525 220.557 54.7637C220.166 54.5749 219.814 54.3405 219.502 54.0605C219.189 53.7741 218.939 53.4258 218.75 53.0156C218.561 52.6055 218.467 52.1009 218.467 51.502V51.2383C218.467 50.763 218.555 50.3171 218.73 49.9004C218.913 49.4837 219.16 49.1191 219.473 48.8066C219.785 48.4941 220.15 48.25 220.566 48.0742C220.99 47.8919 221.439 47.8008 221.914 47.8008H222.812C223.288 47.8008 223.734 47.8919 224.15 48.0742C224.567 48.25 224.932 48.4941 225.244 48.8066C225.557 49.1191 225.801 49.4837 225.977 49.9004C226.159 50.3171 226.25 50.763 226.25 51.2383V51.5996L224.99 51.8047V51.2383C224.99 50.9258 224.932 50.6361 224.814 50.3691C224.697 50.0957 224.538 49.8581 224.336 49.6562C224.134 49.4544 223.896 49.2949 223.623 49.1777C223.356 49.0605 223.066 49.002 222.754 49.002H221.973C221.66 49.002 221.367 49.0605 221.094 49.1777C220.827 49.2949 220.589 49.4544 220.381 49.6562C220.179 49.8581 220.02 50.0957 219.902 50.3691C219.785 50.6361 219.727 50.9258 219.727 51.2383V51.502C219.727 51.9512 219.821 52.3288 220.01 52.6348C220.199 52.9408 220.449 53.2044 220.762 53.4258C221.074 53.6406 221.426 53.8294 221.816 53.9922C222.214 54.1484 222.62 54.3112 223.037 54.4805C223.454 54.6432 223.857 54.8255 224.248 55.0273C224.645 55.2227 225 55.4668 225.312 55.7598C225.625 56.0462 225.876 56.3978 226.064 56.8145C226.253 57.2311 226.348 57.7389 226.348 58.3379V58.7578ZM232.305 62C231.94 62 231.595 61.9316 231.27 61.7949C230.951 61.6582 230.671 61.4694 230.43 61.2285C230.195 60.9876 230.007 60.7077 229.863 60.3887C229.727 60.0697 229.658 59.7279 229.658 59.3633V53.1426H227.861V52H229.658V49.5977L230.859 49.4023V52H233.398V53.1426H230.859V59.4219C230.859 59.6237 230.895 59.8125 230.967 59.9883C231.045 60.1576 231.149 60.3073 231.279 60.4375C231.41 60.5677 231.562 60.6719 231.738 60.75C231.914 60.8216 232.103 60.8574 232.305 60.8574H233.398V62H232.305ZM238.555 53.1426C238.314 53.1426 238.086 53.1882 237.871 53.2793C237.663 53.3704 237.48 53.4941 237.324 53.6504C237.168 53.8066 237.044 53.9922 236.953 54.207C236.862 54.4154 236.816 54.64 236.816 54.8809V62H235.615V52H236.016L236.67 53.0156C236.943 52.6445 237.285 52.3516 237.695 52.1367C238.112 51.9154 238.564 51.8047 239.053 51.8047H239.756V53.1426H238.555ZM247.637 62L246.973 60.9844C246.699 61.3555 246.357 61.6517 245.947 61.873C245.537 62.0879 245.088 62.1953 244.6 62.1953H244.297C243.893 62.1953 243.512 62.1204 243.154 61.9707C242.796 61.8145 242.484 61.6029 242.217 61.3359C241.95 61.069 241.738 60.7565 241.582 60.3984C241.432 60.0404 241.357 59.6595 241.357 59.2559V52H242.559V59.3242C242.559 59.5651 242.604 59.793 242.695 60.0078C242.786 60.2161 242.91 60.3984 243.066 60.5547C243.223 60.7109 243.405 60.8346 243.613 60.9258C243.828 61.0169 244.056 61.0625 244.297 61.0625H245.098C245.339 61.0625 245.563 61.0169 245.771 60.9258C245.986 60.8346 246.172 60.7109 246.328 60.5547C246.484 60.3984 246.608 60.2161 246.699 60.0078C246.79 59.793 246.836 59.5651 246.836 59.3242V52H248.037V62H247.637ZM256.719 62L256.055 60.9844C255.781 61.3555 255.439 61.6517 255.029 61.873C254.619 62.0879 254.17 62.1953 253.682 62.1953H253.379C252.975 62.1953 252.594 62.1204 252.236 61.9707C251.878 61.8145 251.566 61.6029 251.299 61.3359C251.032 61.069 250.82 60.7565 250.664 60.3984C250.514 60.0404 250.439 59.6595 250.439 59.2559V54.7441C250.439 54.3405 250.514 53.9596 250.664 53.6016C250.82 53.2435 251.032 52.931 251.299 52.6641C251.566 52.3971 251.878 52.1888 252.236 52.0391C252.594 51.8828 252.975 51.8047 253.379 51.8047H253.682C254.131 51.8047 254.548 51.8958 254.932 52.0781C255.316 52.2604 255.645 52.5143 255.918 52.8398V47.9961H257.119V62H256.719ZM255.918 54.6758C255.918 54.4349 255.872 54.2103 255.781 54.002C255.69 53.7871 255.566 53.6016 255.41 53.4453C255.254 53.2891 255.068 53.1654 254.854 53.0742C254.645 52.9831 254.421 52.9375 254.18 52.9375H253.379C253.138 52.9375 252.91 52.9831 252.695 53.0742C252.487 53.1654 252.305 53.2891 252.148 53.4453C251.992 53.6016 251.868 53.7871 251.777 54.002C251.686 54.2103 251.641 54.4349 251.641 54.6758V59.3242C251.641 59.5651 251.686 59.793 251.777 60.0078C251.868 60.2161 251.992 60.3984 252.148 60.5547C252.305 60.7109 252.487 60.8346 252.695 60.9258C252.91 61.0169 253.138 61.0625 253.379 61.0625H254.18C254.421 61.0625 254.645 61.0169 254.854 60.9258C255.068 60.8346 255.254 60.7109 255.41 60.5547C255.566 60.3984 255.69 60.2161 255.781 60.0078C255.872 59.793 255.918 59.5651 255.918 59.3242V54.6758ZM266.201 59.2559C266.201 59.6595 266.123 60.0404 265.967 60.3984C265.817 60.7565 265.609 61.069 265.342 61.3359C265.075 61.6029 264.762 61.8145 264.404 61.9707C264.046 62.1204 263.665 62.1953 263.262 62.1953H262.461C262.057 62.1953 261.676 62.1204 261.318 61.9707C260.96 61.8145 260.648 61.6029 260.381 61.3359C260.114 61.069 259.902 60.7565 259.746 60.3984C259.596 60.0404 259.521 59.6595 259.521 59.2559V54.7441C259.521 54.3405 259.596 53.9596 259.746 53.6016C259.902 53.2435 260.114 52.931 260.381 52.6641C260.648 52.3971 260.96 52.1888 261.318 52.0391C261.676 51.8828 262.057 51.8047 262.461 51.8047H263.262C263.665 51.8047 264.046 51.8828 264.404 52.0391C264.762 52.1888 265.075 52.3971 265.342 52.6641C265.609 52.931 265.817 53.2435 265.967 53.6016C266.123 53.9596 266.201 54.3405 266.201 54.7441V57.0977H260.723V59.3242C260.723 59.5651 260.768 59.793 260.859 60.0078C260.951 60.2161 261.074 60.3984 261.23 60.5547C261.387 60.7109 261.569 60.8346 261.777 60.9258C261.992 61.0169 262.22 61.0625 262.461 61.0625H263.262C263.503 61.0625 263.727 61.0169 263.936 60.9258C264.15 60.8346 264.336 60.7109 264.492 60.5547C264.648 60.3984 264.772 60.2161 264.863 60.0078C264.954 59.793 265 59.5651 265 59.3242V58.6602L266.201 58.8555V59.2559ZM265 54.6758C265 54.4349 264.954 54.2103 264.863 54.002C264.772 53.7871 264.648 53.6016 264.492 53.4453C264.336 53.2891 264.15 53.1654 263.936 53.0742C263.727 52.9831 263.503 52.9375 263.262 52.9375H262.461C262.22 52.9375 261.992 52.9831 261.777 53.0742C261.569 53.1654 261.387 53.2891 261.23 53.4453C261.074 53.6016 260.951 53.7871 260.859 54.002C260.768 54.2103 260.723 54.4349 260.723 54.6758V56.1602H265V54.6758ZM269.004 62V47.9961H270.205V62H269.004Z" fill="black"/>
<path d="M180.64 75.704C180.64 76.592 180.488 77.368 180.184 78.032C179.888 78.688 179.448 79.2 178.864 79.568C178.28 79.936 177.556 80.12 176.692 80.12C175.804 80.12 175.064 79.936 174.472 79.568C173.888 79.2 173.452 78.684 173.164 78.02C172.876 77.356 172.732 76.58 172.732 75.692C172.732 74.812 172.876 74.044 173.164 73.388C173.452 72.732 173.888 72.22 174.472 71.852C175.064 71.484 175.808 71.3 176.704 71.3C177.56 71.3 178.28 71.484 178.864 71.852C179.448 72.212 179.888 72.724 180.184 73.388C180.488 74.044 180.64 74.816 180.64 75.704ZM173.872 75.704C173.872 76.784 174.1 77.636 174.556 78.26C175.012 78.876 175.724 79.184 176.692 79.184C177.668 79.184 178.38 78.876 178.828 78.26C179.276 77.636 179.5 76.784 179.5 75.704C179.5 74.624 179.276 73.78 178.828 73.172C178.38 72.556 177.672 72.248 176.704 72.248C175.736 72.248 175.02 72.556 174.556 73.172C174.1 73.78 173.872 74.624 173.872 75.704ZM185.491 73.448C186.259 73.448 186.839 73.636 187.231 74.012C187.623 74.38 187.819 74.98 187.819 75.812V80H186.775V75.884C186.775 74.852 186.295 74.336 185.335 74.336C184.623 74.336 184.131 74.536 183.859 74.936C183.587 75.336 183.451 75.912 183.451 76.664V80H182.395V73.568H183.247L183.403 74.444H183.463C183.671 74.108 183.959 73.86 184.327 73.7C184.695 73.532 185.083 73.448 185.491 73.448ZM190.869 80H189.813V70.88H190.869V80ZM193.447 71.156C193.607 71.156 193.747 71.212 193.867 71.324C193.995 71.428 194.059 71.596 194.059 71.828C194.059 72.052 193.995 72.22 193.867 72.332C193.747 72.444 193.607 72.5 193.447 72.5C193.271 72.5 193.123 72.444 193.003 72.332C192.883 72.22 192.823 72.052 192.823 71.828C192.823 71.596 192.883 71.428 193.003 71.324C193.123 71.212 193.271 71.156 193.447 71.156ZM193.963 73.568V80H192.907V73.568H193.963ZM199.096 73.448C199.864 73.448 200.444 73.636 200.836 74.012C201.228 74.38 201.424 74.98 201.424 75.812V80H200.38V75.884C200.38 74.852 199.9 74.336 198.94 74.336C198.228 74.336 197.736 74.536 197.464 74.936C197.192 75.336 197.056 75.912 197.056 76.664V80H196V73.568H196.852L197.008 74.444H197.068C197.276 74.108 197.564 73.86 197.932 73.7C198.3 73.532 198.688 73.448 199.096 73.448ZM205.902 73.448C206.454 73.448 206.926 73.568 207.318 73.808C207.718 74.048 208.022 74.388 208.23 74.828C208.446 75.26 208.554 75.768 208.554 76.352V76.988H204.15C204.166 77.716 204.35 78.272 204.702 78.656C205.062 79.032 205.562 79.22 206.202 79.22C206.61 79.22 206.97 79.184 207.282 79.112C207.602 79.032 207.93 78.92 208.266 78.776V79.7C207.938 79.844 207.614 79.948 207.294 80.012C206.974 80.084 206.594 80.12 206.154 80.12C205.546 80.12 205.006 79.996 204.534 79.748C204.07 79.5 203.706 79.132 203.442 78.644C203.186 78.148 203.058 77.544 203.058 76.832C203.058 76.128 203.174 75.524 203.406 75.02C203.646 74.516 203.978 74.128 204.402 73.856C204.834 73.584 205.334 73.448 205.902 73.448ZM205.89 74.312C205.386 74.312 204.986 74.476 204.69 74.804C204.402 75.124 204.23 75.572 204.174 76.148H207.45C207.442 75.604 207.314 75.164 207.066 74.828C206.818 74.484 206.426 74.312 205.89 74.312Z" fill="#828282"/>
<circle cx="164" cy="76" r="4" fill="#6FCF97"/>
<circle cx="130" cy="63" r="22" fill="#BDBDBD"/>
<path d="M47.2573 21.684C47.2573 22.444 46.9813 23.04 46.4293 23.472C45.8773 23.904 45.1213 24.12 44.1613 24.12C43.6973 24.12 43.2573 24.08 42.8413 24C42.4333 23.928 42.0853 23.82 41.7973 23.676V22.452C42.1173 22.596 42.4933 22.728 42.9253 22.848C43.3573 22.96 43.7973 23.016 44.2453 23.016C44.8213 23.016 45.2533 22.904 45.5413 22.68C45.8293 22.456 45.9733 22.156 45.9733 21.78C45.9733 21.516 45.9053 21.296 45.7693 21.12C45.6413 20.936 45.4373 20.768 45.1573 20.616C44.8773 20.464 44.5093 20.296 44.0533 20.112C43.6293 19.952 43.2533 19.764 42.9253 19.548C42.6053 19.332 42.3533 19.064 42.1693 18.744C41.9853 18.424 41.8933 18.032 41.8933 17.568C41.8933 16.864 42.1493 16.312 42.6613 15.912C43.1733 15.512 43.8453 15.312 44.6773 15.312C45.1413 15.312 45.5693 15.36 45.9613 15.456C46.3613 15.544 46.7413 15.668 47.1013 15.828L46.6933 16.896C46.3653 16.76 46.0293 16.648 45.6853 16.56C45.3493 16.472 45.0013 16.428 44.6413 16.428C44.1693 16.428 43.8093 16.532 43.5613 16.74C43.3133 16.948 43.1893 17.22 43.1893 17.556C43.1893 17.82 43.2493 18.044 43.3693 18.228C43.4893 18.404 43.6813 18.564 43.9453 18.708C44.2093 18.852 44.5573 19.012 44.9893 19.188C45.4693 19.38 45.8773 19.584 46.2133 19.8C46.5573 20.008 46.8173 20.264 46.9933 20.568C47.1693 20.864 47.2573 21.236 47.2573 21.684ZM51.3349 15.432C52.4549 15.432 53.2709 15.66 53.7829 16.116C54.2949 16.564 54.5509 17.192 54.5509 18C54.5509 18.48 54.4429 18.928 54.2269 19.344C54.0189 19.76 53.6669 20.1 53.1709 20.364C52.6749 20.62 52.0029 20.748 51.1549 20.748H50.2309V24H48.9349V15.432H51.3349ZM51.2389 16.524H50.2309V19.656H51.0109C51.7389 19.656 52.2869 19.532 52.6549 19.284C53.0309 19.036 53.2189 18.624 53.2189 18.048C53.2189 17.536 53.0589 17.156 52.7389 16.908C52.4189 16.652 51.9189 16.524 51.2389 16.524ZM62.9306 15.432V20.976C62.9306 21.568 62.8066 22.104 62.5586 22.584C62.3106 23.056 61.9346 23.432 61.4306 23.712C60.9346 23.984 60.3026 24.12 59.5346 24.12C58.4466 24.12 57.6186 23.832 57.0506 23.256C56.4906 22.672 56.2106 21.904 56.2106 20.952V15.432H57.5066V20.892C57.5066 22.308 58.2026 23.016 59.5946 23.016C60.3146 23.016 60.8346 22.824 61.1546 22.44C61.4826 22.056 61.6466 21.536 61.6466 20.88V15.432H62.9306ZM72.078 19.632C72.078 21.08 71.678 22.172 70.878 22.908C70.086 23.636 68.974 24 67.542 24H65.142V15.432H67.794C68.666 15.432 69.422 15.592 70.062 15.912C70.702 16.232 71.198 16.704 71.55 17.328C71.902 17.944 72.078 18.712 72.078 19.632ZM70.722 19.668C70.722 18.588 70.458 17.796 69.93 17.292C69.41 16.78 68.67 16.524 67.71 16.524H66.438V22.908H67.482C69.642 22.908 70.722 21.828 70.722 19.668Z" fill="#141414"/>
<path d="M85.7825 21.2552L86.8319 22.2986C87.182 21.9496 87.5978 21.6727 88.0556 21.4838C88.5135 21.2949 89.0043 21.1977 89.5 21.1977C89.9957 21.1977 90.4865 21.2949 90.9444 21.4838C91.4022 21.6727 91.818 21.9496 92.1681 22.2986L93.2175 21.2552C92.7294 20.7696 92.1499 20.3844 91.512 20.1217C90.8741 19.8589 90.1905 19.7236 89.5 19.7236C88.8096 19.7236 88.1259 19.8589 87.488 20.1217C86.8501 20.3844 86.2706 20.7696 85.7825 21.2552V21.2552ZM83.3924 18.8787L84.4418 19.9221C85.1054 19.2605 85.8937 18.7355 86.7617 18.3773C87.6297 18.0191 88.5602 17.8347 89.5 17.8347C90.4398 17.8347 91.3703 18.0191 92.2383 18.3773C93.1063 18.7355 93.8946 19.2605 94.5582 19.9221L95.6093 18.877C94.8072 18.0794 93.8549 17.4467 92.8069 17.0151C91.7588 16.5834 90.6355 16.3612 89.5011 16.3612C88.3667 16.3612 87.2434 16.5834 86.1953 17.0151C85.1473 17.4467 84.195 18.0794 83.3929 18.877L83.3924 18.8787ZM89.5 13C87.9211 12.998 86.3573 13.3062 84.8985 13.9071C83.4398 14.5079 82.1149 15.3895 81 16.5011L82.0517 17.5468C83.0289 16.5727 84.1898 15.7999 85.468 15.2726C86.7461 14.7453 88.1162 14.4739 89.5 14.4739C90.8838 14.4739 92.2539 14.7453 93.532 15.2726C94.8102 15.7999 95.9711 16.5727 96.9483 17.5468L98 16.5011C96.8851 15.3895 95.5602 14.5079 94.1015 13.9071C92.6427 13.3062 91.0789 12.998 89.5 13V13ZM89.5 22.7894C89.2801 22.7894 89.0652 22.8542 88.8824 22.9756C88.6996 23.0971 88.5571 23.2697 88.4729 23.4717C88.3888 23.6737 88.3668 23.8959 88.4097 24.1103C88.4526 24.3247 88.5584 24.5217 88.7139 24.6763C88.8694 24.8309 89.0675 24.9361 89.2831 24.9788C89.4988 25.0214 89.7223 24.9995 89.9254 24.9159C90.1286 24.8322 90.3022 24.6905 90.4243 24.5088C90.5465 24.327 90.6117 24.1133 90.6117 23.8947C90.6117 23.6015 90.4946 23.3204 90.2861 23.1131C90.0776 22.9058 89.7948 22.7894 89.5 22.7894V22.7894Z" fill="#141414"/>
</svg>
