<svg width="311" height="123" viewBox="0 0 311 123" fill="none" xmlns="http://www.w3.org/2000/svg">
<rect x="2" y="5" width="309" height="118" rx="50" fill="#141414"/>
<rect x="1.5" y="1.5" width="306" height="115" rx="48.5" fill="#52BDF9" stroke="#141414" stroke-width="3"/>
<path d="M69.632 58.864C71.84 58.864 73.448 59.344 74.456 60.304C75.48 61.248 75.992 62.552 75.992 64.216C75.992 65.208 75.784 66.144 75.368 67.024C74.952 67.888 74.256 68.584 73.28 69.112C72.32 69.64 71.008 69.904 69.344 69.904H67.784V76H64.16V58.864H69.632ZM69.44 61.84H67.784V66.928H68.984C70.008 66.928 70.816 66.728 71.408 66.328C72.016 65.912 72.32 65.248 72.32 64.336C72.32 62.672 71.36 61.84 69.44 61.84ZM77.7903 71.032V68.104H84.0783V71.032H77.7903ZM102.517 67.408C102.517 69.184 102.221 70.736 101.629 72.064C101.053 73.376 100.165 74.4 98.9647 75.136C97.7647 75.872 96.2287 76.24 94.3567 76.24C92.5007 76.24 90.9647 75.872 89.7487 75.136C88.5487 74.4 87.6527 73.368 87.0607 72.04C86.4847 70.712 86.1967 69.16 86.1967 67.384C86.1967 65.608 86.4847 64.064 87.0607 62.752C87.6527 61.44 88.5487 60.424 89.7487 59.704C90.9647 58.968 92.5087 58.6 94.3807 58.6C96.2367 58.6 97.7647 58.968 98.9647 59.704C100.165 60.424 101.053 61.448 101.629 62.776C102.221 64.088 102.517 65.632 102.517 67.408ZM90.0127 67.408C90.0127 69.2 90.3567 70.616 91.0447 71.656C91.7327 72.68 92.8367 73.192 94.3567 73.192C95.9087 73.192 97.0207 72.68 97.6927 71.656C98.3647 70.616 98.7007 69.2 98.7007 67.408C98.7007 65.6 98.3647 64.184 97.6927 63.16C97.0207 62.136 95.9167 61.624 94.3807 61.624C92.8447 61.624 91.7327 62.136 91.0447 63.16C90.3567 64.184 90.0127 65.6 90.0127 67.408ZM104.626 71.032V68.104H110.914V71.032H104.626ZM119.44 76H115.816V61.888H111.16V58.864H124.096V61.888H119.44V76ZM124.337 71.032V68.104H130.625V71.032H124.337ZM144 76L142.752 71.92H136.512L135.264 76H131.352L137.4 58.792H141.84L147.912 76H144ZM141.888 68.872L140.64 64.888C140.56 64.616 140.456 64.272 140.328 63.856C140.2 63.44 140.072 63.016 139.944 62.584C139.816 62.152 139.712 61.776 139.632 61.456C139.552 61.776 139.44 62.176 139.296 62.656C139.168 63.12 139.04 63.568 138.912 64C138.8 64.416 138.712 64.712 138.648 64.888L137.424 68.872H141.888ZM148.642 71.032V68.104H154.93V71.032H148.642ZM163.455 76H159.831V61.888H155.175V58.864H168.111V61.888H163.455V76ZM168.353 71.032V68.104H174.641V71.032H168.353ZM193.079 67.408C193.079 69.184 192.783 70.736 192.191 72.064C191.615 73.376 190.727 74.4 189.527 75.136C188.327 75.872 186.791 76.24 184.919 76.24C183.063 76.24 181.527 75.872 180.311 75.136C179.111 74.4 178.215 73.368 177.623 72.04C177.047 70.712 176.759 69.16 176.759 67.384C176.759 65.608 177.047 64.064 177.623 62.752C178.215 61.44 179.111 60.424 180.311 59.704C181.527 58.968 183.071 58.6 184.943 58.6C186.799 58.6 188.327 58.968 189.527 59.704C190.727 60.424 191.615 61.448 192.191 62.776C192.783 64.088 193.079 65.632 193.079 67.408ZM180.575 67.408C180.575 69.2 180.919 70.616 181.607 71.656C182.295 72.68 183.399 73.192 184.919 73.192C186.471 73.192 187.583 72.68 188.255 71.656C188.927 70.616 189.263 69.2 189.263 67.408C189.263 65.6 188.927 64.184 188.255 63.16C187.583 62.136 186.479 61.624 184.943 61.624C183.407 61.624 182.295 62.136 181.607 63.16C180.919 64.184 180.575 65.6 180.575 67.408ZM195.189 71.032V68.104H201.477V71.032H195.189ZM214.227 76H204.363V58.864H214.227V61.84H207.987V65.608H213.795V68.584H207.987V73H214.227V76ZM216.353 71.032V68.104H222.641V71.032H216.353ZM235.631 71.248C235.631 72.768 235.079 73.984 233.975 74.896C232.887 75.792 231.335 76.24 229.319 76.24C227.511 76.24 225.895 75.896 224.471 75.208V71.824C225.287 72.176 226.127 72.504 226.991 72.808C227.871 73.096 228.743 73.24 229.607 73.24C230.503 73.24 231.135 73.072 231.503 72.736C231.887 72.384 232.079 71.944 232.079 71.416C232.079 70.984 231.927 70.616 231.623 70.312C231.335 70.008 230.943 69.728 230.447 69.472C229.951 69.2 229.383 68.912 228.743 68.608C228.343 68.416 227.911 68.192 227.447 67.936C226.983 67.664 226.535 67.336 226.103 66.952C225.687 66.552 225.343 66.072 225.071 65.512C224.799 64.952 224.663 64.28 224.663 63.496C224.663 61.96 225.183 60.768 226.223 59.92C227.263 59.056 228.679 58.624 230.471 58.624C231.367 58.624 232.215 58.728 233.015 58.936C233.831 59.144 234.679 59.44 235.559 59.824L234.383 62.656C233.599 62.336 232.895 62.088 232.271 61.912C231.647 61.736 231.007 61.648 230.351 61.648C229.663 61.648 229.135 61.808 228.767 62.128C228.399 62.448 228.215 62.864 228.215 63.376C228.215 63.984 228.487 64.464 229.031 64.816C229.575 65.168 230.383 65.6 231.455 66.112C232.335 66.528 233.079 66.96 233.687 67.408C234.311 67.856 234.791 68.384 235.127 68.992C235.463 69.6 235.631 70.352 235.631 71.248Z" fill="#333333"/>
<rect x="24" y="13" width="261" height="23" rx="11.5" fill="#A5DCFB"/>
</svg>
