<svg width="736" height="140" viewBox="0 0 736 140" fill="none" xmlns="http://www.w3.org/2000/svg">
<rect x="1.5" y="1.5" width="733" height="137" rx="48.5" fill="#D1F2FD" stroke="black" stroke-width="3"/>
<path d="M48.376 58H45.304V43.456H40.384V40.864H53.296V43.456H48.376V58ZM58.6555 39.76V44.104C58.6555 44.616 58.6315 45.12 58.5835 45.616C58.5515 46.096 58.5195 46.456 58.4875 46.696H58.6795C59.0955 46.04 59.6395 45.552 60.3115 45.232C60.9835 44.912 61.7275 44.752 62.5435 44.752C64.0155 44.752 65.1675 45.128 65.9995 45.88C66.8315 46.632 67.2475 47.848 67.2475 49.528V58H64.2235V50.128C64.2235 48.176 63.4235 47.2 61.8235 47.2C60.6075 47.2 59.7755 47.584 59.3275 48.352C58.8795 49.12 58.6555 50.216 58.6555 51.64V58H55.6315V39.76H58.6555ZM72.5419 39.976C73.0059 39.976 73.3979 40.096 73.7179 40.336C74.0539 40.56 74.2219 40.968 74.2219 41.56C74.2219 42.152 74.0539 42.568 73.7179 42.808C73.3979 43.048 73.0059 43.168 72.5419 43.168C72.0779 43.168 71.6779 43.048 71.3419 42.808C71.0219 42.568 70.8619 42.152 70.8619 41.56C70.8619 40.968 71.0219 40.56 71.3419 40.336C71.6779 40.096 72.0779 39.976 72.5419 39.976ZM74.0539 44.992V58H71.0299V44.992H74.0539ZM86.7766 54.232C86.7766 55.544 86.3046 56.544 85.3606 57.232C84.4326 57.904 83.0966 58.24 81.3526 58.24C80.4406 58.24 79.6566 58.176 79.0006 58.048C78.3606 57.92 77.7366 57.72 77.1286 57.448V54.88C77.7686 55.184 78.4726 55.44 79.2406 55.648C80.0246 55.856 80.7606 55.96 81.4486 55.96C82.2806 55.96 82.8806 55.832 83.2486 55.576C83.6166 55.32 83.8006 54.976 83.8006 54.544C83.8006 54.288 83.7286 54.064 83.5846 53.872C83.4406 53.664 83.1526 53.44 82.7206 53.2C82.3046 52.96 81.6806 52.664 80.8486 52.312C80.0166 51.992 79.3206 51.664 78.7606 51.328C78.2166 50.976 77.8006 50.568 77.5126 50.104C77.2406 49.64 77.1046 49.04 77.1046 48.304C77.1046 47.136 77.5606 46.256 78.4726 45.664C79.4006 45.056 80.6326 44.752 82.1686 44.752C82.9686 44.752 83.7206 44.832 84.4246 44.992C85.1446 45.152 85.8646 45.392 86.5846 45.712L85.6246 47.944C85.0166 47.688 84.4246 47.472 83.8486 47.296C83.2726 47.12 82.6806 47.032 82.0726 47.032C80.7446 47.032 80.0806 47.408 80.0806 48.16C80.0806 48.432 80.1606 48.664 80.3206 48.856C80.4966 49.048 80.7926 49.256 81.2086 49.48C81.6406 49.688 82.2486 49.944 83.0326 50.248C83.8006 50.552 84.4646 50.872 85.0246 51.208C85.5846 51.528 86.0166 51.928 86.3206 52.408C86.6246 52.888 86.7766 53.496 86.7766 54.232ZM106.577 58L105.137 52.408C105.057 52.104 104.961 51.728 104.849 51.28C104.737 50.816 104.617 50.336 104.489 49.84C104.377 49.344 104.273 48.888 104.177 48.472C104.081 48.056 104.009 47.736 103.961 47.512H103.865C103.817 47.736 103.745 48.056 103.649 48.472C103.553 48.888 103.449 49.352 103.337 49.864C103.225 50.36 103.105 50.84 102.977 51.304C102.865 51.752 102.769 52.128 102.689 52.432L101.177 58H97.8646L94.2166 44.968H97.2646L98.8726 51.184C98.9846 51.616 99.0886 52.096 99.1846 52.624C99.2966 53.136 99.3846 53.64 99.4486 54.136C99.5286 54.616 99.5926 55.008 99.6406 55.312H99.7366C99.7686 55.024 99.8246 54.632 99.9046 54.136C100.001 53.64 100.097 53.16 100.193 52.696C100.289 52.216 100.369 51.856 100.433 51.616L102.305 44.968H105.617L107.417 51.616C107.481 51.904 107.561 52.28 107.657 52.744C107.769 53.208 107.865 53.68 107.945 54.16C108.025 54.624 108.073 55 108.089 55.288H108.185C108.217 55.032 108.273 54.664 108.353 54.184C108.433 53.704 108.529 53.192 108.641 52.648C108.753 52.104 108.873 51.616 109.001 51.184L110.633 44.968H113.633L109.937 58H106.577ZM121.074 44.752C122.818 44.752 124.194 45.272 125.202 46.312C126.226 47.352 126.738 48.8 126.738 50.656V52.192H118.146C118.178 53.376 118.506 54.296 119.13 54.952C119.754 55.592 120.618 55.912 121.722 55.912C122.554 55.912 123.306 55.832 123.978 55.672C124.65 55.496 125.338 55.248 126.042 54.928V57.352C125.402 57.656 124.738 57.88 124.05 58.024C123.362 58.168 122.538 58.24 121.578 58.24C120.314 58.24 119.186 58 118.194 57.52C117.218 57.024 116.45 56.28 115.89 55.288C115.346 54.296 115.074 53.064 115.074 51.592C115.074 49.368 115.626 47.672 116.73 46.504C117.834 45.336 119.282 44.752 121.074 44.752ZM121.074 46.984C120.258 46.984 119.594 47.248 119.082 47.776C118.586 48.288 118.298 49.056 118.218 50.08H123.81C123.794 49.184 123.562 48.448 123.114 47.872C122.682 47.28 122.002 46.984 121.074 46.984ZM132.812 39.76V44.08C132.812 44.592 132.796 45.088 132.764 45.568C132.732 46.048 132.7 46.424 132.668 46.696H132.812C133.164 46.152 133.644 45.696 134.252 45.328C134.86 44.944 135.652 44.752 136.628 44.752C138.132 44.752 139.348 45.32 140.276 46.456C141.22 47.592 141.692 49.264 141.692 51.472C141.692 53.712 141.22 55.4 140.276 56.536C139.332 57.672 138.092 58.24 136.556 58.24C135.58 58.24 134.796 58.064 134.204 57.712C133.628 57.36 133.164 56.952 132.812 56.488H132.596L132.044 58H129.788V39.76H132.812ZM135.764 47.2C134.676 47.2 133.916 47.528 133.484 48.184C133.052 48.84 132.828 49.848 132.812 51.208V51.472C132.812 52.864 133.02 53.928 133.436 54.664C133.868 55.4 134.66 55.768 135.812 55.768C136.708 55.768 137.396 55.4 137.876 54.664C138.356 53.912 138.596 52.84 138.596 51.448C138.596 50.024 138.348 48.96 137.852 48.256C137.372 47.552 136.676 47.2 135.764 47.2ZM153.667 54.232C153.667 55.544 153.195 56.544 152.251 57.232C151.323 57.904 149.987 58.24 148.243 58.24C147.331 58.24 146.547 58.176 145.891 58.048C145.251 57.92 144.627 57.72 144.019 57.448V54.88C144.659 55.184 145.363 55.44 146.131 55.648C146.915 55.856 147.651 55.96 148.339 55.96C149.171 55.96 149.771 55.832 150.139 55.576C150.507 55.32 150.691 54.976 150.691 54.544C150.691 54.288 150.619 54.064 150.475 53.872C150.331 53.664 150.043 53.44 149.611 53.2C149.195 52.96 148.571 52.664 147.739 52.312C146.907 51.992 146.211 51.664 145.651 51.328C145.107 50.976 144.691 50.568 144.403 50.104C144.131 49.64 143.995 49.04 143.995 48.304C143.995 47.136 144.451 46.256 145.363 45.664C146.291 45.056 147.523 44.752 149.059 44.752C149.859 44.752 150.611 44.832 151.315 44.992C152.035 45.152 152.755 45.392 153.475 45.712L152.515 47.944C151.907 47.688 151.315 47.472 150.739 47.296C150.163 47.12 149.571 47.032 148.963 47.032C147.635 47.032 146.971 47.408 146.971 48.16C146.971 48.432 147.051 48.664 147.211 48.856C147.387 49.048 147.683 49.256 148.099 49.48C148.531 49.688 149.139 49.944 149.923 50.248C150.691 50.552 151.355 50.872 151.915 51.208C152.475 51.528 152.907 51.928 153.211 52.408C153.515 52.888 153.667 53.496 153.667 54.232ZM158.089 39.976C158.553 39.976 158.945 40.096 159.265 40.336C159.601 40.56 159.769 40.968 159.769 41.56C159.769 42.152 159.601 42.568 159.265 42.808C158.945 43.048 158.553 43.168 158.089 43.168C157.625 43.168 157.225 43.048 156.889 42.808C156.569 42.568 156.409 42.152 156.409 41.56C156.409 40.968 156.569 40.56 156.889 40.336C157.225 40.096 157.625 39.976 158.089 39.976ZM159.601 44.992V58H156.577V44.992H159.601ZM168.507 55.816C168.875 55.816 169.235 55.784 169.587 55.72C169.955 55.64 170.291 55.552 170.595 55.456V57.712C170.275 57.856 169.859 57.976 169.347 58.072C168.835 58.184 168.299 58.24 167.739 58.24C167.003 58.24 166.331 58.12 165.723 57.88C165.115 57.624 164.635 57.192 164.283 56.584C163.931 55.976 163.755 55.128 163.755 54.04V47.272H162.003V45.952L163.923 44.896L164.883 42.136H166.779V44.992H170.475V47.272H166.779V54.016C166.779 54.624 166.939 55.08 167.259 55.384C167.579 55.672 167.995 55.816 168.507 55.816ZM178.449 44.752C180.193 44.752 181.569 45.272 182.577 46.312C183.601 47.352 184.113 48.8 184.113 50.656V52.192H175.521C175.553 53.376 175.881 54.296 176.505 54.952C177.129 55.592 177.993 55.912 179.097 55.912C179.929 55.912 180.681 55.832 181.353 55.672C182.025 55.496 182.713 55.248 183.417 54.928V57.352C182.777 57.656 182.113 57.88 181.425 58.024C180.737 58.168 179.913 58.24 178.953 58.24C177.689 58.24 176.561 58 175.569 57.52C174.593 57.024 173.825 56.28 173.265 55.288C172.721 54.296 172.449 53.064 172.449 51.592C172.449 49.368 173.001 47.672 174.105 46.504C175.209 45.336 176.657 44.752 178.449 44.752ZM178.449 46.984C177.633 46.984 176.969 47.248 176.457 47.776C175.961 48.288 175.673 49.056 175.593 50.08H181.185C181.169 49.184 180.937 48.448 180.489 47.872C180.057 47.28 179.377 46.984 178.449 46.984ZM204.941 44.992V58H202.565L202.157 56.32H202.013C201.581 56.992 200.997 57.48 200.261 57.784C199.541 58.088 198.773 58.24 197.957 58.24C196.501 58.24 195.357 57.864 194.525 57.112C193.709 56.36 193.301 55.152 193.301 53.488V44.992H196.325V52.888C196.325 54.824 197.125 55.792 198.725 55.792C199.941 55.792 200.773 55.416 201.221 54.664C201.685 53.896 201.917 52.792 201.917 51.352V44.992H204.941ZM217.652 54.232C217.652 55.544 217.18 56.544 216.236 57.232C215.308 57.904 213.972 58.24 212.228 58.24C211.316 58.24 210.532 58.176 209.876 58.048C209.236 57.92 208.612 57.72 208.004 57.448V54.88C208.644 55.184 209.348 55.44 210.116 55.648C210.9 55.856 211.636 55.96 212.324 55.96C213.156 55.96 213.756 55.832 214.124 55.576C214.492 55.32 214.676 54.976 214.676 54.544C214.676 54.288 214.604 54.064 214.46 53.872C214.316 53.664 214.028 53.44 213.596 53.2C213.18 52.96 212.556 52.664 211.724 52.312C210.892 51.992 210.196 51.664 209.636 51.328C209.092 50.976 208.676 50.568 208.388 50.104C208.116 49.64 207.98 49.04 207.98 48.304C207.98 47.136 208.436 46.256 209.348 45.664C210.276 45.056 211.508 44.752 213.044 44.752C213.844 44.752 214.596 44.832 215.3 44.992C216.02 45.152 216.74 45.392 217.46 45.712L216.5 47.944C215.892 47.688 215.3 47.472 214.724 47.296C214.148 47.12 213.556 47.032 212.948 47.032C211.62 47.032 210.956 47.408 210.956 48.16C210.956 48.432 211.036 48.664 211.196 48.856C211.372 49.048 211.668 49.256 212.084 49.48C212.516 49.688 213.124 49.944 213.908 50.248C214.676 50.552 215.34 50.872 215.9 51.208C216.46 51.528 216.892 51.928 217.196 52.408C217.5 52.888 217.652 53.496 217.652 54.232ZM225.793 44.752C227.537 44.752 228.913 45.272 229.921 46.312C230.945 47.352 231.457 48.8 231.457 50.656V52.192H222.865C222.897 53.376 223.225 54.296 223.849 54.952C224.473 55.592 225.337 55.912 226.441 55.912C227.273 55.912 228.025 55.832 228.697 55.672C229.369 55.496 230.057 55.248 230.761 54.928V57.352C230.121 57.656 229.457 57.88 228.769 58.024C228.081 58.168 227.257 58.24 226.297 58.24C225.033 58.24 223.905 58 222.913 57.52C221.937 57.024 221.169 56.28 220.609 55.288C220.065 54.296 219.793 53.064 219.793 51.592C219.793 49.368 220.345 47.672 221.449 46.504C222.553 45.336 224.001 44.752 225.793 44.752ZM225.793 46.984C224.977 46.984 224.313 47.248 223.801 47.776C223.305 48.288 223.017 49.056 222.937 50.08H228.529C228.513 49.184 228.281 48.448 227.833 47.872C227.401 47.28 226.721 46.984 225.793 46.984ZM243.363 54.232C243.363 55.544 242.891 56.544 241.947 57.232C241.019 57.904 239.683 58.24 237.939 58.24C237.027 58.24 236.243 58.176 235.587 58.048C234.947 57.92 234.323 57.72 233.715 57.448V54.88C234.355 55.184 235.059 55.44 235.827 55.648C236.611 55.856 237.347 55.96 238.035 55.96C238.867 55.96 239.467 55.832 239.835 55.576C240.203 55.32 240.387 54.976 240.387 54.544C240.387 54.288 240.315 54.064 240.171 53.872C240.027 53.664 239.739 53.44 239.307 53.2C238.891 52.96 238.267 52.664 237.435 52.312C236.603 51.992 235.907 51.664 235.347 51.328C234.803 50.976 234.387 50.568 234.099 50.104C233.827 49.64 233.691 49.04 233.691 48.304C233.691 47.136 234.147 46.256 235.059 45.664C235.987 45.056 237.219 44.752 238.755 44.752C239.555 44.752 240.307 44.832 241.011 44.992C241.731 45.152 242.451 45.392 243.171 45.712L242.211 47.944C241.603 47.688 241.011 47.472 240.435 47.296C239.859 47.12 239.267 47.032 238.659 47.032C237.331 47.032 236.667 47.408 236.667 48.16C236.667 48.432 236.747 48.664 236.907 48.856C237.083 49.048 237.379 49.256 237.795 49.48C238.227 49.688 238.835 49.944 239.618 50.248C240.387 50.552 241.051 50.872 241.611 51.208C242.171 51.528 242.603 51.928 242.907 52.408C243.211 52.888 243.363 53.496 243.363 54.232ZM257.547 55.816C257.915 55.816 258.275 55.784 258.627 55.72C258.995 55.64 259.331 55.552 259.635 55.456V57.712C259.315 57.856 258.899 57.976 258.387 58.072C257.875 58.184 257.339 58.24 256.779 58.24C256.043 58.24 255.371 58.12 254.763 57.88C254.155 57.624 253.675 57.192 253.323 56.584C252.971 55.976 252.795 55.128 252.795 54.04V47.272H251.043V45.952L252.963 44.896L253.923 42.136H255.819V44.992H259.515V47.272H255.819V54.016C255.819 54.624 255.979 55.08 256.299 55.384C256.619 55.672 257.035 55.816 257.547 55.816ZM265.281 39.76V44.104C265.281 44.616 265.257 45.12 265.209 45.616C265.177 46.096 265.145 46.456 265.113 46.696H265.305C265.721 46.04 266.265 45.552 266.937 45.232C267.609 44.912 268.353 44.752 269.169 44.752C270.641 44.752 271.793 45.128 272.625 45.88C273.457 46.632 273.872 47.848 273.872 49.528V58H270.849V50.128C270.849 48.176 270.049 47.2 268.449 47.2C267.233 47.2 266.401 47.584 265.953 48.352C265.505 49.12 265.281 50.216 265.281 51.64V58H262.257V39.76H265.281ZM282.887 44.752C284.631 44.752 286.007 45.272 287.015 46.312C288.039 47.352 288.551 48.8 288.551 50.656V52.192H279.959C279.991 53.376 280.319 54.296 280.943 54.952C281.567 55.592 282.431 55.912 283.535 55.912C284.367 55.912 285.119 55.832 285.791 55.672C286.463 55.496 287.151 55.248 287.855 54.928V57.352C287.215 57.656 286.551 57.88 285.863 58.024C285.175 58.168 284.351 58.24 283.391 58.24C282.127 58.24 280.999 58 280.007 57.52C279.031 57.024 278.263 56.28 277.703 55.288C277.159 54.296 276.887 53.064 276.887 51.592C276.887 49.368 277.439 47.672 278.543 46.504C279.647 45.336 281.095 44.752 282.887 44.752ZM282.887 46.984C282.071 46.984 281.407 47.248 280.895 47.776C280.399 48.288 280.111 49.056 280.031 50.08H285.623C285.607 49.184 285.375 48.448 284.927 47.872C284.495 47.28 283.815 46.984 282.887 46.984ZM308.707 58L307.147 53.464H300.691L299.155 58H295.891L302.179 40.792H305.683L311.971 58H308.707ZM306.355 50.824L304.867 46.408C304.803 46.184 304.707 45.88 304.579 45.496C304.451 45.112 304.323 44.72 304.195 44.32C304.083 43.904 303.995 43.56 303.931 43.288C303.851 43.608 303.747 43.976 303.619 44.392C303.507 44.808 303.395 45.2 303.283 45.568C303.171 45.936 303.091 46.216 303.043 46.408L301.531 50.824H306.355ZM322.792 54.232C322.792 55.544 322.32 56.544 321.376 57.232C320.448 57.904 319.112 58.24 317.368 58.24C316.456 58.24 315.672 58.176 315.016 58.048C314.376 57.92 313.752 57.72 313.144 57.448V54.88C313.784 55.184 314.488 55.44 315.256 55.648C316.04 55.856 316.776 55.96 317.464 55.96C318.296 55.96 318.896 55.832 319.264 55.576C319.632 55.32 319.816 54.976 319.816 54.544C319.816 54.288 319.744 54.064 319.6 53.872C319.456 53.664 319.168 53.44 318.736 53.2C318.32 52.96 317.696 52.664 316.864 52.312C316.032 51.992 315.336 51.664 314.776 51.328C314.232 50.976 313.816 50.568 313.528 50.104C313.256 49.64 313.12 49.04 313.12 48.304C313.12 47.136 313.576 46.256 314.488 45.664C315.416 45.056 316.648 44.752 318.184 44.752C318.984 44.752 319.736 44.832 320.44 44.992C321.16 45.152 321.88 45.392 322.6 45.712L321.64 47.944C321.032 47.688 320.44 47.472 319.864 47.296C319.288 47.12 318.696 47.032 318.088 47.032C316.76 47.032 316.096 47.408 316.096 48.16C316.096 48.432 316.176 48.664 316.336 48.856C316.512 49.048 316.808 49.256 317.224 49.48C317.656 49.688 318.264 49.944 319.048 50.248C319.816 50.552 320.48 50.872 321.04 51.208C321.6 51.528 322.032 51.928 322.336 52.408C322.64 52.888 322.792 53.496 322.792 54.232ZM328.726 39.76V44.104C328.726 44.616 328.702 45.12 328.654 45.616C328.622 46.096 328.59 46.456 328.558 46.696H328.75C329.166 46.04 329.71 45.552 330.382 45.232C331.054 44.912 331.798 44.752 332.614 44.752C334.086 44.752 335.238 45.128 336.07 45.88C336.902 46.632 337.318 47.848 337.318 49.528V58H334.294V50.128C334.294 48.176 333.494 47.2 331.894 47.2C330.678 47.2 329.846 47.584 329.398 48.352C328.95 49.12 328.726 50.216 328.726 51.64V58H325.702V39.76H328.726ZM344.124 58H341.1V39.76H344.124V58ZM353.223 44.752C354.967 44.752 356.343 45.272 357.351 46.312C358.375 47.352 358.887 48.8 358.887 50.656V52.192H350.295C350.327 53.376 350.655 54.296 351.279 54.952C351.903 55.592 352.767 55.912 353.871 55.912C354.703 55.912 355.455 55.832 356.127 55.672C356.799 55.496 357.487 55.248 358.191 54.928V57.352C357.551 57.656 356.887 57.88 356.199 58.024C355.511 58.168 354.687 58.24 353.727 58.24C352.463 58.24 351.335 58 350.343 57.52C349.367 57.024 348.599 56.28 348.039 55.288C347.495 54.296 347.223 53.064 347.223 51.592C347.223 49.368 347.775 47.672 348.879 46.504C349.983 45.336 351.431 44.752 353.223 44.752ZM353.223 46.984C352.407 46.984 351.743 47.248 351.231 47.776C350.735 48.288 350.447 49.056 350.367 50.08H355.959C355.943 49.184 355.711 48.448 355.263 47.872C354.831 47.28 354.151 46.984 353.223 46.984ZM359.523 44.992H362.811L365.403 52.336C365.579 52.8 365.723 53.256 365.835 53.704C365.947 54.152 366.027 54.608 366.075 55.072H366.171C366.235 54.672 366.331 54.232 366.459 53.752C366.587 53.272 366.731 52.8 366.891 52.336L369.387 44.992H372.651L367.107 59.728C366.611 61.024 365.931 62.016 365.067 62.704C364.219 63.408 363.171 63.76 361.923 63.76C361.523 63.76 361.179 63.736 360.891 63.688C360.603 63.656 360.347 63.616 360.123 63.568V61.168C360.299 61.2 360.507 61.232 360.747 61.264C361.003 61.296 361.267 61.312 361.539 61.312C362.291 61.312 362.883 61.088 363.315 60.64C363.763 60.208 364.107 59.664 364.347 59.008L364.731 57.952L359.523 44.992ZM388.483 58L383.779 43.96H383.683C383.699 44.28 383.723 44.736 383.755 45.328C383.787 45.904 383.811 46.536 383.827 47.224C383.859 47.896 383.875 48.528 383.875 49.12V58H381.115V40.864H385.387L389.899 54.328H389.995L394.699 40.864H398.971V58H396.043V48.976C396.043 48.432 396.051 47.84 396.067 47.2C396.099 46.544 396.123 45.928 396.139 45.352C396.171 44.776 396.195 44.32 396.211 43.984H396.115L391.219 58H388.483ZM408.3 44.752C409.98 44.752 411.252 45.12 412.116 45.856C412.996 46.592 413.436 47.728 413.436 49.264V58H411.3L410.7 56.2H410.604C410.044 56.904 409.452 57.424 408.828 57.76C408.204 58.08 407.356 58.24 406.284 58.24C405.116 58.24 404.148 57.912 403.38 57.256C402.612 56.6 402.228 55.584 402.228 54.208C402.228 52.864 402.716 51.856 403.692 51.184C404.684 50.512 406.18 50.136 408.18 50.056L410.436 49.984V49.336C410.436 48.52 410.236 47.936 409.836 47.584C409.436 47.216 408.876 47.032 408.156 47.032C407.5 47.032 406.868 47.128 406.26 47.32C405.668 47.512 405.076 47.736 404.484 47.992L403.524 45.88C404.164 45.544 404.892 45.272 405.708 45.064C406.54 44.856 407.404 44.752 408.3 44.752ZM410.436 51.856L408.852 51.904C407.524 51.952 406.604 52.184 406.092 52.6C405.58 53 405.324 53.544 405.324 54.232C405.324 54.856 405.5 55.304 405.852 55.576C406.22 55.832 406.7 55.96 407.292 55.96C408.172 55.96 408.916 55.712 409.524 55.216C410.132 54.704 410.436 53.952 410.436 52.96V51.856ZM421.521 58.24C420.001 58.24 418.777 57.672 417.849 56.536C416.921 55.4 416.457 53.728 416.457 51.52C416.457 49.28 416.929 47.592 417.873 46.456C418.817 45.32 420.057 44.752 421.593 44.752C422.553 44.752 423.337 44.936 423.945 45.304C424.569 45.672 425.065 46.12 425.433 46.648H425.577C425.529 46.424 425.481 46.08 425.433 45.616C425.385 45.152 425.361 44.72 425.361 44.32V39.76H428.385V58H426.033L425.481 56.296H425.361C424.993 56.84 424.505 57.304 423.897 57.688C423.289 58.056 422.497 58.24 421.521 58.24ZM422.433 55.792C423.553 55.792 424.337 55.472 424.785 54.832C425.249 54.192 425.489 53.224 425.505 51.928V51.544C425.505 50.152 425.281 49.088 424.833 48.352C424.401 47.6 423.585 47.224 422.385 47.224C421.457 47.224 420.745 47.608 420.249 48.376C419.769 49.128 419.529 50.192 419.529 51.568C419.529 52.944 419.777 53.992 420.273 54.712C420.769 55.432 421.489 55.792 422.433 55.792ZM433.761 39.976C434.225 39.976 434.617 40.096 434.937 40.336C435.273 40.56 435.441 40.968 435.441 41.56C435.441 42.152 435.273 42.568 434.937 42.808C434.617 43.048 434.225 43.168 433.761 43.168C433.297 43.168 432.897 43.048 432.561 42.808C432.241 42.568 432.081 42.152 432.081 41.56C432.081 40.968 432.241 40.56 432.561 40.336C432.897 40.096 433.297 39.976 433.761 39.976ZM435.273 44.992V58H432.249V44.992H435.273ZM447.995 54.232C447.995 55.544 447.523 56.544 446.579 57.232C445.651 57.904 444.315 58.24 442.571 58.24C441.659 58.24 440.875 58.176 440.219 58.048C439.579 57.92 438.955 57.72 438.347 57.448V54.88C438.987 55.184 439.691 55.44 440.459 55.648C441.243 55.856 441.979 55.96 442.667 55.96C443.499 55.96 444.099 55.832 444.467 55.576C444.835 55.32 445.019 54.976 445.019 54.544C445.019 54.288 444.947 54.064 444.803 53.872C444.659 53.664 444.371 53.44 443.939 53.2C443.523 52.96 442.899 52.664 442.067 52.312C441.235 51.992 440.539 51.664 439.979 51.328C439.435 50.976 439.019 50.568 438.731 50.104C438.459 49.64 438.323 49.04 438.323 48.304C438.323 47.136 438.779 46.256 439.691 45.664C440.619 45.056 441.851 44.752 443.387 44.752C444.187 44.752 444.939 44.832 445.643 44.992C446.363 45.152 447.083 45.392 447.803 45.712L446.843 47.944C446.235 47.688 445.643 47.472 445.067 47.296C444.491 47.12 443.899 47.032 443.291 47.032C441.963 47.032 441.299 47.408 441.299 48.16C441.299 48.432 441.379 48.664 441.539 48.856C441.715 49.048 442.011 49.256 442.427 49.48C442.859 49.688 443.467 49.944 444.251 50.248C445.019 50.552 445.683 50.872 446.243 51.208C446.803 51.528 447.235 51.928 447.539 52.408C447.843 52.888 447.995 53.496 447.995 54.232ZM462.521 51.472C462.521 53.632 461.961 55.304 460.841 56.488C459.721 57.656 458.201 58.24 456.281 58.24C455.097 58.24 454.041 57.976 453.113 57.448C452.185 56.92 451.457 56.152 450.929 55.144C450.401 54.136 450.137 52.912 450.137 51.472C450.137 49.312 450.689 47.656 451.793 46.504C452.913 45.336 454.433 44.752 456.353 44.752C457.553 44.752 458.617 45.016 459.545 45.544C460.473 46.056 461.201 46.816 461.729 47.824C462.257 48.816 462.521 50.032 462.521 51.472ZM453.233 51.472C453.233 52.848 453.473 53.912 453.953 54.664C454.449 55.416 455.241 55.792 456.329 55.792C457.417 55.792 458.201 55.416 458.681 54.664C459.177 53.912 459.425 52.848 459.425 51.472C459.425 50.096 459.177 49.04 458.681 48.304C458.201 47.568 457.409 47.2 456.305 47.2C455.233 47.2 454.449 47.568 453.953 48.304C453.473 49.04 453.233 50.096 453.233 51.472ZM472.607 44.752C474.063 44.752 475.199 45.128 476.015 45.88C476.847 46.632 477.263 47.848 477.263 49.528V58H474.239V50.128C474.239 48.176 473.439 47.2 471.839 47.2C470.623 47.2 469.791 47.584 469.343 48.352C468.895 49.12 468.671 50.216 468.671 51.64V58H465.647V44.992H467.975L468.407 46.696H468.575C468.991 46.024 469.559 45.536 470.279 45.232C471.015 44.912 471.791 44.752 472.607 44.752ZM490.304 39.76V44.104C490.304 44.616 490.28 45.12 490.232 45.616C490.2 46.096 490.168 46.456 490.136 46.696H490.328C490.744 46.04 491.288 45.552 491.96 45.232C492.632 44.912 493.376 44.752 494.192 44.752C495.664 44.752 496.816 45.128 497.648 45.88C498.48 46.632 498.896 47.848 498.896 49.528V58H495.872V50.128C495.872 48.176 495.072 47.2 493.472 47.2C492.256 47.2 491.424 47.584 490.976 48.352C490.528 49.12 490.304 50.216 490.304 51.64V58H487.28V39.76H490.304ZM507.862 44.752C509.542 44.752 510.814 45.12 511.678 45.856C512.558 46.592 512.998 47.728 512.998 49.264V58H510.862L510.262 56.2H510.166C509.606 56.904 509.014 57.424 508.39 57.76C507.766 58.08 506.918 58.24 505.846 58.24C504.678 58.24 503.71 57.912 502.942 57.256C502.174 56.6 501.79 55.584 501.79 54.208C501.79 52.864 502.278 51.856 503.254 51.184C504.246 50.512 505.742 50.136 507.742 50.056L509.998 49.984V49.336C509.998 48.52 509.798 47.936 509.398 47.584C508.998 47.216 508.438 47.032 507.718 47.032C507.062 47.032 506.43 47.128 505.822 47.32C505.23 47.512 504.638 47.736 504.046 47.992L503.086 45.88C503.726 45.544 504.454 45.272 505.27 45.064C506.102 44.856 506.966 44.752 507.862 44.752ZM509.998 51.856L508.414 51.904C507.086 51.952 506.166 52.184 505.654 52.6C505.142 53 504.886 53.544 504.886 54.232C504.886 54.856 505.062 55.304 505.414 55.576C505.782 55.832 506.262 55.96 506.854 55.96C507.734 55.96 508.478 55.712 509.086 55.216C509.694 54.704 509.998 53.952 509.998 52.96V51.856ZM522.044 58.24C520.172 58.24 518.7 57.704 517.628 56.632C516.556 55.56 516.02 53.872 516.02 51.568C516.02 49.968 516.284 48.672 516.812 47.68C517.356 46.672 518.1 45.936 519.044 45.472C519.988 44.992 521.068 44.752 522.284 44.752C523.1 44.752 523.828 44.832 524.468 44.992C525.108 45.152 525.652 45.344 526.1 45.568L525.212 47.944C524.716 47.752 524.22 47.592 523.724 47.464C523.228 47.32 522.748 47.248 522.284 47.248C520.172 47.248 519.116 48.68 519.116 51.544C519.116 52.936 519.38 53.984 519.908 54.688C520.452 55.392 521.228 55.744 522.236 55.744C522.956 55.744 523.596 55.656 524.156 55.48C524.716 55.304 525.252 55.064 525.764 54.76V57.376C525.268 57.664 524.732 57.88 524.156 58.024C523.596 58.168 522.892 58.24 522.044 58.24ZM531.811 39.76V48.424C531.811 48.84 531.795 49.28 531.763 49.744C531.731 50.208 531.699 50.648 531.667 51.064H531.739C531.931 50.776 532.171 50.448 532.459 50.08C532.747 49.712 533.019 49.384 533.275 49.096L537.115 44.992H540.547L535.339 50.608L540.883 58H537.355L533.323 52.432L531.811 53.68V58H528.811V39.76H531.811ZM551.777 54.232C551.777 55.544 551.305 56.544 550.361 57.232C549.433 57.904 548.097 58.24 546.353 58.24C545.441 58.24 544.657 58.176 544.001 58.048C543.361 57.92 542.737 57.72 542.129 57.448V54.88C542.769 55.184 543.473 55.44 544.241 55.648C545.025 55.856 545.761 55.96 546.449 55.96C547.281 55.96 547.881 55.832 548.249 55.576C548.617 55.32 548.801 54.976 548.801 54.544C548.801 54.288 548.729 54.064 548.585 53.872C548.441 53.664 548.153 53.44 547.721 53.2C547.305 52.96 546.681 52.664 545.849 52.312C545.017 51.992 544.321 51.664 543.761 51.328C543.217 50.976 542.801 50.568 542.513 50.104C542.241 49.64 542.105 49.04 542.105 48.304C542.105 47.136 542.561 46.256 543.473 45.664C544.401 45.056 545.633 44.752 547.169 44.752C547.969 44.752 548.721 44.832 549.425 44.992C550.145 45.152 550.865 45.392 551.585 45.712L550.625 47.944C550.017 47.688 549.425 47.472 548.849 47.296C548.273 47.12 547.681 47.032 547.073 47.032C545.745 47.032 545.081 47.408 545.081 48.16C545.081 48.432 545.161 48.664 545.321 48.856C545.497 49.048 545.793 49.256 546.209 49.48C546.641 49.688 547.249 49.944 548.033 50.248C548.801 50.552 549.465 50.872 550.025 51.208C550.585 51.528 551.017 51.928 551.321 52.408C551.625 52.888 551.777 53.496 551.777 54.232ZM566.105 44.752C567.785 44.752 569.057 45.12 569.921 45.856C570.801 46.592 571.241 47.728 571.241 49.264V58H569.105L568.505 56.2H568.409C567.849 56.904 567.257 57.424 566.633 57.76C566.009 58.08 565.161 58.24 564.089 58.24C562.921 58.24 561.953 57.912 561.185 57.256C560.417 56.6 560.033 55.584 560.033 54.208C560.033 52.864 560.521 51.856 561.497 51.184C562.489 50.512 563.985 50.136 565.985 50.056L568.241 49.984V49.336C568.241 48.52 568.041 47.936 567.641 47.584C567.241 47.216 566.681 47.032 565.961 47.032C565.305 47.032 564.673 47.128 564.065 47.32C563.473 47.512 562.881 47.736 562.289 47.992L561.329 45.88C561.969 45.544 562.697 45.272 563.513 45.064C564.345 44.856 565.209 44.752 566.105 44.752ZM568.241 51.856L566.657 51.904C565.329 51.952 564.409 52.184 563.897 52.6C563.385 53 563.129 53.544 563.129 54.232C563.129 54.856 563.305 55.304 563.657 55.576C564.025 55.832 564.505 55.96 565.097 55.96C565.977 55.96 566.721 55.712 567.329 55.216C567.937 54.704 568.241 53.952 568.241 52.96V51.856ZM583.886 54.232C583.886 55.544 583.414 56.544 582.47 57.232C581.542 57.904 580.206 58.24 578.462 58.24C577.55 58.24 576.766 58.176 576.11 58.048C575.47 57.92 574.846 57.72 574.238 57.448V54.88C574.878 55.184 575.582 55.44 576.35 55.648C577.134 55.856 577.87 55.96 578.558 55.96C579.39 55.96 579.99 55.832 580.358 55.576C580.726 55.32 580.91 54.976 580.91 54.544C580.91 54.288 580.838 54.064 580.694 53.872C580.55 53.664 580.262 53.44 579.83 53.2C579.414 52.96 578.79 52.664 577.958 52.312C577.126 51.992 576.43 51.664 575.87 51.328C575.326 50.976 574.91 50.568 574.622 50.104C574.35 49.64 574.214 49.04 574.214 48.304C574.214 47.136 574.67 46.256 575.582 45.664C576.51 45.056 577.742 44.752 579.278 44.752C580.078 44.752 580.83 44.832 581.534 44.992C582.254 45.152 582.974 45.392 583.694 45.712L582.734 47.944C582.126 47.688 581.534 47.472 580.958 47.296C580.382 47.12 579.79 47.032 579.182 47.032C577.854 47.032 577.19 47.408 577.19 48.16C577.19 48.432 577.27 48.664 577.43 48.856C577.606 49.048 577.902 49.256 578.318 49.48C578.75 49.688 579.358 49.944 580.142 50.248C580.91 50.552 581.574 50.872 582.134 51.208C582.694 51.528 583.126 51.928 583.43 52.408C583.734 52.888 583.886 53.496 583.886 54.232ZM598.214 44.752C599.894 44.752 601.166 45.12 602.03 45.856C602.91 46.592 603.35 47.728 603.35 49.264V58H601.214L600.614 56.2H600.518C599.958 56.904 599.366 57.424 598.742 57.76C598.118 58.08 597.27 58.24 596.198 58.24C595.03 58.24 594.062 57.912 593.294 57.256C592.526 56.6 592.142 55.584 592.142 54.208C592.142 52.864 592.63 51.856 593.606 51.184C594.598 50.512 596.094 50.136 598.094 50.056L600.35 49.984V49.336C600.35 48.52 600.15 47.936 599.75 47.584C599.35 47.216 598.79 47.032 598.07 47.032C597.414 47.032 596.782 47.128 596.174 47.32C595.582 47.512 594.99 47.736 594.398 47.992L593.438 45.88C594.078 45.544 594.806 45.272 595.622 45.064C596.454 44.856 597.318 44.752 598.214 44.752ZM600.35 51.856L598.766 51.904C597.438 51.952 596.518 52.184 596.006 52.6C595.494 53 595.238 53.544 595.238 54.232C595.238 54.856 595.414 55.304 595.766 55.576C596.134 55.832 596.614 55.96 597.206 55.96C598.086 55.96 598.83 55.712 599.438 55.216C600.046 54.704 600.35 53.952 600.35 52.96V51.856ZM618.63 58.24C616.758 58.24 615.286 57.704 614.214 56.632C613.142 55.56 612.606 53.872 612.606 51.568C612.606 49.968 612.87 48.672 613.398 47.68C613.942 46.672 614.686 45.936 615.63 45.472C616.574 44.992 617.654 44.752 618.87 44.752C619.686 44.752 620.414 44.832 621.054 44.992C621.694 45.152 622.238 45.344 622.686 45.568L621.798 47.944C621.302 47.752 620.806 47.592 620.31 47.464C619.814 47.32 619.334 47.248 618.87 47.248C616.758 47.248 615.702 48.68 615.702 51.544C615.702 52.936 615.966 53.984 616.494 54.688C617.038 55.392 617.814 55.744 618.822 55.744C619.542 55.744 620.182 55.656 620.742 55.48C621.302 55.304 621.838 55.064 622.35 54.76V57.376C621.854 57.664 621.318 57.88 620.742 58.024C620.182 58.168 619.478 58.24 618.63 58.24ZM630.581 44.752C632.261 44.752 633.533 45.12 634.397 45.856C635.277 46.592 635.717 47.728 635.717 49.264V58H633.581L632.981 56.2H632.885C632.325 56.904 631.733 57.424 631.109 57.76C630.485 58.08 629.637 58.24 628.565 58.24C627.397 58.24 626.429 57.912 625.661 57.256C624.893 56.6 624.509 55.584 624.509 54.208C624.509 52.864 624.997 51.856 625.973 51.184C626.965 50.512 628.461 50.136 630.461 50.056L632.717 49.984V49.336C632.717 48.52 632.517 47.936 632.117 47.584C631.717 47.216 631.157 47.032 630.437 47.032C629.781 47.032 629.149 47.128 628.541 47.32C627.949 47.512 627.357 47.736 626.765 47.992L625.805 45.88C626.445 45.544 627.173 45.272 627.989 45.064C628.821 44.856 629.685 44.752 630.581 44.752ZM632.717 51.856L631.133 51.904C629.805 51.952 628.885 52.184 628.373 52.6C627.861 53 627.605 53.544 627.605 54.232C627.605 54.856 627.781 55.304 628.133 55.576C628.501 55.832 628.981 55.96 629.573 55.96C630.453 55.96 631.197 55.712 631.805 55.216C632.413 54.704 632.717 53.952 632.717 52.96V51.856ZM648.363 54.232C648.363 55.544 647.891 56.544 646.947 57.232C646.019 57.904 644.683 58.24 642.939 58.24C642.027 58.24 641.243 58.176 640.587 58.048C639.947 57.92 639.323 57.72 638.715 57.448V54.88C639.355 55.184 640.059 55.44 640.827 55.648C641.611 55.856 642.347 55.96 643.035 55.96C643.867 55.96 644.467 55.832 644.835 55.576C645.203 55.32 645.387 54.976 645.387 54.544C645.387 54.288 645.315 54.064 645.171 53.872C645.027 53.664 644.739 53.44 644.307 53.2C643.891 52.96 643.267 52.664 642.435 52.312C641.603 51.992 640.907 51.664 640.347 51.328C639.803 50.976 639.387 50.568 639.099 50.104C638.827 49.64 638.691 49.04 638.691 48.304C638.691 47.136 639.147 46.256 640.059 45.664C640.987 45.056 642.219 44.752 643.755 44.752C644.555 44.752 645.307 44.832 646.011 44.992C646.731 45.152 647.451 45.392 648.171 45.712L647.211 47.944C646.603 47.688 646.011 47.472 645.435 47.296C644.859 47.12 644.267 47.032 643.659 47.032C642.331 47.032 641.667 47.408 641.667 48.16C641.667 48.432 641.747 48.664 641.907 48.856C642.083 49.048 642.379 49.256 642.795 49.48C643.227 49.688 643.835 49.944 644.618 50.248C645.387 50.552 646.051 50.872 646.611 51.208C647.171 51.528 647.603 51.928 647.907 52.408C648.211 52.888 648.363 53.496 648.363 54.232ZM656.504 44.752C658.248 44.752 659.624 45.272 660.632 46.312C661.656 47.352 662.168 48.8 662.168 50.656V52.192H653.576C653.608 53.376 653.936 54.296 654.56 54.952C655.184 55.592 656.048 55.912 657.152 55.912C657.984 55.912 658.736 55.832 659.408 55.672C660.08 55.496 660.768 55.248 661.472 54.928V57.352C660.832 57.656 660.168 57.88 659.48 58.024C658.792 58.168 657.968 58.24 657.008 58.24C655.744 58.24 654.616 58 653.624 57.52C652.648 57.024 651.88 56.28 651.32 55.288C650.776 54.296 650.504 53.064 650.504 51.592C650.504 49.368 651.056 47.672 652.16 46.504C653.264 45.336 654.712 44.752 656.504 44.752ZM656.504 46.984C655.688 46.984 655.024 47.248 654.512 47.776C654.016 48.288 653.728 49.056 653.648 50.08H659.24C659.224 49.184 658.992 48.448 658.544 47.872C658.112 47.28 657.432 46.984 656.504 46.984ZM50.8 94.232C50.8 95.544 50.328 96.544 49.384 97.232C48.456 97.904 47.12 98.24 45.376 98.24C44.464 98.24 43.68 98.176 43.024 98.048C42.384 97.92 41.76 97.72 41.152 97.448V94.88C41.792 95.184 42.496 95.44 43.264 95.648C44.048 95.856 44.784 95.96 45.472 95.96C46.304 95.96 46.904 95.832 47.272 95.576C47.64 95.32 47.824 94.976 47.824 94.544C47.824 94.288 47.752 94.064 47.608 93.872C47.464 93.664 47.176 93.44 46.744 93.2C46.328 92.96 45.704 92.664 44.872 92.312C44.04 91.992 43.344 91.664 42.784 91.328C42.24 90.976 41.824 90.568 41.536 90.104C41.264 89.64 41.128 89.04 41.128 88.304C41.128 87.136 41.584 86.256 42.496 85.664C43.424 85.056 44.656 84.752 46.192 84.752C46.992 84.752 47.744 84.832 48.448 84.992C49.168 85.152 49.888 85.392 50.608 85.712L49.648 87.944C49.04 87.688 48.448 87.472 47.872 87.296C47.296 87.12 46.704 87.032 46.096 87.032C44.768 87.032 44.104 87.408 44.104 88.16C44.104 88.432 44.184 88.664 44.344 88.856C44.52 89.048 44.816 89.256 45.232 89.48C45.664 89.688 46.272 89.944 47.056 90.248C47.824 90.552 48.488 90.872 49.048 91.208C49.608 91.528 50.04 91.928 50.344 92.408C50.648 92.888 50.8 93.496 50.8 94.232ZM58.7496 95.816C59.1176 95.816 59.4776 95.784 59.8296 95.72C60.1976 95.64 60.5336 95.552 60.8376 95.456V97.712C60.5176 97.856 60.1016 97.976 59.5896 98.072C59.0776 98.184 58.5416 98.24 57.9816 98.24C57.2456 98.24 56.5736 98.12 55.9656 97.88C55.3576 97.624 54.8776 97.192 54.5256 96.584C54.1736 95.976 53.9976 95.128 53.9976 94.04V87.272H52.2456V85.952L54.1656 84.896L55.1256 82.136H57.0216V84.992H60.7176V87.272H57.0216V94.016C57.0216 94.624 57.1816 95.08 57.5016 95.384C57.8216 95.672 58.2376 95.816 58.7496 95.816ZM75.0036 84.992V98H72.6276L72.2196 96.32H72.0756C71.6436 96.992 71.0596 97.48 70.3236 97.784C69.6036 98.088 68.8356 98.24 68.0196 98.24C66.5636 98.24 65.4196 97.864 64.5876 97.112C63.7716 96.36 63.3636 95.152 63.3636 93.488V84.992H66.3876V92.888C66.3876 94.824 67.1876 95.792 68.7876 95.792C70.0036 95.792 70.8356 95.416 71.2836 94.664C71.7476 93.896 71.9796 92.792 71.9796 91.352V84.992H75.0036ZM83.1541 98.24C81.6341 98.24 80.4101 97.672 79.4821 96.536C78.5541 95.4 78.0901 93.728 78.0901 91.52C78.0901 89.28 78.5621 87.592 79.5061 86.456C80.4501 85.32 81.6901 84.752 83.2261 84.752C84.1861 84.752 84.9701 84.936 85.5781 85.304C86.2021 85.672 86.6981 86.12 87.0661 86.648H87.2101C87.1621 86.424 87.1141 86.08 87.0661 85.616C87.0181 85.152 86.9941 84.72 86.9941 84.32V79.76H90.0181V98H87.6661L87.1141 96.296H86.9941C86.6261 96.84 86.1381 97.304 85.5301 97.688C84.9221 98.056 84.1301 98.24 83.1541 98.24ZM84.0661 95.792C85.1861 95.792 85.9701 95.472 86.4181 94.832C86.8821 94.192 87.1221 93.224 87.1381 91.928V91.544C87.1381 90.152 86.9141 89.088 86.4661 88.352C86.0341 87.6 85.2181 87.224 84.0181 87.224C83.0901 87.224 82.3781 87.608 81.8821 88.376C81.4021 89.128 81.1621 90.192 81.1621 91.568C81.1621 92.944 81.4101 93.992 81.9061 94.712C82.4021 95.432 83.1221 95.792 84.0661 95.792ZM91.9375 84.992H95.2255L97.8175 92.336C97.9935 92.8 98.1375 93.256 98.2495 93.704C98.3615 94.152 98.4415 94.608 98.4895 95.072H98.5855C98.6495 94.672 98.7455 94.232 98.8735 93.752C99.0015 93.272 99.1455 92.8 99.3055 92.336L101.802 84.992H105.066L99.5215 99.728C99.0255 101.024 98.3455 102.016 97.4815 102.704C96.6335 103.408 95.5855 103.76 94.3375 103.76C93.9375 103.76 93.5935 103.736 93.3055 103.688C93.0175 103.656 92.7615 103.616 92.5375 103.568V101.168C92.7135 101.2 92.9215 101.232 93.1615 101.264C93.4175 101.296 93.6815 101.312 93.9535 101.312C94.7055 101.312 95.2975 101.088 95.7295 100.64C96.1775 100.208 96.5215 99.664 96.7615 99.008L97.1455 97.952L91.9375 84.992ZM118.281 95.816C118.649 95.816 119.009 95.784 119.361 95.72C119.729 95.64 120.065 95.552 120.369 95.456V97.712C120.049 97.856 119.633 97.976 119.121 98.072C118.609 98.184 118.073 98.24 117.513 98.24C116.777 98.24 116.105 98.12 115.497 97.88C114.889 97.624 114.409 97.192 114.057 96.584C113.705 95.976 113.529 95.128 113.529 94.04V87.272H111.777V85.952L113.697 84.896L114.657 82.136H116.553V84.992H120.249V87.272H116.553V94.016C116.553 94.624 116.713 95.08 117.033 95.384C117.353 95.672 117.769 95.816 118.281 95.816ZM134.607 91.472C134.607 93.632 134.047 95.304 132.927 96.488C131.807 97.656 130.287 98.24 128.367 98.24C127.183 98.24 126.127 97.976 125.199 97.448C124.271 96.92 123.543 96.152 123.015 95.144C122.487 94.136 122.223 92.912 122.223 91.472C122.223 89.312 122.775 87.656 123.879 86.504C124.999 85.336 126.519 84.752 128.439 84.752C129.639 84.752 130.703 85.016 131.631 85.544C132.559 86.056 133.287 86.816 133.815 87.824C134.343 88.816 134.607 90.032 134.607 91.472ZM125.319 91.472C125.319 92.848 125.559 93.912 126.039 94.664C126.535 95.416 127.327 95.792 128.415 95.792C129.503 95.792 130.287 95.416 130.767 94.664C131.263 93.912 131.511 92.848 131.511 91.472C131.511 90.096 131.263 89.04 130.767 88.304C130.287 87.568 129.495 87.2 128.391 87.2C127.319 87.2 126.535 87.568 126.039 88.304C125.559 89.04 125.319 90.096 125.319 91.472ZM150.807 84.752C152.327 84.752 153.551 85.32 154.479 86.456C155.407 87.576 155.871 89.248 155.871 91.472C155.871 93.696 155.391 95.384 154.431 96.536C153.487 97.672 152.255 98.24 150.735 98.24C149.775 98.24 148.999 98.064 148.407 97.712C147.815 97.36 147.343 96.952 146.991 96.488H146.799C146.847 96.792 146.887 97.128 146.919 97.496C146.967 97.848 146.991 98.176 146.991 98.48V103.76H143.967V84.992H146.415L146.847 86.72H146.991C147.343 86.176 147.823 85.712 148.431 85.328C149.039 84.944 149.831 84.752 150.807 84.752ZM149.943 87.2C148.871 87.2 148.111 87.52 147.663 88.16C147.231 88.8 147.007 89.768 146.991 91.064V91.448C146.991 92.84 147.199 93.912 147.615 94.664C148.047 95.4 148.839 95.768 149.991 95.768C150.935 95.768 151.631 95.384 152.079 94.616C152.543 93.832 152.775 92.768 152.775 91.424C152.775 90.08 152.543 89.04 152.079 88.304C151.631 87.568 150.919 87.2 149.943 87.2ZM165.807 84.752C166.015 84.752 166.239 84.76 166.479 84.776C166.735 84.792 166.951 84.824 167.127 84.872L166.863 87.68C166.703 87.648 166.511 87.624 166.287 87.608C166.063 87.576 165.863 87.56 165.687 87.56C165.047 87.56 164.447 87.696 163.887 87.968C163.327 88.224 162.871 88.632 162.519 89.192C162.183 89.736 162.015 90.424 162.015 91.256V98H158.991V84.992H161.319L161.751 87.248H161.895C162.279 86.56 162.807 85.976 163.479 85.496C164.151 85 164.927 84.752 165.807 84.752ZM180.685 91.472C180.685 93.632 180.125 95.304 179.005 96.488C177.885 97.656 176.365 98.24 174.445 98.24C173.261 98.24 172.205 97.976 171.277 97.448C170.349 96.92 169.621 96.152 169.093 95.144C168.565 94.136 168.301 92.912 168.301 91.472C168.301 89.312 168.853 87.656 169.957 86.504C171.077 85.336 172.597 84.752 174.517 84.752C175.717 84.752 176.781 85.016 177.709 85.544C178.637 86.056 179.365 86.816 179.893 87.824C180.421 88.816 180.685 90.032 180.685 91.472ZM171.397 91.472C171.397 92.848 171.637 93.912 172.117 94.664C172.613 95.416 173.405 95.792 174.493 95.792C175.581 95.792 176.365 95.416 176.845 94.664C177.341 93.912 177.589 92.848 177.589 91.472C177.589 90.096 177.341 89.04 176.845 88.304C176.365 87.568 175.573 87.2 174.469 87.2C173.397 87.2 172.613 87.568 172.117 88.304C171.637 89.04 171.397 90.096 171.397 91.472ZM188.851 95.816C189.219 95.816 189.579 95.784 189.931 95.72C190.299 95.64 190.635 95.552 190.939 95.456V97.712C190.619 97.856 190.203 97.976 189.691 98.072C189.179 98.184 188.643 98.24 188.083 98.24C187.347 98.24 186.675 98.12 186.067 97.88C185.459 97.624 184.979 97.192 184.627 96.584C184.275 95.976 184.099 95.128 184.099 94.04V87.272H182.347V85.952L184.267 84.896L185.227 82.136H187.123V84.992H190.819V87.272H187.123V94.016C187.123 94.624 187.283 95.08 187.603 95.384C187.923 95.672 188.339 95.816 188.851 95.816ZM198.793 84.752C200.537 84.752 201.913 85.272 202.921 86.312C203.945 87.352 204.457 88.8 204.457 90.656V92.192H195.865C195.897 93.376 196.225 94.296 196.849 94.952C197.473 95.592 198.337 95.912 199.441 95.912C200.273 95.912 201.025 95.832 201.697 95.672C202.369 95.496 203.057 95.248 203.761 94.928V97.352C203.121 97.656 202.457 97.88 201.769 98.024C201.081 98.168 200.257 98.24 199.297 98.24C198.033 98.24 196.905 98 195.913 97.52C194.937 97.024 194.169 96.28 193.609 95.288C193.065 94.296 192.793 93.064 192.793 91.592C192.793 89.368 193.345 87.672 194.449 86.504C195.553 85.336 197.001 84.752 198.793 84.752ZM198.793 86.984C197.977 86.984 197.313 87.248 196.801 87.776C196.305 88.288 196.017 89.056 195.937 90.08H201.529C201.513 89.184 201.281 88.448 200.833 87.872C200.401 87.28 199.721 86.984 198.793 86.984ZM212.763 98.24C210.891 98.24 209.419 97.704 208.347 96.632C207.275 95.56 206.739 93.872 206.739 91.568C206.739 89.968 207.003 88.672 207.531 87.68C208.075 86.672 208.819 85.936 209.763 85.472C210.707 84.992 211.787 84.752 213.003 84.752C213.819 84.752 214.547 84.832 215.187 84.992C215.827 85.152 216.371 85.344 216.819 85.568L215.931 87.944C215.435 87.752 214.939 87.592 214.443 87.464C213.947 87.32 213.467 87.248 213.003 87.248C210.891 87.248 209.835 88.68 209.835 91.544C209.835 92.936 210.099 93.984 210.627 94.688C211.171 95.392 211.947 95.744 212.955 95.744C213.675 95.744 214.315 95.656 214.875 95.48C215.435 95.304 215.971 95.064 216.483 94.76V97.376C215.987 97.664 215.451 97.88 214.875 98.024C214.315 98.168 213.611 98.24 212.763 98.24ZM224.57 95.816C224.938 95.816 225.298 95.784 225.65 95.72C226.018 95.64 226.354 95.552 226.658 95.456V97.712C226.338 97.856 225.922 97.976 225.41 98.072C224.898 98.184 224.362 98.24 223.802 98.24C223.066 98.24 222.394 98.12 221.786 97.88C221.178 97.624 220.698 97.192 220.346 96.584C219.994 95.976 219.818 95.128 219.818 94.04V87.272H218.066V85.952L219.986 84.896L220.946 82.136H222.842V84.992H226.538V87.272H222.842V94.016C222.842 94.624 223.002 95.08 223.322 95.384C223.642 95.672 224.058 95.816 224.57 95.816ZM233.57 84.992H236.858L239.45 92.336C239.626 92.8 239.77 93.256 239.882 93.704C239.994 94.152 240.074 94.608 240.122 95.072H240.218C240.282 94.672 240.378 94.232 240.506 93.752C240.634 93.272 240.778 92.8 240.938 92.336L243.434 84.992H246.698L241.154 99.728C240.658 101.024 239.978 102.016 239.114 102.704C238.266 103.408 237.218 103.76 235.97 103.76C235.57 103.76 235.226 103.736 234.938 103.688C234.65 103.656 234.394 103.616 234.17 103.568V101.168C234.346 101.2 234.554 101.232 234.794 101.264C235.05 101.296 235.314 101.312 235.586 101.312C236.338 101.312 236.93 101.088 237.362 100.64C237.81 100.208 238.154 99.664 238.394 99.008L238.778 97.952L233.57 84.992ZM260.255 91.472C260.255 93.632 259.695 95.304 258.575 96.488C257.455 97.656 255.935 98.24 254.015 98.24C252.831 98.24 251.775 97.976 250.847 97.448C249.919 96.92 249.191 96.152 248.663 95.144C248.135 94.136 247.871 92.912 247.871 91.472C247.871 89.312 248.423 87.656 249.527 86.504C250.647 85.336 252.167 84.752 254.087 84.752C255.287 84.752 256.351 85.016 257.279 85.544C258.207 86.056 258.935 86.816 259.463 87.824C259.991 88.816 260.255 90.032 260.255 91.472ZM250.967 91.472C250.967 92.848 251.207 93.912 251.687 94.664C252.183 95.416 252.975 95.792 254.063 95.792C255.151 95.792 255.935 95.416 256.415 94.664C256.911 93.912 257.159 92.848 257.159 91.472C257.159 90.096 256.911 89.04 256.415 88.304C255.935 87.568 255.143 87.2 254.039 87.2C252.967 87.2 252.183 87.568 251.687 88.304C251.207 89.04 250.967 90.096 250.967 91.472ZM274.926 84.992V98H272.55L272.142 96.32H271.998C271.566 96.992 270.982 97.48 270.246 97.784C269.526 98.088 268.758 98.24 267.942 98.24C266.486 98.24 265.342 97.864 264.51 97.112C263.694 96.36 263.286 95.152 263.286 93.488V84.992H266.31V92.888C266.31 94.824 267.11 95.792 268.71 95.792C269.926 95.792 270.758 95.416 271.206 94.664C271.67 93.896 271.902 92.792 271.902 91.352V84.992H274.926ZM290.198 84.752C291.878 84.752 293.15 85.12 294.014 85.856C294.894 86.592 295.334 87.728 295.334 89.264V98H293.198L292.598 96.2H292.502C291.942 96.904 291.35 97.424 290.726 97.76C290.102 98.08 289.254 98.24 288.182 98.24C287.014 98.24 286.046 97.912 285.278 97.256C284.51 96.6 284.126 95.584 284.126 94.208C284.126 92.864 284.614 91.856 285.59 91.184C286.582 90.512 288.078 90.136 290.078 90.056L292.334 89.984V89.336C292.334 88.52 292.134 87.936 291.734 87.584C291.334 87.216 290.774 87.032 290.054 87.032C289.398 87.032 288.766 87.128 288.158 87.32C287.566 87.512 286.974 87.736 286.382 87.992L285.422 85.88C286.062 85.544 286.79 85.272 287.606 85.064C288.438 84.856 289.302 84.752 290.198 84.752ZM292.334 91.856L290.75 91.904C289.422 91.952 288.502 92.184 287.99 92.6C287.478 93 287.222 93.544 287.222 94.232C287.222 94.856 287.398 95.304 287.75 95.576C288.118 95.832 288.598 95.96 289.19 95.96C290.07 95.96 290.814 95.712 291.422 95.216C292.03 94.704 292.334 93.952 292.334 92.96V91.856ZM303.492 84.752C305.14 84.752 306.428 85.392 307.356 86.672H307.476L307.764 84.992H310.284V98.096C310.284 99.952 309.756 101.36 308.7 102.32C307.66 103.28 306.1 103.76 304.02 103.76C303.092 103.76 302.236 103.696 301.452 103.568C300.668 103.456 299.924 103.256 299.22 102.968V100.472C300.708 101.144 302.372 101.48 304.212 101.48C305.204 101.48 305.956 101.2 306.468 100.64C306.996 100.096 307.26 99.296 307.26 98.24V97.904C307.26 97.664 307.268 97.384 307.284 97.064C307.3 96.744 307.324 96.488 307.356 96.296H307.26C306.812 96.968 306.26 97.464 305.604 97.784C304.964 98.088 304.236 98.24 303.42 98.24C301.836 98.24 300.596 97.648 299.7 96.464C298.804 95.28 298.356 93.632 298.356 91.52C298.356 89.408 298.804 87.752 299.7 86.552C300.612 85.352 301.876 84.752 303.492 84.752ZM304.284 87.224C302.396 87.224 301.452 88.672 301.452 91.568C301.452 94.416 302.412 95.84 304.332 95.84C305.388 95.84 306.164 95.552 306.66 94.976C307.172 94.384 307.428 93.392 307.428 92V91.544C307.428 90.008 307.172 88.904 306.66 88.232C306.164 87.56 305.372 87.224 304.284 87.224ZM319.331 84.752C321.011 84.752 322.283 85.12 323.147 85.856C324.027 86.592 324.467 87.728 324.467 89.264V98H322.331L321.731 96.2H321.635C321.075 96.904 320.483 97.424 319.859 97.76C319.235 98.08 318.387 98.24 317.315 98.24C316.147 98.24 315.179 97.912 314.411 97.256C313.643 96.6 313.259 95.584 313.259 94.208C313.259 92.864 313.747 91.856 314.723 91.184C315.715 90.512 317.211 90.136 319.211 90.056L321.467 89.984V89.336C321.467 88.52 321.267 87.936 320.867 87.584C320.467 87.216 319.907 87.032 319.187 87.032C318.531 87.032 317.899 87.128 317.291 87.32C316.699 87.512 316.107 87.736 315.515 87.992L314.555 85.88C315.195 85.544 315.923 85.272 316.739 85.064C317.571 84.856 318.435 84.752 319.331 84.752ZM321.467 91.856L319.883 91.904C318.555 91.952 317.635 92.184 317.123 92.6C316.611 93 316.355 93.544 316.355 94.232C316.355 94.856 316.531 95.304 316.883 95.576C317.251 95.832 317.731 95.96 318.323 95.96C319.203 95.96 319.947 95.712 320.555 95.216C321.163 94.704 321.467 93.952 321.467 92.96V91.856ZM329.769 79.976C330.233 79.976 330.625 80.096 330.945 80.336C331.281 80.56 331.449 80.968 331.449 81.56C331.449 82.152 331.281 82.568 330.945 82.808C330.625 83.048 330.233 83.168 329.769 83.168C329.305 83.168 328.905 83.048 328.569 82.808C328.249 82.568 328.089 82.152 328.089 81.56C328.089 80.968 328.249 80.56 328.569 80.336C328.905 80.096 329.305 79.976 329.769 79.976ZM331.281 84.992V98H328.257V84.992H331.281ZM342.107 84.752C343.563 84.752 344.699 85.128 345.515 85.88C346.347 86.632 346.763 87.848 346.763 89.528V98H343.739V90.128C343.739 88.176 342.939 87.2 341.339 87.2C340.123 87.2 339.291 87.584 338.843 88.352C338.395 89.12 338.171 90.216 338.171 91.64V98H335.147V84.992H337.475L337.907 86.696H338.075C338.491 86.024 339.059 85.536 339.779 85.232C340.515 84.912 341.291 84.752 342.107 84.752ZM359.402 94.232C359.402 95.544 358.93 96.544 357.986 97.232C357.058 97.904 355.722 98.24 353.978 98.24C353.066 98.24 352.282 98.176 351.626 98.048C350.986 97.92 350.362 97.72 349.754 97.448V94.88C350.394 95.184 351.098 95.44 351.866 95.648C352.65 95.856 353.386 95.96 354.074 95.96C354.906 95.96 355.506 95.832 355.874 95.576C356.242 95.32 356.426 94.976 356.426 94.544C356.426 94.288 356.354 94.064 356.21 93.872C356.066 93.664 355.778 93.44 355.346 93.2C354.93 92.96 354.306 92.664 353.474 92.312C352.642 91.992 351.946 91.664 351.386 91.328C350.842 90.976 350.426 90.568 350.138 90.104C349.866 89.64 349.73 89.04 349.73 88.304C349.73 87.136 350.186 86.256 351.098 85.664C352.026 85.056 353.258 84.752 354.794 84.752C355.594 84.752 356.346 84.832 357.05 84.992C357.77 85.152 358.49 85.392 359.21 85.712L358.25 87.944C357.642 87.688 357.05 87.472 356.474 87.296C355.898 87.12 355.306 87.032 354.698 87.032C353.37 87.032 352.706 87.408 352.706 88.16C352.706 88.432 352.786 88.664 352.946 88.856C353.122 89.048 353.418 89.256 353.834 89.48C354.266 89.688 354.874 89.944 355.658 90.248C356.426 90.552 357.09 90.872 357.65 91.208C358.21 91.528 358.642 91.928 358.946 92.408C359.25 92.888 359.402 93.496 359.402 94.232ZM367.351 95.816C367.719 95.816 368.079 95.784 368.431 95.72C368.799 95.64 369.135 95.552 369.439 95.456V97.712C369.119 97.856 368.703 97.976 368.191 98.072C367.679 98.184 367.143 98.24 366.583 98.24C365.847 98.24 365.175 98.12 364.567 97.88C363.959 97.624 363.479 97.192 363.127 96.584C362.775 95.976 362.599 95.128 362.599 94.04V87.272H360.847V85.952L362.767 84.896L363.727 82.136H365.623V84.992H369.319V87.272H365.623V94.016C365.623 94.624 365.783 95.08 366.103 95.384C366.423 95.672 366.839 95.816 367.351 95.816ZM383.336 95.816C383.704 95.816 384.064 95.784 384.416 95.72C384.784 95.64 385.12 95.552 385.424 95.456V97.712C385.104 97.856 384.688 97.976 384.176 98.072C383.664 98.184 383.128 98.24 382.568 98.24C381.832 98.24 381.16 98.12 380.552 97.88C379.944 97.624 379.464 97.192 379.112 96.584C378.76 95.976 378.584 95.128 378.584 94.04V87.272H376.832V85.952L378.752 84.896L379.712 82.136H381.608V84.992H385.304V87.272H381.608V94.016C381.608 94.624 381.768 95.08 382.088 95.384C382.408 95.672 382.824 95.816 383.336 95.816ZM391.07 79.76V84.104C391.07 84.616 391.046 85.12 390.998 85.616C390.966 86.096 390.934 86.456 390.902 86.696H391.094C391.51 86.04 392.054 85.552 392.726 85.232C393.398 84.912 394.142 84.752 394.958 84.752C396.43 84.752 397.582 85.128 398.414 85.88C399.246 86.632 399.662 87.848 399.662 89.528V98H396.638V90.128C396.638 88.176 395.838 87.2 394.238 87.2C393.022 87.2 392.19 87.584 391.742 88.352C391.294 89.12 391.07 90.216 391.07 91.64V98H388.046V79.76H391.07ZM408.676 84.752C410.42 84.752 411.796 85.272 412.804 86.312C413.828 87.352 414.34 88.8 414.34 90.656V92.192H405.748C405.78 93.376 406.108 94.296 406.732 94.952C407.356 95.592 408.22 95.912 409.324 95.912C410.156 95.912 410.908 95.832 411.58 95.672C412.252 95.496 412.94 95.248 413.644 94.928V97.352C413.004 97.656 412.34 97.88 411.652 98.024C410.964 98.168 410.14 98.24 409.18 98.24C407.916 98.24 406.788 98 405.796 97.52C404.82 97.024 404.052 96.28 403.492 95.288C402.948 94.296 402.676 93.064 402.676 91.592C402.676 89.368 403.228 87.672 404.332 86.504C405.436 85.336 406.884 84.752 408.676 84.752ZM408.676 86.984C407.86 86.984 407.196 87.248 406.684 87.776C406.188 88.288 405.9 89.056 405.82 90.08H411.412C411.396 89.184 411.164 88.448 410.716 87.872C410.284 87.28 409.604 86.984 408.676 86.984ZM426.245 94.232C426.245 95.544 425.773 96.544 424.829 97.232C423.901 97.904 422.565 98.24 420.821 98.24C419.909 98.24 419.125 98.176 418.469 98.048C417.829 97.92 417.205 97.72 416.597 97.448V94.88C417.237 95.184 417.941 95.44 418.709 95.648C419.493 95.856 420.229 95.96 420.917 95.96C421.749 95.96 422.349 95.832 422.717 95.576C423.085 95.32 423.269 94.976 423.269 94.544C423.269 94.288 423.197 94.064 423.053 93.872C422.909 93.664 422.621 93.44 422.189 93.2C421.773 92.96 421.149 92.664 420.317 92.312C419.485 91.992 418.789 91.664 418.229 91.328C417.685 90.976 417.269 90.568 416.981 90.104C416.709 89.64 416.573 89.04 416.573 88.304C416.573 87.136 417.029 86.256 417.941 85.664C418.869 85.056 420.101 84.752 421.637 84.752C422.437 84.752 423.189 84.832 423.893 84.992C424.613 85.152 425.333 85.392 426.053 85.712L425.093 87.944C424.485 87.688 423.893 87.472 423.317 87.296C422.741 87.12 422.149 87.032 421.541 87.032C420.213 87.032 419.549 87.408 419.549 88.16C419.549 88.432 419.629 88.664 419.789 88.856C419.965 89.048 420.261 89.256 420.677 89.48C421.109 89.688 421.717 89.944 422.501 90.248C423.269 90.552 423.933 90.872 424.493 91.208C425.053 91.528 425.485 91.928 425.789 92.408C426.093 92.888 426.245 93.496 426.245 94.232ZM434.387 84.752C436.131 84.752 437.507 85.272 438.515 86.312C439.539 87.352 440.051 88.8 440.051 90.656V92.192H431.459C431.491 93.376 431.819 94.296 432.443 94.952C433.067 95.592 433.931 95.912 435.035 95.912C435.867 95.912 436.619 95.832 437.291 95.672C437.963 95.496 438.651 95.248 439.355 94.928V97.352C438.715 97.656 438.051 97.88 437.363 98.024C436.675 98.168 435.851 98.24 434.891 98.24C433.627 98.24 432.499 98 431.507 97.52C430.531 97.024 429.763 96.28 429.203 95.288C428.659 94.296 428.387 93.064 428.387 91.592C428.387 89.368 428.939 87.672 430.043 86.504C431.147 85.336 432.595 84.752 434.387 84.752ZM434.387 86.984C433.571 86.984 432.907 87.248 432.395 87.776C431.899 88.288 431.611 89.056 431.531 90.08H437.123C437.107 89.184 436.875 88.448 436.427 87.872C435.995 87.28 435.315 86.984 434.387 86.984ZM454.375 95.816C454.743 95.816 455.103 95.784 455.455 95.72C455.823 95.64 456.159 95.552 456.463 95.456V97.712C456.143 97.856 455.727 97.976 455.215 98.072C454.703 98.184 454.167 98.24 453.607 98.24C452.871 98.24 452.199 98.12 451.591 97.88C450.983 97.624 450.503 97.192 450.151 96.584C449.799 95.976 449.623 95.128 449.623 94.04V87.272H447.871V85.952L449.791 84.896L450.751 82.136H452.647V84.992H456.343V87.272H452.647V94.016C452.647 94.624 452.807 95.08 453.127 95.384C453.447 95.672 453.863 95.816 454.375 95.816ZM457.141 84.992H460.429L463.021 92.336C463.197 92.8 463.341 93.256 463.453 93.704C463.565 94.152 463.645 94.608 463.693 95.072H463.789C463.853 94.672 463.949 94.232 464.077 93.752C464.205 93.272 464.349 92.8 464.509 92.336L467.005 84.992H470.269L464.725 99.728C464.229 101.024 463.549 102.016 462.685 102.704C461.837 103.408 460.789 103.76 459.541 103.76C459.141 103.76 458.797 103.736 458.509 103.688C458.221 103.656 457.965 103.616 457.741 103.568V101.168C457.917 101.2 458.125 101.232 458.365 101.264C458.621 101.296 458.885 101.312 459.157 101.312C459.909 101.312 460.501 101.088 460.933 100.64C461.381 100.208 461.725 99.664 461.965 99.008L462.349 97.952L457.141 84.992ZM479.05 84.752C480.57 84.752 481.794 85.32 482.722 86.456C483.65 87.576 484.114 89.248 484.114 91.472C484.114 93.696 483.634 95.384 482.674 96.536C481.73 97.672 480.498 98.24 478.978 98.24C478.018 98.24 477.242 98.064 476.65 97.712C476.058 97.36 475.586 96.952 475.234 96.488H475.042C475.09 96.792 475.13 97.128 475.162 97.496C475.21 97.848 475.234 98.176 475.234 98.48V103.76H472.21V84.992H474.658L475.09 86.72H475.234C475.586 86.176 476.066 85.712 476.674 85.328C477.282 84.944 478.074 84.752 479.05 84.752ZM478.186 87.2C477.114 87.2 476.354 87.52 475.906 88.16C475.474 88.8 475.25 89.768 475.234 91.064V91.448C475.234 92.84 475.442 93.912 475.858 94.664C476.29 95.4 477.082 95.768 478.234 95.768C479.178 95.768 479.874 95.384 480.322 94.616C480.786 93.832 481.018 92.768 481.018 91.424C481.018 90.08 480.786 89.04 480.322 88.304C479.874 87.568 479.162 87.2 478.186 87.2ZM492.465 84.752C494.209 84.752 495.585 85.272 496.593 86.312C497.617 87.352 498.129 88.8 498.129 90.656V92.192H489.537C489.569 93.376 489.897 94.296 490.521 94.952C491.145 95.592 492.009 95.912 493.113 95.912C493.945 95.912 494.697 95.832 495.369 95.672C496.041 95.496 496.729 95.248 497.433 94.928V97.352C496.793 97.656 496.129 97.88 495.441 98.024C494.753 98.168 493.929 98.24 492.969 98.24C491.705 98.24 490.577 98 489.585 97.52C488.609 97.024 487.841 96.28 487.281 95.288C486.737 94.296 486.465 93.064 486.465 91.592C486.465 89.368 487.017 87.672 488.121 86.504C489.225 85.336 490.673 84.752 492.465 84.752ZM492.465 86.984C491.649 86.984 490.985 87.248 490.473 87.776C489.977 88.288 489.689 89.056 489.609 90.08H495.201C495.185 89.184 494.953 88.448 494.505 87.872C494.073 87.28 493.393 86.984 492.465 86.984ZM510.034 94.232C510.034 95.544 509.562 96.544 508.618 97.232C507.69 97.904 506.354 98.24 504.61 98.24C503.698 98.24 502.914 98.176 502.258 98.048C501.618 97.92 500.994 97.72 500.386 97.448V94.88C501.026 95.184 501.73 95.44 502.498 95.648C503.282 95.856 504.018 95.96 504.706 95.96C505.538 95.96 506.138 95.832 506.506 95.576C506.874 95.32 507.058 94.976 507.058 94.544C507.058 94.288 506.986 94.064 506.842 93.872C506.698 93.664 506.41 93.44 505.978 93.2C505.562 92.96 504.938 92.664 504.106 92.312C503.274 91.992 502.578 91.664 502.018 91.328C501.474 90.976 501.058 90.568 500.77 90.104C500.498 89.64 500.362 89.04 500.362 88.304C500.362 87.136 500.818 86.256 501.73 85.664C502.658 85.056 503.89 84.752 505.426 84.752C506.226 84.752 506.978 84.832 507.682 84.992C508.402 85.152 509.122 85.392 509.842 85.712L508.882 87.944C508.274 87.688 507.682 87.472 507.106 87.296C506.53 87.12 505.938 87.032 505.33 87.032C504.002 87.032 503.338 87.408 503.338 88.16C503.338 88.432 503.418 88.664 503.578 88.856C503.754 89.048 504.05 89.256 504.466 89.48C504.898 89.688 505.506 89.944 506.29 90.248C507.058 90.552 507.722 90.872 508.282 91.208C508.842 91.528 509.274 91.928 509.578 92.408C509.882 92.888 510.034 93.496 510.034 94.232ZM530.794 91.472C530.794 93.632 530.234 95.304 529.114 96.488C527.994 97.656 526.474 98.24 524.554 98.24C523.37 98.24 522.314 97.976 521.386 97.448C520.458 96.92 519.73 96.152 519.202 95.144C518.674 94.136 518.41 92.912 518.41 91.472C518.41 89.312 518.962 87.656 520.066 86.504C521.186 85.336 522.706 84.752 524.626 84.752C525.826 84.752 526.89 85.016 527.818 85.544C528.746 86.056 529.474 86.816 530.002 87.824C530.53 88.816 530.794 90.032 530.794 91.472ZM521.506 91.472C521.506 92.848 521.746 93.912 522.226 94.664C522.722 95.416 523.514 95.792 524.602 95.792C525.69 95.792 526.474 95.416 526.954 94.664C527.45 93.912 527.698 92.848 527.698 91.472C527.698 90.096 527.45 89.04 526.954 88.304C526.474 87.568 525.682 87.2 524.578 87.2C523.506 87.2 522.722 87.568 522.226 88.304C521.746 89.04 521.506 90.096 521.506 91.472ZM540.665 87.272H537.521V98H534.497V87.272H532.409V85.832L534.497 84.968V84.08C534.497 82.416 534.889 81.264 535.673 80.624C536.473 79.968 537.561 79.64 538.937 79.64C539.561 79.64 540.129 79.696 540.641 79.808C541.169 79.904 541.601 80.016 541.937 80.144L541.169 82.4C540.897 82.32 540.593 82.248 540.257 82.184C539.937 82.104 539.585 82.064 539.201 82.064C538.625 82.064 538.201 82.248 537.929 82.616C537.657 82.968 537.521 83.48 537.521 84.152V84.992H540.665V87.272ZM557.917 94.232C557.917 95.544 557.445 96.544 556.501 97.232C555.573 97.904 554.237 98.24 552.493 98.24C551.581 98.24 550.797 98.176 550.141 98.048C549.501 97.92 548.877 97.72 548.269 97.448V94.88C548.909 95.184 549.613 95.44 550.381 95.648C551.165 95.856 551.901 95.96 552.589 95.96C553.421 95.96 554.021 95.832 554.389 95.576C554.757 95.32 554.941 94.976 554.941 94.544C554.941 94.288 554.869 94.064 554.725 93.872C554.581 93.664 554.293 93.44 553.861 93.2C553.445 92.96 552.821 92.664 551.989 92.312C551.157 91.992 550.461 91.664 549.901 91.328C549.357 90.976 548.941 90.568 548.653 90.104C548.381 89.64 548.245 89.04 548.245 88.304C548.245 87.136 548.701 86.256 549.613 85.664C550.541 85.056 551.773 84.752 553.309 84.752C554.109 84.752 554.861 84.832 555.565 84.992C556.285 85.152 557.005 85.392 557.725 85.712L556.765 87.944C556.157 87.688 555.565 87.472 554.989 87.296C554.413 87.12 553.821 87.032 553.213 87.032C551.885 87.032 551.221 87.408 551.221 88.16C551.221 88.432 551.301 88.664 551.461 88.856C551.637 89.048 551.933 89.256 552.349 89.48C552.781 89.688 553.389 89.944 554.173 90.248C554.941 90.552 555.605 90.872 556.165 91.208C556.725 91.528 557.157 91.928 557.461 92.408C557.765 92.888 557.917 93.496 557.917 94.232ZM566.083 98.24C564.211 98.24 562.739 97.704 561.667 96.632C560.595 95.56 560.059 93.872 560.059 91.568C560.059 89.968 560.323 88.672 560.851 87.68C561.395 86.672 562.139 85.936 563.083 85.472C564.027 84.992 565.107 84.752 566.323 84.752C567.139 84.752 567.867 84.832 568.507 84.992C569.147 85.152 569.691 85.344 570.139 85.568L569.251 87.944C568.755 87.752 568.259 87.592 567.763 87.464C567.267 87.32 566.787 87.248 566.323 87.248C564.211 87.248 563.155 88.68 563.155 91.544C563.155 92.936 563.419 93.984 563.947 94.688C564.491 95.392 565.267 95.744 566.275 95.744C566.995 95.744 567.635 95.656 568.195 95.48C568.755 95.304 569.291 95.064 569.803 94.76V97.376C569.307 97.664 568.771 97.88 568.195 98.024C567.635 98.168 566.931 98.24 566.083 98.24ZM578.034 84.752C579.714 84.752 580.986 85.12 581.85 85.856C582.73 86.592 583.17 87.728 583.17 89.264V98H581.034L580.434 96.2H580.338C579.778 96.904 579.186 97.424 578.562 97.76C577.938 98.08 577.09 98.24 576.018 98.24C574.85 98.24 573.882 97.912 573.114 97.256C572.346 96.6 571.962 95.584 571.962 94.208C571.962 92.864 572.45 91.856 573.426 91.184C574.418 90.512 575.914 90.136 577.914 90.056L580.17 89.984V89.336C580.17 88.52 579.97 87.936 579.57 87.584C579.17 87.216 578.61 87.032 577.89 87.032C577.234 87.032 576.602 87.128 575.994 87.32C575.402 87.512 574.81 87.736 574.218 87.992L573.258 85.88C573.898 85.544 574.626 85.272 575.442 85.064C576.274 84.856 577.138 84.752 578.034 84.752ZM580.17 91.856L578.586 91.904C577.258 91.952 576.338 92.184 575.826 92.6C575.314 93 575.058 93.544 575.058 94.232C575.058 94.856 575.234 95.304 575.586 95.576C575.954 95.832 576.434 95.96 577.026 95.96C577.906 95.96 578.65 95.712 579.258 95.216C579.866 94.704 580.17 93.952 580.17 92.96V91.856ZM601.864 84.752C603.336 84.752 604.44 85.128 605.176 85.88C605.928 86.632 606.304 87.848 606.304 89.528V98H603.28V90.104C603.28 88.168 602.544 87.2 601.072 87.2C600.016 87.2 599.264 87.544 598.816 88.232C598.368 88.92 598.144 89.92 598.144 91.232V98H595.12V90.104C595.12 88.168 594.376 87.2 592.888 87.2C591.784 87.2 591.024 87.584 590.608 88.352C590.192 89.12 589.984 90.216 589.984 91.64V98H586.96V84.992H589.288L589.72 86.696H589.888C590.272 86.024 590.808 85.536 591.496 85.232C592.2 84.912 592.928 84.752 593.68 84.752C594.656 84.752 595.472 84.92 596.128 85.256C596.8 85.576 597.312 86.08 597.664 86.768H597.904C598.304 86.064 598.864 85.552 599.584 85.232C600.304 84.912 601.064 84.752 601.864 84.752ZM618.948 94.232C618.948 95.544 618.476 96.544 617.532 97.232C616.604 97.904 615.268 98.24 613.524 98.24C612.612 98.24 611.828 98.176 611.172 98.048C610.532 97.92 609.908 97.72 609.3 97.448V94.88C609.94 95.184 610.644 95.44 611.412 95.648C612.196 95.856 612.932 95.96 613.62 95.96C614.452 95.96 615.052 95.832 615.42 95.576C615.788 95.32 615.972 94.976 615.972 94.544C615.972 94.288 615.9 94.064 615.756 93.872C615.612 93.664 615.324 93.44 614.892 93.2C614.476 92.96 613.852 92.664 613.02 92.312C612.188 91.992 611.492 91.664 610.932 91.328C610.388 90.976 609.972 90.568 609.684 90.104C609.412 89.64 609.276 89.04 609.276 88.304C609.276 87.136 609.732 86.256 610.644 85.664C611.572 85.056 612.804 84.752 614.34 84.752C615.14 84.752 615.892 84.832 616.596 84.992C617.316 85.152 618.036 85.392 618.756 85.712L617.796 87.944C617.188 87.688 616.596 87.472 616.02 87.296C615.444 87.12 614.852 87.032 614.244 87.032C612.916 87.032 612.252 87.408 612.252 88.16C612.252 88.432 612.332 88.664 612.492 88.856C612.668 89.048 612.964 89.256 613.38 89.48C613.812 89.688 614.42 89.944 615.204 90.248C615.972 90.552 616.636 90.872 617.196 91.208C617.756 91.528 618.188 91.928 618.492 92.408C618.796 92.888 618.948 93.496 618.948 94.232ZM621.426 96.464C621.426 95.792 621.602 95.32 621.954 95.048C622.306 94.76 622.738 94.616 623.25 94.616C623.746 94.616 624.178 94.76 624.546 95.048C624.914 95.32 625.098 95.792 625.098 96.464C625.098 97.12 624.914 97.592 624.546 97.88C624.178 98.168 623.746 98.312 623.25 98.312C622.738 98.312 622.306 98.168 621.954 97.88C621.602 97.592 621.426 97.12 621.426 96.464Z" fill="#141414"/>
</svg>
