<svg width="587" height="165" viewBox="0 0 587 165" fill="none" xmlns="http://www.w3.org/2000/svg">
<rect x="1.5" y="1.5" width="584" height="162" rx="48.5" fill="white" stroke="#141414" stroke-width="3"/>
<path d="M82.6236 73.08C82.6236 75.6133 81.7036 77.64 79.8636 79.16C78.0503 80.6533 75.4636 81.4 72.1036 81.4C69.0903 81.4 66.3969 80.8267 64.0236 79.68V74.04C65.3836 74.6267 66.7836 75.1733 68.2236 75.68C69.6903 76.16 71.1436 76.4 72.5836 76.4C74.0769 76.4 75.1303 76.12 75.7436 75.56C76.3836 74.9733 76.7036 74.24 76.7036 73.36C76.7036 72.64 76.4503 72.0267 75.9436 71.52C75.4636 71.0133 74.8103 70.5467 73.9836 70.12C73.1569 69.6667 72.2103 69.1867 71.1436 68.68C70.4769 68.36 69.7569 67.9867 68.9836 67.56C68.2103 67.1067 67.4636 66.56 66.7436 65.92C66.0503 65.2533 65.4769 64.4533 65.0236 63.52C64.5703 62.5867 64.3436 61.4667 64.3436 60.16C64.3436 57.6 65.2103 55.6133 66.9436 54.2C68.6769 52.76 71.0369 52.04 74.0236 52.04C75.5169 52.04 76.9303 52.2133 78.2636 52.56C79.6236 52.9067 81.0369 53.4 82.5036 54.04L80.5436 58.76C79.2369 58.2267 78.0636 57.8133 77.0236 57.52C75.9836 57.2267 74.9169 57.08 73.8236 57.08C72.6769 57.08 71.7969 57.3467 71.1836 57.88C70.5703 58.4133 70.2636 59.1067 70.2636 59.96C70.2636 60.9733 70.7169 61.7733 71.6236 62.36C72.5303 62.9467 73.8769 63.6667 75.6636 64.52C77.1303 65.2133 78.3703 65.9333 79.3836 66.68C80.4236 67.4267 81.2236 68.3067 81.7836 69.32C82.3436 70.3333 82.6236 71.5867 82.6236 73.08ZM96.2948 58.72C99.2282 58.72 101.468 59.36 103.015 60.64C104.588 61.8933 105.375 63.8267 105.375 66.44V81H101.215L100.055 78.04H99.8948C98.9615 79.2133 97.9748 80.0667 96.9348 80.6C95.8948 81.1333 94.4682 81.4 92.6548 81.4C90.7082 81.4 89.0948 80.84 87.8148 79.72C86.5348 78.5733 85.8948 76.8267 85.8948 74.48C85.8948 72.16 86.7082 70.4533 88.3348 69.36C89.9615 68.24 92.4015 67.6267 95.6548 67.52L99.4548 67.4V66.44C99.4548 65.2933 99.1482 64.4533 98.5348 63.92C97.9482 63.3867 97.1215 63.12 96.0548 63.12C94.9882 63.12 93.9482 63.28 92.9348 63.6C91.9215 63.8933 90.9082 64.2667 89.8948 64.72L87.9348 60.68C89.1082 60.0667 90.4015 59.5867 91.8148 59.24C93.2548 58.8933 94.7482 58.72 96.2948 58.72ZM99.4548 70.88L97.1348 70.96C95.2148 71.0133 93.8815 71.36 93.1348 72C92.3882 72.64 92.0148 73.48 92.0148 74.52C92.0148 75.4267 92.2815 76.08 92.8148 76.48C93.3482 76.8533 94.0415 77.04 94.8948 77.04C96.1748 77.04 97.2548 76.6667 98.1348 75.92C99.0148 75.1467 99.4548 74.0667 99.4548 72.68V70.88ZM108.355 59.16H114.875L118.995 71.44C119.209 72.0267 119.369 72.64 119.475 73.28C119.582 73.8933 119.662 74.5467 119.715 75.24H119.835C119.915 74.5467 120.022 73.8933 120.155 73.28C120.315 72.64 120.489 72.0267 120.675 71.44L124.715 59.16H131.115L121.875 83.8C121.049 86.0667 119.835 87.76 118.235 88.88C116.662 90.0267 114.835 90.6 112.755 90.6C112.089 90.6 111.502 90.56 110.995 90.48C110.515 90.4267 110.089 90.36 109.715 90.28V85.56C110.009 85.6133 110.355 85.6667 110.755 85.72C111.182 85.7733 111.622 85.8 112.075 85.8C113.329 85.8 114.315 85.4133 115.035 84.64C115.782 83.8933 116.329 82.9867 116.675 81.92L117.035 80.84L108.355 59.16ZM156.8 58.76C159.253 58.76 161.24 59.72 162.76 61.64C164.28 63.5333 165.04 66.3333 165.04 70.04C165.04 73.7467 164.253 76.5733 162.68 78.52C161.106 80.44 159.093 81.4 156.64 81.4C155.066 81.4 153.813 81.12 152.88 80.56C151.946 79.9733 151.186 79.32 150.6 78.6H150.28C150.493 79.72 150.6 80.7867 150.6 81.8V90.6H144.64V59.16H149.48L150.32 62H150.6C151.186 61.12 151.973 60.36 152.96 59.72C153.946 59.08 155.226 58.76 156.8 58.76ZM154.88 63.52C153.333 63.52 152.24 64 151.6 64.96C150.986 65.92 150.653 67.3867 150.6 69.36V70C150.6 72.1067 150.906 73.7333 151.52 74.88C152.16 76 153.306 76.56 154.96 76.56C156.32 76.56 157.32 76 157.96 74.88C158.626 73.7333 158.96 72.0933 158.96 69.96C158.96 65.6667 157.6 63.52 154.88 63.52ZM189.792 70.04C189.792 73.6667 188.832 76.4667 186.912 78.44C185.019 80.4133 182.432 81.4 179.152 81.4C177.125 81.4 175.312 80.96 173.712 80.08C172.139 79.2 170.899 77.92 169.992 76.24C169.085 74.5333 168.632 72.4667 168.632 70.04C168.632 66.4133 169.579 63.6267 171.472 61.68C173.365 59.7333 175.965 58.76 179.272 58.76C181.325 58.76 183.139 59.2 184.712 60.08C186.285 60.96 187.525 62.24 188.432 63.92C189.339 65.5733 189.792 67.6133 189.792 70.04ZM174.712 70.04C174.712 72.2 175.059 73.84 175.752 74.96C176.472 76.0533 177.632 76.6 179.232 76.6C180.805 76.6 181.939 76.0533 182.632 74.96C183.352 73.84 183.712 72.2 183.712 70.04C183.712 67.88 183.352 66.2667 182.632 65.2C181.939 64.1067 180.792 63.56 179.192 63.56C177.619 63.56 176.472 64.1067 175.752 65.2C175.059 66.2667 174.712 67.88 174.712 70.04ZM203.918 76.64C204.584 76.64 205.224 76.5733 205.838 76.44C206.451 76.3067 207.064 76.1467 207.678 75.96V80.4C207.038 80.6667 206.238 80.8933 205.278 81.08C204.344 81.2933 203.318 81.4 202.198 81.4C200.891 81.4 199.718 81.1867 198.678 80.76C197.664 80.3333 196.851 79.6 196.238 78.56C195.651 77.4933 195.358 76.0267 195.358 74.16V63.64H192.518V61.12L195.798 59.12L197.518 54.52H201.318V59.16H207.438V63.64H201.318V74.16C201.318 74.9867 201.558 75.6133 202.038 76.04C202.518 76.44 203.144 76.64 203.918 76.64ZM221.021 58.72C223.955 58.72 226.195 59.36 227.741 60.64C229.315 61.8933 230.101 63.8267 230.101 66.44V81H225.941L224.781 78.04H224.621C223.688 79.2133 222.701 80.0667 221.661 80.6C220.621 81.1333 219.195 81.4 217.381 81.4C215.435 81.4 213.821 80.84 212.541 79.72C211.261 78.5733 210.621 76.8267 210.621 74.48C210.621 72.16 211.435 70.4533 213.061 69.36C214.688 68.24 217.128 67.6267 220.381 67.52L224.181 67.4V66.44C224.181 65.2933 223.875 64.4533 223.261 63.92C222.675 63.3867 221.848 63.12 220.781 63.12C219.715 63.12 218.675 63.28 217.661 63.6C216.648 63.8933 215.635 64.2667 214.621 64.72L212.661 60.68C213.835 60.0667 215.128 59.5867 216.541 59.24C217.981 58.8933 219.475 58.72 221.021 58.72ZM224.181 70.88L221.861 70.96C219.941 71.0133 218.608 71.36 217.861 72C217.115 72.64 216.741 73.48 216.741 74.52C216.741 75.4267 217.008 76.08 217.541 76.48C218.075 76.8533 218.768 77.04 219.621 77.04C220.901 77.04 221.981 76.6667 222.861 75.92C223.741 75.1467 224.181 74.0667 224.181 72.68V70.88ZM245.402 76.64C246.069 76.64 246.709 76.5733 247.322 76.44C247.935 76.3067 248.549 76.1467 249.162 75.96V80.4C248.522 80.6667 247.722 80.8933 246.762 81.08C245.829 81.2933 244.802 81.4 243.682 81.4C242.375 81.4 241.202 81.1867 240.162 80.76C239.149 80.3333 238.335 79.6 237.722 78.56C237.135 77.4933 236.842 76.0267 236.842 74.16V63.64H234.002V61.12L237.282 59.12L239.002 54.52H242.802V59.16H248.922V63.64H242.802V74.16C242.802 74.9867 243.042 75.6133 243.522 76.04C244.002 76.44 244.629 76.64 245.402 76.64ZM273.386 70.04C273.386 73.6667 272.426 76.4667 270.506 78.44C268.612 80.4133 266.026 81.4 262.746 81.4C260.719 81.4 258.906 80.96 257.306 80.08C255.732 79.2 254.492 77.92 253.586 76.24C252.679 74.5333 252.226 72.4667 252.226 70.04C252.226 66.4133 253.172 63.6267 255.066 61.68C256.959 59.7333 259.559 58.76 262.866 58.76C264.919 58.76 266.732 59.2 268.306 60.08C269.879 60.96 271.119 62.24 272.026 63.92C272.932 65.5733 273.386 67.6133 273.386 70.04ZM258.306 70.04C258.306 72.2 258.652 73.84 259.346 74.96C260.066 76.0533 261.226 76.6 262.826 76.6C264.399 76.6 265.532 76.0533 266.226 74.96C266.946 73.84 267.306 72.2 267.306 70.04C267.306 67.88 266.946 66.2667 266.226 65.2C265.532 64.1067 264.386 63.56 262.786 63.56C261.212 63.56 260.066 64.1067 259.346 65.2C258.652 66.2667 258.306 67.88 258.306 70.04ZM291.702 50.6C292.582 50.6 293.342 50.8133 293.982 51.24C294.622 51.64 294.942 52.4 294.942 53.52C294.942 54.6133 294.622 55.3733 293.982 55.8C293.342 56.2267 292.582 56.44 291.702 56.44C290.795 56.44 290.022 56.2267 289.382 55.8C288.769 55.3733 288.462 54.6133 288.462 53.52C288.462 52.4 288.769 51.64 289.382 51.24C290.022 50.8133 290.795 50.6 291.702 50.6ZM294.662 59.16V81H288.702V59.16H294.662ZM312.97 63.64H307.81V81H301.85V63.64H298.57V60.76L301.85 59.16V57.56C301.85 55.6933 302.156 54.2533 302.77 53.24C303.41 52.2 304.303 51.4667 305.45 51.04C306.623 50.6133 307.996 50.4 309.57 50.4C310.743 50.4 311.796 50.4933 312.73 50.68C313.69 50.8667 314.463 51.08 315.05 51.32L313.53 55.68C313.076 55.5467 312.583 55.4267 312.05 55.32C311.516 55.1867 310.903 55.12 310.21 55.12C309.383 55.12 308.77 55.3733 308.37 55.88C307.996 56.3867 307.81 57.0267 307.81 57.8V59.16H312.97V63.64ZM346.789 59.16V81H342.229L341.429 78.2H341.109C340.416 79.32 339.456 80.1333 338.229 80.64C337.029 81.1467 335.749 81.4 334.389 81.4C332.042 81.4 330.162 80.7733 328.749 79.52C327.336 78.24 326.629 76.2 326.629 73.4V59.16H332.589V71.92C332.589 73.4667 332.869 74.64 333.429 75.44C333.989 76.24 334.882 76.64 336.109 76.64C337.922 76.64 339.162 76.0267 339.829 74.8C340.496 73.5467 340.829 71.76 340.829 69.44V59.16H346.789ZM365.238 58.76C365.531 58.76 365.878 58.7733 366.278 58.8C366.678 58.8267 366.998 58.8667 367.238 58.92L366.798 64.52C366.611 64.4667 366.331 64.4267 365.958 64.4C365.611 64.3467 365.305 64.32 365.038 64.32C364.025 64.32 363.051 64.5067 362.118 64.88C361.185 65.2267 360.425 65.8 359.838 66.6C359.278 67.4 358.998 68.4933 358.998 69.88V81H353.038V59.16H357.558L358.438 62.84H358.718C359.358 61.72 360.238 60.76 361.358 59.96C362.478 59.16 363.771 58.76 365.238 58.76ZM393.793 58.76C394.086 58.76 394.433 58.7733 394.833 58.8C395.233 58.8267 395.553 58.8667 395.793 58.92L395.353 64.52C395.166 64.4667 394.886 64.4267 394.513 64.4C394.166 64.3467 393.859 64.32 393.593 64.32C392.579 64.32 391.606 64.5067 390.673 64.88C389.739 65.2267 388.979 65.8 388.393 66.6C387.833 67.4 387.553 68.4933 387.553 69.88V81H381.593V59.16H386.113L386.993 62.84H387.273C387.913 61.72 388.793 60.76 389.913 59.96C391.033 59.16 392.326 58.76 393.793 58.76ZM407.975 58.76C410.989 58.76 413.375 59.6267 415.135 61.36C416.895 63.0667 417.775 65.5067 417.775 68.68V71.56H403.695C403.749 73.24 404.242 74.56 405.175 75.52C406.135 76.48 407.455 76.96 409.135 76.96C410.549 76.96 411.829 76.8267 412.975 76.56C414.122 76.2667 415.309 75.8267 416.535 75.24V79.84C415.469 80.3733 414.335 80.76 413.135 81C411.962 81.2667 410.535 81.4 408.855 81.4C406.669 81.4 404.735 81 403.055 80.2C401.375 79.3733 400.055 78.1333 399.095 76.48C398.135 74.8267 397.655 72.7467 397.655 70.24C397.655 67.68 398.082 65.56 398.935 63.88C399.815 62.1733 401.029 60.8933 402.575 60.04C404.122 59.1867 405.922 58.76 407.975 58.76ZM408.015 63C406.869 63 405.909 63.3733 405.135 64.12C404.389 64.8667 403.949 66.0267 403.815 67.6H412.175C412.149 66.2667 411.802 65.1733 411.135 64.32C410.469 63.44 409.429 63 408.015 63ZM431.568 58.72C434.502 58.72 436.742 59.36 438.288 60.64C439.862 61.8933 440.648 63.8267 440.648 66.44V81H436.488L435.328 78.04H435.168C434.235 79.2133 433.248 80.0667 432.208 80.6C431.168 81.1333 429.742 81.4 427.928 81.4C425.982 81.4 424.368 80.84 423.088 79.72C421.808 78.5733 421.168 76.8267 421.168 74.48C421.168 72.16 421.982 70.4533 423.608 69.36C425.235 68.24 427.675 67.6267 430.928 67.52L434.728 67.4V66.44C434.728 65.2933 434.422 64.4533 433.808 63.92C433.222 63.3867 432.395 63.12 431.328 63.12C430.262 63.12 429.222 63.28 428.208 63.6C427.195 63.8933 426.182 64.2667 425.168 64.72L423.208 60.68C424.382 60.0667 425.675 59.5867 427.088 59.24C428.528 58.8933 430.022 58.72 431.568 58.72ZM434.728 70.88L432.408 70.96C430.488 71.0133 429.155 71.36 428.408 72C427.662 72.64 427.288 73.48 427.288 74.52C427.288 75.4267 427.555 76.08 428.088 76.48C428.622 76.8533 429.315 77.04 430.168 77.04C431.448 77.04 432.528 76.6667 433.408 75.92C434.288 75.1467 434.728 74.0667 434.728 72.68V70.88ZM452.709 81H446.749V50.6H452.709V81Z" fill="#333333"/>
<line x1="467.5" y1="91" x2="467.5" y2="41" stroke="black" stroke-width="3"/>
<path d="M77.0979 113.84C77.0979 115.32 76.8512 116.613 76.3579 117.72C75.8779 118.813 75.1379 119.667 74.1379 120.28C73.1379 120.893 71.8579 121.2 70.2979 121.2C68.7512 121.2 67.4712 120.893 66.4579 120.28C65.4579 119.667 64.7112 118.807 64.2179 117.7C63.7379 116.593 63.4979 115.3 63.4979 113.82C63.4979 112.34 63.7379 111.053 64.2179 109.96C64.7112 108.867 65.4579 108.02 66.4579 107.42C67.4712 106.807 68.7579 106.5 70.3179 106.5C71.8646 106.5 73.1379 106.807 74.1379 107.42C75.1379 108.02 75.8779 108.873 76.3579 109.98C76.8512 111.073 77.0979 112.36 77.0979 113.84ZM66.6779 113.84C66.6779 115.333 66.9646 116.513 67.5379 117.38C68.1112 118.233 69.0312 118.66 70.2979 118.66C71.5912 118.66 72.5179 118.233 73.0779 117.38C73.6379 116.513 73.9179 115.333 73.9179 113.84C73.9179 112.333 73.6379 111.153 73.0779 110.3C72.5179 109.447 71.5979 109.02 70.3179 109.02C69.0379 109.02 68.1112 109.447 67.5379 110.3C66.9646 111.153 66.6779 112.333 66.6779 113.84ZM86.0159 109.88C87.1892 109.88 88.1292 110.2 88.8359 110.84C89.5425 111.467 89.8959 112.48 89.8959 113.88V121H86.9159V114.62C86.9159 113.833 86.7759 113.247 86.4959 112.86C86.2159 112.46 85.7692 112.26 85.1559 112.26C84.2492 112.26 83.6292 112.573 83.2959 113.2C82.9625 113.813 82.7959 114.7 82.7959 115.86V121H79.8159V110.08H82.0959L82.4959 111.48H82.6559C83.0025 110.92 83.4759 110.513 84.0759 110.26C84.6892 110.007 85.3359 109.88 86.0159 109.88ZM95.9404 121H92.9604V105.8H95.9404V121ZM100.554 105.8C100.994 105.8 101.374 105.907 101.694 106.12C102.014 106.32 102.174 106.7 102.174 107.26C102.174 107.807 102.014 108.187 101.694 108.4C101.374 108.613 100.994 108.72 100.554 108.72C100.101 108.72 99.7141 108.613 99.3941 108.4C99.0875 108.187 98.9341 107.807 98.9341 107.26C98.9341 106.7 99.0875 106.32 99.3941 106.12C99.7141 105.907 100.101 105.8 100.554 105.8ZM102.034 110.08V121H99.0541V110.08H102.034ZM111.348 109.88C112.521 109.88 113.461 110.2 114.168 110.84C114.875 111.467 115.228 112.48 115.228 113.88V121H112.248V114.62C112.248 113.833 112.108 113.247 111.828 112.86C111.548 112.46 111.101 112.26 110.488 112.26C109.581 112.26 108.961 112.573 108.628 113.2C108.295 113.813 108.128 114.7 108.128 115.86V121H105.148V110.08H107.428L107.828 111.48H107.988C108.335 110.92 108.808 110.513 109.408 110.26C110.021 110.007 110.668 109.88 111.348 109.88ZM122.792 109.88C124.299 109.88 125.492 110.313 126.372 111.18C127.252 112.033 127.692 113.253 127.692 114.84V116.28H120.652C120.679 117.12 120.926 117.78 121.392 118.26C121.872 118.74 122.532 118.98 123.372 118.98C124.079 118.98 124.719 118.913 125.292 118.78C125.866 118.633 126.459 118.413 127.072 118.12V120.42C126.539 120.687 125.972 120.88 125.372 121C124.786 121.133 124.072 121.2 123.232 121.2C122.139 121.2 121.172 121 120.332 120.6C119.492 120.187 118.832 119.567 118.352 118.74C117.872 117.913 117.632 116.873 117.632 115.62C117.632 114.34 117.846 113.28 118.272 112.44C118.712 111.587 119.319 110.947 120.092 110.52C120.866 110.093 121.766 109.88 122.792 109.88ZM122.812 112C122.239 112 121.759 112.187 121.372 112.56C120.999 112.933 120.779 113.513 120.712 114.3H124.892C124.879 113.633 124.706 113.087 124.372 112.66C124.039 112.22 123.519 112 122.812 112ZM139.704 106.72C141.651 106.72 143.084 107.073 144.004 107.78C144.937 108.487 145.404 109.56 145.404 111C145.404 111.653 145.277 112.227 145.024 112.72C144.784 113.2 144.457 113.613 144.044 113.96C143.644 114.293 143.211 114.567 142.744 114.78L146.944 121H143.584L140.184 115.52H138.564V121H135.544V106.72H139.704ZM139.484 109.2H138.564V113.06H139.544C140.544 113.06 141.257 112.893 141.684 112.56C142.124 112.227 142.344 111.733 142.344 111.08C142.344 110.4 142.111 109.92 141.644 109.64C141.191 109.347 140.471 109.2 139.484 109.2ZM158.427 115.52C158.427 117.333 157.947 118.733 156.987 119.72C156.041 120.707 154.747 121.2 153.107 121.2C152.094 121.2 151.187 120.98 150.387 120.54C149.601 120.1 148.981 119.46 148.527 118.62C148.074 117.767 147.847 116.733 147.847 115.52C147.847 113.707 148.321 112.313 149.267 111.34C150.214 110.367 151.514 109.88 153.167 109.88C154.194 109.88 155.101 110.1 155.887 110.54C156.674 110.98 157.294 111.62 157.747 112.46C158.201 113.287 158.427 114.307 158.427 115.52ZM150.887 115.52C150.887 116.6 151.061 117.42 151.407 117.98C151.767 118.527 152.347 118.8 153.147 118.8C153.934 118.8 154.501 118.527 154.847 117.98C155.207 117.42 155.387 116.6 155.387 115.52C155.387 114.44 155.207 113.633 154.847 113.1C154.501 112.553 153.927 112.28 153.127 112.28C152.341 112.28 151.767 112.553 151.407 113.1C151.061 113.633 150.887 114.44 150.887 115.52ZM173.71 109.88C174.95 109.88 175.883 110.2 176.51 110.84C177.15 111.467 177.47 112.48 177.47 113.88V121H174.49V114.62C174.49 113.047 173.943 112.26 172.85 112.26C172.063 112.26 171.503 112.54 171.17 113.1C170.837 113.66 170.67 114.467 170.67 115.52V121H167.69V114.62C167.69 113.047 167.143 112.26 166.05 112.26C165.223 112.26 164.65 112.573 164.33 113.2C164.023 113.813 163.87 114.7 163.87 115.86V121H160.89V110.08H163.17L163.57 111.48H163.73C164.063 110.92 164.517 110.513 165.09 110.26C165.677 110.007 166.283 109.88 166.91 109.88C167.71 109.88 168.39 110.013 168.95 110.28C169.51 110.533 169.937 110.933 170.23 111.48H170.49C170.823 110.92 171.283 110.513 171.87 110.26C172.47 110.007 173.083 109.88 173.71 109.88ZM185.019 109.86C186.485 109.86 187.605 110.18 188.379 110.82C189.165 111.447 189.559 112.413 189.559 113.72V121H187.479L186.899 119.52H186.819C186.352 120.107 185.859 120.533 185.339 120.8C184.819 121.067 184.105 121.2 183.199 121.2C182.225 121.2 181.419 120.92 180.779 120.36C180.139 119.787 179.819 118.913 179.819 117.74C179.819 116.58 180.225 115.727 181.039 115.18C181.852 114.62 183.072 114.313 184.699 114.26L186.599 114.2V113.72C186.599 113.147 186.445 112.727 186.139 112.46C185.845 112.193 185.432 112.06 184.899 112.06C184.365 112.06 183.845 112.14 183.339 112.3C182.832 112.447 182.325 112.633 181.819 112.86L180.839 110.84C181.425 110.533 182.072 110.293 182.779 110.12C183.499 109.947 184.245 109.86 185.019 109.86ZM186.599 115.94L185.439 115.98C184.479 116.007 183.812 116.18 183.439 116.5C183.065 116.82 182.879 117.24 182.879 117.76C182.879 118.213 183.012 118.54 183.279 118.74C183.545 118.927 183.892 119.02 184.319 119.02C184.959 119.02 185.499 118.833 185.939 118.46C186.379 118.073 186.599 117.533 186.599 116.84V115.94ZM198.809 109.88C199.982 109.88 200.922 110.2 201.629 110.84C202.335 111.467 202.689 112.48 202.689 113.88V121H199.709V114.62C199.709 113.833 199.569 113.247 199.289 112.86C199.009 112.46 198.562 112.26 197.949 112.26C197.042 112.26 196.422 112.573 196.089 113.2C195.755 113.813 195.589 114.7 195.589 115.86V121H192.609V110.08H194.889L195.289 111.48H195.449C195.795 110.92 196.269 110.513 196.869 110.26C197.482 110.007 198.129 109.88 198.809 109.88ZM210.193 121.2C208.567 121.2 207.307 120.753 206.413 119.86C205.533 118.953 205.093 117.533 205.093 115.6C205.093 114.267 205.32 113.18 205.773 112.34C206.227 111.5 206.853 110.88 207.653 110.48C208.467 110.08 209.4 109.88 210.453 109.88C211.2 109.88 211.847 109.953 212.393 110.1C212.953 110.247 213.44 110.42 213.853 110.62L212.973 112.92C212.507 112.733 212.067 112.58 211.653 112.46C211.253 112.34 210.853 112.28 210.453 112.28C208.907 112.28 208.133 113.38 208.133 115.58C208.133 116.673 208.333 117.48 208.733 118C209.147 118.52 209.72 118.78 210.453 118.78C211.08 118.78 211.633 118.7 212.113 118.54C212.593 118.367 213.06 118.133 213.513 117.84V120.38C213.06 120.673 212.58 120.88 212.073 121C211.58 121.133 210.953 121.2 210.193 121.2ZM220.527 109.88C222.033 109.88 223.227 110.313 224.107 111.18C224.987 112.033 225.427 113.253 225.427 114.84V116.28H218.387C218.413 117.12 218.66 117.78 219.127 118.26C219.607 118.74 220.267 118.98 221.107 118.98C221.813 118.98 222.453 118.913 223.027 118.78C223.6 118.633 224.193 118.413 224.807 118.12V120.42C224.273 120.687 223.707 120.88 223.107 121C222.52 121.133 221.807 121.2 220.967 121.2C219.873 121.2 218.907 121 218.067 120.6C217.227 120.187 216.567 119.567 216.087 118.74C215.607 117.913 215.367 116.873 215.367 115.62C215.367 114.34 215.58 113.28 216.007 112.44C216.447 111.587 217.053 110.947 217.827 110.52C218.6 110.093 219.5 109.88 220.527 109.88ZM220.547 112C219.973 112 219.493 112.187 219.107 112.56C218.733 112.933 218.513 113.513 218.447 114.3H222.627C222.613 113.633 222.44 113.087 222.107 112.66C221.773 112.22 221.253 112 220.547 112ZM241.699 117.04C241.699 118.307 241.239 119.32 240.319 120.08C239.412 120.827 238.119 121.2 236.439 121.2C234.932 121.2 233.585 120.913 232.399 120.34V117.52C233.079 117.813 233.779 118.087 234.499 118.34C235.232 118.58 235.959 118.7 236.679 118.7C237.425 118.7 237.952 118.56 238.259 118.28C238.579 117.987 238.739 117.62 238.739 117.18C238.739 116.82 238.612 116.513 238.359 116.26C238.119 116.007 237.792 115.773 237.379 115.56C236.965 115.333 236.492 115.093 235.959 114.84C235.625 114.68 235.265 114.493 234.879 114.28C234.492 114.053 234.119 113.78 233.759 113.46C233.412 113.127 233.125 112.727 232.899 112.26C232.672 111.793 232.559 111.233 232.559 110.58C232.559 109.3 232.992 108.307 233.859 107.6C234.725 106.88 235.905 106.52 237.399 106.52C238.145 106.52 238.852 106.607 239.519 106.78C240.199 106.953 240.905 107.2 241.639 107.52L240.659 109.88C240.005 109.613 239.419 109.407 238.899 109.26C238.379 109.113 237.845 109.04 237.299 109.04C236.725 109.04 236.285 109.173 235.979 109.44C235.672 109.707 235.519 110.053 235.519 110.48C235.519 110.987 235.745 111.387 236.199 111.68C236.652 111.973 237.325 112.333 238.219 112.76C238.952 113.107 239.572 113.467 240.079 113.84C240.599 114.213 240.999 114.653 241.279 115.16C241.559 115.667 241.699 116.293 241.699 117.04ZM248.494 121.2C246.867 121.2 245.607 120.753 244.714 119.86C243.834 118.953 243.394 117.533 243.394 115.6C243.394 114.267 243.621 113.18 244.074 112.34C244.527 111.5 245.154 110.88 245.954 110.48C246.767 110.08 247.701 109.88 248.754 109.88C249.501 109.88 250.147 109.953 250.694 110.1C251.254 110.247 251.741 110.42 252.154 110.62L251.274 112.92C250.807 112.733 250.367 112.58 249.954 112.46C249.554 112.34 249.154 112.28 248.754 112.28C247.207 112.28 246.434 113.38 246.434 115.58C246.434 116.673 246.634 117.48 247.034 118C247.447 118.52 248.021 118.78 248.754 118.78C249.381 118.78 249.934 118.7 250.414 118.54C250.894 118.367 251.361 118.133 251.814 117.84V120.38C251.361 120.673 250.881 120.88 250.374 121C249.881 121.133 249.254 121.2 248.494 121.2ZM258.808 109.86C260.274 109.86 261.394 110.18 262.168 110.82C262.954 111.447 263.348 112.413 263.348 113.72V121H261.268L260.688 119.52H260.608C260.141 120.107 259.648 120.533 259.128 120.8C258.608 121.067 257.894 121.2 256.988 121.2C256.014 121.2 255.208 120.92 254.568 120.36C253.928 119.787 253.608 118.913 253.608 117.74C253.608 116.58 254.014 115.727 254.828 115.18C255.641 114.62 256.861 114.313 258.488 114.26L260.388 114.2V113.72C260.388 113.147 260.234 112.727 259.928 112.46C259.634 112.193 259.221 112.06 258.688 112.06C258.154 112.06 257.634 112.14 257.128 112.3C256.621 112.447 256.114 112.633 255.608 112.86L254.628 110.84C255.214 110.533 255.861 110.293 256.568 110.12C257.288 109.947 258.034 109.86 258.808 109.86ZM260.388 115.94L259.228 115.98C258.268 116.007 257.601 116.18 257.228 116.5C256.854 116.82 256.668 117.24 256.668 117.76C256.668 118.213 256.801 118.54 257.068 118.74C257.334 118.927 257.681 119.02 258.108 119.02C258.748 119.02 259.288 118.833 259.728 118.46C260.168 118.073 260.388 117.533 260.388 116.84V115.94ZM279.218 109.88C280.458 109.88 281.391 110.2 282.018 110.84C282.658 111.467 282.978 112.48 282.978 113.88V121H279.998V114.62C279.998 113.047 279.451 112.26 278.358 112.26C277.571 112.26 277.011 112.54 276.678 113.1C276.345 113.66 276.178 114.467 276.178 115.52V121H273.198V114.62C273.198 113.047 272.651 112.26 271.558 112.26C270.731 112.26 270.158 112.573 269.838 113.2C269.531 113.813 269.378 114.7 269.378 115.86V121H266.398V110.08H268.678L269.078 111.48H269.238C269.571 110.92 270.025 110.513 270.598 110.26C271.185 110.007 271.791 109.88 272.418 109.88C273.218 109.88 273.898 110.013 274.458 110.28C275.018 110.533 275.445 110.933 275.738 111.48H275.998C276.331 110.92 276.791 110.513 277.378 110.26C277.978 110.007 278.591 109.88 279.218 109.88ZM293.666 117.76C293.666 118.867 293.273 119.72 292.486 120.32C291.713 120.907 290.553 121.2 289.006 121.2C288.246 121.2 287.593 121.147 287.046 121.04C286.5 120.947 285.953 120.787 285.406 120.56V118.1C285.993 118.367 286.626 118.587 287.306 118.76C287.986 118.933 288.586 119.02 289.106 119.02C289.693 119.02 290.106 118.933 290.346 118.76C290.6 118.587 290.726 118.36 290.726 118.08C290.726 117.893 290.673 117.727 290.566 117.58C290.473 117.433 290.26 117.267 289.926 117.08C289.593 116.893 289.073 116.653 288.366 116.36C287.686 116.067 287.126 115.78 286.686 115.5C286.246 115.207 285.92 114.86 285.706 114.46C285.493 114.047 285.386 113.533 285.386 112.92C285.386 111.907 285.78 111.147 286.566 110.64C287.353 110.133 288.4 109.88 289.706 109.88C290.386 109.88 291.033 109.947 291.646 110.08C292.26 110.213 292.893 110.433 293.546 110.74L292.646 112.88C292.113 112.653 291.606 112.467 291.126 112.32C290.646 112.16 290.16 112.08 289.666 112.08C288.786 112.08 288.346 112.32 288.346 112.8C288.346 112.973 288.4 113.133 288.506 113.28C288.626 113.413 288.846 113.56 289.166 113.72C289.5 113.88 289.986 114.093 290.626 114.36C291.253 114.613 291.793 114.88 292.246 115.16C292.7 115.427 293.046 115.767 293.286 116.18C293.54 116.58 293.666 117.107 293.666 117.76ZM305.663 109.86C307.13 109.86 308.25 110.18 309.023 110.82C309.81 111.447 310.203 112.413 310.203 113.72V121H308.123L307.543 119.52H307.463C306.996 120.107 306.503 120.533 305.983 120.8C305.463 121.067 304.75 121.2 303.843 121.2C302.87 121.2 302.063 120.92 301.423 120.36C300.783 119.787 300.463 118.913 300.463 117.74C300.463 116.58 300.87 115.727 301.683 115.18C302.496 114.62 303.716 114.313 305.343 114.26L307.243 114.2V113.72C307.243 113.147 307.09 112.727 306.783 112.46C306.49 112.193 306.076 112.06 305.543 112.06C305.01 112.06 304.49 112.14 303.983 112.3C303.476 112.447 302.97 112.633 302.463 112.86L301.483 110.84C302.07 110.533 302.716 110.293 303.423 110.12C304.143 109.947 304.89 109.86 305.663 109.86ZM307.243 115.94L306.083 115.98C305.123 116.007 304.456 116.18 304.083 116.5C303.71 116.82 303.523 117.24 303.523 117.76C303.523 118.213 303.656 118.54 303.923 118.74C304.19 118.927 304.536 119.02 304.963 119.02C305.603 119.02 306.143 118.833 306.583 118.46C307.023 118.073 307.243 117.533 307.243 116.84V115.94ZM319.453 109.88C320.627 109.88 321.567 110.2 322.273 110.84C322.98 111.467 323.333 112.48 323.333 113.88V121H320.353V114.62C320.353 113.833 320.213 113.247 319.933 112.86C319.653 112.46 319.207 112.26 318.593 112.26C317.687 112.26 317.067 112.573 316.733 113.2C316.4 113.813 316.233 114.7 316.233 115.86V121H313.253V110.08H315.533L315.933 111.48H316.093C316.44 110.92 316.913 110.513 317.513 110.26C318.127 110.007 318.773 109.88 319.453 109.88ZM329.858 121.2C328.645 121.2 327.651 120.727 326.878 119.78C326.118 118.82 325.738 117.413 325.738 115.56C325.738 113.693 326.125 112.28 326.898 111.32C327.671 110.36 328.685 109.88 329.938 109.88C330.725 109.88 331.371 110.033 331.878 110.34C332.385 110.647 332.785 111.027 333.078 111.48H333.178C333.138 111.267 333.091 110.96 333.038 110.56C332.985 110.147 332.958 109.727 332.958 109.3V105.8H335.938V121H333.658L333.078 119.58H332.958C332.665 120.033 332.271 120.42 331.778 120.74C331.285 121.047 330.645 121.2 329.858 121.2ZM330.898 118.82C331.725 118.82 332.305 118.58 332.638 118.1C332.971 117.607 333.145 116.873 333.158 115.9V115.58C333.158 114.513 332.991 113.7 332.658 113.14C332.338 112.58 331.738 112.3 330.858 112.3C330.205 112.3 329.691 112.587 329.318 113.16C328.945 113.72 328.758 114.533 328.758 115.6C328.758 116.667 328.945 117.473 329.318 118.02C329.691 118.553 330.218 118.82 330.898 118.82ZM356.189 121H353.169V114.84H347.509V121H344.489V106.72H347.509V112.32H353.169V106.72H356.189V121ZM369.462 115.52C369.462 117.333 368.982 118.733 368.022 119.72C367.076 120.707 365.782 121.2 364.142 121.2C363.129 121.2 362.222 120.98 361.422 120.54C360.636 120.1 360.016 119.46 359.562 118.62C359.109 117.767 358.882 116.733 358.882 115.52C358.882 113.707 359.356 112.313 360.302 111.34C361.249 110.367 362.549 109.88 364.202 109.88C365.229 109.88 366.136 110.1 366.922 110.54C367.709 110.98 368.329 111.62 368.782 112.46C369.236 113.287 369.462 114.307 369.462 115.52ZM361.922 115.52C361.922 116.6 362.096 117.42 362.442 117.98C362.802 118.527 363.382 118.8 364.182 118.8C364.969 118.8 365.536 118.527 365.882 117.98C366.242 117.42 366.422 116.6 366.422 115.52C366.422 114.44 366.242 113.633 365.882 113.1C365.536 112.553 364.962 112.28 364.162 112.28C363.376 112.28 362.802 112.553 362.442 113.1C362.096 113.633 361.922 114.44 361.922 115.52ZM380.515 121L379.675 117.18C379.621 116.953 379.541 116.62 379.435 116.18C379.341 115.727 379.235 115.247 379.115 114.74C378.995 114.22 378.881 113.747 378.775 113.32C378.668 112.88 378.595 112.56 378.555 112.36H378.475C378.435 112.56 378.361 112.88 378.255 113.32C378.161 113.747 378.055 114.22 377.935 114.74C377.815 115.247 377.701 115.727 377.595 116.18C377.488 116.633 377.408 116.98 377.355 117.22L376.475 121H373.275L370.175 110.08H373.135L374.395 114.92C374.488 115.253 374.568 115.653 374.635 116.12C374.715 116.587 374.788 117.04 374.855 117.48C374.921 117.907 374.968 118.247 374.995 118.5H375.075C375.088 118.313 375.115 118.067 375.155 117.76C375.195 117.44 375.241 117.113 375.295 116.78C375.361 116.447 375.415 116.147 375.455 115.88C375.508 115.6 375.548 115.413 375.575 115.32L376.915 110.08H380.195L381.475 115.32C381.528 115.507 381.588 115.807 381.655 116.22C381.735 116.633 381.801 117.053 381.855 117.48C381.921 117.907 381.955 118.247 381.955 118.5H382.035C382.061 118.273 382.108 117.947 382.175 117.52C382.241 117.08 382.315 116.62 382.395 116.14C382.488 115.66 382.581 115.253 382.675 114.92L383.975 110.08H386.895L383.755 121H380.515ZM398.459 118.82C398.792 118.82 399.112 118.787 399.419 118.72C399.725 118.653 400.032 118.573 400.339 118.48V120.7C400.019 120.833 399.619 120.947 399.139 121.04C398.672 121.147 398.159 121.2 397.599 121.2C396.945 121.2 396.359 121.093 395.839 120.88C395.332 120.667 394.925 120.3 394.619 119.78C394.325 119.247 394.179 118.513 394.179 117.58V112.32H392.759V111.06L394.399 110.06L395.259 107.76H397.159V110.08H400.219V112.32H397.159V117.58C397.159 117.993 397.279 118.307 397.519 118.52C397.759 118.72 398.072 118.82 398.459 118.82ZM412.451 115.52C412.451 117.333 411.971 118.733 411.011 119.72C410.064 120.707 408.771 121.2 407.131 121.2C406.117 121.2 405.211 120.98 404.411 120.54C403.624 120.1 403.004 119.46 402.551 118.62C402.097 117.767 401.871 116.733 401.871 115.52C401.871 113.707 402.344 112.313 403.291 111.34C404.237 110.367 405.537 109.88 407.191 109.88C408.217 109.88 409.124 110.1 409.911 110.54C410.697 110.98 411.317 111.62 411.771 112.46C412.224 113.287 412.451 114.307 412.451 115.52ZM404.911 115.52C404.911 116.6 405.084 117.42 405.431 117.98C405.791 118.527 406.371 118.8 407.171 118.8C407.957 118.8 408.524 118.527 408.871 117.98C409.231 117.42 409.411 116.6 409.411 115.52C409.411 114.44 409.231 113.633 408.871 113.1C408.524 112.553 407.951 112.28 407.151 112.28C406.364 112.28 405.791 112.553 405.431 113.1C405.084 113.633 404.911 114.44 404.911 115.52ZM428.769 117.04C428.769 118.307 428.309 119.32 427.389 120.08C426.482 120.827 425.189 121.2 423.509 121.2C422.002 121.2 420.655 120.913 419.469 120.34V117.52C420.149 117.813 420.849 118.087 421.569 118.34C422.302 118.58 423.029 118.7 423.749 118.7C424.495 118.7 425.022 118.56 425.329 118.28C425.649 117.987 425.809 117.62 425.809 117.18C425.809 116.82 425.682 116.513 425.429 116.26C425.189 116.007 424.862 115.773 424.449 115.56C424.035 115.333 423.562 115.093 423.029 114.84C422.695 114.68 422.335 114.493 421.949 114.28C421.562 114.053 421.189 113.78 420.829 113.46C420.482 113.127 420.195 112.727 419.969 112.26C419.742 111.793 419.629 111.233 419.629 110.58C419.629 109.3 420.062 108.307 420.929 107.6C421.795 106.88 422.975 106.52 424.469 106.52C425.215 106.52 425.922 106.607 426.589 106.78C427.269 106.953 427.975 107.2 428.709 107.52L427.729 109.88C427.075 109.613 426.489 109.407 425.969 109.26C425.449 109.113 424.915 109.04 424.369 109.04C423.795 109.04 423.355 109.173 423.049 109.44C422.742 109.707 422.589 110.053 422.589 110.48C422.589 110.987 422.815 111.387 423.269 111.68C423.722 111.973 424.395 112.333 425.289 112.76C426.022 113.107 426.642 113.467 427.149 113.84C427.669 114.213 428.069 114.653 428.349 115.16C428.629 115.667 428.769 116.293 428.769 117.04ZM437.204 109.88C438.431 109.88 439.424 110.36 440.184 111.32C440.944 112.267 441.324 113.667 441.324 115.52C441.324 117.373 440.931 118.787 440.144 119.76C439.358 120.72 438.351 121.2 437.124 121.2C436.338 121.2 435.711 121.06 435.244 120.78C434.778 120.487 434.398 120.16 434.104 119.8H433.944C434.051 120.36 434.104 120.893 434.104 121.4V125.8H431.124V110.08H433.544L433.964 111.5H434.104C434.398 111.06 434.791 110.68 435.284 110.36C435.778 110.04 436.418 109.88 437.204 109.88ZM436.244 112.26C435.471 112.26 434.924 112.5 434.604 112.98C434.298 113.46 434.131 114.193 434.104 115.18V115.5C434.104 116.553 434.258 117.367 434.564 117.94C434.884 118.5 435.458 118.78 436.284 118.78C436.964 118.78 437.464 118.5 437.784 117.94C438.118 117.367 438.284 116.547 438.284 115.48C438.284 113.333 437.604 112.26 436.244 112.26ZM453.701 115.52C453.701 117.333 453.221 118.733 452.261 119.72C451.314 120.707 450.021 121.2 448.381 121.2C447.367 121.2 446.461 120.98 445.661 120.54C444.874 120.1 444.254 119.46 443.801 118.62C443.347 117.767 443.121 116.733 443.121 115.52C443.121 113.707 443.594 112.313 444.541 111.34C445.487 110.367 446.787 109.88 448.441 109.88C449.467 109.88 450.374 110.1 451.161 110.54C451.947 110.98 452.567 111.62 453.021 112.46C453.474 113.287 453.701 114.307 453.701 115.52ZM446.161 115.52C446.161 116.6 446.334 117.42 446.681 117.98C447.041 118.527 447.621 118.8 448.421 118.8C449.207 118.8 449.774 118.527 450.121 117.98C450.481 117.42 450.661 116.6 450.661 115.52C450.661 114.44 450.481 113.633 450.121 113.1C449.774 112.553 449.201 112.28 448.401 112.28C447.614 112.28 447.041 112.553 446.681 113.1C446.334 113.633 446.161 114.44 446.161 115.52ZM460.764 118.82C461.097 118.82 461.417 118.787 461.724 118.72C462.03 118.653 462.337 118.573 462.644 118.48V120.7C462.324 120.833 461.924 120.947 461.444 121.04C460.977 121.147 460.464 121.2 459.904 121.2C459.25 121.2 458.664 121.093 458.144 120.88C457.637 120.667 457.23 120.3 456.924 119.78C456.63 119.247 456.484 118.513 456.484 117.58V112.32H455.064V111.06L456.704 110.06L457.564 107.76H459.464V110.08H462.524V112.32H459.464V117.58C459.464 117.993 459.584 118.307 459.824 118.52C460.064 118.72 460.377 118.82 460.764 118.82ZM475.771 121H472.751V109.24H468.871V106.72H479.651V109.24H475.771V121ZM484.593 105.8V108.9C484.593 109.433 484.573 109.947 484.533 110.44C484.506 110.933 484.479 111.28 484.453 111.48H484.613C484.959 110.92 485.406 110.513 485.953 110.26C486.499 110.007 487.106 109.88 487.773 109.88C488.959 109.88 489.906 110.2 490.613 110.84C491.333 111.467 491.693 112.48 491.693 113.88V121H488.713V114.62C488.713 113.047 488.126 112.26 486.953 112.26C486.059 112.26 485.439 112.573 485.093 113.2C484.759 113.813 484.593 114.7 484.593 115.86V121H481.613V105.8H484.593ZM499.257 109.88C500.764 109.88 501.957 110.313 502.837 111.18C503.717 112.033 504.157 113.253 504.157 114.84V116.28H497.117C497.144 117.12 497.391 117.78 497.857 118.26C498.337 118.74 498.997 118.98 499.837 118.98C500.544 118.98 501.184 118.913 501.757 118.78C502.331 118.633 502.924 118.413 503.537 118.12V120.42C503.004 120.687 502.437 120.88 501.837 121C501.251 121.133 500.537 121.2 499.697 121.2C498.604 121.2 497.637 121 496.797 120.6C495.957 120.187 495.297 119.567 494.817 118.74C494.337 117.913 494.097 116.873 494.097 115.62C494.097 114.34 494.311 113.28 494.737 112.44C495.177 111.587 495.784 110.947 496.557 110.52C497.331 110.093 498.231 109.88 499.257 109.88ZM499.277 112C498.704 112 498.224 112.187 497.837 112.56C497.464 112.933 497.244 113.513 497.177 114.3H501.357C501.344 113.633 501.171 113.087 500.837 112.66C500.504 112.22 499.984 112 499.277 112ZM519.394 109.88C520.634 109.88 521.567 110.2 522.194 110.84C522.834 111.467 523.154 112.48 523.154 113.88V121H520.174V114.62C520.174 113.047 519.627 112.26 518.534 112.26C517.747 112.26 517.187 112.54 516.854 113.1C516.52 113.66 516.354 114.467 516.354 115.52V121H513.374V114.62C513.374 113.047 512.827 112.26 511.734 112.26C510.907 112.26 510.334 112.573 510.014 113.2C509.707 113.813 509.554 114.7 509.554 115.86V121H506.574V110.08H508.854L509.254 111.48H509.414C509.747 110.92 510.2 110.513 510.774 110.26C511.36 110.007 511.967 109.88 512.594 109.88C513.394 109.88 514.074 110.013 514.634 110.28C515.194 110.533 515.62 110.933 515.914 111.48H516.174C516.507 110.92 516.967 110.513 517.554 110.26C518.154 110.007 518.767 109.88 519.394 109.88Z" fill="#333333"/>
</svg>
