<svg width="224" height="123" viewBox="0 0 224 123" fill="none" xmlns="http://www.w3.org/2000/svg">
<rect x="2" y="5" width="222" height="118" rx="50" fill="#141414"/>
<path d="M50 1.5H172C198.786 1.5 220.5 23.2142 220.5 50V68C220.5 94.7858 198.786 116.5 172 116.5H50C23.2142 116.5 1.5 94.7858 1.5 68V50C1.5 23.2142 23.2142 1.5 50 1.5Z" fill="#52BDF9" stroke="#141414" stroke-width="3"/>
<rect x="30" y="15" width="163" height="16" rx="8" fill="#A5DCFB"/>
<path d="M81.368 74.32C81.368 73.584 81.568 73.072 81.968 72.784C82.368 72.48 82.856 72.328 83.432 72.328C83.992 72.328 84.472 72.48 84.872 72.784C85.272 73.072 85.472 73.584 85.472 74.32C85.472 75.024 85.272 75.536 84.872 75.856C84.472 76.16 83.992 76.312 83.432 76.312C82.856 76.312 82.368 76.16 81.968 75.856C81.568 75.536 81.368 75.024 81.368 74.32ZM88.2118 74.32C88.2118 73.584 88.4118 73.072 88.8118 72.784C89.2118 72.48 89.6998 72.328 90.2758 72.328C90.8358 72.328 91.3158 72.48 91.7158 72.784C92.1158 73.072 92.3158 73.584 92.3158 74.32C92.3158 75.024 92.1158 75.536 91.7158 75.856C91.3158 76.16 90.8358 76.312 90.2758 76.312C89.6998 76.312 89.2118 76.16 88.8118 75.856C88.4118 75.536 88.2118 75.024 88.2118 74.32ZM95.0555 74.32C95.0555 73.584 95.2555 73.072 95.6555 72.784C96.0555 72.48 96.5435 72.328 97.1195 72.328C97.6795 72.328 98.1595 72.48 98.5595 72.784C98.9595 73.072 99.1595 73.584 99.1595 74.32C99.1595 75.024 98.9595 75.536 98.5595 75.856C98.1595 76.16 97.6795 76.312 97.1195 76.312C96.5435 76.312 96.0555 76.16 95.6555 75.856C95.2555 75.536 95.0555 75.024 95.0555 74.32ZM113.395 66.184C113.395 67.16 113.323 68.136 113.179 69.112C113.035 70.072 112.779 70.984 112.411 71.848C112.059 72.696 111.555 73.456 110.899 74.128C110.259 74.784 109.435 75.304 108.427 75.688C107.435 76.056 106.227 76.24 104.803 76.24C104.467 76.24 104.075 76.224 103.627 76.192C103.179 76.176 102.803 76.136 102.499 76.072V73.168C102.819 73.232 103.155 73.288 103.507 73.336C103.859 73.384 104.211 73.408 104.563 73.408C105.987 73.408 107.083 73.184 107.851 72.736C108.635 72.272 109.187 71.64 109.507 70.84C109.827 70.04 110.011 69.112 110.059 68.056H109.915C109.579 68.616 109.131 69.088 108.571 69.472C108.027 69.856 107.211 70.048 106.123 70.048C104.667 70.048 103.499 69.576 102.619 68.632C101.739 67.688 101.299 66.352 101.299 64.624C101.299 62.768 101.819 61.312 102.859 60.256C103.915 59.2 105.339 58.672 107.131 58.672C108.299 58.672 109.355 58.944 110.299 59.488C111.243 60.016 111.995 60.84 112.555 61.96C113.115 63.064 113.395 64.472 113.395 66.184ZM107.203 61.576C106.499 61.576 105.923 61.816 105.475 62.296C105.027 62.776 104.803 63.536 104.803 64.576C104.803 65.408 104.995 66.064 105.379 66.544C105.763 67.024 106.347 67.264 107.131 67.264C107.675 67.264 108.139 67.144 108.523 66.904C108.923 66.664 109.235 66.368 109.459 66.016C109.683 65.648 109.795 65.272 109.795 64.888C109.795 64.36 109.699 63.84 109.507 63.328C109.315 62.816 109.027 62.4 108.643 62.08C108.259 61.744 107.779 61.576 107.203 61.576ZM124.178 76H120.554V66.088C120.554 65.672 120.562 65.128 120.578 64.456C120.61 63.784 120.634 63.192 120.65 62.68C120.57 62.776 120.394 62.952 120.122 63.208C119.866 63.448 119.626 63.664 119.402 63.856L117.434 65.44L115.682 63.256L121.202 58.864H124.178V76ZM137.912 76H134.288V66.088C134.288 65.672 134.296 65.128 134.312 64.456C134.344 63.784 134.368 63.192 134.384 62.68C134.304 62.776 134.128 62.952 133.856 63.208C133.6 63.448 133.36 63.664 133.136 63.856L131.168 65.44L129.416 63.256L134.936 58.864H137.912V76Z" fill="#333333"/>
</svg>
