<svg width="432" height="196" viewBox="0 0 432 196" fill="none" xmlns="http://www.w3.org/2000/svg">
<rect y="4" width="429" height="192" rx="50" fill="#141414"/>
<rect x="3.5" y="1.5" width="427" height="187" rx="48.5" fill="white" stroke="#141414" stroke-width="3"/>
<path d="M50.568 76H42.768V73.936L44.856 72.976V61.888L42.768 60.928V58.864H50.568V60.928L48.48 61.888V72.976L50.568 73.936V76ZM62.3441 72.112C62.3441 73.44 61.8721 74.464 60.9281 75.184C60.0001 75.888 58.6081 76.24 56.7521 76.24C55.8401 76.24 55.0561 76.176 54.4001 76.048C53.7441 75.936 53.0881 75.744 52.4321 75.472V72.52C53.1361 72.84 53.8961 73.104 54.7121 73.312C55.5281 73.52 56.2481 73.624 56.8721 73.624C57.5761 73.624 58.0721 73.52 58.3601 73.312C58.6641 73.104 58.8161 72.832 58.8161 72.496C58.8161 72.272 58.7521 72.072 58.6241 71.896C58.5121 71.72 58.2561 71.52 57.8561 71.296C57.4561 71.072 56.8321 70.784 55.9841 70.432C55.1681 70.08 54.4961 69.736 53.9681 69.4C53.4401 69.048 53.0481 68.632 52.7921 68.152C52.5361 67.656 52.4081 67.04 52.4081 66.304C52.4081 65.088 52.8801 64.176 53.8241 63.568C54.7681 62.96 56.0241 62.656 57.5921 62.656C58.4081 62.656 59.1841 62.736 59.9201 62.896C60.6561 63.056 61.4161 63.32 62.2001 63.688L61.1201 66.256C60.4801 65.984 59.8721 65.76 59.2961 65.584C58.7201 65.392 58.1361 65.296 57.5441 65.296C56.4881 65.296 55.9601 65.584 55.9601 66.16C55.9601 66.368 56.0241 66.56 56.1521 66.736C56.2961 66.896 56.5601 67.072 56.9441 67.264C57.3441 67.456 57.9281 67.712 58.6961 68.032C59.4481 68.336 60.0961 68.656 60.6401 68.992C61.1841 69.312 61.6001 69.72 61.8881 70.216C62.1921 70.696 62.3441 71.328 62.3441 72.112ZM76.8842 73.384C77.2842 73.384 77.6682 73.344 78.0362 73.264C78.4042 73.184 78.7722 73.088 79.1402 72.976V75.64C78.7562 75.8 78.2762 75.936 77.7002 76.048C77.1402 76.176 76.5242 76.24 75.8522 76.24C75.0682 76.24 74.3642 76.112 73.7402 75.856C73.1322 75.6 72.6442 75.16 72.2762 74.536C71.9242 73.896 71.7482 73.016 71.7482 71.896V65.584H70.0442V64.072L72.0122 62.872L73.0442 60.112H75.3242V62.896H78.9962V65.584H75.3242V71.896C75.3242 72.392 75.4682 72.768 75.7562 73.024C76.0442 73.264 76.4202 73.384 76.8842 73.384ZM85.3464 57.76V61.48C85.3464 62.12 85.3224 62.736 85.2744 63.328C85.2424 63.92 85.2104 64.336 85.1784 64.576H85.3704C85.7864 63.904 86.3224 63.416 86.9784 63.112C87.6344 62.808 88.3624 62.656 89.1624 62.656C90.5864 62.656 91.7224 63.04 92.5704 63.808C93.4344 64.56 93.8664 65.776 93.8664 67.456V76H90.2904V68.344C90.2904 66.456 89.5864 65.512 88.1784 65.512C87.1064 65.512 86.3624 65.888 85.9464 66.64C85.5464 67.376 85.3464 68.44 85.3464 69.832V76H81.7704V57.76H85.3464ZM102.92 62.632C104.68 62.632 106.024 63.016 106.952 63.784C107.896 64.536 108.368 65.696 108.368 67.264V76H105.872L105.176 74.224H105.08C104.52 74.928 103.928 75.44 103.304 75.76C102.68 76.08 101.824 76.24 100.736 76.24C99.5679 76.24 98.5999 75.904 97.8319 75.232C97.0639 74.544 96.6799 73.496 96.6799 72.088C96.6799 70.696 97.1679 69.672 98.1439 69.016C99.1199 68.344 100.584 67.976 102.536 67.912L104.816 67.84V67.264C104.816 66.576 104.632 66.072 104.264 65.752C103.912 65.432 103.416 65.272 102.776 65.272C102.136 65.272 101.512 65.368 100.904 65.56C100.296 65.736 99.6879 65.96 99.0799 66.232L97.9039 63.808C98.6079 63.44 99.3839 63.152 100.232 62.944C101.096 62.736 101.992 62.632 102.92 62.632ZM104.816 69.928L103.424 69.976C102.272 70.008 101.472 70.216 101.024 70.6C100.576 70.984 100.352 71.488 100.352 72.112C100.352 72.656 100.512 73.048 100.832 73.288C101.152 73.512 101.568 73.624 102.08 73.624C102.848 73.624 103.496 73.4 104.024 72.952C104.552 72.488 104.816 71.84 104.816 71.008V69.928ZM117.548 73.384C117.948 73.384 118.332 73.344 118.7 73.264C119.068 73.184 119.436 73.088 119.804 72.976V75.64C119.42 75.8 118.94 75.936 118.364 76.048C117.804 76.176 117.188 76.24 116.516 76.24C115.732 76.24 115.028 76.112 114.404 75.856C113.796 75.6 113.308 75.16 112.94 74.536C112.588 73.896 112.412 73.016 112.412 71.896V65.584H110.708V64.072L112.676 62.872L113.708 60.112H115.988V62.896H119.66V65.584H115.988V71.896C115.988 72.392 116.132 72.768 116.42 73.024C116.708 73.264 117.084 73.384 117.548 73.384ZM132.245 57.76V61.48C132.245 62.12 132.221 62.736 132.173 63.328C132.141 63.92 132.109 64.336 132.077 64.576H132.269C132.685 63.904 133.221 63.416 133.877 63.112C134.533 62.808 135.261 62.656 136.061 62.656C137.485 62.656 138.621 63.04 139.469 63.808C140.333 64.56 140.765 65.776 140.765 67.456V76H137.189V68.344C137.189 66.456 136.485 65.512 135.077 65.512C134.005 65.512 133.261 65.888 132.845 66.64C132.445 67.376 132.245 68.44 132.245 69.832V76H128.669V57.76H132.245ZM156.346 69.424C156.346 71.6 155.77 73.28 154.618 74.464C153.482 75.648 151.93 76.24 149.962 76.24C148.746 76.24 147.658 75.976 146.698 75.448C145.754 74.92 145.01 74.152 144.466 73.144C143.922 72.12 143.65 70.88 143.65 69.424C143.65 67.248 144.218 65.576 145.354 64.408C146.49 63.24 148.05 62.656 150.034 62.656C151.266 62.656 152.354 62.92 153.298 63.448C154.242 63.976 154.986 64.744 155.53 65.752C156.074 66.744 156.346 67.968 156.346 69.424ZM147.298 69.424C147.298 70.72 147.506 71.704 147.922 72.376C148.354 73.032 149.05 73.36 150.01 73.36C150.954 73.36 151.634 73.032 152.05 72.376C152.482 71.704 152.698 70.72 152.698 69.424C152.698 68.128 152.482 67.16 152.05 66.52C151.634 65.864 150.946 65.536 149.986 65.536C149.042 65.536 148.354 65.864 147.922 66.52C147.506 67.16 147.298 68.128 147.298 69.424ZM169.609 76L168.601 71.416C168.537 71.144 168.441 70.744 168.313 70.216C168.201 69.672 168.073 69.096 167.929 68.488C167.785 67.864 167.649 67.296 167.521 66.784C167.393 66.256 167.305 65.872 167.257 65.632H167.161C167.113 65.872 167.025 66.256 166.897 66.784C166.785 67.296 166.657 67.864 166.513 68.488C166.369 69.096 166.233 69.672 166.105 70.216C165.977 70.76 165.881 71.176 165.817 71.464L164.761 76H160.921L157.201 62.896H160.753L162.265 68.704C162.377 69.104 162.473 69.584 162.553 70.144C162.649 70.704 162.737 71.248 162.817 71.776C162.897 72.288 162.953 72.696 162.985 73H163.081C163.097 72.776 163.129 72.48 163.177 72.112C163.225 71.728 163.281 71.336 163.345 70.936C163.425 70.536 163.489 70.176 163.537 69.856C163.601 69.52 163.649 69.296 163.681 69.184L165.289 62.896H169.225L170.761 69.184C170.825 69.408 170.897 69.768 170.977 70.264C171.073 70.76 171.153 71.264 171.217 71.776C171.297 72.288 171.337 72.696 171.337 73H171.433C171.465 72.728 171.521 72.336 171.601 71.824C171.681 71.296 171.769 70.744 171.865 70.168C171.977 69.592 172.089 69.104 172.201 68.704L173.761 62.896H177.265L173.497 76H169.609ZM183.75 62.896H187.662L190.134 70.264C190.262 70.616 190.358 70.984 190.422 71.368C190.486 71.736 190.534 72.128 190.566 72.544H190.638C190.686 72.128 190.75 71.736 190.83 71.368C190.926 70.984 191.03 70.616 191.142 70.264L193.566 62.896H197.406L191.862 77.68C191.366 79.04 190.638 80.056 189.678 80.728C188.734 81.416 187.638 81.76 186.39 81.76C185.99 81.76 185.638 81.736 185.334 81.688C185.046 81.656 184.79 81.616 184.566 81.568V78.736C184.742 78.768 184.95 78.8 185.19 78.832C185.446 78.864 185.71 78.88 185.982 78.88C186.734 78.88 187.326 78.648 187.758 78.184C188.206 77.736 188.534 77.192 188.742 76.552L188.958 75.904L183.75 62.896ZM211.19 69.424C211.19 71.6 210.614 73.28 209.462 74.464C208.326 75.648 206.774 76.24 204.806 76.24C203.59 76.24 202.502 75.976 201.542 75.448C200.598 74.92 199.854 74.152 199.31 73.144C198.766 72.12 198.494 70.88 198.494 69.424C198.494 67.248 199.062 65.576 200.198 64.408C201.334 63.24 202.894 62.656 204.878 62.656C206.11 62.656 207.198 62.92 208.142 63.448C209.086 63.976 209.83 64.744 210.374 65.752C210.918 66.744 211.19 67.968 211.19 69.424ZM202.142 69.424C202.142 70.72 202.35 71.704 202.766 72.376C203.198 73.032 203.894 73.36 204.854 73.36C205.798 73.36 206.478 73.032 206.894 72.376C207.326 71.704 207.542 70.72 207.542 69.424C207.542 68.128 207.326 67.16 206.894 66.52C206.478 65.864 205.79 65.536 204.83 65.536C203.886 65.536 203.198 65.864 202.766 66.52C202.35 67.16 202.142 68.128 202.142 69.424ZM226.169 62.896V76H223.433L222.953 74.32H222.761C222.345 74.992 221.769 75.48 221.033 75.784C220.313 76.088 219.545 76.24 218.729 76.24C217.321 76.24 216.193 75.864 215.345 75.112C214.497 74.344 214.073 73.12 214.073 71.44V62.896H217.649V70.552C217.649 71.48 217.817 72.184 218.153 72.664C218.489 73.144 219.025 73.384 219.761 73.384C220.849 73.384 221.593 73.016 221.993 72.28C222.393 71.528 222.593 70.456 222.593 69.064V62.896H226.169ZM241.553 62.656C243.361 62.656 244.793 63.176 245.849 64.216C246.905 65.24 247.433 66.704 247.433 68.608V70.336H238.985C239.017 71.344 239.313 72.136 239.873 72.712C240.449 73.288 241.241 73.576 242.249 73.576C243.097 73.576 243.865 73.496 244.553 73.336C245.241 73.16 245.953 72.896 246.689 72.544V75.304C246.049 75.624 245.369 75.856 244.649 76C243.945 76.16 243.089 76.24 242.081 76.24C240.769 76.24 239.609 76 238.601 75.52C237.593 75.024 236.801 74.28 236.225 73.288C235.649 72.296 235.361 71.048 235.361 69.544C235.361 68.008 235.617 66.736 236.129 65.728C236.657 64.704 237.385 63.936 238.313 63.424C239.241 62.912 240.321 62.656 241.553 62.656ZM241.577 65.2C240.889 65.2 240.313 65.424 239.849 65.872C239.401 66.32 239.137 67.016 239.057 67.96H244.073C244.057 67.16 243.849 66.504 243.449 65.992C243.049 65.464 242.425 65.2 241.577 65.2ZM257.773 62.656C259.181 62.656 260.309 63.04 261.157 63.808C262.005 64.56 262.429 65.776 262.429 67.456V76H258.853V68.344C258.853 67.4 258.685 66.696 258.349 66.232C258.013 65.752 257.477 65.512 256.741 65.512C255.653 65.512 254.909 65.888 254.509 66.64C254.109 67.376 253.909 68.44 253.909 69.832V76H250.333V62.896H253.069L253.549 64.576H253.741C254.157 63.904 254.725 63.416 255.445 63.112C256.181 62.808 256.957 62.656 257.773 62.656ZM270.354 62.656C271.97 62.656 273.234 63.296 274.146 64.576H274.242L274.53 62.896H277.554V76.024C277.554 77.896 277.002 79.32 275.898 80.296C274.794 81.272 273.162 81.76 271.002 81.76C270.074 81.76 269.21 81.704 268.41 81.592C267.626 81.48 266.858 81.28 266.106 80.992V78.136C267.722 78.808 269.426 79.144 271.218 79.144C273.058 79.144 273.978 78.152 273.978 76.168V75.904C273.978 75.632 273.986 75.352 274.002 75.064C274.034 74.776 274.058 74.52 274.074 74.296H273.978C273.53 74.984 272.994 75.48 272.37 75.784C271.746 76.088 271.042 76.24 270.258 76.24C268.706 76.24 267.49 75.648 266.61 74.464C265.746 73.264 265.314 71.6 265.314 69.472C265.314 67.328 265.762 65.656 266.658 64.456C267.554 63.256 268.786 62.656 270.354 62.656ZM271.482 65.56C269.802 65.56 268.962 66.88 268.962 69.52C268.962 72.128 269.818 73.432 271.53 73.432C272.442 73.432 273.114 73.176 273.546 72.664C273.994 72.136 274.218 71.224 274.218 69.928V69.496C274.218 68.088 274.002 67.08 273.57 66.472C273.138 65.864 272.442 65.56 271.482 65.56ZM286.67 62.632C288.43 62.632 289.774 63.016 290.702 63.784C291.646 64.536 292.118 65.696 292.118 67.264V76H289.622L288.926 74.224H288.83C288.27 74.928 287.678 75.44 287.054 75.76C286.43 76.08 285.574 76.24 284.486 76.24C283.318 76.24 282.35 75.904 281.582 75.232C280.814 74.544 280.43 73.496 280.43 72.088C280.43 70.696 280.918 69.672 281.894 69.016C282.87 68.344 284.334 67.976 286.286 67.912L288.566 67.84V67.264C288.566 66.576 288.382 66.072 288.014 65.752C287.662 65.432 287.166 65.272 286.526 65.272C285.886 65.272 285.262 65.368 284.654 65.56C284.046 65.736 283.438 65.96 282.83 66.232L281.654 63.808C282.358 63.44 283.134 63.152 283.982 62.944C284.846 62.736 285.742 62.632 286.67 62.632ZM288.566 69.928L287.174 69.976C286.022 70.008 285.222 70.216 284.774 70.6C284.326 70.984 284.102 71.488 284.102 72.112C284.102 72.656 284.262 73.048 284.582 73.288C284.902 73.512 285.318 73.624 285.83 73.624C286.598 73.624 287.246 73.4 287.774 72.952C288.302 72.488 288.566 71.84 288.566 71.008V69.928ZM300.026 62.656C301.642 62.656 302.906 63.296 303.818 64.576H303.914L304.202 62.896H307.226V76.024C307.226 77.896 306.674 79.32 305.57 80.296C304.466 81.272 302.834 81.76 300.674 81.76C299.746 81.76 298.882 81.704 298.082 81.592C297.298 81.48 296.53 81.28 295.778 80.992V78.136C297.394 78.808 299.098 79.144 300.89 79.144C302.73 79.144 303.65 78.152 303.65 76.168V75.904C303.65 75.632 303.658 75.352 303.674 75.064C303.706 74.776 303.73 74.52 303.746 74.296H303.65C303.202 74.984 302.666 75.48 302.042 75.784C301.418 76.088 300.714 76.24 299.93 76.24C298.378 76.24 297.162 75.648 296.282 74.464C295.418 73.264 294.986 71.6 294.986 69.472C294.986 67.328 295.434 65.656 296.33 64.456C297.226 63.256 298.458 62.656 300.026 62.656ZM301.154 65.56C299.474 65.56 298.634 66.88 298.634 69.52C298.634 72.128 299.49 73.432 301.202 73.432C302.114 73.432 302.786 73.176 303.218 72.664C303.666 72.136 303.89 71.224 303.89 69.928V69.496C303.89 68.088 303.674 67.08 303.242 66.472C302.81 65.864 302.114 65.56 301.154 65.56ZM316.366 62.656C318.174 62.656 319.606 63.176 320.662 64.216C321.718 65.24 322.246 66.704 322.246 68.608V70.336H313.798C313.83 71.344 314.126 72.136 314.686 72.712C315.262 73.288 316.054 73.576 317.062 73.576C317.91 73.576 318.678 73.496 319.366 73.336C320.054 73.16 320.766 72.896 321.502 72.544V75.304C320.862 75.624 320.182 75.856 319.462 76C318.758 76.16 317.902 76.24 316.894 76.24C315.582 76.24 314.422 76 313.414 75.52C312.406 75.024 311.614 74.28 311.038 73.288C310.462 72.296 310.174 71.048 310.174 69.544C310.174 68.008 310.43 66.736 310.942 65.728C311.47 64.704 312.198 63.936 313.126 63.424C314.054 62.912 315.134 62.656 316.366 62.656ZM316.39 65.2C315.702 65.2 315.126 65.424 314.662 65.872C314.214 66.32 313.95 67.016 313.87 67.96H318.886C318.87 67.16 318.662 66.504 318.262 65.992C317.862 65.464 317.238 65.2 316.39 65.2ZM49.248 95.632C51.008 95.632 52.352 96.016 53.28 96.784C54.224 97.536 54.696 98.696 54.696 100.264V109H52.2L51.504 107.224H51.408C50.848 107.928 50.256 108.44 49.632 108.76C49.008 109.08 48.152 109.24 47.064 109.24C45.896 109.24 44.928 108.904 44.16 108.232C43.392 107.544 43.008 106.496 43.008 105.088C43.008 103.696 43.496 102.672 44.472 102.016C45.448 101.344 46.912 100.976 48.864 100.912L51.144 100.84V100.264C51.144 99.576 50.96 99.072 50.592 98.752C50.24 98.432 49.744 98.272 49.104 98.272C48.464 98.272 47.84 98.368 47.232 98.56C46.624 98.736 46.016 98.96 45.408 99.232L44.232 96.808C44.936 96.44 45.712 96.152 46.56 95.944C47.424 95.736 48.32 95.632 49.248 95.632ZM51.144 102.928L49.752 102.976C48.6 103.008 47.8 103.216 47.352 103.6C46.904 103.984 46.68 104.488 46.68 105.112C46.68 105.656 46.84 106.048 47.16 106.288C47.48 106.512 47.896 106.624 48.408 106.624C49.176 106.624 49.824 106.4 50.352 105.952C50.88 105.488 51.144 104.84 51.144 104.008V102.928ZM61.9324 109H58.3564V90.76H61.9324V109ZM69.2449 109H65.6689V90.76H69.2449V109ZM91.1198 102.424C91.1198 104.6 90.5438 106.28 89.3918 107.464C88.2558 108.648 86.7038 109.24 84.7358 109.24C83.5198 109.24 82.4318 108.976 81.4718 108.448C80.5278 107.92 79.7838 107.152 79.2398 106.144C78.6958 105.12 78.4238 103.88 78.4238 102.424C78.4238 100.248 78.9918 98.576 80.1278 97.408C81.2638 96.24 82.8238 95.656 84.8078 95.656C86.0398 95.656 87.1278 95.92 88.0718 96.448C89.0158 96.976 89.7598 97.744 90.3038 98.752C90.8478 99.744 91.1198 100.968 91.1198 102.424ZM82.0718 102.424C82.0718 103.72 82.2798 104.704 82.6958 105.376C83.1278 106.032 83.8238 106.36 84.7838 106.36C85.7278 106.36 86.4078 106.032 86.8238 105.376C87.2558 104.704 87.4718 103.72 87.4718 102.424C87.4718 101.128 87.2558 100.16 86.8238 99.52C86.4078 98.864 85.7198 98.536 84.7598 98.536C83.8158 98.536 83.1278 98.864 82.6958 99.52C82.2798 100.16 82.0718 101.128 82.0718 102.424ZM101.323 98.584H98.2271V109H94.6511V98.584H92.6831V96.856L94.6511 95.896V94.936C94.6511 93.816 94.8351 92.952 95.2031 92.344C95.5871 91.72 96.1231 91.28 96.8111 91.024C97.5151 90.768 98.3391 90.64 99.2831 90.64C99.9871 90.64 100.619 90.696 101.179 90.808C101.755 90.92 102.219 91.048 102.571 91.192L101.659 93.808C101.387 93.728 101.091 93.656 100.771 93.592C100.451 93.512 100.083 93.472 99.6671 93.472C99.1711 93.472 98.8031 93.624 98.5631 93.928C98.3391 94.232 98.2271 94.616 98.2271 95.08V95.896H101.323V98.584ZM107.719 95.896H111.631L114.103 103.264C114.231 103.616 114.327 103.984 114.391 104.368C114.455 104.736 114.503 105.128 114.535 105.544H114.607C114.655 105.128 114.719 104.736 114.799 104.368C114.895 103.984 114.999 103.616 115.111 103.264L117.535 95.896H121.375L115.831 110.68C115.335 112.04 114.607 113.056 113.647 113.728C112.703 114.416 111.607 114.76 110.359 114.76C109.959 114.76 109.607 114.736 109.303 114.688C109.015 114.656 108.759 114.616 108.535 114.568V111.736C108.711 111.768 108.919 111.8 109.159 111.832C109.415 111.864 109.679 111.88 109.951 111.88C110.703 111.88 111.295 111.648 111.727 111.184C112.175 110.736 112.503 110.192 112.711 109.552L112.927 108.904L107.719 95.896ZM135.159 102.424C135.159 104.6 134.583 106.28 133.431 107.464C132.295 108.648 130.743 109.24 128.775 109.24C127.559 109.24 126.471 108.976 125.511 108.448C124.567 107.92 123.823 107.152 123.279 106.144C122.735 105.12 122.463 103.88 122.463 102.424C122.463 100.248 123.031 98.576 124.167 97.408C125.303 96.24 126.863 95.656 128.847 95.656C130.079 95.656 131.167 95.92 132.111 96.448C133.055 96.976 133.799 97.744 134.343 98.752C134.887 99.744 135.159 100.968 135.159 102.424ZM126.111 102.424C126.111 103.72 126.319 104.704 126.735 105.376C127.167 106.032 127.863 106.36 128.823 106.36C129.767 106.36 130.447 106.032 130.863 105.376C131.295 104.704 131.511 103.72 131.511 102.424C131.511 101.128 131.295 100.16 130.863 99.52C130.447 98.864 129.759 98.536 128.799 98.536C127.855 98.536 127.167 98.864 126.735 99.52C126.319 100.16 126.111 101.128 126.111 102.424ZM150.138 95.896V109H147.402L146.922 107.32H146.73C146.314 107.992 145.738 108.48 145.002 108.784C144.282 109.088 143.514 109.24 142.698 109.24C141.29 109.24 140.162 108.864 139.314 108.112C138.466 107.344 138.042 106.12 138.042 104.44V95.896H141.618V103.552C141.618 104.48 141.786 105.184 142.122 105.664C142.458 106.144 142.994 106.384 143.73 106.384C144.818 106.384 145.562 106.016 145.962 105.28C146.362 104.528 146.562 103.456 146.562 102.064V95.896H150.138ZM161.208 95.656C161.384 95.656 161.592 95.664 161.832 95.68C162.072 95.696 162.264 95.72 162.408 95.752L162.144 99.112C162.032 99.08 161.864 99.056 161.64 99.04C161.432 99.008 161.248 98.992 161.088 98.992C160.48 98.992 159.896 99.104 159.336 99.328C158.776 99.536 158.32 99.88 157.968 100.36C157.632 100.84 157.464 101.496 157.464 102.328V109H153.888V95.896H156.6L157.128 98.104H157.296C157.68 97.432 158.208 96.856 158.88 96.376C159.552 95.896 160.328 95.656 161.208 95.656ZM176.348 109.24C174.396 109.24 172.884 108.704 171.812 107.632C170.756 106.544 170.228 104.84 170.228 102.52C170.228 100.92 170.5 99.616 171.044 98.608C171.588 97.6 172.34 96.856 173.3 96.376C174.276 95.896 175.396 95.656 176.66 95.656C177.556 95.656 178.332 95.744 178.988 95.92C179.66 96.096 180.244 96.304 180.74 96.544L179.684 99.304C179.124 99.08 178.596 98.896 178.1 98.752C177.62 98.608 177.14 98.536 176.66 98.536C174.804 98.536 173.876 99.856 173.876 102.496C173.876 103.808 174.116 104.776 174.596 105.4C175.092 106.024 175.78 106.336 176.66 106.336C177.412 106.336 178.076 106.24 178.652 106.048C179.228 105.84 179.788 105.56 180.332 105.208V108.256C179.788 108.608 179.212 108.856 178.604 109C178.012 109.16 177.26 109.24 176.348 109.24ZM195.253 102.424C195.253 104.6 194.677 106.28 193.525 107.464C192.389 108.648 190.837 109.24 188.869 109.24C187.653 109.24 186.565 108.976 185.605 108.448C184.661 107.92 183.917 107.152 183.373 106.144C182.829 105.12 182.557 103.88 182.557 102.424C182.557 100.248 183.125 98.576 184.261 97.408C185.397 96.24 186.957 95.656 188.941 95.656C190.173 95.656 191.261 95.92 192.205 96.448C193.149 96.976 193.893 97.744 194.437 98.752C194.981 99.744 195.253 100.968 195.253 102.424ZM186.205 102.424C186.205 103.72 186.413 104.704 186.829 105.376C187.261 106.032 187.957 106.36 188.917 106.36C189.861 106.36 190.541 106.032 190.957 105.376C191.389 104.704 191.605 103.72 191.605 102.424C191.605 101.128 191.389 100.16 190.957 99.52C190.541 98.864 189.853 98.536 188.893 98.536C187.949 98.536 187.261 98.864 186.829 99.52C186.413 100.16 186.205 101.128 186.205 102.424ZM205.648 95.656C207.056 95.656 208.184 96.04 209.032 96.808C209.88 97.56 210.304 98.776 210.304 100.456V109H206.728V101.344C206.728 100.4 206.56 99.696 206.224 99.232C205.888 98.752 205.352 98.512 204.616 98.512C203.528 98.512 202.784 98.888 202.384 99.64C201.984 100.376 201.784 101.44 201.784 102.832V109H198.208V95.896H200.944L201.424 97.576H201.616C202.032 96.904 202.6 96.416 203.32 96.112C204.056 95.808 204.832 95.656 205.648 95.656ZM217.101 109L212.109 95.896H215.853L218.373 103.36C218.517 103.808 218.629 104.272 218.709 104.752C218.805 105.232 218.861 105.664 218.877 106.048H218.973C219.021 105.184 219.197 104.288 219.501 103.36L222.021 95.896H225.765L220.773 109H217.101ZM239.549 102.424C239.549 104.6 238.973 106.28 237.821 107.464C236.685 108.648 235.133 109.24 233.165 109.24C231.949 109.24 230.861 108.976 229.901 108.448C228.957 107.92 228.213 107.152 227.669 106.144C227.125 105.12 226.853 103.88 226.853 102.424C226.853 100.248 227.421 98.576 228.557 97.408C229.693 96.24 231.253 95.656 233.237 95.656C234.469 95.656 235.557 95.92 236.501 96.448C237.445 96.976 238.189 97.744 238.733 98.752C239.277 99.744 239.549 100.968 239.549 102.424ZM230.501 102.424C230.501 103.72 230.709 104.704 231.125 105.376C231.557 106.032 232.253 106.36 233.213 106.36C234.157 106.36 234.837 106.032 235.253 105.376C235.685 104.704 235.901 103.72 235.901 102.424C235.901 101.128 235.685 100.16 235.253 99.52C234.837 98.864 234.149 98.536 233.189 98.536C232.245 98.536 231.557 98.864 231.125 99.52C230.709 100.16 230.501 101.128 230.501 102.424ZM251.649 105.112C251.649 106.44 251.177 107.464 250.233 108.184C249.305 108.888 247.913 109.24 246.057 109.24C245.145 109.24 244.361 109.176 243.705 109.048C243.049 108.936 242.393 108.744 241.737 108.472V105.52C242.441 105.84 243.201 106.104 244.017 106.312C244.833 106.52 245.553 106.624 246.177 106.624C246.881 106.624 247.377 106.52 247.665 106.312C247.969 106.104 248.121 105.832 248.121 105.496C248.121 105.272 248.057 105.072 247.929 104.896C247.817 104.72 247.561 104.52 247.161 104.296C246.761 104.072 246.137 103.784 245.289 103.432C244.473 103.08 243.801 102.736 243.273 102.4C242.745 102.048 242.353 101.632 242.097 101.152C241.841 100.656 241.713 100.04 241.713 99.304C241.713 98.088 242.185 97.176 243.129 96.568C244.073 95.96 245.329 95.656 246.897 95.656C247.713 95.656 248.489 95.736 249.225 95.896C249.961 96.056 250.721 96.32 251.505 96.688L250.425 99.256C249.785 98.984 249.177 98.76 248.601 98.584C248.025 98.392 247.441 98.296 246.849 98.296C245.793 98.296 245.265 98.584 245.265 99.16C245.265 99.368 245.329 99.56 245.457 99.736C245.601 99.896 245.865 100.072 246.249 100.264C246.649 100.456 247.233 100.712 248.001 101.032C248.753 101.336 249.401 101.656 249.945 101.992C250.489 102.312 250.905 102.72 251.193 103.216C251.497 103.696 251.649 104.328 251.649 105.112ZM255.803 103.312V102.448C255.803 101.648 255.971 100.976 256.307 100.432C256.643 99.888 257.219 99.32 258.035 98.728C258.755 98.216 259.267 97.776 259.571 97.408C259.891 97.024 260.051 96.576 260.051 96.064C260.051 95.552 259.859 95.168 259.475 94.912C259.107 94.64 258.587 94.504 257.915 94.504C257.243 94.504 256.579 94.608 255.923 94.816C255.267 95.024 254.595 95.304 253.907 95.656L252.635 93.088C253.419 92.656 254.267 92.304 255.179 92.032C256.091 91.76 257.091 91.624 258.179 91.624C259.843 91.624 261.131 92.024 262.043 92.824C262.971 93.624 263.435 94.64 263.435 95.872C263.435 96.528 263.331 97.096 263.123 97.576C262.915 98.056 262.603 98.504 262.187 98.92C261.771 99.32 261.251 99.752 260.627 100.216C260.163 100.552 259.803 100.84 259.547 101.08C259.291 101.32 259.115 101.552 259.019 101.776C258.939 102 258.898 102.28 258.898 102.616V103.312H255.803ZM255.419 107.32C255.419 106.584 255.619 106.072 256.019 105.784C256.419 105.48 256.907 105.328 257.483 105.328C258.043 105.328 258.523 105.48 258.923 105.784C259.323 106.072 259.523 106.584 259.523 107.32C259.523 108.024 259.323 108.536 258.923 108.856C258.523 109.16 258.043 109.312 257.483 109.312C256.907 109.312 256.419 109.16 256.019 108.856C255.619 108.536 255.419 108.024 255.419 107.32ZM267.24 103.312V102.448C267.24 101.648 267.408 100.976 267.744 100.432C268.08 99.888 268.656 99.32 269.472 98.728C270.192 98.216 270.704 97.776 271.008 97.408C271.328 97.024 271.488 96.576 271.488 96.064C271.488 95.552 271.296 95.168 270.912 94.912C270.544 94.64 270.024 94.504 269.352 94.504C268.68 94.504 268.016 94.608 267.36 94.816C266.704 95.024 266.032 95.304 265.344 95.656L264.072 93.088C264.856 92.656 265.704 92.304 266.616 92.032C267.528 91.76 268.528 91.624 269.616 91.624C271.28 91.624 272.568 92.024 273.48 92.824C274.408 93.624 274.872 94.64 274.872 95.872C274.872 96.528 274.768 97.096 274.56 97.576C274.352 98.056 274.04 98.504 273.624 98.92C273.208 99.32 272.688 99.752 272.064 100.216C271.6 100.552 271.24 100.84 270.984 101.08C270.728 101.32 270.552 101.552 270.456 101.776C270.376 102 270.336 102.28 270.336 102.616V103.312H267.24ZM266.856 107.32C266.856 106.584 267.056 106.072 267.456 105.784C267.856 105.48 268.344 105.328 268.92 105.328C269.48 105.328 269.96 105.48 270.36 105.784C270.76 106.072 270.96 106.584 270.96 107.32C270.96 108.024 270.76 108.536 270.36 108.856C269.96 109.16 269.48 109.312 268.92 109.312C268.344 109.312 267.856 109.16 267.456 108.856C267.056 108.536 266.856 108.024 266.856 107.32ZM292.688 105.112C292.688 106.44 292.216 107.464 291.272 108.184C290.344 108.888 288.952 109.24 287.096 109.24C286.184 109.24 285.4 109.176 284.744 109.048C284.088 108.936 283.432 108.744 282.776 108.472V105.52C283.48 105.84 284.24 106.104 285.056 106.312C285.872 106.52 286.592 106.624 287.216 106.624C287.92 106.624 288.416 106.52 288.704 106.312C289.008 106.104 289.16 105.832 289.16 105.496C289.16 105.272 289.096 105.072 288.968 104.896C288.856 104.72 288.6 104.52 288.2 104.296C287.8 104.072 287.176 103.784 286.328 103.432C285.512 103.08 284.84 102.736 284.312 102.4C283.784 102.048 283.392 101.632 283.136 101.152C282.88 100.656 282.752 100.04 282.752 99.304C282.752 98.088 283.224 97.176 284.168 96.568C285.112 95.96 286.368 95.656 287.936 95.656C288.752 95.656 289.528 95.736 290.264 95.896C291 96.056 291.76 96.32 292.544 96.688L291.464 99.256C290.824 98.984 290.216 98.76 289.64 98.584C289.064 98.392 288.48 98.296 287.888 98.296C286.832 98.296 286.304 98.584 286.304 99.16C286.304 99.368 286.368 99.56 286.496 99.736C286.64 99.896 286.904 100.072 287.288 100.264C287.688 100.456 288.272 100.712 289.04 101.032C289.792 101.336 290.44 101.656 290.984 101.992C291.528 102.312 291.944 102.72 292.232 103.216C292.536 103.696 292.688 104.328 292.688 105.112ZM299.05 90.76V94.48C299.05 95.12 299.026 95.736 298.978 96.328C298.946 96.92 298.914 97.336 298.882 97.576H299.074C299.49 96.904 300.026 96.416 300.682 96.112C301.338 95.808 302.066 95.656 302.866 95.656C304.29 95.656 305.426 96.04 306.274 96.808C307.138 97.56 307.57 98.776 307.57 100.456V109H303.994V101.344C303.994 99.456 303.29 98.512 301.882 98.512C300.81 98.512 300.066 98.888 299.65 99.64C299.25 100.376 299.05 101.44 299.05 102.832V109H295.474V90.76H299.05ZM323.151 102.424C323.151 104.6 322.575 106.28 321.423 107.464C320.287 108.648 318.735 109.24 316.767 109.24C315.551 109.24 314.463 108.976 313.503 108.448C312.559 107.92 311.815 107.152 311.271 106.144C310.727 105.12 310.455 103.88 310.455 102.424C310.455 100.248 311.023 98.576 312.159 97.408C313.295 96.24 314.855 95.656 316.839 95.656C318.071 95.656 319.159 95.92 320.103 96.448C321.047 96.976 321.791 97.744 322.335 98.752C322.879 99.744 323.151 100.968 323.151 102.424ZM314.103 102.424C314.103 103.72 314.311 104.704 314.727 105.376C315.159 106.032 315.855 106.36 316.815 106.36C317.759 106.36 318.439 106.032 318.855 105.376C319.287 104.704 319.503 103.72 319.503 102.424C319.503 101.128 319.287 100.16 318.855 99.52C318.439 98.864 317.751 98.536 316.791 98.536C315.847 98.536 315.159 98.864 314.727 99.52C314.311 100.16 314.103 101.128 314.103 102.424ZM338.13 95.896V109H335.394L334.914 107.32H334.722C334.306 107.992 333.73 108.48 332.994 108.784C332.274 109.088 331.506 109.24 330.69 109.24C329.282 109.24 328.154 108.864 327.306 108.112C326.458 107.344 326.034 106.12 326.034 104.44V95.896H329.61V103.552C329.61 104.48 329.778 105.184 330.114 105.664C330.45 106.144 330.986 106.384 331.722 106.384C332.81 106.384 333.554 106.016 333.954 105.28C334.354 104.528 334.554 103.456 334.554 102.064V95.896H338.13ZM345.456 109H341.88V90.76H345.456V109ZM353.344 109.24C351.888 109.24 350.696 108.672 349.768 107.536C348.856 106.384 348.4 104.696 348.4 102.472C348.4 100.232 348.864 98.536 349.792 97.384C350.72 96.232 351.936 95.656 353.44 95.656C354.384 95.656 355.16 95.84 355.768 96.208C356.376 96.576 356.856 97.032 357.208 97.576H357.328C357.28 97.32 357.224 96.952 357.16 96.472C357.096 95.976 357.064 95.472 357.064 94.96V90.76H360.64V109H357.904L357.208 107.296H357.064C356.712 107.84 356.24 108.304 355.648 108.688C355.056 109.056 354.288 109.24 353.344 109.24ZM354.592 106.384C355.584 106.384 356.28 106.096 356.68 105.52C357.08 104.928 357.288 104.048 357.304 102.88V102.496C357.304 101.216 357.104 100.24 356.704 99.568C356.32 98.896 355.6 98.56 354.544 98.56C353.76 98.56 353.144 98.904 352.696 99.592C352.248 100.264 352.024 101.24 352.024 102.52C352.024 103.8 352.248 104.768 352.696 105.424C353.144 106.064 353.776 106.384 354.592 106.384ZM377.31 109H369.51V106.936L371.598 105.976V94.888L369.51 93.928V91.864H377.31V93.928L375.222 94.888V105.976L377.31 106.936V109ZM48.024 142.24C46.568 142.24 45.376 141.672 44.448 140.536C43.536 139.384 43.08 137.696 43.08 135.472C43.08 133.232 43.544 131.536 44.472 130.384C45.4 129.232 46.616 128.656 48.12 128.656C49.064 128.656 49.84 128.84 50.448 129.208C51.056 129.576 51.536 130.032 51.888 130.576H52.008C51.96 130.32 51.904 129.952 51.84 129.472C51.776 128.976 51.744 128.472 51.744 127.96V123.76H55.32V142H52.584L51.888 140.296H51.744C51.392 140.84 50.92 141.304 50.328 141.688C49.736 142.056 48.968 142.24 48.024 142.24ZM49.272 139.384C50.264 139.384 50.96 139.096 51.36 138.52C51.76 137.928 51.968 137.048 51.984 135.88V135.496C51.984 134.216 51.784 133.24 51.384 132.568C51 131.896 50.28 131.56 49.224 131.56C48.44 131.56 47.824 131.904 47.376 132.592C46.928 133.264 46.704 134.24 46.704 135.52C46.704 136.8 46.928 137.768 47.376 138.424C47.824 139.064 48.456 139.384 49.272 139.384ZM70.9635 135.424C70.9635 137.6 70.3875 139.28 69.2355 140.464C68.0995 141.648 66.5475 142.24 64.5795 142.24C63.3635 142.24 62.2755 141.976 61.3155 141.448C60.3715 140.92 59.6275 140.152 59.0835 139.144C58.5395 138.12 58.2675 136.88 58.2675 135.424C58.2675 133.248 58.8355 131.576 59.9715 130.408C61.1075 129.24 62.6675 128.656 64.6515 128.656C65.8835 128.656 66.9715 128.92 67.9155 129.448C68.8595 129.976 69.6035 130.744 70.1475 131.752C70.6915 132.744 70.9635 133.968 70.9635 135.424ZM61.9155 135.424C61.9155 136.72 62.1235 137.704 62.5395 138.376C62.9715 139.032 63.6675 139.36 64.6275 139.36C65.5715 139.36 66.2515 139.032 66.6675 138.376C67.0995 137.704 67.3155 136.72 67.3155 135.424C67.3155 134.128 67.0995 133.16 66.6675 132.52C66.2515 131.864 65.5635 131.536 64.6035 131.536C63.6595 131.536 62.9715 131.864 62.5395 132.52C62.1235 133.16 61.9155 134.128 61.9155 135.424ZM85.6733 139.384C86.0733 139.384 86.4573 139.344 86.8253 139.264C87.1933 139.184 87.5613 139.088 87.9293 138.976V141.64C87.5453 141.8 87.0653 141.936 86.4893 142.048C85.9293 142.176 85.3133 142.24 84.6413 142.24C83.8573 142.24 83.1533 142.112 82.5293 141.856C81.9213 141.6 81.4333 141.16 81.0653 140.536C80.7133 139.896 80.5373 139.016 80.5373 137.896V131.584H78.8333V130.072L80.8013 128.872L81.8333 126.112H84.1133V128.896H87.7853V131.584H84.1133V137.896C84.1133 138.392 84.2573 138.768 84.5453 139.024C84.8333 139.264 85.2093 139.384 85.6733 139.384ZM94.1355 123.76V127.48C94.1355 128.12 94.1115 128.736 94.0635 129.328C94.0315 129.92 93.9995 130.336 93.9675 130.576H94.1595C94.5755 129.904 95.1115 129.416 95.7675 129.112C96.4235 128.808 97.1515 128.656 97.9515 128.656C99.3755 128.656 100.512 129.04 101.359 129.808C102.224 130.56 102.656 131.776 102.656 133.456V142H99.0795V134.344C99.0795 132.456 98.3755 131.512 96.9675 131.512C95.8955 131.512 95.1515 131.888 94.7355 132.64C94.3355 133.376 94.1355 134.44 94.1355 135.832V142H90.5595V123.76H94.1355ZM111.733 128.656C113.541 128.656 114.973 129.176 116.029 130.216C117.085 131.24 117.613 132.704 117.613 134.608V136.336H109.165C109.197 137.344 109.493 138.136 110.053 138.712C110.629 139.288 111.421 139.576 112.429 139.576C113.277 139.576 114.045 139.496 114.733 139.336C115.421 139.16 116.133 138.896 116.869 138.544V141.304C116.229 141.624 115.549 141.856 114.829 142C114.125 142.16 113.269 142.24 112.261 142.24C110.949 142.24 109.789 142 108.781 141.52C107.773 141.024 106.981 140.28 106.405 139.288C105.829 138.296 105.541 137.048 105.541 135.544C105.541 134.008 105.797 132.736 106.309 131.728C106.837 130.704 107.565 129.936 108.493 129.424C109.421 128.912 110.501 128.656 111.733 128.656ZM111.757 131.2C111.069 131.2 110.493 131.424 110.029 131.872C109.581 132.32 109.317 133.016 109.237 133.96H114.253C114.237 133.16 114.029 132.504 113.629 131.992C113.229 131.464 112.605 131.2 111.757 131.2ZM135.891 138.112C135.891 139.44 135.419 140.464 134.475 141.184C133.547 141.888 132.155 142.24 130.299 142.24C129.387 142.24 128.603 142.176 127.947 142.048C127.291 141.936 126.635 141.744 125.979 141.472V138.52C126.683 138.84 127.443 139.104 128.259 139.312C129.075 139.52 129.795 139.624 130.419 139.624C131.123 139.624 131.619 139.52 131.907 139.312C132.211 139.104 132.363 138.832 132.363 138.496C132.363 138.272 132.299 138.072 132.171 137.896C132.059 137.72 131.803 137.52 131.403 137.296C131.003 137.072 130.379 136.784 129.531 136.432C128.715 136.08 128.043 135.736 127.515 135.4C126.987 135.048 126.595 134.632 126.339 134.152C126.083 133.656 125.955 133.04 125.955 132.304C125.955 131.088 126.427 130.176 127.371 129.568C128.315 128.96 129.571 128.656 131.139 128.656C131.955 128.656 132.731 128.736 133.467 128.896C134.203 129.056 134.963 129.32 135.747 129.688L134.667 132.256C134.027 131.984 133.419 131.76 132.843 131.584C132.267 131.392 131.683 131.296 131.091 131.296C130.035 131.296 129.507 131.584 129.507 132.16C129.507 132.368 129.571 132.56 129.699 132.736C129.843 132.896 130.107 133.072 130.491 133.264C130.891 133.456 131.475 133.712 132.243 134.032C132.995 134.336 133.643 134.656 134.187 134.992C134.731 135.312 135.147 135.72 135.435 136.216C135.739 136.696 135.891 137.328 135.891 138.112ZM144.053 128.632C145.813 128.632 147.157 129.016 148.085 129.784C149.029 130.536 149.501 131.696 149.501 133.264V142H147.005L146.309 140.224H146.213C145.653 140.928 145.061 141.44 144.437 141.76C143.813 142.08 142.957 142.24 141.869 142.24C140.701 142.24 139.733 141.904 138.965 141.232C138.197 140.544 137.813 139.496 137.813 138.088C137.813 136.696 138.301 135.672 139.277 135.016C140.253 134.344 141.717 133.976 143.669 133.912L145.949 133.84V133.264C145.949 132.576 145.765 132.072 145.397 131.752C145.045 131.432 144.549 131.272 143.909 131.272C143.269 131.272 142.645 131.368 142.037 131.56C141.429 131.736 140.821 131.96 140.213 132.232L139.037 129.808C139.741 129.44 140.517 129.152 141.365 128.944C142.229 128.736 143.125 128.632 144.053 128.632ZM145.949 135.928L144.557 135.976C143.405 136.008 142.605 136.216 142.157 136.6C141.709 136.984 141.485 137.488 141.485 138.112C141.485 138.656 141.645 139.048 141.965 139.288C142.285 139.512 142.701 139.624 143.213 139.624C143.981 139.624 144.629 139.4 145.157 138.952C145.685 138.488 145.949 137.84 145.949 137.008V135.928ZM168.545 128.656C170.033 128.656 171.153 129.04 171.905 129.808C172.673 130.56 173.057 131.776 173.057 133.456V142H169.481V134.344C169.481 132.456 168.825 131.512 167.513 131.512C166.569 131.512 165.897 131.848 165.497 132.52C165.097 133.192 164.897 134.16 164.897 135.424V142H161.321V134.344C161.321 132.456 160.665 131.512 159.353 131.512C158.361 131.512 157.673 131.888 157.289 132.64C156.921 133.376 156.737 134.44 156.737 135.832V142H153.161V128.896H155.897L156.377 130.576H156.569C156.969 129.904 157.513 129.416 158.201 129.112C158.905 128.808 159.633 128.656 160.385 128.656C161.345 128.656 162.161 128.816 162.833 129.136C163.505 129.44 164.017 129.92 164.369 130.576H164.681C165.081 129.904 165.633 129.416 166.337 129.112C167.057 128.808 167.793 128.656 168.545 128.656ZM182.139 128.656C183.947 128.656 185.379 129.176 186.435 130.216C187.491 131.24 188.019 132.704 188.019 134.608V136.336H179.571C179.603 137.344 179.899 138.136 180.459 138.712C181.035 139.288 181.827 139.576 182.835 139.576C183.683 139.576 184.451 139.496 185.139 139.336C185.827 139.16 186.539 138.896 187.275 138.544V141.304C186.635 141.624 185.955 141.856 185.235 142C184.531 142.16 183.675 142.24 182.667 142.24C181.355 142.24 180.195 142 179.187 141.52C178.179 141.024 177.387 140.28 176.811 139.288C176.235 138.296 175.947 137.048 175.947 135.544C175.947 134.008 176.203 132.736 176.715 131.728C177.243 130.704 177.971 129.936 178.899 129.424C179.827 128.912 180.907 128.656 182.139 128.656ZM182.163 131.2C181.475 131.2 180.899 131.424 180.435 131.872C179.987 132.32 179.723 133.016 179.643 133.96H184.659C184.643 133.16 184.435 132.504 184.035 131.992C183.635 131.464 183.011 131.2 182.163 131.2ZM192.287 136.312V135.448C192.287 134.648 192.455 133.976 192.791 133.432C193.127 132.888 193.703 132.32 194.519 131.728C195.239 131.216 195.751 130.776 196.055 130.408C196.375 130.024 196.535 129.576 196.535 129.064C196.535 128.552 196.343 128.168 195.959 127.912C195.591 127.64 195.071 127.504 194.399 127.504C193.727 127.504 193.063 127.608 192.407 127.816C191.751 128.024 191.079 128.304 190.391 128.656L189.119 126.088C189.903 125.656 190.751 125.304 191.663 125.032C192.575 124.76 193.575 124.624 194.663 124.624C196.327 124.624 197.615 125.024 198.527 125.824C199.455 126.624 199.919 127.64 199.919 128.872C199.919 129.528 199.815 130.096 199.607 130.576C199.399 131.056 199.087 131.504 198.671 131.92C198.255 132.32 197.735 132.752 197.111 133.216C196.647 133.552 196.287 133.84 196.031 134.08C195.775 134.32 195.599 134.552 195.503 134.776C195.423 135 195.383 135.28 195.383 135.616V136.312H192.287ZM191.903 140.32C191.903 139.584 192.103 139.072 192.503 138.784C192.903 138.48 193.391 138.328 193.967 138.328C194.527 138.328 195.007 138.48 195.407 138.784C195.807 139.072 196.007 139.584 196.007 140.32C196.007 141.024 195.807 141.536 195.407 141.856C195.007 142.16 194.527 142.312 193.967 142.312C193.391 142.312 192.903 142.16 192.503 141.856C192.103 141.536 191.903 141.024 191.903 140.32ZM213.967 128.632C215.727 128.632 217.071 129.016 217.999 129.784C218.943 130.536 219.415 131.696 219.415 133.264V142H216.919L216.223 140.224H216.127C215.567 140.928 214.975 141.44 214.351 141.76C213.727 142.08 212.871 142.24 211.783 142.24C210.615 142.24 209.647 141.904 208.879 141.232C208.111 140.544 207.727 139.496 207.727 138.088C207.727 136.696 208.215 135.672 209.191 135.016C210.167 134.344 211.631 133.976 213.583 133.912L215.863 133.84V133.264C215.863 132.576 215.679 132.072 215.311 131.752C214.959 131.432 214.463 131.272 213.823 131.272C213.183 131.272 212.559 131.368 211.951 131.56C211.343 131.736 210.735 131.96 210.127 132.232L208.951 129.808C209.655 129.44 210.431 129.152 211.279 128.944C212.143 128.736 213.039 128.632 213.967 128.632ZM215.863 135.928L214.471 135.976C213.319 136.008 212.519 136.216 212.071 136.6C211.623 136.984 211.399 137.488 211.399 138.112C211.399 138.656 211.559 139.048 211.879 139.288C212.199 139.512 212.615 139.624 213.127 139.624C213.895 139.624 214.543 139.4 215.071 138.952C215.599 138.488 215.863 137.84 215.863 137.008V135.928ZM226.651 123.76V127.48C226.651 128.12 226.627 128.736 226.579 129.328C226.547 129.92 226.515 130.336 226.483 130.576H226.675C227.091 129.904 227.627 129.416 228.283 129.112C228.939 128.808 229.667 128.656 230.467 128.656C231.891 128.656 233.027 129.04 233.875 129.808C234.739 130.56 235.171 131.776 235.171 133.456V142H231.595V134.344C231.595 132.456 230.891 131.512 229.483 131.512C228.411 131.512 227.667 131.888 227.251 132.64C226.851 133.376 226.651 134.44 226.651 135.832V142H223.075V123.76H226.651ZM244.225 128.632C245.985 128.632 247.329 129.016 248.257 129.784C249.201 130.536 249.673 131.696 249.673 133.264V142H247.177L246.481 140.224H246.385C245.825 140.928 245.233 141.44 244.609 141.76C243.985 142.08 243.129 142.24 242.041 142.24C240.873 142.24 239.905 141.904 239.137 141.232C238.369 140.544 237.985 139.496 237.985 138.088C237.985 136.696 238.473 135.672 239.449 135.016C240.425 134.344 241.889 133.976 243.841 133.912L246.121 133.84V133.264C246.121 132.576 245.937 132.072 245.569 131.752C245.217 131.432 244.721 131.272 244.081 131.272C243.441 131.272 242.817 131.368 242.209 131.56C241.601 131.736 240.993 131.96 240.385 132.232L239.209 129.808C239.913 129.44 240.689 129.152 241.537 128.944C242.401 128.736 243.297 128.632 244.225 128.632ZM246.121 135.928L244.729 135.976C243.577 136.008 242.777 136.216 242.329 136.6C241.881 136.984 241.657 137.488 241.657 138.112C241.657 138.656 241.817 139.048 242.137 139.288C242.457 139.512 242.873 139.624 243.385 139.624C244.153 139.624 244.801 139.4 245.329 138.952C245.857 138.488 246.121 137.84 246.121 137.008V135.928ZM263.143 123.76V127.48C263.143 128.12 263.119 128.736 263.071 129.328C263.039 129.92 263.007 130.336 262.975 130.576H263.167C263.583 129.904 264.119 129.416 264.775 129.112C265.431 128.808 266.159 128.656 266.959 128.656C268.383 128.656 269.519 129.04 270.367 129.808C271.231 130.56 271.663 131.776 271.663 133.456V142H268.087V134.344C268.087 132.456 267.383 131.512 265.975 131.512C264.903 131.512 264.159 131.888 263.743 132.64C263.343 133.376 263.143 134.44 263.143 135.832V142H259.567V123.76H263.143ZM280.717 128.632C282.477 128.632 283.821 129.016 284.749 129.784C285.693 130.536 286.165 131.696 286.165 133.264V142H283.669L282.973 140.224H282.877C282.317 140.928 281.725 141.44 281.101 141.76C280.477 142.08 279.621 142.24 278.533 142.24C277.365 142.24 276.397 141.904 275.629 141.232C274.861 140.544 274.477 139.496 274.477 138.088C274.477 136.696 274.965 135.672 275.941 135.016C276.917 134.344 278.381 133.976 280.333 133.912L282.613 133.84V133.264C282.613 132.576 282.429 132.072 282.061 131.752C281.709 131.432 281.213 131.272 280.573 131.272C279.933 131.272 279.309 131.368 278.701 131.56C278.093 131.736 277.485 131.96 276.877 132.232L275.701 129.808C276.405 129.44 277.181 129.152 278.029 128.944C278.893 128.736 279.789 128.632 280.717 128.632ZM282.613 135.928L281.221 135.976C280.069 136.008 279.269 136.216 278.821 136.6C278.373 136.984 278.149 137.488 278.149 138.112C278.149 138.656 278.309 139.048 278.629 139.288C278.949 139.512 279.365 139.624 279.877 139.624C280.645 139.624 281.293 139.4 281.821 138.952C282.349 138.488 282.613 137.84 282.613 137.008V135.928ZM299.636 123.76V127.48C299.636 128.12 299.612 128.736 299.564 129.328C299.532 129.92 299.5 130.336 299.468 130.576H299.66C300.076 129.904 300.612 129.416 301.268 129.112C301.924 128.808 302.652 128.656 303.452 128.656C304.876 128.656 306.012 129.04 306.859 129.808C307.724 130.56 308.156 131.776 308.156 133.456V142H304.58V134.344C304.58 132.456 303.876 131.512 302.468 131.512C301.396 131.512 300.652 131.888 300.236 132.64C299.836 133.376 299.636 134.44 299.636 135.832V142H296.06V123.76H299.636ZM317.209 128.632C318.969 128.632 320.313 129.016 321.241 129.784C322.185 130.536 322.657 131.696 322.657 133.264V142H320.161L319.465 140.224H319.369C318.809 140.928 318.217 141.44 317.593 141.76C316.969 142.08 316.113 142.24 315.025 142.24C313.857 142.24 312.889 141.904 312.121 141.232C311.353 140.544 310.969 139.496 310.969 138.088C310.969 136.696 311.457 135.672 312.433 135.016C313.409 134.344 314.873 133.976 316.825 133.912L319.105 133.84V133.264C319.105 132.576 318.921 132.072 318.553 131.752C318.201 131.432 317.705 131.272 317.065 131.272C316.425 131.272 315.801 131.368 315.193 131.56C314.585 131.736 313.977 131.96 313.369 132.232L312.193 129.808C312.897 129.44 313.673 129.152 314.521 128.944C315.385 128.736 316.281 128.632 317.209 128.632ZM319.105 135.928L317.713 135.976C316.561 136.008 315.761 136.216 315.313 136.6C314.865 136.984 314.641 137.488 314.641 138.112C314.641 138.656 314.801 139.048 315.121 139.288C315.441 139.512 315.857 139.624 316.369 139.624C317.137 139.624 317.785 139.4 318.313 138.952C318.841 138.488 319.105 137.84 319.105 137.008V135.928Z" fill="#333333"/>
<rect x="31" y="13" width="353" height="23" rx="11.5" fill="#E0E0E0"/>
</svg>
