<svg width="410" height="824" viewBox="0 0 410 824" fill="none" xmlns="http://www.w3.org/2000/svg">
<g clip-path="url(#clip0)">
<rect x="17" y="23" width="382" height="778" fill="#F2F2F2"/>
<path d="M360.273 45.2727H359.182V44.1818C359.182 43.6032 358.952 43.0482 358.543 42.639C358.134 42.2299 357.579 42 357 42H335.182C334.603 42 334.048 42.2299 333.639 42.639C333.23 43.0482 333 43.6032 333 44.1818V51.8182C333 52.3968 333.23 52.9518 333.639 53.361C334.048 53.7701 334.603 54 335.182 54H357C357.579 54 358.134 53.7701 358.543 53.361C358.952 52.9518 359.182 52.3968 359.182 51.8182V50.7273H360.273C360.562 50.7273 360.84 50.6123 361.044 50.4078C361.249 50.2032 361.364 49.9257 361.364 49.6364V46.3636C361.364 46.0743 361.249 45.7968 361.044 45.5922C360.84 45.3877 360.562 45.2727 360.273 45.2727ZM358.091 51.8182C358.091 52.1075 357.976 52.385 357.771 52.5896C357.567 52.7942 357.289 52.9091 357 52.9091H335.182C334.892 52.9091 334.615 52.7942 334.41 52.5896C334.206 52.385 334.091 52.1075 334.091 51.8182V44.1818C334.091 43.8925 334.206 43.615 334.41 43.4104C334.615 43.2058 334.892 43.0909 335.182 43.0909H357C357.289 43.0909 357.567 43.2058 357.771 43.4104C357.976 43.615 358.091 43.8925 358.091 44.1818V51.8182ZM335.182 51.8182H341.727V44.1818H335.182V51.8182ZM342.818 51.8182H349.364V44.1818H342.818V51.8182ZM350.455 51.8182H357V44.1818H350.455V51.8182Z" fill="#141414"/>
<path d="M72.5097 51.912C72.5097 52.9253 72.1417 53.72 71.4057 54.296C70.6697 54.872 69.6617 55.16 68.3817 55.16C67.763 55.16 67.1764 55.1067 66.6217 55C66.0777 54.904 65.6137 54.76 65.2297 54.568V52.936C65.6564 53.128 66.1577 53.304 66.7337 53.464C67.3097 53.6133 67.8964 53.688 68.4937 53.688C69.2617 53.688 69.8377 53.5387 70.2217 53.24C70.6057 52.9413 70.7977 52.5413 70.7977 52.04C70.7977 51.688 70.707 51.3947 70.5257 51.16C70.355 50.9147 70.083 50.6907 69.7097 50.488C69.3364 50.2853 68.8457 50.0613 68.2377 49.816C67.6724 49.6027 67.171 49.352 66.7337 49.064C66.307 48.776 65.971 48.4187 65.7257 47.992C65.4804 47.5653 65.3577 47.0427 65.3577 46.424C65.3577 45.4853 65.699 44.7493 66.3817 44.216C67.0644 43.6827 67.9604 43.416 69.0697 43.416C69.6884 43.416 70.259 43.48 70.7817 43.608C71.315 43.7253 71.8217 43.8907 72.3017 44.104L71.7577 45.528C71.3204 45.3467 70.8724 45.1973 70.4137 45.08C69.9657 44.9627 69.5017 44.904 69.0217 44.904C68.3924 44.904 67.9124 45.0427 67.5817 45.32C67.251 45.5973 67.0857 45.96 67.0857 46.408C67.0857 46.76 67.1657 47.0587 67.3257 47.304C67.4857 47.5387 67.7417 47.752 68.0937 47.944C68.4457 48.136 68.9097 48.3493 69.4857 48.584C70.1257 48.84 70.6697 49.112 71.1177 49.4C71.5764 49.6773 71.923 50.0187 72.1577 50.424C72.3924 50.8187 72.5097 51.3147 72.5097 51.912ZM77.9466 43.576C79.4399 43.576 80.5279 43.88 81.2106 44.488C81.8932 45.0853 82.2346 45.9227 82.2346 47C82.2346 47.64 82.0906 48.2373 81.8026 48.792C81.5252 49.3467 81.0559 49.8 80.3946 50.152C79.7332 50.4933 78.8372 50.664 77.7066 50.664H76.4746V55H74.7466V43.576H77.9466ZM77.8186 45.032H76.4746V49.208H77.5146C78.4852 49.208 79.2159 49.0427 79.7066 48.712C80.2079 48.3813 80.4586 47.832 80.4586 47.064C80.4586 46.3813 80.2452 45.8747 79.8186 45.544C79.3919 45.2027 78.7252 45.032 77.8186 45.032ZM93.4074 43.576V50.968C93.4074 51.7573 93.2421 52.472 92.9114 53.112C92.5808 53.7413 92.0794 54.2427 91.4074 54.616C90.7461 54.9787 89.9034 55.16 88.8794 55.16C87.4288 55.16 86.3248 54.776 85.5674 54.008C84.8208 53.2293 84.4474 52.2053 84.4474 50.936V43.576H86.1754V50.856C86.1754 52.744 87.1034 53.688 88.9594 53.688C89.9194 53.688 90.6128 53.432 91.0394 52.92C91.4768 52.408 91.6954 51.7147 91.6954 50.84V43.576H93.4074ZM105.604 49.176C105.604 51.1067 105.071 52.5627 104.004 53.544C102.948 54.5147 101.465 55 99.5559 55H96.3559V43.576H99.8919C101.055 43.576 102.063 43.7893 102.916 44.216C103.769 44.6427 104.431 45.272 104.9 46.104C105.369 46.9253 105.604 47.9493 105.604 49.176ZM103.796 49.224C103.796 47.784 103.444 46.728 102.74 46.056C102.047 45.3733 101.06 45.032 99.7799 45.032H98.0839V53.544H99.4759C102.356 53.544 103.796 52.104 103.796 49.224Z" fill="#141414"/>
<path d="M304.377 51.0069L305.776 52.3981C306.243 51.9328 306.797 51.5636 307.408 51.3117C308.018 51.0598 308.672 50.9302 309.333 50.9302C309.994 50.9302 310.649 51.0598 311.259 51.3117C311.87 51.5636 312.424 51.9328 312.891 52.3981L314.29 51.0069C313.639 50.3595 312.866 49.8459 312.016 49.4955C311.166 49.1452 310.254 48.9648 309.333 48.9648C308.413 48.9648 307.501 49.1452 306.651 49.4955C305.8 49.8459 305.027 50.3595 304.377 51.0069ZM301.19 47.8383L302.589 49.2295C303.474 48.3473 304.525 47.6473 305.682 47.1697C306.84 46.6922 308.08 46.4463 309.333 46.4463C310.586 46.4463 311.827 46.6922 312.984 47.1697C314.142 47.6473 315.193 48.3473 316.078 49.2295L317.479 47.836C316.41 46.7726 315.14 45.929 313.742 45.3534C312.345 44.7779 310.847 44.4817 309.335 44.4817C307.822 44.4817 306.325 44.7779 304.927 45.3534C303.53 45.929 302.26 46.7726 301.191 47.836L301.19 47.8383ZM309.333 40C307.228 39.9973 305.143 40.4083 303.198 41.2094C301.253 42.0105 299.487 43.186 298 44.6682L299.402 46.0624C300.705 44.7636 302.253 43.7332 303.957 43.0301C305.661 42.327 307.488 41.9651 309.333 41.9651C311.178 41.9651 313.005 42.327 314.709 43.0301C316.414 43.7332 317.961 44.7636 319.264 46.0624L320.667 44.6682C319.18 43.186 317.414 42.0105 315.469 41.2094C313.524 40.4083 311.439 39.9973 309.333 40ZM309.333 53.0525C309.04 53.0525 308.754 53.1389 308.51 53.3008C308.266 53.4628 308.076 53.6929 307.964 53.9622C307.852 54.2315 307.822 54.5279 307.88 54.8137C307.937 55.0996 308.078 55.3622 308.285 55.5683C308.493 55.7745 308.757 55.9148 309.044 55.9717C309.332 56.0285 309.63 55.9994 309.901 55.8878C310.171 55.7763 310.403 55.5874 310.566 55.345C310.729 55.1027 310.816 54.8177 310.816 54.5262C310.816 54.1354 310.659 53.7605 310.381 53.4841C310.103 53.2077 309.726 53.0525 309.333 53.0525Z" fill="#141414"/>
<path d="M368.893 1.98828H41.1302C18.9894 1.98828 1 19.9777 1 42.1185V783.637C1 805.778 18.9894 823.768 41.1302 823.768H368.695C390.836 823.768 408.825 805.778 408.825 783.637V42.1185C409.023 19.9777 390.836 1.98828 368.893 1.98828ZM389.057 773.555C389.057 786.01 378.777 796.289 366.323 796.289H43.7001C31.2459 796.289 20.9662 786.01 20.9662 773.555V52.2004C20.9662 39.7462 31.2459 29.4666 43.7001 29.4666H139.182C139.182 42.5138 149.857 53.1889 162.905 53.1889H254.235C267.283 53.1889 277.958 42.5138 277.958 29.4666H366.125C378.58 29.4666 388.859 39.7462 388.859 52.2004V773.555H389.057Z" fill="#141414" stroke="black" stroke-miterlimit="10"/>
<line x1="182.659" y1="238.423" x2="179.519" y2="241.563" stroke="#FBBBB7" stroke-width="0.498969" stroke-linecap="round"/>
<path d="M89.5583 376V364.576H91.6063V374.272H96.3743V376H89.5583ZM99.1712 363.984C99.4805 363.984 99.7419 364.064 99.9552 364.224C100.179 364.373 100.291 364.645 100.291 365.04C100.291 365.435 100.179 365.712 99.9552 365.872C99.7419 366.032 99.4805 366.112 99.1712 366.112C98.8619 366.112 98.5952 366.032 98.3712 365.872C98.1579 365.712 98.0512 365.435 98.0512 365.04C98.0512 364.645 98.1579 364.373 98.3712 364.224C98.5952 364.064 98.8619 363.984 99.1712 363.984ZM100.179 367.328V376H98.1632V367.328H100.179ZM107.397 367.168C108.368 367.168 109.125 367.419 109.669 367.92C110.224 368.421 110.501 369.232 110.501 370.352V376H108.485V370.752C108.485 369.451 107.952 368.8 106.885 368.8C106.074 368.8 105.52 369.056 105.221 369.568C104.922 370.08 104.773 370.811 104.773 371.76V376H102.757V367.328H104.309L104.597 368.464H104.709C104.986 368.016 105.365 367.691 105.845 367.488C106.336 367.275 106.853 367.168 107.397 367.168ZM115.023 363.84V369.616C115.023 369.893 115.012 370.187 114.991 370.496C114.969 370.805 114.948 371.099 114.927 371.376H114.975C115.103 371.184 115.263 370.965 115.455 370.72C115.647 370.475 115.828 370.256 115.999 370.064L118.559 367.328H120.847L117.375 371.072L121.071 376H118.719L116.031 372.288L115.023 373.12V376H113.023V363.84H115.023ZM133.417 372.88C133.417 373.893 133.049 374.693 132.313 375.28C131.577 375.867 130.558 376.16 129.257 376.16C127.998 376.16 126.932 375.947 126.057 375.52V373.6C126.537 373.813 127.065 374.011 127.641 374.192C128.217 374.363 128.804 374.448 129.401 374.448C130.084 374.448 130.585 374.315 130.905 374.048C131.225 373.781 131.385 373.429 131.385 372.992C131.385 372.512 131.182 372.133 130.777 371.856C130.372 371.579 129.78 371.275 129.001 370.944C128.532 370.741 128.084 370.501 127.657 370.224C127.23 369.947 126.878 369.595 126.601 369.168C126.324 368.731 126.185 368.187 126.185 367.536C126.185 366.555 126.526 365.792 127.209 365.248C127.902 364.693 128.825 364.416 129.977 364.416C130.585 364.416 131.15 364.48 131.673 364.608C132.206 364.736 132.74 364.917 133.273 365.152L132.617 366.8C132.137 366.597 131.678 366.437 131.241 366.32C130.814 366.203 130.372 366.144 129.913 366.144C129.358 366.144 128.937 366.272 128.649 366.528C128.361 366.773 128.217 367.093 128.217 367.488C128.217 367.808 128.297 368.075 128.457 368.288C128.617 368.501 128.862 368.699 129.193 368.88C129.534 369.061 129.972 369.269 130.505 369.504C131.113 369.771 131.636 370.048 132.073 370.336C132.51 370.624 132.841 370.971 133.065 371.376C133.3 371.781 133.417 372.283 133.417 372.88ZM138.886 376.16C137.638 376.16 136.657 375.803 135.942 375.088C135.227 374.373 134.87 373.248 134.87 371.712C134.87 370.645 135.046 369.781 135.398 369.12C135.761 368.448 136.257 367.957 136.886 367.648C137.515 367.328 138.235 367.168 139.046 367.168C139.59 367.168 140.075 367.221 140.502 367.328C140.929 367.435 141.291 367.563 141.59 367.712L140.998 369.296C140.667 369.168 140.337 369.061 140.006 368.976C139.675 368.88 139.355 368.832 139.046 368.832C137.638 368.832 136.934 369.787 136.934 371.696C136.934 372.624 137.11 373.323 137.462 373.792C137.825 374.261 138.342 374.496 139.014 374.496C139.494 374.496 139.921 374.437 140.294 374.32C140.667 374.203 141.025 374.043 141.366 373.84V375.584C141.035 375.776 140.678 375.92 140.294 376.016C139.921 376.112 139.451 376.16 138.886 376.16ZM146.854 367.168C147.974 367.168 148.822 367.413 149.398 367.904C149.984 368.395 150.278 369.152 150.278 370.176V376H148.854L148.454 374.8H148.39C148.016 375.269 147.622 375.616 147.206 375.84C146.79 376.053 146.224 376.16 145.51 376.16C144.731 376.16 144.086 375.941 143.574 375.504C143.062 375.067 142.806 374.389 142.806 373.472C142.806 372.576 143.131 371.904 143.782 371.456C144.443 371.008 145.44 370.757 146.774 370.704L148.278 370.656V370.224C148.278 369.68 148.144 369.291 147.878 369.056C147.611 368.811 147.238 368.688 146.758 368.688C146.32 368.688 145.899 368.752 145.494 368.88C145.099 369.008 144.704 369.157 144.31 369.328L143.67 367.92C144.096 367.696 144.582 367.515 145.126 367.376C145.68 367.237 146.256 367.168 146.854 367.168ZM148.278 371.904L147.222 371.936C146.336 371.968 145.723 372.123 145.382 372.4C145.04 372.667 144.87 373.029 144.87 373.488C144.87 373.904 144.987 374.203 145.222 374.384C145.467 374.555 145.787 374.64 146.182 374.64C146.768 374.64 147.264 374.475 147.67 374.144C148.075 373.803 148.278 373.301 148.278 372.64V371.904ZM162.74 367.168C163.721 367.168 164.457 367.419 164.948 367.92C165.449 368.421 165.7 369.232 165.7 370.352V376H163.684V370.736C163.684 369.445 163.193 368.8 162.212 368.8C161.508 368.8 161.006 369.029 160.708 369.488C160.409 369.947 160.26 370.613 160.26 371.488V376H158.244V370.736C158.244 369.445 157.748 368.8 156.756 368.8C156.02 368.8 155.513 369.056 155.236 369.568C154.958 370.08 154.82 370.811 154.82 371.76V376H152.804V367.328H154.356L154.644 368.464H154.756C155.012 368.016 155.369 367.691 155.828 367.488C156.297 367.275 156.782 367.168 157.284 367.168C157.934 367.168 158.478 367.28 158.916 367.504C159.364 367.717 159.705 368.053 159.94 368.512H160.1C160.366 368.043 160.74 367.701 161.22 367.488C161.7 367.275 162.206 367.168 162.74 367.168Z" fill="black"/>
<rect x="57.329" y="203.329" width="139.342" height="140.342" rx="19.4106" fill="#6DA1EF" stroke="black" stroke-width="0.657985"/>
<mask id="mask0" mask-type="alpha" maskUnits="userSpaceOnUse" x="57" y="203" width="140" height="140">
<rect x="57.329" y="203.329" width="139.342" height="139.342" rx="19.4106" fill="#6DA1EF" stroke="black" stroke-width="0.657985"/>
</mask>
<g mask="url(#mask0)">
<path d="M123.985 254.777L114.46 261.59L116.466 299.18L142.281 322.439L157.069 274.277L147.043 242.09L123.985 254.777Z" fill="#E4E4E4" stroke="black" stroke-width="0.27713"/>
<path d="M165.091 275.683L165.843 274.508C166.01 275.683 166.344 278.314 166.344 279.442C166.344 280.851 164.589 286.725 164.339 288.369C164.088 290.014 158.825 300.116 157.07 303.405C155.667 306.037 150.136 313.273 147.546 316.562C149.3 313.978 153.611 307.399 156.82 301.761C160.028 296.122 163.67 282.026 165.091 275.683Z" stroke="black" stroke-width="0.27713"/>
<path d="M91.4024 322.197C93.8085 318.438 100.425 306.065 103.433 300.348C104.603 300.348 107.995 300.677 112.206 301.992C116.416 303.308 123.484 326.818 126.492 338.408L123.986 346.631L113.923 340.792C113.616 340.614 113.27 340.494 112.918 340.448C100.388 338.787 99.048 343.851 96.1648 346.631H85.8884C80.3743 340.992 88.3947 326.896 91.4024 322.197Z" fill="#B4D2A9" stroke="black" stroke-width="0.27713"/>
<path d="M111.202 261.583C110.723 261.733 107.526 263.228 106.691 263.933C105.087 290.058 127.076 310.529 138.271 317.499L141.279 314.445C133.258 312.8 123.483 290.716 123.483 285.782C123.483 281.835 117.301 267.692 114.21 261.113C113.876 261.192 112.706 261.113 111.202 261.583Z" fill="#B4D2A9" stroke="black" stroke-width="0.5"/>
<path d="M137.364 219.231C129.344 210.773 119.151 213.984 115.057 216.647C106.636 220.594 108.708 233.798 110.797 239.906C112.635 244.762 118.165 254.989 125.584 257.057C134.858 259.641 139.797 257.957 143.881 252.123C149.144 244.605 147.39 229.804 137.364 219.231Z" fill="#E4E4E4" stroke="black"/>
<path d="M181.632 269.801C180.83 263.035 170.103 260.403 164.839 259.934C158.156 275.205 144.538 305.982 144.538 305.982C144.538 305.982 141.781 314.205 137.77 317.259C134.562 319.702 126.742 337.934 123.233 346.861L143.786 347.096C144.12 345.608 147.545 336.759 149.801 332.765C154.776 323.956 174.865 290.006 179.126 283.193C182.534 277.742 182.217 271.994 181.632 269.801Z" fill="#E4E4E4" stroke="black" stroke-width="0.27713"/>
<path d="M104.183 253.362C96.9651 240.769 98.4205 223.76 104.184 217.886C107.944 212.718 119.273 203.931 134.512 210.133C153.561 217.886 158.072 235.037 159.325 239.501C160.578 243.965 162.082 255.712 171.105 264.405C180.529 275.87 171.857 295.808 166.343 304.344C169.143 298.395 167.816 284.111 166.608 276.353C167.956 289.544 152.006 313.04 146.227 318.276C146.165 318.342 146.103 318.397 146.041 318.441C146.102 318.388 146.164 318.333 146.227 318.276C149.606 314.705 153.78 279.839 152.057 275.917C150.854 278.548 148.047 283.435 142.783 288.369L146.041 273.098C149.3 257.826 145.791 229.399 137.52 219.296C134.811 215.987 125.79 211.967 119.975 214.598C114.545 216.32 109.448 220.941 109.448 231.043C109.448 236.682 111.453 240.441 112.456 243.025C112.803 243.921 119.223 253.362 123.483 256.182L128.246 266.049C124.737 266.049 110.2 261.116 104.183 253.362Z" fill="#313234" stroke="black" stroke-width="0.27713"/>
<path d="M117.72 321.498C112.513 313.368 111.204 313.04 99.4236 292.365C92.8067 279.315 101.512 267.976 106.692 263.938C108.029 265.739 111.805 271.268 116.217 278.974C120.628 286.68 120.06 290.016 119.224 290.721C119.425 296.923 131.839 310.69 138.021 317.034C136.518 318.913 129.25 332.07 126.242 338.883C125.407 335.437 119.224 323.847 117.72 321.498Z" fill="#E4E4E4" stroke="black" stroke-width="0.27713"/>
<path d="M112.706 303.164C106.29 295.082 101.01 281.315 99.1719 275.441C96.9161 277.321 97.4174 284.839 97.9187 287.658C98.42 290.478 100.676 293.767 101.177 294.941C101.678 296.116 114.21 315.851 116.215 318.67C118.22 321.49 120.727 326.423 121.228 327.363C121.608 328.076 124.821 334.646 126.241 337.935L130.251 329.947C127.076 324.387 119.123 311.246 112.706 303.164Z" fill="#AFAFAF"/>
<path d="M85.8881 346.643H95.9136H97.1671C97.2506 346.173 98.2197 344.669 101.428 342.414C105.438 339.595 109.198 340.534 111.955 340.534C114.16 340.534 120.393 344.685 123.233 346.878L125.74 340.534H120.476C109.849 339.971 96.6658 328.082 91.4024 322.209C91.9871 321.191 91.9536 321.222 87.1413 329.492C82.329 337.762 84.3007 344.372 85.8881 346.643Z" fill="#43ABAB" stroke="black" stroke-width="0.27713"/>
<path d="M128.747 266.283L123.985 256.65L129.248 258.06C132.005 258.53 134.512 258.295 136.015 258.06C141.78 256.65 144.955 251.09 146.292 247.723C146.542 248.897 147.043 261.819 146.793 261.819C147.294 268.397 143.284 283.668 143.033 285.548C142.833 287.052 141.613 290.717 141.028 292.361C142.632 286.723 126.157 270.59 117.719 263.229C121.478 265.578 126.742 266.205 128.747 266.283Z" fill="#AFAFAF"/>
<path d="M111.704 339.351C105.488 335.404 90.9011 339.586 84.3845 342.17C83.9834 343.486 85.2199 345.694 85.8883 346.634H97.167C103.984 338.928 112.372 340.447 115.714 342.17C116.967 342.875 117.92 343.298 111.704 339.351Z" fill="#5ACFCF" stroke="black" stroke-width="0.27713"/>
<path d="M113.96 247.484C110.702 243.725 109.699 238.791 109.699 236.207C110.368 238.008 111.754 241.799 111.955 242.55C112.206 243.49 113.709 245.605 116.216 248.894C118.221 251.525 121.73 255.002 123.234 256.412L123.484 257.117C122.816 257.038 121.479 256.741 121.479 256.177C121.479 255.472 117.218 251.243 113.96 247.484Z" fill="black"/>
<path d="M152.826 227.703C151.423 226.763 151.723 227.677 151.807 228.225C152.559 229.634 157.337 247.908 157.588 249.317C157.839 250.727 160.596 254.251 160.094 249.317C159.593 244.384 154.581 228.877 152.826 227.703Z" fill="#565656"/>
<path d="M151.556 274.271C151.556 275.023 146.042 283.042 143.285 286.958V287.428C144.488 287.428 149.551 280.849 152.058 275.446C151.974 274.741 151.556 273.52 151.556 274.271Z" fill="#19191B"/>
<path d="M121.479 329.011C118.221 329.246 108.78 318.83 104.185 313.035C103.784 318.674 118.221 333.397 125.489 340.053L125.74 339.113V338.409C125.74 337.657 122.899 331.83 121.479 329.011Z" fill="#99B390"/>
<path d="M119.831 332.725C117.456 333.48 108.297 327.249 103.69 323.667C104.55 328.015 118.309 336.628 125.081 340.392L125.074 339.635L124.929 339.1C124.775 338.53 121.466 334.613 119.831 332.725Z" fill="#99B390"/>
<path d="M109.448 340.532C114.21 340.299 120.309 344.681 122.732 346.874L97.167 346.404C98.7544 344.368 103.428 340.828 109.448 340.532Z" fill="#E4E4E4" stroke="black" stroke-width="0.27713"/>
<path d="M144.538 318.909C145.541 318.157 149.467 300.427 151.305 291.656C150.971 294.397 150.303 300.02 150.303 300.584C150.303 301.289 148.298 311.626 147.295 315.15C146.493 317.969 145.123 318.831 144.538 318.909Z" fill="#AFAFAF"/>
<path d="M165.34 305.516C166.944 301.381 167.011 287.348 166.844 280.848C167.011 282.884 167.345 287.003 167.345 287.191C167.345 287.426 167.596 292.125 167.596 293.299C167.596 294.474 167.095 300.348 166.844 301.757C166.644 302.885 165.758 304.733 165.34 305.516Z" fill="#AFAFAF"/>
</g>
<rect x="57.329" y="413.329" width="139.342" height="139.342" rx="19.4106" fill="#766FCE" stroke="black" stroke-width="0.657985"/>
<rect x="57.329" y="413.329" width="139.342" height="140.342" rx="19.4106" fill="#766FCE" stroke="black" stroke-width="0.657985"/>
<path d="M80.5899 586H78.5739V574.576H85.0539V576.288H80.5899V579.648H84.7499V581.36H80.5899V586ZM94.7353 581.648C94.7353 583.088 94.362 584.203 93.6153 584.992C92.8686 585.771 91.8553 586.16 90.5753 586.16C89.786 586.16 89.082 585.984 88.4633 585.632C87.8446 585.28 87.3593 584.768 87.0073 584.096C86.6553 583.424 86.4793 582.608 86.4793 581.648C86.4793 580.208 86.8473 579.104 87.5833 578.336C88.33 577.557 89.3433 577.168 90.6233 577.168C91.4233 577.168 92.1326 577.344 92.7513 577.696C93.37 578.037 93.8553 578.544 94.2073 579.216C94.5593 579.877 94.7353 580.688 94.7353 581.648ZM88.5433 581.648C88.5433 582.565 88.7033 583.275 89.0233 583.776C89.354 584.277 89.882 584.528 90.6073 584.528C91.3326 584.528 91.8553 584.277 92.1753 583.776C92.506 583.275 92.6713 582.565 92.6713 581.648C92.6713 580.731 92.506 580.027 92.1753 579.536C91.8553 579.045 91.3273 578.8 90.5913 578.8C89.8766 578.8 89.354 579.045 89.0233 579.536C88.7033 580.027 88.5433 580.731 88.5433 581.648ZM101.363 577.168C101.502 577.168 101.651 577.173 101.811 577.184C101.982 577.195 102.126 577.216 102.243 577.248L102.067 579.12C101.961 579.099 101.833 579.083 101.683 579.072C101.534 579.051 101.401 579.04 101.283 579.04C100.857 579.04 100.457 579.131 100.083 579.312C99.7101 579.483 99.4061 579.755 99.1714 580.128C98.9474 580.491 98.8354 580.949 98.8354 581.504V586H96.8194V577.328H98.3714L98.6594 578.832H98.7554C99.0114 578.373 99.3634 577.984 99.8114 577.664C100.259 577.333 100.777 577.168 101.363 577.168ZM107.026 577.168C108.189 577.168 109.106 577.515 109.778 578.208C110.461 578.901 110.802 579.867 110.802 581.104V582.128H105.074C105.096 582.917 105.314 583.531 105.73 583.968C106.146 584.395 106.722 584.608 107.458 584.608C108.013 584.608 108.514 584.555 108.962 584.448C109.41 584.331 109.869 584.165 110.338 583.952V585.568C109.912 585.771 109.469 585.92 109.01 586.016C108.552 586.112 108.002 586.16 107.362 586.16C106.52 586.16 105.768 586 105.106 585.68C104.456 585.349 103.944 584.853 103.57 584.192C103.208 583.531 103.026 582.709 103.026 581.728C103.026 580.245 103.394 579.115 104.13 578.336C104.866 577.557 105.832 577.168 107.026 577.168ZM107.026 578.656C106.482 578.656 106.04 578.832 105.698 579.184C105.368 579.525 105.176 580.037 105.122 580.72H108.85C108.84 580.123 108.685 579.632 108.386 579.248C108.098 578.853 107.645 578.656 107.026 578.656ZM113.843 573.984C114.152 573.984 114.414 574.064 114.627 574.224C114.851 574.373 114.963 574.645 114.963 575.04C114.963 575.435 114.851 575.712 114.627 575.872C114.414 576.032 114.152 576.112 113.843 576.112C113.534 576.112 113.267 576.032 113.043 575.872C112.83 575.712 112.723 575.435 112.723 575.04C112.723 574.645 112.83 574.373 113.043 574.224C113.267 574.064 113.534 573.984 113.843 573.984ZM114.851 577.328V586H112.835V577.328H114.851ZM120.341 577.168C121.439 577.168 122.298 577.595 122.917 578.448H122.997L123.189 577.328H124.869V586.064C124.869 587.301 124.517 588.24 123.813 588.88C123.119 589.52 122.079 589.84 120.693 589.84C120.074 589.84 119.503 589.797 118.981 589.712C118.458 589.637 117.962 589.504 117.493 589.312V587.648C118.485 588.096 119.594 588.32 120.821 588.32C121.482 588.32 121.983 588.133 122.325 587.76C122.677 587.397 122.853 586.864 122.853 586.16V585.936C122.853 585.776 122.858 585.589 122.869 585.376C122.879 585.163 122.895 584.992 122.917 584.864H122.853C122.554 585.312 122.186 585.643 121.749 585.856C121.322 586.059 120.837 586.16 120.293 586.16C119.237 586.16 118.41 585.765 117.813 584.976C117.215 584.187 116.917 583.088 116.917 581.68C116.917 580.272 117.215 579.168 117.813 578.368C118.421 577.568 119.263 577.168 120.341 577.168ZM120.869 578.816C119.61 578.816 118.981 579.781 118.981 581.712C118.981 583.611 119.621 584.56 120.901 584.56C121.605 584.56 122.122 584.368 122.453 583.984C122.794 583.589 122.965 582.928 122.965 582V581.696C122.965 580.672 122.794 579.936 122.453 579.488C122.122 579.04 121.594 578.816 120.869 578.816ZM132.084 577.168C133.055 577.168 133.812 577.419 134.356 577.92C134.911 578.421 135.188 579.232 135.188 580.352V586H133.172V580.752C133.172 579.451 132.639 578.8 131.572 578.8C130.762 578.8 130.207 579.056 129.908 579.568C129.61 580.08 129.46 580.811 129.46 581.76V586H127.444V577.328H128.996L129.284 578.464H129.396C129.674 578.016 130.052 577.691 130.532 577.488C131.023 577.275 131.54 577.168 132.084 577.168ZM142.058 586V574.576H144.106V584.272H148.874V586H142.058ZM158.407 581.648C158.407 583.088 158.034 584.203 157.287 584.992C156.541 585.771 155.527 586.16 154.247 586.16C153.458 586.16 152.754 585.984 152.135 585.632C151.517 585.28 151.031 584.768 150.679 584.096C150.327 583.424 150.151 582.608 150.151 581.648C150.151 580.208 150.519 579.104 151.255 578.336C152.002 577.557 153.015 577.168 154.295 577.168C155.095 577.168 155.805 577.344 156.423 577.696C157.042 578.037 157.527 578.544 157.879 579.216C158.231 579.877 158.407 580.688 158.407 581.648ZM152.215 581.648C152.215 582.565 152.375 583.275 152.695 583.776C153.026 584.277 153.554 584.528 154.279 584.528C155.005 584.528 155.527 584.277 155.847 583.776C156.178 583.275 156.343 582.565 156.343 581.648C156.343 580.731 156.178 580.027 155.847 579.536C155.527 579.045 154.999 578.8 154.263 578.8C153.549 578.8 153.026 579.045 152.695 579.536C152.375 580.027 152.215 580.731 152.215 581.648ZM162.179 586L158.883 577.328H161.011L162.739 582.336C162.845 582.645 162.941 582.987 163.027 583.36C163.123 583.733 163.181 584.048 163.203 584.304H163.267C163.299 584.037 163.363 583.723 163.459 583.36C163.555 582.987 163.656 582.645 163.763 582.336L165.491 577.328H167.619L164.323 586H162.179ZM172.401 577.168C173.564 577.168 174.481 577.515 175.153 578.208C175.836 578.901 176.177 579.867 176.177 581.104V582.128H170.449C170.471 582.917 170.689 583.531 171.105 583.968C171.521 584.395 172.097 584.608 172.833 584.608C173.388 584.608 173.889 584.555 174.337 584.448C174.785 584.331 175.244 584.165 175.713 583.952V585.568C175.287 585.771 174.844 585.92 174.385 586.016C173.927 586.112 173.377 586.16 172.737 586.16C171.895 586.16 171.143 586 170.481 585.68C169.831 585.349 169.319 584.853 168.945 584.192C168.583 583.531 168.401 582.709 168.401 581.728C168.401 580.245 168.769 579.115 169.505 578.336C170.241 577.557 171.207 577.168 172.401 577.168ZM172.401 578.656C171.857 578.656 171.415 578.832 171.073 579.184C170.743 579.525 170.551 580.037 170.497 580.72H174.225C174.215 580.123 174.06 579.632 173.761 579.248C173.473 578.853 173.02 578.656 172.401 578.656Z" fill="black"/>
<mask id="mask1" mask-type="alpha" maskUnits="userSpaceOnUse" x="57" y="413" width="140" height="140">
<rect x="57.329" y="413.329" width="139.342" height="139.342" rx="19.4106" fill="#866AC1" stroke="black" stroke-width="0.657985"/>
</mask>
<g mask="url(#mask1)">
<path d="M63.9999 554.866C63.9999 554.866 65.7439 544.18 67.4857 541.258C69.2274 538.335 67.4207 532.132 68.1046 527.639C68.7884 523.145 70.2419 511.22 73.2578 507.941C76.2737 504.662 98.4904 486.828 98.4904 486.828L101.779 481.706L130.207 476.099C130.207 476.099 134.374 477.879 135.013 478.676C135.651 479.487 136.3 480.949 136.3 480.949C136.3 480.949 167.85 487.909 179.512 501.587C179.512 501.587 183.951 506.275 183.81 511.237C183.81 511.237 188.796 522.102 189.999 524.538C191.217 526.963 191.217 526.963 191.217 526.963C191.217 526.963 197.71 555.997 198.79 561.858" fill="#3E512E"/>
<path d="M63.9999 554.866C63.9999 554.866 65.7439 544.18 67.4857 541.258C69.2274 538.335 67.4207 532.132 68.1046 527.639C68.7884 523.145 70.2419 511.22 73.2578 507.941C76.2737 504.662 98.4904 486.828 98.4904 486.828L101.779 481.706L130.207 476.099C130.207 476.099 134.374 477.879 135.013 478.676C135.651 479.487 136.3 480.949 136.3 480.949C136.3 480.949 167.85 487.909 179.512 501.587C179.512 501.587 183.951 506.275 183.81 511.237C183.81 511.237 188.796 522.102 189.999 524.538C191.217 526.963 191.217 526.963 191.217 526.963C191.217 526.963 197.71 555.997 198.79 561.858" stroke="black" stroke-width="0.5" stroke-miterlimit="10"/>
<path d="M92.522 458.301C92.522 458.301 89.422 447.212 90.1516 443.958C90.8811 440.704 90.6799 437.228 90.8917 436.686C91.1021 436.158 90.6456 435.105 90.4814 434.95C90.3158 434.809 91.4402 434.294 91.6805 434.829C91.9208 435.364 92.0549 433.478 91.5011 433.227C90.9473 432.976 92.4908 432.767 93.1972 433.406C93.1972 433.406 93.5008 431.993 92.6921 431.591C92.6921 431.591 93.9695 431.093 95.3064 431.867C95.3064 431.867 95.561 429.939 94.752 429.785C94.752 429.785 97.1287 428.521 98.8119 428.823C100.495 429.124 101.76 428.252 101.998 427.713C102.235 427.174 105.34 425.726 109.08 427.193C112.819 428.66 121.807 432.084 123.815 435.42C125.824 438.756 126.793 443.262 127.962 446.124C129.13 448.986 92.522 458.301 92.522 458.301Z" fill="#313234"/>
<path d="M102.313 479.982C102.313 479.982 103.474 490.43 104.753 494.452C106.033 498.474 111.424 504.992 112.44 506.91C113.456 508.829 113.746 510.327 113.746 510.327C113.746 510.327 120.487 499.19 124.755 494.312C129.022 489.433 131.201 488.221 132.209 483.964C133.227 479.721 131.647 477.73 130.089 476.125C128.544 474.508 128.375 467.615 128.375 467.615L102.313 479.982Z" fill="#E4E4E4" stroke="black" stroke-width="0.211271"/>
<path d="M106.949 495.43C102.551 495.366 102.067 482.311 102.067 482.311L124.619 478.278C124.619 478.278 106.95 495.417 113.01 510.245" fill="#AFAFAF"/>
<path d="M95.7293 438.338C95.7293 438.338 92.617 441.728 92.1631 445.078C91.7091 448.427 93.3592 452.44 93.4449 453.546C93.5306 454.651 93.7335 462.564 94.5728 465.395C95.4121 468.225 98.0997 476.185 99.4117 477.527C100.724 478.869 104.63 484.979 110.937 485.095C117.244 485.211 127.256 473.666 127.256 473.666C127.256 473.666 128.71 471.625 128.473 467.989C128.237 464.353 128.237 464.353 128.237 464.353C128.237 464.353 129.213 464.924 130.139 463.818C131.064 462.711 131.976 459.45 132.097 458.66C132.231 457.872 132.832 453.963 132.679 453.144C132.525 452.325 132.433 451.874 132.253 451.307C132.072 450.74 131.088 449.044 130.396 449.373C129.705 449.701 128.724 450.855 128.724 450.855C128.724 450.855 129.022 447.181 128.452 444.914C127.882 442.647 121.2 423.78 95.7293 438.338Z" fill="#E4E4E4" stroke="black" stroke-width="0.5"/>
<path d="M128.813 453.602C128.813 453.602 130.327 450.698 130.453 451.313C130.579 451.928 132.446 452.794 130.855 457.149C129.251 461.516 128.617 462.105 128.617 462.105C128.617 462.105 130.014 457.649 129.873 456.698C129.718 455.758 128.813 453.602 128.813 453.602Z" fill="#AFAFAF"/>
<path d="M109.695 532.026C109.695 532.026 114.47 523.042 113.332 519.138C112.194 515.234 117.009 514.846 120.283 513.414C123.558 511.981 137.862 510.1 137.862 510.1L120.094 508.753L111.977 510.365L110.054 511.518L109.695 532.026Z" fill="#2D3A21"/>
<path d="M109.646 559.677C109.646 559.677 109.738 548.358 109.664 541.867C109.586 534.777 109.681 518.321 109.677 515.884C109.653 512.194 120.331 511.282 120.792 510.173C121.254 509.05 128.889 509.468 131.559 509.856C134.227 510.257 140.483 509.784 140.483 509.784C140.483 509.784 143.353 493.38 140.505 487.104C137.658 480.827 137.058 479.991 137.058 479.991L132.161 476.307L109.681 515.059L109.646 559.677Z" fill="#566347" stroke="black" stroke-width="0.5" stroke-miterlimit="10"/>
<path d="M90.7166 511.296C90.7166 511.296 107.469 508.703 109.55 515.415L113.091 508.946L108.957 501.524L91.0964 507.69L90.7166 511.296Z" fill="#2D3A21"/>
<path d="M102.264 481.454C102.264 481.454 97.7319 490.002 93.3422 498.95C88.9524 507.899 93.0042 510.902 93.0042 510.902C93.0042 510.902 106.145 502.94 113.224 507.686L102.264 481.454Z" fill="#566347" stroke="black" stroke-width="0.5" stroke-miterlimit="10"/>
<path d="M76.7337 514.717C76.7337 514.717 75.0638 517.359 78.6655 525.223C82.2671 533.088 83.0417 543.066 83.0417 543.066C83.0417 543.066 84.8053 550.199 86.3744 552.514L85.8841 557.168" stroke="black" stroke-width="0.211271" stroke-miterlimit="10"/>
<path d="M128.503 520.17C128.503 520.17 144.223 520.04 148.163 520.688C152.103 521.335 159.014 519.348 159.014 519.348L158.648 517.814L128.665 518.634" fill="#2D3A21"/>
<path d="M129.502 520.282C129.502 520.282 128.885 512.596 129.361 513.174C129.836 513.752 154.387 513.585 157.753 512.194L159.05 519.007C159.05 519.007 151.37 520.616 148.458 520.309C145.547 520.002 129.502 520.282 129.502 520.282Z" fill="#B5C99B" stroke="black" stroke-width="0.211271" stroke-miterlimit="10"/>
<path d="M132.659 514.737L132.716 516.834C132.732 517.312 132.993 517.472 133.312 517.466C133.658 517.45 133.864 517.246 133.846 516.794L133.789 514.697L134.851 514.663L134.906 516.655C134.946 517.784 134.233 518.145 133.316 518.181C132.36 518.213 131.682 517.863 131.639 516.76L131.584 514.769L132.659 514.737Z" fill="#333333"/>
<path d="M136.83 516.988C136.904 517.287 137.13 517.404 137.474 517.4C137.793 517.394 137.937 517.277 137.932 517.078C137.929 516.852 137.765 516.782 137.181 516.668C136.104 516.462 135.878 516.094 135.86 515.642C135.84 515.071 136.277 514.574 137.285 514.548C138.335 514.513 138.785 515.01 138.849 515.533L137.826 515.571C137.792 515.395 137.692 515.213 137.307 515.225C137.068 515.226 136.913 515.316 136.92 515.502C136.927 515.688 137.065 515.756 137.623 515.867C138.751 516.092 138.988 516.474 139.004 516.952C139.029 517.59 138.504 518.051 137.442 518.085C136.433 518.111 135.895 517.697 135.792 517.038L136.83 516.988Z" fill="#333333"/>
<path d="M142.603 517.348L142.419 517.964L141.49 517.986L142.474 514.807L143.721 514.779L144.858 517.93L143.851 517.943L143.638 517.325L142.603 517.348ZM143.458 516.644C143.298 516.151 143.159 515.713 143.086 515.401L143.073 515.399C142.998 515.735 142.884 516.187 142.756 516.65L143.458 516.644Z" fill="#333333"/>
<path d="M146.47 516.697L146.49 517.89L145.561 517.911L145.511 514.743L147.142 514.716C147.924 514.706 148.294 515.089 148.309 515.567C148.316 516.004 148.055 516.228 147.833 516.324C148.038 516.385 148.267 516.595 148.276 517.138L148.276 517.271C148.281 517.47 148.294 517.723 148.333 517.859L147.417 517.882C147.365 517.744 147.35 517.517 147.343 517.199L147.339 517.119C147.328 516.84 147.264 516.701 146.839 516.709L146.47 516.697ZM146.459 516.047L146.909 516.041C147.228 516.035 147.348 515.902 147.344 515.69C147.339 515.478 147.193 515.357 146.901 515.365L146.451 515.371L146.459 516.047Z" fill="#333333"/>
<path d="M151.931 516.741C151.917 516.25 151.931 515.616 151.932 515.233L151.905 515.23C151.78 515.918 151.576 516.85 151.359 517.78L150.59 517.791C150.393 516.897 150.148 515.958 150.01 515.255L149.971 515.251C150.011 515.626 150.039 516.238 150.048 516.781L150.061 517.789L149.199 517.804L149.149 514.635L150.541 514.61C150.712 515.25 150.919 516.172 151.002 516.644L151.015 516.645C151.095 516.137 151.291 515.284 151.469 514.602L152.807 514.584L152.857 517.752L151.929 517.774L151.931 516.741Z" fill="#333333"/>
<path d="M154.645 517.742L154.629 516.641C154.633 516.602 154.623 516.575 154.589 516.518L153.428 514.596L154.515 514.578C154.733 515.024 154.971 515.526 155.132 515.887C155.261 515.543 155.52 514.962 155.709 514.558L156.716 514.545L155.609 516.506C155.593 516.531 155.578 516.556 155.584 516.623L155.6 517.723L154.645 517.742Z" fill="#333333"/>
<path d="M112.482 429.736C109.893 429.022 103.681 428.335 104.414 429.472C105.146 430.609 126.004 434.674 112.482 429.736Z" fill="#AFAFAF"/>
</g>
<rect x="224.329" y="413.329" width="139.342" height="139.342" rx="19.4106" fill="#CF6692" stroke="black" stroke-width="0.657985"/>
<path d="M261.832 586V574.576H263.88V584.272H268.648V586H261.832ZM278.181 581.648C278.181 583.088 277.807 584.203 277.061 584.992C276.314 585.771 275.301 586.16 274.021 586.16C273.231 586.16 272.527 585.984 271.909 585.632C271.29 585.28 270.805 584.768 270.453 584.096C270.101 583.424 269.925 582.608 269.925 581.648C269.925 580.208 270.293 579.104 271.029 578.336C271.775 577.557 272.789 577.168 274.069 577.168C274.869 577.168 275.578 577.344 276.197 577.696C276.815 578.037 277.301 578.544 277.653 579.216C278.005 579.877 278.181 580.688 278.181 581.648ZM271.989 581.648C271.989 582.565 272.149 583.275 272.469 583.776C272.799 584.277 273.327 584.528 274.053 584.528C274.778 584.528 275.301 584.277 275.621 583.776C275.951 583.275 276.117 582.565 276.117 581.648C276.117 580.731 275.951 580.027 275.621 579.536C275.301 579.045 274.773 578.8 274.037 578.8C273.322 578.8 272.799 579.045 272.469 579.536C272.149 580.027 271.989 580.731 271.989 581.648ZM284.905 577.168C285.875 577.168 286.633 577.419 287.177 577.92C287.731 578.421 288.009 579.232 288.009 580.352V586H285.993V580.752C285.993 579.451 285.459 578.8 284.393 578.8C283.582 578.8 283.027 579.056 282.729 579.568C282.43 580.08 282.281 580.811 282.281 581.76V586H280.265V577.328H281.817L282.105 578.464H282.217C282.494 578.016 282.873 577.691 283.353 577.488C283.843 577.275 284.361 577.168 284.905 577.168ZM293.442 577.168C294.541 577.168 295.4 577.595 296.018 578.448H296.098L296.29 577.328H297.97V586.064C297.97 587.301 297.618 588.24 296.914 588.88C296.221 589.52 295.181 589.84 293.794 589.84C293.176 589.84 292.605 589.797 292.082 589.712C291.56 589.637 291.064 589.504 290.594 589.312V587.648C291.586 588.096 292.696 588.32 293.922 588.32C294.584 588.32 295.085 588.133 295.426 587.76C295.778 587.397 295.954 586.864 295.954 586.16V585.936C295.954 585.776 295.96 585.589 295.97 585.376C295.981 585.163 295.997 584.992 296.018 584.864H295.954C295.656 585.312 295.288 585.643 294.85 585.856C294.424 586.059 293.938 586.16 293.394 586.16C292.338 586.16 291.512 585.765 290.914 584.976C290.317 584.187 290.018 583.088 290.018 581.68C290.018 580.272 290.317 579.168 290.914 578.368C291.522 577.568 292.365 577.168 293.442 577.168ZM293.97 578.816C292.712 578.816 292.082 579.781 292.082 581.712C292.082 583.611 292.722 584.56 294.002 584.56C294.706 584.56 295.224 584.368 295.554 583.984C295.896 583.589 296.066 582.928 296.066 582V581.696C296.066 580.672 295.896 579.936 295.554 579.488C295.224 579.04 294.696 578.816 293.97 578.816ZM309.758 576.144C308.713 576.144 307.902 576.517 307.326 577.264C306.761 578.011 306.478 579.024 306.478 580.304C306.478 581.595 306.745 582.608 307.278 583.344C307.812 584.069 308.633 584.432 309.742 584.432C310.222 584.432 310.692 584.384 311.15 584.288C311.609 584.181 312.089 584.043 312.59 583.872V585.616C312.121 585.808 311.646 585.947 311.166 586.032C310.697 586.117 310.153 586.16 309.534 586.16C308.361 586.16 307.39 585.92 306.622 585.44C305.854 584.949 305.284 584.267 304.91 583.392C304.537 582.507 304.35 581.472 304.35 580.288C304.35 579.136 304.558 578.123 304.974 577.248C305.39 576.363 305.998 575.669 306.798 575.168C307.609 574.667 308.596 574.416 309.758 574.416C310.334 574.416 310.9 574.485 311.454 574.624C312.02 574.752 312.548 574.933 313.038 575.168L312.334 576.848C311.929 576.667 311.508 576.507 311.07 576.368C310.644 576.219 310.206 576.144 309.758 576.144ZM322.602 581.648C322.602 583.088 322.229 584.203 321.483 584.992C320.736 585.771 319.723 586.16 318.443 586.16C317.653 586.16 316.949 585.984 316.331 585.632C315.712 585.28 315.227 584.768 314.875 584.096C314.523 583.424 314.347 582.608 314.347 581.648C314.347 580.208 314.715 579.104 315.451 578.336C316.197 577.557 317.211 577.168 318.491 577.168C319.291 577.168 320 577.344 320.619 577.696C321.237 578.037 321.723 578.544 322.075 579.216C322.427 579.877 322.602 580.688 322.602 581.648ZM316.411 581.648C316.411 582.565 316.571 583.275 316.891 583.776C317.221 584.277 317.749 584.528 318.475 584.528C319.2 584.528 319.723 584.277 320.043 583.776C320.373 583.275 320.539 582.565 320.539 581.648C320.539 580.731 320.373 580.027 320.043 579.536C319.723 579.045 319.195 578.8 318.459 578.8C317.744 578.8 317.221 579.045 316.891 579.536C316.571 580.027 316.411 580.731 316.411 581.648ZM329.327 577.168C330.297 577.168 331.055 577.419 331.599 577.92C332.153 578.421 332.431 579.232 332.431 580.352V586H330.415V580.752C330.415 579.451 329.881 578.8 328.815 578.8C328.004 578.8 327.449 579.056 327.151 579.568C326.852 580.08 326.703 580.811 326.703 581.76V586H324.687V577.328H326.239L326.527 578.464H326.639C326.916 578.016 327.295 577.691 327.775 577.488C328.265 577.275 328.783 577.168 329.327 577.168Z" fill="black"/>
<rect x="221.329" y="203.329" width="139.342" height="139.342" rx="19.4106" fill="#F3CA7A" stroke="black" stroke-width="0.657985"/>
<path d="M245.146 364.576C246.629 364.576 247.706 364.885 248.378 365.504C249.061 366.123 249.402 366.976 249.402 368.064C249.402 368.715 249.263 369.328 248.986 369.904C248.709 370.469 248.239 370.928 247.578 371.28C246.927 371.621 246.042 371.792 244.922 371.792H243.786V376H241.738V364.576H245.146ZM245.018 366.272H243.786V370.096H244.714C245.546 370.096 246.186 369.947 246.634 369.648C247.093 369.339 247.322 368.837 247.322 368.144C247.322 367.515 247.135 367.045 246.762 366.736C246.389 366.427 245.807 366.272 245.018 366.272ZM255.996 367.168C256.135 367.168 256.284 367.173 256.444 367.184C256.615 367.195 256.759 367.216 256.876 367.248L256.7 369.12C256.594 369.099 256.466 369.083 256.316 369.072C256.167 369.051 256.034 369.04 255.916 369.04C255.49 369.04 255.09 369.131 254.716 369.312C254.343 369.483 254.039 369.755 253.804 370.128C253.58 370.491 253.468 370.949 253.468 371.504V376H251.452V367.328H253.004L253.292 368.832H253.388C253.644 368.373 253.996 367.984 254.444 367.664C254.892 367.333 255.41 367.168 255.996 367.168ZM265.915 371.648C265.915 373.088 265.542 374.203 264.795 374.992C264.048 375.771 263.035 376.16 261.755 376.16C260.966 376.16 260.262 375.984 259.643 375.632C259.024 375.28 258.539 374.768 258.187 374.096C257.835 373.424 257.659 372.608 257.659 371.648C257.659 370.208 258.027 369.104 258.763 368.336C259.51 367.557 260.523 367.168 261.803 367.168C262.603 367.168 263.312 367.344 263.931 367.696C264.55 368.037 265.035 368.544 265.387 369.216C265.739 369.877 265.915 370.688 265.915 371.648ZM259.723 371.648C259.723 372.565 259.883 373.275 260.203 373.776C260.534 374.277 261.062 374.528 261.787 374.528C262.512 374.528 263.035 374.277 263.355 373.776C263.686 373.275 263.851 372.565 263.851 371.648C263.851 370.731 263.686 370.027 263.355 369.536C263.035 369.045 262.507 368.8 261.771 368.8C261.056 368.8 260.534 369.045 260.203 369.536C259.883 370.027 259.723 370.731 259.723 371.648ZM277.935 367.168C278.916 367.168 279.652 367.419 280.143 367.92C280.644 368.421 280.895 369.232 280.895 370.352V376H278.879V370.736C278.879 369.445 278.388 368.8 277.407 368.8C276.703 368.8 276.202 369.029 275.903 369.488C275.604 369.947 275.455 370.613 275.455 371.488V376H273.439V370.736C273.439 369.445 272.943 368.8 271.951 368.8C271.215 368.8 270.708 369.056 270.431 369.568C270.154 370.08 270.015 370.811 270.015 371.76V376H267.999V367.328H269.551L269.839 368.464H269.951C270.207 368.016 270.564 367.691 271.023 367.488C271.492 367.275 271.978 367.168 272.479 367.168C273.13 367.168 273.674 367.28 274.111 367.504C274.559 367.717 274.9 368.053 275.135 368.512H275.295C275.562 368.043 275.935 367.701 276.415 367.488C276.895 367.275 277.402 367.168 277.935 367.168ZM291.165 371.648C291.165 373.088 290.792 374.203 290.045 374.992C289.298 375.771 288.285 376.16 287.005 376.16C286.216 376.16 285.512 375.984 284.893 375.632C284.274 375.28 283.789 374.768 283.437 374.096C283.085 373.424 282.909 372.608 282.909 371.648C282.909 370.208 283.277 369.104 284.013 368.336C284.76 367.557 285.773 367.168 287.053 367.168C287.853 367.168 288.562 367.344 289.181 367.696C289.8 368.037 290.285 368.544 290.637 369.216C290.989 369.877 291.165 370.688 291.165 371.648ZM284.973 371.648C284.973 372.565 285.133 373.275 285.453 373.776C285.784 374.277 286.312 374.528 287.037 374.528C287.762 374.528 288.285 374.277 288.605 373.776C288.936 373.275 289.101 372.565 289.101 371.648C289.101 370.731 288.936 370.027 288.605 369.536C288.285 369.045 287.757 368.8 287.021 368.8C286.306 368.8 285.784 369.045 285.453 369.536C285.133 370.027 284.973 370.731 284.973 371.648ZM304.237 372.88C304.237 373.893 303.869 374.693 303.133 375.28C302.397 375.867 301.379 376.16 300.077 376.16C298.819 376.16 297.752 375.947 296.877 375.52V373.6C297.357 373.813 297.885 374.011 298.461 374.192C299.037 374.363 299.624 374.448 300.221 374.448C300.904 374.448 301.405 374.315 301.725 374.048C302.045 373.781 302.205 373.429 302.205 372.992C302.205 372.512 302.003 372.133 301.597 371.856C301.192 371.579 300.6 371.275 299.821 370.944C299.352 370.741 298.904 370.501 298.477 370.224C298.051 369.947 297.699 369.595 297.421 369.168C297.144 368.731 297.005 368.187 297.005 367.536C297.005 366.555 297.347 365.792 298.029 365.248C298.723 364.693 299.645 364.416 300.797 364.416C301.405 364.416 301.971 364.48 302.493 364.608C303.027 364.736 303.56 364.917 304.093 365.152L303.437 366.8C302.957 366.597 302.499 366.437 302.061 366.32C301.635 366.203 301.192 366.144 300.733 366.144C300.179 366.144 299.757 366.272 299.469 366.528C299.181 366.773 299.037 367.093 299.037 367.488C299.037 367.808 299.117 368.075 299.277 368.288C299.437 368.501 299.683 368.699 300.013 368.88C300.355 369.061 300.792 369.269 301.325 369.504C301.933 369.771 302.456 370.048 302.893 370.336C303.331 370.624 303.661 370.971 303.885 371.376C304.12 371.781 304.237 372.283 304.237 372.88ZM309.706 376.16C308.458 376.16 307.477 375.803 306.762 375.088C306.048 374.373 305.69 373.248 305.69 371.712C305.69 370.645 305.866 369.781 306.218 369.12C306.581 368.448 307.077 367.957 307.706 367.648C308.336 367.328 309.056 367.168 309.866 367.168C310.41 367.168 310.896 367.221 311.322 367.328C311.749 367.435 312.112 367.563 312.41 367.712L311.818 369.296C311.488 369.168 311.157 369.061 310.826 368.976C310.496 368.88 310.176 368.832 309.866 368.832C308.458 368.832 307.754 369.787 307.754 371.696C307.754 372.624 307.93 373.323 308.282 373.792C308.645 374.261 309.162 374.496 309.834 374.496C310.314 374.496 310.741 374.437 311.114 374.32C311.488 374.203 311.845 374.043 312.186 373.84V375.584C311.856 375.776 311.498 375.92 311.114 376.016C310.741 376.112 310.272 376.16 309.706 376.16ZM317.674 367.168C318.794 367.168 319.642 367.413 320.218 367.904C320.805 368.395 321.098 369.152 321.098 370.176V376H319.674L319.274 374.8H319.21C318.837 375.269 318.442 375.616 318.026 375.84C317.61 376.053 317.045 376.16 316.33 376.16C315.551 376.16 314.906 375.941 314.394 375.504C313.882 375.067 313.626 374.389 313.626 373.472C313.626 372.576 313.951 371.904 314.602 371.456C315.263 371.008 316.261 370.757 317.594 370.704L319.098 370.656V370.224C319.098 369.68 318.965 369.291 318.698 369.056C318.431 368.811 318.058 368.688 317.578 368.688C317.141 368.688 316.719 368.752 316.314 368.88C315.919 369.008 315.525 369.157 315.13 369.328L314.49 367.92C314.917 367.696 315.402 367.515 315.946 367.376C316.501 367.237 317.077 367.168 317.674 367.168ZM319.098 371.904L318.042 371.936C317.157 371.968 316.543 372.123 316.202 372.4C315.861 372.667 315.69 373.029 315.69 373.488C315.69 373.904 315.807 374.203 316.042 374.384C316.287 374.555 316.607 374.64 317.002 374.64C317.589 374.64 318.085 374.475 318.49 374.144C318.895 373.803 319.098 373.301 319.098 372.64V371.904ZM333.56 367.168C334.541 367.168 335.277 367.419 335.768 367.92C336.269 368.421 336.52 369.232 336.52 370.352V376H334.504V370.736C334.504 369.445 334.013 368.8 333.032 368.8C332.328 368.8 331.827 369.029 331.528 369.488C331.229 369.947 331.08 370.613 331.08 371.488V376H329.064V370.736C329.064 369.445 328.568 368.8 327.576 368.8C326.84 368.8 326.333 369.056 326.056 369.568C325.779 370.08 325.64 370.811 325.64 371.76V376H323.624V367.328H325.176L325.464 368.464H325.576C325.832 368.016 326.189 367.691 326.648 367.488C327.117 367.275 327.603 367.168 328.104 367.168C328.755 367.168 329.299 367.28 329.736 367.504C330.184 367.717 330.525 368.053 330.76 368.512H330.92C331.187 368.043 331.56 367.701 332.04 367.488C332.52 367.275 333.027 367.168 333.56 367.168Z" fill="black"/>
<rect x="107.5" y="684.5" width="206" height="57" rx="28.5" fill="#52BDF9" stroke="black"/>
<path d="M157.956 707.576C159.513 707.576 160.66 707.859 161.396 708.424C162.142 708.989 162.516 709.848 162.516 711C162.516 711.523 162.414 711.981 162.212 712.376C162.02 712.76 161.758 713.091 161.428 713.368C161.108 713.635 160.761 713.853 160.388 714.024L163.748 719H161.06L158.34 714.616H157.044V719H154.628V707.576H157.956ZM157.78 709.56H157.044V712.648H157.828C158.628 712.648 159.198 712.515 159.54 712.248C159.892 711.981 160.068 711.587 160.068 711.064C160.068 710.52 159.881 710.136 159.508 709.912C159.145 709.677 158.569 709.56 157.78 709.56ZM168.598 710.104C169.803 710.104 170.758 710.451 171.462 711.144C172.166 711.827 172.518 712.803 172.518 714.072V715.224H166.886C166.907 715.896 167.105 716.424 167.478 716.808C167.862 717.192 168.39 717.384 169.062 717.384C169.627 717.384 170.139 717.331 170.598 717.224C171.057 717.107 171.531 716.931 172.022 716.696V718.536C171.595 718.749 171.142 718.904 170.662 719C170.193 719.107 169.622 719.16 168.95 719.16C168.075 719.16 167.302 719 166.63 718.68C165.958 718.349 165.43 717.853 165.046 717.192C164.662 716.531 164.47 715.699 164.47 714.696C164.47 713.672 164.641 712.824 164.982 712.152C165.334 711.469 165.819 710.957 166.438 710.616C167.057 710.275 167.777 710.104 168.598 710.104ZM168.614 711.8C168.155 711.8 167.771 711.949 167.462 712.248C167.163 712.547 166.987 713.011 166.934 713.64H170.278C170.267 713.107 170.129 712.669 169.862 712.328C169.595 711.976 169.179 711.8 168.614 711.8ZM179.315 710.104C180.296 710.104 181.091 710.488 181.699 711.256C182.307 712.013 182.611 713.133 182.611 714.616C182.611 716.099 182.296 717.229 181.667 718.008C181.038 718.776 180.232 719.16 179.251 719.16C178.622 719.16 178.12 719.048 177.747 718.824C177.374 718.589 177.07 718.328 176.835 718.04H176.707C176.792 718.488 176.835 718.915 176.835 719.32V722.84H174.451V710.264H176.387L176.723 711.4H176.835C177.07 711.048 177.384 710.744 177.779 710.488C178.174 710.232 178.686 710.104 179.315 710.104ZM178.547 712.008C177.928 712.008 177.491 712.2 177.235 712.584C176.99 712.968 176.856 713.555 176.835 714.344V714.6C176.835 715.443 176.958 716.093 177.203 716.552C177.459 717 177.918 717.224 178.579 717.224C179.123 717.224 179.523 717 179.779 716.552C180.046 716.093 180.179 715.437 180.179 714.584C180.179 712.867 179.635 712.008 178.547 712.008ZM192.512 714.616C192.512 716.067 192.128 717.187 191.36 717.976C190.603 718.765 189.568 719.16 188.256 719.16C187.445 719.16 186.72 718.984 186.08 718.632C185.451 718.28 184.955 717.768 184.592 717.096C184.229 716.413 184.048 715.587 184.048 714.616C184.048 713.165 184.427 712.051 185.184 711.272C185.941 710.493 186.981 710.104 188.304 710.104C189.125 710.104 189.851 710.28 190.48 710.632C191.109 710.984 191.605 711.496 191.968 712.168C192.331 712.829 192.512 713.645 192.512 714.616ZM186.48 714.616C186.48 715.48 186.619 716.136 186.896 716.584C187.184 717.021 187.648 717.24 188.288 717.24C188.917 717.24 189.371 717.021 189.648 716.584C189.936 716.136 190.08 715.48 190.08 714.616C190.08 713.752 189.936 713.107 189.648 712.68C189.371 712.243 188.912 712.024 188.272 712.024C187.643 712.024 187.184 712.243 186.896 712.68C186.619 713.107 186.48 713.752 186.48 714.616ZM199.362 710.104C199.48 710.104 199.618 710.109 199.778 710.12C199.938 710.131 200.066 710.147 200.162 710.168L199.986 712.408C199.912 712.387 199.8 712.371 199.65 712.36C199.512 712.339 199.389 712.328 199.282 712.328C198.877 712.328 198.488 712.403 198.114 712.552C197.741 712.691 197.437 712.92 197.202 713.24C196.978 713.56 196.866 713.997 196.866 714.552V719H194.482V710.264H196.29L196.642 711.736H196.754C197.01 711.288 197.362 710.904 197.81 710.584C198.258 710.264 198.776 710.104 199.362 710.104ZM205.428 717.256C205.695 717.256 205.951 717.229 206.196 717.176C206.441 717.123 206.687 717.059 206.932 716.984V718.76C206.676 718.867 206.356 718.957 205.972 719.032C205.599 719.117 205.188 719.16 204.74 719.16C204.217 719.16 203.748 719.075 203.332 718.904C202.927 718.733 202.601 718.44 202.356 718.024C202.121 717.597 202.004 717.011 202.004 716.264V712.056H200.868V711.048L202.18 710.248L202.868 708.408H204.388V710.264H206.836V712.056H204.388V716.264C204.388 716.595 204.484 716.845 204.676 717.016C204.868 717.176 205.119 717.256 205.428 717.256ZM216.426 710.088C217.599 710.088 218.495 710.344 219.114 710.856C219.743 711.357 220.058 712.131 220.058 713.176V719H218.394L217.93 717.816H217.866C217.492 718.285 217.098 718.627 216.682 718.84C216.266 719.053 215.695 719.16 214.97 719.16C214.191 719.16 213.546 718.936 213.034 718.488C212.522 718.029 212.266 717.331 212.266 716.392C212.266 715.464 212.591 714.781 213.242 714.344C213.892 713.896 214.868 713.651 216.17 713.608L217.69 713.56V713.176C217.69 712.717 217.567 712.381 217.322 712.168C217.087 711.955 216.756 711.848 216.33 711.848C215.903 711.848 215.487 711.912 215.082 712.04C214.676 712.157 214.271 712.307 213.866 712.488L213.082 710.872C213.551 710.627 214.068 710.435 214.634 710.296C215.21 710.157 215.807 710.088 216.426 710.088ZM217.69 714.952L216.762 714.984C215.994 715.005 215.46 715.144 215.162 715.4C214.863 715.656 214.714 715.992 214.714 716.408C214.714 716.771 214.82 717.032 215.034 717.192C215.247 717.341 215.524 717.416 215.866 717.416C216.378 717.416 216.81 717.267 217.162 716.968C217.514 716.659 217.69 716.227 217.69 715.672V714.952ZM233.582 715.832C233.582 716.845 233.214 717.656 232.478 718.264C231.753 718.861 230.718 719.16 229.374 719.16C228.169 719.16 227.092 718.931 226.142 718.472V716.216C226.686 716.451 227.246 716.669 227.822 716.872C228.409 717.064 228.99 717.16 229.566 717.16C230.164 717.16 230.585 717.048 230.83 716.824C231.086 716.589 231.214 716.296 231.214 715.944C231.214 715.656 231.113 715.411 230.91 715.208C230.718 715.005 230.457 714.819 230.126 714.648C229.796 714.467 229.417 714.275 228.99 714.072C228.724 713.944 228.436 713.795 228.126 713.624C227.817 713.443 227.518 713.224 227.23 712.968C226.953 712.701 226.724 712.381 226.542 712.008C226.361 711.635 226.27 711.187 226.27 710.664C226.27 709.64 226.617 708.845 227.31 708.28C228.004 707.704 228.948 707.416 230.142 707.416C230.74 707.416 231.305 707.485 231.838 707.624C232.382 707.763 232.948 707.96 233.534 708.216L232.75 710.104C232.228 709.891 231.758 709.725 231.342 709.608C230.926 709.491 230.5 709.432 230.062 709.432C229.604 709.432 229.252 709.539 229.006 709.752C228.761 709.965 228.638 710.243 228.638 710.584C228.638 710.989 228.82 711.309 229.182 711.544C229.545 711.779 230.084 712.067 230.798 712.408C231.385 712.685 231.881 712.973 232.286 713.272C232.702 713.571 233.022 713.923 233.246 714.328C233.47 714.733 233.582 715.235 233.582 715.832ZM239.019 719.16C237.717 719.16 236.709 718.803 235.995 718.088C235.291 717.363 234.939 716.227 234.939 714.68C234.939 713.613 235.12 712.744 235.483 712.072C235.845 711.4 236.347 710.904 236.987 710.584C237.637 710.264 238.384 710.104 239.227 710.104C239.824 710.104 240.341 710.163 240.779 710.28C241.227 710.397 241.616 710.536 241.947 710.696L241.243 712.536C240.869 712.387 240.517 712.264 240.187 712.168C239.867 712.072 239.547 712.024 239.227 712.024C237.989 712.024 237.371 712.904 237.371 714.664C237.371 715.539 237.531 716.184 237.851 716.6C238.181 717.016 238.64 717.224 239.227 717.224C239.728 717.224 240.171 717.16 240.555 717.032C240.939 716.893 241.312 716.707 241.675 716.472V718.504C241.312 718.739 240.928 718.904 240.523 719C240.128 719.107 239.627 719.16 239.019 719.16ZM247.27 710.088C248.443 710.088 249.339 710.344 249.958 710.856C250.587 711.357 250.902 712.131 250.902 713.176V719H249.238L248.774 717.816H248.71C248.336 718.285 247.942 718.627 247.526 718.84C247.11 719.053 246.539 719.16 245.814 719.16C245.035 719.16 244.39 718.936 243.878 718.488C243.366 718.029 243.11 717.331 243.11 716.392C243.11 715.464 243.435 714.781 244.086 714.344C244.736 713.896 245.712 713.651 247.014 713.608L248.534 713.56V713.176C248.534 712.717 248.411 712.381 248.166 712.168C247.931 711.955 247.6 711.848 247.174 711.848C246.747 711.848 246.331 711.912 245.926 712.04C245.52 712.157 245.115 712.307 244.71 712.488L243.926 710.872C244.395 710.627 244.912 710.435 245.478 710.296C246.054 710.157 246.651 710.088 247.27 710.088ZM248.534 714.952L247.606 714.984C246.838 715.005 246.304 715.144 246.006 715.4C245.707 715.656 245.558 715.992 245.558 716.408C245.558 716.771 245.664 717.032 245.878 717.192C246.091 717.341 246.368 717.416 246.71 717.416C247.222 717.416 247.654 717.267 248.006 716.968C248.358 716.659 248.534 716.227 248.534 715.672V714.952ZM263.598 710.104C264.59 710.104 265.336 710.36 265.838 710.872C266.35 711.373 266.606 712.184 266.606 713.304V719H264.222V713.896C264.222 712.637 263.784 712.008 262.91 712.008C262.28 712.008 261.832 712.232 261.566 712.68C261.299 713.128 261.166 713.773 261.166 714.616V719H258.782V713.896C258.782 712.637 258.344 712.008 257.47 712.008C256.808 712.008 256.35 712.259 256.094 712.76C255.848 713.251 255.726 713.96 255.726 714.888V719H253.342V710.264H255.166L255.486 711.384H255.614C255.88 710.936 256.243 710.611 256.702 710.408C257.171 710.205 257.656 710.104 258.158 710.104C258.798 710.104 259.342 710.211 259.79 710.424C260.238 710.627 260.579 710.947 260.814 711.384H261.022C261.288 710.936 261.656 710.611 262.126 710.408C262.606 710.205 263.096 710.104 263.598 710.104Z" fill="#141414"/>
<path d="M109.015 172H99.607V154.864H109.015V156.112H100.999V162.376H108.559V163.624H100.999V170.752H109.015V172ZM115.657 165.448L111.217 159.232H112.801L116.497 164.512L120.169 159.232H121.729L117.313 165.448L121.993 172H120.409L116.497 166.384L112.561 172H111.001L115.657 165.448ZM130.414 158.992C132.046 158.992 133.318 159.544 134.23 160.648C135.142 161.752 135.598 163.384 135.598 165.544C135.598 167.704 135.118 169.36 134.158 170.512C133.214 171.664 131.918 172.24 130.27 172.24C129.15 172.24 128.246 172 127.558 171.52C126.87 171.04 126.366 170.464 126.046 169.792H125.95C125.982 170.192 126.006 170.632 126.022 171.112C126.038 171.576 126.046 172.016 126.046 172.432V177.664H124.678V159.232H125.806L125.974 161.608H126.046C126.366 160.92 126.878 160.312 127.582 159.784C128.286 159.256 129.23 158.992 130.414 158.992ZM130.222 160.168C128.798 160.168 127.75 160.616 127.078 161.512C126.406 162.408 126.062 163.696 126.046 165.376V165.616C126.046 167.44 126.374 168.808 127.03 169.72C127.702 170.616 128.734 171.064 130.126 171.064C131.438 171.064 132.438 170.576 133.126 169.6C133.83 168.608 134.182 167.248 134.182 165.52C134.182 163.808 133.846 162.488 133.174 161.56C132.518 160.632 131.534 160.168 130.222 160.168ZM140.414 172H139.046V153.76H140.414V172ZM155.327 165.592C155.327 166.936 155.103 168.104 154.655 169.096C154.223 170.088 153.575 170.864 152.711 171.424C151.863 171.968 150.823 172.24 149.591 172.24C148.407 172.24 147.391 171.968 146.543 171.424C145.695 170.88 145.039 170.112 144.575 169.12C144.127 168.112 143.903 166.936 143.903 165.592C143.903 163.528 144.415 161.912 145.439 160.744C146.463 159.576 147.879 158.992 149.687 158.992C150.903 158.992 151.927 159.272 152.759 159.832C153.607 160.376 154.247 161.144 154.679 162.136C155.111 163.128 155.327 164.28 155.327 165.592ZM145.319 165.592C145.319 167.24 145.663 168.568 146.351 169.576C147.055 170.568 148.143 171.064 149.615 171.064C151.103 171.064 152.191 170.56 152.879 169.552C153.567 168.544 153.911 167.224 153.911 165.592C153.911 164.536 153.767 163.6 153.479 162.784C153.191 161.968 152.735 161.328 152.111 160.864C151.487 160.4 150.671 160.168 149.663 160.168C148.223 160.168 147.135 160.648 146.399 161.608C145.679 162.568 145.319 163.896 145.319 165.592ZM164.059 159.016C164.683 159.016 165.259 159.08 165.787 159.208L165.571 160.48C165.059 160.336 164.531 160.264 163.987 160.264C162.819 160.264 161.891 160.696 161.203 161.56C160.515 162.424 160.171 163.568 160.171 164.992V172H158.803V159.232H159.955L160.099 161.608H160.171C160.491 160.888 160.979 160.28 161.635 159.784C162.291 159.272 163.099 159.016 164.059 159.016ZM172.628 158.992C173.716 158.992 174.62 159.248 175.34 159.76C176.076 160.256 176.628 160.944 176.996 161.824C177.38 162.704 177.572 163.712 177.572 164.848V165.784H168.452C168.452 167.48 168.844 168.784 169.628 169.696C170.428 170.592 171.564 171.04 173.036 171.04C173.82 171.04 174.508 170.976 175.1 170.848C175.692 170.72 176.34 170.496 177.044 170.176V171.424C176.404 171.712 175.772 171.92 175.148 172.048C174.524 172.176 173.804 172.24 172.988 172.24C171.068 172.24 169.596 171.656 168.572 170.488C167.548 169.32 167.036 167.728 167.036 165.712C167.036 164.416 167.252 163.264 167.684 162.256C168.132 161.248 168.772 160.456 169.604 159.88C170.436 159.288 171.444 158.992 172.628 158.992ZM172.604 160.144C171.436 160.144 170.484 160.536 169.748 161.32C169.028 162.104 168.604 163.216 168.476 164.656H176.156C176.156 163.312 175.86 162.224 175.268 161.392C174.692 160.56 173.804 160.144 172.604 160.144ZM190.857 171.088C191.209 171.088 191.545 171.064 191.865 171.016C192.185 170.952 192.465 170.88 192.705 170.8V171.904C192.465 171.984 192.169 172.056 191.817 172.12C191.465 172.2 191.089 172.24 190.689 172.24C189.617 172.24 188.793 171.944 188.217 171.352C187.641 170.76 187.353 169.792 187.353 168.448V160.336H185.457V159.568L187.353 159.112L187.833 156.184H188.721V159.232H192.633V160.336H188.721V168.376C188.721 170.184 189.433 171.088 190.857 171.088ZM196.781 153.76V159.592C196.781 159.928 196.773 160.248 196.757 160.552C196.741 160.856 196.717 161.152 196.685 161.44H196.781C197.117 160.736 197.645 160.152 198.365 159.688C199.101 159.224 200.013 158.992 201.101 158.992C202.573 158.992 203.693 159.368 204.461 160.12C205.229 160.872 205.613 162.048 205.613 163.648V172H204.269V163.744C204.269 162.528 203.989 161.632 203.429 161.056C202.869 160.464 202.053 160.168 200.981 160.168C198.181 160.168 196.781 161.792 196.781 165.04V172H195.413V153.76H196.781ZM214.558 158.992C215.646 158.992 216.55 159.248 217.27 159.76C218.006 160.256 218.558 160.944 218.926 161.824C219.31 162.704 219.502 163.712 219.502 164.848V165.784H210.382C210.382 167.48 210.774 168.784 211.558 169.696C212.358 170.592 213.494 171.04 214.966 171.04C215.75 171.04 216.438 170.976 217.03 170.848C217.622 170.72 218.27 170.496 218.974 170.176V171.424C218.334 171.712 217.702 171.92 217.078 172.048C216.454 172.176 215.734 172.24 214.918 172.24C212.998 172.24 211.526 171.656 210.502 170.488C209.478 169.32 208.966 167.728 208.966 165.712C208.966 164.416 209.182 163.264 209.614 162.256C210.062 161.248 210.702 160.456 211.534 159.88C212.366 159.288 213.374 158.992 214.558 158.992ZM214.534 160.144C213.366 160.144 212.414 160.536 211.678 161.32C210.958 162.104 210.534 163.216 210.406 164.656H218.086C218.086 163.312 217.79 162.224 217.198 161.392C216.622 160.56 215.734 160.144 214.534 160.144ZM230.992 168.616C230.992 169.768 230.56 170.664 229.696 171.304C228.832 171.928 227.616 172.24 226.048 172.24C225.152 172.24 224.36 172.16 223.672 172C222.984 171.856 222.408 171.664 221.944 171.424V170.104C222.504 170.392 223.144 170.632 223.864 170.824C224.584 171 225.32 171.088 226.072 171.088C227.32 171.088 228.224 170.88 228.784 170.464C229.36 170.032 229.648 169.448 229.648 168.712C229.648 168.008 229.352 167.472 228.76 167.104C228.168 166.72 227.296 166.328 226.144 165.928C225.344 165.656 224.64 165.384 224.032 165.112C223.44 164.824 222.976 164.464 222.64 164.032C222.304 163.6 222.136 163.008 222.136 162.256C222.136 161.232 222.552 160.432 223.384 159.856C224.216 159.28 225.328 158.992 226.72 158.992C227.488 158.992 228.2 159.064 228.856 159.208C229.528 159.352 230.144 159.544 230.704 159.784L230.2 160.912C229.704 160.704 229.144 160.528 228.52 160.384C227.896 160.224 227.272 160.144 226.648 160.144C225.64 160.144 224.856 160.32 224.296 160.672C223.736 161.024 223.456 161.536 223.456 162.208C223.456 162.72 223.592 163.128 223.864 163.432C224.136 163.72 224.528 163.968 225.04 164.176C225.552 164.384 226.176 164.616 226.912 164.872C227.68 165.144 228.368 165.424 228.976 165.712C229.584 166 230.072 166.368 230.44 166.816C230.808 167.264 230.992 167.864 230.992 168.616ZM239.05 158.992C240.138 158.992 241.042 159.248 241.762 159.76C242.498 160.256 243.05 160.944 243.418 161.824C243.802 162.704 243.994 163.712 243.994 164.848V165.784H234.874C234.874 167.48 235.266 168.784 236.05 169.696C236.85 170.592 237.986 171.04 239.458 171.04C240.242 171.04 240.93 170.976 241.522 170.848C242.114 170.72 242.762 170.496 243.466 170.176V171.424C242.826 171.712 242.194 171.92 241.57 172.048C240.946 172.176 240.226 172.24 239.41 172.24C237.49 172.24 236.018 171.656 234.994 170.488C233.97 169.32 233.458 167.728 233.458 165.712C233.458 164.416 233.674 163.264 234.106 162.256C234.554 161.248 235.194 160.456 236.026 159.88C236.858 159.288 237.866 158.992 239.05 158.992ZM239.026 160.144C237.858 160.144 236.906 160.536 236.17 161.32C235.45 162.104 235.026 163.216 234.898 164.656H242.578C242.578 163.312 242.282 162.224 241.69 161.392C241.114 160.56 240.226 160.144 239.026 160.144ZM261.718 168.616C261.718 169.768 261.286 170.664 260.422 171.304C259.558 171.928 258.342 172.24 256.774 172.24C255.878 172.24 255.086 172.16 254.398 172C253.71 171.856 253.134 171.664 252.67 171.424V170.104C253.23 170.392 253.87 170.632 254.59 170.824C255.31 171 256.046 171.088 256.798 171.088C258.046 171.088 258.95 170.88 259.51 170.464C260.086 170.032 260.374 169.448 260.374 168.712C260.374 168.008 260.078 167.472 259.486 167.104C258.894 166.72 258.022 166.328 256.87 165.928C256.07 165.656 255.366 165.384 254.758 165.112C254.166 164.824 253.702 164.464 253.366 164.032C253.03 163.6 252.862 163.008 252.862 162.256C252.862 161.232 253.278 160.432 254.11 159.856C254.942 159.28 256.054 158.992 257.446 158.992C258.214 158.992 258.926 159.064 259.582 159.208C260.254 159.352 260.87 159.544 261.43 159.784L260.926 160.912C260.43 160.704 259.87 160.528 259.246 160.384C258.622 160.224 257.998 160.144 257.374 160.144C256.366 160.144 255.582 160.32 255.022 160.672C254.462 161.024 254.182 161.536 254.182 162.208C254.182 162.72 254.318 163.128 254.59 163.432C254.862 163.72 255.254 163.968 255.766 164.176C256.278 164.384 256.902 164.616 257.638 164.872C258.406 165.144 259.094 165.424 259.702 165.712C260.31 166 260.798 166.368 261.166 166.816C261.534 167.264 261.718 167.864 261.718 168.616ZM270.04 172.24C268.168 172.24 266.72 171.664 265.696 170.512C264.688 169.36 264.184 167.752 264.184 165.688C264.184 164.248 264.44 163.032 264.952 162.04C265.464 161.048 266.176 160.296 267.088 159.784C268.016 159.256 269.096 158.992 270.328 158.992C270.936 158.992 271.512 159.048 272.056 159.16C272.6 159.272 273.08 159.424 273.496 159.616L273.112 160.792C272.68 160.616 272.216 160.48 271.72 160.384C271.224 160.272 270.752 160.216 270.304 160.216C268.784 160.216 267.616 160.704 266.8 161.68C266 162.656 265.6 163.984 265.6 165.664C265.6 167.264 265.96 168.56 266.68 169.552C267.4 170.544 268.52 171.04 270.04 171.04C270.664 171.04 271.256 170.976 271.816 170.848C272.376 170.704 272.88 170.536 273.328 170.344V171.568C272.912 171.776 272.432 171.936 271.888 172.048C271.36 172.176 270.744 172.24 270.04 172.24ZM280.854 159.016C282.294 159.016 283.366 159.368 284.07 160.072C284.774 160.776 285.126 161.888 285.126 163.408V172H284.094L283.854 169.84H283.782C283.318 170.56 282.75 171.144 282.078 171.592C281.422 172.024 280.502 172.24 279.318 172.24C278.086 172.24 277.118 171.936 276.414 171.328C275.71 170.704 275.358 169.816 275.358 168.664C275.358 167.384 275.878 166.416 276.918 165.76C277.958 165.088 279.47 164.712 281.454 164.632L283.782 164.512V163.624C283.782 162.376 283.526 161.488 283.014 160.96C282.518 160.432 281.782 160.168 280.806 160.168C280.15 160.168 279.518 160.256 278.91 160.432C278.302 160.608 277.694 160.84 277.086 161.128L276.654 160.024C277.262 159.736 277.918 159.496 278.622 159.304C279.342 159.112 280.086 159.016 280.854 159.016ZM283.782 165.544L281.622 165.64C279.99 165.72 278.774 166.008 277.974 166.504C277.174 166.984 276.774 167.704 276.774 168.664C276.774 169.464 277.022 170.072 277.518 170.488C278.014 170.888 278.694 171.088 279.558 171.088C280.886 171.088 281.918 170.712 282.654 169.96C283.39 169.192 283.766 168.136 283.782 166.792V165.544ZM302.554 158.992C303.818 158.992 304.802 159.352 305.506 160.072C306.226 160.792 306.586 161.928 306.586 163.48V172H305.242V163.528C305.242 162.392 304.978 161.552 304.45 161.008C303.938 160.448 303.242 160.168 302.362 160.168C301.146 160.168 300.21 160.528 299.554 161.248C298.898 161.952 298.57 163.048 298.57 164.536V172H297.226V163.528C297.226 162.392 296.962 161.552 296.434 161.008C295.922 160.448 295.226 160.168 294.346 160.168C293.13 160.168 292.194 160.544 291.538 161.296C290.898 162.048 290.578 163.2 290.578 164.752V172H289.21V159.232H290.314L290.506 161.248H290.602C290.922 160.624 291.402 160.096 292.042 159.664C292.698 159.216 293.53 158.992 294.538 158.992C295.466 158.992 296.25 159.192 296.89 159.592C297.53 159.992 297.986 160.584 298.258 161.368H298.33C298.698 160.616 299.242 160.032 299.962 159.616C300.698 159.2 301.562 158.992 302.554 158.992ZM318.695 168.616C318.695 169.768 318.263 170.664 317.399 171.304C316.535 171.928 315.319 172.24 313.751 172.24C312.855 172.24 312.063 172.16 311.375 172C310.687 171.856 310.111 171.664 309.647 171.424V170.104C310.207 170.392 310.847 170.632 311.567 170.824C312.287 171 313.023 171.088 313.775 171.088C315.023 171.088 315.927 170.88 316.487 170.464C317.063 170.032 317.351 169.448 317.351 168.712C317.351 168.008 317.055 167.472 316.463 167.104C315.871 166.72 314.999 166.328 313.847 165.928C313.047 165.656 312.343 165.384 311.735 165.112C311.143 164.824 310.679 164.464 310.343 164.032C310.007 163.6 309.839 163.008 309.839 162.256C309.839 161.232 310.255 160.432 311.087 159.856C311.919 159.28 313.031 158.992 314.423 158.992C315.191 158.992 315.903 159.064 316.559 159.208C317.231 159.352 317.847 159.544 318.407 159.784L317.903 160.912C317.407 160.704 316.847 160.528 316.223 160.384C315.599 160.224 314.975 160.144 314.351 160.144C313.343 160.144 312.559 160.32 311.999 160.672C311.439 161.024 311.159 161.536 311.159 162.208C311.159 162.72 311.295 163.128 311.567 163.432C311.839 163.72 312.231 163.968 312.743 164.176C313.255 164.384 313.879 164.616 314.615 164.872C315.383 165.144 316.071 165.424 316.679 165.712C317.287 166 317.775 166.368 318.143 166.816C318.511 167.264 318.695 167.864 318.695 168.616Z" fill="black"/>
<rect x="140" y="692" width="140" height="5" rx="2.5" fill="#E8F7FF"/>
</g>
<defs>
<clipPath id="clip0">
<rect width="410" height="823.756" fill="white"/>
</clipPath>
</defs>
</svg>
