<svg width="46" height="46" viewBox="0 0 46 46" fill="none" xmlns="http://www.w3.org/2000/svg">
<path d="M38.8665 41.3509C34.2726 45.3098 27.783 46.0474 22.2655 43.5639C19.0086 42.0886 15.4842 39.5559 13.2238 35.2528C10.38 29.8924 7.87646 26.868 6.15074 25.2205C3.76877 22.9337 1.99444 20.0568 1.16804 16.8356C0.51178 14.2538 1.89721 9.50807 3.25834 7.61471C6.44241 3.16409 10.5015 0.606827 14.8522 1.04943C19.203 1.49203 26.0816 4.00012 29.9462 6.90163C41.1998 15.3849 44.0436 22.0485 43.995 26.745C43.995 30.1875 44.3596 36.6052 38.8665 41.3509Z" fill="#D3A06C" stroke="black" stroke-width="2" stroke-miterlimit="10"/>
<path d="M23.9666 22.1107C24.3368 21.7362 24.1598 20.95 23.5713 20.3546C22.9828 19.7593 22.2056 19.5802 21.8354 19.9547C21.4653 20.3292 21.6422 21.1154 22.2307 21.7108C22.8192 22.3062 23.5964 22.4852 23.9666 22.1107Z" fill="#A26D37" stroke="black" stroke-width="0.5" stroke-miterlimit="10"/>
<path d="M35.0688 14.994C35.2966 14.7635 35.1888 14.2809 34.8282 13.916C34.4675 13.5511 33.9904 13.4421 33.7626 13.6726C33.5348 13.903 33.6425 14.3857 34.0032 14.7505C34.3639 15.1154 34.841 15.2244 35.0688 14.994Z" fill="#A26D37" stroke="black" stroke-width="0.5" stroke-miterlimit="10"/>
<path d="M36.9737 33.7538C37.4327 33.4465 37.4143 32.6006 36.9328 31.8645C36.4512 31.1285 35.6888 30.7808 35.2298 31.0881C34.7709 31.3954 34.7892 32.2413 35.2707 32.9773C35.7523 33.7134 36.5147 34.061 36.9737 33.7538Z" fill="#A26D37" stroke="black" stroke-width="0.5" stroke-miterlimit="10"/>
<path d="M14.756 5.74889C14.9016 5.44299 14.6274 5.00395 14.1437 4.76825C13.6599 4.53255 13.1496 4.58946 13.004 4.89535C12.8584 5.20124 13.1325 5.64029 13.6163 5.87599C14.1001 6.11168 14.6104 6.05478 14.756 5.74889Z" fill="#A26D37" stroke="black" stroke-width="0.5" stroke-miterlimit="10"/>
<path d="M4.55653 6.67188C4.55653 6.67188 0.706376 10.7636 1.36263 16.0502C1.82445 19.6156 5.0828 23.3629 6.3224 24.494C7.48908 25.576 12.3732 32.7462 13.6857 35.5739C15.3385 39.0902 21.5122 43.6146 24.9879 44.0818C25.3282 44.1309 25.6928 44.2047 26.0331 44.2785C26.9567 44.4998 28.9255 44.8686 31.5505 44.5244C36.2173 43.9096 40.6409 40.5409 42.4396 35.5002C42.5854 35.0822 32.304 44.008 24.04 38.3033C17.5503 33.8281 2.32039 23.0974 4.55653 6.67188Z" fill="#A26D37"/>
<path d="M39.2149 23.4472C39.5376 23.1207 39.3914 22.4434 38.8883 21.9345C38.3852 21.4256 37.7158 21.2777 37.3931 21.6042C37.0703 21.9306 37.2165 22.6079 37.7196 23.1168C38.2227 23.6258 38.8921 23.7737 39.2149 23.4472Z" fill="#A26D37" stroke="black" stroke-width="0.5" stroke-miterlimit="10"/>
<path d="M11.3734 16.3287C11.7625 15.935 11.5779 15.1098 10.9609 14.4857C10.3439 13.8615 9.52827 13.6747 9.1391 14.0684C8.74993 14.4621 8.93461 15.2872 9.55158 15.9114C10.1686 16.5356 10.9842 16.7224 11.3734 16.3287Z" fill="#A26D37" stroke="black" stroke-width="0.5" stroke-miterlimit="10"/>
<path d="M23.988 36.3052C24.3772 35.9115 24.1925 35.0864 23.5755 34.4622C22.9585 33.8381 22.1429 33.6512 21.7537 34.0449C21.3646 34.4387 21.5492 35.2638 22.1662 35.888C22.7832 36.5121 23.5988 36.699 23.988 36.3052Z" fill="#84572F" stroke="black" stroke-width="0.5" stroke-miterlimit="10"/>
</svg>
