<svg width="36" height="36" viewBox="0 0 36 36" fill="none" xmlns="http://www.w3.org/2000/svg">
<circle cx="18" cy="18" r="17.5" fill="#52BDF9" stroke="black"/>
<path d="M22.2232 9.30611C20.9168 8.40002 19.3606 7.94424 17.7822 8.00545C16.5764 7.96389 15.3848 8.2821 14.3536 8.92112C12.8784 9.87701 12.0939 11.4996 12 13.7889H15.4183C15.4248 13.1033 15.6242 12.434 15.9926 11.8606C16.2055 11.544 16.4974 11.2911 16.8381 11.1282C17.1789 10.9652 17.5561 10.8981 17.9308 10.9338C18.2861 10.8904 18.6463 10.9363 18.9803 11.0673C19.3143 11.1984 19.6118 11.4108 19.847 11.6859C20.1915 12.1709 20.3755 12.7554 20.3722 13.3545C20.3362 13.8906 20.1346 14.4013 19.7966 14.8133C19.6086 15.0858 19.3779 15.3248 19.1137 15.5207C18.1473 16.1478 17.2522 16.8825 16.4449 17.7113C15.9732 18.2756 15.928 19.1227 15.8886 20.3357C15.8886 20.4221 15.9183 20.5994 16.2116 20.5994H18.874C18.9142 20.6039 18.9548 20.5998 18.9933 20.5875C19.0318 20.5751 19.0674 20.5547 19.0977 20.5275C19.1281 20.5004 19.1526 20.4671 19.1697 20.4297C19.1868 20.3924 19.1961 20.3519 19.197 20.3107C19.2003 19.9973 19.2495 19.6862 19.3431 19.3877C19.5521 18.8745 19.9038 18.435 20.3548 18.1233L21.2954 17.4641C21.9671 16.9856 22.5802 16.4267 23.1218 15.7995C23.683 15.0393 23.9882 14.1144 23.9921 13.1626C24.036 12.4202 23.8972 11.6784 23.5882 11.0048C23.2792 10.3312 22.81 9.74726 22.2232 9.30611V9.30611ZM17.7279 22.6918C17.4512 22.6838 17.1757 22.7314 16.9171 22.832C16.6585 22.9326 16.4218 23.0842 16.2206 23.2781C16.0194 23.472 15.8576 23.7045 15.7444 23.9623C15.6312 24.22 15.5689 24.498 15.561 24.7803C15.5532 25.0626 15.5998 25.3437 15.6984 25.6076C15.797 25.8715 15.9456 26.113 16.1356 26.3183C16.3257 26.5236 16.5535 26.6888 16.8061 26.8042C17.0587 26.9197 17.3311 26.9833 17.6077 26.9913C17.8893 27.0177 18.1732 26.9837 18.4412 26.8915C18.7091 26.7993 18.9552 26.651 19.1637 26.456C19.3721 26.261 19.5383 26.0237 19.6515 25.7593C19.7647 25.4949 19.8225 25.2092 19.8211 24.9207C19.8394 24.6312 19.7985 24.3411 19.701 24.0686C19.6035 23.7962 19.4516 23.5474 19.2549 23.338C19.0582 23.1286 18.821 22.9632 18.5584 22.8523C18.2957 22.7414 18.0134 22.6874 17.7292 22.6938L17.7279 22.6918Z" fill="white"/>
</svg>
