<svg xmlns="http://www.w3.org/2000/svg" width="1000px" height="1000px" viewBox="0 0 2000 2000"><defs><style>.cls-1{fill:none;stroke:#fff;stroke-width:3px;}.cls-2{fill:#f9a346;}.cls-3{fill:#fff;}.cls-4{fill:#e5c57c;}.cls-5{fill:#ce2828;}.cls-6{fill:#1a5d99;}.cls-7{fill:#ba944f;}.cls-8{fill:#fccc60;}.cls-9{fill:#231f20;}.cls-10{fill:#edb35f;}</style></defs><title>Asset 1</title><g id="Layer_2" data-name="Layer 2">


<g id="body" data-name="Layer 1"><line class="cls-1" x1="568.9" x2="568.9" y2="636.4"/><line class="cls-1" x1="34.4" x2="34.4" y2="759.8"/><path class="cls-2" d="M68.6,756.3v5.5A17.41,17.41,0,0,0,86,779.2h79.5a17.41,17.41,0,0,0,17.4-17.4v-5.5a17.41,17.41,0,0,0-17.4-17.4H86A17.41,17.41,0,0,0,68.6,756.3Z"/><path class="cls-3" d="M394.9,757.1l9.4,16.3a27.43,27.43,0,0,0,37.5,10l39.3-22.7a27.43,27.43,0,0,0,10-37.5l-9.4-16.3a27.43,27.43,0,0,0-37.5-10l-39.3,22.7A27.43,27.43,0,0,0,394.9,757.1Z"/><path class="cls-2" d="M467.3,727.7l2.7,4.8a17.47,17.47,0,0,0,23.8,6.4l68.8-39.7a17.47,17.47,0,0,0,6.4-23.8l-2.7-4.8a17.47,17.47,0,0,0-23.8-6.4l-68.8,39.7A17.39,17.39,0,0,0,467.3,727.7Z"/><path class="cls-3" d="M535.8,680.4l9.8,17a27.43,27.43,0,0,0,37.5,10l27.4-15.8a27.43,27.43,0,0,0,10-37.5l-9.8-17a27.43,27.43,0,0,0-37.5-10l-27.4,15.8A27.48,27.48,0,0,0,535.8,680.4Z"/><path class="cls-3" d="M3.7,774.2l9.8,17a27.43,27.43,0,0,0,37.5,10l27.4-15.8a27.43,27.43,0,0,0,10-37.5l-9.8-17a27.43,27.43,0,0,0-37.5-10L13.7,736.7A27.48,27.48,0,0,0,3.7,774.2Z"/><path class="cls-3" d="M62,522l-3,19.4a27.58,27.58,0,0,0,23,31.3l31.2,4.8a27.58,27.58,0,0,0,31.3-23l3-19.4a27.58,27.58,0,0,0-23-31.3L93.3,499A27.66,27.66,0,0,0,62,522Z"/><path class="cls-4" d="M143.4,823.3l56.8-85.6a27,27,0,0,1,22.6-12.1l148.1.2a27,27,0,0,1,23.6,13.9c14.6,25.9,42.1,83.3,30.9,130C411.1,929.4,231,971.1,144.2,854.6A27.22,27.22,0,0,1,143.4,823.3Z"/><path class="cls-3" d="M123.5,745.3v30A29.83,29.83,0,0,0,153.2,805h53.1A29.83,29.83,0,0,0,236,775.3v-30a29.83,29.83,0,0,0-29.7-29.7H153.2A29.77,29.77,0,0,0,123.5,745.3Z"/><path class="cls-3" d="M387.8,759.2l9.4-91.6"/><path class="cls-5" d="M344.8,764.1s58.6,53.4,70.9,13.3-29.5-51.6-29.5-51.6l-55,14.8"/><path class="cls-2" d="M153.4,477s208.2-67.6,251.8,57.7,30.6,165.9,30.6,165.9,7.8,26.5-63,35.5-124.2,31.5-164.7-10.5-83.5-162.2-83.5-162.2S99.4,482.5,153.4,477Z"/><path class="cls-5" d="M302.1,745.6s-118.9-49.5-118.9,8.1S230,853,302.1,778.1"/><circle class="cls-5" cx="320.3" cy="761.1" r="28"/><path class="cls-6" d="M151.2,818.5c36.7,22.3,125.3,93.8,252.4,58a14.67,14.67,0,0,1,18.4,17c-9.5,46-43.5,142.8-163.1,142.8-121.2,0-130-118.3-127.7-172C131.6,853.1,141.7,812.7,151.2,818.5Z"/><path class="cls-7" d="M305.2,408.9S82.8,562.1,86.1,612.3s54.7-7.7,54.7-7.7S305.9,459.1,335.5,419.3c2.9-3.9,2.6-14.3-.2-16.8C330.9,398.6,321.9,395.9,305.2,408.9Z"/><path class="cls-8" d="M130.3,653.3s11.9,35.5,20.1,14.4c6.6-16.9,20.2-91,30.7-100,25.2-21.6,47-29.3,79.5-22.6C315,556.2,387.8,564,416.7,534.8c0,0,40.6-56.4,93.4-127.6,0,0-128.3,77-244.2,47.2-63.7-16.4-142.7-27.8-163.3,17.8S130.3,653.3,130.3,653.3Z"/><path class="cls-3" d="M303.9,610.2s15.1-25.9,40.2-7.7A40.25,40.25,0,0,1,303.9,610.2Z"/><path class="cls-3" d="M378.3,597.1s10-22.1,31.7-9.6C409.9,587.5,398.2,601.8,378.3,597.1Z"/><path class="cls-8" d="M283.6,598.8c9.8-9.3,31.2-25.3,51.1-10.5a1.93,1.93,0,0,0,3.1-1.5v-3.7a6.1,6.1,0,0,0-4.6-5.9c-9.3-2.4-31.4-4.4-50.5,20.7C282.2,598.6,283,599.4,283.6,598.8Z"/><path class="cls-8" d="M371.3,579.7c9.8-9.3,31.2-25.3,51.1-10.5a1.93,1.93,0,0,0,3.1-1.5V564a6.1,6.1,0,0,0-4.6-5.9c-9.3-2.4-31.4-4.4-50.5,20.7C369.9,579.5,370.7,580.3,371.3,579.7Z"/><circle class="cls-9" cx="324.7" cy="603.3" r="7.3"/><circle class="cls-9" cx="395.1" cy="590.5" r="5.2"/><ellipse class="cls-5" cx="365.9" cy="674.1" rx="13.9" ry="11.3"/><ellipse class="cls-5" cx="382.4" cy="672.9" rx="13.9" ry="11.3"/><ellipse class="cls-5" cx="368.41" cy="689.26" rx="13.9" ry="10.5" transform="translate(-295.28 276.56) rotate(-30)"/><ellipse class="cls-5" cx="386.3" cy="684.2" rx="13.9" ry="10.5"/><ellipse class="cls-9" cx="377.4" cy="678.9" rx="11.5" ry="7.2"/><path class="cls-10" d="M303.3,409.7S-106.9,228.1,86.1,612.3"/><path class="cls-6" d="M226.2,382.5C75.8,376.9,54.5,540.7,54.5,540.7l3.6,9.1a4.53,4.53,0,0,0,1.2,2.9l5.9,14.8s1.1-6.1,3.5-16a6.18,6.18,0,0,0,.9-2.8c0-.5.1-.9.1-1.4C77,519.7,94,469.5,127,433.6c52-56.4,115.5-46.3,115.5-46.3Z"/></g></g>

<g data-name="Layer 2" ><g id="Layer_1-3" data-name="Layer 1">
  <path x="100" y="100" id="nose" style="fill:#FFBE83;fill-opacity:1; stroke:0" class="cls-1" d="M4.78,26.38s186.8,0,177.5-18.4-178.7.8-178.7.8S-5.22,16.28,4.78,26.38Z"/></g>
  <animateTransform
    attributeName="transform"
    attributeType="XML"
    dur="5s"
    repeatCount="indefinite"
    from="1 1"
    to="5 1"
    type="scale"
    calcMode="linear">
  </animateTransform>
</g>

</svg>
