<svg xmlns="http://www.w3.org/2000/svg" viewBox="0 0 798.35 811.45"><defs><style>.cls-1{fill:#f9a346;}.cls-2{fill:#fccc60;}.cls-3{fill:#fff;}</style></defs><title>Asset 1</title><g id="Layer_2" data-name="Layer 2"><g id="Layer_1-2" data-name="Layer 1"><path class="cls-1" d="M632.5,318.71c1.43,8.68,2.27,16.94,4.21,24.93A112.49,112.49,0,0,0,666.79,397c4.75,4.79,4.84,6.43.73,11.95-13.09,17.56-31.22,26-52.43,28.54-4.38.52-5.66,1.94-5.91,6.35-1.31,22.69-4.16,45.15-12.69,66.47a107.43,107.43,0,0,1-7,14.32c-6,10.33-14.07,18.56-26.23,22.62a46.44,46.44,0,0,0,.56,4.79c5.17,23.43-18.67,83.84-37.11,79.43a6.43,6.43,0,0,0-1.43.06c-3.21,8.87-6,18.14-9.85,26.9-8.79,19.77-16.91,40-27.61,58.71-12.86,22.5-31.75,40.22-52.58,55.57C398.08,800,356.61,814,310.28,811.07c-47.36-3-87.46-22.78-122.1-54.6C166,736.11,150.46,710.94,135.4,685.3a251.82,251.82,0,0,1-29.21-73c-.86-3.89-2.4-5.57-6.77-6.07-17.44-2-33.74-50.75-29.14-64.85.5-1.54.87-3.13,1.41-5.06-15.26-2.66-21.45-14.09-26.26-26.44-7.94-20.42-10.71-41.94-12-63.61-1-16.28-.88-32.63-1.53-48.94a8.58,8.58,0,0,0-3.05-5.43c-6.89-5.75-14.23-11-21-16.85a31.94,31.94,0,0,1-7.12-9.51c-.94-1.83-1-5.5.24-6.84C15.34,342.86,20.69,323,25.48,303.07c6.25-26.08,11.46-52.41,18-78.42C54.2,181.59,71,141.15,98.06,105.52q67.65-89,178.59-102.67Q380.14-10,474.08,35.1C495.86,45.57,515,60.05,534.24,74.41c50.63,37.79,101.84,74.76,156.42,106.74,26.06,15.26,52.65,29.48,81.52,38.83a184.23,184.23,0,0,0,18.88,4.76c7.07,1.49,8,2.23,6.94,9.62a93.07,93.07,0,0,1-12,35.26C769.6,297.26,744.4,312,713.75,318.55c-25.63,5.49-51.35,4.33-77.08.66C635.72,319.08,634.76,319,632.5,318.71ZM536,520.24l1.38,0c.42.85.89,1.67,1.25,2.55,5.13,12.76,15.66,15.93,26.46,7.17a51.26,51.26,0,0,0,12.16-14.35c12.94-23,18.14-48.1,18.91-74.29.09-2.88-.95-4.12-3.81-4.64a42.59,42.59,0,0,1-21.54-10.92c-8.88-8.25-14.75-18.46-18.88-29.67-13.62-36.94-15.45-75.36-14.52-112.93-5.32,2-11.21,5.6-17.46,6.38-16.83,2.09-33.78,3.31-50.72,4.28a620.57,620.57,0,0,1-99.79-2.65c-33.47-3.49-65.64-12.44-97.88-21.62-31.82-9.06-63-19.34-92.64-34.17a14.73,14.73,0,0,0-2.61-.71c-.65,2-1.24,3.69-1.75,5.42-6.4,21.89-12.62,43.84-19.23,65.67-6.92,22.81-14.6,45.35-26.59,66.15-17.85,31-42.38,40.74-76.42,30.36-1.52-.46-3.08-.79-4.79-1.22a18.31,18.31,0,0,0-.82,3.25c-1.41,28.6-.38,57,8.06,84.63,2.94,9.62,7.08,18.73,14.51,25.88,9.36,9,19.63,9.86,30.31,2.6,2.38-1.62,4.76-3.26,7.42-5.09a14.22,14.22,0,0,1,.86,2.55c.15,1.83.1,3.67.29,5.49,1.93,18.52,2.45,37.33,6.1,55.51,9.84,48.88,31.49,92.83,59.29,133.91,11.6,17.13,23.38,34.2,39.94,47.07,45.58,35.44,97.67,43.85,152.32,31.29,45.25-10.4,78.34-40.19,102.8-79,16.31-25.88,27.65-54.3,38.27-82.9,10.54-28.42,21.07-56.87,25.81-87C533.68,532.89,534.89,526.57,536,520.24ZM736.28,238.68l-.69-1.31c-2.72.59-5.5,1-8.15,1.82-9.55,2.95-19,6.23-28.59,9-6.54,1.89-13.22,3.33-19.91,4.58-1.65.31-3.6-.94-5.41-1.48,1.17-1.64,2-3.91,3.56-4.8,5.35-3,11-5.51,16.49-8.33,6.66-3.43,13.38-6.77,19.8-10.61,4.22-2.51,4-5.06-.47-7.16-3.74-1.79-7.81-2.91-11.53-4.74a671.9,671.9,0,0,1-125.6-80.38c-40.9-33.1-83.66-63.39-131.95-85C407.41,33.9,369.47,24.1,329.35,23.41c-37.79-.65-74.09,6.94-109.83,18.5-25.5,8.24-47.17,22.46-66.15,40.88A343.89,343.89,0,0,0,65,224.17c-3.15,9.59-5.62,19.39-8.7,30.12,19.54,4.18,38.16,8.58,57,12,9.93,1.83,20.16,2.13,30.27,2.86,3.54.26,6.17-.87,6.85-5.32,1.66-10.86,3.69-21.66,5.94-32.41.81-3.88-.55-6-3.29-8.47-8.31-7.45-16.83-14.77-24.28-23s-13.73-17.5-20.36-26.43c-1-1.38-1.16-3.42-1.7-5.15l1.56-1.29c3.61,2.66,7.38,5.14,10.83,8a375.71,375.71,0,0,0,56.5,38.49c38.49,21.74,80.89,32.8,123.12,43.32,63.52,15.82,128.48,20.52,193.91,18.46,17.82-.56,35-3.4,51.58-10.36,16-6.72,32.16-12.87,48.31-19.12,2.57-1,5.46-1.18,8.2-1.75.24.6.49,1.2.74,1.8-13.7,13.58-31.1,22.14-47.9,33.71,11.87,4.32,22.66,8.65,33.71,12.19,38.22,12.24,77.15,18.33,117.2,11.44,22.24-3.83,42.75-11.83,58.7-28.64,4.25-4.48,7.63-9.8,11.41-14.73-.39-.5-.78-1-1.16-1.49l-19.71,6.45-1-1.53c2.59-3.29,5.41-6.44,7.69-9.95,1.24-1.91,1.56-4.42,2.3-6.66-2.18.24-4.52.05-6.52.78-10.78,4-21.46,8.22-32.24,12.2-2.12.78-4.54.76-6.82,1.11l-.74-1.59C720.88,250.52,730.83,246.59,736.28,238.68ZM15.55,364A27.12,27.12,0,0,0,18,366.71c9.8,8.57,20.88,15,33.49,18.27,17.62,4.63,33.81,1.53,47.69-10.58,14.47-12.61,24.74-28.24,31.64-46.11a17.66,17.66,0,0,0,.69-2.66c-10.87,5-21.61,10.77-32.92,15-21,7.86-43.08,9.88-65.42,9.36-1.87,0-4.36,0-5.54,1.16C23.43,355.11,19.68,359.54,15.55,364Zm542-13.54c.7,16.06,3,31.15,10.26,45s18.15,23,33.8,25.45c17.21,2.71,33.06-1.28,47.49-11a21.26,21.26,0,0,0,2.74-2.47c-5.22-7.92-10.05-15.47-15.17-22.81a5.8,5.8,0,0,0-4.47-1.89c-17.75,1.45-33.59-4.09-48.19-13.46C575.11,363.63,566.74,357.09,557.55,350.5ZM140.16,300.66c-30.69,9.81-61.17,13.77-92.43,7.9-2.68,7.8-5.3,15.45-8,23.37,11,5,22.4,4.87,33.83,2.92,21.46-3.65,40.81-12.85,59.81-23C138,309.34,139.52,305.88,140.16,300.66ZM146,279.74c-15.66,2.27-30.84.44-45.95-1.94S70,272.75,54.62,270.15c-1,6.37-2.23,12.74-2.95,19.16-.13,1.18,1.43,3.36,2.64,3.74a109.89,109.89,0,0,0,16.38,4.27c23.45,3.61,46-.87,68.33-7.79C144,288,146.28,285.44,146,279.74Zm475.51,54.43c-.44-4.87-1-9.12-1.15-13.38-.08-3.2-1.38-4.57-4.42-5.49-14.16-4.29-28.24-8.87-42.36-13.3-5.84-1.84-11.7-3.57-18.54-5.65.76,5.92,1.16,11,2.21,16a7.66,7.66,0,0,0,3.63,4.71A180,180,0,0,0,621.51,334.17Zm-63.81-8.75a52.67,52.67,0,0,1,.49,8.16c-.36,5,1.85,8.28,5.71,11.29a118.66,118.66,0,0,0,47.76,23c5.62,1.24,11.53,1.23,18.11,1.87-1.52-5.55-2.85-9.49-3.63-13.54-.66-3.42-2.26-4.78-5.74-5.52-8-1.68-16.15-3.17-23.56-6.33C583.61,338.67,570.88,331.86,557.7,325.42Z"/><path class="cls-1" d="M536,520.24c-1.11,6.33-2.32,12.65-3.31,19-4.74,30.15-15.27,58.6-25.81,87-10.62,28.6-22,57-38.27,82.9-24.46,38.81-57.55,68.6-102.8,79-54.65,12.56-106.74,4.15-152.32-31.29-16.56-12.87-28.34-29.94-39.94-47.07-27.8-41.08-49.45-85-59.29-133.91-3.65-18.18-4.17-37-6.1-55.51-.19-1.82-.14-3.66-.29-5.49a14.22,14.22,0,0,0-.86-2.55c-2.66,1.83-5,3.47-7.42,5.09-10.68,7.26-21,6.41-30.31-2.6-7.43-7.15-11.57-16.26-14.51-25.88-8.44-27.64-9.47-56-8.06-84.63a18.31,18.31,0,0,1,.82-3.25c1.71.43,3.27.76,4.79,1.22,34,10.38,58.57.6,76.42-30.36,12-20.8,19.67-43.34,26.59-66.15,6.61-21.83,12.83-43.78,19.23-65.67.51-1.73,1.1-3.43,1.75-5.42a14.73,14.73,0,0,1,2.61.71c29.62,14.83,60.82,25.11,92.64,34.17,32.24,9.18,64.41,18.13,97.88,21.62a620.57,620.57,0,0,0,99.79,2.65c16.94-1,33.89-2.19,50.72-4.28,6.25-.78,12.14-4.36,17.46-6.38-.93,37.57.9,76,14.52,112.93,4.13,11.21,10,21.42,18.88,29.67a42.59,42.59,0,0,0,21.54,10.92c2.86.52,3.9,1.76,3.81,4.64-.77,26.19-6,51.3-18.91,74.29A51.26,51.26,0,0,1,565.09,530c-10.8,8.76-21.33,5.59-26.46-7.17-.36-.88-.83-1.7-1.25-2.55ZM284.53,647c.29,22.16,2.81,40.23,8.16,57.89a41.5,41.5,0,0,0,11.85,19.32c18.41,16.67,44.56,19.19,58.71-8.08,6.67-12.86,13-25.91,20.15-38.5,5.48-9.65,12-18.73,18.06-28,1.62-2.5,3.52-3,6.26-1.34a28.88,28.88,0,0,0,7.35,3c1.4.38,3.06-.2,4.61-.35-.35-1.37-.42-2.9-1.1-4.07a19.52,19.52,0,0,0-3.92-5.14c-9.55-8.16-12.71-19.12-14.18-31-2.88-23.29-5.71-46.6-9-69.84a92,92,0,0,0-5.33-20.15c-2.41-6.19-7.59-7.27-13-3.41a42.58,42.58,0,0,0-6.8,6.56c-5.19,5.86-9.45,5.45-13.39-1.51-.73-1.3-1.24-2.73-1.87-4.08-3.62-7.81-8.62-9.21-13.94-2.48-5.9,7.47-10.58,16-15.06,24.48-5.21,9.83-9.12,20.38-14.53,30.09-8.81,15.8-19.18,30.44-34.87,40.45a14.83,14.83,0,0,0-4.19,4.85,4.2,4.2,0,0,0-.23,3.66c.44.68,2.29.68,3.48.58a37.78,37.78,0,0,0,4.36-1c8.09-1.7,10.6.29,10.09,8.46C285.72,635.14,284.89,642.92,284.53,647ZM432,691.54c-2,2.22-3.23,3.45-4.33,4.79-11,13.37-21,27.76-33.15,39.95-22.43,22.41-49.59,31-80.52,20.38-29-10-53-27-69-53.91q-5.75-9.66-11.35-19.4c-4.65-8.09-9.13-16.27-13.9-24.29-1.31-2.19-3.4-3.92-5.83-6.65a23.07,23.07,0,0,0-.69,3.48,33.89,33.89,0,0,0,.43,3.47c2.56,16.61,10.84,31,17.77,45.94,16.44,35.35,44.66,57,81.6,66.54,35.09,9,66.51.78,91.52-26.48C417.71,731,424.22,712.68,432,695.19,432.26,694.56,432,693.7,432,691.54Zm117.49-179c4.13-3.4,6.66-6.56,9.94-8,10.32-4.53,16.78-12.36,20.53-22.56,2-5.4,1.71-11.16-2.41-15.54-5.7-6.07-7.45-12.52-5-20.6.72-2.39-.91-5.48-1.46-8.25-2.12,2-5.35,3.6-6.16,6-2.4,7.17-3.84,14.65-5.44,21.11,3,2.71,6.38,4.5,7.83,7.28,3.77,7.28-.92,17.52-8.42,20.77-2.23,1-4.68,3-5.55,5.13C551.63,502.07,551,506.7,549.51,512.49Zm-464.72-99-1.35.4a45.89,45.89,0,0,0-.43,5.6c.13,3.49,1.07,7.06.58,10.44-.41,2.86-1.65,6.48-3.78,8.07-9.51,7.06-10.36,10.52-8,22.32,2.87,14.14,15.85,21.36,21.3,33.56a6.59,6.59,0,0,0,1.55-.17c-.34-4.08-.57-8.19-1.06-12.27-.63-5.34-2.62-9.6-7.69-12.62-4.92-2.93-5.84-8.23-4.85-13.7.93-5.2,3.82-8.39,9.34-8.74,3.86-.25,5.41-2.27,4.32-6-2.13-7.34-4.21-14.69-6.59-21.94C87.57,416.57,85.94,415.09,84.79,413.45Z"/><path class="cls-2" d="M736.28,238.68c-5.45,7.91-15.4,11.84-20,20.54l.74,1.59c2.28-.35,4.7-.33,6.82-1.11,10.78-4,21.46-8.24,32.24-12.2,2-.73,4.34-.54,6.52-.78-.74,2.24-1.06,4.75-2.3,6.66-2.28,3.51-5.1,6.66-7.69,9.95l1,1.53,19.71-6.45c.38.5.77,1,1.16,1.49-3.78,4.93-7.16,10.25-11.41,14.73-15.95,16.81-36.46,24.81-58.7,28.64-40.05,6.89-79,.8-117.2-11.44-11-3.54-21.84-7.87-33.71-12.19,16.8-11.57,34.2-20.13,47.9-33.71-.25-.6-.5-1.2-.74-1.8-2.74.57-5.63.76-8.2,1.75-16.15,6.25-32.35,12.4-48.31,19.12-16.55,7-33.76,9.8-51.58,10.36-65.43,2.06-130.39-2.64-193.91-18.46-42.23-10.52-84.63-21.58-123.12-43.32a375.71,375.71,0,0,1-56.5-38.49c-3.45-2.87-7.22-5.35-10.83-8l-1.56,1.29c.54,1.73.67,3.77,1.7,5.15,6.63,8.93,12.93,18.2,20.36,26.43s16,15.58,24.28,23c2.74,2.45,4.1,4.59,3.29,8.47-2.25,10.75-4.28,21.55-5.94,32.41-.68,4.45-3.31,5.58-6.85,5.32-10.11-.73-20.34-1-30.27-2.86-18.79-3.45-37.41-7.85-56.95-12,3.08-10.73,5.55-20.53,8.7-30.12A343.89,343.89,0,0,1,153.37,82.79c19-18.42,40.65-32.64,66.15-40.88,35.74-11.56,72-19.15,109.83-18.5,40.12.69,78.06,10.49,114.48,26.83,48.29,21.65,91.05,51.94,132,85a671.9,671.9,0,0,0,125.6,80.38c3.72,1.83,7.79,3,11.53,4.74,4.42,2.1,4.69,4.65.47,7.16-6.42,3.84-13.14,7.18-19.8,10.61-5.47,2.82-11.14,5.29-16.49,8.33-1.58.89-2.39,3.16-3.56,4.8,1.81.54,3.76,1.79,5.41,1.48,6.69-1.25,13.37-2.69,19.91-4.58,9.59-2.78,19-6.06,28.59-9,2.65-.82,5.43-1.23,8.15-1.82ZM408.54,216.14l.39-1.8c-1.53-1.11-2.92-2.54-4.62-3.26a137.27,137.27,0,0,0-14.91-5.69c-18.87-5.48-37.87-10.5-56.71-16.07-26.49-7.83-51.93-18.09-74.33-34.67-15-11.09-30-22.18-41.76-37-2.59-3.26-6.27-8.1-10.62-4.57-4.14,3.37.2,7.84,2.54,10.73,5.64,7,11.4,14,18.13,19.89,50.41,43.92,110.39,65.07,175.81,72.95C404.44,216.88,406.51,216.32,408.54,216.14ZM163.63,143.7c-.42,7.29,8.58,17.19,28.24,32.19,43.77,33.4,108.85,58.6,132.51,50.55-2.69-1.24-4.63-2.36-6.71-3.06-9.15-3.09-18.2-6.58-27.53-9-33.83-8.68-63.75-24.73-90.84-46.54-9.07-7.3-18.61-14-28.08-20.81C169.11,145.54,166.38,144.89,163.63,143.7Z"/><path class="cls-2" d="M15.55,364c4.13-4.5,7.88-8.93,12.06-12.9,1.18-1.11,3.67-1.2,5.54-1.16,22.34.52,44.39-1.5,65.42-9.36,11.31-4.22,22.05-10,32.92-15a17.66,17.66,0,0,1-.69,2.66c-6.9,17.87-17.17,33.5-31.64,46.11C85.28,386.51,69.09,389.61,51.47,385c-12.61-3.31-23.69-9.7-33.49-18.27A27.12,27.12,0,0,1,15.55,364Z"/><path class="cls-2" d="M557.55,350.5c9.19,6.59,17.56,13.13,26.46,18.85,14.6,9.37,30.44,14.91,48.19,13.46a5.8,5.8,0,0,1,4.47,1.89c5.12,7.34,10,14.89,15.17,22.81A21.26,21.26,0,0,1,649.1,410c-14.43,9.68-30.28,13.67-47.49,11-15.65-2.46-26.62-11.71-33.8-25.45S558.25,366.56,557.55,350.5Z"/><path class="cls-2" d="M140.16,300.66c-.64,5.22-2.18,8.68-6.8,11.16-19,10.18-38.35,19.38-59.81,23-11.43,1.95-22.8,2.09-33.83-2.92,2.71-7.92,5.33-15.57,8-23.37C79,314.43,109.47,310.47,140.16,300.66Z"/><path class="cls-2" d="M146,279.74c.28,5.7-2,8.24-7,9.79-22.33,6.92-44.88,11.4-68.33,7.79a109.89,109.89,0,0,1-16.38-4.27c-1.21-.38-2.77-2.56-2.64-3.74.72-6.42,1.92-12.79,2.95-19.16,15.35,2.6,30.37,5.29,45.43,7.65S130.34,282,146,279.74Z"/><path class="cls-2" d="M621.51,334.17a180,180,0,0,1-60.63-17.1,7.66,7.66,0,0,1-3.63-4.71c-1-5-1.45-10.09-2.21-16,6.84,2.08,12.7,3.81,18.54,5.65,14.12,4.43,28.2,9,42.36,13.3,3,.92,4.34,2.29,4.42,5.49C620.47,325.05,621.07,329.3,621.51,334.17Z"/><path class="cls-2" d="M557.7,325.42c13.18,6.44,25.91,13.25,39.14,18.89,7.41,3.16,15.6,4.65,23.56,6.33,3.48.74,5.08,2.1,5.74,5.52.78,4,2.11,8,3.63,13.54-6.58-.64-12.49-.63-18.11-1.87a118.66,118.66,0,0,1-47.76-23c-3.86-3-6.07-6.25-5.71-11.29A52.67,52.67,0,0,0,557.7,325.42Z"/><path d="M284.53,647c.36-4.07,1.19-11.85,1.68-19.64.51-8.17-2-10.16-10.09-8.46a37.78,37.78,0,0,1-4.36,1c-1.19.1-3,.1-3.48-.58a4.2,4.2,0,0,1,.23-3.66,14.83,14.83,0,0,1,4.19-4.85c15.69-10,26.06-24.65,34.87-40.45,5.41-9.71,9.32-20.26,14.53-30.09,4.48-8.46,9.16-17,15.06-24.48,5.32-6.73,10.32-5.33,13.94,2.48.63,1.35,1.14,2.78,1.87,4.08,3.94,7,8.2,7.37,13.39,1.51a42.58,42.58,0,0,1,6.8-6.56c5.41-3.86,10.59-2.78,13,3.41a92,92,0,0,1,5.33,20.15c3.28,23.24,6.11,46.55,9,69.84,1.47,11.86,4.63,22.82,14.18,31a19.52,19.52,0,0,1,3.92,5.14c.68,1.17.75,2.7,1.1,4.07-1.55.15-3.21.73-4.61.35a28.88,28.88,0,0,1-7.35-3c-2.74-1.66-4.64-1.16-6.26,1.34-6.07,9.32-12.58,18.4-18.06,28-7.15,12.59-13.48,25.64-20.15,38.5-14.15,27.27-40.3,24.75-58.71,8.08a41.5,41.5,0,0,1-11.85-19.32C287.34,687.22,284.82,669.15,284.53,647Zm13.59,25.6c1,13.46,6.85,23.39,15.77,32.11,14.83,14.49,37.1,8.76,45.88-12.48A156,156,0,0,0,298.12,672.59ZM348.75,566c2.37,2.15,4.62,5.92,7.09,6.08,5.88.37,11.89-.79,17.78-1.76,1.14-.18,2.8-2.34,2.77-3.56A155,155,0,0,0,375,546.87c-.45-3-2.72-5.67-4.17-8.5-2.54,1.35-5.12,2.65-7.61,4.08a10.23,10.23,0,0,0-2.24,2c-3.73,4-7.93,4.59-13.15,3-2.73-.84-6.75-1-8.91.41C331,553,326.19,561,322.26,569.9a40.88,40.88,0,0,0,4.75,1.31c4.11.59,8.23,1.26,12.36,1.49C347.52,573.15,347.52,573,348.75,566Z"/><path d="M432,691.54c0,2.16.24,3,0,3.65-7.76,17.49-14.27,35.8-27.44,50.17-25,27.26-56.43,35.52-91.52,26.48-36.94-9.52-65.16-31.19-81.6-66.54-6.93-14.91-15.21-29.33-17.77-45.94a33.89,33.89,0,0,1-.43-3.47,23.07,23.07,0,0,1,.69-3.48c2.43,2.73,4.52,4.46,5.83,6.65,4.77,8,9.25,16.2,13.9,24.29q5.6,9.74,11.35,19.4c16,26.93,40,44,69,53.91,30.93,10.6,58.09,2,80.52-20.38,12.18-12.19,22.16-26.58,33.15-39.95C428.79,695,430,693.76,432,691.54Z"/><path class="cls-1" d="M549.51,512.49c1.44-5.79,2.12-10.42,3.84-14.64.87-2.14,3.32-4.16,5.55-5.13,7.5-3.25,12.19-13.49,8.42-20.77-1.45-2.78-4.81-4.57-7.83-7.28,1.6-6.46,3-13.94,5.44-21.11.81-2.42,4-4,6.16-6,.55,2.77,2.18,5.86,1.46,8.25-2.43,8.08-.68,14.53,5,20.6,4.12,4.38,4.39,10.14,2.41,15.54-3.75,10.2-10.21,18-20.53,22.56C556.17,505.93,553.64,509.09,549.51,512.49Z"/><path class="cls-1" d="M84.79,413.45c1.15,1.64,2.78,3.12,3.37,4.93,2.38,7.25,4.46,14.6,6.59,21.94,1.09,3.75-.46,5.77-4.32,6-5.52.35-8.41,3.54-9.34,8.74-1,5.47-.07,10.77,4.85,13.7,5.07,3,7.06,7.28,7.69,12.62.49,4.08.72,8.19,1.06,12.27a6.59,6.59,0,0,1-1.55.17c-5.45-12.2-18.43-19.42-21.3-33.56-2.39-11.8-1.54-15.26,8-22.32,2.13-1.59,3.37-5.21,3.78-8.07.49-3.38-.45-6.95-.58-10.44a45.89,45.89,0,0,1,.43-5.6Z"/><path class="cls-2" d="M408.54,216.14c-2,.18-4.1.74-6.08.5-65.42-7.88-125.4-29-175.81-72.95-6.73-5.86-12.49-12.93-18.13-19.89-2.34-2.89-6.68-7.36-2.54-10.73,4.35-3.53,8,1.31,10.62,4.57,11.74,14.83,26.76,25.92,41.76,37,22.4,16.58,47.84,26.84,74.33,34.67,18.84,5.57,37.84,10.59,56.71,16.07a137.27,137.27,0,0,1,14.91,5.69c1.7.72,3.09,2.15,4.62,3.26Z"/><path class="cls-2" d="M163.63,143.7c2.75,1.19,5.48,1.84,7.59,3.36,9.47,6.78,19,13.51,28.08,20.81,27.09,21.81,57,37.86,90.84,46.54,9.33,2.39,18.38,5.88,27.53,9,2.08.7,4,1.82,6.71,3.06-23.66,8.05-88.74-17.15-132.51-50.55C172.21,160.89,163.21,151,163.63,143.7Z"/><path class="cls-3" d="M298.12,672.59a156,156,0,0,1,61.65,19.63c-8.78,21.24-31,27-45.88,12.48C305,696,299.15,686.05,298.12,672.59Z"/><path class="cls-3" d="M348.75,566c-1.23,7.07-1.23,7.18-9.38,6.73-4.13-.23-8.25-.9-12.36-1.49a40.88,40.88,0,0,1-4.75-1.31C326.19,561,331,553,338.9,547.8c2.16-1.44,6.18-1.25,8.91-.41,5.22,1.62,9.42,1,13.15-3a10.23,10.23,0,0,1,2.24-2c2.49-1.43,5.07-2.73,7.61-4.08,1.45,2.83,3.72,5.52,4.17,8.5a155,155,0,0,1,1.41,19.86c0,1.22-1.63,3.38-2.77,3.56-5.89,1-11.9,2.13-17.78,1.76C353.37,571.89,351.12,568.12,348.75,566Z"/><rect class="cls-2" x="330.04" y="441.02" width="455.31" height="67.99" rx="34" transform="translate(32.28 -35.48) rotate(3.75)"/></g></g></svg>