<svg xmlns="http://www.w3.org/2000/svg" viewBox="0 0 412.61 343.03"><defs><style>.cls-1{fill:#f9a346;}.cls-2{fill:#fccc60;}</style></defs><title>Asset 7</title><g id="Layer_2" data-name="Layer 2"><g id="Layer_1-2" data-name="Layer 1"><path class="cls-1" d="M55.91,69.8s208.2-67.6,251.8,57.7,30.6,165.9,30.6,165.9,7.8,26.5-63,35.5-124.2,31.5-164.7-10.5-83.5-162.2-83.5-162.2S1.91,75.3,55.91,69.8Z"/><path class="cls-2" d="M32.81,246.1s11.9,35.5,20.1,14.4c6.6-16.9,20.2-91,30.7-100,25.2-21.6,47-29.3,79.5-22.6,54.4,11.1,127.2,18.9,156.1-10.3,0,0,40.6-56.4,93.4-127.6,0,0-128.3,77-244.2,47.2C104.71,30.8,25.71,19.4,5.11,65S32.81,246.1,32.81,246.1Z"/></g></g></svg>