<svg xmlns="http://www.w3.org/2000/svg" viewBox="0 0 798.28 811.34"><defs><style>.cls-1{fill:#f9a346;}.cls-2{fill:#fccc60;}.cls-3{fill:#fff;}</style></defs><title>Asset 6</title><g id="Layer_2" data-name="Layer 2"><g id="Layer_1-2" data-name="Layer 1"><path class="cls-1" d="M632.29,318.66c1.4,8.7,2.3,16.9,4.2,24.9a112.41,112.41,0,0,0,30.1,53.3c4.7,4.8,4.8,6.4.7,12-13.1,17.6-31.2,26-52.4,28.5-4.4.5-5.7,1.9-5.9,6.3-1.3,22.7-4.2,45.2-12.7,66.5a126.09,126.09,0,0,1-7,14.3c-6,10.3-14.1,18.6-26.2,22.6a39.34,39.34,0,0,0,.6,4.8c5.2,23.4-18.7,83.8-37.1,79.4-.3-.1-.6,0-1.4.1-3.2,8.9-6,18.1-9.9,26.9-8.8,19.8-16.9,40-27.6,58.7-12.9,22.5-31.8,40.2-52.6,55.6-37.1,27.4-78.6,41.3-124.9,38.4-47.4-3-87.5-22.8-122.1-54.6-22.2-20.4-37.7-45.5-52.8-71.2a253.72,253.72,0,0,1-29.2-73c-.9-3.9-2.4-5.6-6.8-6.1-17.4-2-33.7-50.7-29.1-64.8.5-1.5.9-3.1,1.4-5.1-15.3-2.7-21.4-14.1-26.3-26.4-7.9-20.4-10.7-41.9-12-63.6-1-16.3-.9-32.6-1.5-48.9a8.43,8.43,0,0,0-3-5.4c-6.9-5.7-14.2-11-21-16.9a33.29,33.29,0,0,1-7.1-9.5c-.9-1.8-1-5.5.2-6.8,14.4-15.9,19.8-35.7,24.5-55.6,6.3-26.1,11.5-52.4,18-78.4,10.8-43.1,27.5-83.5,54.6-119.1q67.65-88.95,178.6-102.7Q380.09-10,474,35.16c21.8,10.5,40.9,24.9,60.2,39.3,50.6,37.8,101.8,74.8,156.4,106.7,26.1,15.3,52.6,29.5,81.5,38.8,6.2,2,12.5,3.4,18.9,4.8,7.1,1.5,8,2.2,6.9,9.6a92.53,92.53,0,0,1-12,35.3c-16.4,27.6-41.6,42.4-72.3,48.9-25.6,5.5-51.3,4.3-77.1.7A20.2,20.2,0,0,0,632.29,318.66Zm-96.5,201.5h1.4c.4.8.9,1.7,1.2,2.5,5.1,12.8,15.7,15.9,26.5,7.2a53.9,53.9,0,0,0,12.2-14.3c12.9-23,18.1-48.1,18.9-74.3.1-2.9-1-4.1-3.8-4.6a42.13,42.13,0,0,1-21.5-10.9c-8.9-8.2-14.7-18.5-18.9-29.7-13.6-36.9-15.4-75.4-14.5-112.9-5.3,2-11.2,5.6-17.5,6.4-16.8,2.1-33.8,3.3-50.7,4.3a627.74,627.74,0,0,1-99.8-2.6c-33.5-3.5-65.6-12.4-97.9-21.6-31.8-9.1-63-19.3-92.6-34.2a23,23,0,0,0-2.6-.7c-.6,2-1.2,3.7-1.7,5.4-6.4,21.9-12.6,43.8-19.2,65.7-6.9,22.8-14.6,45.3-26.6,66.1-17.9,31-42.4,40.7-76.4,30.4-1.5-.5-3.1-.8-4.8-1.2a13.41,13.41,0,0,0-.8,3.2c-1.4,28.6-.4,57,8.1,84.6,2.9,9.6,7.1,18.7,14.5,25.9,9.4,9,19.6,9.9,30.3,2.6,2.4-1.6,4.8-3.3,7.4-5.1a13.42,13.42,0,0,1,.9,2.6c.2,1.8.1,3.7.3,5.5,1.9,18.5,2.4,37.3,6.1,55.5,9.8,48.9,31.5,92.8,59.3,133.9,11.6,17.1,23.4,34.2,39.9,47.1,45.6,35.4,97.7,43.9,152.3,31.3,45.3-10.4,78.3-40.2,102.8-79,16.3-25.9,27.6-54.3,38.3-82.9,10.5-28.4,21.1-56.9,25.8-87C533.49,532.86,534.69,526.46,535.79,520.16Zm200.3-281.6c-.2-.4-.5-.9-.7-1.3-2.7.6-5.5,1-8.2,1.8-9.5,2.9-19,6.2-28.6,9-6.5,1.9-13.2,3.3-19.9,4.6-1.7.3-3.6-.9-5.4-1.5,1.2-1.6,2-3.9,3.6-4.8,5.4-3,11-5.5,16.5-8.3,6.7-3.4,13.4-6.8,19.8-10.6,4.2-2.5,3.9-5.1-.5-7.2-3.7-1.8-7.8-2.9-11.5-4.7a670.07,670.07,0,0,1-125.6-80.4c-40.9-33.1-83.7-63.4-132-85-36.4-16.3-74.4-26.1-114.5-26.8-37.8-.6-74.1,6.9-109.8,18.5-25.5,8.2-47.2,22.5-66.1,40.9a344.33,344.33,0,0,0-88.4,141.4c-3.1,9.6-5.6,19.4-8.7,30.1,19.5,4.2,38.2,8.6,56.9,12,9.9,1.8,20.2,2.1,30.3,2.9,3.5.3,6.2-.9,6.9-5.3,1.7-10.9,3.7-21.7,5.9-32.4.8-3.9-.6-6-3.3-8.5-8.3-7.4-16.8-14.8-24.3-23s-13.7-17.5-20.4-26.4c-1-1.4-1.2-3.4-1.7-5.2.5-.4,1-.9,1.6-1.3,3.6,2.7,7.4,5.1,10.8,8,17.6,14.7,36.6,27.2,56.5,38.5,38.5,21.7,80.9,32.8,123.1,43.3,63.5,15.8,128.5,20.5,193.9,18.5,17.8-.6,35-3.4,51.6-10.4,16-6.7,32.2-12.9,48.3-19.1,2.6-1,5.5-1.2,8.2-1.7.2.6.5,1.2.7,1.8-13.7,13.6-31.1,22.1-47.9,33.7,11.9,4.3,22.7,8.7,33.7,12.2,38.2,12.2,77.2,18.3,117.2,11.4,22.2-3.8,42.7-11.8,58.7-28.6,4.3-4.5,7.6-9.8,11.4-14.7l-1.2-1.5c-6.6,2.2-13.1,4.3-19.7,6.5-.3-.5-.7-1-1-1.5,2.6-3.3,5.4-6.4,7.7-10,1.2-1.9,1.6-4.4,2.3-6.7-2.2.2-4.5.1-6.5.8-10.8,4-21.5,8.2-32.2,12.2-2.1.8-4.5.8-6.8,1.1-.2-.5-.5-1.1-.7-1.6C720.69,250.46,730.59,246.56,736.09,238.56ZM15.39,364c.7.8,1.5,1.8,2.4,2.7,9.8,8.6,20.9,15,33.5,18.3,17.6,4.6,33.8,1.5,47.7-10.6,14.5-12.6,24.7-28.2,31.6-46.1a21.7,21.7,0,0,0,.7-2.7c-10.9,5-21.6,10.8-32.9,15-21,7.9-43.1,9.9-65.4,9.4-1.9,0-4.4.1-5.5,1.2C23.19,355.06,19.49,359.46,15.39,364Zm542-13.5c.7,16.1,3,31.2,10.3,45s18.2,23,33.8,25.4c17.2,2.7,33.1-1.3,47.5-11a17.11,17.11,0,0,0,2.7-2.5c-5.2-7.9-10-15.5-15.2-22.8a6,6,0,0,0-4.5-1.9c-17.8,1.4-33.6-4.1-48.2-13.5C574.89,363.56,566.49,357.06,557.39,350.46ZM140,300.56c-30.7,9.8-61.2,13.8-92.4,7.9-2.7,7.8-5.3,15.5-8,23.4,11,5,22.4,4.9,33.8,2.9,21.5-3.7,40.8-12.9,59.8-23C137.79,309.26,139.29,305.76,140,300.56Zm5.8-20.9c-15.7,2.3-30.8.4-46-1.9s-30.1-5.1-45.4-7.7c-1,6.4-2.2,12.7-2.9,19.2a4.61,4.61,0,0,0,2.6,3.7,116.36,116.36,0,0,0,16.4,4.3c23.5,3.6,46-.9,68.3-7.8C143.79,287.86,146.09,285.36,145.79,279.66Zm475.5,54.4c-.4-4.9-1-9.1-1.1-13.4-.1-3.2-1.4-4.6-4.4-5.5-14.2-4.3-28.2-8.9-42.4-13.3-5.8-1.8-11.7-3.6-18.5-5.6.8,5.9,1.2,11,2.2,16a7.78,7.78,0,0,0,3.6,4.7A178.64,178.64,0,0,0,621.29,334.06Zm-63.8-8.7a50.06,50.06,0,0,1,.5,8.2c-.4,5,1.8,8.3,5.7,11.3,14.3,11.2,30.1,19.1,47.8,23,5.6,1.2,11.5,1.2,18.1,1.9-1.5-5.6-2.8-9.5-3.6-13.5-.7-3.4-2.3-4.8-5.7-5.5-8-1.7-16.1-3.2-23.6-6.3C583.39,338.56,570.69,331.76,557.49,325.36Z"/><path class="cls-1" d="M535.79,520.16c-1.1,6.3-2.3,12.7-3.3,19-4.7,30.2-15.3,58.6-25.8,87-10.6,28.6-22,57-38.3,82.9-24.5,38.8-57.5,68.6-102.8,79-54.6,12.6-106.7,4.1-152.3-31.3-16.6-12.9-28.3-29.9-39.9-47.1-27.8-41.1-49.5-85-59.3-133.9-3.7-18.2-4.2-37-6.1-55.5-.2-1.8-.1-3.7-.3-5.5a20.45,20.45,0,0,0-.9-2.6c-2.7,1.8-5,3.5-7.4,5.1-10.7,7.3-20.9,6.4-30.3-2.6-7.4-7.2-11.6-16.3-14.5-25.9-8.4-27.6-9.5-56-8.1-84.6a16.54,16.54,0,0,1,.8-3.2q2.55.6,4.8,1.2c34,10.4,58.6.6,76.4-30.4,12-20.8,19.7-43.3,26.6-66.1,6.6-21.8,12.8-43.8,19.2-65.7.5-1.7,1.1-3.4,1.7-5.4a23,23,0,0,1,2.6.7c29.6,14.8,60.8,25.1,92.6,34.2,32.2,9.2,64.4,18.1,97.9,21.6a605,605,0,0,0,99.8,2.6c16.9-1,33.9-2.2,50.7-4.3,6.2-.8,12.1-4.4,17.5-6.4-.9,37.6.9,76,14.5,112.9,4.1,11.2,10,21.4,18.9,29.7a42.13,42.13,0,0,0,21.5,10.9c2.9.5,3.9,1.8,3.8,4.6-.8,26.2-6,51.3-18.9,74.3a49.37,49.37,0,0,1-12.2,14.3c-10.8,8.8-21.3,5.6-26.5-7.2-.4-.9-.8-1.7-1.2-2.5A2.17,2.17,0,0,1,535.79,520.16ZM284.29,647c.3,22.2,2.8,40.2,8.2,57.9a41.41,41.41,0,0,0,11.9,19.3c18.4,16.7,44.6,19.2,58.7-8.1,6.7-12.9,13-25.9,20.2-38.5,5.5-9.7,12-18.7,18.1-28.1,1.6-2.5,3.5-3,6.3-1.3a24,24,0,0,0,7.4,3c1.4.4,3.1-.2,4.6-.4a13.79,13.79,0,0,0-1.1-4.1,18.18,18.18,0,0,0-3.9-5.1c-9.6-8.2-12.7-19.1-14.2-31-2.9-23.3-5.7-46.6-9-69.8a95.49,95.49,0,0,0-5.3-20.2c-2.4-6.2-7.6-7.3-13-3.4a42.34,42.34,0,0,0-6.8,6.6c-5.2,5.9-9.4,5.4-13.4-1.5-.7-1.3-1.2-2.7-1.9-4.1-3.6-7.8-8.6-9.2-13.9-2.5-5.9,7.5-10.6,16-15.1,24.5-5.2,9.8-9.1,20.4-14.5,30.1-8.8,15.8-19.2,30.4-34.9,40.4a14.4,14.4,0,0,0-4.2,4.9,4.06,4.06,0,0,0-.2,3.7c.4.7,2.3.7,3.5.6a34.83,34.83,0,0,0,4.4-1c8.1-1.7,10.6.3,10.1,8.5C285.49,635.06,284.69,642.86,284.29,647Zm147.5,44.5c-2,2.2-3.2,3.5-4.3,4.8-11,13.4-21,27.8-33.2,39.9-22.4,22.4-49.6,31-80.5,20.4-29-10-53-27-69-53.9-3.8-6.4-7.6-12.9-11.4-19.4-4.6-8.1-9.1-16.3-13.9-24.3-1.3-2.2-3.4-3.9-5.8-6.7a21.15,21.15,0,0,0-.7,3.5c.1,1.2.2,2.3.4,3.5,2.6,16.6,10.8,31,17.8,45.9,16.4,35.3,44.7,57,81.6,66.5,35.1,9,66.5.8,91.5-26.5,13.2-14.4,19.7-32.7,27.4-50.2C432.09,694.46,431.79,693.66,431.79,691.46Zm117.5-179c4.1-3.4,6.7-6.6,9.9-8,10.3-4.5,16.8-12.4,20.5-22.6,2-5.4,1.7-11.2-2.4-15.5-5.7-6.1-7.4-12.5-5-20.6.7-2.4-.9-5.5-1.5-8.3-2.1,2-5.3,3.6-6.2,6-2.4,7.2-3.8,14.7-5.4,21.1,3,2.7,6.4,4.5,7.8,7.3,3.8,7.3-.9,17.5-8.4,20.8-2.2,1-4.7,3-5.5,5.1C551.39,502,550.79,506.66,549.29,512.46Zm-464.7-99.1c-.5.1-.9.3-1.4.4a35.17,35.17,0,0,0-.4,5.6c.1,3.5,1.1,7.1.6,10.4-.4,2.9-1.6,6.5-3.8,8.1-9.5,7.1-10.4,10.5-8,22.3,2.9,14.1,15.9,21.4,21.3,33.6,0,.1.6-.1,1.6-.2-.3-4.1-.6-8.2-1.1-12.3-.6-5.3-2.6-9.6-7.7-12.6-4.9-2.9-5.8-8.2-4.8-13.7.9-5.2,3.8-8.4,9.3-8.7,3.9-.2,5.4-2.3,4.3-6-2.1-7.3-4.2-14.7-6.6-21.9C87.39,416.46,85.69,415.06,84.59,413.36Z"/><path class="cls-2" d="M736.09,238.56c-5.4,7.9-15.4,11.8-20,20.5.2.5.5,1.1.7,1.6,2.3-.4,4.7-.3,6.8-1.1,10.8-4,21.5-8.2,32.2-12.2,2-.7,4.3-.5,6.5-.8-.7,2.2-1.1,4.8-2.3,6.7-2.3,3.5-5.1,6.7-7.7,10,.3.5.7,1,1,1.5,6.6-2.2,13.1-4.3,19.7-6.5l1.2,1.5c-3.8,4.9-7.2,10.2-11.4,14.7-15.9,16.8-36.5,24.8-58.7,28.6-40,6.9-79,.8-117.2-11.4-11-3.5-21.8-7.9-33.7-12.2,16.8-11.6,34.2-20.1,47.9-33.7-.2-.6-.5-1.2-.7-1.8-2.7.6-5.6.8-8.2,1.7-16.2,6.2-32.3,12.4-48.3,19.1-16.6,7-33.8,9.8-51.6,10.4-65.4,2.1-130.4-2.6-193.9-18.5-42.2-10.5-84.6-21.6-123.1-43.3-19.9-11.3-38.9-23.8-56.5-38.5-3.4-2.9-7.2-5.4-10.8-8-.5.4-1,.9-1.6,1.3.5,1.7.7,3.8,1.7,5.2,6.6,8.9,12.9,18.2,20.4,26.4s16,15.6,24.3,23c2.7,2.5,4.1,4.6,3.3,8.5-2.2,10.8-4.3,21.6-5.9,32.4-.7,4.5-3.3,5.6-6.9,5.3-10.1-.7-20.3-1-30.3-2.9-18.8-3.5-37.4-7.8-56.9-12,3.1-10.7,5.5-20.5,8.7-30.1a344,344,0,0,1,88.4-141.4c19-18.4,40.7-32.6,66.1-40.9,35.7-11.6,72-19.2,109.8-18.5,40.1.7,78.1,10.5,114.5,26.8,48.3,21.7,91.1,51.9,132,85a675.16,675.16,0,0,0,125.6,80.4c3.7,1.8,7.8,3,11.5,4.7,4.4,2.1,4.7,4.6.5,7.2-6.4,3.8-13.1,7.2-19.8,10.6-5.5,2.8-11.1,5.3-16.5,8.3-1.6.9-2.4,3.2-3.6,4.8,1.8.5,3.8,1.8,5.4,1.5a191.39,191.39,0,0,0,19.9-4.6c9.6-2.8,19-6.1,28.6-9,2.7-.8,5.4-1.2,8.2-1.8A7.11,7.11,0,0,0,736.09,238.56Zm-327.8-22.5c.1-.6.3-1.2.4-1.8a29.72,29.72,0,0,0-4.6-3.3,134.38,134.38,0,0,0-14.9-5.7c-18.9-5.5-37.9-10.5-56.7-16.1-26.5-7.8-51.9-18.1-74.3-34.7-15-11.1-30-22.2-41.8-37-2.6-3.3-6.3-8.1-10.6-4.6-4.1,3.4.2,7.8,2.5,10.7,5.6,7,11.4,14,18.1,19.9,50.4,43.9,110.4,65.1,175.8,73C404.19,216.76,406.29,216.26,408.29,216.06Zm-244.9-72.4c-.4,7.3,8.6,17.2,28.2,32.2,43.8,33.4,108.9,58.6,132.5,50.5-2.7-1.2-4.6-2.4-6.7-3.1-9.1-3.1-18.2-6.6-27.5-9-33.8-8.7-63.8-24.7-90.8-46.5-9.1-7.3-18.6-14-28.1-20.8C168.89,145.46,166.19,144.76,163.39,143.66Z"/><path class="cls-2" d="M15.39,364c4.1-4.5,7.9-8.9,12.1-12.9,1.2-1.1,3.7-1.2,5.5-1.2,22.3.5,44.4-1.5,65.4-9.4,11.3-4.2,22-10,32.9-15a21.7,21.7,0,0,1-.7,2.7c-6.9,17.9-17.2,33.5-31.6,46.1-13.9,12.1-30.1,15.2-47.7,10.6-12.6-3.3-23.7-9.7-33.5-18.3A14.21,14.21,0,0,1,15.39,364Z"/><path class="cls-2" d="M557.39,350.46c9.2,6.6,17.6,13.1,26.5,18.8,14.6,9.4,30.4,14.9,48.2,13.5a5.68,5.68,0,0,1,4.5,1.9c5.1,7.3,10,14.9,15.2,22.8a23.18,23.18,0,0,1-2.7,2.5c-14.4,9.7-30.3,13.7-47.5,11-15.6-2.5-26.6-11.7-33.8-25.4C560.39,381.56,558.09,366.46,557.39,350.46Z"/><path class="cls-2" d="M140,300.56c-.6,5.2-2.2,8.7-6.8,11.2-19,10.2-38.3,19.4-59.8,23-11.4,1.9-22.8,2.1-33.8-2.9,2.7-7.9,5.3-15.6,8-23.4C78.79,314.36,109.29,310.36,140,300.56Z"/><path class="cls-2" d="M145.79,279.66c.3,5.7-2,8.2-7,9.8-22.3,6.9-44.9,11.4-68.3,7.8a116.36,116.36,0,0,1-16.4-4.3c-1.2-.4-2.8-2.6-2.6-3.7.7-6.4,1.9-12.8,2.9-19.2,15.4,2.6,30.4,5.3,45.4,7.7C115,280.06,130.09,282,145.79,279.66Z"/><path class="cls-2" d="M621.29,334.06a178,178,0,0,1-60.6-17.1,7.43,7.43,0,0,1-3.6-4.7c-1.1-5-1.4-10.1-2.2-16,6.8,2.1,12.7,3.8,18.5,5.6,14.1,4.4,28.2,9,42.4,13.3,3,.9,4.3,2.3,4.4,5.5C620.29,325,620.89,329.26,621.29,334.06Z"/><path class="cls-2" d="M557.49,325.36c13.2,6.4,25.9,13.3,39.1,18.9,7.4,3.2,15.6,4.7,23.6,6.3,3.5.7,5.1,2.1,5.7,5.5.8,4,2.1,8,3.6,13.5-6.6-.6-12.5-.6-18.1-1.9-17.7-3.9-33.5-11.8-47.8-23-3.9-3-6.1-6.3-5.7-11.3A40.39,40.39,0,0,0,557.49,325.36Z"/><path d="M284.29,647c.4-4.1,1.2-11.8,1.7-19.6.5-8.2-2-10.2-10.1-8.5a34.83,34.83,0,0,1-4.4,1c-1.2.1-3,.1-3.5-.6a4.39,4.39,0,0,1,.2-3.7,15.23,15.23,0,0,1,4.2-4.9c15.7-10,26.1-24.7,34.9-40.4,5.4-9.7,9.3-20.3,14.5-30.1,4.5-8.5,9.2-17,15.1-24.5,5.3-6.7,10.3-5.3,13.9,2.5a30.5,30.5,0,0,0,1.9,4.1c3.9,7,8.2,7.4,13.4,1.5a42.34,42.34,0,0,1,6.8-6.6c5.4-3.9,10.6-2.8,13,3.4a87.13,87.13,0,0,1,5.3,20.2c3.3,23.2,6.1,46.5,9,69.8,1.5,11.9,4.6,22.8,14.2,31a21.58,21.58,0,0,1,3.9,5.1,13.79,13.79,0,0,1,1.1,4.1c-1.5.1-3.2.7-4.6.4a33.79,33.79,0,0,1-7.4-3c-2.7-1.7-4.6-1.2-6.3,1.3-6.1,9.3-12.6,18.4-18.1,28.1-7.1,12.6-13.5,25.6-20.2,38.5-14.1,27.3-40.3,24.8-58.7,8.1a42.23,42.23,0,0,1-11.9-19.3C287.09,687.16,284.59,669.06,284.29,647Zm13.6,25.6c1,13.5,6.8,23.4,15.8,32.1,14.8,14.5,37.1,8.8,45.9-12.5A154.71,154.71,0,0,0,297.89,672.56Zm50.7-106.7c2.4,2.1,4.6,5.9,7.1,6.1,5.9.4,11.9-.8,17.8-1.8,1.1-.2,2.8-2.3,2.8-3.6a166.38,166.38,0,0,0-1.4-19.9c-.5-3-2.7-5.7-4.2-8.5-2.5,1.4-5.1,2.7-7.6,4.1a8.33,8.33,0,0,0-2.2,2c-3.7,4-7.9,4.6-13.1,3-2.7-.8-6.7-1-8.9.4-7.9,5.2-12.7,13.1-16.6,22.1a32.07,32.07,0,0,0,4.8,1.3c4.1.6,8.2,1.3,12.4,1.5C347.29,573.06,347.29,573,348.59,565.86Z"/><path class="cls-1" d="M549.29,512.46c1.4-5.8,2.1-10.4,3.8-14.6a11,11,0,0,1,5.5-5.1c7.5-3.3,12.2-13.5,8.4-20.8-1.4-2.8-4.8-4.6-7.8-7.3,1.6-6.5,3-13.9,5.4-21.1.8-2.4,4-4,6.2-6,.6,2.8,2.2,5.9,1.5,8.3-2.4,8.1-.7,14.5,5,20.6,4.1,4.4,4.4,10.1,2.4,15.5-3.7,10.2-10.2,18-20.5,22.6C556,505.86,553.39,509.06,549.29,512.46Z"/><path class="cls-1" d="M84.59,413.36c1.1,1.6,2.8,3.1,3.4,4.9,2.4,7.3,4.5,14.6,6.6,21.9,1.1,3.8-.5,5.8-4.3,6-5.5.4-8.4,3.5-9.3,8.7-1,5.5-.1,10.8,4.8,13.7,5.1,3,7.1,7.3,7.7,12.6.5,4.1.7,8.2,1.1,12.3-1,.1-1.5.3-1.6.2-5.4-12.2-18.4-19.4-21.3-33.6-2.4-11.8-1.5-15.3,8-22.3,2.1-1.6,3.4-5.2,3.8-8.1.5-3.4-.5-6.9-.6-10.4a52.7,52.7,0,0,1,.4-5.6A3.45,3.45,0,0,0,84.59,413.36Z"/><path class="cls-2" d="M408.29,216.06a31.4,31.4,0,0,1-6.1.5c-65.4-7.9-125.4-29-175.8-73-6.7-5.9-12.5-12.9-18.1-19.9-2.3-2.9-6.7-7.4-2.5-10.7,4.3-3.5,8,1.3,10.6,4.6,11.7,14.8,26.8,25.9,41.8,37,22.4,16.6,47.8,26.8,74.3,34.7,18.8,5.6,37.8,10.6,56.7,16.1a134.38,134.38,0,0,1,14.9,5.7c1.7.7,3.1,2.2,4.6,3.3A13.64,13.64,0,0,1,408.29,216.06Z"/><path class="cls-2" d="M163.39,143.66c2.7,1.2,5.5,1.8,7.6,3.4,9.5,6.8,19,13.5,28.1,20.8,27.1,21.8,57,37.9,90.8,46.5,9.3,2.4,18.4,5.9,27.5,9a61.74,61.74,0,0,1,6.7,3.1c-23.7,8-88.7-17.1-132.5-50.5C172,160.86,163,151,163.39,143.66Z"/><path class="cls-3" d="M297.89,672.56a156.94,156.94,0,0,1,61.6,19.6c-8.8,21.2-31,27-45.9,12.5C304.79,695.86,299,686,297.89,672.56Z"/><path class="cls-3" d="M348.59,565.86c-1.2,7.1-1.2,7.2-9.4,6.7-4.1-.2-8.2-.9-12.4-1.5-1.4-.2-2.8-.8-4.8-1.3,3.9-8.9,8.7-16.9,16.6-22.1,2.2-1.4,6.2-1.2,8.9-.4,5.2,1.6,9.4,1,13.1-3a13.73,13.73,0,0,1,2.2-2c2.5-1.4,5.1-2.7,7.6-4.1,1.4,2.8,3.7,5.5,4.2,8.5a163.51,163.51,0,0,1,1.4,19.9c0,1.2-1.6,3.4-2.8,3.6-5.9,1-11.9,2.1-17.8,1.8C353.19,571.86,350.89,568.06,348.59,565.86Z"/></g></g></svg>