<svg width="434" height="196" viewBox="0 0 434 196" fill="none" xmlns="http://www.w3.org/2000/svg">
<rect y="4" width="429" height="192" rx="50" fill="#141414"/>
<rect x="6.5" y="1.5" width="426" height="187" rx="48.5" fill="white" stroke="#141414" stroke-width="3"/>
<path d="M56.2 76H52.576V68.608H45.784V76H42.16V58.864H45.784V65.584H52.576V58.864H56.2V76ZM72.1276 69.424C72.1276 71.6 71.5516 73.28 70.3996 74.464C69.2636 75.648 67.7116 76.24 65.7436 76.24C64.5276 76.24 63.4396 75.976 62.4796 75.448C61.5356 74.92 60.7916 74.152 60.2476 73.144C59.7036 72.12 59.4316 70.88 59.4316 69.424C59.4316 67.248 59.9996 65.576 61.1356 64.408C62.2716 63.24 63.8316 62.656 65.8156 62.656C67.0476 62.656 68.1356 62.92 69.0796 63.448C70.0236 63.976 70.7676 64.744 71.3116 65.752C71.8556 66.744 72.1276 67.968 72.1276 69.424ZM63.0796 69.424C63.0796 70.72 63.2876 71.704 63.7036 72.376C64.1356 73.032 64.8316 73.36 65.7916 73.36C66.7356 73.36 67.4156 73.032 67.8316 72.376C68.2636 71.704 68.4796 70.72 68.4796 69.424C68.4796 68.128 68.2636 67.16 67.8316 66.52C67.4156 65.864 66.7276 65.536 65.7676 65.536C64.8236 65.536 64.1356 65.864 63.7036 66.52C63.2876 67.16 63.0796 68.128 63.0796 69.424ZM85.3902 76L84.3822 71.416C84.3182 71.144 84.2222 70.744 84.0942 70.216C83.9822 69.672 83.8542 69.096 83.7102 68.488C83.5662 67.864 83.4302 67.296 83.3022 66.784C83.1742 66.256 83.0862 65.872 83.0382 65.632H82.9422C82.8942 65.872 82.8062 66.256 82.6782 66.784C82.5662 67.296 82.4382 67.864 82.2942 68.488C82.1502 69.096 82.0142 69.672 81.8862 70.216C81.7582 70.76 81.6622 71.176 81.5982 71.464L80.5422 76H76.7022L72.9822 62.896H76.5342L78.0462 68.704C78.1582 69.104 78.2542 69.584 78.3342 70.144C78.4302 70.704 78.5182 71.248 78.5982 71.776C78.6782 72.288 78.7342 72.696 78.7662 73H78.8622C78.8782 72.776 78.9102 72.48 78.9582 72.112C79.0062 71.728 79.0622 71.336 79.1262 70.936C79.2062 70.536 79.2702 70.176 79.3182 69.856C79.3822 69.52 79.4302 69.296 79.4622 69.184L81.0702 62.896H85.0062L86.5422 69.184C86.6062 69.408 86.6782 69.768 86.7582 70.264C86.8542 70.76 86.9342 71.264 86.9982 71.776C87.0782 72.288 87.1182 72.696 87.1182 73H87.2142C87.2462 72.728 87.3022 72.336 87.3822 71.824C87.4622 71.296 87.5502 70.744 87.6462 70.168C87.7582 69.592 87.8702 69.104 87.9822 68.704L89.5422 62.896H93.0462L89.2782 76H85.3902ZM106.779 62.632C108.539 62.632 109.883 63.016 110.811 63.784C111.755 64.536 112.227 65.696 112.227 67.264V76H109.731L109.035 74.224H108.939C108.379 74.928 107.787 75.44 107.163 75.76C106.539 76.08 105.683 76.24 104.595 76.24C103.427 76.24 102.459 75.904 101.691 75.232C100.923 74.544 100.539 73.496 100.539 72.088C100.539 70.696 101.027 69.672 102.003 69.016C102.979 68.344 104.443 67.976 106.395 67.912L108.675 67.84V67.264C108.675 66.576 108.491 66.072 108.123 65.752C107.771 65.432 107.275 65.272 106.635 65.272C105.995 65.272 105.371 65.368 104.763 65.56C104.155 65.736 103.547 65.96 102.939 66.232L101.763 63.808C102.467 63.44 103.243 63.152 104.091 62.944C104.955 62.736 105.851 62.632 106.779 62.632ZM108.675 69.928L107.283 69.976C106.131 70.008 105.331 70.216 104.883 70.6C104.435 70.984 104.211 71.488 104.211 72.112C104.211 72.656 104.371 73.048 104.691 73.288C105.011 73.512 105.427 73.624 105.939 73.624C106.707 73.624 107.355 73.4 107.883 72.952C108.411 72.488 108.675 71.84 108.675 71.008V69.928ZM119.464 57.76V62.008C119.464 62.504 119.448 62.992 119.416 63.472C119.384 63.952 119.352 64.328 119.32 64.6H119.464C119.816 64.056 120.288 63.6 120.88 63.232C121.472 62.848 122.24 62.656 123.184 62.656C124.656 62.656 125.848 63.232 126.76 64.384C127.672 65.52 128.128 67.2 128.128 69.424C128.128 71.664 127.664 73.36 126.736 74.512C125.808 75.664 124.592 76.24 123.088 76.24C122.128 76.24 121.368 76.072 120.808 75.736C120.264 75.384 119.816 74.992 119.464 74.56H119.224L118.624 76H115.888V57.76H119.464ZM122.032 65.512C121.104 65.512 120.448 65.8 120.064 66.376C119.696 66.952 119.496 67.832 119.464 69.016V69.4C119.464 70.664 119.648 71.64 120.016 72.328C120.4 73 121.088 73.336 122.08 73.336C122.816 73.336 123.4 73 123.832 72.328C124.264 71.64 124.48 70.656 124.48 69.376C124.48 68.096 124.256 67.136 123.808 66.496C123.376 65.84 122.784 65.512 122.032 65.512ZM142.979 69.424C142.979 71.6 142.403 73.28 141.251 74.464C140.115 75.648 138.563 76.24 136.595 76.24C135.379 76.24 134.291 75.976 133.331 75.448C132.387 74.92 131.643 74.152 131.099 73.144C130.555 72.12 130.283 70.88 130.283 69.424C130.283 67.248 130.851 65.576 131.987 64.408C133.123 63.24 134.683 62.656 136.667 62.656C137.899 62.656 138.987 62.92 139.931 63.448C140.875 63.976 141.619 64.744 142.163 65.752C142.707 66.744 142.979 67.968 142.979 69.424ZM133.931 69.424C133.931 70.72 134.139 71.704 134.555 72.376C134.987 73.032 135.683 73.36 136.643 73.36C137.587 73.36 138.267 73.032 138.683 72.376C139.115 71.704 139.331 70.72 139.331 69.424C139.331 68.128 139.115 67.16 138.683 66.52C138.267 65.864 137.579 65.536 136.619 65.536C135.675 65.536 134.987 65.864 134.555 66.52C134.139 67.16 133.931 68.128 133.931 69.424ZM157.959 62.896V76H155.223L154.743 74.32H154.551C154.135 74.992 153.559 75.48 152.823 75.784C152.103 76.088 151.335 76.24 150.519 76.24C149.111 76.24 147.983 75.864 147.135 75.112C146.287 74.344 145.863 73.12 145.863 71.44V62.896H149.439V70.552C149.439 71.48 149.607 72.184 149.943 72.664C150.279 73.144 150.815 73.384 151.551 73.384C152.639 73.384 153.383 73.016 153.783 72.28C154.183 71.528 154.383 70.456 154.383 69.064V62.896H157.959ZM167.228 73.384C167.628 73.384 168.012 73.344 168.38 73.264C168.748 73.184 169.116 73.088 169.484 72.976V75.64C169.1 75.8 168.62 75.936 168.044 76.048C167.484 76.176 166.868 76.24 166.196 76.24C165.412 76.24 164.708 76.112 164.084 75.856C163.476 75.6 162.988 75.16 162.62 74.536C162.268 73.896 162.092 73.016 162.092 71.896V65.584H160.388V64.072L162.356 62.872L163.388 60.112H165.668V62.896H169.34V65.584H165.668V71.896C165.668 72.392 165.812 72.768 166.1 73.024C166.388 73.264 166.764 73.384 167.228 73.384ZM189.125 76L188.117 71.416C188.053 71.144 187.957 70.744 187.829 70.216C187.717 69.672 187.589 69.096 187.445 68.488C187.301 67.864 187.165 67.296 187.037 66.784C186.909 66.256 186.821 65.872 186.773 65.632H186.677C186.629 65.872 186.541 66.256 186.413 66.784C186.301 67.296 186.173 67.864 186.029 68.488C185.885 69.096 185.749 69.672 185.621 70.216C185.493 70.76 185.397 71.176 185.333 71.464L184.277 76H180.437L176.717 62.896H180.269L181.781 68.704C181.893 69.104 181.989 69.584 182.069 70.144C182.165 70.704 182.253 71.248 182.333 71.776C182.413 72.288 182.469 72.696 182.501 73H182.597C182.613 72.776 182.645 72.48 182.693 72.112C182.741 71.728 182.797 71.336 182.861 70.936C182.941 70.536 183.005 70.176 183.053 69.856C183.117 69.52 183.165 69.296 183.197 69.184L184.805 62.896H188.741L190.277 69.184C190.341 69.408 190.413 69.768 190.493 70.264C190.589 70.76 190.669 71.264 190.733 71.776C190.813 72.288 190.853 72.696 190.853 73H190.949C190.981 72.728 191.037 72.336 191.117 71.824C191.197 71.296 191.285 70.744 191.381 70.168C191.493 69.592 191.605 69.104 191.717 68.704L193.277 62.896H196.781L193.013 76H189.125ZM204.303 62.656C206.111 62.656 207.543 63.176 208.599 64.216C209.655 65.24 210.183 66.704 210.183 68.608V70.336H201.735C201.767 71.344 202.063 72.136 202.623 72.712C203.199 73.288 203.991 73.576 204.999 73.576C205.847 73.576 206.615 73.496 207.303 73.336C207.991 73.16 208.703 72.896 209.439 72.544V75.304C208.799 75.624 208.119 75.856 207.399 76C206.695 76.16 205.839 76.24 204.831 76.24C203.519 76.24 202.359 76 201.351 75.52C200.343 75.024 199.551 74.28 198.975 73.288C198.399 72.296 198.111 71.048 198.111 69.544C198.111 68.008 198.367 66.736 198.879 65.728C199.407 64.704 200.135 63.936 201.063 63.424C201.991 62.912 203.071 62.656 204.303 62.656ZM204.327 65.2C203.639 65.2 203.063 65.424 202.599 65.872C202.151 66.32 201.887 67.016 201.807 67.96H206.823C206.807 67.16 206.599 66.504 206.199 65.992C205.799 65.464 205.175 65.2 204.327 65.2ZM223.565 62.656C225.181 62.656 226.445 63.296 227.357 64.576H227.453L227.741 62.896H230.765V76.024C230.765 77.896 230.213 79.32 229.109 80.296C228.005 81.272 226.373 81.76 224.213 81.76C223.285 81.76 222.421 81.704 221.621 81.592C220.837 81.48 220.069 81.28 219.317 80.992V78.136C220.933 78.808 222.637 79.144 224.429 79.144C226.269 79.144 227.189 78.152 227.189 76.168V75.904C227.189 75.632 227.197 75.352 227.213 75.064C227.245 74.776 227.269 74.52 227.285 74.296H227.189C226.741 74.984 226.205 75.48 225.581 75.784C224.957 76.088 224.253 76.24 223.469 76.24C221.917 76.24 220.701 75.648 219.821 74.464C218.957 73.264 218.525 71.6 218.525 69.472C218.525 67.328 218.973 65.656 219.869 64.456C220.765 63.256 221.997 62.656 223.565 62.656ZM224.693 65.56C223.013 65.56 222.173 66.88 222.173 69.52C222.173 72.128 223.029 73.432 224.741 73.432C225.653 73.432 226.325 73.176 226.757 72.664C227.205 72.136 227.429 71.224 227.429 69.928V69.496C227.429 68.088 227.213 67.08 226.781 66.472C226.349 65.864 225.653 65.56 224.693 65.56ZM239.905 62.656C241.713 62.656 243.145 63.176 244.201 64.216C245.257 65.24 245.785 66.704 245.785 68.608V70.336H237.337C237.369 71.344 237.665 72.136 238.225 72.712C238.801 73.288 239.593 73.576 240.601 73.576C241.449 73.576 242.217 73.496 242.905 73.336C243.593 73.16 244.305 72.896 245.041 72.544V75.304C244.401 75.624 243.721 75.856 243.001 76C242.297 76.16 241.441 76.24 240.433 76.24C239.121 76.24 237.961 76 236.953 75.52C235.945 75.024 235.153 74.28 234.577 73.288C234.001 72.296 233.713 71.048 233.713 69.544C233.713 68.008 233.969 66.736 234.481 65.728C235.009 64.704 235.737 63.936 236.665 63.424C237.593 62.912 238.673 62.656 239.905 62.656ZM239.929 65.2C239.241 65.2 238.665 65.424 238.201 65.872C237.753 66.32 237.489 67.016 237.409 67.96H242.425C242.409 67.16 242.201 66.504 241.801 65.992C241.401 65.464 240.777 65.2 239.929 65.2ZM254.205 73.384C254.605 73.384 254.989 73.344 255.357 73.264C255.725 73.184 256.093 73.088 256.461 72.976V75.64C256.077 75.8 255.597 75.936 255.021 76.048C254.461 76.176 253.845 76.24 253.173 76.24C252.389 76.24 251.685 76.112 251.061 75.856C250.453 75.6 249.965 75.16 249.597 74.536C249.245 73.896 249.069 73.016 249.069 71.896V65.584H247.365V64.072L249.333 62.872L250.365 60.112H252.645V62.896H256.317V65.584H252.645V71.896C252.645 72.392 252.789 72.768 253.077 73.024C253.365 73.264 253.741 73.384 254.205 73.384ZM277.229 69.424C277.229 71.6 276.653 73.28 275.501 74.464C274.365 75.648 272.813 76.24 270.845 76.24C269.629 76.24 268.541 75.976 267.581 75.448C266.637 74.92 265.893 74.152 265.349 73.144C264.805 72.12 264.533 70.88 264.533 69.424C264.533 67.248 265.101 65.576 266.237 64.408C267.373 63.24 268.933 62.656 270.917 62.656C272.149 62.656 273.237 62.92 274.181 63.448C275.125 63.976 275.869 64.744 276.413 65.752C276.957 66.744 277.229 67.968 277.229 69.424ZM268.181 69.424C268.181 70.72 268.389 71.704 268.805 72.376C269.237 73.032 269.933 73.36 270.893 73.36C271.837 73.36 272.517 73.032 272.933 72.376C273.365 71.704 273.581 70.72 273.581 69.424C273.581 68.128 273.365 67.16 272.933 66.52C272.517 65.864 271.829 65.536 270.869 65.536C269.925 65.536 269.237 65.864 268.805 66.52C268.389 67.16 268.181 68.128 268.181 69.424ZM287.433 65.584H284.337V76H280.761V65.584H278.793V63.856L280.761 62.896V61.936C280.761 60.816 280.945 59.952 281.312 59.344C281.697 58.72 282.233 58.28 282.921 58.024C283.625 57.768 284.449 57.64 285.393 57.64C286.097 57.64 286.729 57.696 287.289 57.808C287.865 57.92 288.329 58.048 288.681 58.192L287.769 60.808C287.497 60.728 287.201 60.656 286.881 60.592C286.561 60.512 286.193 60.472 285.777 60.472C285.281 60.472 284.913 60.624 284.673 60.928C284.449 61.232 284.337 61.616 284.337 62.08V62.896H287.433V65.584ZM296.721 65.584H293.625V76H290.049V65.584H288.081V63.856L290.049 62.896V61.936C290.049 60.816 290.233 59.952 290.601 59.344C290.985 58.72 291.521 58.28 292.209 58.024C292.913 57.768 293.737 57.64 294.681 57.64C295.385 57.64 296.017 57.696 296.577 57.808C297.153 57.92 297.617 58.048 297.969 58.192L297.057 60.808C296.785 60.728 296.489 60.656 296.169 60.592C295.849 60.512 295.481 60.472 295.065 60.472C294.569 60.472 294.201 60.624 293.961 60.928C293.737 61.232 293.625 61.616 293.625 62.08V62.896H296.721V65.584ZM310.525 73.384C310.925 73.384 311.309 73.344 311.677 73.264C312.045 73.184 312.413 73.088 312.781 72.976V75.64C312.397 75.8 311.917 75.936 311.341 76.048C310.781 76.176 310.165 76.24 309.493 76.24C308.709 76.24 308.005 76.112 307.381 75.856C306.773 75.6 306.285 75.16 305.917 74.536C305.565 73.896 305.389 73.016 305.389 71.896V65.584H303.685V64.072L305.653 62.872L306.685 60.112H308.965V62.896H312.637V65.584H308.965V71.896C308.965 72.392 309.109 72.768 309.397 73.024C309.685 73.264 310.061 73.384 310.525 73.384ZM318.987 57.76V61.48C318.987 62.12 318.963 62.736 318.915 63.328C318.883 63.92 318.851 64.336 318.819 64.576H319.011C319.427 63.904 319.963 63.416 320.619 63.112C321.275 62.808 322.003 62.656 322.803 62.656C324.227 62.656 325.363 63.04 326.211 63.808C327.075 64.56 327.507 65.776 327.507 67.456V76H323.931V68.344C323.931 66.456 323.227 65.512 321.819 65.512C320.747 65.512 320.003 65.888 319.587 66.64C319.187 67.376 318.987 68.44 318.987 69.832V76H315.411V57.76H318.987ZM332.985 57.76C333.513 57.76 333.969 57.888 334.353 58.144C334.737 58.384 334.929 58.84 334.929 59.512C334.929 60.168 334.737 60.624 334.353 60.88C333.969 61.136 333.513 61.264 332.985 61.264C332.441 61.264 331.977 61.136 331.593 60.88C331.225 60.624 331.041 60.168 331.041 59.512C331.041 58.84 331.225 58.384 331.593 58.144C331.977 57.888 332.441 57.76 332.985 57.76ZM334.761 62.896V76H331.185V62.896H334.761ZM347.641 72.112C347.641 73.44 347.169 74.464 346.225 75.184C345.297 75.888 343.905 76.24 342.049 76.24C341.137 76.24 340.353 76.176 339.697 76.048C339.041 75.936 338.385 75.744 337.729 75.472V72.52C338.433 72.84 339.193 73.104 340.009 73.312C340.825 73.52 341.545 73.624 342.169 73.624C342.873 73.624 343.369 73.52 343.657 73.312C343.961 73.104 344.113 72.832 344.113 72.496C344.113 72.272 344.049 72.072 343.921 71.896C343.809 71.72 343.553 71.52 343.153 71.296C342.753 71.072 342.129 70.784 341.281 70.432C340.465 70.08 339.793 69.736 339.265 69.4C338.737 69.048 338.345 68.632 338.089 68.152C337.833 67.656 337.705 67.04 337.705 66.304C337.705 65.088 338.177 64.176 339.121 63.568C340.065 62.96 341.321 62.656 342.889 62.656C343.705 62.656 344.481 62.736 345.217 62.896C345.953 63.056 346.713 63.32 347.497 63.688L346.417 66.256C345.777 65.984 345.169 65.76 344.593 65.584C344.017 65.392 343.433 65.296 342.841 65.296C341.785 65.296 341.257 65.584 341.257 66.16C341.257 66.368 341.321 66.56 341.449 66.736C341.593 66.896 341.857 67.072 342.241 67.264C342.641 67.456 343.225 67.712 343.993 68.032C344.745 68.336 345.393 68.656 345.937 68.992C346.481 69.312 346.897 69.72 347.185 70.216C347.489 70.696 347.641 71.328 347.641 72.112ZM362.037 62.632C363.797 62.632 365.141 63.016 366.069 63.784C367.013 64.536 367.485 65.696 367.485 67.264V76H364.989L364.293 74.224H364.197C363.637 74.928 363.045 75.44 362.421 75.76C361.797 76.08 360.941 76.24 359.853 76.24C358.685 76.24 357.717 75.904 356.949 75.232C356.181 74.544 355.797 73.496 355.797 72.088C355.797 70.696 356.285 69.672 357.261 69.016C358.237 68.344 359.701 67.976 361.653 67.912L363.933 67.84V67.264C363.933 66.576 363.749 66.072 363.381 65.752C363.029 65.432 362.533 65.272 361.893 65.272C361.253 65.272 360.629 65.368 360.021 65.56C359.413 65.736 358.805 65.96 358.197 66.232L357.021 63.808C357.725 63.44 358.501 63.152 359.349 62.944C360.213 62.736 361.109 62.632 362.037 62.632ZM363.933 69.928L362.541 69.976C361.389 70.008 360.589 70.216 360.141 70.6C359.693 70.984 359.469 71.488 359.469 72.112C359.469 72.656 359.629 73.048 359.949 73.288C360.269 73.512 360.685 73.624 361.197 73.624C361.965 73.624 362.613 73.4 363.141 72.952C363.669 72.488 363.933 71.84 363.933 71.008V69.928ZM378.441 62.656C379.913 62.656 381.105 63.232 382.017 64.384C382.929 65.52 383.385 67.2 383.385 69.424C383.385 71.648 382.913 73.344 381.969 74.512C381.025 75.664 379.817 76.24 378.345 76.24C377.401 76.24 376.649 76.072 376.089 75.736C375.529 75.384 375.073 74.992 374.721 74.56H374.529C374.657 75.232 374.721 75.872 374.721 76.48V81.76H371.145V62.896H374.049L374.553 64.6H374.721C375.073 64.072 375.545 63.616 376.137 63.232C376.729 62.848 377.497 62.656 378.441 62.656ZM377.289 65.512C376.361 65.512 375.705 65.8 375.321 66.376C374.953 66.952 374.753 67.832 374.721 69.016V69.4C374.721 70.664 374.905 71.64 375.273 72.328C375.657 73 376.345 73.336 377.337 73.336C378.153 73.336 378.753 73 379.137 72.328C379.537 71.64 379.737 70.656 379.737 69.376C379.737 66.8 378.921 65.512 377.289 65.512ZM393.629 62.656C395.101 62.656 396.293 63.232 397.205 64.384C398.117 65.52 398.573 67.2 398.573 69.424C398.573 71.648 398.101 73.344 397.157 74.512C396.213 75.664 395.005 76.24 393.533 76.24C392.589 76.24 391.837 76.072 391.277 75.736C390.717 75.384 390.261 74.992 389.909 74.56H389.717C389.845 75.232 389.909 75.872 389.909 76.48V81.76H386.333V62.896H389.237L389.741 64.6H389.909C390.261 64.072 390.733 63.616 391.325 63.232C391.917 62.848 392.685 62.656 393.629 62.656ZM392.477 65.512C391.549 65.512 390.893 65.8 390.509 66.376C390.141 66.952 389.941 67.832 389.909 69.016V69.4C389.909 70.664 390.093 71.64 390.461 72.328C390.845 73 391.533 73.336 392.525 73.336C393.341 73.336 393.941 73 394.325 72.328C394.725 71.64 394.925 70.656 394.925 69.376C394.925 66.8 394.109 65.512 392.477 65.512ZM404.856 73.216L405.024 73.48C404.816 74.328 404.52 75.256 404.136 76.264C403.752 77.272 403.36 78.216 402.96 79.096H400.392C400.616 78.152 400.84 77.144 401.064 76.072C401.288 75 401.456 74.048 401.568 73.216H404.856ZM51.016 105.112C51.016 106.44 50.544 107.464 49.6 108.184C48.672 108.888 47.28 109.24 45.424 109.24C44.512 109.24 43.728 109.176 43.072 109.048C42.416 108.936 41.76 108.744 41.104 108.472V105.52C41.808 105.84 42.568 106.104 43.384 106.312C44.2 106.52 44.92 106.624 45.544 106.624C46.248 106.624 46.744 106.52 47.032 106.312C47.336 106.104 47.488 105.832 47.488 105.496C47.488 105.272 47.424 105.072 47.296 104.896C47.184 104.72 46.928 104.52 46.528 104.296C46.128 104.072 45.504 103.784 44.656 103.432C43.84 103.08 43.168 102.736 42.64 102.4C42.112 102.048 41.72 101.632 41.464 101.152C41.208 100.656 41.08 100.04 41.08 99.304C41.08 98.088 41.552 97.176 42.496 96.568C43.44 95.96 44.696 95.656 46.264 95.656C47.08 95.656 47.856 95.736 48.592 95.896C49.328 96.056 50.088 96.32 50.872 96.688L49.792 99.256C49.152 98.984 48.544 98.76 47.968 98.584C47.392 98.392 46.808 98.296 46.216 98.296C45.16 98.296 44.632 98.584 44.632 99.16C44.632 99.368 44.696 99.56 44.824 99.736C44.968 99.896 45.232 100.072 45.616 100.264C46.016 100.456 46.6 100.712 47.368 101.032C48.12 101.336 48.768 101.656 49.312 101.992C49.856 102.312 50.272 102.72 50.56 103.216C50.864 103.696 51.016 104.328 51.016 105.112ZM59.2017 95.656C61.0097 95.656 62.4417 96.176 63.4977 97.216C64.5537 98.24 65.0817 99.704 65.0817 101.608V103.336H56.6337C56.6657 104.344 56.9617 105.136 57.5217 105.712C58.0977 106.288 58.8897 106.576 59.8977 106.576C60.7457 106.576 61.5137 106.496 62.2017 106.336C62.8897 106.16 63.6017 105.896 64.3377 105.544V108.304C63.6977 108.624 63.0177 108.856 62.2977 109C61.5937 109.16 60.7377 109.24 59.7297 109.24C58.4177 109.24 57.2577 109 56.2497 108.52C55.2417 108.024 54.4497 107.28 53.8737 106.288C53.2977 105.296 53.0097 104.048 53.0097 102.544C53.0097 101.008 53.2657 99.736 53.7777 98.728C54.3057 97.704 55.0337 96.936 55.9617 96.424C56.8897 95.912 57.9697 95.656 59.2017 95.656ZM59.2257 98.2C58.5377 98.2 57.9617 98.424 57.4977 98.872C57.0497 99.32 56.7857 100.016 56.7057 100.96H61.7217C61.7057 100.16 61.4977 99.504 61.0977 98.992C60.6977 98.464 60.0737 98.2 59.2257 98.2ZM75.4214 95.656C76.8294 95.656 77.9574 96.04 78.8054 96.808C79.6534 97.56 80.0774 98.776 80.0774 100.456V109H76.5014V101.344C76.5014 100.4 76.3334 99.696 75.9974 99.232C75.6614 98.752 75.1254 98.512 74.3894 98.512C73.3014 98.512 72.5574 98.888 72.1574 99.64C71.7574 100.376 71.5574 101.44 71.5574 102.832V109H67.9814V95.896H70.7174L71.1974 97.576H71.3894C71.8054 96.904 72.3734 96.416 73.0934 96.112C73.8294 95.808 74.6054 95.656 75.4214 95.656ZM87.9068 109.24C86.4508 109.24 85.2588 108.672 84.3308 107.536C83.4188 106.384 82.9628 104.696 82.9628 102.472C82.9628 100.232 83.4268 98.536 84.3548 97.384C85.2828 96.232 86.4988 95.656 88.0028 95.656C88.9468 95.656 89.7228 95.84 90.3308 96.208C90.9388 96.576 91.4188 97.032 91.7708 97.576H91.8908C91.8428 97.32 91.7868 96.952 91.7228 96.472C91.6588 95.976 91.6268 95.472 91.6268 94.96V90.76H95.2028V109H92.4668L91.7708 107.296H91.6268C91.2748 107.84 90.8028 108.304 90.2108 108.688C89.6188 109.056 88.8508 109.24 87.9068 109.24ZM89.1548 106.384C90.1468 106.384 90.8428 106.096 91.2428 105.52C91.6428 104.928 91.8508 104.048 91.8668 102.88V102.496C91.8668 101.216 91.6668 100.24 91.2668 99.568C90.8828 98.896 90.1628 98.56 89.1068 98.56C88.3228 98.56 87.7068 98.904 87.2588 99.592C86.8108 100.264 86.5868 101.24 86.5868 102.52C86.5868 103.8 86.8108 104.768 87.2588 105.424C87.7068 106.064 88.3388 106.384 89.1548 106.384ZM120.561 95.656C122.049 95.656 123.169 96.04 123.921 96.808C124.689 97.56 125.073 98.776 125.073 100.456V109H121.497V101.344C121.497 99.456 120.841 98.512 119.529 98.512C118.585 98.512 117.913 98.848 117.513 99.52C117.113 100.192 116.913 101.16 116.913 102.424V109H113.337V101.344C113.337 99.456 112.681 98.512 111.369 98.512C110.377 98.512 109.689 98.888 109.305 99.64C108.937 100.376 108.753 101.44 108.753 102.832V109H105.177V95.896H107.913L108.393 97.576H108.585C108.985 96.904 109.529 96.416 110.217 96.112C110.921 95.808 111.649 95.656 112.401 95.656C113.361 95.656 114.177 95.816 114.849 96.136C115.521 96.44 116.033 96.92 116.385 97.576H116.697C117.097 96.904 117.649 96.416 118.353 96.112C119.073 95.808 119.809 95.656 120.561 95.656ZM134.155 95.656C135.963 95.656 137.395 96.176 138.451 97.216C139.507 98.24 140.035 99.704 140.035 101.608V103.336H131.587C131.619 104.344 131.915 105.136 132.475 105.712C133.051 106.288 133.843 106.576 134.851 106.576C135.699 106.576 136.467 106.496 137.155 106.336C137.843 106.16 138.555 105.896 139.291 105.544V108.304C138.651 108.624 137.971 108.856 137.251 109C136.547 109.16 135.691 109.24 134.683 109.24C133.371 109.24 132.211 109 131.203 108.52C130.195 108.024 129.403 107.28 128.827 106.288C128.251 105.296 127.963 104.048 127.963 102.544C127.963 101.008 128.219 99.736 128.731 98.728C129.259 97.704 129.987 96.936 130.915 96.424C131.843 95.912 132.923 95.656 134.155 95.656ZM134.179 98.2C133.491 98.2 132.915 98.424 132.451 98.872C132.003 99.32 131.739 100.016 131.659 100.96H136.675C136.659 100.16 136.451 99.504 136.051 98.992C135.651 98.464 135.027 98.2 134.179 98.2ZM147.297 95.896H151.209L153.681 103.264C153.809 103.616 153.905 103.984 153.969 104.368C154.033 104.736 154.081 105.128 154.113 105.544H154.185C154.233 105.128 154.297 104.736 154.377 104.368C154.473 103.984 154.577 103.616 154.689 103.264L157.113 95.896H160.953L155.409 110.68C154.913 112.04 154.185 113.056 153.225 113.728C152.281 114.416 151.185 114.76 149.937 114.76C149.537 114.76 149.185 114.736 148.881 114.688C148.593 114.656 148.337 114.616 148.113 114.568V111.736C148.289 111.768 148.497 111.8 148.737 111.832C148.993 111.864 149.257 111.88 149.529 111.88C150.281 111.88 150.873 111.648 151.305 111.184C151.753 110.736 152.081 110.192 152.289 109.552L152.505 108.904L147.297 95.896ZM174.737 102.424C174.737 104.6 174.161 106.28 173.009 107.464C171.873 108.648 170.321 109.24 168.353 109.24C167.137 109.24 166.049 108.976 165.089 108.448C164.145 107.92 163.401 107.152 162.857 106.144C162.313 105.12 162.041 103.88 162.041 102.424C162.041 100.248 162.609 98.576 163.745 97.408C164.881 96.24 166.441 95.656 168.425 95.656C169.657 95.656 170.745 95.92 171.689 96.448C172.633 96.976 173.377 97.744 173.921 98.752C174.465 99.744 174.737 100.968 174.737 102.424ZM165.689 102.424C165.689 103.72 165.897 104.704 166.313 105.376C166.745 106.032 167.441 106.36 168.401 106.36C169.345 106.36 170.025 106.032 170.441 105.376C170.873 104.704 171.089 103.72 171.089 102.424C171.089 101.128 170.873 100.16 170.441 99.52C170.025 98.864 169.337 98.536 168.377 98.536C167.433 98.536 166.745 98.864 166.313 99.52C165.897 100.16 165.689 101.128 165.689 102.424ZM189.716 95.896V109H186.98L186.5 107.32H186.308C185.892 107.992 185.316 108.48 184.58 108.784C183.86 109.088 183.092 109.24 182.276 109.24C180.868 109.24 179.74 108.864 178.892 108.112C178.044 107.344 177.62 106.12 177.62 104.44V95.896H181.196V103.552C181.196 104.48 181.364 105.184 181.7 105.664C182.036 106.144 182.572 106.384 183.308 106.384C184.396 106.384 185.14 106.016 185.54 105.28C185.94 104.528 186.14 103.456 186.14 102.064V95.896H189.716ZM200.786 95.656C200.962 95.656 201.17 95.664 201.41 95.68C201.65 95.696 201.842 95.72 201.986 95.752L201.722 99.112C201.61 99.08 201.442 99.056 201.218 99.04C201.01 99.008 200.826 98.992 200.666 98.992C200.058 98.992 199.474 99.104 198.914 99.328C198.354 99.536 197.898 99.88 197.546 100.36C197.21 100.84 197.042 101.496 197.042 102.328V109H193.466V95.896H196.178L196.706 98.104H196.874C197.258 97.432 197.786 96.856 198.458 96.376C199.13 95.896 199.906 95.656 200.786 95.656ZM218.039 95.656C219.447 95.656 220.575 96.04 221.423 96.808C222.271 97.56 222.695 98.776 222.695 100.456V109H219.119V101.344C219.119 100.4 218.951 99.696 218.615 99.232C218.279 98.752 217.743 98.512 217.007 98.512C215.919 98.512 215.175 98.888 214.775 99.64C214.375 100.376 214.175 101.44 214.175 102.832V109H210.599V95.896H213.335L213.815 97.576H214.007C214.423 96.904 214.991 96.416 215.711 96.112C216.447 95.808 217.223 95.656 218.039 95.656ZM238.396 95.896V109H235.66L235.18 107.32H234.988C234.572 107.992 233.996 108.48 233.26 108.784C232.54 109.088 231.772 109.24 230.956 109.24C229.548 109.24 228.42 108.864 227.572 108.112C226.724 107.344 226.3 106.12 226.3 104.44V95.896H229.876V103.552C229.876 104.48 230.044 105.184 230.38 105.664C230.716 106.144 231.252 106.384 231.988 106.384C233.076 106.384 233.82 106.016 234.22 105.28C234.62 104.528 234.82 103.456 234.82 102.064V95.896H238.396ZM257.529 95.656C259.017 95.656 260.137 96.04 260.889 96.808C261.657 97.56 262.041 98.776 262.041 100.456V109H258.465V101.344C258.465 99.456 257.809 98.512 256.497 98.512C255.553 98.512 254.881 98.848 254.481 99.52C254.081 100.192 253.881 101.16 253.881 102.424V109H250.305V101.344C250.305 99.456 249.649 98.512 248.337 98.512C247.345 98.512 246.657 98.888 246.273 99.64C245.905 100.376 245.721 101.44 245.721 102.832V109H242.145V95.896H244.881L245.361 97.576H245.553C245.953 96.904 246.497 96.416 247.185 96.112C247.889 95.808 248.617 95.656 249.369 95.656C250.329 95.656 251.145 95.816 251.817 96.136C252.489 96.44 253.001 96.92 253.353 97.576H253.665C254.065 96.904 254.617 96.416 255.321 96.112C256.041 95.808 256.777 95.656 257.529 95.656ZM269.3 90.76V95.008C269.3 95.504 269.284 95.992 269.252 96.472C269.22 96.952 269.188 97.328 269.156 97.6H269.3C269.652 97.056 270.124 96.6 270.716 96.232C271.308 95.848 272.076 95.656 273.02 95.656C274.492 95.656 275.684 96.232 276.596 97.384C277.508 98.52 277.964 100.2 277.964 102.424C277.964 104.664 277.5 106.36 276.572 107.512C275.644 108.664 274.428 109.24 272.924 109.24C271.964 109.24 271.204 109.072 270.644 108.736C270.1 108.384 269.652 107.992 269.3 107.56H269.06L268.46 109H265.724V90.76H269.3ZM271.868 98.512C270.94 98.512 270.284 98.8 269.9 99.376C269.532 99.952 269.332 100.832 269.3 102.016V102.4C269.3 103.664 269.484 104.64 269.852 105.328C270.236 106 270.924 106.336 271.916 106.336C272.652 106.336 273.236 106 273.668 105.328C274.1 104.64 274.316 103.656 274.316 102.376C274.316 101.096 274.092 100.136 273.644 99.496C273.212 98.84 272.62 98.512 271.868 98.512ZM286.311 95.656C288.119 95.656 289.551 96.176 290.607 97.216C291.663 98.24 292.191 99.704 292.191 101.608V103.336H283.743C283.775 104.344 284.071 105.136 284.631 105.712C285.207 106.288 285.999 106.576 287.007 106.576C287.855 106.576 288.623 106.496 289.311 106.336C289.999 106.16 290.711 105.896 291.447 105.544V108.304C290.807 108.624 290.127 108.856 289.407 109C288.703 109.16 287.847 109.24 286.839 109.24C285.527 109.24 284.367 109 283.359 108.52C282.351 108.024 281.559 107.28 280.983 106.288C280.407 105.296 280.119 104.048 280.119 102.544C280.119 101.008 280.375 99.736 280.887 98.728C281.415 97.704 282.143 96.936 283.071 96.424C283.999 95.912 285.079 95.656 286.311 95.656ZM286.335 98.2C285.647 98.2 285.071 98.424 284.607 98.872C284.159 99.32 283.895 100.016 283.815 100.96H288.831C288.815 100.16 288.607 99.504 288.207 98.992C287.807 98.464 287.183 98.2 286.335 98.2ZM302.411 95.656C302.587 95.656 302.795 95.664 303.035 95.68C303.275 95.696 303.467 95.72 303.611 95.752L303.347 99.112C303.235 99.08 303.067 99.056 302.843 99.04C302.635 99.008 302.451 98.992 302.291 98.992C301.683 98.992 301.099 99.104 300.539 99.328C299.979 99.536 299.523 99.88 299.171 100.36C298.835 100.84 298.667 101.496 298.667 102.328V109H295.091V95.896H297.803L298.331 98.104H298.499C298.883 97.432 299.411 96.856 300.083 96.376C300.755 95.896 301.531 95.656 302.411 95.656ZM307.357 103.312V102.448C307.357 101.648 307.525 100.976 307.861 100.432C308.197 99.888 308.773 99.32 309.589 98.728C310.309 98.216 310.821 97.776 311.125 97.408C311.445 97.024 311.605 96.576 311.605 96.064C311.605 95.552 311.413 95.168 311.029 94.912C310.661 94.64 310.141 94.504 309.469 94.504C308.797 94.504 308.133 94.608 307.477 94.816C306.821 95.024 306.149 95.304 305.461 95.656L304.189 93.088C304.973 92.656 305.821 92.304 306.733 92.032C307.645 91.76 308.645 91.624 309.733 91.624C311.397 91.624 312.685 92.024 313.597 92.824C314.525 93.624 314.989 94.64 314.989 95.872C314.989 96.528 314.885 97.096 314.677 97.576C314.469 98.056 314.157 98.504 313.741 98.92C313.325 99.32 312.805 99.752 312.181 100.216C311.717 100.552 311.357 100.84 311.101 101.08C310.845 101.32 310.669 101.552 310.573 101.776C310.493 102 310.453 102.28 310.453 102.616V103.312H307.357ZM306.973 107.32C306.973 106.584 307.173 106.072 307.573 105.784C307.973 105.48 308.461 105.328 309.037 105.328C309.597 105.328 310.077 105.48 310.477 105.784C310.877 106.072 311.077 106.584 311.077 107.32C311.077 108.024 310.877 108.536 310.477 108.856C310.077 109.16 309.597 109.312 309.037 109.312C308.461 109.312 307.973 109.16 307.573 108.856C307.173 108.536 306.973 108.024 306.973 107.32ZM318.795 103.312V102.448C318.795 101.648 318.963 100.976 319.299 100.432C319.635 99.888 320.211 99.32 321.027 98.728C321.747 98.216 322.259 97.776 322.563 97.408C322.883 97.024 323.043 96.576 323.043 96.064C323.043 95.552 322.851 95.168 322.467 94.912C322.099 94.64 321.579 94.504 320.907 94.504C320.235 94.504 319.571 94.608 318.915 94.816C318.259 95.024 317.587 95.304 316.899 95.656L315.627 93.088C316.411 92.656 317.259 92.304 318.171 92.032C319.083 91.76 320.083 91.624 321.171 91.624C322.835 91.624 324.123 92.024 325.035 92.824C325.963 93.624 326.427 94.64 326.427 95.872C326.427 96.528 326.323 97.096 326.115 97.576C325.907 98.056 325.595 98.504 325.179 98.92C324.763 99.32 324.243 99.752 323.619 100.216C323.155 100.552 322.795 100.84 322.539 101.08C322.283 101.32 322.107 101.552 322.011 101.776C321.931 102 321.891 102.28 321.891 102.616V103.312H318.795ZM318.411 107.32C318.411 106.584 318.611 106.072 319.011 105.784C319.411 105.48 319.899 105.328 320.475 105.328C321.035 105.328 321.515 105.48 321.915 105.784C322.315 106.072 322.515 106.584 322.515 107.32C322.515 108.024 322.315 108.536 321.915 108.856C321.515 109.16 321.035 109.312 320.475 109.312C319.899 109.312 319.411 109.16 319.011 108.856C318.611 108.536 318.411 108.024 318.411 107.32ZM341.795 109H333.995V106.936L336.083 105.976V94.888L333.995 93.928V91.864H341.795V93.928L339.707 94.888V105.976L341.795 106.936V109ZM354.237 90.76V94.48C354.237 95.12 354.213 95.736 354.165 96.328C354.133 96.92 354.101 97.336 354.069 97.576H354.261C354.677 96.904 355.213 96.416 355.869 96.112C356.525 95.808 357.253 95.656 358.053 95.656C359.477 95.656 360.613 96.04 361.461 96.808C362.325 97.56 362.757 98.776 362.757 100.456V109H359.181V101.344C359.181 99.456 358.477 98.512 357.069 98.512C355.997 98.512 355.253 98.888 354.837 99.64C354.437 100.376 354.237 101.44 354.237 102.832V109H350.661V90.76H354.237ZM371.811 95.632C373.571 95.632 374.915 96.016 375.843 96.784C376.787 97.536 377.259 98.696 377.259 100.264V109H374.763L374.067 107.224H373.971C373.411 107.928 372.819 108.44 372.195 108.76C371.571 109.08 370.715 109.24 369.627 109.24C368.459 109.24 367.491 108.904 366.723 108.232C365.955 107.544 365.571 106.496 365.571 105.088C365.571 103.696 366.059 102.672 367.035 102.016C368.011 101.344 369.475 100.976 371.427 100.912L373.707 100.84V100.264C373.707 99.576 373.523 99.072 373.155 98.752C372.803 98.432 372.307 98.272 371.667 98.272C371.027 98.272 370.403 98.368 369.795 98.56C369.187 98.736 368.579 98.96 367.971 99.232L366.795 96.808C367.499 96.44 368.275 96.152 369.123 95.944C369.987 95.736 370.883 95.632 371.811 95.632ZM373.707 102.928L372.315 102.976C371.163 103.008 370.363 103.216 369.915 103.6C369.467 103.984 369.243 104.488 369.243 105.112C369.243 105.656 369.403 106.048 369.723 106.288C370.043 106.512 370.459 106.624 370.971 106.624C371.739 106.624 372.387 106.4 372.915 105.952C373.443 105.488 373.707 104.84 373.707 104.008V102.928ZM384.039 109L379.047 95.896H382.791L385.311 103.36C385.455 103.808 385.567 104.272 385.647 104.752C385.743 105.232 385.799 105.664 385.815 106.048H385.911C385.959 105.184 386.135 104.288 386.439 103.36L388.959 95.896H392.703L387.711 109H384.039ZM399.983 95.656C401.791 95.656 403.223 96.176 404.279 97.216C405.335 98.24 405.863 99.704 405.863 101.608V103.336H397.415C397.447 104.344 397.743 105.136 398.303 105.712C398.879 106.288 399.671 106.576 400.679 106.576C401.527 106.576 402.295 106.496 402.983 106.336C403.671 106.16 404.383 105.896 405.119 105.544V108.304C404.479 108.624 403.799 108.856 403.079 109C402.375 109.16 401.519 109.24 400.511 109.24C399.199 109.24 398.039 109 397.031 108.52C396.023 108.024 395.231 107.28 394.655 106.288C394.079 105.296 393.791 104.048 393.791 102.544C393.791 101.008 394.047 99.736 394.559 98.728C395.087 97.704 395.815 96.936 396.743 96.424C397.671 95.912 398.751 95.656 399.983 95.656ZM400.007 98.2C399.319 98.2 398.743 98.424 398.279 98.872C397.831 99.32 397.567 100.016 397.487 100.96H402.503C402.487 100.16 402.279 99.504 401.879 98.992C401.479 98.464 400.855 98.2 400.007 98.2ZM47.392 139.384C47.792 139.384 48.176 139.344 48.544 139.264C48.912 139.184 49.28 139.088 49.648 138.976V141.64C49.264 141.8 48.784 141.936 48.208 142.048C47.648 142.176 47.032 142.24 46.36 142.24C45.576 142.24 44.872 142.112 44.248 141.856C43.64 141.6 43.152 141.16 42.784 140.536C42.432 139.896 42.256 139.016 42.256 137.896V131.584H40.552V130.072L42.52 128.872L43.552 126.112H45.832V128.896H49.504V131.584H45.832V137.896C45.832 138.392 45.976 138.768 46.264 139.024C46.552 139.264 46.928 139.384 47.392 139.384ZM64.1823 135.424C64.1823 137.6 63.6063 139.28 62.4543 140.464C61.3183 141.648 59.7663 142.24 57.7983 142.24C56.5823 142.24 55.4943 141.976 54.5343 141.448C53.5903 140.92 52.8463 140.152 52.3023 139.144C51.7583 138.12 51.4863 136.88 51.4863 135.424C51.4863 133.248 52.0543 131.576 53.1903 130.408C54.3263 129.24 55.8863 128.656 57.8703 128.656C59.1023 128.656 60.1903 128.92 61.1343 129.448C62.0783 129.976 62.8223 130.744 63.3663 131.752C63.9103 132.744 64.1823 133.968 64.1823 135.424ZM55.1343 135.424C55.1343 136.72 55.3423 137.704 55.7583 138.376C56.1903 139.032 56.8863 139.36 57.8463 139.36C58.7903 139.36 59.4703 139.032 59.8863 138.376C60.3183 137.704 60.5343 136.72 60.5343 135.424C60.5343 134.128 60.3183 133.16 59.8863 132.52C59.4703 131.864 58.7823 131.536 57.8223 131.536C56.8783 131.536 56.1903 131.864 55.7583 132.52C55.3423 133.16 55.1343 134.128 55.1343 135.424ZM80.692 128.656C80.868 128.656 81.076 128.664 81.316 128.68C81.556 128.696 81.748 128.72 81.892 128.752L81.628 132.112C81.516 132.08 81.348 132.056 81.124 132.04C80.916 132.008 80.732 131.992 80.572 131.992C79.964 131.992 79.38 132.104 78.82 132.328C78.26 132.536 77.804 132.88 77.452 133.36C77.116 133.84 76.948 134.496 76.948 135.328V142H73.372V128.896H76.084L76.612 131.104H76.78C77.164 130.432 77.692 129.856 78.364 129.376C79.036 128.896 79.812 128.656 80.692 128.656ZM96.2944 128.896V142H93.5584L93.0784 140.32H92.8864C92.4704 140.992 91.8944 141.48 91.1584 141.784C90.4384 142.088 89.6704 142.24 88.8544 142.24C87.4464 142.24 86.3184 141.864 85.4704 141.112C84.6224 140.344 84.1984 139.12 84.1984 137.44V128.896H87.7744V136.552C87.7744 137.48 87.9424 138.184 88.2784 138.664C88.6144 139.144 89.1504 139.384 89.8864 139.384C90.9744 139.384 91.7184 139.016 92.1184 138.28C92.5184 137.528 92.7184 136.456 92.7184 135.064V128.896H96.2944ZM107.484 128.656C108.892 128.656 110.02 129.04 110.868 129.808C111.716 130.56 112.14 131.776 112.14 133.456V142H108.564V134.344C108.564 133.4 108.396 132.696 108.06 132.232C107.724 131.752 107.188 131.512 106.452 131.512C105.364 131.512 104.62 131.888 104.22 132.64C103.82 133.376 103.62 134.44 103.62 135.832V142H100.044V128.896H102.78L103.26 130.576H103.452C103.868 129.904 104.436 129.416 105.156 129.112C105.892 128.808 106.668 128.656 107.484 128.656ZM119.153 139.216L119.321 139.48C119.113 140.328 118.817 141.256 118.433 142.264C118.049 143.272 117.657 144.216 117.257 145.096H114.689C114.913 144.152 115.137 143.144 115.361 142.072C115.585 141 115.753 140.048 115.865 139.216H119.153ZM134.415 139.384C134.815 139.384 135.199 139.344 135.567 139.264C135.935 139.184 136.303 139.088 136.671 138.976V141.64C136.287 141.8 135.807 141.936 135.231 142.048C134.671 142.176 134.055 142.24 133.383 142.24C132.599 142.24 131.895 142.112 131.271 141.856C130.663 141.6 130.175 141.16 129.807 140.536C129.455 139.896 129.279 139.016 129.279 137.896V131.584H127.575V130.072L129.543 128.872L130.575 126.112H132.855V128.896H136.527V131.584H132.855V137.896C132.855 138.392 132.999 138.768 133.287 139.024C133.575 139.264 133.951 139.384 134.415 139.384ZM141.99 135.304L137.766 128.896H141.822L144.366 133.072L146.934 128.896H150.99L146.718 135.304L151.182 142H147.126L144.366 137.512L141.606 142H137.55L141.99 135.304ZM158.697 139.384C159.097 139.384 159.481 139.344 159.849 139.264C160.217 139.184 160.585 139.088 160.953 138.976V141.64C160.569 141.8 160.089 141.936 159.513 142.048C158.953 142.176 158.337 142.24 157.665 142.24C156.881 142.24 156.177 142.112 155.553 141.856C154.945 141.6 154.457 141.16 154.089 140.536C153.737 139.896 153.561 139.016 153.561 137.896V131.584H151.857V130.072L153.825 128.872L154.857 126.112H157.137V128.896H160.809V131.584H157.137V137.896C157.137 138.392 157.281 138.768 157.569 139.024C157.857 139.264 158.233 139.384 158.697 139.384ZM167.945 128.896H171.857L174.329 136.264C174.457 136.616 174.553 136.984 174.617 137.368C174.681 137.736 174.729 138.128 174.761 138.544H174.833C174.881 138.128 174.945 137.736 175.025 137.368C175.121 136.984 175.225 136.616 175.337 136.264L177.761 128.896H181.601L176.057 143.68C175.561 145.04 174.833 146.056 173.873 146.728C172.929 147.416 171.833 147.76 170.585 147.76C170.185 147.76 169.833 147.736 169.529 147.688C169.241 147.656 168.985 147.616 168.761 147.568V144.736C168.937 144.768 169.145 144.8 169.385 144.832C169.641 144.864 169.905 144.88 170.177 144.88C170.929 144.88 171.521 144.648 171.953 144.184C172.401 143.736 172.729 143.192 172.937 142.552L173.153 141.904L167.945 128.896ZM195.385 135.424C195.385 137.6 194.809 139.28 193.657 140.464C192.521 141.648 190.969 142.24 189.001 142.24C187.785 142.24 186.697 141.976 185.737 141.448C184.793 140.92 184.049 140.152 183.505 139.144C182.961 138.12 182.689 136.88 182.689 135.424C182.689 133.248 183.257 131.576 184.393 130.408C185.529 129.24 187.089 128.656 189.073 128.656C190.305 128.656 191.393 128.92 192.337 129.448C193.281 129.976 194.025 130.744 194.569 131.752C195.113 132.744 195.385 133.968 195.385 135.424ZM186.337 135.424C186.337 136.72 186.545 137.704 186.961 138.376C187.393 139.032 188.089 139.36 189.049 139.36C189.993 139.36 190.673 139.032 191.089 138.376C191.521 137.704 191.737 136.72 191.737 135.424C191.737 134.128 191.521 133.16 191.089 132.52C190.673 131.864 189.985 131.536 189.025 131.536C188.081 131.536 187.393 131.864 186.961 132.52C186.545 133.16 186.337 134.128 186.337 135.424ZM210.365 128.896V142H207.629L207.149 140.32H206.957C206.541 140.992 205.965 141.48 205.229 141.784C204.509 142.088 203.741 142.24 202.925 142.24C201.517 142.24 200.389 141.864 199.541 141.112C198.693 140.344 198.269 139.12 198.269 137.44V128.896H201.845V136.552C201.845 137.48 202.013 138.184 202.349 138.664C202.685 139.144 203.221 139.384 203.957 139.384C205.045 139.384 205.789 139.016 206.189 138.28C206.589 137.528 206.789 136.456 206.789 135.064V128.896H210.365ZM229.493 138.112C229.493 139.44 229.021 140.464 228.077 141.184C227.149 141.888 225.757 142.24 223.901 142.24C222.989 142.24 222.205 142.176 221.549 142.048C220.893 141.936 220.237 141.744 219.581 141.472V138.52C220.285 138.84 221.045 139.104 221.861 139.312C222.677 139.52 223.397 139.624 224.021 139.624C224.725 139.624 225.221 139.52 225.509 139.312C225.813 139.104 225.965 138.832 225.965 138.496C225.965 138.272 225.901 138.072 225.773 137.896C225.661 137.72 225.405 137.52 225.005 137.296C224.605 137.072 223.981 136.784 223.133 136.432C222.317 136.08 221.645 135.736 221.117 135.4C220.589 135.048 220.197 134.632 219.941 134.152C219.685 133.656 219.557 133.04 219.557 132.304C219.557 131.088 220.029 130.176 220.973 129.568C221.917 128.96 223.173 128.656 224.741 128.656C225.557 128.656 226.333 128.736 227.069 128.896C227.805 129.056 228.565 129.32 229.349 129.688L228.269 132.256C227.629 131.984 227.021 131.76 226.445 131.584C225.869 131.392 225.285 131.296 224.693 131.296C223.637 131.296 223.109 131.584 223.109 132.16C223.109 132.368 223.173 132.56 223.301 132.736C223.445 132.896 223.709 133.072 224.093 133.264C224.493 133.456 225.077 133.712 225.845 134.032C226.597 134.336 227.245 134.656 227.789 134.992C228.333 135.312 228.749 135.72 229.037 136.216C229.341 136.696 229.493 137.328 229.493 138.112ZM244.182 135.424C244.182 137.6 243.606 139.28 242.454 140.464C241.318 141.648 239.766 142.24 237.798 142.24C236.582 142.24 235.494 141.976 234.534 141.448C233.59 140.92 232.846 140.152 232.302 139.144C231.758 138.12 231.486 136.88 231.486 135.424C231.486 133.248 232.054 131.576 233.19 130.408C234.326 129.24 235.886 128.656 237.87 128.656C239.102 128.656 240.19 128.92 241.134 129.448C242.078 129.976 242.822 130.744 243.366 131.752C243.91 132.744 244.182 133.968 244.182 135.424ZM235.134 135.424C235.134 136.72 235.342 137.704 235.758 138.376C236.19 139.032 236.886 139.36 237.846 139.36C238.79 139.36 239.47 139.032 239.886 138.376C240.318 137.704 240.534 136.72 240.534 135.424C240.534 134.128 240.318 133.16 239.886 132.52C239.47 131.864 238.782 131.536 237.822 131.536C236.878 131.536 236.19 131.864 235.758 132.52C235.342 133.16 235.134 134.128 235.134 135.424ZM259.042 135.424C259.042 137.6 258.466 139.28 257.314 140.464C256.178 141.648 254.626 142.24 252.658 142.24C251.442 142.24 250.354 141.976 249.394 141.448C248.45 140.92 247.706 140.152 247.162 139.144C246.618 138.12 246.346 136.88 246.346 135.424C246.346 133.248 246.914 131.576 248.05 130.408C249.186 129.24 250.746 128.656 252.73 128.656C253.962 128.656 255.05 128.92 255.994 129.448C256.938 129.976 257.682 130.744 258.226 131.752C258.77 132.744 259.042 133.968 259.042 135.424ZM249.994 135.424C249.994 136.72 250.202 137.704 250.618 138.376C251.05 139.032 251.746 139.36 252.706 139.36C253.65 139.36 254.33 139.032 254.746 138.376C255.178 137.704 255.394 136.72 255.394 135.424C255.394 134.128 255.178 133.16 254.746 132.52C254.33 131.864 253.642 131.536 252.682 131.536C251.738 131.536 251.05 131.864 250.618 132.52C250.202 133.16 249.994 134.128 249.994 135.424ZM269.437 128.656C270.845 128.656 271.973 129.04 272.821 129.808C273.669 130.56 274.093 131.776 274.093 133.456V142H270.517V134.344C270.517 133.4 270.349 132.696 270.013 132.232C269.677 131.752 269.141 131.512 268.405 131.512C267.317 131.512 266.573 131.888 266.173 132.64C265.773 133.376 265.573 134.44 265.573 135.832V142H261.997V128.896H264.733L265.213 130.576H265.405C265.821 129.904 266.389 129.416 267.109 129.112C267.845 128.808 268.621 128.656 269.437 128.656Z" fill="#333333"/>
<rect x="34" y="13" width="353" height="23" rx="11.5" fill="#E0E0E0"/>
</svg>
