<svg width="385" height="145" viewBox="0 0 385 145" fill="none" xmlns="http://www.w3.org/2000/svg">
<rect x="6" y="7" width="379" height="138" rx="50" fill="#141414"/>
<rect x="2.5" y="2.5" width="374" height="133" rx="47.5" fill="#52BDF9" stroke="#141414" stroke-width="5"/>
<path d="M83.264 74.248C83.264 75.768 82.712 76.984 81.608 77.896C80.52 78.792 78.968 79.24 76.952 79.24C75.144 79.24 73.528 78.896 72.104 78.208V74.824C72.92 75.176 73.76 75.504 74.624 75.808C75.504 76.096 76.376 76.24 77.24 76.24C78.136 76.24 78.768 76.072 79.136 75.736C79.52 75.384 79.712 74.944 79.712 74.416C79.712 73.984 79.56 73.616 79.256 73.312C78.968 73.008 78.576 72.728 78.08 72.472C77.584 72.2 77.016 71.912 76.376 71.608C75.976 71.416 75.544 71.192 75.08 70.936C74.616 70.664 74.168 70.336 73.736 69.952C73.32 69.552 72.976 69.072 72.704 68.512C72.432 67.952 72.296 67.28 72.296 66.496C72.296 64.96 72.816 63.768 73.856 62.92C74.896 62.056 76.312 61.624 78.104 61.624C79 61.624 79.848 61.728 80.648 61.936C81.464 62.144 82.312 62.44 83.192 62.824L82.016 65.656C81.232 65.336 80.528 65.088 79.904 64.912C79.28 64.736 78.64 64.648 77.984 64.648C77.296 64.648 76.768 64.808 76.4 65.128C76.032 65.448 75.848 65.864 75.848 66.376C75.848 66.984 76.12 67.464 76.664 67.816C77.208 68.168 78.016 68.6 79.088 69.112C79.968 69.528 80.712 69.96 81.32 70.408C81.944 70.856 82.424 71.384 82.76 71.992C83.096 72.6 83.264 73.352 83.264 74.248ZM91.4668 65.632C93.2268 65.632 94.5708 66.016 95.4988 66.784C96.4428 67.536 96.9148 68.696 96.9148 70.264V79H94.4188L93.7228 77.224H93.6268C93.0668 77.928 92.4748 78.44 91.8508 78.76C91.2268 79.08 90.3708 79.24 89.2828 79.24C88.1148 79.24 87.1468 78.904 86.3788 78.232C85.6108 77.544 85.2268 76.496 85.2268 75.088C85.2268 73.696 85.7148 72.672 86.6908 72.016C87.6668 71.344 89.1308 70.976 91.0828 70.912L93.3628 70.84V70.264C93.3628 69.576 93.1788 69.072 92.8108 68.752C92.4588 68.432 91.9628 68.272 91.3228 68.272C90.6828 68.272 90.0588 68.368 89.4508 68.56C88.8428 68.736 88.2348 68.96 87.6268 69.232L86.4508 66.808C87.1548 66.44 87.9308 66.152 88.7788 65.944C89.6428 65.736 90.5388 65.632 91.4668 65.632ZM93.3628 72.928L91.9708 72.976C90.8188 73.008 90.0188 73.216 89.5708 73.6C89.1228 73.984 88.8988 74.488 88.8988 75.112C88.8988 75.656 89.0588 76.048 89.3788 76.288C89.6988 76.512 90.1148 76.624 90.6268 76.624C91.3948 76.624 92.0428 76.4 92.5708 75.952C93.0988 75.488 93.3628 74.84 93.3628 74.008V72.928ZM98.7031 65.896H102.615L105.087 73.264C105.215 73.616 105.311 73.984 105.375 74.368C105.439 74.736 105.487 75.128 105.519 75.544H105.591C105.639 75.128 105.703 74.736 105.783 74.368C105.879 73.984 105.983 73.616 106.095 73.264L108.519 65.896H112.359L106.815 80.68C106.319 82.04 105.591 83.056 104.631 83.728C103.687 84.416 102.591 84.76 101.343 84.76C100.943 84.76 100.591 84.736 100.287 84.688C99.9991 84.656 99.7431 84.616 99.5191 84.568V81.736C99.6951 81.768 99.9031 81.8 100.143 81.832C100.399 81.864 100.663 81.88 100.935 81.88C101.687 81.88 102.279 81.648 102.711 81.184C103.159 80.736 103.487 80.192 103.695 79.552L103.911 78.904L98.7031 65.896ZM127.77 65.656C129.242 65.656 130.434 66.232 131.346 67.384C132.258 68.52 132.714 70.2 132.714 72.424C132.714 74.648 132.242 76.344 131.298 77.512C130.354 78.664 129.146 79.24 127.674 79.24C126.73 79.24 125.978 79.072 125.418 78.736C124.858 78.384 124.402 77.992 124.05 77.56H123.858C123.986 78.232 124.05 78.872 124.05 79.48V84.76H120.474V65.896H123.378L123.882 67.6H124.05C124.402 67.072 124.874 66.616 125.466 66.232C126.058 65.848 126.826 65.656 127.77 65.656ZM126.618 68.512C125.69 68.512 125.034 68.8 124.65 69.376C124.282 69.952 124.082 70.832 124.05 72.016V72.4C124.05 73.664 124.234 74.64 124.602 75.328C124.986 76 125.674 76.336 126.666 76.336C127.482 76.336 128.082 76 128.466 75.328C128.866 74.64 129.066 73.656 129.066 72.376C129.066 69.8 128.25 68.512 126.618 68.512ZM147.565 72.424C147.565 74.6 146.989 76.28 145.837 77.464C144.701 78.648 143.149 79.24 141.181 79.24C139.965 79.24 138.877 78.976 137.917 78.448C136.973 77.92 136.229 77.152 135.685 76.144C135.141 75.12 134.869 73.88 134.869 72.424C134.869 70.248 135.437 68.576 136.573 67.408C137.709 66.24 139.269 65.656 141.253 65.656C142.485 65.656 143.573 65.92 144.517 66.448C145.461 66.976 146.205 67.744 146.749 68.752C147.293 69.744 147.565 70.968 147.565 72.424ZM138.517 72.424C138.517 73.72 138.725 74.704 139.141 75.376C139.573 76.032 140.269 76.36 141.229 76.36C142.173 76.36 142.853 76.032 143.269 75.376C143.701 74.704 143.917 73.72 143.917 72.424C143.917 71.128 143.701 70.16 143.269 69.52C142.853 68.864 142.165 68.536 141.205 68.536C140.261 68.536 139.573 68.864 139.141 69.52C138.725 70.16 138.517 71.128 138.517 72.424ZM156.04 76.384C156.44 76.384 156.824 76.344 157.192 76.264C157.56 76.184 157.928 76.088 158.296 75.976V78.64C157.912 78.8 157.432 78.936 156.856 79.048C156.296 79.176 155.68 79.24 155.008 79.24C154.224 79.24 153.52 79.112 152.896 78.856C152.288 78.6 151.8 78.16 151.432 77.536C151.08 76.896 150.904 76.016 150.904 74.896V68.584H149.2V67.072L151.168 65.872L152.2 63.112H154.48V65.896H158.152V68.584H154.48V74.896C154.48 75.392 154.624 75.768 154.912 76.024C155.2 76.264 155.576 76.384 156.04 76.384ZM166.303 65.632C168.063 65.632 169.407 66.016 170.335 66.784C171.279 67.536 171.751 68.696 171.751 70.264V79H169.255L168.559 77.224H168.463C167.903 77.928 167.311 78.44 166.687 78.76C166.063 79.08 165.207 79.24 164.119 79.24C162.951 79.24 161.983 78.904 161.215 78.232C160.447 77.544 160.063 76.496 160.063 75.088C160.063 73.696 160.551 72.672 161.527 72.016C162.503 71.344 163.967 70.976 165.919 70.912L168.199 70.84V70.264C168.199 69.576 168.015 69.072 167.647 68.752C167.295 68.432 166.799 68.272 166.159 68.272C165.519 68.272 164.895 68.368 164.287 68.56C163.679 68.736 163.071 68.96 162.463 69.232L161.287 66.808C161.991 66.44 162.767 66.152 163.615 65.944C164.479 65.736 165.375 65.632 166.303 65.632ZM168.199 72.928L166.807 72.976C165.655 73.008 164.855 73.216 164.407 73.6C163.959 73.984 163.735 74.488 163.735 75.112C163.735 75.656 163.895 76.048 164.215 76.288C164.535 76.512 164.951 76.624 165.463 76.624C166.231 76.624 166.879 76.4 167.407 75.952C167.935 75.488 168.199 74.84 168.199 74.008V72.928ZM180.931 76.384C181.331 76.384 181.715 76.344 182.083 76.264C182.451 76.184 182.819 76.088 183.187 75.976V78.64C182.803 78.8 182.323 78.936 181.747 79.048C181.187 79.176 180.571 79.24 179.899 79.24C179.115 79.24 178.411 79.112 177.787 78.856C177.179 78.6 176.691 78.16 176.323 77.536C175.971 76.896 175.795 76.016 175.795 74.896V68.584H174.091V67.072L176.059 65.872L177.091 63.112H179.371V65.896H183.043V68.584H179.371V74.896C179.371 75.392 179.515 75.768 179.803 76.024C180.091 76.264 180.467 76.384 180.931 76.384ZM197.721 72.424C197.721 74.6 197.145 76.28 195.993 77.464C194.857 78.648 193.305 79.24 191.337 79.24C190.121 79.24 189.033 78.976 188.073 78.448C187.129 77.92 186.385 77.152 185.841 76.144C185.297 75.12 185.025 73.88 185.025 72.424C185.025 70.248 185.593 68.576 186.729 67.408C187.865 66.24 189.425 65.656 191.409 65.656C192.641 65.656 193.729 65.92 194.673 66.448C195.617 66.976 196.361 67.744 196.905 68.752C197.449 69.744 197.721 70.968 197.721 72.424ZM188.673 72.424C188.673 73.72 188.881 74.704 189.297 75.376C189.729 76.032 190.425 76.36 191.385 76.36C192.329 76.36 193.009 76.032 193.425 75.376C193.857 74.704 194.073 73.72 194.073 72.424C194.073 71.128 193.857 70.16 193.425 69.52C193.009 68.864 192.321 68.536 191.361 68.536C190.417 68.536 189.729 68.864 189.297 69.52C188.881 70.16 188.673 71.128 188.673 72.424ZM208.711 60.76C209.239 60.76 209.695 60.888 210.079 61.144C210.463 61.384 210.655 61.84 210.655 62.512C210.655 63.168 210.463 63.624 210.079 63.88C209.695 64.136 209.239 64.264 208.711 64.264C208.167 64.264 207.703 64.136 207.319 63.88C206.951 63.624 206.767 63.168 206.767 62.512C206.767 61.84 206.951 61.384 207.319 61.144C207.703 60.888 208.167 60.76 208.711 60.76ZM210.487 65.896V79H206.911V65.896H210.487ZM221.472 68.584H218.376V79H214.8V68.584H212.832V66.856L214.8 65.896V64.936C214.8 63.816 214.984 62.952 215.352 62.344C215.736 61.72 216.272 61.28 216.96 61.024C217.664 60.768 218.488 60.64 219.432 60.64C220.136 60.64 220.768 60.696 221.328 60.808C221.904 60.92 222.368 61.048 222.72 61.192L221.808 63.808C221.536 63.728 221.24 63.656 220.92 63.592C220.6 63.512 220.232 63.472 219.816 63.472C219.32 63.472 218.952 63.624 218.712 63.928C218.488 64.232 218.376 64.616 218.376 65.08V65.896H221.472V68.584ZM241.763 65.896V79H239.027L238.547 77.32H238.355C237.939 77.992 237.363 78.48 236.627 78.784C235.907 79.088 235.139 79.24 234.323 79.24C232.915 79.24 231.787 78.864 230.939 78.112C230.091 77.344 229.667 76.12 229.667 74.44V65.896H233.243V73.552C233.243 74.48 233.411 75.184 233.747 75.664C234.083 76.144 234.619 76.384 235.355 76.384C236.443 76.384 237.187 76.016 237.587 75.28C237.987 74.528 238.187 73.456 238.187 72.064V65.896H241.763ZM252.833 65.656C253.009 65.656 253.217 65.664 253.457 65.68C253.697 65.696 253.889 65.72 254.033 65.752L253.769 69.112C253.657 69.08 253.489 69.056 253.265 69.04C253.057 69.008 252.873 68.992 252.713 68.992C252.105 68.992 251.521 69.104 250.961 69.328C250.401 69.536 249.945 69.88 249.593 70.36C249.257 70.84 249.089 71.496 249.089 72.328V79H245.513V65.896H248.225L248.753 68.104H248.921C249.305 67.432 249.833 66.856 250.505 66.376C251.177 65.896 251.953 65.656 252.833 65.656ZM269.965 65.656C270.141 65.656 270.349 65.664 270.589 65.68C270.829 65.696 271.021 65.72 271.165 65.752L270.901 69.112C270.789 69.08 270.621 69.056 270.397 69.04C270.189 69.008 270.005 68.992 269.845 68.992C269.237 68.992 268.653 69.104 268.093 69.328C267.533 69.536 267.077 69.88 266.725 70.36C266.389 70.84 266.221 71.496 266.221 72.328V79H262.645V65.896H265.357L265.885 68.104H266.053C266.437 67.432 266.965 66.856 267.637 66.376C268.309 65.896 269.085 65.656 269.965 65.656ZM278.475 65.656C280.283 65.656 281.715 66.176 282.771 67.216C283.827 68.24 284.355 69.704 284.355 71.608V73.336H275.907C275.939 74.344 276.235 75.136 276.795 75.712C277.371 76.288 278.163 76.576 279.171 76.576C280.019 76.576 280.787 76.496 281.475 76.336C282.163 76.16 282.875 75.896 283.611 75.544V78.304C282.971 78.624 282.291 78.856 281.571 79C280.867 79.16 280.011 79.24 279.003 79.24C277.691 79.24 276.531 79 275.523 78.52C274.515 78.024 273.723 77.28 273.147 76.288C272.571 75.296 272.283 74.048 272.283 72.544C272.283 71.008 272.539 69.736 273.051 68.728C273.579 67.704 274.307 66.936 275.235 66.424C276.163 65.912 277.243 65.656 278.475 65.656ZM278.499 68.2C277.811 68.2 277.235 68.424 276.771 68.872C276.323 69.32 276.059 70.016 275.979 70.96H280.995C280.979 70.16 280.771 69.504 280.371 68.992C279.971 68.464 279.347 68.2 278.499 68.2ZM292.631 65.632C294.391 65.632 295.735 66.016 296.663 66.784C297.607 67.536 298.079 68.696 298.079 70.264V79H295.583L294.887 77.224H294.791C294.231 77.928 293.639 78.44 293.015 78.76C292.391 79.08 291.535 79.24 290.447 79.24C289.279 79.24 288.311 78.904 287.543 78.232C286.775 77.544 286.391 76.496 286.391 75.088C286.391 73.696 286.879 72.672 287.855 72.016C288.831 71.344 290.295 70.976 292.247 70.912L294.527 70.84V70.264C294.527 69.576 294.343 69.072 293.975 68.752C293.623 68.432 293.127 68.272 292.487 68.272C291.847 68.272 291.223 68.368 290.615 68.56C290.007 68.736 289.399 68.96 288.791 69.232L287.615 66.808C288.319 66.44 289.095 66.152 289.943 65.944C290.807 65.736 291.703 65.632 292.631 65.632ZM294.527 72.928L293.135 72.976C291.983 73.008 291.183 73.216 290.735 73.6C290.287 73.984 290.063 74.488 290.063 75.112C290.063 75.656 290.223 76.048 290.543 76.288C290.863 76.512 291.279 76.624 291.791 76.624C292.559 76.624 293.207 76.4 293.735 75.952C294.263 75.488 294.527 74.84 294.527 74.008V72.928ZM305.315 79H301.739V60.76H305.315V79Z" fill="#333333"/>
<rect x="29" y="13" width="321" height="23" rx="11.5" fill="#A5DCFB"/>
</svg>
