<svg class="match-inner" viewBox="0 0 382 782" fill="none" xmlns="http://www.w3.org/2000/svg">
<rect width="382" height="782" fill="#F2F2F2"/>
<rect x="18" y="127.162" width="347" height="615.787" rx="25" fill="white"/>
<rect x="32.5" y="144.684" width="318" height="391.502" rx="24.5" fill="#F4DC88" stroke="black"/>
<path d="M175.609 298.13L152.562 315.742L157.414 412.91L219.886 473.033L255.671 348.536L231.41 265.336L175.609 298.13Z" fill="#E4E4E4" stroke="black" stroke-width="1.26265"/>
<path d="M275.079 352.183L276.898 349.146C277.303 352.183 278.111 358.985 278.111 361.9C278.111 365.544 273.866 380.726 273.259 384.977C272.653 389.228 259.916 415.342 255.67 423.845C252.273 430.646 238.889 449.351 232.622 457.853C236.868 451.173 247.3 434.169 255.063 419.593C262.827 405.018 271.642 368.58 275.079 352.183Z" stroke="black" stroke-width="1.26265"/>
<path d="M96.7614 472.42C102.584 462.704 118.596 430.719 125.875 415.941C128.705 415.941 136.914 416.792 147.103 420.193C157.293 423.593 174.397 484.364 181.675 514.324L175.61 535.58L152.323 521.145C150.88 520.251 149.264 519.645 147.58 519.428C118.415 515.667 115.166 528.494 108.286 535.58H83.4178C70.0743 521.005 89.4831 484.566 96.7614 472.42Z" fill="#B4D2A9" stroke="black" stroke-width="1.26265"/>
<path d="M144.676 315.738C143.516 316.125 135.78 319.989 133.758 321.811C129.877 389.343 183.089 442.259 210.181 460.276L217.459 452.381C198.05 448.13 174.396 391.043 174.396 378.29C174.396 368.087 159.435 331.528 151.954 314.523C151.146 314.726 148.315 314.523 144.676 315.738Z" fill="#B4D2A9" stroke="black" stroke-width="1.26265"/>
<path d="M207.754 205.818C188.345 183.955 163.68 192.255 153.774 199.137C133.394 209.339 138.408 243.471 143.463 259.261C147.91 271.812 161.294 298.25 179.248 303.594C201.689 310.274 213.641 305.92 223.524 290.841C236.261 271.407 232.015 233.146 207.754 205.818Z" fill="#E4E4E4" stroke="black" stroke-width="1.26265"/>
<path d="M315.11 336.995C313.169 319.505 287.21 312.703 274.473 311.488C258.299 350.963 225.344 430.519 225.344 430.519C225.344 430.519 218.672 451.775 208.968 459.67C201.204 465.986 182.281 513.112 173.79 536.19L223.525 536.797C224.333 532.951 232.622 510.076 238.081 499.752C250.121 476.98 298.734 389.223 309.045 371.611C317.293 357.522 316.525 342.663 315.11 336.995Z" fill="#E4E4E4" stroke="black" stroke-width="1.26265"/>
<path d="M127.691 294.484C110.223 261.933 113.745 217.964 127.692 202.782C136.79 189.421 164.207 166.708 201.083 182.741C247.179 202.782 258.097 247.116 261.13 258.655C264.162 270.193 267.801 300.559 289.636 323.029C312.442 352.665 291.456 404.205 278.112 426.27C284.888 410.891 281.676 373.967 278.753 353.915C282.016 388.011 243.417 448.748 229.433 462.282C229.282 462.452 229.133 462.594 228.984 462.708C229.13 462.572 229.28 462.43 229.433 462.282C237.609 453.051 247.709 362.924 243.54 352.786C240.629 359.588 233.836 372.22 221.099 384.973L228.984 345.499C236.869 306.024 228.377 232.541 208.362 206.427C201.806 197.873 179.977 187.48 165.905 194.281C152.764 198.734 140.431 210.678 140.431 236.792C140.431 251.367 145.283 261.084 147.709 267.764C148.55 270.079 164.086 294.484 174.394 301.773L185.921 327.28C177.429 327.28 142.251 314.526 127.691 294.484Z" fill="#313234"/>
<path d="M127.692 202.782C113.745 217.964 110.223 261.933 127.691 294.484C142.251 314.526 177.429 327.28 185.921 327.28L174.394 301.773C164.086 294.484 148.55 270.079 147.709 267.764C145.283 261.084 140.431 251.367 140.431 236.792C140.431 210.678 152.764 198.734 165.905 194.281C179.977 187.48 201.806 197.873 208.362 206.427C228.377 232.541 236.869 306.024 228.984 345.499L221.099 384.973C233.836 372.22 240.629 359.588 243.54 352.786C247.786 363.111 237.232 456.392 228.984 462.708C243.136 449.55 285.391 383.151 278.112 349.75C281.145 368.374 285.391 409.751 278.112 426.27C291.456 404.205 312.442 352.665 289.636 323.029C267.801 300.559 264.162 270.193 261.13 258.655C258.097 247.116 247.179 202.782 201.083 182.741C164.207 166.708 136.79 189.421 127.692 202.782Z" stroke="black" stroke-width="1.26265"/>
<path d="M160.447 470.603C147.847 449.588 144.678 448.74 116.172 395.298C100.159 361.564 121.226 332.253 133.761 321.814C136.996 326.47 146.134 340.762 156.809 360.682C167.485 380.601 166.11 389.225 164.088 391.047C164.573 407.08 194.614 442.667 209.575 459.064C205.936 463.923 188.349 497.932 181.07 515.544C179.049 506.636 164.088 476.676 160.447 470.603Z" fill="#E4E4E4" stroke="black" stroke-width="1.26265"/>
<path d="M148.315 423.232C132.788 402.341 120.01 366.753 115.562 351.57C110.104 356.429 111.317 375.862 112.53 383.15C113.743 390.438 119.201 398.94 120.414 401.976C121.627 405.013 151.954 456.026 156.806 463.314C161.658 470.601 167.724 483.355 168.936 485.784C169.857 487.628 177.63 504.61 181.067 513.112L190.771 492.464C183.089 478.091 163.842 444.123 148.315 423.232Z" fill="#AFAFAF"/>
<path d="M83.4165 535.587H107.678H110.711C110.913 534.373 113.258 530.487 121.022 524.657C130.726 517.369 139.824 519.798 146.496 519.798C151.833 519.798 166.915 530.527 173.789 536.195L179.854 519.798H167.117C141.401 518.341 109.498 487.611 96.7606 472.428C98.1756 469.796 98.0944 469.877 86.4491 491.254C74.8039 512.631 79.5752 529.717 83.4165 535.587Z" fill="#43ABAB" stroke="black" stroke-width="1.26265"/>
<path d="M187.133 327.887L175.609 302.988L188.346 306.631C195.018 307.846 201.083 307.239 204.723 306.631C218.673 302.988 226.355 288.615 229.59 279.91C230.197 282.947 231.41 316.348 230.803 316.348C232.016 333.353 222.312 372.827 221.705 377.686C221.22 381.572 218.268 391.046 216.853 395.297C220.735 380.722 180.866 339.021 160.446 319.992C169.544 326.065 182.281 327.685 187.133 327.887Z" fill="#AFAFAF"/>
<path d="M145.889 516.757C130.847 506.555 95.5475 517.365 79.7779 524.045C78.8074 527.445 81.7996 533.155 83.417 535.584H110.711C127.208 515.665 147.506 519.592 155.593 524.045C158.626 525.867 160.931 526.96 145.889 516.757Z" fill="#5ACFCF" stroke="black" stroke-width="1.26265"/>
<path d="M151.349 279.303C143.464 269.586 141.038 256.833 141.038 250.152C142.655 254.808 146.011 264.606 146.496 266.549C147.103 268.979 150.742 274.444 156.807 282.947C161.659 289.748 170.151 298.736 173.79 302.38L174.396 304.202C172.779 304 169.544 303.23 169.544 301.773C169.544 299.951 159.233 289.02 151.349 279.303Z" fill="black"/>
<path d="M245.4 228.154C242.004 225.725 242.731 228.087 242.934 229.504C244.753 233.148 256.317 280.383 256.923 284.027C257.53 287.671 264.202 296.78 262.989 284.027C261.776 271.274 249.646 231.191 245.4 228.154Z" fill="#565656"/>
<path d="M242.326 348.534C242.326 350.478 228.983 371.207 222.311 381.329V382.542C225.222 382.542 237.474 365.538 243.539 351.57C243.337 349.748 242.326 346.591 242.326 348.534Z" fill="#19191B"/>
<path d="M169.545 490.037C161.66 490.644 138.814 463.72 127.695 448.74C126.724 463.315 161.66 501.373 179.249 518.58L179.856 516.151V514.329C179.856 512.385 172.982 497.324 169.545 490.037Z" fill="#99B390"/>
<path d="M165.555 499.627C159.809 501.578 137.644 485.473 126.495 476.211C128.576 487.451 161.872 509.717 178.259 519.445L178.243 517.488L177.893 516.106C177.519 514.631 169.512 504.506 165.555 499.627Z" fill="#99B390"/>
<path d="M140.431 519.791C151.955 519.186 166.713 530.515 172.576 536.183L110.711 534.968C114.552 529.705 125.862 520.555 140.431 519.791Z" fill="#E4E4E4" stroke="black" stroke-width="1.26265"/>
<path d="M225.345 463.922C227.771 461.978 237.273 416.147 241.721 393.475C240.912 400.56 239.295 415.095 239.295 416.552C239.295 418.374 234.443 445.095 232.016 454.205C230.076 461.492 226.76 463.719 225.345 463.922Z" fill="#AFAFAF"/>
<path d="M275.685 429.304C279.567 418.615 279.729 382.339 279.324 365.537C279.729 370.8 280.537 381.448 280.537 381.934C280.537 382.542 281.144 394.688 281.144 397.724C281.144 400.761 279.931 415.943 279.324 419.587C278.839 422.502 276.696 427.279 275.685 429.304Z" fill="#AFAFAF"/>
<path d="M46.12 572.073C46.12 573.593 45.568 574.785 44.464 575.649C43.36 576.513 41.848 576.945 39.928 576.945C39 576.945 38.12 576.865 37.288 576.705C36.472 576.561 35.776 576.345 35.2 576.057V573.609C35.84 573.897 36.592 574.161 37.456 574.401C38.32 574.625 39.2 574.737 40.096 574.737C41.248 574.737 42.112 574.513 42.688 574.065C43.264 573.617 43.552 573.017 43.552 572.265C43.552 571.737 43.416 571.297 43.144 570.945C42.888 570.577 42.48 570.241 41.92 569.937C41.36 569.633 40.624 569.297 39.712 568.929C38.864 568.609 38.112 568.233 37.456 567.801C36.816 567.369 36.312 566.833 35.944 566.193C35.576 565.553 35.392 564.769 35.392 563.841C35.392 562.433 35.904 561.329 36.928 560.529C37.952 559.729 39.296 559.329 40.96 559.329C41.888 559.329 42.744 559.425 43.528 559.617C44.328 559.793 45.088 560.041 45.808 560.361L44.992 562.497C44.336 562.225 43.664 562.001 42.976 561.825C42.304 561.649 41.608 561.561 40.888 561.561C39.944 561.561 39.224 561.769 38.728 562.185C38.232 562.601 37.984 563.145 37.984 563.817C37.984 564.345 38.104 564.793 38.344 565.161C38.584 565.513 38.968 565.833 39.496 566.121C40.024 566.409 40.72 566.729 41.584 567.081C42.544 567.465 43.36 567.873 44.032 568.305C44.72 568.721 45.24 569.233 45.592 569.841C45.944 570.433 46.12 571.177 46.12 572.073ZM54.2753 563.529C55.9713 563.529 57.3073 564.057 58.2833 565.113C59.2593 566.153 59.7473 567.577 59.7473 569.385V570.777H51.0593C51.0913 572.105 51.4353 573.121 52.0913 573.825C52.7633 574.529 53.6993 574.881 54.8993 574.881C55.7313 574.881 56.4673 574.809 57.1073 574.665C57.7633 574.505 58.4353 574.273 59.1233 573.969V576.081C58.4673 576.369 57.8113 576.585 57.1553 576.729C56.4993 576.873 55.7153 576.945 54.8033 576.945C53.5393 576.945 52.4273 576.697 51.4673 576.201C50.5233 575.705 49.7793 574.969 49.2353 573.993C48.7073 573.001 48.4433 571.785 48.4433 570.345C48.4433 568.889 48.6833 567.657 49.1633 566.649C49.6593 565.641 50.3393 564.873 51.2033 564.345C52.0833 563.801 53.1073 563.529 54.2753 563.529ZM54.2753 565.497C53.3633 565.497 52.6273 565.793 52.0673 566.385C51.5233 566.977 51.2033 567.817 51.1073 568.905H57.2033C57.1873 567.897 56.9393 567.081 56.4593 566.457C55.9953 565.817 55.2673 565.497 54.2753 565.497ZM69.4737 563.529C70.9777 563.529 72.1297 563.905 72.9297 564.657C73.7297 565.409 74.1297 566.617 74.1297 568.281V576.705H71.6097V568.641C71.6097 566.625 70.7217 565.617 68.9457 565.617C67.6177 565.617 66.7057 566.009 66.2097 566.793C65.7137 567.577 65.4657 568.705 65.4657 570.177V576.705H62.9217V563.769H64.9377L65.2977 565.497H65.4417C65.8577 564.825 66.4257 564.329 67.1457 564.009C67.8817 563.689 68.6577 563.529 69.4737 563.529ZM86.6309 573.057C86.6309 574.321 86.1669 575.289 85.2389 575.961C84.3109 576.617 83.0229 576.945 81.3749 576.945C80.4629 576.945 79.6789 576.873 79.0229 576.729C78.3829 576.601 77.7909 576.409 77.2469 576.153V573.921C77.8069 574.193 78.4629 574.441 79.2149 574.665C79.9829 574.873 80.7269 574.977 81.4469 574.977C82.4069 574.977 83.0949 574.825 83.5109 574.521C83.9429 574.217 84.1589 573.809 84.1589 573.297C84.1589 573.009 84.0789 572.753 83.9189 572.529C83.7589 572.289 83.4549 572.049 83.0069 571.809C82.5749 571.553 81.9349 571.265 81.0869 570.945C80.2549 570.609 79.5509 570.281 78.9749 569.961C78.4149 569.625 77.9829 569.233 77.6789 568.785C77.3749 568.321 77.2229 567.729 77.2229 567.009C77.2229 565.889 77.6709 565.033 78.5669 564.441C79.4789 563.833 80.6789 563.529 82.1669 563.529C82.9509 563.529 83.6869 563.609 84.3749 563.769C85.0789 563.929 85.7589 564.153 86.4149 564.441L85.5749 566.385C85.0149 566.145 84.4389 565.945 83.8469 565.785C83.2549 565.609 82.6549 565.521 82.0469 565.521C81.2789 565.521 80.6949 565.641 80.2949 565.881C79.8949 566.121 79.6949 566.457 79.6949 566.889C79.6949 567.193 79.7909 567.457 79.9829 567.681C80.1749 567.905 80.4949 568.129 80.9429 568.353C81.4069 568.577 82.0389 568.849 82.8389 569.169C83.6389 569.473 84.3189 569.785 84.8789 570.105C85.4549 570.425 85.8869 570.817 86.1749 571.281C86.4789 571.745 86.6309 572.337 86.6309 573.057ZM100.8 563.769V576.705H98.7599L98.3999 575.001H98.2799C97.8639 575.673 97.2879 576.169 96.5519 576.489C95.8159 576.793 95.0399 576.945 94.2239 576.945C92.7039 576.945 91.5439 576.569 90.7439 575.817C89.9439 575.065 89.5439 573.873 89.5439 572.241V563.769H92.1119V571.857C92.1119 573.857 92.9839 574.857 94.7279 574.857C96.0559 574.857 96.9759 574.465 97.4879 573.681C97.9999 572.897 98.2559 571.777 98.2559 570.321V563.769H100.8ZM116.181 570.225C116.181 572.369 115.629 574.025 114.525 575.193C113.421 576.361 111.933 576.945 110.061 576.945C108.893 576.945 107.853 576.681 106.941 576.153C106.045 575.625 105.333 574.865 104.805 573.873C104.293 572.865 104.037 571.649 104.037 570.225C104.037 568.081 104.581 566.433 105.669 565.281C106.757 564.113 108.245 563.529 110.133 563.529C111.317 563.529 112.357 563.793 113.253 564.321C114.165 564.833 114.877 565.585 115.389 566.577C115.917 567.569 116.181 568.785 116.181 570.225ZM106.653 570.225C106.653 571.681 106.925 572.817 107.469 573.633C108.029 574.449 108.909 574.857 110.109 574.857C111.309 574.857 112.181 574.449 112.725 573.633C113.285 572.817 113.565 571.681 113.565 570.225C113.565 568.753 113.285 567.625 112.725 566.841C112.165 566.041 111.285 565.641 110.085 565.641C108.885 565.641 108.013 566.041 107.469 566.841C106.925 567.625 106.653 568.753 106.653 570.225ZM130.542 563.769V576.705H128.502L128.142 575.001H128.022C127.606 575.673 127.03 576.169 126.294 576.489C125.558 576.793 124.782 576.945 123.966 576.945C122.446 576.945 121.286 576.569 120.486 575.817C119.686 575.065 119.286 573.873 119.286 572.241V563.769H121.854V571.857C121.854 573.857 122.726 574.857 124.47 574.857C125.798 574.857 126.718 574.465 127.23 573.681C127.742 572.897 127.998 571.777 127.998 570.321V563.769H130.542ZM143.115 573.057C143.115 574.321 142.651 575.289 141.723 575.961C140.795 576.617 139.507 576.945 137.859 576.945C136.947 576.945 136.163 576.873 135.507 576.729C134.867 576.601 134.275 576.409 133.731 576.153V573.921C134.291 574.193 134.947 574.441 135.699 574.665C136.467 574.873 137.211 574.977 137.931 574.977C138.891 574.977 139.579 574.825 139.995 574.521C140.427 574.217 140.643 573.809 140.643 573.297C140.643 573.009 140.563 572.753 140.403 572.529C140.243 572.289 139.939 572.049 139.491 571.809C139.059 571.553 138.419 571.265 137.571 570.945C136.739 570.609 136.035 570.281 135.459 569.961C134.899 569.625 134.467 569.233 134.163 568.785C133.859 568.321 133.707 567.729 133.707 567.009C133.707 565.889 134.155 565.033 135.051 564.441C135.963 563.833 137.163 563.529 138.651 563.529C139.435 563.529 140.171 563.609 140.859 563.769C141.563 563.929 142.243 564.153 142.899 564.441L142.059 566.385C141.499 566.145 140.923 565.945 140.331 565.785C139.739 565.609 139.139 565.521 138.531 565.521C137.763 565.521 137.179 565.641 136.779 565.881C136.379 566.121 136.179 566.457 136.179 566.889C136.179 567.193 136.275 567.457 136.467 567.681C136.659 567.905 136.979 568.129 137.427 568.353C137.891 568.577 138.523 568.849 139.323 569.169C140.123 569.473 140.803 569.785 141.363 570.105C141.939 570.425 142.371 570.817 142.659 571.281C142.963 571.745 143.115 572.337 143.115 573.057ZM159.324 576.705H156.324L150.708 568.809L149.028 570.201V576.705H146.436V559.569H149.028V567.849C149.444 567.369 149.86 566.889 150.276 566.409C150.692 565.913 151.108 565.425 151.524 564.945L156.156 559.569H159.132L152.58 567.057L159.324 576.705ZM162.608 558.849C162.992 558.849 163.328 558.961 163.616 559.185C163.904 559.409 164.048 559.785 164.048 560.313C164.048 560.825 163.904 561.201 163.616 561.441C163.328 561.665 162.992 561.777 162.608 561.777C162.192 561.777 161.84 561.665 161.552 561.441C161.28 561.201 161.144 560.825 161.144 560.313C161.144 559.785 161.28 559.409 161.552 559.185C161.84 558.961 162.192 558.849 162.608 558.849ZM163.856 563.769V576.705H161.312V563.769H163.856ZM172.507 574.881C172.843 574.881 173.187 574.857 173.539 574.809C173.891 574.745 174.195 574.665 174.451 574.569V576.489C174.163 576.617 173.787 576.721 173.323 576.801C172.875 576.897 172.419 576.945 171.955 576.945C171.251 576.945 170.603 576.825 170.011 576.585C169.419 576.345 168.947 575.929 168.595 575.337C168.259 574.745 168.091 573.921 168.091 572.865V565.713H166.291V564.561L168.187 563.601L169.075 560.865H170.635V563.769H174.331V565.713H170.635V572.817C170.635 573.521 170.803 574.041 171.139 574.377C171.491 574.713 171.947 574.881 172.507 574.881ZM181.695 574.881C182.031 574.881 182.375 574.857 182.727 574.809C183.079 574.745 183.383 574.665 183.639 574.569V576.489C183.351 576.617 182.975 576.721 182.511 576.801C182.063 576.897 181.607 576.945 181.143 576.945C180.439 576.945 179.791 576.825 179.199 576.585C178.607 576.345 178.135 575.929 177.783 575.337C177.447 574.745 177.279 573.921 177.279 572.865V565.713H175.479V564.561L177.375 563.601L178.263 560.865H179.823V563.769H183.519V565.713H179.823V572.817C179.823 573.521 179.991 574.041 180.327 574.377C180.679 574.713 181.135 574.881 181.695 574.881ZM191.314 563.529C193.01 563.529 194.346 564.057 195.322 565.113C196.298 566.153 196.786 567.577 196.786 569.385V570.777H188.098C188.13 572.105 188.474 573.121 189.13 573.825C189.802 574.529 190.738 574.881 191.938 574.881C192.77 574.881 193.506 574.809 194.146 574.665C194.802 574.505 195.474 574.273 196.162 573.969V576.081C195.506 576.369 194.85 576.585 194.194 576.729C193.538 576.873 192.754 576.945 191.842 576.945C190.578 576.945 189.466 576.697 188.506 576.201C187.562 575.705 186.818 574.969 186.274 573.993C185.746 573.001 185.482 571.785 185.482 570.345C185.482 568.889 185.722 567.657 186.202 566.649C186.698 565.641 187.378 564.873 188.242 564.345C189.122 563.801 190.146 563.529 191.314 563.529ZM191.314 565.497C190.402 565.497 189.666 565.793 189.106 566.385C188.562 566.977 188.242 567.817 188.146 568.905H194.242C194.226 567.897 193.978 567.081 193.498 566.457C193.034 565.817 192.306 565.497 191.314 565.497ZM206.513 563.529C208.017 563.529 209.169 563.905 209.969 564.657C210.769 565.409 211.169 566.617 211.169 568.281V576.705H208.649V568.641C208.649 566.625 207.761 565.617 205.985 565.617C204.657 565.617 203.745 566.009 203.249 566.793C202.753 567.577 202.505 568.705 202.505 570.177V576.705H199.961V563.769H201.977L202.337 565.497H202.481C202.897 564.825 203.465 564.329 204.185 564.009C204.921 563.689 205.697 563.529 206.513 563.529Z" fill="black"/>
<path d="M45.6 593.272C45.6 594.456 45.4027 595.491 45.008 596.376C44.6133 597.251 44.0213 597.933 43.232 598.424C42.4427 598.915 41.4613 599.16 40.288 599.16C39.0827 599.16 38.0853 598.915 37.296 598.424C36.5067 597.933 35.92 597.245 35.536 596.36C35.152 595.475 34.96 594.44 34.96 593.256C34.96 592.083 35.152 591.059 35.536 590.184C35.9307 589.309 36.5227 588.627 37.312 588.136C38.1013 587.645 39.0987 587.4 40.304 587.4C41.4773 587.4 42.4533 587.645 43.232 588.136C44.0213 588.616 44.6133 589.299 45.008 590.184C45.4027 591.059 45.6 592.088 45.6 593.272ZM36.784 593.272C36.784 594.637 37.0667 595.715 37.632 596.504C38.1973 597.293 39.0827 597.688 40.288 597.688C41.504 597.688 42.3893 597.293 42.944 596.504C43.4987 595.715 43.776 594.637 43.776 593.272C43.776 591.907 43.4987 590.835 42.944 590.056C42.4 589.277 41.52 588.888 40.304 588.888C39.088 588.888 38.1973 589.277 37.632 590.056C37.0667 590.835 36.784 591.907 36.784 593.272ZM52.2585 590.216C53.2612 590.216 54.0292 590.467 54.5625 590.968C55.0958 591.469 55.3625 592.275 55.3625 593.384V599H53.6825V593.624C53.6825 592.28 53.0905 591.608 51.9065 591.608C51.0212 591.608 50.4132 591.869 50.0825 592.392C49.7518 592.915 49.5865 593.667 49.5865 594.648V599H47.8905V590.376H49.2345L49.4745 591.528H49.5705C49.8478 591.08 50.2265 590.749 50.7065 590.536C51.1972 590.323 51.7145 590.216 52.2585 590.216ZM59.6646 599H57.9686V586.84H59.6646V599ZM63.192 587.096C63.448 587.096 63.672 587.171 63.864 587.32C64.056 587.469 64.152 587.72 64.152 588.072C64.152 588.413 64.056 588.664 63.864 588.824C63.672 588.973 63.448 589.048 63.192 589.048C62.9147 589.048 62.68 588.973 62.488 588.824C62.3067 588.664 62.216 588.413 62.216 588.072C62.216 587.72 62.3067 587.469 62.488 587.32C62.68 587.171 62.9147 587.096 63.192 587.096ZM64.024 590.376V599H62.328V590.376H64.024ZM71.0554 590.216C72.058 590.216 72.826 590.467 73.3594 590.968C73.8927 591.469 74.1594 592.275 74.1594 593.384V599H72.4794V593.624C72.4794 592.28 71.8874 591.608 70.7034 591.608C69.818 591.608 69.21 591.869 68.8794 592.392C68.5487 592.915 68.3834 593.667 68.3834 594.648V599H66.6874V590.376H68.0314L68.2714 591.528H68.3674C68.6447 591.08 69.0234 590.749 69.5034 590.536C69.994 590.323 70.5114 590.216 71.0554 590.216ZM80.1575 590.216C81.2882 590.216 82.1788 590.568 82.8295 591.272C83.4802 591.965 83.8055 592.915 83.8055 594.12V595.048H78.0135C78.0348 595.933 78.2642 596.611 78.7015 597.08C79.1495 597.549 79.7735 597.784 80.5735 597.784C81.1282 597.784 81.6188 597.736 82.0455 597.64C82.4828 597.533 82.9308 597.379 83.3895 597.176V598.584C82.9522 598.776 82.5148 598.92 82.0775 599.016C81.6402 599.112 81.1175 599.16 80.5095 599.16C79.6668 599.16 78.9255 598.995 78.2855 598.664C77.6562 598.333 77.1602 597.843 76.7975 597.192C76.4455 596.531 76.2695 595.72 76.2695 594.76C76.2695 593.789 76.4295 592.968 76.7495 592.296C77.0802 591.624 77.5335 591.112 78.1095 590.76C78.6962 590.397 79.3788 590.216 80.1575 590.216ZM80.1575 591.528C79.5495 591.528 79.0588 591.725 78.6855 592.12C78.3228 592.515 78.1095 593.075 78.0455 593.8H82.1095C82.0988 593.128 81.9335 592.584 81.6135 592.168C81.3042 591.741 80.8188 591.528 80.1575 591.528Z" fill="#27AE60"/>
<path d="M36.064 621L40.624 611.08H34.624V609.576H42.448V610.792L37.904 621H36.064ZM58.3045 612.216C59.2752 612.216 60.0058 612.467 60.4965 612.968C60.9872 613.469 61.2325 614.275 61.2325 615.384V621H59.5365V615.608C59.5365 614.275 58.9978 613.608 57.9205 613.608C57.1525 613.608 56.6032 613.848 56.2725 614.328C55.9418 614.797 55.7765 615.475 55.7765 616.36V621H54.0965V615.608C54.0965 614.275 53.5525 613.608 52.4645 613.608C51.6538 613.608 51.0938 613.869 50.7845 614.392C50.4858 614.915 50.3365 615.667 50.3365 616.648V621H48.6405V612.376H49.9845L50.2245 613.528H50.3205C50.5765 613.08 50.9338 612.749 51.3925 612.536C51.8512 612.323 52.3365 612.216 52.8485 612.216C54.1818 612.216 55.0565 612.68 55.4725 613.608H55.6005C55.8778 613.128 56.2618 612.776 56.7525 612.552C57.2432 612.328 57.7605 612.216 58.3045 612.216ZM64.692 609.096C64.948 609.096 65.172 609.171 65.364 609.32C65.556 609.469 65.652 609.72 65.652 610.072C65.652 610.413 65.556 610.664 65.364 610.824C65.172 610.973 64.948 611.048 64.692 611.048C64.4147 611.048 64.18 610.973 63.988 610.824C63.8067 610.664 63.716 610.413 63.716 610.072C63.716 609.72 63.8067 609.469 63.988 609.32C64.18 609.171 64.4147 609.096 64.692 609.096ZM65.524 612.376V621H63.828V612.376H65.524ZM69.8834 621H68.1874V608.84H69.8834V621ZM75.9388 612.216C77.0694 612.216 77.9601 612.568 78.6108 613.272C79.2614 613.965 79.5868 614.915 79.5868 616.12V617.048H73.7948C73.8161 617.933 74.0454 618.611 74.4828 619.08C74.9308 619.549 75.5548 619.784 76.3548 619.784C76.9094 619.784 77.4001 619.736 77.8268 619.64C78.2641 619.533 78.7121 619.379 79.1708 619.176V620.584C78.7334 620.776 78.2961 620.92 77.8588 621.016C77.4214 621.112 76.8988 621.16 76.2908 621.16C75.4481 621.16 74.7068 620.995 74.0668 620.664C73.4374 620.333 72.9414 619.843 72.5788 619.192C72.2268 618.531 72.0508 617.72 72.0508 616.76C72.0508 615.789 72.2108 614.968 72.5308 614.296C72.8614 613.624 73.3148 613.112 73.8908 612.76C74.4774 612.397 75.1601 612.216 75.9388 612.216ZM75.9388 613.528C75.3308 613.528 74.8401 613.725 74.4668 614.12C74.1041 614.515 73.8908 615.075 73.8268 615.8H77.8908C77.8801 615.128 77.7148 614.584 77.3948 614.168C77.0854 613.741 76.6001 613.528 75.9388 613.528ZM87.431 618.568C87.431 619.411 87.1217 620.056 86.503 620.504C85.8843 620.941 85.0257 621.16 83.927 621.16C83.319 621.16 82.7963 621.112 82.359 621.016C81.9323 620.931 81.5377 620.803 81.175 620.632V619.144C81.5483 619.325 81.9857 619.491 82.487 619.64C82.999 619.779 83.495 619.848 83.975 619.848C84.615 619.848 85.0737 619.747 85.351 619.544C85.639 619.341 85.783 619.069 85.783 618.728C85.783 618.536 85.7297 618.365 85.623 618.216C85.5163 618.056 85.3137 617.896 85.015 617.736C84.727 617.565 84.3003 617.373 83.735 617.16C83.1803 616.936 82.711 616.717 82.327 616.504C81.9537 616.28 81.6657 616.019 81.463 615.72C81.2603 615.411 81.159 615.016 81.159 614.536C81.159 613.789 81.4577 613.219 82.055 612.824C82.663 612.419 83.463 612.216 84.455 612.216C84.9777 612.216 85.4683 612.269 85.927 612.376C86.3963 612.483 86.8497 612.632 87.287 612.824L86.727 614.12C86.3537 613.96 85.9697 613.827 85.575 613.72C85.1803 613.603 84.7803 613.544 84.375 613.544C83.863 613.544 83.4737 613.624 83.207 613.784C82.9403 613.944 82.807 614.168 82.807 614.456C82.807 614.659 82.871 614.835 82.999 614.984C83.127 615.133 83.3403 615.283 83.639 615.432C83.9483 615.581 84.3697 615.763 84.903 615.976C85.4363 616.179 85.8897 616.387 86.263 616.6C86.647 616.813 86.935 617.075 87.127 617.384C87.3297 617.693 87.431 618.088 87.431 618.568ZM96.9533 612.216C98.0306 612.216 98.8359 612.456 99.3693 612.936C99.9133 613.405 100.185 614.147 100.185 615.16V621H98.9853L98.6493 619.8H98.5853C98.2119 620.269 97.8173 620.616 97.4013 620.84C96.9959 621.053 96.4306 621.16 95.7053 621.16C94.9266 621.16 94.2813 620.952 93.7693 620.536C93.2573 620.109 93.0013 619.448 93.0013 618.552C93.0013 617.677 93.3319 617.011 93.9933 616.552C94.6546 616.093 95.6733 615.843 97.0493 615.8L98.5213 615.752V615.272C98.5213 614.643 98.3773 614.2 98.0893 613.944C97.8013 613.677 97.3959 613.544 96.8733 613.544C96.4359 613.544 96.0146 613.608 95.6093 613.736C95.2039 613.864 94.8146 614.019 94.4413 614.2L93.8973 612.968C94.3026 612.755 94.7666 612.579 95.2893 612.44C95.8226 612.291 96.3773 612.216 96.9533 612.216ZM98.5053 616.856L97.3533 616.888C96.3719 616.931 95.6893 617.096 95.3053 617.384C94.9319 617.661 94.7453 618.056 94.7453 618.568C94.7453 619.016 94.8786 619.341 95.1453 619.544C95.4119 619.747 95.7586 619.848 96.1853 619.848C96.8466 619.848 97.3959 619.661 97.8333 619.288C98.2813 618.915 98.5053 618.355 98.5053 617.608V616.856ZM109.853 620.984L108.621 616.68C108.535 616.403 108.445 616.083 108.349 615.72C108.263 615.357 108.183 615.016 108.109 614.696C108.034 614.365 107.975 614.115 107.933 613.944H107.869C107.837 614.115 107.783 614.365 107.709 614.696C107.634 615.027 107.549 615.373 107.453 615.736C107.367 616.099 107.282 616.419 107.197 616.696L105.917 620.984H104.029L101.645 612.36H103.373L104.493 616.728C104.61 617.176 104.717 617.656 104.813 618.168C104.919 618.669 104.994 619.075 105.037 619.384H105.101C105.133 619.203 105.175 618.963 105.229 618.664C105.293 618.365 105.357 618.067 105.421 617.768C105.495 617.459 105.565 617.208 105.629 617.016L107.005 612.36H108.861L110.205 617.016C110.269 617.229 110.338 617.485 110.413 617.784C110.487 618.072 110.551 618.36 110.605 618.648C110.669 618.925 110.711 619.165 110.733 619.368H110.797C110.818 619.197 110.855 618.963 110.909 618.664C110.962 618.365 111.026 618.045 111.101 617.704C111.186 617.363 111.266 617.037 111.341 616.728L112.493 612.36H114.205L111.789 620.984H109.853ZM119.047 612.216C120.124 612.216 120.93 612.456 121.463 612.936C122.007 613.405 122.279 614.147 122.279 615.16V621H121.079L120.743 619.8H120.679C120.306 620.269 119.911 620.616 119.495 620.84C119.09 621.053 118.524 621.16 117.799 621.16C117.02 621.16 116.375 620.952 115.863 620.536C115.351 620.109 115.095 619.448 115.095 618.552C115.095 617.677 115.426 617.011 116.087 616.552C116.748 616.093 117.767 615.843 119.143 615.8L120.615 615.752V615.272C120.615 614.643 120.471 614.2 120.183 613.944C119.895 613.677 119.49 613.544 118.967 613.544C118.53 613.544 118.108 613.608 117.703 613.736C117.298 613.864 116.908 614.019 116.535 614.2L115.991 612.968C116.396 612.755 116.86 612.579 117.383 612.44C117.916 612.291 118.471 612.216 119.047 612.216ZM120.599 616.856L119.447 616.888C118.466 616.931 117.783 617.096 117.399 617.384C117.026 617.661 116.839 618.056 116.839 618.568C116.839 619.016 116.972 619.341 117.239 619.544C117.506 619.747 117.852 619.848 118.279 619.848C118.94 619.848 119.49 619.661 119.927 619.288C120.375 618.915 120.599 618.355 120.599 617.608V616.856ZM123.579 612.376H125.403L127.195 617.272C127.333 617.645 127.451 618.008 127.547 618.36C127.653 618.701 127.733 619.037 127.786 619.368H127.851C127.904 619.091 127.984 618.765 128.091 618.392C128.208 618.019 128.336 617.64 128.475 617.256L130.171 612.376H131.995L128.299 622.168C127.989 623 127.573 623.651 127.051 624.12C126.539 624.6 125.867 624.84 125.035 624.84C124.768 624.84 124.539 624.824 124.347 624.792C124.155 624.771 123.989 624.744 123.851 624.712V623.368C123.957 623.389 124.096 623.411 124.267 623.432C124.437 623.453 124.613 623.464 124.795 623.464C125.285 623.464 125.68 623.32 125.979 623.032C126.277 622.755 126.512 622.387 126.683 621.928L127.035 621L123.579 612.376Z" fill="#828282"/>
<path d="M42.64 646.805L41.424 643.509H37.008L35.792 646.805H34L38.336 635.333H40.128L44.448 646.805H42.64ZM40.944 642.005L39.792 638.789C39.76 638.671 39.7013 638.495 39.616 638.261C39.5413 638.026 39.4667 637.781 39.392 637.525C39.3173 637.269 39.2587 637.061 39.216 636.901C39.1307 637.231 39.0347 637.583 38.928 637.957C38.8213 638.33 38.736 638.607 38.672 638.789L37.52 642.005H40.944ZM47.4928 646.805H45.7968V634.645H47.4928V646.805ZM57.2121 646.789L55.9801 642.485C55.8948 642.207 55.8041 641.887 55.7081 641.525C55.6228 641.162 55.5428 640.821 55.4681 640.501C55.3935 640.17 55.3348 639.919 55.2921 639.749H55.2281C55.1961 639.919 55.1428 640.17 55.0681 640.501C54.9935 640.831 54.9081 641.178 54.8121 641.541C54.7268 641.903 54.6415 642.223 54.5561 642.501L53.2761 646.789H51.3881L49.0041 638.165H50.7321L51.8521 642.533C51.9695 642.981 52.0761 643.461 52.1721 643.973C52.2788 644.474 52.3535 644.879 52.3961 645.189H52.4601C52.4921 645.007 52.5348 644.767 52.5881 644.469C52.6521 644.17 52.7161 643.871 52.7801 643.573C52.8548 643.263 52.9241 643.013 52.9881 642.821L54.3641 638.165H56.2201L57.5641 642.821C57.6281 643.034 57.6975 643.29 57.7721 643.589C57.8468 643.877 57.9108 644.165 57.9641 644.453C58.0281 644.73 58.0708 644.97 58.0921 645.173H58.1561C58.1775 645.002 58.2148 644.767 58.2681 644.469C58.3215 644.17 58.3855 643.85 58.4601 643.509C58.5455 643.167 58.6255 642.842 58.7001 642.533L59.8521 638.165H61.5641L59.1481 646.789H57.2121ZM66.4064 638.021C67.4837 638.021 68.289 638.261 68.8224 638.741C69.3664 639.21 69.6384 639.951 69.6384 640.965V646.805H68.4384L68.1024 645.605H68.0384C67.665 646.074 67.2704 646.421 66.8544 646.645C66.449 646.858 65.8837 646.965 65.1584 646.965C64.3797 646.965 63.7344 646.757 63.2224 646.341C62.7104 645.914 62.4544 645.253 62.4544 644.357C62.4544 643.482 62.785 642.815 63.4464 642.357C64.1077 641.898 65.1264 641.647 66.5024 641.605L67.9744 641.557V641.077C67.9744 640.447 67.8304 640.005 67.5424 639.749C67.2544 639.482 66.849 639.349 66.3264 639.349C65.889 639.349 65.4677 639.413 65.0624 639.541C64.657 639.669 64.2677 639.823 63.8944 640.005L63.3504 638.773C63.7557 638.559 64.2197 638.383 64.7424 638.245C65.2757 638.095 65.8304 638.021 66.4064 638.021ZM67.9584 642.661L66.8064 642.693C65.825 642.735 65.1424 642.901 64.7584 643.189C64.385 643.466 64.1984 643.861 64.1984 644.373C64.1984 644.821 64.3317 645.146 64.5984 645.349C64.865 645.551 65.2117 645.653 65.6384 645.653C66.2997 645.653 66.849 645.466 67.2864 645.093C67.7344 644.719 67.9584 644.159 67.9584 643.413V642.661ZM70.9379 638.181H72.7619L74.5539 643.077C74.6925 643.45 74.8099 643.813 74.9059 644.165C75.0125 644.506 75.0925 644.842 75.1459 645.173H75.2099C75.2632 644.895 75.3432 644.57 75.4499 644.197C75.5672 643.823 75.6952 643.445 75.8339 643.061L77.5299 638.181H79.3539L75.6579 647.973C75.3485 648.805 74.9325 649.455 74.4099 649.925C73.8979 650.405 73.2259 650.645 72.3939 650.645C72.1272 650.645 71.8979 650.629 71.7059 650.597C71.5139 650.575 71.3485 650.549 71.2099 650.517V649.173C71.3165 649.194 71.4552 649.215 71.6259 649.237C71.7965 649.258 71.9725 649.269 72.1539 649.269C72.6445 649.269 73.0392 649.125 73.3379 648.837C73.6365 648.559 73.8712 648.191 74.0419 647.733L74.3939 646.805L70.9379 638.181ZM86.4154 644.373C86.4154 645.215 86.106 645.861 85.4874 646.309C84.8687 646.746 84.01 646.965 82.9114 646.965C82.3034 646.965 81.7807 646.917 81.3434 646.821C80.9167 646.735 80.522 646.607 80.1594 646.437V644.949C80.5327 645.13 80.97 645.295 81.4714 645.445C81.9834 645.583 82.4794 645.653 82.9594 645.653C83.5994 645.653 84.058 645.551 84.3354 645.349C84.6234 645.146 84.7674 644.874 84.7674 644.533C84.7674 644.341 84.714 644.17 84.6074 644.021C84.5007 643.861 84.298 643.701 83.9994 643.541C83.7114 643.37 83.2847 643.178 82.7194 642.965C82.1647 642.741 81.6954 642.522 81.3114 642.309C80.938 642.085 80.65 641.823 80.4474 641.525C80.2447 641.215 80.1434 640.821 80.1434 640.341C80.1434 639.594 80.442 639.023 81.0394 638.629C81.6474 638.223 82.4474 638.021 83.4394 638.021C83.962 638.021 84.4527 638.074 84.9114 638.181C85.3807 638.287 85.834 638.437 86.2714 638.629L85.7114 639.925C85.338 639.765 84.954 639.631 84.5594 639.525C84.1647 639.407 83.7647 639.349 83.3594 639.349C82.8474 639.349 82.458 639.429 82.1914 639.589C81.9247 639.749 81.7914 639.973 81.7914 640.261C81.7914 640.463 81.8554 640.639 81.9834 640.789C82.1114 640.938 82.3247 641.087 82.6234 641.237C82.9327 641.386 83.354 641.567 83.8874 641.781C84.4207 641.983 84.874 642.191 85.2474 642.405C85.6314 642.618 85.9194 642.879 86.1114 643.189C86.314 643.498 86.4154 643.893 86.4154 644.373ZM96.8496 638.021C96.999 638.021 97.159 638.031 97.3296 638.053C97.511 638.063 97.6656 638.079 97.7936 638.101L97.6176 639.685C97.3403 639.61 97.0523 639.573 96.7536 639.573C96.327 639.573 95.9216 639.679 95.5376 639.893C95.1643 640.106 94.8603 640.415 94.6256 640.821C94.4016 641.215 94.2896 641.695 94.2896 642.261V646.805H92.5936V638.181H93.9376L94.1616 639.717H94.2256C94.503 639.258 94.8603 638.863 95.2976 638.533C95.735 638.191 96.2523 638.021 96.8496 638.021ZM102.47 638.021C103.601 638.021 104.491 638.373 105.142 639.077C105.793 639.77 106.118 640.719 106.118 641.925V642.853H100.326C100.347 643.738 100.577 644.415 101.014 644.885C101.462 645.354 102.086 645.589 102.886 645.589C103.441 645.589 103.931 645.541 104.358 645.445C104.795 645.338 105.243 645.183 105.702 644.981V646.389C105.265 646.581 104.827 646.725 104.39 646.821C103.953 646.917 103.43 646.965 102.822 646.965C101.979 646.965 101.238 646.799 100.598 646.469C99.9687 646.138 99.4727 645.647 99.11 644.997C98.758 644.335 98.582 643.525 98.582 642.565C98.582 641.594 98.742 640.773 99.062 640.101C99.3927 639.429 99.846 638.917 100.422 638.565C101.009 638.202 101.691 638.021 102.47 638.021ZM102.47 639.333C101.862 639.333 101.371 639.53 100.998 639.925C100.635 640.319 100.422 640.879 100.358 641.605H104.422C104.411 640.933 104.246 640.389 103.926 639.973C103.617 639.546 103.131 639.333 102.47 639.333ZM111.578 638.021C112.656 638.021 113.461 638.261 113.994 638.741C114.538 639.21 114.81 639.951 114.81 640.965V646.805H113.61L113.274 645.605H113.21C112.837 646.074 112.442 646.421 112.026 646.645C111.621 646.858 111.056 646.965 110.33 646.965C109.552 646.965 108.906 646.757 108.394 646.341C107.882 645.914 107.626 645.253 107.626 644.357C107.626 643.482 107.957 642.815 108.618 642.357C109.28 641.898 110.298 641.647 111.674 641.605L113.146 641.557V641.077C113.146 640.447 113.002 640.005 112.714 639.749C112.426 639.482 112.021 639.349 111.498 639.349C111.061 639.349 110.64 639.413 110.234 639.541C109.829 639.669 109.44 639.823 109.066 640.005L108.522 638.773C108.928 638.559 109.392 638.383 109.914 638.245C110.448 638.095 111.002 638.021 111.578 638.021ZM113.13 642.661L111.978 642.693C110.997 642.735 110.314 642.901 109.93 643.189C109.557 643.466 109.37 643.861 109.37 644.373C109.37 644.821 109.504 645.146 109.77 645.349C110.037 645.551 110.384 645.653 110.81 645.653C111.472 645.653 112.021 645.466 112.458 645.093C112.906 644.719 113.13 644.159 113.13 643.413V642.661ZM120.382 646.965C119.347 646.965 118.51 646.591 117.87 645.845C117.24 645.098 116.926 643.989 116.926 642.517C116.926 641.034 117.246 639.914 117.886 639.157C118.526 638.399 119.368 638.021 120.414 638.021C121.064 638.021 121.598 638.143 122.014 638.389C122.43 638.634 122.766 638.933 123.022 639.285H123.118C123.096 639.146 123.07 638.933 123.038 638.645C123.006 638.357 122.99 638.101 122.99 637.877V634.645H124.686V646.805H123.358L123.07 645.653H122.99C122.744 646.026 122.414 646.341 121.998 646.597C121.582 646.842 121.043 646.965 120.382 646.965ZM120.782 645.573C121.614 645.573 122.2 645.343 122.542 644.885C122.883 644.415 123.054 643.717 123.054 642.789V642.533C123.054 641.53 122.888 640.762 122.558 640.229C122.238 639.685 121.64 639.413 120.766 639.413C120.072 639.413 119.55 639.695 119.198 640.261C118.846 640.815 118.67 641.578 118.67 642.549C118.67 643.519 118.846 644.266 119.198 644.789C119.55 645.311 120.078 645.573 120.782 645.573ZM126.032 638.181H127.856L129.648 643.077C129.786 643.45 129.904 643.813 130 644.165C130.106 644.506 130.186 644.842 130.24 645.173H130.304C130.357 644.895 130.437 644.57 130.544 644.197C130.661 643.823 130.789 643.445 130.928 643.061L132.624 638.181H134.448L130.752 647.973C130.442 648.805 130.026 649.455 129.504 649.925C128.992 650.405 128.32 650.645 127.488 650.645C127.221 650.645 126.992 650.629 126.8 650.597C126.608 650.575 126.442 650.549 126.304 650.517V649.173C126.41 649.194 126.549 649.215 126.72 649.237C126.89 649.258 127.066 649.269 127.248 649.269C127.738 649.269 128.133 649.125 128.432 648.837C128.73 648.559 128.965 648.191 129.136 647.733L129.488 646.805L126.032 638.181ZM144.145 639.477H142.017V646.805H140.321V639.477H138.865V638.677L140.321 638.149V637.605C140.321 636.506 140.572 635.727 141.073 635.269C141.585 634.799 142.295 634.565 143.201 634.565C143.575 634.565 143.916 634.597 144.225 634.661C144.535 634.725 144.796 634.794 145.009 634.869L144.577 636.165C144.396 636.111 144.193 636.063 143.969 636.021C143.756 635.967 143.527 635.941 143.281 635.941C142.439 635.941 142.017 636.501 142.017 637.621V638.181H144.145V639.477ZM153.256 642.485C153.256 643.914 152.888 645.018 152.152 645.797C151.416 646.575 150.424 646.965 149.176 646.965C148.397 646.965 147.704 646.789 147.096 646.437C146.499 646.085 146.024 645.578 145.672 644.917C145.331 644.245 145.16 643.434 145.16 642.485C145.16 641.055 145.523 639.957 146.248 639.189C146.973 638.41 147.965 638.021 149.224 638.021C150.013 638.021 150.707 638.197 151.304 638.549C151.912 638.89 152.387 639.391 152.728 640.053C153.08 640.714 153.256 641.525 153.256 642.485ZM146.904 642.485C146.904 643.455 147.085 644.213 147.448 644.757C147.821 645.301 148.408 645.573 149.208 645.573C150.008 645.573 150.589 645.301 150.952 644.757C151.325 644.213 151.512 643.455 151.512 642.485C151.512 641.503 151.325 640.751 150.952 640.229C150.579 639.695 149.992 639.429 149.192 639.429C148.392 639.429 147.811 639.695 147.448 640.229C147.085 640.751 146.904 641.503 146.904 642.485ZM159.662 638.021C159.811 638.021 159.971 638.031 160.142 638.053C160.323 638.063 160.478 638.079 160.606 638.101L160.43 639.685C160.153 639.61 159.865 639.573 159.566 639.573C159.139 639.573 158.734 639.679 158.35 639.893C157.977 640.106 157.673 640.415 157.438 640.821C157.214 641.215 157.102 641.695 157.102 642.261V646.805H155.406V638.181H156.75L156.974 639.717H157.038C157.315 639.258 157.673 638.863 158.11 638.533C158.547 638.191 159.065 638.021 159.662 638.021ZM169.703 638.021C170.781 638.021 171.586 638.261 172.119 638.741C172.663 639.21 172.935 639.951 172.935 640.965V646.805H171.735L171.399 645.605H171.335C170.962 646.074 170.567 646.421 170.151 646.645C169.746 646.858 169.181 646.965 168.455 646.965C167.677 646.965 167.031 646.757 166.519 646.341C166.007 645.914 165.751 645.253 165.751 644.357C165.751 643.482 166.082 642.815 166.743 642.357C167.405 641.898 168.423 641.647 169.799 641.605L171.271 641.557V641.077C171.271 640.447 171.127 640.005 170.839 639.749C170.551 639.482 170.146 639.349 169.623 639.349C169.186 639.349 168.765 639.413 168.359 639.541C167.954 639.669 167.565 639.823 167.191 640.005L166.647 638.773C167.053 638.559 167.517 638.383 168.039 638.245C168.573 638.095 169.127 638.021 169.703 638.021ZM171.255 642.661L170.103 642.693C169.122 642.735 168.439 642.901 168.055 643.189C167.682 643.466 167.495 643.861 167.495 644.373C167.495 644.821 167.629 645.146 167.895 645.349C168.162 645.551 168.509 645.653 168.935 645.653C169.597 645.653 170.146 645.466 170.583 645.093C171.031 644.719 171.255 644.159 171.255 643.413V642.661ZM182.679 638.021C183.82 638.021 184.7 638.453 185.319 639.317H185.399L185.591 638.181H186.967V646.917C186.967 648.143 186.636 649.071 185.975 649.701C185.324 650.33 184.327 650.645 182.983 650.645C182.354 650.645 181.778 650.602 181.255 650.517C180.743 650.431 180.268 650.298 179.831 650.117V648.629C180.748 649.077 181.831 649.301 183.079 649.301C183.783 649.301 184.327 649.098 184.711 648.693C185.095 648.298 185.287 647.738 185.287 647.013V646.725C185.287 646.586 185.292 646.405 185.303 646.181C185.314 645.957 185.324 645.786 185.335 645.669H185.271C184.983 646.117 184.62 646.447 184.183 646.661C183.746 646.863 183.244 646.965 182.679 646.965C181.591 646.965 180.738 646.575 180.119 645.797C179.511 645.007 179.207 643.914 179.207 642.517C179.207 641.13 179.511 640.037 180.119 639.237C180.738 638.426 181.591 638.021 182.679 638.021ZM183.031 639.429C182.359 639.429 181.842 639.695 181.479 640.229C181.127 640.762 180.951 641.53 180.951 642.533C180.951 643.535 181.127 644.298 181.479 644.821C181.842 645.343 182.37 645.605 183.063 645.605C183.852 645.605 184.428 645.391 184.791 644.965C185.164 644.527 185.351 643.818 185.351 642.837V642.517C185.351 641.418 185.164 640.629 184.791 640.149C184.418 639.669 183.831 639.429 183.031 639.429ZM197.225 642.485C197.225 643.914 196.857 645.018 196.121 645.797C195.385 646.575 194.393 646.965 193.145 646.965C192.366 646.965 191.673 646.789 191.065 646.437C190.468 646.085 189.993 645.578 189.641 644.917C189.3 644.245 189.129 643.434 189.129 642.485C189.129 641.055 189.492 639.957 190.217 639.189C190.942 638.41 191.934 638.021 193.193 638.021C193.982 638.021 194.676 638.197 195.273 638.549C195.881 638.89 196.356 639.391 196.697 640.053C197.049 640.714 197.225 641.525 197.225 642.485ZM190.873 642.485C190.873 643.455 191.054 644.213 191.417 644.757C191.79 645.301 192.377 645.573 193.177 645.573C193.977 645.573 194.558 645.301 194.921 644.757C195.294 644.213 195.481 643.455 195.481 642.485C195.481 641.503 195.294 640.751 194.921 640.229C194.548 639.695 193.961 639.429 193.161 639.429C192.361 639.429 191.78 639.695 191.417 640.229C191.054 640.751 190.873 641.503 190.873 642.485ZM206.975 642.485C206.975 643.914 206.607 645.018 205.871 645.797C205.135 646.575 204.143 646.965 202.895 646.965C202.116 646.965 201.423 646.789 200.815 646.437C200.218 646.085 199.743 645.578 199.391 644.917C199.05 644.245 198.879 643.434 198.879 642.485C198.879 641.055 199.242 639.957 199.967 639.189C200.692 638.41 201.684 638.021 202.943 638.021C203.732 638.021 204.426 638.197 205.023 638.549C205.631 638.89 206.106 639.391 206.447 640.053C206.799 640.714 206.975 641.525 206.975 642.485ZM200.623 642.485C200.623 643.455 200.804 644.213 201.167 644.757C201.54 645.301 202.127 645.573 202.927 645.573C203.727 645.573 204.308 645.301 204.671 644.757C205.044 644.213 205.231 643.455 205.231 642.485C205.231 641.503 205.044 640.751 204.671 640.229C204.298 639.695 203.711 639.429 202.911 639.429C202.111 639.429 201.53 639.695 201.167 640.229C200.804 640.751 200.623 641.503 200.623 642.485ZM212.085 646.965C211.05 646.965 210.213 646.591 209.573 645.845C208.944 645.098 208.629 643.989 208.629 642.517C208.629 641.034 208.949 639.914 209.589 639.157C210.229 638.399 211.072 638.021 212.117 638.021C212.768 638.021 213.301 638.143 213.717 638.389C214.133 638.634 214.469 638.933 214.725 639.285H214.821C214.8 639.146 214.773 638.933 214.741 638.645C214.709 638.357 214.693 638.101 214.693 637.877V634.645H216.389V646.805H215.061L214.773 645.653H214.693C214.448 646.026 214.117 646.341 213.701 646.597C213.285 646.842 212.746 646.965 212.085 646.965ZM212.485 645.573C213.317 645.573 213.904 645.343 214.245 644.885C214.586 644.415 214.757 643.717 214.757 642.789V642.533C214.757 641.53 214.592 640.762 214.261 640.229C213.941 639.685 213.344 639.413 212.469 639.413C211.776 639.413 211.253 639.695 210.901 640.261C210.549 640.815 210.373 641.578 210.373 642.549C210.373 643.519 210.549 644.266 210.901 644.789C211.253 645.311 211.781 645.573 212.485 645.573ZM226.307 645.589C226.531 645.589 226.76 645.573 226.995 645.541C227.23 645.498 227.432 645.445 227.603 645.381V646.661C227.411 646.746 227.16 646.815 226.851 646.869C226.552 646.933 226.248 646.965 225.939 646.965C225.47 646.965 225.038 646.885 224.643 646.725C224.248 646.565 223.934 646.287 223.699 645.893C223.475 645.498 223.363 644.949 223.363 644.245V639.477H222.163V638.709L223.427 638.069L224.019 636.245H225.059V638.181H227.523V639.477H225.059V644.213C225.059 644.682 225.171 645.029 225.395 645.253C225.63 645.477 225.934 645.589 226.307 645.589ZM230.192 634.901C230.448 634.901 230.672 634.975 230.864 635.125C231.056 635.274 231.152 635.525 231.152 635.877C231.152 636.218 231.056 636.469 230.864 636.629C230.672 636.778 230.448 636.853 230.192 636.853C229.915 636.853 229.68 636.778 229.488 636.629C229.307 636.469 229.216 636.218 229.216 635.877C229.216 635.525 229.307 635.274 229.488 635.125C229.68 634.975 229.915 634.901 230.192 634.901ZM231.024 638.181V646.805H229.328V638.181H231.024ZM243.351 638.021C244.322 638.021 245.053 638.271 245.543 638.773C246.034 639.274 246.279 640.079 246.279 641.189V646.805H244.583V641.413C244.583 640.079 244.045 639.413 242.967 639.413C242.199 639.413 241.65 639.653 241.319 640.133C240.989 640.602 240.823 641.279 240.823 642.165V646.805H239.143V641.413C239.143 640.079 238.599 639.413 237.511 639.413C236.701 639.413 236.141 639.674 235.831 640.197C235.533 640.719 235.383 641.471 235.383 642.453V646.805H233.687V638.181H235.031L235.271 639.333H235.367C235.623 638.885 235.981 638.554 236.439 638.341C236.898 638.127 237.383 638.021 237.895 638.021C239.229 638.021 240.103 638.485 240.519 639.413H240.647C240.925 638.933 241.309 638.581 241.799 638.357C242.29 638.133 242.807 638.021 243.351 638.021ZM252.267 638.021C253.398 638.021 254.288 638.373 254.939 639.077C255.59 639.77 255.915 640.719 255.915 641.925V642.853H250.123C250.144 643.738 250.374 644.415 250.811 644.885C251.259 645.354 251.883 645.589 252.683 645.589C253.238 645.589 253.728 645.541 254.155 645.445C254.592 645.338 255.04 645.183 255.499 644.981V646.389C255.062 646.581 254.624 646.725 254.187 646.821C253.75 646.917 253.227 646.965 252.619 646.965C251.776 646.965 251.035 646.799 250.395 646.469C249.766 646.138 249.27 645.647 248.907 644.997C248.555 644.335 248.379 643.525 248.379 642.565C248.379 641.594 248.539 640.773 248.859 640.101C249.19 639.429 249.643 638.917 250.219 638.565C250.806 638.202 251.488 638.021 252.267 638.021ZM252.267 639.333C251.659 639.333 251.168 639.53 250.795 639.925C250.432 640.319 250.219 640.879 250.155 641.605H254.219C254.208 640.933 254.043 640.389 253.723 639.973C253.414 639.546 252.928 639.333 252.267 639.333ZM261.947 639.141C261.947 638.714 262.049 638.415 262.251 638.245C262.465 638.063 262.726 637.973 263.035 637.973C263.334 637.973 263.59 638.063 263.803 638.245C264.027 638.415 264.139 638.714 264.139 639.141C264.139 639.546 264.027 639.839 263.803 640.021C263.59 640.202 263.334 640.293 263.035 640.293C262.726 640.293 262.465 640.202 262.251 640.021C262.049 639.839 261.947 639.546 261.947 639.141ZM261.947 645.861C261.947 645.445 262.049 645.151 262.251 644.981C262.465 644.81 262.726 644.725 263.035 644.725C263.334 644.725 263.59 644.81 263.803 644.981C264.027 645.151 264.139 645.445 264.139 645.861C264.139 646.277 264.027 646.575 263.803 646.757C263.59 646.938 263.334 647.029 263.035 647.029C262.726 647.029 262.465 646.938 262.251 646.757C262.049 646.575 261.947 646.277 261.947 645.861ZM269.586 642.421C269.586 643.711 269.394 644.954 269.01 646.149C268.626 647.333 268.034 648.394 267.234 649.333H265.73C266.466 648.341 267.021 647.247 267.394 646.053C267.768 644.858 267.954 643.642 267.954 642.405C267.954 641.135 267.762 639.898 267.378 638.693C267.005 637.487 266.45 636.383 265.714 635.381H267.234C268.034 636.351 268.626 637.445 269.01 638.661C269.394 639.866 269.586 641.119 269.586 642.421Z" fill="#141414"/>
<path d="M103.453 90.3711V101.09H101.438V90.4023L95.6406 78.6836H97.8125L102.422 87.9961L107.031 78.6836H109.203L103.453 90.3711ZM121.172 96.6992C121.172 97.3451 121.047 97.9544 120.797 98.5273C120.557 99.1003 120.224 99.6003 119.797 100.027C119.37 100.454 118.87 100.793 118.297 101.043C117.724 101.283 117.115 101.402 116.469 101.402H115.188C114.542 101.402 113.932 101.283 113.359 101.043C112.786 100.793 112.286 100.454 111.859 100.027C111.432 99.6003 111.094 99.1003 110.844 98.5273C110.604 97.9544 110.484 97.3451 110.484 96.6992V89.4805C110.484 88.8346 110.604 88.2253 110.844 87.6523C111.094 87.0794 111.432 86.5794 111.859 86.1523C112.286 85.7253 112.786 85.3919 113.359 85.1523C113.932 84.9023 114.542 84.7773 115.188 84.7773H116.469C117.115 84.7773 117.724 84.9023 118.297 85.1523C118.87 85.3919 119.37 85.7253 119.797 86.1523C120.224 86.5794 120.557 87.0794 120.797 87.6523C121.047 88.2253 121.172 88.8346 121.172 89.4805V96.6992ZM119.25 89.3711C119.25 88.9857 119.177 88.6263 119.031 88.293C118.885 87.9492 118.688 87.6523 118.438 87.4023C118.188 87.1523 117.891 86.9544 117.547 86.8086C117.214 86.6628 116.854 86.5898 116.469 86.5898H115.188C114.802 86.5898 114.438 86.6628 114.094 86.8086C113.76 86.9544 113.469 87.1523 113.219 87.4023C112.969 87.6523 112.771 87.9492 112.625 88.293C112.479 88.6263 112.406 88.9857 112.406 89.3711V96.8086C112.406 97.194 112.479 97.5586 112.625 97.9023C112.771 98.2357 112.969 98.5273 113.219 98.7773C113.469 99.0273 113.76 99.2253 114.094 99.3711C114.438 99.5169 114.802 99.5898 115.188 99.5898H116.469C116.854 99.5898 117.214 99.5169 117.547 99.3711C117.891 99.2253 118.188 99.0273 118.438 98.7773C118.688 98.5273 118.885 98.2357 119.031 97.9023C119.177 97.5586 119.25 97.194 119.25 96.8086V89.3711ZM135.062 101.09L134 99.4648C133.562 100.059 133.016 100.533 132.359 100.887C131.703 101.23 130.984 101.402 130.203 101.402H129.719C129.073 101.402 128.464 101.283 127.891 101.043C127.318 100.793 126.818 100.454 126.391 100.027C125.964 99.6003 125.625 99.1003 125.375 98.5273C125.135 97.9544 125.016 97.3451 125.016 96.6992V85.0898H126.938V96.8086C126.938 97.194 127.01 97.5586 127.156 97.9023C127.302 98.2357 127.5 98.5273 127.75 98.7773C128 99.0273 128.292 99.2253 128.625 99.3711C128.969 99.5169 129.333 99.5898 129.719 99.5898H131C131.385 99.5898 131.745 99.5169 132.078 99.3711C132.422 99.2253 132.719 99.0273 132.969 98.7773C133.219 98.5273 133.417 98.2357 133.562 97.9023C133.708 97.5586 133.781 97.194 133.781 96.8086V85.0898H135.703V101.09H135.062ZM157.766 103.105C157.766 103.751 157.641 104.345 157.391 104.887C157.151 105.428 156.818 105.892 156.391 106.277C155.964 106.663 155.464 106.96 154.891 107.168C154.318 107.387 153.708 107.496 153.062 107.496H152.266C151.62 107.496 151.01 107.387 150.438 107.168C149.865 106.96 149.365 106.663 148.938 106.277C148.51 105.892 148.172 105.428 147.922 104.887C147.682 104.345 147.562 103.751 147.562 103.105V103.043C147.562 102.418 147.677 101.845 147.906 101.324C148.135 100.803 148.448 100.35 148.844 99.9648C148.344 99.6628 147.943 99.2565 147.641 98.7461C147.349 98.2253 147.203 97.6523 147.203 97.0273C147.203 96.4648 147.323 95.944 147.562 95.4648C147.802 94.9753 148.13 94.5794 148.547 94.2773C148.047 93.8398 147.651 93.3138 147.359 92.6992C147.068 92.0846 146.922 91.4128 146.922 90.6836V89.4805C146.922 88.8346 147.042 88.2253 147.281 87.6523C147.531 87.0794 147.87 86.5794 148.297 86.1523C148.724 85.7253 149.224 85.3919 149.797 85.1523C150.37 84.9023 150.979 84.7773 151.625 84.7773H152.422C153.203 84.7773 153.922 84.9544 154.578 85.3086C155.245 85.6523 155.797 86.1211 156.234 86.7148L157.281 85.0898H157.922V90.6836C157.922 91.3294 157.797 91.9388 157.547 92.5117C157.307 93.0846 156.974 93.5846 156.547 94.0117C156.12 94.4388 155.62 94.7773 155.047 95.0273C154.474 95.2669 153.865 95.3867 153.219 95.3867H150.438C150.219 95.3867 150.01 95.4336 149.812 95.5273C149.615 95.6107 149.438 95.7253 149.281 95.8711C149.135 96.0169 149.021 96.194 148.938 96.4023C148.854 96.6003 148.812 96.8086 148.812 97.0273C148.812 97.2461 148.854 97.4544 148.938 97.6523C149.021 97.8503 149.135 98.0273 149.281 98.1836C149.438 98.3294 149.615 98.444 149.812 98.5273C150.01 98.6107 150.219 98.6523 150.438 98.6523H153.062C153.708 98.6523 154.318 98.7617 154.891 98.9805C155.464 99.1888 155.964 99.4857 156.391 99.8711C156.818 100.257 157.151 100.72 157.391 101.262C157.641 101.803 157.766 102.397 157.766 103.043V103.105ZM156.016 89.3711C156.016 88.9857 155.943 88.6263 155.797 88.293C155.651 87.9492 155.448 87.6523 155.188 87.4023C154.938 87.1523 154.641 86.9544 154.297 86.8086C153.964 86.6628 153.604 86.5898 153.219 86.5898H151.625C151.24 86.5898 150.875 86.6628 150.531 86.8086C150.198 86.9544 149.906 87.1523 149.656 87.4023C149.406 87.6523 149.208 87.9492 149.062 88.293C148.917 88.6263 148.844 88.9857 148.844 89.3711V90.793C148.844 91.1784 148.917 91.543 149.062 91.8867C149.208 92.2201 149.406 92.5117 149.656 92.7617C149.906 93.0117 150.198 93.2096 150.531 93.3555C150.875 93.5013 151.24 93.5742 151.625 93.5742H153.219C153.604 93.5742 153.964 93.5013 154.297 93.3555C154.641 93.2096 154.938 93.0117 155.188 92.7617C155.448 92.5117 155.651 92.2201 155.797 91.8867C155.943 91.543 156.016 91.1784 156.016 90.793V89.3711ZM155.938 102.949C155.938 102.564 155.865 102.215 155.719 101.902C155.573 101.6 155.375 101.345 155.125 101.137C154.875 100.928 154.578 100.767 154.234 100.652C153.901 100.538 153.542 100.48 153.156 100.48H152.172C151.786 100.48 151.422 100.538 151.078 100.652C150.745 100.767 150.453 100.928 150.203 101.137C149.953 101.345 149.755 101.6 149.609 101.902C149.464 102.215 149.391 102.564 149.391 102.949V103.199C149.391 103.585 149.464 103.928 149.609 104.23C149.755 104.533 149.953 104.788 150.203 104.996C150.453 105.215 150.745 105.382 151.078 105.496C151.422 105.611 151.786 105.668 152.172 105.668H153.156C153.542 105.668 153.901 105.611 154.234 105.496C154.578 105.382 154.875 105.215 155.125 104.996C155.375 104.788 155.573 104.533 155.719 104.23C155.865 103.928 155.938 103.585 155.938 103.199V102.949ZM172.141 96.6992C172.141 97.3451 172.016 97.9544 171.766 98.5273C171.526 99.1003 171.193 99.6003 170.766 100.027C170.339 100.454 169.839 100.793 169.266 101.043C168.693 101.283 168.083 101.402 167.438 101.402H166.156C165.51 101.402 164.901 101.283 164.328 101.043C163.755 100.793 163.255 100.454 162.828 100.027C162.401 99.6003 162.062 99.1003 161.812 98.5273C161.573 97.9544 161.453 97.3451 161.453 96.6992V89.4805C161.453 88.8346 161.573 88.2253 161.812 87.6523C162.062 87.0794 162.401 86.5794 162.828 86.1523C163.255 85.7253 163.755 85.3919 164.328 85.1523C164.901 84.9023 165.51 84.7773 166.156 84.7773H167.438C168.083 84.7773 168.693 84.9023 169.266 85.1523C169.839 85.3919 170.339 85.7253 170.766 86.1523C171.193 86.5794 171.526 87.0794 171.766 87.6523C172.016 88.2253 172.141 88.8346 172.141 89.4805V96.6992ZM170.219 89.3711C170.219 88.9857 170.146 88.6263 170 88.293C169.854 87.9492 169.656 87.6523 169.406 87.4023C169.156 87.1523 168.859 86.9544 168.516 86.8086C168.182 86.6628 167.823 86.5898 167.438 86.5898H166.156C165.771 86.5898 165.406 86.6628 165.062 86.8086C164.729 86.9544 164.438 87.1523 164.188 87.4023C163.938 87.6523 163.74 87.9492 163.594 88.293C163.448 88.6263 163.375 88.9857 163.375 89.3711V96.8086C163.375 97.194 163.448 97.5586 163.594 97.9023C163.74 98.2357 163.938 98.5273 164.188 98.7773C164.438 99.0273 164.729 99.2253 165.062 99.3711C165.406 99.5169 165.771 99.5898 166.156 99.5898H167.438C167.823 99.5898 168.182 99.5169 168.516 99.3711C168.859 99.2253 169.156 99.0273 169.406 98.7773C169.656 98.5273 169.854 98.2357 170 97.9023C170.146 97.5586 170.219 97.194 170.219 96.8086V89.3711ZM181.812 101.09C181.229 101.09 180.677 100.98 180.156 100.762C179.646 100.543 179.198 100.241 178.812 99.8555C178.438 99.4701 178.135 99.0221 177.906 98.5117C177.688 98.0013 177.578 97.4544 177.578 96.8711V86.918H174.703V85.0898H177.578V81.2461L179.5 80.9336V85.0898H183.562V86.918H179.5V96.9648C179.5 97.2878 179.557 97.5898 179.672 97.8711C179.797 98.1419 179.964 98.3815 180.172 98.5898C180.38 98.7982 180.625 98.9648 180.906 99.0898C181.188 99.2044 181.49 99.2617 181.812 99.2617H183.562V101.09H181.812ZM204.531 101.09L203.469 99.4961C203.031 100.069 202.484 100.533 201.828 100.887C201.172 101.23 200.453 101.402 199.672 101.402H199.188C198.542 101.402 197.932 101.283 197.359 101.043C196.786 100.793 196.286 100.454 195.859 100.027C195.432 99.6003 195.094 99.1003 194.844 98.5273C194.604 97.9544 194.484 97.3451 194.484 96.6992V96.543C194.484 95.8971 194.604 95.2878 194.844 94.7148C195.094 94.1419 195.432 93.6419 195.859 93.2148C196.286 92.7878 196.786 92.4544 197.359 92.2148C197.932 91.9648 198.542 91.8398 199.188 91.8398H203.25V89.3711C203.25 88.9857 203.177 88.6263 203.031 88.293C202.885 87.9492 202.688 87.6523 202.438 87.4023C202.188 87.1523 201.891 86.9544 201.547 86.8086C201.214 86.6628 200.854 86.5898 200.469 86.5898H199.344C198.958 86.5898 198.594 86.6628 198.25 86.8086C197.917 86.9544 197.625 87.1523 197.375 87.4023C197.125 87.6523 196.927 87.9492 196.781 88.293C196.635 88.6263 196.562 88.9857 196.562 89.3711V89.9492L194.641 89.6367V89.4805C194.641 88.8346 194.76 88.2253 195 87.6523C195.25 87.0794 195.589 86.5794 196.016 86.1523C196.443 85.7253 196.943 85.3919 197.516 85.1523C198.089 84.9023 198.698 84.7773 199.344 84.7773H200.469C201.115 84.7773 201.724 84.9023 202.297 85.1523C202.87 85.3919 203.37 85.7253 203.797 86.1523C204.224 86.5794 204.557 87.0794 204.797 87.6523C205.047 88.2253 205.172 88.8346 205.172 89.4805V101.09H204.531ZM203.25 93.3398H199.188C198.802 93.3398 198.438 93.4128 198.094 93.5586C197.76 93.7044 197.469 93.9076 197.219 94.168C196.969 94.418 196.771 94.7148 196.625 95.0586C196.479 95.3919 196.406 95.7513 196.406 96.1367V96.8086C196.406 97.194 196.479 97.5586 196.625 97.9023C196.771 98.2357 196.969 98.5273 197.219 98.7773C197.469 99.0273 197.76 99.2253 198.094 99.3711C198.438 99.5169 198.802 99.5898 199.188 99.5898H200.469C200.854 99.5898 201.214 99.5169 201.547 99.3711C201.891 99.2253 202.188 99.0273 202.438 98.7773C202.688 98.5273 202.885 98.2357 203.031 97.9023C203.177 97.5586 203.25 97.194 203.25 96.8086V93.3398ZM233.281 101.09V89.3711C233.281 88.9857 233.208 88.6263 233.062 88.293C232.917 87.9492 232.719 87.6523 232.469 87.4023C232.219 87.1523 231.922 86.9544 231.578 86.8086C231.245 86.6628 230.885 86.5898 230.5 86.5898H229.547C229.161 86.5898 228.797 86.6628 228.453 86.8086C228.12 86.9544 227.823 87.1523 227.562 87.4023C227.312 87.6523 227.115 87.9492 226.969 88.293C226.823 88.6263 226.75 88.9857 226.75 89.3711V101.09H224.844V89.3711C224.844 88.9857 224.771 88.6263 224.625 88.293C224.479 87.9492 224.276 87.6523 224.016 87.4023C223.766 87.1523 223.469 86.9544 223.125 86.8086C222.792 86.6628 222.432 86.5898 222.047 86.5898H221.094C220.708 86.5898 220.344 86.6628 220 86.8086C219.667 86.9544 219.375 87.1523 219.125 87.4023C218.875 87.6523 218.677 87.9492 218.531 88.293C218.385 88.6263 218.312 88.9857 218.312 89.3711V101.09H216.391V85.0898H217.031L218.078 86.7148C218.516 86.1211 219.062 85.6523 219.719 85.3086C220.385 84.9544 221.109 84.7773 221.891 84.7773H222.047C222.953 84.7773 223.771 85.0013 224.5 85.4492C225.229 85.8971 225.792 86.4909 226.188 87.2305C226.385 86.8659 226.63 86.5326 226.922 86.2305C227.214 85.9284 227.536 85.6732 227.891 85.4648C228.245 85.2461 228.63 85.0794 229.047 84.9648C229.464 84.8398 229.896 84.7773 230.344 84.7773H230.5C231.146 84.7773 231.755 84.9023 232.328 85.1523C232.901 85.3919 233.401 85.7253 233.828 86.1523C234.255 86.5794 234.589 87.0794 234.828 87.6523C235.078 88.2253 235.203 88.8346 235.203 89.4805V101.09H233.281ZM249.094 101.09L248.031 99.4961C247.594 100.069 247.047 100.533 246.391 100.887C245.734 101.23 245.016 101.402 244.234 101.402H243.75C243.104 101.402 242.495 101.283 241.922 101.043C241.349 100.793 240.849 100.454 240.422 100.027C239.995 99.6003 239.656 99.1003 239.406 98.5273C239.167 97.9544 239.047 97.3451 239.047 96.6992V96.543C239.047 95.8971 239.167 95.2878 239.406 94.7148C239.656 94.1419 239.995 93.6419 240.422 93.2148C240.849 92.7878 241.349 92.4544 241.922 92.2148C242.495 91.9648 243.104 91.8398 243.75 91.8398H247.812V89.3711C247.812 88.9857 247.74 88.6263 247.594 88.293C247.448 87.9492 247.25 87.6523 247 87.4023C246.75 87.1523 246.453 86.9544 246.109 86.8086C245.776 86.6628 245.417 86.5898 245.031 86.5898H243.906C243.521 86.5898 243.156 86.6628 242.812 86.8086C242.479 86.9544 242.188 87.1523 241.938 87.4023C241.688 87.6523 241.49 87.9492 241.344 88.293C241.198 88.6263 241.125 88.9857 241.125 89.3711V89.9492L239.203 89.6367V89.4805C239.203 88.8346 239.323 88.2253 239.562 87.6523C239.812 87.0794 240.151 86.5794 240.578 86.1523C241.005 85.7253 241.505 85.3919 242.078 85.1523C242.651 84.9023 243.26 84.7773 243.906 84.7773H245.031C245.677 84.7773 246.286 84.9023 246.859 85.1523C247.432 85.3919 247.932 85.7253 248.359 86.1523C248.786 86.5794 249.12 87.0794 249.359 87.6523C249.609 88.2253 249.734 88.8346 249.734 89.4805V101.09H249.094ZM247.812 93.3398H243.75C243.365 93.3398 243 93.4128 242.656 93.5586C242.323 93.7044 242.031 93.9076 241.781 94.168C241.531 94.418 241.333 94.7148 241.188 95.0586C241.042 95.3919 240.969 95.7513 240.969 96.1367V96.8086C240.969 97.194 241.042 97.5586 241.188 97.9023C241.333 98.2357 241.531 98.5273 241.781 98.7773C242.031 99.0273 242.323 99.2253 242.656 99.3711C243 99.5169 243.365 99.5898 243.75 99.5898H245.031C245.417 99.5898 245.776 99.5169 246.109 99.3711C246.453 99.2253 246.75 99.0273 247 98.7773C247.25 98.5273 247.448 98.2357 247.594 97.9023C247.74 97.5586 247.812 97.194 247.812 96.8086V93.3398ZM259.406 101.09C258.823 101.09 258.271 100.98 257.75 100.762C257.24 100.543 256.792 100.241 256.406 99.8555C256.031 99.4701 255.729 99.0221 255.5 98.5117C255.281 98.0013 255.172 97.4544 255.172 96.8711V86.918H252.297V85.0898H255.172V81.2461L257.094 80.9336V85.0898H261.156V86.918H257.094V96.9648C257.094 97.2878 257.151 97.5898 257.266 97.8711C257.391 98.1419 257.557 98.3815 257.766 98.5898C257.974 98.7982 258.219 98.9648 258.5 99.0898C258.781 99.2044 259.083 99.2617 259.406 99.2617H261.156V101.09H259.406ZM275.391 96.6992C275.391 97.3451 275.266 97.9544 275.016 98.5273C274.776 99.1003 274.443 99.6003 274.016 100.027C273.589 100.454 273.089 100.793 272.516 101.043C271.943 101.283 271.333 101.402 270.688 101.402H269.406C268.76 101.402 268.151 101.283 267.578 101.043C267.005 100.793 266.505 100.454 266.078 100.027C265.651 99.6003 265.312 99.1003 265.062 98.5273C264.823 97.9544 264.703 97.3451 264.703 96.6992V89.4805C264.703 88.8346 264.823 88.2253 265.062 87.6523C265.312 87.0794 265.651 86.5794 266.078 86.1523C266.505 85.7253 267.005 85.3919 267.578 85.1523C268.151 84.9023 268.76 84.7773 269.406 84.7773H270.688C271.333 84.7773 271.943 84.9023 272.516 85.1523C273.089 85.3919 273.589 85.7253 274.016 86.1523C274.443 86.5794 274.776 87.0794 275.016 87.6523C275.266 88.2253 275.391 88.8346 275.391 89.4805V90.1211L273.469 90.4336V89.3711C273.469 88.9857 273.396 88.6263 273.25 88.293C273.104 87.9492 272.906 87.6523 272.656 87.4023C272.406 87.1523 272.109 86.9544 271.766 86.8086C271.432 86.6628 271.073 86.5898 270.688 86.5898H269.406C269.021 86.5898 268.656 86.6628 268.312 86.8086C267.979 86.9544 267.688 87.1523 267.438 87.4023C267.188 87.6523 266.99 87.9492 266.844 88.293C266.698 88.6263 266.625 88.9857 266.625 89.3711V96.8086C266.625 97.194 266.698 97.5586 266.844 97.9023C266.99 98.2357 267.188 98.5273 267.438 98.7773C267.688 99.0273 267.979 99.2253 268.312 99.3711C268.656 99.5169 269.021 99.5898 269.406 99.5898H270.688C271.073 99.5898 271.432 99.5169 271.766 99.3711C272.109 99.2253 272.406 99.0273 272.656 98.7773C272.906 98.5273 273.104 98.2357 273.25 97.9023C273.396 97.5586 273.469 97.194 273.469 96.8086V95.7461L275.391 96.0586V96.6992ZM288 101.09V89.3711C288 88.9857 287.927 88.6263 287.781 88.293C287.635 87.9492 287.438 87.6523 287.188 87.4023C286.938 87.1523 286.641 86.9544 286.297 86.8086C285.964 86.6628 285.604 86.5898 285.219 86.5898H283.938C283.552 86.5898 283.188 86.6628 282.844 86.8086C282.51 86.9544 282.219 87.1523 281.969 87.4023C281.719 87.6523 281.521 87.9492 281.375 88.293C281.229 88.6263 281.156 88.9857 281.156 89.3711V101.09H279.234V78.6836H281.156V86.4336C281.594 85.9128 282.12 85.5065 282.734 85.2148C283.349 84.9232 284.016 84.7773 284.734 84.7773H285.219C285.865 84.7773 286.474 84.9023 287.047 85.1523C287.62 85.3919 288.12 85.7253 288.547 86.1523C288.974 86.5794 289.307 87.0794 289.547 87.6523C289.797 88.2253 289.922 88.8346 289.922 89.4805V101.09H288ZM295.75 94.3086H294.625L293.766 78.6836H296.609L295.75 94.3086ZM293.984 101.09V98.6836H296.391V101.09H293.984Z" fill="black"/>
<rect id="view-button-front" x="92.5" y="674.361" width="185" height="47.0615" rx="5.5" fill="#3F91BF" stroke="black"/>
<g id="view-button-back">
<rect x="92.5" y="670.357" width="185" height="47.0615" rx="5.5" fill="#52BDF9" stroke="black"/>
<path d="M116.7 688.019L112.326 700.871H109.356L105 688.019H107.754L110.166 695.669C110.214 695.801 110.28 696.047 110.364 696.407C110.46 696.755 110.556 697.127 110.652 697.523C110.748 697.907 110.814 698.231 110.85 698.495C110.886 698.231 110.946 697.907 111.03 697.523C111.126 697.127 111.222 696.755 111.318 696.407C111.414 696.047 111.48 695.801 111.516 695.669L113.946 688.019H116.7ZM123.133 700.871H117.283V699.323L118.849 698.603V690.287L117.283 689.567V688.019H123.133V689.567L121.567 690.287V698.603L123.133 699.323V700.871ZM132.721 700.871H125.323V688.019H132.721V690.251H128.041V693.077H132.397V695.309H128.041V698.621H132.721V700.871ZM151.181 688.019L147.905 700.871H144.809L143.063 694.121C143.027 693.989 142.979 693.791 142.919 693.527C142.871 693.263 142.811 692.975 142.739 692.663C142.679 692.351 142.625 692.057 142.577 691.781C142.529 691.493 142.493 691.271 142.469 691.115C142.457 691.271 142.421 691.493 142.361 691.781C142.313 692.057 142.259 692.351 142.199 692.663C142.139 692.963 142.079 693.251 142.019 693.527C141.959 693.791 141.911 693.995 141.875 694.139L140.147 700.871H137.051L133.775 688.019H136.457L138.095 695.039C138.167 695.315 138.245 695.663 138.329 696.083C138.413 696.503 138.491 696.923 138.563 697.343C138.635 697.763 138.689 698.117 138.725 698.405C138.761 698.105 138.815 697.751 138.887 697.343C138.959 696.923 139.031 696.521 139.103 696.137C139.187 695.741 139.259 695.435 139.319 695.219L141.191 688.019H143.765L145.637 695.219C145.697 695.423 145.763 695.723 145.835 696.119C145.919 696.515 145.997 696.923 146.069 697.343C146.141 697.763 146.195 698.117 146.231 698.405C146.267 698.105 146.321 697.751 146.393 697.343C146.465 696.923 146.543 696.503 146.627 696.083C146.723 695.663 146.801 695.315 146.861 695.039L148.499 688.019H151.181ZM162.91 700.871L159.814 690.791H159.742C159.754 691.031 159.772 691.391 159.796 691.871C159.82 692.351 159.844 692.867 159.868 693.419C159.892 693.959 159.904 694.451 159.904 694.895V700.871H157.474V688.019H161.182L164.224 697.847H164.278L167.5 688.019H171.208V700.871H168.67V694.787C168.67 694.379 168.676 693.911 168.688 693.383C168.712 692.855 168.73 692.357 168.742 691.889C168.766 691.409 168.784 691.049 168.796 690.809H168.724L165.412 700.871H162.91ZM178.45 693.311L181.132 688.019H184.066L179.8 695.867V700.871H177.1V695.957L172.834 688.019H175.786L178.45 693.311ZM194.466 688.019C196.122 688.019 197.328 688.379 198.084 689.099C198.852 689.807 199.236 690.785 199.236 692.033C199.236 692.777 199.08 693.479 198.768 694.139C198.456 694.787 197.934 695.309 197.202 695.705C196.482 696.101 195.498 696.299 194.25 696.299H193.08V700.871H190.362V688.019H194.466ZM194.322 690.251H193.08V694.067H193.98C194.748 694.067 195.354 693.917 195.798 693.617C196.254 693.305 196.482 692.807 196.482 692.123C196.482 690.875 195.762 690.251 194.322 690.251ZM205.409 688.019C207.161 688.019 208.451 688.337 209.279 688.973C210.119 689.609 210.539 690.575 210.539 691.871C210.539 692.459 210.425 692.975 210.197 693.419C209.981 693.851 209.687 694.223 209.315 694.535C208.955 694.835 208.565 695.081 208.145 695.273L211.925 700.871H208.901L205.841 695.939H204.383V700.871H201.665V688.019H205.409ZM205.211 690.251H204.383V693.725H205.265C206.165 693.725 206.807 693.575 207.191 693.275C207.587 692.975 207.785 692.531 207.785 691.943C207.785 691.331 207.575 690.899 207.155 690.647C206.747 690.383 206.099 690.251 205.211 690.251ZM225.212 694.427C225.212 695.759 224.99 696.923 224.546 697.919C224.114 698.903 223.448 699.671 222.548 700.223C221.648 700.775 220.496 701.051 219.092 701.051C217.7 701.051 216.548 700.775 215.636 700.223C214.736 699.671 214.064 698.897 213.62 697.901C213.188 696.905 212.972 695.741 212.972 694.409C212.972 693.077 213.188 691.919 213.62 690.935C214.064 689.951 214.736 689.189 215.636 688.649C216.548 688.097 217.706 687.821 219.11 687.821C220.502 687.821 221.648 688.097 222.548 688.649C223.448 689.189 224.114 689.957 224.546 690.953C224.99 691.937 225.212 693.095 225.212 694.427ZM215.834 694.427C215.834 695.771 216.092 696.833 216.608 697.613C217.124 698.381 217.952 698.765 219.092 698.765C220.256 698.765 221.09 698.381 221.594 697.613C222.098 696.833 222.35 695.771 222.35 694.427C222.35 693.071 222.098 692.009 221.594 691.241C221.09 690.473 220.262 690.089 219.11 690.089C217.958 690.089 217.124 690.473 216.608 691.241C216.092 692.009 215.834 693.071 215.834 694.427ZM230.556 700.871H227.874V688.019H235.236V690.251H230.556V693.563H234.912V695.795H230.556V700.871ZM242.559 700.871H236.709V699.323L238.275 698.603V690.287L236.709 689.567V688.019H242.559V689.567L240.993 690.287V698.603L242.559 699.323V700.871ZM244.749 700.871V688.019H247.467V698.621H252.687V700.871H244.749ZM262.325 700.871H254.927V688.019H262.325V690.251H257.645V693.077H262.001V695.309H257.645V698.621H262.325V700.871Z" fill="#141414"/>
</g>
</svg>
