<svg width="410" height="824" viewBox="0 0 410 824" fill="none" xmlns="http://www.w3.org/2000/svg">
<g clip-path="url(#clip0)">
<rect x="19" y="111" width="382" height="691" fill="#F2F2F2"/>
<path d="M400.406 28.0001H11.7924C11.3963 28.0001 11.0001 28.34 11.0001 28.6798V115H400.208C400.604 115 401 114.66 401 114.32V28.5099C401 28.17 400.802 28.0001 400.406 28.0001Z" fill="#E0E0E0" stroke="black" stroke-width="2.27734" stroke-miterlimit="10"/>
<path d="M368.893 1.98828H41.1302C18.9894 1.98828 1 19.9777 1 42.1185V783.637C1 805.778 18.9894 823.768 41.1302 823.768H368.695C390.836 823.768 408.825 805.778 408.825 783.637V42.1185C409.023 19.9777 390.836 1.98828 368.893 1.98828ZM389.057 773.555C389.057 786.01 378.777 796.289 366.323 796.289H43.7001C31.2459 796.289 20.9662 786.01 20.9662 773.555V52.2004C20.9662 39.7462 31.2459 29.4666 43.7001 29.4666H139.182C139.182 42.5138 149.857 53.1889 162.905 53.1889H254.235C267.283 53.1889 277.958 42.5138 277.958 29.4666H366.125C378.58 29.4666 388.859 39.7462 388.859 52.2004V773.555H389.057Z" fill="#333333" stroke="black" stroke-miterlimit="10"/>
<path d="M181 80.1973V93H179.74V80.1973H176.401V78.9961H184.34V80.1973H181ZM191.83 90.2559C191.83 90.6595 191.752 91.0404 191.596 91.3984C191.446 91.7565 191.238 92.069 190.971 92.3359C190.704 92.6029 190.391 92.8145 190.033 92.9707C189.675 93.1204 189.294 93.1953 188.891 93.1953H188.09C187.686 93.1953 187.305 93.1204 186.947 92.9707C186.589 92.8145 186.277 92.6029 186.01 92.3359C185.743 92.069 185.531 91.7565 185.375 91.3984C185.225 91.0404 185.151 90.6595 185.151 90.2559V85.7441C185.151 85.3405 185.225 84.9596 185.375 84.6016C185.531 84.2435 185.743 83.931 186.01 83.6641C186.277 83.3971 186.589 83.1888 186.947 83.0391C187.305 82.8828 187.686 82.8047 188.09 82.8047H188.891C189.294 82.8047 189.675 82.8828 190.033 83.0391C190.391 83.1888 190.704 83.3971 190.971 83.6641C191.238 83.931 191.446 84.2435 191.596 84.6016C191.752 84.9596 191.83 85.3405 191.83 85.7441V90.2559ZM190.629 85.6758C190.629 85.4349 190.583 85.2103 190.492 85.002C190.401 84.7871 190.277 84.6016 190.121 84.4453C189.965 84.2891 189.779 84.1654 189.565 84.0742C189.356 83.9831 189.132 83.9375 188.891 83.9375H188.09C187.849 83.9375 187.621 83.9831 187.406 84.0742C187.198 84.1654 187.016 84.2891 186.859 84.4453C186.703 84.6016 186.58 84.7871 186.488 85.002C186.397 85.2103 186.352 85.4349 186.352 85.6758V90.3242C186.352 90.5651 186.397 90.793 186.488 91.0078C186.58 91.2161 186.703 91.3984 186.859 91.5547C187.016 91.7109 187.198 91.8346 187.406 91.9258C187.621 92.0169 187.849 92.0625 188.09 92.0625H188.891C189.132 92.0625 189.356 92.0169 189.565 91.9258C189.779 91.8346 189.965 91.7109 190.121 91.5547C190.277 91.3984 190.401 91.2161 190.492 91.0078C190.583 90.793 190.629 90.5651 190.629 90.3242V85.6758ZM200.512 93L199.848 92.0039C199.574 92.362 199.233 92.6517 198.822 92.873C198.412 93.0879 197.963 93.1953 197.475 93.1953H197.172C196.768 93.1953 196.387 93.1204 196.029 92.9707C195.671 92.8145 195.359 92.6029 195.092 92.3359C194.825 92.069 194.613 91.7565 194.457 91.3984C194.307 91.0404 194.233 90.6595 194.233 90.2559V90.1582C194.233 89.7546 194.307 89.3737 194.457 89.0156C194.613 88.6576 194.825 88.3451 195.092 88.0781C195.359 87.8112 195.671 87.6029 196.029 87.4531C196.387 87.2969 196.768 87.2188 197.172 87.2188H199.711V85.6758C199.711 85.4349 199.665 85.2103 199.574 85.002C199.483 84.7871 199.359 84.6016 199.203 84.4453C199.047 84.2891 198.861 84.1654 198.647 84.0742C198.438 83.9831 198.214 83.9375 197.973 83.9375H197.27C197.029 83.9375 196.801 83.9831 196.586 84.0742C196.378 84.1654 196.195 84.2891 196.039 84.4453C195.883 84.6016 195.759 84.7871 195.668 85.002C195.577 85.2103 195.531 85.4349 195.531 85.6758V86.0371L194.33 85.8418V85.7441C194.33 85.3405 194.405 84.9596 194.555 84.6016C194.711 84.2435 194.923 83.931 195.19 83.6641C195.457 83.3971 195.769 83.1888 196.127 83.0391C196.485 82.8828 196.866 82.8047 197.27 82.8047H197.973C198.376 82.8047 198.757 82.8828 199.115 83.0391C199.473 83.1888 199.786 83.3971 200.053 83.6641C200.32 83.931 200.528 84.2435 200.678 84.6016C200.834 84.9596 200.912 85.3405 200.912 85.7441V93H200.512ZM199.711 88.1562H197.172C196.931 88.1562 196.703 88.2018 196.488 88.293C196.28 88.3841 196.098 88.5111 195.942 88.6738C195.785 88.8301 195.662 89.0156 195.57 89.2305C195.479 89.4388 195.434 89.6634 195.434 89.9043V90.3242C195.434 90.5651 195.479 90.793 195.57 91.0078C195.662 91.2161 195.785 91.3984 195.942 91.5547C196.098 91.7109 196.28 91.8346 196.488 91.9258C196.703 92.0169 196.931 92.0625 197.172 92.0625H197.973C198.214 92.0625 198.438 92.0169 198.647 91.9258C198.861 91.8346 199.047 91.7109 199.203 91.5547C199.359 91.3984 199.483 91.2161 199.574 91.0078C199.665 90.793 199.711 90.5651 199.711 90.3242V88.1562ZM210.19 90.4609C210.19 90.8646 210.108 91.2357 209.945 91.5742C209.783 91.9062 209.561 92.1927 209.281 92.4336C209.001 92.6745 208.676 92.8633 208.305 93C207.94 93.1302 207.556 93.1953 207.152 93.1953H206.352C205.948 93.1953 205.561 93.1204 205.19 92.9707C204.825 92.8145 204.503 92.6029 204.223 92.3359C203.949 92.069 203.728 91.7565 203.559 91.3984C203.396 91.0404 203.315 90.6595 203.315 90.2559V89.8555L204.516 89.6602V90.3242C204.516 90.5651 204.565 90.793 204.662 91.0078C204.766 91.2161 204.903 91.3984 205.072 91.5547C205.242 91.7109 205.437 91.8346 205.658 91.9258C205.88 92.0169 206.111 92.0625 206.352 92.0625H207.152C207.393 92.0625 207.624 92.0267 207.846 91.9551C208.067 91.8835 208.262 91.7826 208.432 91.6523C208.608 91.5156 208.744 91.3529 208.842 91.1641C208.946 90.9753 208.998 90.7604 208.998 90.5195C208.998 90.1615 208.92 89.8685 208.764 89.6406C208.608 89.4128 208.399 89.224 208.139 89.0742C207.885 88.918 207.592 88.791 207.26 88.6934C206.934 88.5892 206.599 88.4883 206.254 88.3906C205.909 88.2865 205.57 88.1693 205.238 88.0391C204.913 87.9089 204.62 87.7396 204.359 87.5312C204.106 87.3164 203.901 87.0495 203.744 86.7305C203.588 86.4115 203.51 86.0143 203.51 85.5391C203.51 85.1354 203.588 84.7676 203.744 84.4355C203.901 84.097 204.112 83.8073 204.379 83.5664C204.646 83.3255 204.955 83.14 205.307 83.0098C205.665 82.873 206.046 82.8047 206.449 82.8047H207.152C207.556 82.8047 207.937 82.8828 208.295 83.0391C208.653 83.1888 208.966 83.3971 209.233 83.6641C209.499 83.931 209.708 84.2435 209.858 84.6016C210.014 84.9596 210.092 85.3405 210.092 85.7441V85.7832L208.891 85.9785V85.6758C208.891 85.4349 208.845 85.2103 208.754 85.002C208.663 84.7871 208.539 84.6016 208.383 84.4453C208.227 84.2891 208.041 84.1654 207.826 84.0742C207.618 83.9831 207.393 83.9375 207.152 83.9375H206.449C206.208 83.9375 205.981 83.9733 205.766 84.0449C205.557 84.1165 205.375 84.2207 205.219 84.3574C205.063 84.4876 204.939 84.6471 204.848 84.8359C204.757 85.0247 204.711 85.2396 204.711 85.4805C204.711 85.8255 204.789 86.1087 204.945 86.3301C205.102 86.5449 205.307 86.7272 205.561 86.877C205.821 87.0267 206.114 87.1536 206.44 87.2578C206.772 87.3555 207.107 87.4596 207.445 87.5703C207.79 87.6745 208.126 87.7949 208.451 87.9316C208.783 88.0684 209.076 88.2441 209.33 88.459C209.591 88.6738 209.799 88.944 209.955 89.2695C210.111 89.5885 210.19 89.9857 210.19 90.4609ZM216.137 93C215.772 93 215.427 92.9316 215.102 92.7949C214.783 92.6582 214.503 92.4694 214.262 92.2285C214.027 91.9876 213.839 91.7077 213.695 91.3887C213.559 91.0697 213.49 90.7279 213.49 90.3633V84.1426H211.693V83H213.49V80.5977L214.692 80.4023V83H217.231V84.1426H214.692V90.4219C214.692 90.6237 214.727 90.8125 214.799 90.9883C214.877 91.1576 214.981 91.3073 215.111 91.4375C215.242 91.5677 215.395 91.6719 215.57 91.75C215.746 91.8216 215.935 91.8574 216.137 91.8574H217.231V93H216.137ZM226.127 90.2559C226.127 90.6595 226.049 91.0404 225.893 91.3984C225.743 91.7565 225.535 92.069 225.268 92.3359C225.001 92.6029 224.688 92.8145 224.33 92.9707C223.972 93.1204 223.591 93.1953 223.188 93.1953H222.387C221.983 93.1953 221.602 93.1204 221.244 92.9707C220.886 92.8145 220.574 92.6029 220.307 92.3359C220.04 92.069 219.828 91.7565 219.672 91.3984C219.522 91.0404 219.447 90.6595 219.447 90.2559V85.7441C219.447 85.3405 219.522 84.9596 219.672 84.6016C219.828 84.2435 220.04 83.931 220.307 83.6641C220.574 83.3971 220.886 83.1888 221.244 83.0391C221.602 82.8828 221.983 82.8047 222.387 82.8047H223.188C223.591 82.8047 223.972 82.8828 224.33 83.0391C224.688 83.1888 225.001 83.3971 225.268 83.6641C225.535 83.931 225.743 84.2435 225.893 84.6016C226.049 84.9596 226.127 85.3405 226.127 85.7441V88.0977H220.649V90.3242C220.649 90.5651 220.694 90.793 220.785 91.0078C220.876 91.2161 221 91.3984 221.156 91.5547C221.313 91.7109 221.495 91.8346 221.703 91.9258C221.918 92.0169 222.146 92.0625 222.387 92.0625H223.188C223.429 92.0625 223.653 92.0169 223.861 91.9258C224.076 91.8346 224.262 91.7109 224.418 91.5547C224.574 91.3984 224.698 91.2161 224.789 91.0078C224.88 90.793 224.926 90.5651 224.926 90.3242V89.6602L226.127 89.8555V90.2559ZM224.926 85.6758C224.926 85.4349 224.88 85.2103 224.789 85.002C224.698 84.7871 224.574 84.6016 224.418 84.4453C224.262 84.2891 224.076 84.1654 223.861 84.0742C223.653 83.9831 223.429 83.9375 223.188 83.9375H222.387C222.146 83.9375 221.918 83.9831 221.703 84.0742C221.495 84.1654 221.313 84.2891 221.156 84.4453C221 84.6016 220.876 84.7871 220.785 85.002C220.694 85.2103 220.649 85.4349 220.649 85.6758V87.1602H224.926V85.6758ZM231.469 84.1426C231.228 84.1426 231 84.1882 230.785 84.2793C230.577 84.3704 230.395 84.4941 230.238 84.6504C230.082 84.8066 229.958 84.9922 229.867 85.207C229.776 85.4154 229.731 85.64 229.731 85.8809V93H228.529V83H228.93L229.584 84.0156C229.858 83.6445 230.199 83.3516 230.609 83.1367C231.026 82.9154 231.479 82.8047 231.967 82.8047H232.67V84.1426H231.469ZM242.348 89.7578C242.348 90.2331 242.25 90.679 242.055 91.0957C241.866 91.5124 241.609 91.877 241.283 92.1895C240.964 92.502 240.59 92.7493 240.16 92.9316C239.737 93.1074 239.288 93.1953 238.813 93.1953H237.807C237.332 93.1953 236.879 93.1074 236.449 92.9316C236.026 92.7493 235.652 92.502 235.326 92.1895C235.007 91.877 234.75 91.5124 234.555 91.0957C234.366 90.679 234.272 90.2331 234.272 89.7578V89.2012L235.531 88.9961V89.7578C235.531 90.0703 235.593 90.3633 235.717 90.6367C235.847 90.9036 236.02 91.1413 236.234 91.3496C236.449 91.5514 236.697 91.7109 236.977 91.8281C237.263 91.9453 237.563 92.0039 237.875 92.0039H238.754C239.067 92.0039 239.363 91.9453 239.643 91.8281C239.923 91.7109 240.17 91.5514 240.385 91.3496C240.6 91.1413 240.769 90.9036 240.893 90.6367C241.023 90.3633 241.088 90.0703 241.088 89.7578V89.3379C241.088 88.8561 240.994 88.4557 240.805 88.1367C240.616 87.8177 240.365 87.5475 240.053 87.3262C239.74 87.0983 239.386 86.9062 238.988 86.75C238.598 86.5938 238.194 86.4375 237.777 86.2812C237.361 86.125 236.954 85.9525 236.557 85.7637C236.166 85.5749 235.815 85.3405 235.502 85.0605C235.19 84.7741 234.939 84.4258 234.75 84.0156C234.561 83.6055 234.467 83.1009 234.467 82.502V82.2383C234.467 81.763 234.555 81.3171 234.731 80.9004C234.913 80.4837 235.16 80.1191 235.473 79.8066C235.785 79.4941 236.15 79.25 236.567 79.0742C236.99 78.8919 237.439 78.8008 237.914 78.8008H238.813C239.288 78.8008 239.734 78.8919 240.151 79.0742C240.567 79.25 240.932 79.4941 241.244 79.8066C241.557 80.1191 241.801 80.4837 241.977 80.9004C242.159 81.3171 242.25 81.763 242.25 82.2383V82.5996L240.99 82.8047V82.2383C240.99 81.9258 240.932 81.6361 240.815 81.3691C240.697 81.0957 240.538 80.8581 240.336 80.6562C240.134 80.4544 239.897 80.2949 239.623 80.1777C239.356 80.0605 239.067 80.002 238.754 80.002H237.973C237.66 80.002 237.367 80.0605 237.094 80.1777C236.827 80.2949 236.589 80.4544 236.381 80.6562C236.179 80.8581 236.02 81.0957 235.902 81.3691C235.785 81.6361 235.727 81.9258 235.727 82.2383V82.502C235.727 82.9512 235.821 83.3288 236.01 83.6348C236.199 83.9408 236.449 84.2044 236.762 84.4258C237.074 84.6406 237.426 84.8294 237.817 84.9922C238.214 85.1484 238.621 85.3112 239.037 85.4805C239.454 85.6432 239.858 85.8255 240.248 86.0273C240.645 86.2227 241 86.4668 241.313 86.7598C241.625 87.0462 241.876 87.3978 242.065 87.8145C242.253 88.2311 242.348 88.7389 242.348 89.3379V89.7578ZM248.305 93C247.94 93 247.595 92.9316 247.27 92.7949C246.951 92.6582 246.671 92.4694 246.43 92.2285C246.195 91.9876 246.007 91.7077 245.863 91.3887C245.727 91.0697 245.658 90.7279 245.658 90.3633V84.1426H243.861V83H245.658V80.5977L246.859 80.4023V83H249.399V84.1426H246.859V90.4219C246.859 90.6237 246.895 90.8125 246.967 90.9883C247.045 91.1576 247.149 91.3073 247.279 91.4375C247.41 91.5677 247.563 91.6719 247.738 91.75C247.914 91.8216 248.103 91.8574 248.305 91.8574H249.399V93H248.305ZM254.555 84.1426C254.314 84.1426 254.086 84.1882 253.871 84.2793C253.663 84.3704 253.481 84.4941 253.324 84.6504C253.168 84.8066 253.044 84.9922 252.953 85.207C252.862 85.4154 252.817 85.64 252.817 85.8809V93H251.615V83H252.016L252.67 84.0156C252.943 83.6445 253.285 83.3516 253.695 83.1367C254.112 82.9154 254.565 82.8047 255.053 82.8047H255.756V84.1426H254.555ZM263.637 93L262.973 91.9844C262.699 92.3555 262.358 92.6517 261.947 92.873C261.537 93.0879 261.088 93.1953 260.6 93.1953H260.297C259.893 93.1953 259.512 93.1204 259.154 92.9707C258.796 92.8145 258.484 92.6029 258.217 92.3359C257.95 92.069 257.738 91.7565 257.582 91.3984C257.432 91.0404 257.358 90.6595 257.358 90.2559V83H258.559V90.3242C258.559 90.5651 258.604 90.793 258.695 91.0078C258.787 91.2161 258.91 91.3984 259.067 91.5547C259.223 91.7109 259.405 91.8346 259.613 91.9258C259.828 92.0169 260.056 92.0625 260.297 92.0625H261.098C261.339 92.0625 261.563 92.0169 261.772 91.9258C261.986 91.8346 262.172 91.7109 262.328 91.5547C262.484 91.3984 262.608 91.2161 262.699 91.0078C262.79 90.793 262.836 90.5651 262.836 90.3242V83H264.037V93H263.637ZM272.719 93L272.055 91.9844C271.781 92.3555 271.44 92.6517 271.029 92.873C270.619 93.0879 270.17 93.1953 269.682 93.1953H269.379C268.975 93.1953 268.595 93.1204 268.236 92.9707C267.878 92.8145 267.566 92.6029 267.299 92.3359C267.032 92.069 266.82 91.7565 266.664 91.3984C266.514 91.0404 266.44 90.6595 266.44 90.2559V85.7441C266.44 85.3405 266.514 84.9596 266.664 84.6016C266.82 84.2435 267.032 83.931 267.299 83.6641C267.566 83.3971 267.878 83.1888 268.236 83.0391C268.595 82.8828 268.975 82.8047 269.379 82.8047H269.682C270.131 82.8047 270.548 82.8958 270.932 83.0781C271.316 83.2604 271.645 83.5143 271.918 83.8398V78.9961H273.119V93H272.719ZM271.918 85.6758C271.918 85.4349 271.873 85.2103 271.781 85.002C271.69 84.7871 271.567 84.6016 271.41 84.4453C271.254 84.2891 271.068 84.1654 270.854 84.0742C270.645 83.9831 270.421 83.9375 270.18 83.9375H269.379C269.138 83.9375 268.91 83.9831 268.695 84.0742C268.487 84.1654 268.305 84.2891 268.149 84.4453C267.992 84.6016 267.869 84.7871 267.777 85.002C267.686 85.2103 267.641 85.4349 267.641 85.6758V90.3242C267.641 90.5651 267.686 90.793 267.777 91.0078C267.869 91.2161 267.992 91.3984 268.149 91.5547C268.305 91.7109 268.487 91.8346 268.695 91.9258C268.91 92.0169 269.138 92.0625 269.379 92.0625H270.18C270.421 92.0625 270.645 92.0169 270.854 91.9258C271.068 91.8346 271.254 91.7109 271.41 91.5547C271.567 91.3984 271.69 91.2161 271.781 91.0078C271.873 90.793 271.918 90.5651 271.918 90.3242V85.6758ZM282.201 90.2559C282.201 90.6595 282.123 91.0404 281.967 91.3984C281.817 91.7565 281.609 92.069 281.342 92.3359C281.075 92.6029 280.762 92.8145 280.404 92.9707C280.046 93.1204 279.665 93.1953 279.262 93.1953H278.461C278.057 93.1953 277.677 93.1204 277.318 92.9707C276.96 92.8145 276.648 92.6029 276.381 92.3359C276.114 92.069 275.902 91.7565 275.746 91.3984C275.596 91.0404 275.522 90.6595 275.522 90.2559V85.7441C275.522 85.3405 275.596 84.9596 275.746 84.6016C275.902 84.2435 276.114 83.931 276.381 83.6641C276.648 83.3971 276.96 83.1888 277.318 83.0391C277.677 82.8828 278.057 82.8047 278.461 82.8047H279.262C279.665 82.8047 280.046 82.8828 280.404 83.0391C280.762 83.1888 281.075 83.3971 281.342 83.6641C281.609 83.931 281.817 84.2435 281.967 84.6016C282.123 84.9596 282.201 85.3405 282.201 85.7441V88.0977H276.723V90.3242C276.723 90.5651 276.768 90.793 276.859 91.0078C276.951 91.2161 277.074 91.3984 277.231 91.5547C277.387 91.7109 277.569 91.8346 277.777 91.9258C277.992 92.0169 278.22 92.0625 278.461 92.0625H279.262C279.503 92.0625 279.727 92.0169 279.936 91.9258C280.151 91.8346 280.336 91.7109 280.492 91.5547C280.649 91.3984 280.772 91.2161 280.863 91.0078C280.955 90.793 281 90.5651 281 90.3242V89.6602L282.201 89.8555V90.2559ZM281 85.6758C281 85.4349 280.955 85.2103 280.863 85.002C280.772 84.7871 280.649 84.6016 280.492 84.4453C280.336 84.2891 280.151 84.1654 279.936 84.0742C279.727 83.9831 279.503 83.9375 279.262 83.9375H278.461C278.22 83.9375 277.992 83.9831 277.777 84.0742C277.569 84.1654 277.387 84.2891 277.231 84.4453C277.074 84.6016 276.951 84.7871 276.859 85.002C276.768 85.2103 276.723 85.4349 276.723 85.6758V87.1602H281V85.6758ZM285.004 93V78.9961H286.205V93H285.004Z" fill="black"/>
<circle cx="146" cy="82" r="22" fill="#C4C4C4"/>
<path d="M60.088 148.68L62.538 144.004H64.162L60.83 150.122V154H59.332V150.178L56 144.004H57.638L60.088 148.68ZM71.2768 150.22C71.2768 151.471 70.9548 152.437 70.3108 153.118C69.6668 153.799 68.7988 154.14 67.7068 154.14C67.0255 154.14 66.4188 153.986 65.8868 153.678C65.3642 153.37 64.9488 152.927 64.6408 152.348C64.3422 151.76 64.1928 151.051 64.1928 150.22C64.1928 148.969 64.5102 148.008 65.1448 147.336C65.7795 146.655 66.6475 146.314 67.7488 146.314C68.4395 146.314 69.0462 146.468 69.5688 146.776C70.1008 147.075 70.5162 147.513 70.8148 148.092C71.1228 148.671 71.2768 149.38 71.2768 150.22ZM65.7188 150.22C65.7188 151.069 65.8775 151.732 66.1948 152.208C66.5215 152.684 67.0348 152.922 67.7348 152.922C68.4348 152.922 68.9435 152.684 69.2608 152.208C69.5875 151.732 69.7508 151.069 69.7508 150.22C69.7508 149.361 69.5875 148.703 69.2608 148.246C68.9342 147.779 68.4208 147.546 67.7208 147.546C67.0208 147.546 66.5122 147.779 66.1948 148.246C65.8775 148.703 65.7188 149.361 65.7188 150.22ZM79.6541 146.454V154H78.4641L78.2541 153.006H78.1841C77.9414 153.398 77.6054 153.687 77.1761 153.874C76.7468 154.051 76.2941 154.14 75.8181 154.14C74.9314 154.14 74.2548 153.921 73.7881 153.482C73.3214 153.043 73.0881 152.348 73.0881 151.396V146.454H74.5861V151.172C74.5861 152.339 75.0948 152.922 76.1121 152.922C76.8868 152.922 77.4234 152.693 77.7221 152.236C78.0208 151.779 78.1701 151.125 78.1701 150.276V146.454H79.6541ZM94.0692 146.314C94.9185 146.314 95.5578 146.533 95.9872 146.972C96.4165 147.411 96.6312 148.115 96.6312 149.086V154H95.1472V149.282C95.1472 148.115 94.6758 147.532 93.7332 147.532C93.0612 147.532 92.5805 147.742 92.2912 148.162C92.0018 148.573 91.8572 149.165 91.8572 149.94V154H90.3872V149.282C90.3872 148.115 89.9112 147.532 88.9592 147.532C88.2498 147.532 87.7598 147.761 87.4892 148.218C87.2278 148.675 87.0972 149.333 87.0972 150.192V154H85.6132V146.454H86.7892L86.9992 147.462H87.0832C87.3072 147.07 87.6198 146.781 88.0212 146.594C88.4225 146.407 88.8472 146.314 89.2952 146.314C90.4618 146.314 91.2272 146.72 91.5912 147.532H91.7032C91.9458 147.112 92.2818 146.804 92.7112 146.608C93.1405 146.412 93.5932 146.314 94.0692 146.314ZM101.828 146.314C102.771 146.314 103.476 146.524 103.942 146.944C104.418 147.355 104.656 148.003 104.656 148.89V154H103.606L103.312 152.95H103.256C102.93 153.361 102.584 153.664 102.22 153.86C101.866 154.047 101.371 154.14 100.736 154.14C100.055 154.14 99.4902 153.958 99.0422 153.594C98.5942 153.221 98.3702 152.642 98.3702 151.858C98.3702 151.093 98.6596 150.509 99.2382 150.108C99.8169 149.707 100.708 149.487 101.912 149.45L103.2 149.408V148.988C103.2 148.437 103.074 148.05 102.822 147.826C102.57 147.593 102.216 147.476 101.758 147.476C101.376 147.476 101.007 147.532 100.652 147.644C100.298 147.756 99.9569 147.891 99.6302 148.05L99.1542 146.972C99.5089 146.785 99.9149 146.631 100.372 146.51C100.839 146.379 101.324 146.314 101.828 146.314ZM103.186 150.374L102.178 150.402C101.32 150.439 100.722 150.584 100.386 150.836C100.06 151.079 99.8962 151.424 99.8962 151.872C99.8962 152.264 100.013 152.549 100.246 152.726C100.48 152.903 100.783 152.992 101.156 152.992C101.735 152.992 102.216 152.829 102.598 152.502C102.99 152.175 103.186 151.685 103.186 151.032V150.374ZM109.657 152.936C109.853 152.936 110.054 152.922 110.259 152.894C110.465 152.857 110.642 152.81 110.791 152.754V153.874C110.623 153.949 110.404 154.009 110.133 154.056C109.872 154.112 109.606 154.14 109.335 154.14C108.925 154.14 108.547 154.07 108.201 153.93C107.856 153.79 107.581 153.547 107.375 153.202C107.179 152.857 107.081 152.376 107.081 151.76V147.588H106.031V146.916L107.137 146.356L107.655 144.76H108.565V146.454H110.721V147.588H108.565V151.732C108.565 152.143 108.663 152.446 108.859 152.642C109.065 152.838 109.331 152.936 109.657 152.936ZM115.339 154.14C114.293 154.14 113.453 153.832 112.819 153.216C112.184 152.591 111.867 151.611 111.867 150.276C111.867 149.343 112.021 148.587 112.329 148.008C112.637 147.429 113.061 147.005 113.603 146.734C114.144 146.454 114.76 146.314 115.451 146.314C115.871 146.314 116.263 146.361 116.627 146.454C117 146.538 117.308 146.636 117.551 146.748L117.103 147.952C116.841 147.849 116.561 147.761 116.263 147.686C115.973 147.611 115.698 147.574 115.437 147.574C114.074 147.574 113.393 148.47 113.393 150.262C113.393 151.121 113.561 151.774 113.897 152.222C114.233 152.67 114.727 152.894 115.381 152.894C115.801 152.894 116.169 152.847 116.487 152.754C116.813 152.661 117.112 152.539 117.383 152.39V153.678C117.112 153.837 116.818 153.953 116.501 154.028C116.183 154.103 115.796 154.14 115.339 154.14ZM120.648 143.36V146.202C120.648 146.445 120.639 146.683 120.62 146.916C120.601 147.14 120.583 147.327 120.564 147.476H120.662C120.905 147.084 121.227 146.795 121.628 146.608C122.039 146.421 122.482 146.328 122.958 146.328C123.845 146.328 124.521 146.547 124.988 146.986C125.464 147.425 125.702 148.125 125.702 149.086V154H124.232V149.296C124.232 148.12 123.714 147.532 122.678 147.532C121.903 147.532 121.371 147.765 121.082 148.232C120.793 148.689 120.648 149.347 120.648 150.206V154H119.164V143.36H120.648ZM130.95 146.314C131.94 146.314 132.719 146.622 133.288 147.238C133.858 147.845 134.142 148.675 134.142 149.73V150.542H129.074C129.093 151.317 129.294 151.909 129.676 152.32C130.068 152.731 130.614 152.936 131.314 152.936C131.8 152.936 132.229 152.894 132.602 152.81C132.985 152.717 133.377 152.581 133.778 152.404V153.636C133.396 153.804 133.013 153.93 132.63 154.014C132.248 154.098 131.79 154.14 131.258 154.14C130.521 154.14 129.872 153.995 129.312 153.706C128.762 153.417 128.328 152.987 128.01 152.418C127.702 151.839 127.548 151.13 127.548 150.29C127.548 149.441 127.688 148.722 127.968 148.134C128.258 147.546 128.654 147.098 129.158 146.79C129.672 146.473 130.269 146.314 130.95 146.314ZM130.95 147.462C130.418 147.462 129.989 147.635 129.662 147.98C129.345 148.325 129.158 148.815 129.102 149.45H132.658C132.649 148.862 132.504 148.386 132.224 148.022C131.954 147.649 131.529 147.462 130.95 147.462ZM138.584 154.14C137.679 154.14 136.946 153.813 136.386 153.16C135.835 152.507 135.56 151.536 135.56 150.248C135.56 148.951 135.84 147.971 136.4 147.308C136.96 146.645 137.697 146.314 138.612 146.314C139.181 146.314 139.648 146.421 140.012 146.636C140.376 146.851 140.67 147.112 140.894 147.42H140.978C140.959 147.299 140.936 147.112 140.908 146.86C140.88 146.608 140.866 146.384 140.866 146.188V143.36H142.35V154H141.188L140.936 152.992H140.866C140.651 153.319 140.362 153.594 139.998 153.818C139.634 154.033 139.163 154.14 138.584 154.14ZM138.934 152.922C139.662 152.922 140.175 152.721 140.474 152.32C140.773 151.909 140.922 151.298 140.922 150.486V150.262C140.922 149.385 140.777 148.713 140.488 148.246C140.208 147.77 139.685 147.532 138.92 147.532C138.313 147.532 137.856 147.779 137.548 148.274C137.24 148.759 137.086 149.427 137.086 150.276C137.086 151.125 137.24 151.779 137.548 152.236C137.856 152.693 138.318 152.922 138.934 152.922ZM152.358 154H150.888V147.364C150.888 147.019 150.893 146.701 150.902 146.412C150.912 146.123 150.926 145.843 150.944 145.572C150.823 145.693 150.697 145.815 150.566 145.936C150.436 146.048 150.286 146.174 150.118 146.314L149.026 147.196L148.27 146.244L151.126 144.004H152.358V154ZM162.54 148.988C162.54 150.071 162.423 150.995 162.19 151.76C161.966 152.525 161.607 153.113 161.112 153.524C160.617 153.935 159.964 154.14 159.152 154.14C158.004 154.14 157.155 153.687 156.604 152.782C156.063 151.867 155.792 150.603 155.792 148.988C155.792 147.915 155.899 146.995 156.114 146.23C156.338 145.455 156.697 144.867 157.192 144.466C157.687 144.055 158.34 143.85 159.152 143.85C160.291 143.85 161.14 144.303 161.7 145.208C162.26 146.104 162.54 147.364 162.54 148.988ZM157.276 148.988C157.276 150.295 157.416 151.275 157.696 151.928C157.976 152.572 158.461 152.894 159.152 152.894C159.833 152.894 160.319 152.572 160.608 151.928C160.897 151.284 161.042 150.304 161.042 148.988C161.042 147.691 160.897 146.72 160.608 146.076C160.319 145.423 159.833 145.096 159.152 145.096C158.461 145.096 157.976 145.423 157.696 146.076C157.416 146.72 157.276 147.691 157.276 148.988ZM176.429 146.314C177.278 146.314 177.917 146.533 178.347 146.972C178.776 147.411 178.991 148.115 178.991 149.086V154H177.507V149.282C177.507 148.115 177.035 147.532 176.093 147.532C175.421 147.532 174.94 147.742 174.651 148.162C174.361 148.573 174.217 149.165 174.217 149.94V154H172.747V149.282C172.747 148.115 172.271 147.532 171.319 147.532C170.609 147.532 170.119 147.761 169.849 148.218C169.587 148.675 169.457 149.333 169.457 150.192V154H167.973V146.454H169.149L169.359 147.462H169.443C169.667 147.07 169.979 146.781 170.381 146.594C170.782 146.407 171.207 146.314 171.655 146.314C172.821 146.314 173.587 146.72 173.951 147.532H174.063C174.305 147.112 174.641 146.804 175.071 146.608C175.5 146.412 175.953 146.314 176.429 146.314ZM182.018 143.584C182.242 143.584 182.438 143.649 182.606 143.78C182.774 143.911 182.858 144.13 182.858 144.438C182.858 144.737 182.774 144.956 182.606 145.096C182.438 145.227 182.242 145.292 182.018 145.292C181.775 145.292 181.57 145.227 181.402 145.096C181.243 144.956 181.164 144.737 181.164 144.438C181.164 144.13 181.243 143.911 181.402 143.78C181.57 143.649 181.775 143.584 182.018 143.584ZM182.746 146.454V154H181.262V146.454H182.746ZM188.898 146.314C189.775 146.314 190.447 146.533 190.914 146.972C191.381 147.411 191.614 148.115 191.614 149.086V154H190.144V149.296C190.144 148.12 189.626 147.532 188.59 147.532C187.815 147.532 187.283 147.761 186.994 148.218C186.705 148.675 186.56 149.333 186.56 150.192V154H185.076V146.454H186.252L186.462 147.462H186.546C186.789 147.07 187.12 146.781 187.54 146.594C187.969 146.407 188.422 146.314 188.898 146.314ZM200.457 146.314C201.4 146.314 202.104 146.524 202.571 146.944C203.047 147.355 203.285 148.003 203.285 148.89V154H202.235L201.941 152.95H201.885C201.558 153.361 201.213 153.664 200.849 153.86C200.494 154.047 200 154.14 199.365 154.14C198.684 154.14 198.119 153.958 197.671 153.594C197.223 153.221 196.999 152.642 196.999 151.858C196.999 151.093 197.288 150.509 197.867 150.108C198.446 149.707 199.337 149.487 200.541 149.45L201.829 149.408V148.988C201.829 148.437 201.703 148.05 201.451 147.826C201.199 147.593 200.844 147.476 200.387 147.476C200.004 147.476 199.636 147.532 199.281 147.644C198.926 147.756 198.586 147.891 198.259 148.05L197.783 146.972C198.138 146.785 198.544 146.631 199.001 146.51C199.468 146.379 199.953 146.314 200.457 146.314ZM201.815 150.374L200.807 150.402C199.948 150.439 199.351 150.584 199.015 150.836C198.688 151.079 198.525 151.424 198.525 151.872C198.525 152.264 198.642 152.549 198.875 152.726C199.108 152.903 199.412 152.992 199.785 152.992C200.364 152.992 200.844 152.829 201.227 152.502C201.619 152.175 201.815 151.685 201.815 151.032V150.374ZM208.174 146.314C209.173 146.314 209.943 146.692 210.484 147.448H210.554L210.722 146.454H211.926V154.098C211.926 155.171 211.637 155.983 211.058 156.534C210.489 157.085 209.616 157.36 208.44 157.36C207.89 157.36 207.386 157.323 206.928 157.248C206.48 157.173 206.065 157.057 205.682 156.898V155.596C206.485 155.988 207.432 156.184 208.524 156.184C209.14 156.184 209.616 156.007 209.952 155.652C210.288 155.307 210.456 154.817 210.456 154.182V153.93C210.456 153.809 210.461 153.65 210.47 153.454C210.48 153.258 210.489 153.109 210.498 153.006H210.442C210.19 153.398 209.873 153.687 209.49 153.874C209.108 154.051 208.669 154.14 208.174 154.14C207.222 154.14 206.476 153.799 205.934 153.118C205.402 152.427 205.136 151.471 205.136 150.248C205.136 149.035 205.402 148.078 205.934 147.378C206.476 146.669 207.222 146.314 208.174 146.314ZM208.482 147.546C207.894 147.546 207.442 147.779 207.124 148.246C206.816 148.713 206.662 149.385 206.662 150.262C206.662 151.139 206.816 151.807 207.124 152.264C207.442 152.721 207.904 152.95 208.51 152.95C209.201 152.95 209.705 152.763 210.022 152.39C210.349 152.007 210.512 151.387 210.512 150.528V150.248C210.512 149.287 210.349 148.596 210.022 148.176C209.696 147.756 209.182 147.546 208.482 147.546ZM220.902 150.22C220.902 151.471 220.58 152.437 219.936 153.118C219.292 153.799 218.424 154.14 217.332 154.14C216.651 154.14 216.044 153.986 215.512 153.678C214.989 153.37 214.574 152.927 214.266 152.348C213.967 151.76 213.818 151.051 213.818 150.22C213.818 148.969 214.135 148.008 214.77 147.336C215.405 146.655 216.273 146.314 217.374 146.314C218.065 146.314 218.671 146.468 219.194 146.776C219.726 147.075 220.141 147.513 220.44 148.092C220.748 148.671 220.902 149.38 220.902 150.22ZM215.344 150.22C215.344 151.069 215.503 151.732 215.82 152.208C216.147 152.684 216.66 152.922 217.36 152.922C218.06 152.922 218.569 152.684 218.886 152.208C219.213 151.732 219.376 151.069 219.376 150.22C219.376 149.361 219.213 148.703 218.886 148.246C218.559 147.779 218.046 147.546 217.346 147.546C216.646 147.546 216.137 147.779 215.82 148.246C215.503 148.703 215.344 149.361 215.344 150.22ZM222.573 153.174C222.573 152.81 222.662 152.553 222.839 152.404C223.026 152.255 223.254 152.18 223.525 152.18C223.786 152.18 224.01 152.255 224.197 152.404C224.393 152.553 224.491 152.81 224.491 153.174C224.491 153.538 224.393 153.799 224.197 153.958C224.01 154.117 223.786 154.196 223.525 154.196C223.254 154.196 223.026 154.117 222.839 153.958C222.662 153.799 222.573 153.538 222.573 153.174ZM236.156 151.298C236.156 152.185 235.834 152.88 235.19 153.384C234.546 153.888 233.664 154.14 232.544 154.14C232.003 154.14 231.489 154.093 231.004 154C230.528 153.916 230.122 153.79 229.786 153.622V152.194C230.159 152.362 230.598 152.516 231.102 152.656C231.606 152.787 232.119 152.852 232.642 152.852C233.314 152.852 233.818 152.721 234.154 152.46C234.49 152.199 234.658 151.849 234.658 151.41C234.658 151.102 234.579 150.845 234.42 150.64C234.271 150.425 234.033 150.229 233.706 150.052C233.379 149.875 232.95 149.679 232.418 149.464C231.923 149.277 231.485 149.058 231.102 148.806C230.729 148.554 230.435 148.241 230.22 147.868C230.005 147.495 229.898 147.037 229.898 146.496C229.898 145.675 230.197 145.031 230.794 144.564C231.391 144.097 232.175 143.864 233.146 143.864C233.687 143.864 234.187 143.92 234.644 144.032C235.111 144.135 235.554 144.279 235.974 144.466L235.498 145.712C235.115 145.553 234.723 145.423 234.322 145.32C233.93 145.217 233.524 145.166 233.104 145.166C232.553 145.166 232.133 145.287 231.844 145.53C231.555 145.773 231.41 146.09 231.41 146.482C231.41 146.79 231.48 147.051 231.62 147.266C231.76 147.471 231.984 147.658 232.292 147.826C232.6 147.994 233.006 148.181 233.51 148.386C234.07 148.61 234.546 148.848 234.938 149.1C235.339 149.343 235.643 149.641 235.848 149.996C236.053 150.341 236.156 150.775 236.156 151.298ZM240.661 152.936C240.857 152.936 241.058 152.922 241.263 152.894C241.469 152.857 241.646 152.81 241.795 152.754V153.874C241.627 153.949 241.408 154.009 241.137 154.056C240.876 154.112 240.61 154.14 240.339 154.14C239.929 154.14 239.551 154.07 239.205 153.93C238.86 153.79 238.585 153.547 238.379 153.202C238.183 152.857 238.085 152.376 238.085 151.76V147.588H237.035V146.916L238.141 146.356L238.659 144.76H239.569V146.454H241.725V147.588H239.569V151.732C239.569 152.143 239.667 152.446 239.863 152.642C240.069 152.838 240.335 152.936 240.661 152.936ZM246.231 146.314C247.173 146.314 247.878 146.524 248.345 146.944C248.821 147.355 249.059 148.003 249.059 148.89V154H248.009L247.715 152.95H247.659C247.332 153.361 246.987 153.664 246.623 153.86C246.268 154.047 245.773 154.14 245.139 154.14C244.457 154.14 243.893 153.958 243.445 153.594C242.997 153.221 242.773 152.642 242.773 151.858C242.773 151.093 243.062 150.509 243.641 150.108C244.219 149.707 245.111 149.487 246.315 149.45L247.603 149.408V148.988C247.603 148.437 247.477 148.05 247.225 147.826C246.973 147.593 246.618 147.476 246.161 147.476C245.778 147.476 245.409 147.532 245.055 147.644C244.7 147.756 244.359 147.891 244.033 148.05L243.557 146.972C243.911 146.785 244.317 146.631 244.775 146.51C245.241 146.379 245.727 146.314 246.231 146.314ZM247.589 150.374L246.581 150.402C245.722 150.439 245.125 150.584 244.789 150.836C244.462 151.079 244.299 151.424 244.299 151.872C244.299 152.264 244.415 152.549 244.649 152.726C244.882 152.903 245.185 152.992 245.559 152.992C246.137 152.992 246.618 152.829 247.001 152.502C247.393 152.175 247.589 151.685 247.589 151.032V150.374ZM255.068 146.314C255.198 146.314 255.338 146.323 255.488 146.342C255.646 146.351 255.782 146.365 255.894 146.384L255.74 147.77C255.497 147.705 255.245 147.672 254.984 147.672C254.61 147.672 254.256 147.765 253.92 147.952C253.593 148.139 253.327 148.409 253.122 148.764C252.926 149.109 252.828 149.529 252.828 150.024V154H251.344V146.454H252.52L252.716 147.798H252.772C253.014 147.397 253.327 147.051 253.71 146.762C254.092 146.463 254.545 146.314 255.068 146.314ZM260.007 152.936C260.203 152.936 260.404 152.922 260.609 152.894C260.814 152.857 260.992 152.81 261.141 152.754V153.874C260.973 153.949 260.754 154.009 260.483 154.056C260.222 154.112 259.956 154.14 259.685 154.14C259.274 154.14 258.896 154.07 258.551 153.93C258.206 153.79 257.93 153.547 257.725 153.202C257.529 152.857 257.431 152.376 257.431 151.76V147.588H256.381V146.916L257.487 146.356L258.005 144.76H258.915V146.454H261.071V147.588H258.915V151.732C258.915 152.143 259.013 152.446 259.209 152.642C259.414 152.838 259.68 152.936 260.007 152.936ZM269.325 154.14C268.28 154.14 267.44 153.832 266.805 153.216C266.17 152.591 265.853 151.611 265.853 150.276C265.853 149.343 266.007 148.587 266.315 148.008C266.623 147.429 267.048 147.005 267.589 146.734C268.13 146.454 268.746 146.314 269.437 146.314C269.857 146.314 270.249 146.361 270.613 146.454C270.986 146.538 271.294 146.636 271.537 146.748L271.089 147.952C270.828 147.849 270.548 147.761 270.249 147.686C269.96 147.611 269.684 147.574 269.423 147.574C268.06 147.574 267.379 148.47 267.379 150.262C267.379 151.121 267.547 151.774 267.883 152.222C268.219 152.67 268.714 152.894 269.367 152.894C269.787 152.894 270.156 152.847 270.473 152.754C270.8 152.661 271.098 152.539 271.369 152.39V153.678C271.098 153.837 270.804 153.953 270.487 154.028C270.17 154.103 269.782 154.14 269.325 154.14ZM274.634 143.36V146.202C274.634 146.445 274.625 146.683 274.606 146.916C274.588 147.14 274.569 147.327 274.55 147.476H274.648C274.891 147.084 275.213 146.795 275.614 146.608C276.025 146.421 276.468 146.328 276.944 146.328C277.831 146.328 278.508 146.547 278.974 146.986C279.45 147.425 279.688 148.125 279.688 149.086V154H278.218V149.296C278.218 148.12 277.7 147.532 276.664 147.532C275.89 147.532 275.358 147.765 275.068 148.232C274.779 148.689 274.634 149.347 274.634 150.206V154H273.15V143.36H274.634ZM284.895 146.314C285.837 146.314 286.542 146.524 287.009 146.944C287.485 147.355 287.723 148.003 287.723 148.89V154H286.673L286.379 152.95H286.323C285.996 153.361 285.651 153.664 285.287 153.86C284.932 154.047 284.437 154.14 283.803 154.14C283.121 154.14 282.557 153.958 282.109 153.594C281.661 153.221 281.437 152.642 281.437 151.858C281.437 151.093 281.726 150.509 282.305 150.108C282.883 149.707 283.775 149.487 284.979 149.45L286.267 149.408V148.988C286.267 148.437 286.141 148.05 285.889 147.826C285.637 147.593 285.282 147.476 284.825 147.476C284.442 147.476 284.073 147.532 283.719 147.644C283.364 147.756 283.023 147.891 282.697 148.05L282.221 146.972C282.575 146.785 282.981 146.631 283.439 146.51C283.905 146.379 284.391 146.314 284.895 146.314ZM286.253 150.374L285.245 150.402C284.386 150.439 283.789 150.584 283.453 150.836C283.126 151.079 282.963 151.424 282.963 151.872C282.963 152.264 283.079 152.549 283.313 152.726C283.546 152.903 283.849 152.992 284.223 152.992C284.801 152.992 285.282 152.829 285.665 152.502C286.057 152.175 286.253 151.685 286.253 151.032V150.374ZM292.724 152.936C292.92 152.936 293.12 152.922 293.326 152.894C293.531 152.857 293.708 152.81 293.858 152.754V153.874C293.69 153.949 293.47 154.009 293.2 154.056C292.938 154.112 292.672 154.14 292.402 154.14C291.991 154.14 291.613 154.07 291.268 153.93C290.922 153.79 290.647 153.547 290.442 153.202C290.246 152.857 290.148 152.376 290.148 151.76V147.588H289.098V146.916L290.204 146.356L290.722 144.76H291.632V146.454H293.788V147.588H291.632V151.732C291.632 152.143 291.73 152.446 291.926 152.642C292.131 152.838 292.397 152.936 292.724 152.936ZM298.083 152.936C298.279 152.936 298.48 152.922 298.685 152.894C298.89 152.857 299.068 152.81 299.217 152.754V153.874C299.049 153.949 298.83 154.009 298.559 154.056C298.298 154.112 298.032 154.14 297.761 154.14C297.35 154.14 296.972 154.07 296.627 153.93C296.282 153.79 296.006 153.547 295.801 153.202C295.605 152.857 295.507 152.376 295.507 151.76V147.588H294.457V146.916L295.563 146.356L296.081 144.76H296.991V146.454H299.147V147.588H296.991V151.732C296.991 152.143 297.089 152.446 297.285 152.642C297.49 152.838 297.756 152.936 298.083 152.936ZM301.482 143.584C301.706 143.584 301.902 143.649 302.07 143.78C302.238 143.911 302.322 144.13 302.322 144.438C302.322 144.737 302.238 144.956 302.07 145.096C301.902 145.227 301.706 145.292 301.482 145.292C301.24 145.292 301.034 145.227 300.866 145.096C300.708 144.956 300.628 144.737 300.628 144.438C300.628 144.13 300.708 143.911 300.866 143.78C301.034 143.649 301.24 143.584 301.482 143.584ZM302.21 146.454V154H300.726V146.454H302.21ZM308.363 146.314C309.24 146.314 309.912 146.533 310.379 146.972C310.846 147.411 311.079 148.115 311.079 149.086V154H309.609V149.296C309.609 148.12 309.091 147.532 308.055 147.532C307.28 147.532 306.748 147.761 306.459 148.218C306.17 148.675 306.025 149.333 306.025 150.192V154H304.541V146.454H305.717L305.927 147.462H306.011C306.254 147.07 306.585 146.781 307.005 146.594C307.434 146.407 307.887 146.314 308.363 146.314ZM315.963 146.314C316.962 146.314 317.732 146.692 318.273 147.448H318.343L318.511 146.454H319.715V154.098C319.715 155.171 319.426 155.983 318.847 156.534C318.278 157.085 317.405 157.36 316.229 157.36C315.679 157.36 315.175 157.323 314.717 157.248C314.269 157.173 313.854 157.057 313.471 156.898V155.596C314.274 155.988 315.221 156.184 316.313 156.184C316.929 156.184 317.405 156.007 317.741 155.652C318.077 155.307 318.245 154.817 318.245 154.182V153.93C318.245 153.809 318.25 153.65 318.259 153.454C318.269 153.258 318.278 153.109 318.287 153.006H318.231C317.979 153.398 317.662 153.687 317.279 153.874C316.897 154.051 316.458 154.14 315.963 154.14C315.011 154.14 314.265 153.799 313.723 153.118C313.191 152.427 312.925 151.471 312.925 150.248C312.925 149.035 313.191 148.078 313.723 147.378C314.265 146.669 315.011 146.314 315.963 146.314ZM316.271 147.546C315.683 147.546 315.231 147.779 314.913 148.246C314.605 148.713 314.451 149.385 314.451 150.262C314.451 151.139 314.605 151.807 314.913 152.264C315.231 152.721 315.693 152.95 316.299 152.95C316.99 152.95 317.494 152.763 317.811 152.39C318.138 152.007 318.301 151.387 318.301 150.528V150.248C318.301 149.287 318.138 148.596 317.811 148.176C317.485 147.756 316.971 147.546 316.271 147.546ZM329.5 146.314C330.377 146.314 331.049 146.533 331.516 146.972C331.982 147.411 332.216 148.115 332.216 149.086V154H330.746V149.296C330.746 148.12 330.228 147.532 329.192 147.532C328.417 147.532 327.885 147.761 327.596 148.218C327.306 148.675 327.162 149.333 327.162 150.192V154H325.678V146.454H326.854L327.064 147.462H327.148C327.39 147.07 327.722 146.781 328.142 146.594C328.571 146.407 329.024 146.314 329.5 146.314ZM341.146 150.22C341.146 151.471 340.824 152.437 340.18 153.118C339.536 153.799 338.668 154.14 337.576 154.14C336.895 154.14 336.288 153.986 335.756 153.678C335.233 153.37 334.818 152.927 334.51 152.348C334.211 151.76 334.062 151.051 334.062 150.22C334.062 148.969 334.379 148.008 335.014 147.336C335.649 146.655 336.517 146.314 337.618 146.314C338.309 146.314 338.915 146.468 339.438 146.776C339.97 147.075 340.385 147.513 340.684 148.092C340.992 148.671 341.146 149.38 341.146 150.22ZM335.588 150.22C335.588 151.069 335.747 151.732 336.064 152.208C336.391 152.684 336.904 152.922 337.604 152.922C338.304 152.922 338.813 152.684 339.13 152.208C339.457 151.732 339.62 151.069 339.62 150.22C339.62 149.361 339.457 148.703 339.13 148.246C338.803 147.779 338.29 147.546 337.59 147.546C336.89 147.546 336.381 147.779 336.064 148.246C335.747 148.703 335.588 149.361 335.588 150.22ZM348.928 153.986L347.85 150.22C347.775 149.977 347.696 149.697 347.612 149.38C347.537 149.063 347.467 148.764 347.402 148.484C347.336 148.195 347.285 147.975 347.248 147.826H347.192C347.164 147.975 347.117 148.195 347.052 148.484C346.986 148.773 346.912 149.077 346.828 149.394C346.753 149.711 346.678 149.991 346.604 150.234L345.484 153.986H343.832L341.746 146.44H343.258L344.238 150.262C344.34 150.654 344.434 151.074 344.518 151.522C344.611 151.961 344.676 152.315 344.714 152.586H344.77C344.798 152.427 344.835 152.217 344.882 151.956C344.938 151.695 344.994 151.433 345.05 151.172C345.115 150.901 345.176 150.682 345.232 150.514L346.436 146.44H348.06L349.236 150.514C349.292 150.701 349.352 150.925 349.418 151.186C349.483 151.438 349.539 151.69 349.586 151.942C349.642 152.185 349.679 152.395 349.698 152.572H349.754C349.772 152.423 349.805 152.217 349.852 151.956C349.898 151.695 349.954 151.415 350.02 151.116C350.094 150.817 350.164 150.533 350.23 150.262L351.238 146.44H352.736L350.622 153.986H348.928ZM355.335 151.032H354.285L353.935 144.004H355.685L355.335 151.032ZM353.837 153.174C353.837 152.81 353.93 152.553 354.117 152.404C354.303 152.255 354.532 152.18 354.803 152.18C355.055 152.18 355.274 152.255 355.461 152.404C355.657 152.553 355.755 152.81 355.755 153.174C355.755 153.538 355.657 153.799 355.461 153.958C355.274 154.117 355.055 154.196 354.803 154.196C354.532 154.196 354.303 154.117 354.117 153.958C353.93 153.799 353.837 153.538 353.837 153.174Z" fill="#4F4F4F"/>
<rect x="159" y="25" width="69" height="7" rx="3.5" fill="#828282"/>
<circle cx="244" cy="28" r="7" fill="#828282"/>
</g>
<defs>
<clipPath id="clip0">
<rect width="410" height="823.756" fill="white"/>
</clipPath>
</defs>
</svg>
