<svg viewBox="0 0 410 824" fill="none" xmlns="http://www.w3.org/2000/svg">
<path d="M368.893 1H41.1302C18.9894 1 1 18.9894 1 41.1302V782.649C1 804.79 18.9894 822.779 41.1302 822.779H368.695C390.836 822.779 408.825 804.79 408.825 782.649V41.1302C409.023 18.9894 390.836 1 368.893 1ZM389.057 772.567C389.057 785.021 378.777 795.301 366.323 795.301H43.7001C31.2459 795.301 20.9662 785.021 20.9662 772.567V51.2122C20.9662 38.758 31.2459 28.4783 43.7001 28.4783H139.182C139.182 41.5256 149.857 52.2006 162.905 52.2006H254.235C267.283 52.2006 277.958 41.5256 277.958 28.4783H366.125C378.58 28.4783 388.859 38.758 388.859 51.2122V772.567H389.057Z" fill="#333333" stroke="black" stroke-miterlimit="10"/>
</svg>
