<svg width="46" height="46" viewBox="0 0 46 46" fill="none" xmlns="http://www.w3.org/2000/svg">
<path d="M38.8665 41.3509C34.2726 45.3098 27.783 46.0474 22.2655 43.5639C19.0086 42.0886 15.4842 39.5559 13.2238 35.2528C10.38 29.8924 7.87646 26.868 6.15074 25.2205C3.76877 22.9337 1.99444 20.0568 1.16804 16.8356C0.51178 14.2538 1.89721 9.50807 3.25834 7.61471C6.44241 3.16409 10.5015 0.606827 14.8522 1.04943C19.203 1.49203 26.0816 4.00012 29.9462 6.90163C41.1998 15.3849 44.0436 22.0485 43.995 26.745C43.995 30.1875 44.3596 36.6052 38.8665 41.3509Z" fill="#D3A06C" stroke="black" stroke-width="2" stroke-miterlimit="10"/>
<path d="M23.9667 22.1116C24.3369 21.7371 24.1599 20.9508 23.5714 20.3555C22.9829 19.7601 22.2057 19.5811 21.8356 19.9556C21.4654 20.3301 21.6424 21.1163 22.2309 21.7117C22.8194 22.307 23.5965 22.4861 23.9667 22.1116Z" fill="#A26D37" stroke="black" stroke-width="0.5" stroke-miterlimit="10"/>
<path d="M35.0688 14.9949C35.2966 14.7644 35.1888 14.2818 34.8282 13.9169C34.4675 13.552 33.9904 13.443 33.7626 13.6735C33.5348 13.9039 33.6425 14.3866 34.0032 14.7515C34.3639 15.1164 34.841 15.2253 35.0688 14.9949Z" fill="#A26D37" stroke="black" stroke-width="0.5" stroke-miterlimit="10"/>
<path d="M36.9738 33.7527C37.4328 33.4454 37.4145 32.5995 36.9329 31.8634C36.4513 31.1274 35.6889 30.7797 35.2299 31.087C34.771 31.3943 34.7893 32.2402 35.2709 32.9762C35.7524 33.7123 36.5149 34.0599 36.9738 33.7527Z" fill="#A26D37" stroke="black" stroke-width="0.5" stroke-miterlimit="10"/>
<path d="M14.7559 5.74971C14.9015 5.44382 14.6273 5.00477 14.1435 4.76907C13.6597 4.53338 13.1495 4.59028 13.0039 4.89617C12.8583 5.20207 13.1324 5.64111 13.6162 5.87681C14.1 6.11251 14.6102 6.0556 14.7559 5.74971Z" fill="#A26D37" stroke="black" stroke-width="0.5" stroke-miterlimit="10"/>
<path d="M4.55653 6.67065C4.55653 6.67065 0.706376 10.7623 1.36263 16.049C1.82445 19.6144 5.0828 23.3617 6.3224 24.4928C7.48908 25.5747 12.3732 32.745 13.6857 35.5727C15.3385 39.089 21.5122 43.6133 24.9879 44.0805C25.3282 44.1297 25.6928 44.2035 26.0331 44.2773C26.9567 44.4986 28.9255 44.8674 31.5505 44.5231C36.2173 43.9084 40.6409 40.5397 42.4396 35.499C42.5854 35.0809 32.304 44.0068 24.04 38.3021C17.5503 33.8269 2.32039 23.0962 4.55653 6.67065Z" fill="#A26D37"/>
<path d="M39.2147 23.4461C39.5375 23.1196 39.3913 22.4424 38.8882 21.9335C38.3851 21.4245 37.7157 21.2766 37.3929 21.6031C37.0702 21.9296 37.2164 22.6068 37.7195 23.1158C38.2226 23.6247 38.892 23.7726 39.2147 23.4461Z" fill="#A26D37" stroke="black" stroke-width="0.5" stroke-miterlimit="10"/>
<path d="M11.3735 16.328C11.7627 15.9343 11.578 15.1091 10.961 14.485C10.344 13.8608 9.52839 13.674 9.13922 14.0677C8.75005 14.4614 8.93473 15.2865 9.5517 15.9107C10.1687 16.5349 10.9843 16.7217 11.3735 16.328Z" fill="#A26D37" stroke="black" stroke-width="0.5" stroke-miterlimit="10"/>
<path d="M23.988 36.3054C24.3772 35.9117 24.1925 35.0866 23.5755 34.4624C22.9585 33.8382 22.1429 33.6514 21.7537 34.0451C21.3646 34.4388 21.5492 35.264 22.1662 35.8881C22.7832 36.5123 23.5988 36.6991 23.988 36.3054Z" fill="#84572F" stroke="black" stroke-width="0.5" stroke-miterlimit="10"/>
</svg>
