<svg xmlns="http://www.w3.org/2000/svg" viewBox="0 0 247.82 203.06"><defs><style>.cls-1{fill:#efc197;}.cls-1,.cls-2,.cls-3,.cls-5{stroke:#000;stroke-miterlimit:10;}.cls-1,.cls-2{stroke-width:4.54px;}.cls-2{fill:#d3a06c;}.cls-3,.cls-4{fill:#a26d37;}.cls-5{fill:#84572f;}</style></defs><title>Asset 1</title><g id="Layer_2" data-name="Layer 2"><g id="Layer_1-2" data-name="Layer 1"><path class="cls-1" d="M86.71,129.91S126,51.5,94.92,4.61C94.92,4.61,51.21,97.5,86.71,129.91Z"/><path class="cls-2" d="M199.29,54.91c-39.68,18.4-75,45.88-94.54,83.05a216.37,216.37,0,0,1,14.18,23.17c9.35,17.48,23.83,27.74,37.21,33.76,22.67,10.19,49.36,7.17,68.27-9,22.64-19.32,21.06-45.38,21.14-59.39C245.66,109.18,236,85.1,199.29,54.91Z"/><path class="cls-3" d="M154.3,98.88c-1.54,1.54-.83,4.75,1.59,7.17s5.64,3.14,7.18,1.6.83-4.76-1.6-7.18S155.84,97.34,154.3,98.88Z"/><path class="cls-3" d="M203.42,73.3c-1,1-.52,3,1,4.45s3.49,2,4.44,1,.52-2.95-1-4.45S204.37,72.35,203.42,73.3Z"/><path class="cls-3" d="M209.41,144.13c-1.9,1.26-1.84,4.71.14,7.7s5.13,4.39,7,3.13,1.84-4.7-.14-7.69S211.32,142.87,209.41,144.13Z"/><path class="cls-4" d="M164.7,172.66c-13-8.81-34.71-23.78-52.38-44.48q-2.88,4.56-5.42,9.32c6.57,9,13.14,18.76,15.78,24.3,6.66,14,58.76,37.14,72.37,35.57,19-2.19,36.86-15.87,44.17-35.91C239.83,159.79,198.12,195.3,164.7,172.66Z"/><path class="cls-3" d="M218.39,105.57c-1.33,1.32-.71,4.08,1.36,6.15s4.84,2.69,6.16,1.37.71-4.08-1.37-6.15S219.71,104.25,218.39,105.57Z"/><path class="cls-2" d="M93.61,4.82Q86.67,5.49,79,6.61C59.38,9.49,32.16,22.34,18.25,33.67S-.09,64.18,3.42,86.31c1.49,9.4,11.12,27.07,20.44,32.55a72.34,72.34,0,0,0,38.61,9.61,120.13,120.13,0,0,1,23,1.93C73,90.31,78.57,45.89,93.61,4.82Z"/><path class="cls-3" d="M28.53,51.17c2.06-.72,3.36-2.37,2.91-3.69s-2.51-1.79-4.57-1.07S23.5,48.78,24,50.1,26.47,51.89,28.53,51.17Z"/><path class="cls-4" d="M5,80.4a48.66,48.66,0,0,0,18.42,35.11c11.16,9,29.35,11.49,36,11.23a90.45,90.45,0,0,1,22.81.76c-1.09-3.4-1.08-4.53-1.91-8C52.68,116.86,25.37,107,5,80.4Z"/><path class="cls-3" d="M52.08,87.66c0-2.28-2.91-4.13-6.49-4.13s-6.5,1.85-6.5,4.13S42,91.8,45.59,91.8,52.08,90,52.08,87.66Z"/><ellipse class="cls-5" cx="158.59" cy="160.8" rx="4.13" ry="6.49" transform="translate(-67.25 159.24) rotate(-45)"/></g></g></svg>