<?xml version="1.0" encoding="utf-8"?>
<!-- Generator: Adobe Illustrator 23.0.1, SVG Export Plug-In . SVG Version: 6.00 Build 0)  -->
<svg version="1.1" id="Layer_1" xmlns="http://www.w3.org/2000/svg" xmlns:xlink="http://www.w3.org/1999/xlink" x="0px" y="0px"
	 viewBox="0 0 1280 1024" style="enable-background:new 0 0 1280 1024;" xml:space="preserve">
<style type="text/css">
	.st0{fill:#F7A357;}
	.st1{fill:#FFFFFF;}
	.st2{fill:#E5C57C;}
	.st3{fill:#DB9B2C;}
	.st4{fill:#DB4D2C;}
	.st5{fill:#EDCE98;}
	.st6{fill:#540045;}
	.st7{fill:none;stroke:#DB4D2C;stroke-width:2;stroke-linecap:round;stroke-miterlimit:10;}
	.st8{fill:#080607;}
	.st9{fill:#F5AD63;}
	.st10{fill:#CE2828;}
	.st11{fill:#1A5D99;}
	.st12{fill:#BA944F;}
	.st13{fill:#FCCC60;}
	.st14{fill:#FFC869;}
	.st15{fill:#231F20;}
	.st16{fill:#FFBE83;}
</style>
<path class="st0" d="M1464.3,457.1L1464.3,457.1c0,9.6,7.8,17.4,17.4,17.4h63.9c9.6,0,17.4-7.8,17.4-17.4v0
	c0-9.6-7.8-17.4-17.4-17.4h-63.9C1472.1,439.6,1464.3,447.5,1464.3,457.1z"/>
<path class="st1" d="M1748,458.6l4.4,7.6c7.5,13.1,24.4,17.6,37.5,10l27.5-15.9c13.1-7.5,17.6-24.4,10-37.5l-4.4-7.6
	c-7.5-13.1-24.4-17.6-37.5-10l-27.5,15.9C1745,428.6,1740.5,445.5,1748,458.6z"/>
<path class="st1" d="M1869.7,392.4l4.7,8.2c7.5,13.1,24.4,17.6,37.5,10l17.2-9.9c13.1-7.5,17.6-24.4,10-37.5l-4.7-8.2
	c-7.5-13.1-24.4-17.6-37.5-10l-17.2,9.9C1866.7,362.5,1862.2,379.3,1869.7,392.4z"/>
<path class="st1" d="M1398.6,447.8l-1.4,9.3c-2.3,14.9,8.1,29,23,31.3l19.6,3c14.9,2.3,29-8.1,31.3-23l1.4-9.3
	c2.3-14.9-8.1-29-23-31.3l-19.6-3C1414.9,422.6,1400.9,432.9,1398.6,447.8z"/>
<path class="st2" d="M1528.9,512.6l49.1-73.9c4.3-6.5,11.7-10.5,19.5-10.5l128,0.1c8.5,0,16.3,4.6,20.4,12
	c12.6,22.4,36.4,72,26.7,112.3c-12.3,51.6-167.9,87.6-242.9-13.1C1523.7,531.6,1523.4,520.8,1528.9,512.6z"/>
<path class="st1" d="M1511.7,449.2v17.8c0,16.3,13.4,29.7,29.7,29.7h37.8c16.3,0,29.7-13.4,29.7-29.7v-17.8
	c0-16.3-13.4-29.7-29.7-29.7h-37.8C1525.1,419.6,1511.7,432.9,1511.7,449.2z"/>
<path class="st1" d="M1740,457.2l8.2-79.1"/>
<g>
	<rect x="-2084.6" y="1181.7" class="st3" width="1280" height="1024"/>
	
		<image style="overflow:visible;enable-background:new    ;" width="3038" height="4044" xlink:href="FBF38BC21B395BF6.jpeg"  transform="matrix(0.1039 0 0 0.1039 -770.7568 733.835)">
	</image>
</g>
<g>
	<g>
		<path class="st4" d="M-1364.4,482.1c0,0-9.4,38.1,5.5,54.9s78.4-21.5,136.6,73.4s28.2,221.2,28.2,221.2h-393
			c0,0-23.6-290.8,149.9-287.7c37.7,0.7,29.6-29.1,32.5-54c0-0.4,0.1-0.7,0.1-1.1"/>
		<circle class="st5" cx="-1387.6" cy="445.5" r="43.3"/>
		<circle class="st4" cx="-1373.7" cy="441.8" r="3.7"/>
		<circle class="st4" cx="-1354.9" cy="438.9" r="1.9"/>
		<path class="st4" d="M-1380.7,438.1c0,0,5.8-5.3,10-3.4C-1370.7,434.7-1376.8,429.1-1380.7,438.1z"/>
		<path class="st4" d="M-1358.9,435.5c0,0,2.9-2.7,5-1.7C-1353.9,433.8-1356.9,431-1358.9,435.5z"/>
		<path class="st5" d="M-1358.9,448.4c0,0,137.8-17.6,134-5s-134,19-134,19"/>
		<path class="st5" d="M-1430.9,445.5c0,0-14.3,13-6.2,19.1c8.1,6.1,16.6,4.1,16.6,4.1"/>
		<path class="st6" d="M-1423.8,421.5c0,0,28.8-16.2,66.7-3.3c37.9,12.9,84.3-13.5,84.3-13.5S-1389.1,369.3-1423.8,421.5z"/>
		<circle class="st4" cx="-1367.9" cy="469" r="2.8"/>
	</g>
	<path class="st7" d="M-1430.9,450.7c0,0-6.9,9.7,3.5,11.8"/>
</g>
<g>
	
		<image style="overflow:visible;" width="850" height="499" id="YfDhtg" xlink:href="FBF38BC21B395BFA.jpg"  transform="matrix(-1 0 0 1 2025.472 -843.4289)">
	</image>
</g>
<g>
	
		<image style="overflow:visible;" width="270" height="210" id="_x37_Y7zvp" xlink:href="FBF38BC21B395BFD.jpg"  transform="matrix(-3.1429 0 0 3.1429 -116.3975 -97.4256)">
	</image>
</g>
<g>
	
		<image style="overflow:visible;" width="873" height="491" id="_x36_ytb53" xlink:href="FBF38BC21B395BFE.jpg"  transform="matrix(1 0 0 1 -1049.4039 -614.9654)">
	</image>
</g>
<polygon class="st8" points="3.1,-992.4 -250.6,-615 158.8,-615 "/>
<path class="st9" d="M-112.5-1123c0,0,184.9-39.7,211.3,71.8c26.4,111.5,11.7,145.3,11.7,145.3s4.4,23.5-57.2,24.9
	s-109.5,16.1-140.6-23.5c-31.1-39.6-57.5-146.7-57.5-146.7S-159.4-1123-112.5-1123z"/>
<polygon class="st2" points="364.8,-817.1 111,-439.6 520.5,-439.6 "/>
<path class="st10" d="M1702.9,461.4c0,0,50.6,46.1,61.2,11.5c10.6-34.6-25.5-44.6-25.5-44.6l-47.5,12.8"/>
<path class="st0" d="M1537.6,213.4c0,0,179.8-58.4,217.5,49.9c37.6,108.2,26.5,143.3,26.5,143.3s6.8,22.9-54.4,30.6
	c-61.2,7.7-107.3,27.2-142.2-9c-35-36.2-72.1-140.1-72.1-140.1S1490.9,218.2,1537.6,213.4z"/>
<path class="st10" d="M1666,445.4c0,0-102.7-42.8-102.7,7s40.4,85.8,102.7,21.1"/>
<circle class="st10" cx="1681.7" cy="458.8" r="24.2"/>
<path class="st1" d="M364.4-949.5l50.2,61.7C414.5-887.8,265.8-848.1,364.4-949.5z"/>
<path class="st11" d="M1535.7,508.4c31.7,19.3,108.2,81,218,50.1c9.1-2.6,17.8,5.4,15.9,14.7c-8.2,39.8-37.6,123.4-140.9,123.4
	c-104.7,0-112.3-102.2-110.3-148.6C1518.7,538.3,1527.5,503.4,1535.7,508.4z"/>
<path class="st12" d="M780-1203.8l21.1-6.6c-22.3-16.7-75.1-39.6-105.4-26.2c-18.2,8-30.7,23-49.1,36.8c-37.4,28-73.2,64.1-99,92.3
	c-24,26.3-39.4,45.8-39.4,45.8s7.1,28.7,21.4,14.5c4.4-4.3,18.3-12.5,22.4-27.6c13.9-52.2,26.4-65.5,32.8-71.2
	c40.5-36.4,67.9-45.2,113.5-46.3C727-1193,750.6-1187.2,780-1203.8z"/>
<path class="st12" d="M1668.7,153.7c0,0-196.3,145.3-193.5,188.9s51.5-19.1,51.5-19.1s145.2-131,169-166.7c1.8-2.7,1.4-6.4-1-8.6
	C1690.9,144.8,1683.1,142.5,1668.7,153.7z"/>
<path class="st13" d="M1517.6,365.7c0,0,10.3,30.7,17.4,12.4c5.7-14.6,17.4-78.6,26.5-86.4c21.8-18.6,40.6-25.3,68.7-19.5
	c47,9.6,109.9,16.3,134.8-8.9c0,0,35.1-48.7,80.7-110.3c0,0-110.8,66.5-210.9,40.8c-55-14.1-123.3-24-141,15.4
	S1517.6,365.7,1517.6,365.7z"/>
<path class="st14" d="M1667,155.2c0,0-354.3-156.9-187.6,175"/>
<path class="st11" d="M1452.1,268.5c0,0,18.5-141.5,148.3-136.6l14.2,4.2c0,0-54.8-8.7-99.8,40c-41.3,44.8-53.5,115.6-53.5,115.6"/>
<path class="st1" d="M1667.6,328.5c0,0,13.1-22.4,34.7-6.7C1702.3,321.8,1688.2,335.7,1667.6,328.5z"/>
<path class="st1" d="M1731.8,317.2c0,0,8.6-19.1,27.3-8.3C1759.1,308.9,1749,321.2,1731.8,317.2z"/>
<path class="st13" d="M1650,318.6c8.5-8,27-21.8,44.1-9.1c1.1,0.8,2.6,0,2.6-1.3v-3.2c0-2.4-1.6-4.5-3.9-5.1
	c-8.1-2-27.2-3.8-43.7,17.9C1648.8,318.5,1649.5,319.1,1650,318.6z"/>
<path class="st13" d="M1725.8,302.2c8.5-8,27-21.8,44.1-9.1c1.1,0.8,2.6,0,2.6-1.3v-3.2c0-2.4-1.6-4.5-3.9-5.1
	c-8.1-2-27.2-3.8-43.7,17.9C1724.6,302,1725.3,302.6,1725.8,302.2z"/>
<circle class="st15" cx="1685.5" cy="322.5" r="6.3"/>
<circle class="st15" cx="1746.4" cy="311.5" r="4.5"/>
<path class="st16" d="M1704.3,280.8c0,0-9.2,78.2,160.1,57.8c4.9-0.6,9.9,0.5,13.9,3.3c6.8,4.8,7.3,12.6-51.4,16.2
	c-21.6,1.3-39.4,1-53.8-0.2c-40.1-3.4-75.7-37.1-79.1-77.3"/>
<path class="st10" d="M1717.7,378.1c0,0-2.3-21.2,14.1-10.6l0.7-0.3c7.5-2.9,20.4-3.1,15.7,10.6c0,0.1,0,0.2,0,0.3
	c0,0,16.7,12.9,4.8,15.4c-11.8,2.6-13.6-4.6-19.2-1.5s-7.6,14.4-13.3,7.2S1717.7,378.1,1717.7,378.1z"/>
<path class="st15" d="M1744.5,378.1c2.1,2.7-1.9,4.9-6.9,7.2c-3.2,1.4-12.3,1.4-14.4-1.3c-2.1-2.7,1.8-6.6,4.6-8.6
	C1730.5,373.4,1742.4,375.4,1744.5,378.1z"/>
<g>
	
		<image style="overflow:visible;" width="2560" height="1108" id="jM6fPF_1_" xlink:href="FBF38BC21B395BFE.png"  transform="matrix(1 0 0 1 158.8097 -2250.0032)">
	</image>
</g>
<path class="st0" d="M1809.9,432L1809.9,432c4.8,8.3,15.5,11.2,23.8,6.4l55.4-32c8.3-4.8,11.2-15.5,6.4-23.8v0
	c-4.8-8.3-15.5-11.2-23.8-6.4l-55.4,32C1807.9,413,1805.1,423.7,1809.9,432z"/>
</svg>
