<?xml version="1.0" encoding="utf-8"?>
<!-- Generator: Adobe Illustrator 23.0.1, SVG Export Plug-In . SVG Version: 6.00 Build 0)  -->
<svg version="1.1" id="Layer_1" xmlns="http://www.w3.org/2000/svg" xmlns:xlink="http://www.w3.org/1999/xlink" x="0px" y="0px"
	 viewBox="0 0 1280 1024" style="enable-background:new 0 0 1280 1024;" xml:space="preserve">
<style type="text/css">
	.st0{fill:#994A34;}
	.st1{fill:#CBBBA1;}
	.st2{fill:#DB9B2C;}
	.st3{fill:#DB4D2C;}
	.st4{fill:#EDCE98;}
	.st5{fill:#540045;}
	.st6{fill:none;stroke:#DB4D2C;stroke-width:2;stroke-linecap:round;stroke-miterlimit:10;}
	.st7{fill:#080607;}
	.st8{fill:#F5AD63;}
	.st9{fill:#E5C57C;}
	.st10{fill:#FFFFFF;}
	.st11{fill:#BA944F;}
	.st12{fill:#CE2828;}
	.st13{fill:#231F20;}
	.st14{fill:none;stroke:#FFFFFF;stroke-width:3;}
	.st15{fill:#F9A346;}
	.st16{fill:#1A5D99;}
	.st17{fill:#FCCC60;}
	.st18{fill:#EDB35F;}
	.st19{fill:#FFBE83;}
	.st20{fill:#FFFFFF;stroke:#FFFFFF;stroke-width:9;stroke-miterlimit:10;}
	.st21{fill:#FFC38D;}
</style>
<path class="st0" d="M1916.8,1015.3l18.3,14.2c14,10.9,34.5,8.3,45.3-5.8l22.8-29.5c10.9-14,8.3-34.5-5.8-45.3l-18.3-14.2
	c-14-10.9-34.5-8.3-45.3,5.8L1911,970C1900.1,984.1,1902.8,1004.5,1916.8,1015.3z"/>
<rect class="st1" width="1296.7" height="1024"/>
<g>
	<rect x="-2084.6" y="1181.7" class="st2" width="1280" height="1024"/>
	
		<image style="overflow:visible;enable-background:new    ;" width="3042" height="4062" xlink:href="ED606F24CC84FAEB.jpeg"  transform="matrix(0.1036 0 0 0.1036 -770.4414 733.5985)">
	</image>
</g>
<g>
	<g>
		<path class="st3" d="M-1364.4,482.1c0,0-9.4,38.1,5.5,54.9s78.4-21.5,136.6,73.4s28.2,221.2,28.2,221.2h-393
			c0,0-23.6-290.8,149.9-287.7c37.7,0.7,29.6-29.1,32.5-54c0-0.4,0.1-0.7,0.1-1.1"/>
		<circle class="st4" cx="-1387.6" cy="445.5" r="43.3"/>
		<circle class="st3" cx="-1373.7" cy="441.8" r="3.7"/>
		<circle class="st3" cx="-1354.9" cy="438.9" r="1.9"/>
		<path class="st3" d="M-1380.7,438.1c0,0,5.8-5.3,10-3.4C-1370.7,434.7-1376.8,429.1-1380.7,438.1z"/>
		<path class="st3" d="M-1358.9,435.5c0,0,2.9-2.7,5-1.7C-1353.9,433.8-1356.9,431-1358.9,435.5z"/>
		<path class="st4" d="M-1358.9,448.4c0,0,137.8-17.6,134-5s-134,19-134,19"/>
		<path class="st4" d="M-1430.9,445.5c0,0-14.3,13-6.2,19.1c8.1,6.1,16.6,4.1,16.6,4.1"/>
		<path class="st5" d="M-1423.8,421.5c0,0,28.8-16.2,66.7-3.3c37.9,12.9,84.3-13.5,84.3-13.5S-1389.1,369.3-1423.8,421.5z"/>
		<circle class="st3" cx="-1367.9" cy="469" r="2.8"/>
	</g>
	<path class="st6" d="M-1430.9,450.7c0,0-6.9,9.7,3.5,11.8"/>
</g>
<g>
	
		<image style="overflow:visible;enable-background:new    ;" width="850" height="499" id="YfDhtg" xlink:href="ED606F24CC84FAEE.jpg"  transform="matrix(-1 0 0 1 2025.472 -843.4289)">
	</image>
</g>
<g>
	
		<image style="overflow:visible;enable-background:new    ;" width="270" height="210" id="_x37_Y7zvp" xlink:href="ED606F24CC84FAEA.jpg"  transform="matrix(-3.1429 0 0 3.1429 -116.3975 -97.4256)">
	</image>
</g>
<g>
	
		<image style="overflow:visible;enable-background:new    ;" width="874" height="492" id="_x36_ytb53" xlink:href="ED606F24CC84FAEB.jpg"  transform="matrix(0.9986 0 0 0.9986 -1049.3105 -615.1313)">
	</image>
</g>
<polygon class="st7" points="3.1,-992.4 -250.6,-615 158.8,-615 "/>
<path class="st8" d="M-112.5-1123c0,0,184.9-39.7,211.3,71.8s11.7,145.3,11.7,145.3s4.4,23.5-57.2,24.9s-109.5,16.1-140.6-23.5
	s-57.5-146.7-57.5-146.7S-159.4-1123-112.5-1123z"/>
<polygon class="st9" points="364.8,-817.1 111,-439.6 520.5,-439.6 "/>
<path class="st10" d="M364.4-949.5l50.2,61.7C414.5-887.8,265.8-848.1,364.4-949.5z"/>
<path class="st11" d="M780-1203.8l21.1-6.6c-22.3-16.7-75.1-39.6-105.4-26.2c-18.2,8-30.7,23-49.1,36.8c-37.4,28-73.2,64.1-99,92.3
	c-24,26.3-39.4,45.8-39.4,45.8s7.1,28.7,21.4,14.5c4.4-4.3,18.3-12.5,22.4-27.6c13.9-52.2,26.4-65.5,32.8-71.2
	c40.5-36.4,67.9-45.2,113.5-46.3C727-1193,750.6-1187.2,780-1203.8z"/>
<path class="st12" d="M2847.5,378.2c0,0-2.3-21.2,14.1-10.6l0.7-0.3c7.5-2.9,20.4-3.1,15.7,10.6c0,0.1,0,0.2,0,0.3
	c0,0,16.7,12.9,4.8,15.4c-11.8,2.6-13.6-4.6-19.2-1.5c-5.6,3.1-7.6,14.4-13.3,7.2C2844.8,392.1,2847.5,378.2,2847.5,378.2z"/>
<path class="st13" d="M2874.4,378.2c2.1,2.7-1.9,4.9-6.9,7.2c-3.2,1.4-12.3,1.4-14.4-1.3c-2.1-2.7,1.8-6.6,4.6-8.6
	C2860.3,373.5,2872.3,375.5,2874.4,378.2z"/>
<g>
	
		<image style="overflow:visible;enable-background:new    ;" width="2561" height="1109" id="jM6fPF_1_" xlink:href="ED606F24CC84FAE8.png"  transform="matrix(0.9995 0 0 0.9995 158.913 -2250.2419)">
	</image>
</g>
<g>
	<ellipse class="st12" cx="2905.4" cy="374.4" rx="7.5" ry="6"/>
	<ellipse class="st12" cx="2914.3" cy="373.8" rx="7.5" ry="6"/>
	<ellipse transform="matrix(0.866 -0.5 0.5 0.866 198.1084 1504.6227)" class="st12" cx="2906.6" cy="382.6" rx="7.5" ry="5.6"/>
	<ellipse class="st12" cx="2916.4" cy="379.8" rx="7.5" ry="5.6"/>
	<ellipse class="st13" cx="2911.6" cy="376.9" rx="6.2" ry="3.9"/>
</g>
<text transform="matrix(1 0 0 1 3635.6914 192.981)" style="fill:#9031AF; font-family:'Didot'; font-size:19.3307px;">Delta Sigma Pi</text>
<line class="st14" x1="2346.3" y1="-31.6" x2="2346.3" y2="604.8"/>
<line class="st14" x1="1811.8" y1="-31.6" x2="1811.8" y2="728.2"/>
<path class="st15" d="M1846,724.7v5.5c0,9.6,7.8,17.4,17.4,17.4h79.5c9.6,0,17.4-7.8,17.4-17.4v-5.5c0-9.6-7.8-17.4-17.4-17.4h-79.5
	C1853.8,707.3,1846,715.1,1846,724.7z"/>
<path class="st10" d="M2172.3,725.5l9.4,16.3c7.5,13.1,24.4,17.6,37.5,10l39.3-22.7c13.1-7.5,17.6-24.4,10-37.5l-9.4-16.3
	c-7.5-13.1-24.4-17.6-37.5-10l-39.3,22.7C2169.2,695.5,2164.7,712.4,2172.3,725.5z"/>
<path class="st15" d="M2244.7,696.1l2.7,4.8c4.8,8.3,15.5,11.2,23.8,6.4l68.8-39.7c8.3-4.8,11.2-15.5,6.4-23.8l-2.7-4.8
	c-4.8-8.3-15.5-11.2-23.8-6.4l-68.8,39.7C2242.7,677.1,2239.9,687.8,2244.7,696.1z"/>
<path class="st10" d="M2313.2,648.8l9.8,17c7.5,13.1,24.4,17.6,37.5,10l27.4-15.8c13.1-7.5,17.6-24.4,10-37.5l-9.8-17
	c-7.5-13.1-24.4-17.6-37.5-10l-27.4,15.8C2310.1,618.9,2305.6,635.8,2313.2,648.8z"/>
<path class="st10" d="M1781.1,742.6l9.8,17c7.5,13.1,24.4,17.6,37.5,10l27.4-15.8c13.1-7.5,17.6-24.4,10-37.5l-9.8-17
	c-7.5-13.1-24.4-17.6-37.5-10l-27.4,15.8C1778,712.7,1773.5,729.6,1781.1,742.6z"/>
<path class="st10" d="M1839.4,490.4l-3,19.4c-2.3,14.9,8.1,29,23,31.3l31.2,4.8c14.9,2.3,29-8.1,31.3-23l3-19.4
	c2.3-14.9-8.1-29-23-31.3l-31.2-4.8C1855.8,465.2,1841.7,475.5,1839.4,490.4z"/>
<path class="st9" d="M1920.8,791.7l56.8-85.6c5-7.6,13.5-12.1,22.6-12.1l148.1,0.2c9.8,0,18.8,5.3,23.6,13.9
	c14.6,25.9,42.1,83.3,30.9,130c-14.3,59.7-194.4,101.4-281.2-15.1C1914.8,813.8,1914.4,801.3,1920.8,791.7z"/>
<path class="st10" d="M1900.9,713.7v30c0,16.3,13.4,29.7,29.7,29.7h53.1c16.3,0,29.7-13.4,29.7-29.7v-30c0-16.3-13.4-29.7-29.7-29.7
	h-53.1C1914.2,684,1900.9,697.4,1900.9,713.7z"/>
<path class="st10" d="M2165.2,727.6l9.4-91.6"/>
<path class="st12" d="M2122.2,732.5c0,0,58.6,53.4,70.9,13.3c12.3-40.1-29.5-51.6-29.5-51.6l-55,14.8"/>
<path class="st15" d="M1930.8,445.4c0,0,208.2-67.6,251.8,57.7s30.6,165.9,30.6,165.9s7.8,26.5-63,35.5S2026,736,1985.5,694
	S1902,531.8,1902,531.8S1876.8,450.9,1930.8,445.4z"/>
<path class="st12" d="M2079.5,714c0,0-118.9-49.5-118.9,8.1s46.8,99.3,118.9,24.4"/>
<circle class="st12" cx="2097.7" cy="729.5" r="28"/>
<path class="st16" d="M1928.6,786.9c36.7,22.3,125.3,93.8,252.4,58c10.6-3,20.6,6.3,18.4,17c-9.5,46-43.5,142.8-163.1,142.8
	c-121.2,0-130-118.3-127.7-172C1909,821.5,1919.1,781.1,1928.6,786.9z"/>
<path class="st11" d="M2064,387.5c0,0-203.5,146.2-200.5,194.2c11.4,42.1,50.1-7.4,50.1-7.4s127.4-121.6,154.4-159.6
	c2.7-3.7,21.5-30.4,17.2-33.6C2081.1,377.3,2079.2,374.9,2064,387.5z"/>
<path class="st17" d="M1907.7,621.7c0,0,11.9,35.5,20.1,14.4c6.6-16.9,20.2-91,30.7-100c25.2-21.6,47-29.3,79.5-22.6
	c54.4,11.1,127.2,18.9,156.1-10.3c0,0,40.6-56.4,93.4-127.6c0,0-128.3,77-244.2,47.2c-63.7-16.4-142.7-27.8-163.3,17.8
	S1907.7,621.7,1907.7,621.7z"/>
<path class="st10" d="M2081.3,578.6c0,0,15.1-25.9,40.2-7.7C2121.5,570.9,2105.2,586.9,2081.3,578.6z"/>
<path class="st10" d="M2155.7,565.5c0,0,10-22.1,31.7-9.6C2187.3,555.9,2175.6,570.2,2155.7,565.5z"/>
<path class="st17" d="M2061,567.2c9.8-9.3,31.2-25.3,51.1-10.5c1.3,0.9,3.1,0.1,3.1-1.5v-3.7c0-2.8-1.9-5.2-4.6-5.9
	c-9.3-2.4-31.4-4.4-50.5,20.7C2059.6,567,2060.4,567.8,2061,567.2z"/>
<path class="st17" d="M2148.7,548.1c9.8-9.3,31.2-25.3,51.1-10.5c1.3,0.9,3.1,0.1,3.1-1.5v-3.7c0-2.8-1.9-5.2-4.6-5.9
	c-9.3-2.4-31.4-4.4-50.5,20.7C2147.3,547.9,2148.1,548.7,2148.7,548.1z"/>
<circle class="st13" cx="2102.1" cy="571.7" r="7.3"/>
<circle class="st13" cx="2172.5" cy="558.9" r="5.2"/>
<path class="st15" d="M31.4,1586.5c0,0,208.2-67.6,251.8,57.7s38.4,192.4-32.4,201.4s-124.2,31.5-164.7-10.5S2.6,1672.9,2.6,1672.9
	S-22.6,1592,31.4,1586.5z"/>
<g>
	<ellipse class="st12" cx="2452.8" cy="642.5" rx="13.9" ry="11.3"/>
	<ellipse class="st12" cx="2469.3" cy="641.3" rx="13.9" ry="11.3"/>
	
		<ellipse transform="matrix(0.866 -0.5 0.5 0.866 9.930287e-02 1315.7682)" class="st12" cx="2455.2" cy="657.7" rx="13.9" ry="10.5"/>
	<ellipse class="st12" cx="2473.2" cy="652.6" rx="13.9" ry="10.5"/>
	<ellipse class="st13" cx="2464.3" cy="647.3" rx="11.5" ry="7.2"/>
</g>
<g>
	<ellipse class="st12" cx="2521.9" cy="642.5" rx="13.9" ry="11.3"/>
	<ellipse class="st12" cx="2538.4" cy="641.3" rx="13.9" ry="11.3"/>
	<ellipse transform="matrix(0.866 -0.5 0.5 0.866 9.3616 1350.3346)" class="st12" cx="2524.4" cy="657.7" rx="13.9" ry="10.5"/>
	<ellipse class="st12" cx="2542.3" cy="652.6" rx="13.9" ry="10.5"/>
	<ellipse class="st13" cx="2533.4" cy="647.3" rx="11.5" ry="2.2"/>
</g>
<path class="st1" d="M1853.1,348.3"/>
<path class="st1" d="M2055.6,395.5"/>
<path class="st18" d="M2080.7,378.1c0,0-410.2-181.6-217.2,202.6"/>
<path class="st16" d="M2003.6,350.9c-150.4-5.6-171.7,158.2-171.7,158.2l3.6,9.1c0.1,1.2,0.5,2.2,1.2,2.9l5.9,14.8
	c0,0,1.1-6.1,3.5-16c0.5-0.8,0.8-1.7,0.9-2.8c0-0.5,0.1-0.9,0.1-1.4c7.3-27.6,24.3-77.8,57.3-113.7c52-56.4,115.5-46.3,115.5-46.3
	L2003.6,350.9z"/>
<path class="st15" d="M3470.9,445.4c0,0,208.2-67.6,251.8,57.7s30.6,165.9,30.6,165.9s7.8,26.5-63,35.5S3566.1,736,3525.6,694
	s-83.5-162.2-83.5-162.2S3416.9,450.9,3470.9,445.4z"/>
<path class="st17" d="M3447.8,621.7c0,0,11.9,35.5,20.1,14.4c6.6-16.9,20.2-91,30.7-100c25.2-21.6,47-29.3,79.5-22.6
	c54.4,11.1,127.2,18.9,156.1-10.3c0,0,40.6-56.4,93.4-127.6c0,0-128.3,77-244.2,47.2c-63.7-16.4-142.7-27.8-163.3,17.8
	S3447.8,621.7,3447.8,621.7z"/>
<path class="st1" d="M3595.7,395.5"/>
<g>
	
		<image style="overflow:visible;enable-background:new    ;" width="701" height="701" id="_x33_pAPEr" xlink:href="ED606F24CC84FAF9.jpg"  transform="matrix(0.9986 0 0 0.9986 858.2467 1422.4712)">
	</image>
</g>
<rect x="-3103.7" y="-3096.1" class="st10" width="774.3" height="774.3"/>
<text transform="matrix(1 0 0 1 -3050.7041 -2653.7393)" style="font-family:'TrajanPro-Bold'; font-size:186.7986px;">Enter.</text>
<circle class="st15" cx="383.6" cy="1440.1" r="120.1"/>
<path class="st17" d="M252.8,1441.6c0,0,11.9,35.5,20.1,14.4c6.6-16.9,20.2-91,30.7-100c25.2-21.6,47-29.3,79.5-22.6
	c54.4,11.1,127.2,18.9,156.1-10.3c0,0,40.6-56.4,93.4-127.6c0,0-128.3,77-244.2,47.2c-63.7-16.4-142.7-27.8-163.3,17.8
	S252.8,1441.6,252.8,1441.6z"/>
<g>
	<ellipse class="st12" cx="668.4" cy="1521.5" rx="13.9" ry="11.3"/>
	<ellipse class="st12" cx="684.9" cy="1520.3" rx="13.9" ry="11.3"/>
	<ellipse transform="matrix(0.866 -0.5 0.5 0.866 -678.4603 541.3309)" class="st12" cx="670.9" cy="1536.7" rx="13.9" ry="10.5"/>
	<ellipse class="st12" cx="688.8" cy="1531.6" rx="13.9" ry="10.5"/>
	<ellipse class="st13" cx="679.9" cy="1526.3" rx="11.5" ry="7.2"/>
</g>
<path class="st19" d="M394.2,1378.6"/>
<g>
	<path class="st15" d="M19.2,2498.2c1.4,8.7,2.3,16.9,4.2,24.9c5,20.5,15.2,38.3,30.1,53.3c4.7,4.8,4.8,6.4,0.7,12
		c-13.1,17.6-31.2,26-52.4,28.5c-4.4,0.5-5.7,1.9-5.9,6.3c-1.3,22.7-4.2,45.2-12.7,66.5c-2,4.9-4.4,9.7-7,14.3
		c-6,10.3-14.1,18.6-26.2,22.6c0.2,1.6,0.2,3.2,0.6,4.8c5.2,23.4-18.7,83.8-37.1,79.4c-0.3-0.1-0.6,0-1.4,0.1
		c-3.2,8.9-6,18.1-9.9,26.9c-8.8,19.8-16.9,40-27.6,58.7c-12.9,22.5-31.8,40.2-52.6,55.6c-37.1,27.4-78.6,41.3-124.9,38.4
		c-47.4-3-87.5-22.8-122.1-54.6c-22.2-20.4-37.7-45.5-52.8-71.2c-13.4-22.9-23.4-47.1-29.2-73c-0.9-3.9-2.4-5.6-6.8-6.1
		c-17.4-2-33.7-50.7-29.1-64.8c0.5-1.5,0.9-3.1,1.4-5.1c-15.3-2.7-21.4-14.1-26.3-26.4c-7.9-20.4-10.7-41.9-12-63.6
		c-1-16.3-0.9-32.6-1.5-48.9c-0.1-1.9-1.5-4.2-3-5.4c-6.9-5.7-14.2-11-21-16.9c-2.9-2.6-5.3-6-7.1-9.5c-0.9-1.8-1-5.5,0.2-6.8
		c14.4-15.9,19.8-35.7,24.5-55.6c6.3-26.1,11.5-52.4,18-78.4c10.8-43.1,27.5-83.5,54.6-119.1c45.1-59.3,104.6-93.5,178.6-102.7
		c69-8.6,134.8,2.2,197.4,32.3c21.8,10.5,40.9,24.9,60.2,39.3c50.6,37.8,101.8,74.8,156.4,106.7c26.1,15.3,52.6,29.5,81.5,38.8
		c6.2,2,12.5,3.4,18.9,4.8c7.1,1.5,8,2.2,6.9,9.6c-1.7,12.5-5.5,24.4-12,35.3c-16.4,27.6-41.6,42.4-72.3,48.9
		c-25.6,5.5-51.3,4.3-77.1,0.7C22.4,2498.5,21.5,2498.4,19.2,2498.2z M-77.3,2699.7c0.5,0,0.9,0,1.4,0c0.4,0.8,0.9,1.7,1.2,2.5
		c5.1,12.8,15.7,15.9,26.5,7.2c4.8-3.9,9.1-9,12.2-14.3c12.9-23,18.1-48.1,18.9-74.3c0.1-2.9-1-4.1-3.8-4.6
		c-8.2-1.5-15.4-5.2-21.5-10.9c-8.9-8.2-14.7-18.5-18.9-29.7c-13.6-36.9-15.4-75.4-14.5-112.9c-5.3,2-11.2,5.6-17.5,6.4
		c-16.8,2.1-33.8,3.3-50.7,4.3c-33.3,1.9-66.6,0.8-99.8-2.6c-33.5-3.5-65.6-12.4-97.9-21.6c-31.8-9.1-63-19.3-92.6-34.2
		c-0.7-0.3-1.5-0.4-2.6-0.7c-0.6,2-1.2,3.7-1.7,5.4c-6.4,21.9-12.6,43.8-19.2,65.7c-6.9,22.8-14.6,45.3-26.6,66.1
		c-17.9,31-42.4,40.7-76.4,30.4c-1.5-0.5-3.1-0.8-4.8-1.2c-0.4,1.4-0.8,2.3-0.8,3.2c-1.4,28.6-0.4,57,8.1,84.6
		c2.9,9.6,7.1,18.7,14.5,25.9c9.4,9,19.6,9.9,30.3,2.6c2.4-1.6,4.8-3.3,7.4-5.1c0.5,1.3,0.8,1.9,0.9,2.6c0.2,1.8,0.1,3.7,0.3,5.5
		c1.9,18.5,2.4,37.3,6.1,55.5c9.8,48.9,31.5,92.8,59.3,133.9c11.6,17.1,23.4,34.2,39.9,47.1c45.6,35.4,97.7,43.9,152.3,31.3
		c45.3-10.4,78.3-40.2,102.8-79c16.3-25.9,27.6-54.3,38.3-82.9c10.5-28.4,21.1-56.9,25.8-87C-79.6,2712.3-78.4,2706-77.3,2699.7z
		 M123,2418.1c-0.2-0.4-0.5-0.9-0.7-1.3c-2.7,0.6-5.5,1-8.2,1.8c-9.5,2.9-19,6.2-28.6,9c-6.5,1.9-13.2,3.3-19.9,4.6
		c-1.7,0.3-3.6-0.9-5.4-1.5c1.2-1.6,2-3.9,3.6-4.8c5.4-3,11-5.5,16.5-8.3c6.7-3.4,13.4-6.8,19.8-10.6c4.2-2.5,3.9-5.1-0.5-7.2
		c-3.7-1.8-7.8-2.9-11.5-4.7c-44.8-22.1-86.7-48.9-125.6-80.4c-40.9-33.1-83.7-63.4-132-85c-36.4-16.3-74.4-26.1-114.5-26.8
		c-37.8-0.6-74.1,6.9-109.8,18.5c-25.5,8.2-47.2,22.5-66.1,40.9c-41,39.8-70.5,87-88.4,141.4c-3.1,9.6-5.6,19.4-8.7,30.1
		c19.5,4.2,38.2,8.6,56.9,12c9.9,1.8,20.2,2.1,30.3,2.9c3.5,0.3,6.2-0.9,6.9-5.3c1.7-10.9,3.7-21.7,5.9-32.4c0.8-3.9-0.6-6-3.3-8.5
		c-8.3-7.4-16.8-14.8-24.3-23c-7.4-8.2-13.7-17.5-20.4-26.4c-1-1.4-1.2-3.4-1.7-5.2c0.5-0.4,1-0.9,1.6-1.3c3.6,2.7,7.4,5.1,10.8,8
		c17.6,14.7,36.6,27.2,56.5,38.5c38.5,21.7,80.9,32.8,123.1,43.3c63.5,15.8,128.5,20.5,193.9,18.5c17.8-0.6,35-3.4,51.6-10.4
		c16-6.7,32.2-12.9,48.3-19.1c2.6-1,5.5-1.2,8.2-1.7c0.2,0.6,0.5,1.2,0.7,1.8c-13.7,13.6-31.1,22.1-47.9,33.7
		c11.9,4.3,22.7,8.7,33.7,12.2C12,2483.6,51,2489.7,91,2482.8c22.2-3.8,42.7-11.8,58.7-28.6c4.3-4.5,7.6-9.8,11.4-14.7
		c-0.4-0.5-0.8-1-1.2-1.5c-6.6,2.2-13.1,4.3-19.7,6.5c-0.3-0.5-0.7-1-1-1.5c2.6-3.3,5.4-6.4,7.7-10c1.2-1.9,1.6-4.4,2.3-6.7
		c-2.2,0.2-4.5,0.1-6.5,0.8c-10.8,4-21.5,8.2-32.2,12.2c-2.1,0.8-4.5,0.8-6.8,1.1c-0.2-0.5-0.5-1.1-0.7-1.6
		C107.6,2430,117.5,2426,123,2418.1z M-597.7,2543.5c0.7,0.8,1.5,1.8,2.4,2.7c9.8,8.6,20.9,15,33.5,18.3
		c17.6,4.6,33.8,1.5,47.7-10.6c14.5-12.6,24.7-28.2,31.6-46.1c0.4-1.1,0.6-2.3,0.7-2.7c-10.9,5-21.6,10.8-32.9,15
		c-21,7.9-43.1,9.9-65.4,9.4c-1.9,0-4.4,0.1-5.5,1.2C-589.9,2534.6-593.6,2539-597.7,2543.5z M-55.7,2530c0.7,16.1,3,31.2,10.3,45
		c7.2,13.7,18.2,23,33.8,25.4c17.2,2.7,33.1-1.3,47.5-11c1.2-0.8,2.1-1.9,2.7-2.5c-5.2-7.9-10-15.5-15.2-22.8c-0.8-1.1-3-2-4.5-1.9
		c-17.8,1.4-33.6-4.1-48.2-13.5C-38.2,2543.1-46.6,2536.5-55.7,2530z M-473.1,2480.1c-30.7,9.8-61.2,13.8-92.4,7.9
		c-2.7,7.8-5.3,15.5-8,23.4c11,5,22.4,4.9,33.8,2.9c21.5-3.7,40.8-12.9,59.8-23C-475.3,2488.8-473.8,2485.3-473.1,2480.1z
		 M-467.3,2459.2c-15.7,2.3-30.8,0.4-46-1.9c-15.1-2.4-30.1-5.1-45.4-7.7c-1,6.4-2.2,12.7-2.9,19.2c-0.1,1.2,1.4,3.4,2.6,3.7
		c5.4,1.7,10.8,3.4,16.4,4.3c23.5,3.6,46-0.9,68.3-7.8C-469.3,2467.4-467,2464.9-467.3,2459.2z M8.2,2513.6c-0.4-4.9-1-9.1-1.1-13.4
		c-0.1-3.2-1.4-4.6-4.4-5.5c-14.2-4.3-28.2-8.9-42.4-13.3c-5.8-1.8-11.7-3.6-18.5-5.6c0.8,5.9,1.2,11,2.2,16c0.4,1.8,2,3.9,3.6,4.7
		C-33.6,2505.7-13.6,2511.3,8.2,2513.6z M-55.6,2504.9c0.2,2.2,0.7,5.2,0.5,8.2c-0.4,5,1.8,8.3,5.7,11.3
		c14.3,11.2,30.1,19.1,47.8,23c5.6,1.2,11.5,1.2,18.1,1.9c-1.5-5.6-2.8-9.5-3.6-13.5c-0.7-3.4-2.3-4.8-5.7-5.5
		c-8-1.7-16.1-3.2-23.6-6.3C-29.7,2518.1-42.4,2511.3-55.6,2504.9z"/>
	<path class="st15" d="M-77.3,2699.7c-1.1,6.3-2.3,12.7-3.3,19c-4.7,30.2-15.3,58.6-25.8,87c-10.6,28.6-22,57-38.3,82.9
		c-24.5,38.8-57.5,68.6-102.8,79c-54.6,12.6-106.7,4.1-152.3-31.3c-16.6-12.9-28.3-29.9-39.9-47.1c-27.8-41.1-49.5-85-59.3-133.9
		c-3.7-18.2-4.2-37-6.1-55.5c-0.2-1.8-0.1-3.7-0.3-5.5c-0.1-0.6-0.4-1.2-0.9-2.6c-2.7,1.8-5,3.5-7.4,5.1
		c-10.7,7.3-20.9,6.4-30.3-2.6c-7.4-7.2-11.6-16.3-14.5-25.9c-8.4-27.6-9.5-56-8.1-84.6c0-1,0.5-1.9,0.8-3.2
		c1.7,0.4,3.3,0.8,4.8,1.2c34,10.4,58.6,0.6,76.4-30.4c12-20.8,19.7-43.3,26.6-66.1c6.6-21.8,12.8-43.8,19.2-65.7
		c0.5-1.7,1.1-3.4,1.7-5.4c1.1,0.3,1.9,0.4,2.6,0.7c29.6,14.8,60.8,25.1,92.6,34.2c32.2,9.2,64.4,18.1,97.9,21.6
		c33.2,3.5,66.5,4.6,99.8,2.6c16.9-1,33.9-2.2,50.7-4.3c6.2-0.8,12.1-4.4,17.5-6.4c-0.9,37.6,0.9,76,14.5,112.9
		c4.1,11.2,10,21.4,18.9,29.7c6.1,5.7,13.3,9.4,21.5,10.9c2.9,0.5,3.9,1.8,3.8,4.6c-0.8,26.2-6,51.3-18.9,74.3
		c-3,5.4-7.4,10.5-12.2,14.3c-10.8,8.8-21.3,5.6-26.5-7.2c-0.4-0.9-0.8-1.7-1.2-2.5C-76.4,2699.7-76.8,2699.7-77.3,2699.7z
		 M-328.8,2826.4c0.3,22.2,2.8,40.2,8.2,57.9c2.3,7.5,6,14,11.9,19.3c18.4,16.7,44.6,19.2,58.7-8.1c6.7-12.9,13-25.9,20.2-38.5
		c5.5-9.7,12-18.7,18.1-28.1c1.6-2.5,3.5-3,6.3-1.3c2.2,1.4,4.8,2.4,7.4,3c1.4,0.4,3.1-0.2,4.6-0.3c-0.3-1.4-0.4-2.9-1.1-4.1
		c-1.1-1.9-2.3-3.8-3.9-5.1c-9.6-8.2-12.7-19.1-14.2-31c-2.9-23.3-5.7-46.6-9-69.8c-1-6.8-2.8-13.7-5.3-20.2
		c-2.4-6.2-7.6-7.3-13-3.4c-2.5,1.8-4.7,4.2-6.8,6.6c-5.2,5.9-9.4,5.4-13.4-1.5c-0.7-1.3-1.2-2.7-1.9-4.1c-3.6-7.8-8.6-9.2-13.9-2.5
		c-5.9,7.5-10.6,16-15.1,24.5c-5.2,9.8-9.1,20.4-14.5,30.1c-8.8,15.8-19.2,30.4-34.9,40.4c-1.7,1.1-3.1,3-4.2,4.9
		c-0.6,1-0.8,2.8-0.2,3.7c0.4,0.7,2.3,0.7,3.5,0.6c1.5-0.1,2.9-0.7,4.4-1c8.1-1.7,10.6,0.3,10.1,8.5
		C-327.6,2814.6-328.4,2822.4-328.8,2826.4z M-181.3,2871c-2,2.2-3.2,3.5-4.3,4.8c-11,13.4-21,27.8-33.2,39.9
		c-22.4,22.4-49.6,31-80.5,20.4c-29-10-53-27-69-53.9c-3.8-6.4-7.6-12.9-11.4-19.4c-4.6-8.1-9.1-16.3-13.9-24.3
		c-1.3-2.2-3.4-3.9-5.8-6.7c-0.5,2.2-0.7,2.9-0.7,3.5c0.1,1.2,0.2,2.3,0.4,3.5c2.6,16.6,10.8,31,17.8,45.9
		c16.4,35.3,44.7,57,81.6,66.5c35.1,9,66.5,0.8,91.5-26.5c13.2-14.4,19.7-32.7,27.4-50.2C-181,2874-181.3,2873.2-181.3,2871z
		 M-63.8,2691.9c4.1-3.4,6.7-6.6,9.9-8c10.3-4.5,16.8-12.4,20.5-22.6c2-5.4,1.7-11.2-2.4-15.5c-5.7-6.1-7.4-12.5-5-20.6
		c0.7-2.4-0.9-5.5-1.5-8.3c-2.1,2-5.3,3.6-6.2,6c-2.4,7.2-3.8,14.7-5.4,21.1c3,2.7,6.4,4.5,7.8,7.3c3.8,7.3-0.9,17.5-8.4,20.8
		c-2.2,1-4.7,3-5.5,5.1C-61.7,2681.5-62.3,2686.2-63.8,2691.9z M-528.5,2592.9c-0.5,0.1-0.9,0.3-1.4,0.4c-0.2,1.9-0.5,3.7-0.4,5.6
		c0.1,3.5,1.1,7.1,0.6,10.4c-0.4,2.9-1.6,6.5-3.8,8.1c-9.5,7.1-10.4,10.5-8,22.3c2.9,14.1,15.9,21.4,21.3,33.6
		c0,0.1,0.6-0.1,1.6-0.2c-0.3-4.1-0.6-8.2-1.1-12.3c-0.6-5.3-2.6-9.6-7.7-12.6c-4.9-2.9-5.8-8.2-4.8-13.7c0.9-5.2,3.8-8.4,9.3-8.7
		c3.9-0.2,5.4-2.3,4.3-6c-2.1-7.3-4.2-14.7-6.6-21.9C-525.7,2596-527.4,2594.5-528.5,2592.9z"/>
	<path class="st17" d="M123,2418.1c-5.4,7.9-15.4,11.8-20,20.5c0.2,0.5,0.5,1.1,0.7,1.6c2.3-0.4,4.7-0.3,6.8-1.1
		c10.8-4,21.5-8.2,32.2-12.2c2-0.7,4.3-0.5,6.5-0.8c-0.7,2.2-1.1,4.8-2.3,6.7c-2.3,3.5-5.1,6.7-7.7,10c0.3,0.5,0.7,1,1,1.5
		c6.6-2.2,13.1-4.3,19.7-6.5c0.4,0.5,0.8,1,1.2,1.5c-3.8,4.9-7.2,10.2-11.4,14.7c-15.9,16.8-36.5,24.8-58.7,28.6
		c-40,6.9-79,0.8-117.2-11.4c-11-3.5-21.8-7.9-33.7-12.2c16.8-11.6,34.2-20.1,47.9-33.7c-0.2-0.6-0.5-1.2-0.7-1.8
		c-2.7,0.6-5.6,0.8-8.2,1.7c-16.2,6.2-32.3,12.4-48.3,19.1c-16.6,7-33.8,9.8-51.6,10.4c-65.4,2.1-130.4-2.6-193.9-18.5
		c-42.2-10.5-84.6-21.6-123.1-43.3c-19.9-11.3-38.9-23.8-56.5-38.5c-3.4-2.9-7.2-5.4-10.8-8c-0.5,0.4-1,0.9-1.6,1.3
		c0.5,1.7,0.7,3.8,1.7,5.2c6.6,8.9,12.9,18.2,20.4,26.4c7.5,8.3,16,15.6,24.3,23c2.7,2.5,4.1,4.6,3.3,8.5
		c-2.2,10.8-4.3,21.6-5.9,32.4c-0.7,4.5-3.3,5.6-6.9,5.3c-10.1-0.7-20.3-1-30.3-2.9c-18.8-3.5-37.4-7.8-56.9-12
		c3.1-10.7,5.5-20.5,8.7-30.1c17.9-54.4,47.3-101.5,88.4-141.4c19-18.4,40.7-32.6,66.1-40.9c35.7-11.6,72-19.2,109.8-18.5
		c40.1,0.7,78.1,10.5,114.5,26.8c48.3,21.7,91.1,51.9,132,85c38.9,31.5,80.8,58.2,125.6,80.4c3.7,1.8,7.8,3,11.5,4.7
		c4.4,2.1,4.7,4.6,0.5,7.2c-6.4,3.8-13.1,7.2-19.8,10.6c-5.5,2.8-11.1,5.3-16.5,8.3c-1.6,0.9-2.4,3.2-3.6,4.8
		c1.8,0.5,3.8,1.8,5.4,1.5c6.7-1.2,13.4-2.7,19.9-4.6c9.6-2.8,19-6.1,28.6-9c2.7-0.8,5.4-1.2,8.2-1.8
		C122.5,2417.3,122.8,2417.7,123,2418.1z M-204.8,2395.6c0.1-0.6,0.3-1.2,0.4-1.8c-1.5-1.1-2.9-2.5-4.6-3.3
		c-4.9-2.1-9.8-4.2-14.9-5.7c-18.9-5.5-37.9-10.5-56.7-16.1c-26.5-7.8-51.9-18.1-74.3-34.7c-15-11.1-30-22.2-41.8-37
		c-2.6-3.3-6.3-8.1-10.6-4.6c-4.1,3.4,0.2,7.8,2.5,10.7c5.6,7,11.4,14,18.1,19.9c50.4,43.9,110.4,65.1,175.8,73
		C-208.9,2396.3-206.8,2395.8-204.8,2395.6z M-449.7,2323.2c-0.4,7.3,8.6,17.2,28.2,32.2c43.8,33.4,108.9,58.6,132.5,50.5
		c-2.7-1.2-4.6-2.4-6.7-3.1c-9.1-3.1-18.2-6.6-27.5-9c-33.8-8.7-63.8-24.7-90.8-46.5c-9.1-7.3-18.6-14-28.1-20.8
		C-444.2,2325-446.9,2324.3-449.7,2323.2z"/>
	<path class="st17" d="M-597.7,2543.5c4.1-4.5,7.9-8.9,12.1-12.9c1.2-1.1,3.7-1.2,5.5-1.2c22.3,0.5,44.4-1.5,65.4-9.4
		c11.3-4.2,22-10,32.9-15c-0.1,0.4-0.3,1.6-0.7,2.7c-6.9,17.9-17.2,33.5-31.6,46.1c-13.9,12.1-30.1,15.2-47.7,10.6
		c-12.6-3.3-23.7-9.7-33.5-18.3C-596.3,2545.3-597.1,2544.3-597.7,2543.5z"/>
	<path class="st17" d="M-55.7,2530c9.2,6.6,17.6,13.1,26.5,18.8c14.6,9.4,30.4,14.9,48.2,13.5c1.5-0.1,3.7,0.7,4.5,1.9
		c5.1,7.3,10,14.9,15.2,22.8c-0.6,0.6-1.6,1.7-2.7,2.5c-14.4,9.7-30.3,13.7-47.5,11c-15.6-2.5-26.6-11.7-33.8-25.4
		C-52.7,2561.1-55,2546-55.7,2530z"/>
	<path class="st17" d="M-473.1,2480.1c-0.6,5.2-2.2,8.7-6.8,11.2c-19,10.2-38.3,19.4-59.8,23c-11.4,1.9-22.8,2.1-33.8-2.9
		c2.7-7.9,5.3-15.6,8-23.4C-534.3,2493.9-503.8,2489.9-473.1,2480.1z"/>
	<path class="st17" d="M-467.3,2459.2c0.3,5.7-2,8.2-7,9.8c-22.3,6.9-44.9,11.4-68.3,7.8c-5.6-0.9-11-2.6-16.4-4.3
		c-1.2-0.4-2.8-2.6-2.6-3.7c0.7-6.4,1.9-12.8,2.9-19.2c15.4,2.6,30.4,5.3,45.4,7.7C-498.1,2459.6-483,2461.5-467.3,2459.2z"/>
	<path class="st17" d="M8.2,2513.6c-21.9-2.3-41.8-7.9-60.6-17.1c-1.6-0.8-3.3-2.9-3.6-4.7c-1.1-5-1.4-10.1-2.2-16
		c6.8,2.1,12.7,3.8,18.5,5.6c14.1,4.4,28.2,9,42.4,13.3c3,0.9,4.3,2.3,4.4,5.5C7.2,2504.5,7.8,2508.8,8.2,2513.6z"/>
	<path class="st17" d="M-55.6,2504.9c13.2,6.4,25.9,13.3,39.1,18.9c7.4,3.2,15.6,4.7,23.6,6.3c3.5,0.7,5.1,2.1,5.7,5.5
		c0.8,4,2.1,8,3.6,13.5c-6.6-0.6-12.5-0.6-18.1-1.9c-17.7-3.9-33.5-11.8-47.8-23c-3.9-3-6.1-6.3-5.7-11.3
		C-54.9,2510.1-55.4,2507.1-55.6,2504.9z"/>
	<path d="M-328.8,2826.4c0.4-4.1,1.2-11.8,1.7-19.6c0.5-8.2-2-10.2-10.1-8.5c-1.5,0.3-2.9,0.9-4.4,1c-1.2,0.1-3,0.1-3.5-0.6
		c-0.5-0.9-0.4-2.7,0.2-3.7c1.1-1.8,2.4-3.7,4.2-4.9c15.7-10,26.1-24.7,34.9-40.4c5.4-9.7,9.3-20.3,14.5-30.1
		c4.5-8.5,9.2-17,15.1-24.5c5.3-6.7,10.3-5.3,13.9,2.5c0.6,1.4,1.1,2.8,1.9,4.1c3.9,7,8.2,7.4,13.4,1.5c2.1-2.4,4.3-4.8,6.8-6.6
		c5.4-3.9,10.6-2.8,13,3.4c2.5,6.4,4.4,13.3,5.3,20.2c3.3,23.2,6.1,46.5,9,69.8c1.5,11.9,4.6,22.8,14.2,31c1.6,1.4,2.8,3.3,3.9,5.1
		c0.7,1.2,0.8,2.7,1.1,4.1c-1.5,0.1-3.2,0.7-4.6,0.3c-2.5-0.7-5.1-1.7-7.4-3c-2.7-1.7-4.6-1.2-6.3,1.3c-6.1,9.3-12.6,18.4-18.1,28.1
		c-7.1,12.6-13.5,25.6-20.2,38.5c-14.1,27.3-40.3,24.8-58.7,8.1c-5.8-5.3-9.6-11.8-11.9-19.3C-326,2866.7-328.5,2848.6-328.8,2826.4
		z M-315.2,2852c1,13.5,6.8,23.4,15.8,32.1c14.8,14.5,37.1,8.8,45.9-12.5C-272.5,2861-292.8,2854.3-315.2,2852z M-264.5,2745.4
		c2.4,2.1,4.6,5.9,7.1,6.1c5.9,0.4,11.9-0.8,17.8-1.8c1.1-0.2,2.8-2.3,2.8-3.6c-0.2-6.6-0.4-13.3-1.4-19.9c-0.5-3-2.7-5.7-4.2-8.5
		c-2.5,1.4-5.1,2.7-7.6,4.1c-0.8,0.5-1.6,1.2-2.2,2c-3.7,4-7.9,4.6-13.1,3c-2.7-0.8-6.7-1-8.9,0.4c-7.9,5.2-12.7,13.1-16.6,22.1
		c2,0.6,3.3,1.1,4.8,1.3c4.1,0.6,8.2,1.3,12.4,1.5C-265.8,2752.6-265.8,2752.5-264.5,2745.4z"/>
	<path d="M-181.3,2871c0,2.2,0.2,3,0,3.6c-7.8,17.5-14.3,35.8-27.4,50.2c-25,27.3-56.4,35.5-91.5,26.5
		c-36.9-9.5-65.2-31.2-81.6-66.5c-6.9-14.9-15.2-29.3-17.8-45.9c-0.2-1.1-0.4-2.3-0.4-3.5c0-0.6,0.2-1.3,0.7-3.5
		c2.4,2.7,4.5,4.5,5.8,6.7c4.8,8,9.2,16.2,13.9,24.3c3.7,6.5,7.5,13,11.4,19.4c16,26.9,40,44,69,53.9c30.9,10.6,58.1,2,80.5-20.4
		c12.2-12.2,22.2-26.6,33.2-39.9C-184.5,2874.4-183.3,2873.2-181.3,2871z"/>
	<path class="st15" d="M-63.8,2691.9c1.4-5.8,2.1-10.4,3.8-14.6c0.9-2.1,3.3-4.2,5.5-5.1c7.5-3.3,12.2-13.5,8.4-20.8
		c-1.4-2.8-4.8-4.6-7.8-7.3c1.6-6.5,3-13.9,5.4-21.1c0.8-2.4,4-4,6.2-6c0.6,2.8,2.2,5.9,1.5,8.3c-2.4,8.1-0.7,14.5,5,20.6
		c4.1,4.4,4.4,10.1,2.4,15.5c-3.7,10.2-10.2,18-20.5,22.6C-57.1,2685.4-59.7,2688.5-63.8,2691.9z"/>
	<path class="st15" d="M-528.5,2592.9c1.1,1.6,2.8,3.1,3.4,4.9c2.4,7.3,4.5,14.6,6.6,21.9c1.1,3.8-0.5,5.8-4.3,6
		c-5.5,0.4-8.4,3.5-9.3,8.7c-1,5.5-0.1,10.8,4.8,13.7c5.1,3,7.1,7.3,7.7,12.6c0.5,4.1,0.7,8.2,1.1,12.3c-1,0.1-1.5,0.3-1.6,0.2
		c-5.4-12.2-18.4-19.4-21.3-33.6c-2.4-11.8-1.5-15.3,8-22.3c2.1-1.6,3.4-5.2,3.8-8.1c0.5-3.4-0.5-6.9-0.6-10.4
		c-0.1-1.9,0.3-3.7,0.4-5.6C-529.4,2593.2-529,2593-528.5,2592.9z"/>
	<path class="st17" d="M-204.8,2395.6c-2,0.2-4.1,0.7-6.1,0.5c-65.4-7.9-125.4-29-175.8-73c-6.7-5.9-12.5-12.9-18.1-19.9
		c-2.3-2.9-6.7-7.4-2.5-10.7c4.3-3.5,8,1.3,10.6,4.6c11.7,14.8,26.8,25.9,41.8,37c22.4,16.6,47.8,26.8,74.3,34.7
		c18.8,5.6,37.8,10.6,56.7,16.1c5.1,1.5,10,3.6,14.9,5.7c1.7,0.7,3.1,2.2,4.6,3.3C-204.5,2394.4-204.6,2395-204.8,2395.6z"/>
	<path class="st17" d="M-449.7,2323.2c2.7,1.2,5.5,1.8,7.6,3.4c9.5,6.8,19,13.5,28.1,20.8c27.1,21.8,57,37.9,90.8,46.5
		c9.3,2.4,18.4,5.9,27.5,9c2.1,0.7,4,1.8,6.7,3.1c-23.7,8-88.7-17.1-132.5-50.5C-441.1,2340.3-450.1,2330.4-449.7,2323.2z"/>
	<path class="st10" d="M-315.2,2852c22.4,2.3,42.7,9,61.6,19.6c-8.8,21.2-31,27-45.9,12.5C-308.3,2875.4-314.1,2865.5-315.2,2852z"
		/>
	<path class="st10" d="M-264.5,2745.4c-1.2,7.1-1.2,7.2-9.4,6.7c-4.1-0.2-8.2-0.9-12.4-1.5c-1.4-0.2-2.8-0.8-4.8-1.3
		c3.9-8.9,8.7-16.9,16.6-22.1c2.2-1.4,6.2-1.2,8.9-0.4c5.2,1.6,9.4,1,13.1-3c0.7-0.7,1.4-1.5,2.2-2c2.5-1.4,5.1-2.7,7.6-4.1
		c1.4,2.8,3.7,5.5,4.2,8.5c1,6.5,1.2,13.2,1.4,19.9c0,1.2-1.6,3.4-2.8,3.6c-5.9,1-11.9,2.1-17.8,1.8
		C-259.9,2751.3-262.2,2747.6-264.5,2745.4z"/>
</g>
<g>
	<path class="st15" d="M19.2,3671.3c1.4,8.7,2.3,16.9,4.2,24.9c5,20.5,15.2,38.3,30.1,53.3c4.7,4.8,4.8,6.4,0.7,12
		c-13.1,17.6-31.2,26-52.4,28.5c-4.4,0.5-5.7,1.9-5.9,6.3c-1.3,22.7-4.2,45.2-12.7,66.5c-2,4.9-4.4,9.7-7,14.3
		c-6,10.3-14.1,18.6-26.2,22.6c0.2,1.6,0.2,3.2,0.6,4.8c5.2,23.4-18.7,83.8-37.1,79.4c-0.3-0.1-0.6,0-1.4,0.1
		c-3.2,8.9-6,18.1-9.9,26.9c-8.8,19.8-16.9,40-27.6,58.7c-12.9,22.5-31.8,40.2-52.6,55.6c-37.1,27.4-78.6,41.3-124.9,38.4
		c-47.4-3-87.5-22.8-122.1-54.6c-22.2-20.4-37.7-45.5-52.8-71.2c-13.4-22.9-23.4-47.1-29.2-73c-0.9-3.9-2.4-5.6-6.8-6.1
		c-17.4-2-33.7-50.7-29.1-64.8c0.5-1.5,0.9-3.1,1.4-5.1c-15.3-2.7-21.4-14.1-26.3-26.4c-7.9-20.4-10.7-41.9-12-63.6
		c-1-16.3-0.9-32.6-1.5-48.9c-0.1-1.9-1.5-4.2-3-5.4c-6.9-5.7-14.2-11-21-16.9c-2.9-2.6-5.3-6-7.1-9.5c-0.9-1.8-1-5.5,0.2-6.8
		c14.4-15.9,19.8-35.7,24.5-55.6c6.3-26.1,11.5-52.4,18-78.4c10.8-43.1,27.5-83.5,54.6-119.1c45.1-59.3,104.6-93.5,178.6-102.7
		c69-8.6,134.8,2.2,197.4,32.3c21.8,10.5,40.9,24.9,60.2,39.3c50.6,37.8,101.8,74.8,156.4,106.7c26.1,15.3,52.6,29.5,81.5,38.8
		c6.2,2,12.5,3.4,18.9,4.8c7.1,1.5,8,2.2,6.9,9.6c-1.7,12.5-5.5,24.4-12,35.3c-16.4,27.6-41.6,42.4-72.3,48.9
		c-25.6,5.5-51.3,4.3-77.1,0.7C22.4,3671.6,21.5,3671.5,19.2,3671.3z M-77.3,3872.8c0.5,0,0.9,0,1.4,0c0.4,0.8,0.9,1.7,1.2,2.5
		c5.1,12.8,15.7,15.9,26.5,7.2c4.8-3.9,9.1-9,12.2-14.3c12.9-23,18.1-48.1,18.9-74.3c0.1-2.9-1-4.1-3.8-4.6
		c-8.2-1.5-15.4-5.2-21.5-10.9c-8.9-8.2-14.7-18.5-18.9-29.7c-13.6-36.9-15.4-75.4-14.5-112.9c-5.3,2-11.2,5.6-17.5,6.4
		c-16.8,2.1-33.8,3.3-50.7,4.3c-33.3,1.9-66.6,0.8-99.8-2.6c-33.5-3.5-65.6-12.4-97.9-21.6c-31.8-9.1-63-19.3-92.6-34.2
		c-0.7-0.3-1.5-0.4-2.6-0.7c-0.6,2-1.2,3.7-1.7,5.4c-6.4,21.9-12.6,43.8-19.2,65.7c-6.9,22.8-14.6,45.3-26.6,66.1
		c-17.9,31-42.4,40.7-76.4,30.4c-1.5-0.5-3.1-0.8-4.8-1.2c-0.4,1.4-0.8,2.3-0.8,3.2c-1.4,28.6-0.4,57,8.1,84.6
		c2.9,9.6,7.1,18.7,14.5,25.9c9.4,9,19.6,9.9,30.3,2.6c2.4-1.6,4.8-3.3,7.4-5.1c0.5,1.3,0.8,1.9,0.9,2.6c0.2,1.8,0.1,3.7,0.3,5.5
		c1.9,18.5,2.4,37.3,6.1,55.5c9.8,48.9,31.5,92.8,59.3,133.9c11.6,17.1,23.4,34.2,39.9,47.1c45.6,35.4,97.7,43.9,152.3,31.3
		c45.3-10.4,78.3-40.2,102.8-79c16.3-25.9,27.6-54.3,38.3-82.9c10.5-28.4,21.1-56.9,25.8-87C-79.6,3885.5-78.4,3879.1-77.3,3872.8z
		 M123,3591.2c-0.2-0.4-0.5-0.9-0.7-1.3c-2.7,0.6-5.5,1-8.2,1.8c-9.5,2.9-19,6.2-28.6,9c-6.5,1.9-13.2,3.3-19.9,4.6
		c-1.7,0.3-3.6-0.9-5.4-1.5c1.2-1.6,2-3.9,3.6-4.8c5.4-3,11-5.5,16.5-8.3c6.7-3.4,13.4-6.8,19.8-10.6c4.2-2.5,3.9-5.1-0.5-7.2
		c-3.7-1.8-7.8-2.9-11.5-4.7c-44.8-22.1-86.7-48.9-125.6-80.4c-40.9-33.1-83.7-63.4-132-85c-36.4-16.3-74.4-26.1-114.5-26.8
		c-37.8-0.6-74.1,6.9-109.8,18.5c-25.5,8.2-47.2,22.5-66.1,40.9c-41,39.8-70.5,87-88.4,141.4c-3.1,9.6-5.6,19.4-8.7,30.1
		c19.5,4.2,38.2,8.6,56.9,12c9.9,1.8,20.2,2.1,30.3,2.9c3.5,0.3,6.2-0.9,6.9-5.3c1.7-10.9,3.7-21.7,5.9-32.4c0.8-3.9-0.6-6-3.3-8.5
		c-8.3-7.4-16.8-14.8-24.3-23c-7.4-8.2-13.7-17.5-20.4-26.4c-1-1.4-1.2-3.4-1.7-5.2c0.5-0.4,1-0.9,1.6-1.3c3.6,2.7,7.4,5.1,10.8,8
		c17.6,14.7,36.6,27.2,56.5,38.5c38.5,21.7,80.9,32.8,123.1,43.3c63.5,15.8,128.5,20.5,193.9,18.5c17.8-0.6,35-3.4,51.6-10.4
		c16-6.7,32.2-12.9,48.3-19.1c2.6-1,5.5-1.2,8.2-1.7c0.2,0.6,0.5,1.2,0.7,1.8c-13.7,13.6-31.1,22.1-47.9,33.7
		c11.9,4.3,22.7,8.7,33.7,12.2C12,3656.7,51,3662.8,91,3655.9c22.2-3.8,42.7-11.8,58.7-28.6c4.3-4.5,7.6-9.8,11.4-14.7
		c-0.4-0.5-0.8-1-1.2-1.5c-6.6,2.2-13.1,4.3-19.7,6.5c-0.3-0.5-0.7-1-1-1.5c2.6-3.3,5.4-6.4,7.7-10c1.2-1.9,1.6-4.4,2.3-6.7
		c-2.2,0.2-4.5,0.1-6.5,0.8c-10.8,4-21.5,8.2-32.2,12.2c-2.1,0.8-4.5,0.8-6.8,1.1c-0.2-0.5-0.5-1.1-0.7-1.6
		C107.6,3603.1,117.5,3599.2,123,3591.2z M-597.7,3716.6c0.7,0.8,1.5,1.8,2.4,2.7c9.8,8.6,20.9,15,33.5,18.3
		c17.6,4.6,33.8,1.5,47.7-10.6c14.5-12.6,24.7-28.2,31.6-46.1c0.4-1.1,0.6-2.3,0.7-2.7c-10.9,5-21.6,10.8-32.9,15
		c-21,7.9-43.1,9.9-65.4,9.4c-1.9,0-4.4,0.1-5.5,1.2C-589.9,3707.7-593.6,3712.1-597.7,3716.6z M-55.7,3703.1
		c0.7,16.1,3,31.2,10.3,45c7.2,13.7,18.2,23,33.8,25.4c17.2,2.7,33.1-1.3,47.5-11c1.2-0.8,2.1-1.9,2.7-2.5
		c-5.2-7.9-10-15.5-15.2-22.8c-0.8-1.1-3-2-4.5-1.9c-17.8,1.4-33.6-4.1-48.2-13.5C-38.2,3716.2-46.6,3709.7-55.7,3703.1z
		 M-473.1,3653.2c-30.7,9.8-61.2,13.8-92.4,7.9c-2.7,7.8-5.3,15.5-8,23.4c11,5,22.4,4.9,33.8,2.9c21.5-3.7,40.8-12.9,59.8-23
		C-475.3,3661.9-473.8,3658.4-473.1,3653.2z M-467.3,3632.3c-15.7,2.3-30.8,0.4-46-1.9c-15.1-2.4-30.1-5.1-45.4-7.7
		c-1,6.4-2.2,12.7-2.9,19.2c-0.1,1.2,1.4,3.4,2.6,3.7c5.4,1.7,10.8,3.4,16.4,4.3c23.5,3.6,46-0.9,68.3-7.8
		C-469.3,3640.5-467,3638-467.3,3632.3z M8.2,3686.7c-0.4-4.9-1-9.1-1.1-13.4c-0.1-3.2-1.4-4.6-4.4-5.5
		c-14.2-4.3-28.2-8.9-42.4-13.3c-5.8-1.8-11.7-3.6-18.5-5.6c0.8,5.9,1.2,11,2.2,16c0.4,1.8,2,3.9,3.6,4.7
		C-33.6,3678.8-13.6,3684.4,8.2,3686.7z M-55.6,3678c0.2,2.2,0.7,5.2,0.5,8.2c-0.4,5,1.8,8.3,5.7,11.3c14.3,11.2,30.1,19.1,47.8,23
		c5.6,1.2,11.5,1.2,18.1,1.9c-1.5-5.6-2.8-9.5-3.6-13.5c-0.7-3.4-2.3-4.8-5.7-5.5c-8-1.7-16.1-3.2-23.6-6.3
		C-29.7,3691.2-42.4,3684.4-55.6,3678z"/>
	<path class="st15" d="M-77.3,3872.8c-1.1,6.3-2.3,12.7-3.3,19c-4.7,30.2-15.3,58.6-25.8,87c-10.6,28.6-22,57-38.3,82.9
		c-24.5,38.8-57.5,68.6-102.8,79c-54.6,12.6-106.7,4.1-152.3-31.3c-16.6-12.9-28.3-29.9-39.9-47.1c-27.8-41.1-49.5-85-59.3-133.9
		c-3.7-18.2-4.2-37-6.1-55.5c-0.2-1.8-0.1-3.7-0.3-5.5c-0.1-0.6-0.4-1.2-0.9-2.6c-2.7,1.8-5,3.5-7.4,5.1
		c-10.7,7.3-20.9,6.4-30.3-2.6c-7.4-7.2-11.6-16.3-14.5-25.9c-8.4-27.6-9.5-56-8.1-84.6c0-1,0.5-1.9,0.8-3.2
		c1.7,0.4,3.3,0.8,4.8,1.2c34,10.4,58.6,0.6,76.4-30.4c12-20.8,19.7-43.3,26.6-66.1c6.6-21.8,12.8-43.8,19.2-65.7
		c0.5-1.7,1.1-3.4,1.7-5.4c1.1,0.3,1.9,0.4,2.6,0.7c29.6,14.8,60.8,25.1,92.6,34.2c32.2,9.2,64.4,18.1,97.9,21.6
		c33.2,3.5,66.5,4.6,99.8,2.6c16.9-1,33.9-2.2,50.7-4.3c6.2-0.8,12.1-4.4,17.5-6.4c-0.9,37.6,0.9,76,14.5,112.9
		c4.1,11.2,10,21.4,18.9,29.7c6.1,5.7,13.3,9.4,21.5,10.9c2.9,0.5,3.9,1.8,3.8,4.6c-0.8,26.2-6,51.3-18.9,74.3
		c-3,5.4-7.4,10.5-12.2,14.3c-10.8,8.8-21.3,5.6-26.5-7.2c-0.4-0.9-0.8-1.7-1.2-2.5C-76.4,3872.8-76.8,3872.8-77.3,3872.8z
		 M-328.8,3999.6c0.3,22.2,2.8,40.2,8.2,57.9c2.3,7.5,6,14,11.9,19.3c18.4,16.7,44.6,19.2,58.7-8.1c6.7-12.9,13-25.9,20.2-38.5
		c5.5-9.7,12-18.7,18.1-28.1c1.6-2.5,3.5-3,6.3-1.3c2.2,1.4,4.8,2.4,7.4,3c1.4,0.4,3.1-0.2,4.6-0.4c-0.3-1.4-0.4-2.9-1.1-4.1
		c-1.1-1.9-2.3-3.8-3.9-5.1c-9.6-8.2-12.7-19.1-14.2-31c-2.9-23.3-5.7-46.6-9-69.8c-1-6.8-2.8-13.7-5.3-20.2
		c-2.4-6.2-7.6-7.3-13-3.4c-2.5,1.8-4.7,4.2-6.8,6.6c-5.2,5.9-9.4,5.4-13.4-1.5c-0.7-1.3-1.2-2.7-1.9-4.1c-3.6-7.8-8.6-9.2-13.9-2.5
		c-5.9,7.5-10.6,16-15.1,24.5c-5.2,9.8-9.1,20.4-14.5,30.1c-8.8,15.8-19.2,30.4-34.9,40.4c-1.7,1.1-3.1,3-4.2,4.9
		c-0.6,1-0.8,2.8-0.2,3.7c0.4,0.7,2.3,0.7,3.5,0.6c1.5-0.1,2.9-0.7,4.4-1c8.1-1.7,10.6,0.3,10.1,8.5
		C-327.6,3987.7-328.4,3995.5-328.8,3999.6z M-181.3,4044.1c-2,2.2-3.2,3.5-4.3,4.8c-11,13.4-21,27.8-33.2,39.9
		c-22.4,22.4-49.6,31-80.5,20.4c-29-10-53-27-69-53.9c-3.8-6.4-7.6-12.9-11.4-19.4c-4.6-8.1-9.1-16.3-13.9-24.3
		c-1.3-2.2-3.4-3.9-5.8-6.7c-0.5,2.2-0.7,2.9-0.7,3.5c0.1,1.2,0.2,2.3,0.4,3.5c2.6,16.6,10.8,31,17.8,45.9
		c16.4,35.3,44.7,57,81.6,66.5c35.1,9,66.5,0.8,91.5-26.5c13.2-14.4,19.7-32.7,27.4-50.2C-181,4047.1-181.3,4046.3-181.3,4044.1z
		 M-63.8,3865.1c4.1-3.4,6.7-6.6,9.9-8c10.3-4.5,16.8-12.4,20.5-22.6c2-5.4,1.7-11.2-2.4-15.5c-5.7-6.1-7.4-12.5-5-20.6
		c0.7-2.4-0.9-5.5-1.5-8.3c-2.1,2-5.3,3.6-6.2,6c-2.4,7.2-3.8,14.7-5.4,21.1c3,2.7,6.4,4.5,7.8,7.3c3.8,7.3-0.9,17.5-8.4,20.8
		c-2.2,1-4.7,3-5.5,5.1C-61.7,3854.6-62.3,3859.3-63.8,3865.1z M-528.5,3766c-0.5,0.1-0.9,0.3-1.4,0.4c-0.2,1.9-0.5,3.7-0.4,5.6
		c0.1,3.5,1.1,7.1,0.6,10.4c-0.4,2.9-1.6,6.5-3.8,8.1c-9.5,7.1-10.4,10.5-8,22.3c2.9,14.1,15.9,21.4,21.3,33.6
		c0,0.1,0.6-0.1,1.6-0.2c-0.3-4.1-0.6-8.2-1.1-12.3c-0.6-5.3-2.6-9.6-7.7-12.6c-4.9-2.9-5.8-8.2-4.8-13.7c0.9-5.2,3.8-8.4,9.3-8.7
		c3.9-0.2,5.4-2.3,4.3-6c-2.1-7.3-4.2-14.7-6.6-21.9C-525.7,3769.1-527.4,3767.7-528.5,3766z"/>
	<path class="st17" d="M123,3591.2c-5.4,7.9-15.4,11.8-20,20.5c0.2,0.5,0.5,1.1,0.7,1.6c2.3-0.4,4.7-0.3,6.8-1.1
		c10.8-4,21.5-8.2,32.2-12.2c2-0.7,4.3-0.5,6.5-0.8c-0.7,2.2-1.1,4.8-2.3,6.7c-2.3,3.5-5.1,6.7-7.7,10c0.3,0.5,0.7,1,1,1.5
		c6.6-2.2,13.1-4.3,19.7-6.5c0.4,0.5,0.8,1,1.2,1.5c-3.8,4.9-7.2,10.2-11.4,14.7c-15.9,16.8-36.5,24.8-58.7,28.6
		c-40,6.9-79,0.8-117.2-11.4c-11-3.5-21.8-7.9-33.7-12.2c16.8-11.6,34.2-20.1,47.9-33.7c-0.2-0.6-0.5-1.2-0.7-1.8
		c-2.7,0.6-5.6,0.8-8.2,1.7c-16.2,6.2-32.3,12.4-48.3,19.1c-16.6,7-33.8,9.8-51.6,10.4c-65.4,2.1-130.4-2.6-193.9-18.5
		c-42.2-10.5-84.6-21.6-123.1-43.3c-19.9-11.3-38.9-23.8-56.5-38.5c-3.4-2.9-7.2-5.4-10.8-8c-0.5,0.4-1,0.9-1.6,1.3
		c0.5,1.7,0.7,3.8,1.7,5.2c6.6,8.9,12.9,18.2,20.4,26.4c7.5,8.3,16,15.6,24.3,23c2.7,2.5,4.1,4.6,3.3,8.5
		c-2.2,10.8-4.3,21.6-5.9,32.4c-0.7,4.5-3.3,5.6-6.9,5.3c-10.1-0.7-20.3-1-30.3-2.9c-18.8-3.5-37.4-7.8-56.9-12
		c3.1-10.7,5.5-20.5,8.7-30.1c17.9-54.4,47.3-101.5,88.4-141.4c19-18.4,40.7-32.6,66.1-40.9c35.7-11.6,72-19.2,109.8-18.5
		c40.1,0.7,78.1,10.5,114.5,26.8c48.3,21.7,91.1,51.9,132,85c38.9,31.5,80.8,58.2,125.6,80.4c3.7,1.8,7.8,3,11.5,4.7
		c4.4,2.1,4.7,4.6,0.5,7.2c-6.4,3.8-13.1,7.2-19.8,10.6c-5.5,2.8-11.1,5.3-16.5,8.3c-1.6,0.9-2.4,3.2-3.6,4.8
		c1.8,0.5,3.8,1.8,5.4,1.5c6.7-1.2,13.4-2.7,19.9-4.6c9.6-2.8,19-6.1,28.6-9c2.7-0.8,5.4-1.2,8.2-1.8
		C122.5,3590.4,122.8,3590.8,123,3591.2z M-204.8,3568.7c0.1-0.6,0.3-1.2,0.4-1.8c-1.5-1.1-2.9-2.5-4.6-3.3
		c-4.9-2.1-9.8-4.2-14.9-5.7c-18.9-5.5-37.9-10.5-56.7-16.1c-26.5-7.8-51.9-18.1-74.3-34.7c-15-11.1-30-22.2-41.8-37
		c-2.6-3.3-6.3-8.1-10.6-4.6c-4.1,3.4,0.2,7.8,2.5,10.7c5.6,7,11.4,14,18.1,19.9c50.4,43.9,110.4,65.1,175.8,73
		C-208.9,3569.4-206.8,3568.9-204.8,3568.7z M-449.7,3496.3c-0.4,7.3,8.6,17.2,28.2,32.2c43.8,33.4,108.9,58.6,132.5,50.5
		c-2.7-1.2-4.6-2.4-6.7-3.1c-9.1-3.1-18.2-6.6-27.5-9c-33.8-8.7-63.8-24.7-90.8-46.5c-9.1-7.3-18.6-14-28.1-20.8
		C-444.2,3498.1-446.9,3497.4-449.7,3496.3z"/>
	<path class="st17" d="M-597.7,3716.6c4.1-4.5,7.9-8.9,12.1-12.9c1.2-1.1,3.7-1.2,5.5-1.2c22.3,0.5,44.4-1.5,65.4-9.4
		c11.3-4.2,22-10,32.9-15c-0.1,0.4-0.3,1.6-0.7,2.7c-6.9,17.9-17.2,33.5-31.6,46.1c-13.9,12.1-30.1,15.2-47.7,10.6
		c-12.6-3.3-23.7-9.7-33.5-18.3C-596.3,3718.4-597.1,3717.4-597.7,3716.6z"/>
	<path class="st17" d="M-55.7,3703.1c9.2,6.6,17.6,13.1,26.5,18.8c14.6,9.4,30.4,14.9,48.2,13.5c1.5-0.1,3.7,0.7,4.5,1.9
		c5.1,7.3,10,14.9,15.2,22.8c-0.6,0.6-1.6,1.7-2.7,2.5c-14.4,9.7-30.3,13.7-47.5,11c-15.6-2.5-26.6-11.7-33.8-25.4
		C-52.7,3734.2-55,3719.1-55.7,3703.1z"/>
	<path class="st17" d="M-473.1,3653.2c-0.6,5.2-2.2,8.7-6.8,11.2c-19,10.2-38.3,19.4-59.8,23c-11.4,1.9-22.8,2.1-33.8-2.9
		c2.7-7.9,5.3-15.6,8-23.4C-534.3,3667-503.8,3663-473.1,3653.2z"/>
	<path class="st17" d="M-467.3,3632.3c0.3,5.7-2,8.2-7,9.8c-22.3,6.9-44.9,11.4-68.3,7.8c-5.6-0.9-11-2.6-16.4-4.3
		c-1.2-0.4-2.8-2.6-2.6-3.7c0.7-6.4,1.9-12.8,2.9-19.2c15.4,2.6,30.4,5.3,45.4,7.7C-498.1,3632.7-483,3634.6-467.3,3632.3z"/>
	<path class="st17" d="M8.2,3686.7c-21.9-2.3-41.8-7.9-60.6-17.1c-1.6-0.8-3.3-2.9-3.6-4.7c-1.1-5-1.4-10.1-2.2-16
		c6.8,2.1,12.7,3.8,18.5,5.6c14.1,4.4,28.2,9,42.4,13.3c3,0.9,4.3,2.3,4.4,5.5C7.2,3677.6,7.8,3681.9,8.2,3686.7z"/>
	<path class="st17" d="M-55.6,3678c13.2,6.4,25.9,13.3,39.1,18.9c7.4,3.2,15.6,4.7,23.6,6.3c3.5,0.7,5.1,2.1,5.7,5.5
		c0.8,4,2.1,8,3.6,13.5c-6.6-0.6-12.5-0.6-18.1-1.9c-17.7-3.9-33.5-11.8-47.8-23c-3.9-3-6.1-6.3-5.7-11.3
		C-54.9,3683.2-55.4,3680.2-55.6,3678z"/>
	<path d="M-328.8,3999.6c0.4-4.1,1.2-11.8,1.7-19.6c0.5-8.2-2-10.2-10.1-8.5c-1.5,0.3-2.9,0.9-4.4,1c-1.2,0.1-3,0.1-3.5-0.6
		c-0.5-0.9-0.4-2.7,0.2-3.7c1.1-1.8,2.4-3.7,4.2-4.9c15.7-10,26.1-24.7,34.9-40.4c5.4-9.7,9.3-20.3,14.5-30.1
		c4.5-8.5,9.2-17,15.1-24.5c5.3-6.7,10.3-5.3,13.9,2.5c0.6,1.4,1.1,2.8,1.9,4.1c3.9,7,8.2,7.4,13.4,1.5c2.1-2.4,4.3-4.8,6.8-6.6
		c5.4-3.9,10.6-2.8,13,3.4c2.5,6.4,4.4,13.3,5.3,20.2c3.3,23.2,6.1,46.5,9,69.8c1.5,11.9,4.6,22.8,14.2,31c1.6,1.4,2.8,3.3,3.9,5.1
		c0.7,1.2,0.8,2.7,1.1,4.1c-1.5,0.1-3.2,0.7-4.6,0.4c-2.5-0.7-5.1-1.7-7.4-3c-2.7-1.7-4.6-1.2-6.3,1.3c-6.1,9.3-12.6,18.4-18.1,28.1
		c-7.1,12.6-13.5,25.6-20.2,38.5c-14.1,27.3-40.3,24.8-58.7,8.1c-5.8-5.3-9.6-11.8-11.9-19.3C-326,4039.8-328.5,4021.7-328.8,3999.6
		z M-315.2,4025.2c1,13.5,6.8,23.4,15.8,32.1c14.8,14.5,37.1,8.8,45.9-12.5C-272.5,4034.1-292.8,4027.4-315.2,4025.2z
		 M-264.5,3918.5c2.4,2.1,4.6,5.9,7.1,6.1c5.9,0.4,11.9-0.8,17.8-1.8c1.1-0.2,2.8-2.3,2.8-3.6c-0.2-6.6-0.4-13.3-1.4-19.9
		c-0.5-3-2.7-5.7-4.2-8.5c-2.5,1.4-5.1,2.7-7.6,4.1c-0.8,0.5-1.6,1.2-2.2,2c-3.7,4-7.9,4.6-13.1,3c-2.7-0.8-6.7-1-8.9,0.4
		c-7.9,5.2-12.7,13.1-16.6,22.1c2,0.6,3.3,1.1,4.8,1.3c4.1,0.6,8.2,1.3,12.4,1.5C-265.8,3925.7-265.8,3925.6-264.5,3918.5z"/>
	<path class="st15" d="M-63.8,3865.1c1.4-5.8,2.1-10.4,3.8-14.6c0.9-2.1,3.3-4.2,5.5-5.1c7.5-3.3,12.2-13.5,8.4-20.8
		c-1.4-2.8-4.8-4.6-7.8-7.3c1.6-6.5,3-13.9,5.4-21.1c0.8-2.4,4-4,6.2-6c0.6,2.8,2.2,5.9,1.5,8.3c-2.4,8.1-0.7,14.5,5,20.6
		c4.1,4.4,4.4,10.1,2.4,15.5c-3.7,10.2-10.2,18-20.5,22.6C-57.1,3858.5-59.7,3861.7-63.8,3865.1z"/>
	<path class="st15" d="M-528.5,3766c1.1,1.6,2.8,3.1,3.4,4.9c2.4,7.3,4.5,14.6,6.6,21.9c1.1,3.8-0.5,5.8-4.3,6
		c-5.5,0.4-8.4,3.5-9.3,8.7c-1,5.5-0.1,10.8,4.8,13.7c5.1,3,7.1,7.3,7.7,12.6c0.5,4.1,0.7,8.2,1.1,12.3c-1,0.1-1.5,0.3-1.6,0.2
		c-5.4-12.2-18.4-19.4-21.3-33.6c-2.4-11.8-1.5-15.3,8-22.3c2.1-1.6,3.4-5.2,3.8-8.1c0.5-3.4-0.5-6.9-0.6-10.4
		c-0.1-1.9,0.3-3.7,0.4-5.6C-529.4,3766.3-529,3766.2-528.5,3766z"/>
	<path class="st17" d="M-204.8,3568.7c-2,0.2-4.1,0.7-6.1,0.5c-65.4-7.9-125.4-29-175.8-73c-6.7-5.9-12.5-12.9-18.1-19.9
		c-2.3-2.9-6.7-7.4-2.5-10.7c4.3-3.5,8,1.3,10.6,4.6c11.7,14.8,26.8,25.9,41.8,37c22.4,16.6,47.8,26.8,74.3,34.7
		c18.8,5.6,37.8,10.6,56.7,16.1c5.1,1.5,10,3.6,14.9,5.7c1.7,0.7,3.1,2.2,4.6,3.3C-204.5,3567.5-204.6,3568.1-204.8,3568.7z"/>
	<path class="st17" d="M-449.7,3496.3c2.7,1.2,5.5,1.8,7.6,3.4c9.5,6.8,19,13.5,28.1,20.8c27.1,21.8,57,37.9,90.8,46.5
		c9.3,2.4,18.4,5.9,27.5,9c2.1,0.7,4,1.8,6.7,3.1c-23.7,8-88.7-17.1-132.5-50.5C-441.1,3513.5-450.1,3503.6-449.7,3496.3z"/>
	<path class="st10" d="M-315.2,4025.2c22.4,2.3,42.7,9,61.6,19.6c-8.8,21.2-31,27-45.9,12.5
		C-308.3,4048.5-314.1,4038.6-315.2,4025.2z"/>
	<path class="st10" d="M-264.5,3918.5c-1.2,7.1-1.2,7.2-9.4,6.7c-4.1-0.2-8.2-0.9-12.4-1.5c-1.4-0.2-2.8-0.8-4.8-1.3
		c3.9-8.9,8.7-16.9,16.6-22.1c2.2-1.4,6.2-1.2,8.9-0.4c5.2,1.6,9.4,1,13.1-3c0.7-0.7,1.4-1.5,2.2-2c2.5-1.4,5.1-2.7,7.6-4.1
		c1.4,2.8,3.7,5.5,4.2,8.5c1,6.5,1.2,13.2,1.4,19.9c0,1.2-1.6,3.4-2.8,3.6c-5.9,1-11.9,2.1-17.8,1.8
		C-259.9,3924.5-262.2,3920.7-264.5,3918.5z"/>
</g>
<path class="st17" d="M-1375.2,4834.1c5,1.2,7.8,7.6,6.2,14.3l0,0c-5.8,24.4-25.4,40.7-43.7,36.4l-305.5-72.4
	c-18.3-4.3-28.5-27.8-22.7-52.1l0,0c1.6-6.7,7-11.1,12-10"/>
<path class="st17" d="M-612.4,2538.2"/>
<path class="st17" d="M-631.5,2535.8c0,0,33.4,56.3,70.5,46s121.2-32.6,122.2-162.2c0,0,266.1,77.7,345.4,49.4
	c0,0,41.2,179.1,109.8,148s49.9-51.4,49.9-51.4l-40.1-60.7c0,0,129.4,36.1,168.1-98.3c0,0-242.8-119.2-250-160.9
	s-164.8-85.5-228.8-83.4s-211.3,39.6-246,100.1S-631.5,2535.8-631.5,2535.8z"/>
<path class="st20" d="M1870.6,2215.1c-28.2,50-62,96.7-101,138.9c-19.4,21-40.1,40.9-61.8,59.5c-21.9,18.7-45,36.6-71.2,49
	c-6.3,3-12.8,5.6-19.5,7.8c-6.9,2.2-15.1,5.4-22.4,3.8c-11.4-2.4-12.6-16.6-11.6-26.1c1.4-13,7.2-25.2,5.4-38.5
	c-1.6-11.9-9.5-20.9-20.7-25c-26.3-9.7-49.2,10.2-67.2,26.7c-20.2,18.4-40.4,37-59.5,56.6c-42,43-79.7,91.8-97.4,150
	c-1.9,6.2,7.8,8.8,9.6,2.7c15.9-52.2,48.7-96.8,85.7-136.1c18.4-19.6,38-38,57.8-56.2c17.3-15.9,40.5-43.4,67.1-34.4
	c14.1,4.8,16.4,18.2,13.9,31.4c-2.3,12.1-6.3,23.5-4.4,36c1.5,9.9,7,19.2,17,22.3c12.9,4,28.7-2.7,40.6-7.5
	c26.5-10.8,49.9-27.3,71.9-45.3c21.7-17.8,42.4-36.8,61.9-57c44.5-45.9,83-97.6,114.4-153.4
	C1882.4,2214.5,1873.8,2209.5,1870.6,2215.1z"/>
<path class="st20" d="M1916,2260.7c-3-15-5.9-30-8.9-44.9c-1.4-7.2-2.5-14.5-4.3-21.6c-1.4-5.4-4.8-9.4-10.4-10.3
	c-6-1-12.8,1.5-18.6,2.7c-7.8,1.7-15.6,3.3-23.5,5c-15,3.2-30,6.4-45,9.5c-6.3,1.3-3.6,11,2.7,9.6c26-5.5,52-11.8,78.2-16.6
	c2.9-0.5,5.5-1.2,6.8,2c1,2.6,1.2,5.8,1.8,8.6c1.2,6.2,2.4,12.4,3.7,18.6c2.6,13.4,5.3,26.7,7.9,40.1
	C1907.6,2269.6,1917.3,2267,1916,2260.7z"/>
<path class="st20" d="M2626.4,2131.8c-0.3-6.4-10.3-6.4-10,0c2,46.8-0.7,93.8-8.4,139.9c-3.3,19.5-6.2,40.5-14.2,58.8
	c-6.8,15.6-18.9,27.6-36.3,30.1c-16.2,2.3-32.7-2.5-48.3-6.4c-16.2-4.1-33.1-8.5-50-7.5c-39.8,2.5-64.3,39.8-86.2,68.6
	c-30,39.4-57.3,80.9-81.6,124c-3.2,5.6,5.5,10.7,8.6,5c21.9-38.9,46.2-76.4,72.7-112.2c12.8-17.2,25.7-34.9,40.5-50.5
	c12.9-13.5,28.2-24.2,47.4-25c33.4-1.5,64.7,18.5,98.3,13.8c16.6-2.3,30.5-12.1,39.1-26.3c10-16.6,13.5-36.6,17-55.3
	C2624.9,2237.1,2628.7,2184.3,2626.4,2131.8z"/>
<path class="st20" d="M2347.5,2555.7l-43.9,16.1c-7.2,2.6-14.3,5.3-21.5,7.9c-3.2,1.2-15.4,7.7-17.9,4.4c-0.8-1.1-0.6-4.2-0.7-5.4
	c-0.2-1.9-0.4-3.9-0.6-5.8c-0.3-3.6-0.6-7.1-0.9-10.7c-0.6-7.5-1.1-15-1.4-22.5c-0.8-15.6-1-31.3-0.8-47c0.1-6.4-9.9-6.4-10,0
	c-0.2,17.6,0.1,35.2,1.1,52.8c0.5,8.8,1.1,17.6,2,26.4c0.6,6.3-0.2,15.9,5,20.5c4.4,3.9,10.6,2.8,15.7,1.1c8.8-3,17.4-6.4,26.1-9.6
	c16.8-6.2,33.6-12.3,50.4-18.5C2356.1,2563.1,2353.5,2553.5,2347.5,2555.7z"/>
<path class="st0" d="M2128.3,1021.3l18.3,14.2c14,10.9,34.5,8.3,45.3-5.8l22.8-29.5c10.9-14,8.3-34.5-5.8-45.3l-18.3-14.2
	c-14-10.9-34.5-8.3-45.3,5.8l-22.8,29.5C2111.6,990.1,2114.2,1010.5,2128.3,1021.3z"/>
<rect x="2435.4" y="556.1" class="st10" width="47.8" height="29.2"/>
<rect x="2435.4" y="556.1" class="st16" width="20" height="13.8"/>
<rect x="2455.4" y="559.2" class="st12" width="27.8" height="3.8"/>
<rect x="2455.4" y="566.1" class="st12" width="27.8" height="3.8"/>
<rect x="2435.4" y="572.9" class="st12" width="47.8" height="3.8"/>
<rect x="2435.4" y="579.8" class="st12" width="47.8" height="3.8"/>
<path id="SVGID_x5F_1_x5F_" style="fill:none;" d="M1874.9,501.1c0,0,24.7-119.4,129.5-119.4"/>
<text><textPath  xlink:href="#SVGID_x5F_1_x5F_" startOffset="59.1919%">
<tspan  class="st16" style="font-family:'Avenir-Black'; font-size:36px;">MAGA</tspan></textPath>
</text>
<path class="st21" d="M3946.2,583.5l-261.2,28.9c-9.1,1-17.4-5.6-18.4-14.7v0c-1-9.1,5.6-17.4,14.7-18.4l261.2-28.9
	c9.1-1,17.4,5.6,18.4,14.7l0,0C3961.9,574.2,3955.3,582.5,3946.2,583.5z"/>
</svg>
