<svg width="177" height="61" viewBox="0 0 177 61" fill="none" xmlns="http://www.w3.org/2000/svg">
<rect x="0.628866" y="4.62887" width="174.742" height="55.7423" rx="11.9485" fill="#206C97" stroke="black" stroke-width="1.25773"/>
<rect x="0.628866" y="1.18551" width="174.825" height="54.0825" rx="11.9485" fill="#52BDF9" stroke="black" stroke-width="1.25773"/>
<path d="M31.3972 23.381C29.7538 23.381 28.4793 23.9679 27.5737 25.1418C26.6849 26.3157 26.2405 27.9088 26.2405 29.9212C26.2405 31.9503 26.6598 33.5434 27.4983 34.7006C28.3367 35.8409 29.628 36.4111 31.3721 36.4111C32.1267 36.4111 32.8646 36.3356 33.5857 36.1847C34.3068 36.017 35.0614 35.799 35.8496 35.5307V38.2725C35.1117 38.5744 34.3655 38.7924 33.6108 38.9265C32.873 39.0607 32.0177 39.1278 31.0451 39.1278C29.2004 39.1278 27.6743 38.7504 26.4669 37.9958C25.2595 37.2244 24.3623 36.1511 23.7754 34.776C23.1884 33.3841 22.895 31.7575 22.895 29.896C22.895 28.0849 23.222 26.4918 23.876 25.1166C24.53 23.7247 25.4859 22.6347 26.7436 21.8465C28.0181 21.0584 29.5693 20.6643 31.3972 20.6643C32.3028 20.6643 33.1916 20.7733 34.0636 20.9913C34.9524 21.1925 35.7825 21.4776 36.5539 21.8465L35.4471 24.4878C34.8099 24.2027 34.1475 23.9511 33.4599 23.7331C32.7891 23.4984 32.1015 23.381 31.3972 23.381ZM54.0557 38.8762H50.8359V30.9022H42.9373V38.8762H39.7175V20.9158H42.9373V28.1603H50.8359V20.9158H54.0557V38.8762ZM69.8241 38.8762L68.189 34.122H61.4224L59.8125 38.8762H56.3915L62.982 20.8403H66.6546L73.2451 38.8762H69.8241ZM67.3589 31.355L65.7993 26.7265C65.7323 26.4918 65.6316 26.1731 65.4975 25.7707C65.3633 25.3682 65.2292 24.9573 65.095 24.5381C64.9776 24.1021 64.8854 23.7415 64.8183 23.4564C64.7345 23.7918 64.6254 24.1775 64.4913 24.6135C64.3739 25.0496 64.2565 25.4604 64.1391 25.8461C64.0217 26.2318 63.9379 26.5253 63.8876 26.7265L62.3028 31.355H67.3589ZM80.278 38.8762H77.0582V23.6325H71.9015V20.9158H85.4347V23.6325H80.278V38.8762ZM109.988 38.8762H105.988L97.4857 24.7896H97.3851C97.4354 25.5443 97.4773 26.3576 97.5109 27.2296C97.5612 28.0849 97.5947 28.9485 97.6115 29.8206V38.8762H94.7187V20.9158H98.6931L107.17 34.9018H107.246C107.212 34.231 107.179 33.4596 107.145 32.5876C107.112 31.7155 107.086 30.8687 107.07 30.0469V20.9158H109.988V38.8762ZM130.714 29.8709C130.714 31.7323 130.404 33.359 129.783 34.7509C129.18 36.126 128.249 37.1992 126.991 37.9707C125.734 38.7421 124.157 39.1278 122.262 39.1278C120.351 39.1278 118.766 38.7421 117.508 37.9707C116.267 37.1992 115.336 36.1176 114.716 34.7257C114.112 33.3338 113.81 31.7071 113.81 29.8457C113.81 28.001 114.112 26.3911 114.716 25.016C115.336 23.6241 116.267 22.5509 117.508 21.7962C118.766 21.0248 120.359 20.6391 122.287 20.6391C124.182 20.6391 125.75 21.0248 126.991 21.7962C128.249 22.5509 129.18 23.6241 129.783 25.016C130.404 26.3911 130.714 28.0094 130.714 29.8709ZM117.206 29.8709C117.206 31.9 117.609 33.4931 118.414 34.6502C119.219 35.8074 120.501 36.3859 122.262 36.3859C124.04 36.3859 125.323 35.8074 126.111 34.6502C126.916 33.4931 127.318 31.9 127.318 29.8709C127.318 27.8417 126.924 26.2486 126.136 25.0915C125.348 23.9344 124.065 23.3558 122.287 23.3558C120.527 23.3558 119.235 23.9344 118.414 25.0915C117.609 26.2486 117.206 27.8417 117.206 29.8709ZM155.8 20.9158L151.147 38.8762H147.6L144.757 28.5628C144.657 28.2274 144.548 27.7998 144.43 27.2799C144.313 26.7433 144.204 26.2234 144.103 25.7203C144.003 25.2173 143.936 24.8483 143.902 24.6135C143.869 24.8483 143.802 25.2173 143.701 25.7203C143.617 26.2067 143.508 26.7181 143.374 27.2548C143.256 27.7914 143.147 28.2442 143.047 28.6131L140.28 38.8762H136.708L132.079 20.9158H135.299L137.764 31.1537C137.882 31.5898 137.991 32.0845 138.091 32.6379C138.209 33.1913 138.318 33.7447 138.418 34.2981C138.519 34.8347 138.594 35.3043 138.645 35.7067C138.695 35.2875 138.771 34.8012 138.871 34.2478C138.972 33.6944 139.081 33.1577 139.198 32.6379C139.316 32.1012 139.425 31.6485 139.525 31.2795L142.343 20.9158H145.462L148.329 31.3047C148.447 31.6736 148.564 32.1348 148.682 32.6882C148.799 33.2248 148.908 33.7614 149.009 34.2981C149.109 34.8347 149.185 35.3043 149.235 35.7067C149.285 35.2875 149.352 34.8096 149.436 34.2729C149.537 33.7363 149.646 33.1913 149.763 32.6379C149.881 32.0845 149.998 31.5898 150.115 31.1537L152.58 20.9158H155.8Z" fill="black"/>
</svg>
