<svg width="392" height="102" viewBox="0 0 392 102" fill="none" xmlns="http://www.w3.org/2000/svg">
<path d="M390.406 1H1.79228C1.39614 1 1 1.39063 1 1.78125V101H390.208C390.604 101 391 100.609 391 100.219V1.58594C391 1.19531 390.802 1 390.406 1Z" fill="#F2F2F2" stroke="#333333" stroke-miterlimit="10"/>
<path d="M169.277 58.7578C169.277 59.2331 169.18 59.679 168.984 60.0957C168.796 60.5124 168.538 60.877 168.213 61.1895C167.894 61.502 167.52 61.7493 167.09 61.9316C166.667 62.1074 166.217 62.1953 165.742 62.1953H164.736C164.261 62.1953 163.809 62.1074 163.379 61.9316C162.956 61.7493 162.581 61.502 162.256 61.1895C161.937 60.877 161.68 60.5124 161.484 60.0957C161.296 59.679 161.201 59.2331 161.201 58.7578V58.2012L162.461 57.9961V58.7578C162.461 59.0703 162.523 59.3633 162.646 59.6367C162.777 59.9036 162.949 60.1413 163.164 60.3496C163.379 60.5514 163.626 60.7109 163.906 60.8281C164.193 60.9453 164.492 61.0039 164.805 61.0039H165.684C165.996 61.0039 166.292 60.9453 166.572 60.8281C166.852 60.7109 167.1 60.5514 167.314 60.3496C167.529 60.1413 167.699 59.9036 167.822 59.6367C167.952 59.3633 168.018 59.0703 168.018 58.7578V58.3379C168.018 57.8561 167.923 57.4557 167.734 57.1367C167.546 56.8177 167.295 56.5475 166.982 56.3262C166.67 56.0983 166.315 55.9062 165.918 55.75C165.527 55.5938 165.124 55.4375 164.707 55.2812C164.29 55.125 163.883 54.9525 163.486 54.7637C163.096 54.5749 162.744 54.3405 162.432 54.0605C162.119 53.7741 161.868 53.4258 161.68 53.0156C161.491 52.6055 161.396 52.1009 161.396 51.502V51.2383C161.396 50.763 161.484 50.3171 161.66 49.9004C161.842 49.4837 162.09 49.1191 162.402 48.8066C162.715 48.4941 163.079 48.25 163.496 48.0742C163.919 47.8919 164.368 47.8008 164.844 47.8008H165.742C166.217 47.8008 166.663 47.8919 167.08 48.0742C167.497 48.25 167.861 48.4941 168.174 48.8066C168.486 49.1191 168.73 49.4837 168.906 49.9004C169.089 50.3171 169.18 50.763 169.18 51.2383V51.5996L167.92 51.8047V51.2383C167.92 50.9258 167.861 50.6361 167.744 50.3691C167.627 50.0957 167.467 49.8581 167.266 49.6562C167.064 49.4544 166.826 49.2949 166.553 49.1777C166.286 49.0605 165.996 49.002 165.684 49.002H164.902C164.59 49.002 164.297 49.0605 164.023 49.1777C163.757 49.2949 163.519 49.4544 163.311 49.6562C163.109 49.8581 162.949 50.0957 162.832 50.3691C162.715 50.6361 162.656 50.9258 162.656 51.2383V51.502C162.656 51.9512 162.751 52.3288 162.939 52.6348C163.128 52.9408 163.379 53.2044 163.691 53.4258C164.004 53.6406 164.355 53.8294 164.746 53.9922C165.143 54.1484 165.55 54.3112 165.967 54.4805C166.383 54.6432 166.787 54.8255 167.178 55.0273C167.575 55.2227 167.93 55.4668 168.242 55.7598C168.555 56.0462 168.805 56.3978 168.994 56.8145C169.183 57.2311 169.277 57.7389 169.277 58.3379V58.7578ZM178.271 59.2559C178.271 59.6595 178.193 60.0404 178.037 60.3984C177.887 60.7565 177.679 61.069 177.412 61.3359C177.145 61.6029 176.833 61.8145 176.475 61.9707C176.117 62.1204 175.736 62.1953 175.332 62.1953H174.531C174.128 62.1953 173.747 62.1204 173.389 61.9707C173.031 61.8145 172.718 61.6029 172.451 61.3359C172.184 61.069 171.973 60.7565 171.816 60.3984C171.667 60.0404 171.592 59.6595 171.592 59.2559V54.7441C171.592 54.3405 171.667 53.9596 171.816 53.6016C171.973 53.2435 172.184 52.931 172.451 52.6641C172.718 52.3971 173.031 52.1888 173.389 52.0391C173.747 51.8828 174.128 51.8047 174.531 51.8047H175.332C175.736 51.8047 176.117 51.8828 176.475 52.0391C176.833 52.1888 177.145 52.3971 177.412 52.6641C177.679 52.931 177.887 53.2435 178.037 53.6016C178.193 53.9596 178.271 54.3405 178.271 54.7441V57.0977H172.793V59.3242C172.793 59.5651 172.839 59.793 172.93 60.0078C173.021 60.2161 173.145 60.3984 173.301 60.5547C173.457 60.7109 173.639 60.8346 173.848 60.9258C174.062 61.0169 174.29 61.0625 174.531 61.0625H175.332C175.573 61.0625 175.798 61.0169 176.006 60.9258C176.221 60.8346 176.406 60.7109 176.562 60.5547C176.719 60.3984 176.842 60.2161 176.934 60.0078C177.025 59.793 177.07 59.5651 177.07 59.3242V58.6602L178.271 58.8555V59.2559ZM177.07 54.6758C177.07 54.4349 177.025 54.2103 176.934 54.002C176.842 53.7871 176.719 53.6016 176.562 53.4453C176.406 53.2891 176.221 53.1654 176.006 53.0742C175.798 52.9831 175.573 52.9375 175.332 52.9375H174.531C174.29 52.9375 174.062 52.9831 173.848 53.0742C173.639 53.1654 173.457 53.2891 173.301 53.4453C173.145 53.6016 173.021 53.7871 172.93 54.002C172.839 54.2103 172.793 54.4349 172.793 54.6758V56.1602H177.07V54.6758ZM186.152 62V54.6758C186.152 54.4349 186.107 54.2103 186.016 54.002C185.924 53.7871 185.801 53.6016 185.645 53.4453C185.488 53.2891 185.303 53.1654 185.088 53.0742C184.88 52.9831 184.655 52.9375 184.414 52.9375H183.613C183.372 52.9375 183.145 52.9831 182.93 53.0742C182.721 53.1654 182.539 53.2891 182.383 53.4453C182.227 53.6016 182.103 53.7871 182.012 54.002C181.921 54.2103 181.875 54.4349 181.875 54.6758V62H180.674V52H181.074L181.729 53.0156C182.002 52.6445 182.344 52.3516 182.754 52.1367C183.171 51.9154 183.623 51.8047 184.111 51.8047H184.414C184.818 51.8047 185.199 51.8828 185.557 52.0391C185.915 52.1888 186.227 52.3971 186.494 52.6641C186.761 52.931 186.969 53.2435 187.119 53.6016C187.275 53.9596 187.354 54.3405 187.354 54.7441V62H186.152ZM196.631 59.4609C196.631 59.8646 196.549 60.2357 196.387 60.5742C196.224 60.9062 196.003 61.1927 195.723 61.4336C195.443 61.6745 195.117 61.8633 194.746 62C194.382 62.1302 193.997 62.1953 193.594 62.1953H192.793C192.389 62.1953 192.002 62.1204 191.631 61.9707C191.266 61.8145 190.944 61.6029 190.664 61.3359C190.391 61.069 190.169 60.7565 190 60.3984C189.837 60.0404 189.756 59.6595 189.756 59.2559V58.8555L190.957 58.6602V59.3242C190.957 59.5651 191.006 59.793 191.104 60.0078C191.208 60.2161 191.344 60.3984 191.514 60.5547C191.683 60.7109 191.878 60.8346 192.1 60.9258C192.321 61.0169 192.552 61.0625 192.793 61.0625H193.594C193.835 61.0625 194.066 61.0267 194.287 60.9551C194.508 60.8835 194.704 60.7826 194.873 60.6523C195.049 60.5156 195.186 60.3529 195.283 60.1641C195.387 59.9753 195.439 59.7604 195.439 59.5195C195.439 59.1615 195.361 58.8685 195.205 58.6406C195.049 58.4128 194.84 58.224 194.58 58.0742C194.326 57.918 194.033 57.791 193.701 57.6934C193.376 57.5892 193.04 57.4883 192.695 57.3906C192.35 57.2865 192.012 57.1693 191.68 57.0391C191.354 56.9089 191.061 56.7396 190.801 56.5312C190.547 56.3164 190.342 56.0495 190.186 55.7305C190.029 55.4115 189.951 55.0143 189.951 54.5391C189.951 54.1354 190.029 53.7676 190.186 53.4355C190.342 53.097 190.553 52.8073 190.82 52.5664C191.087 52.3255 191.396 52.14 191.748 52.0098C192.106 51.873 192.487 51.8047 192.891 51.8047H193.594C193.997 51.8047 194.378 51.8828 194.736 52.0391C195.094 52.1888 195.407 52.3971 195.674 52.6641C195.941 52.931 196.149 53.2435 196.299 53.6016C196.455 53.9596 196.533 54.3405 196.533 54.7441V54.7832L195.332 54.9785V54.6758C195.332 54.4349 195.286 54.2103 195.195 54.002C195.104 53.7871 194.98 53.6016 194.824 53.4453C194.668 53.2891 194.482 53.1654 194.268 53.0742C194.059 52.9831 193.835 52.9375 193.594 52.9375H192.891C192.65 52.9375 192.422 52.9733 192.207 53.0449C191.999 53.1165 191.816 53.2207 191.66 53.3574C191.504 53.4876 191.38 53.6471 191.289 53.8359C191.198 54.0247 191.152 54.2396 191.152 54.4805C191.152 54.8255 191.23 55.1087 191.387 55.3301C191.543 55.5449 191.748 55.7272 192.002 55.877C192.262 56.0267 192.555 56.1536 192.881 56.2578C193.213 56.3555 193.548 56.4596 193.887 56.5703C194.232 56.6745 194.567 56.7949 194.893 56.9316C195.225 57.0684 195.518 57.2441 195.771 57.459C196.032 57.6738 196.24 57.944 196.396 58.2695C196.553 58.5885 196.631 58.9857 196.631 59.4609ZM205.215 62L204.551 60.9844C204.277 61.3555 203.936 61.6517 203.525 61.873C203.115 62.0879 202.666 62.1953 202.178 62.1953H201.875C201.471 62.1953 201.09 62.1204 200.732 61.9707C200.374 61.8145 200.062 61.6029 199.795 61.3359C199.528 61.069 199.316 60.7565 199.16 60.3984C199.01 60.0404 198.936 59.6595 198.936 59.2559V52H200.137V59.3242C200.137 59.5651 200.182 59.793 200.273 60.0078C200.365 60.2161 200.488 60.3984 200.645 60.5547C200.801 60.7109 200.983 60.8346 201.191 60.9258C201.406 61.0169 201.634 61.0625 201.875 61.0625H202.676C202.917 61.0625 203.141 61.0169 203.35 60.9258C203.564 60.8346 203.75 60.7109 203.906 60.5547C204.062 60.3984 204.186 60.2161 204.277 60.0078C204.368 59.793 204.414 59.5651 204.414 59.3242V52H205.615V62H205.215ZM214.697 59.2559C214.697 59.6595 214.619 60.0404 214.463 60.3984C214.313 60.7565 214.105 61.069 213.838 61.3359C213.571 61.6029 213.258 61.8145 212.9 61.9707C212.542 62.1204 212.161 62.1953 211.758 62.1953H210.957C210.553 62.1953 210.173 62.1204 209.814 61.9707C209.456 61.8145 209.144 61.6029 208.877 61.3359C208.61 61.069 208.398 60.7565 208.242 60.3984C208.092 60.0404 208.018 59.6595 208.018 59.2559V54.7441C208.018 54.3405 208.092 53.9596 208.242 53.6016C208.398 53.2435 208.61 52.931 208.877 52.6641C209.144 52.3971 209.456 52.1888 209.814 52.0391C210.173 51.8828 210.553 51.8047 210.957 51.8047H211.758C212.161 51.8047 212.542 51.8828 212.9 52.0391C213.258 52.1888 213.571 52.3971 213.838 52.6641C214.105 52.931 214.313 53.2435 214.463 53.6016C214.619 53.9596 214.697 54.3405 214.697 54.7441V59.2559ZM213.496 54.6758C213.496 54.4349 213.451 54.2103 213.359 54.002C213.268 53.7871 213.145 53.6016 212.988 53.4453C212.832 53.2891 212.646 53.1654 212.432 53.0742C212.223 52.9831 211.999 52.9375 211.758 52.9375H210.957C210.716 52.9375 210.488 52.9831 210.273 53.0742C210.065 53.1654 209.883 53.2891 209.727 53.4453C209.57 53.6016 209.447 53.7871 209.355 54.002C209.264 54.2103 209.219 54.4349 209.219 54.6758V59.3242C209.219 59.5651 209.264 59.793 209.355 60.0078C209.447 60.2161 209.57 60.3984 209.727 60.5547C209.883 60.7109 210.065 60.8346 210.273 60.9258C210.488 61.0169 210.716 61.0625 210.957 61.0625H211.758C211.999 61.0625 212.223 61.0169 212.432 60.9258C212.646 60.8346 212.832 60.7109 212.988 60.5547C213.145 60.3984 213.268 60.2161 213.359 60.0078C213.451 59.793 213.496 59.5651 213.496 59.3242V54.6758ZM223.379 62L222.715 60.9844C222.441 61.3555 222.1 61.6517 221.689 61.873C221.279 62.0879 220.83 62.1953 220.342 62.1953H220.039C219.635 62.1953 219.255 62.1204 218.896 61.9707C218.538 61.8145 218.226 61.6029 217.959 61.3359C217.692 61.069 217.48 60.7565 217.324 60.3984C217.174 60.0404 217.1 59.6595 217.1 59.2559V52H218.301V59.3242C218.301 59.5651 218.346 59.793 218.438 60.0078C218.529 60.2161 218.652 60.3984 218.809 60.5547C218.965 60.7109 219.147 60.8346 219.355 60.9258C219.57 61.0169 219.798 61.0625 220.039 61.0625H220.84C221.081 61.0625 221.305 61.0169 221.514 60.9258C221.729 60.8346 221.914 60.7109 222.07 60.5547C222.227 60.3984 222.35 60.2161 222.441 60.0078C222.533 59.793 222.578 59.5651 222.578 59.3242V52H223.779V62H223.379ZM233.057 59.4609C233.057 59.8646 232.975 60.2357 232.812 60.5742C232.65 60.9062 232.428 61.1927 232.148 61.4336C231.868 61.6745 231.543 61.8633 231.172 62C230.807 62.1302 230.423 62.1953 230.02 62.1953H229.219C228.815 62.1953 228.428 62.1204 228.057 61.9707C227.692 61.8145 227.37 61.6029 227.09 61.3359C226.816 61.069 226.595 60.7565 226.426 60.3984C226.263 60.0404 226.182 59.6595 226.182 59.2559V58.8555L227.383 58.6602V59.3242C227.383 59.5651 227.432 59.793 227.529 60.0078C227.633 60.2161 227.77 60.3984 227.939 60.5547C228.109 60.7109 228.304 60.8346 228.525 60.9258C228.747 61.0169 228.978 61.0625 229.219 61.0625H230.02C230.26 61.0625 230.492 61.0267 230.713 60.9551C230.934 60.8835 231.13 60.7826 231.299 60.6523C231.475 60.5156 231.611 60.3529 231.709 60.1641C231.813 59.9753 231.865 59.7604 231.865 59.5195C231.865 59.1615 231.787 58.8685 231.631 58.6406C231.475 58.4128 231.266 58.224 231.006 58.0742C230.752 57.918 230.459 57.791 230.127 57.6934C229.801 57.5892 229.466 57.4883 229.121 57.3906C228.776 57.2865 228.438 57.1693 228.105 57.0391C227.78 56.9089 227.487 56.7396 227.227 56.5312C226.973 56.3164 226.768 56.0495 226.611 55.7305C226.455 55.4115 226.377 55.0143 226.377 54.5391C226.377 54.1354 226.455 53.7676 226.611 53.4355C226.768 53.097 226.979 52.8073 227.246 52.5664C227.513 52.3255 227.822 52.14 228.174 52.0098C228.532 51.873 228.913 51.8047 229.316 51.8047H230.02C230.423 51.8047 230.804 51.8828 231.162 52.0391C231.52 52.1888 231.833 52.3971 232.1 52.6641C232.367 52.931 232.575 53.2435 232.725 53.6016C232.881 53.9596 232.959 54.3405 232.959 54.7441V54.7832L231.758 54.9785V54.6758C231.758 54.4349 231.712 54.2103 231.621 54.002C231.53 53.7871 231.406 53.6016 231.25 53.4453C231.094 53.2891 230.908 53.1654 230.693 53.0742C230.485 52.9831 230.26 52.9375 230.02 52.9375H229.316C229.076 52.9375 228.848 52.9733 228.633 53.0449C228.424 53.1165 228.242 53.2207 228.086 53.3574C227.93 53.4876 227.806 53.6471 227.715 53.8359C227.624 54.0247 227.578 54.2396 227.578 54.4805C227.578 54.8255 227.656 55.1087 227.812 55.3301C227.969 55.5449 228.174 55.7272 228.428 55.877C228.688 56.0267 228.981 56.1536 229.307 56.2578C229.639 56.3555 229.974 56.4596 230.312 56.5703C230.658 56.6745 230.993 56.7949 231.318 56.9316C231.65 57.0684 231.943 57.2441 232.197 57.459C232.458 57.6738 232.666 57.944 232.822 58.2695C232.979 58.5885 233.057 58.9857 233.057 59.4609ZM242.598 62L237.324 54.998L242.598 47.9961H244.16L238.779 54.998L244.16 62H242.598ZM235.762 62V47.9961H237.021V62H235.762ZM246.074 49.5977V47.9961H247.471V49.5977H246.074ZM246.172 62V52H247.373V62H246.172ZM253.828 62C253.464 62 253.118 61.9316 252.793 61.7949C252.474 61.6582 252.194 61.4694 251.953 61.2285C251.719 60.9876 251.53 60.7077 251.387 60.3887C251.25 60.0697 251.182 59.7279 251.182 59.3633V53.1426H249.385V52H251.182V49.5977L252.383 49.4023V52H254.922V53.1426H252.383V59.4219C252.383 59.6237 252.419 59.8125 252.49 59.9883C252.568 60.1576 252.673 60.3073 252.803 60.4375C252.933 60.5677 253.086 60.6719 253.262 60.75C253.438 60.8216 253.626 60.8574 253.828 60.8574H254.922V62H253.828ZM260.781 62C260.417 62 260.072 61.9316 259.746 61.7949C259.427 61.6582 259.147 61.4694 258.906 61.2285C258.672 60.9876 258.483 60.7077 258.34 60.3887C258.203 60.0697 258.135 59.7279 258.135 59.3633V53.1426H256.338V52H258.135V49.5977L259.336 49.4023V52H261.875V53.1426H259.336V59.4219C259.336 59.6237 259.372 59.8125 259.443 59.9883C259.521 60.1576 259.626 60.3073 259.756 60.4375C259.886 60.5677 260.039 60.6719 260.215 60.75C260.391 60.8216 260.579 60.8574 260.781 60.8574H261.875V62H260.781ZM270.771 59.2559C270.771 59.6595 270.693 60.0404 270.537 60.3984C270.387 60.7565 270.179 61.069 269.912 61.3359C269.645 61.6029 269.333 61.8145 268.975 61.9707C268.617 62.1204 268.236 62.1953 267.832 62.1953H267.031C266.628 62.1953 266.247 62.1204 265.889 61.9707C265.531 61.8145 265.218 61.6029 264.951 61.3359C264.684 61.069 264.473 60.7565 264.316 60.3984C264.167 60.0404 264.092 59.6595 264.092 59.2559V54.7441C264.092 54.3405 264.167 53.9596 264.316 53.6016C264.473 53.2435 264.684 52.931 264.951 52.6641C265.218 52.3971 265.531 52.1888 265.889 52.0391C266.247 51.8828 266.628 51.8047 267.031 51.8047H267.832C268.236 51.8047 268.617 51.8828 268.975 52.0391C269.333 52.1888 269.645 52.3971 269.912 52.6641C270.179 52.931 270.387 53.2435 270.537 53.6016C270.693 53.9596 270.771 54.3405 270.771 54.7441V57.0977H265.293V59.3242C265.293 59.5651 265.339 59.793 265.43 60.0078C265.521 60.2161 265.645 60.3984 265.801 60.5547C265.957 60.7109 266.139 60.8346 266.348 60.9258C266.562 61.0169 266.79 61.0625 267.031 61.0625H267.832C268.073 61.0625 268.298 61.0169 268.506 60.9258C268.721 60.8346 268.906 60.7109 269.062 60.5547C269.219 60.3984 269.342 60.2161 269.434 60.0078C269.525 59.793 269.57 59.5651 269.57 59.3242V58.6602L270.771 58.8555V59.2559ZM269.57 54.6758C269.57 54.4349 269.525 54.2103 269.434 54.002C269.342 53.7871 269.219 53.6016 269.062 53.4453C268.906 53.2891 268.721 53.1654 268.506 53.0742C268.298 52.9831 268.073 52.9375 267.832 52.9375H267.031C266.79 52.9375 266.562 52.9831 266.348 53.0742C266.139 53.1654 265.957 53.2891 265.801 53.4453C265.645 53.6016 265.521 53.7871 265.43 54.002C265.339 54.2103 265.293 54.4349 265.293 54.6758V56.1602H269.57V54.6758ZM278.652 62V54.6758C278.652 54.4349 278.607 54.2103 278.516 54.002C278.424 53.7871 278.301 53.6016 278.145 53.4453C277.988 53.2891 277.803 53.1654 277.588 53.0742C277.38 52.9831 277.155 52.9375 276.914 52.9375H276.113C275.872 52.9375 275.645 52.9831 275.43 53.0742C275.221 53.1654 275.039 53.2891 274.883 53.4453C274.727 53.6016 274.603 53.7871 274.512 54.002C274.421 54.2103 274.375 54.4349 274.375 54.6758V62H273.174V52H273.574L274.229 53.0156C274.502 52.6445 274.844 52.3516 275.254 52.1367C275.671 51.9154 276.123 51.8047 276.611 51.8047H276.914C277.318 51.8047 277.699 51.8828 278.057 52.0391C278.415 52.1888 278.727 52.3971 278.994 52.6641C279.261 52.931 279.469 53.2435 279.619 53.6016C279.775 53.9596 279.854 54.3405 279.854 54.7441V62H278.652Z" fill="black"/>
<path d="M180.64 75.704C180.64 76.592 180.488 77.368 180.184 78.032C179.888 78.688 179.448 79.2 178.864 79.568C178.28 79.936 177.556 80.12 176.692 80.12C175.804 80.12 175.064 79.936 174.472 79.568C173.888 79.2 173.452 78.684 173.164 78.02C172.876 77.356 172.732 76.58 172.732 75.692C172.732 74.812 172.876 74.044 173.164 73.388C173.452 72.732 173.888 72.22 174.472 71.852C175.064 71.484 175.808 71.3 176.704 71.3C177.56 71.3 178.28 71.484 178.864 71.852C179.448 72.212 179.888 72.724 180.184 73.388C180.488 74.044 180.64 74.816 180.64 75.704ZM173.872 75.704C173.872 76.784 174.1 77.636 174.556 78.26C175.012 78.876 175.724 79.184 176.692 79.184C177.668 79.184 178.38 78.876 178.828 78.26C179.276 77.636 179.5 76.784 179.5 75.704C179.5 74.624 179.276 73.78 178.828 73.172C178.38 72.556 177.672 72.248 176.704 72.248C175.736 72.248 175.02 72.556 174.556 73.172C174.1 73.78 173.872 74.624 173.872 75.704ZM185.491 73.448C186.259 73.448 186.839 73.636 187.231 74.012C187.623 74.38 187.819 74.98 187.819 75.812V80H186.775V75.884C186.775 74.852 186.295 74.336 185.335 74.336C184.623 74.336 184.131 74.536 183.859 74.936C183.587 75.336 183.451 75.912 183.451 76.664V80H182.395V73.568H183.247L183.403 74.444H183.463C183.671 74.108 183.959 73.86 184.327 73.7C184.695 73.532 185.083 73.448 185.491 73.448ZM190.869 80H189.813V70.88H190.869V80ZM193.447 71.156C193.607 71.156 193.747 71.212 193.867 71.324C193.995 71.428 194.059 71.596 194.059 71.828C194.059 72.052 193.995 72.22 193.867 72.332C193.747 72.444 193.607 72.5 193.447 72.5C193.271 72.5 193.123 72.444 193.003 72.332C192.883 72.22 192.823 72.052 192.823 71.828C192.823 71.596 192.883 71.428 193.003 71.324C193.123 71.212 193.271 71.156 193.447 71.156ZM193.963 73.568V80H192.907V73.568H193.963ZM199.096 73.448C199.864 73.448 200.444 73.636 200.836 74.012C201.228 74.38 201.424 74.98 201.424 75.812V80H200.38V75.884C200.38 74.852 199.9 74.336 198.94 74.336C198.228 74.336 197.736 74.536 197.464 74.936C197.192 75.336 197.056 75.912 197.056 76.664V80H196V73.568H196.852L197.008 74.444H197.068C197.276 74.108 197.564 73.86 197.932 73.7C198.3 73.532 198.688 73.448 199.096 73.448ZM205.902 73.448C206.454 73.448 206.926 73.568 207.318 73.808C207.718 74.048 208.022 74.388 208.23 74.828C208.446 75.26 208.554 75.768 208.554 76.352V76.988H204.15C204.166 77.716 204.35 78.272 204.702 78.656C205.062 79.032 205.562 79.22 206.202 79.22C206.61 79.22 206.97 79.184 207.282 79.112C207.602 79.032 207.93 78.92 208.266 78.776V79.7C207.938 79.844 207.614 79.948 207.294 80.012C206.974 80.084 206.594 80.12 206.154 80.12C205.546 80.12 205.006 79.996 204.534 79.748C204.07 79.5 203.706 79.132 203.442 78.644C203.186 78.148 203.058 77.544 203.058 76.832C203.058 76.128 203.174 75.524 203.406 75.02C203.646 74.516 203.978 74.128 204.402 73.856C204.834 73.584 205.334 73.448 205.902 73.448ZM205.89 74.312C205.386 74.312 204.986 74.476 204.69 74.804C204.402 75.124 204.23 75.572 204.174 76.148H207.45C207.442 75.604 207.314 75.164 207.066 74.828C206.818 74.484 206.426 74.312 205.89 74.312Z" fill="#828282"/>
<circle cx="164" cy="76" r="4" fill="#6FCF97"/>
<circle cx="130" cy="63" r="22" fill="#BDBDBD"/>
<mask id="mask0" mask-type="alpha" maskUnits="userSpaceOnUse" x="108" y="41" width="44" height="44">
<circle cx="130" cy="63" r="22" fill="#C4C4C4"/>
</mask>
<g mask="url(#mask0)">
<path d="M126.872 62.2277L123.568 64.5915L124.264 77.633L133.22 85.7025L138.351 68.993L134.872 57.8262L126.872 62.2277Z" fill="#E4E4E4" stroke="black" stroke-width="0.117247"/>
<path d="M141.133 69.4837L141.394 69.0762C141.452 69.4837 141.568 70.3966 141.568 70.7879C141.568 71.2769 140.959 73.3147 140.872 73.8852C140.785 74.4558 138.959 77.9607 138.351 79.1019C137.864 80.0148 135.945 82.5253 135.046 83.6664C135.655 82.7698 137.151 80.4875 138.264 78.5313C139.377 76.5751 140.64 71.6845 141.133 69.4837Z" stroke="black" stroke-width="0.117247"/>
<path d="M115.568 85.6195C116.403 84.3153 118.699 80.0225 119.742 78.0391C120.148 78.0391 121.325 78.1532 122.786 78.6096C124.246 79.0661 126.699 87.2225 127.742 91.2436L126.872 94.0965L123.417 92.0912C123.287 92.0159 123.141 91.9653 122.992 91.946C118.683 91.3861 118.218 93.1351 117.22 94.0965H113.655C111.742 92.1402 114.525 87.2497 115.568 85.6195Z" fill="#B4D2A9" stroke="black" stroke-width="0.117247"/>
<path d="M122.437 64.5888C122.271 64.6408 121.162 65.1594 120.872 65.4039C120.316 74.4678 127.945 81.57 131.829 83.9881L132.872 82.9285C130.09 82.3579 126.698 74.696 126.698 72.9843C126.698 71.6149 124.553 66.7081 123.481 64.4258C123.365 64.453 122.959 64.4258 122.437 64.5888Z" fill="#B4D2A9" stroke="black" stroke-width="0.117247"/>
<path d="M131.481 49.8357C128.698 46.9013 125.162 48.0153 123.742 48.9391C120.82 50.3083 121.539 54.8893 122.264 57.0087C122.901 58.6932 124.82 62.2416 127.394 62.9589C130.611 63.8555 132.325 63.271 133.742 61.2472C135.568 58.6389 134.959 53.5036 131.481 49.8357Z" fill="#E4E4E4" stroke="black" stroke-width="0.117247"/>
<path d="M146.872 67.4429C146.594 65.0955 142.872 64.1826 141.046 64.0195C138.727 69.3177 134.003 79.9954 134.003 79.9954C134.003 79.9954 133.046 82.8483 131.655 83.9079C130.542 84.7556 127.829 91.0807 126.611 94.1781L133.742 94.2596C133.858 93.7434 135.046 90.6732 135.829 89.2875C137.555 86.2313 144.524 74.4528 146.003 72.089C147.185 70.198 147.075 68.2037 146.872 67.4429Z" fill="#E4E4E4" stroke="black" stroke-width="0.117247"/>
<path d="M120.002 61.7379C117.498 57.369 118.003 51.4677 120.003 49.4299C121.307 47.6367 125.238 44.5883 130.525 46.7401C137.133 49.4299 138.698 55.3803 139.133 56.929C139.568 58.4777 140.09 62.5532 143.22 65.569C146.49 69.5467 143.481 76.4641 141.568 79.4257C142.539 77.3616 142.079 72.4057 141.66 69.7145C142.128 74.2907 136.594 82.4426 134.589 84.2591C134.567 84.2818 134.546 84.3009 134.525 84.3162C134.546 84.2979 134.567 84.2789 134.589 84.2591C135.761 83.0202 137.209 70.9236 136.612 69.563C136.194 70.4759 135.22 72.1713 133.394 73.883L134.525 68.5849C135.655 63.2867 134.438 53.4241 131.568 49.9192C130.628 48.7711 127.498 47.3762 125.481 48.289C123.597 48.8867 121.829 50.4897 121.829 53.9946C121.829 55.9509 122.525 57.255 122.872 58.1516C122.993 58.4623 125.22 61.7379 126.698 62.7162L128.351 66.1396C127.133 66.1396 122.09 64.4279 120.002 61.7379Z" fill="#313234"/>
<path d="M120.003 49.4299C118.003 51.4677 117.498 57.369 120.002 61.7379C122.09 64.4279 127.133 66.1396 128.351 66.1396L126.698 62.7162C125.22 61.7379 122.993 58.4623 122.872 58.1516C122.525 57.255 121.829 55.9509 121.829 53.9946C121.829 50.4897 123.597 48.8867 125.481 48.289C127.498 47.3762 130.628 48.7711 131.568 49.9192C134.438 53.4241 135.655 63.2867 134.525 68.5849L133.394 73.883C135.22 72.1713 136.194 70.4759 136.612 69.563C137.22 70.9487 135.707 83.4685 134.525 84.3162C136.554 82.5502 142.611 73.6385 141.568 69.1554C142.003 71.6551 142.611 77.2086 141.568 79.4257C143.481 76.4641 146.49 69.5467 143.22 65.569C140.09 62.5532 139.568 58.4777 139.133 56.929C138.698 55.3803 137.133 49.4299 130.525 46.7401C125.238 44.5883 121.307 47.6367 120.003 49.4299Z" stroke="black" stroke-width="0.117247"/>
<path d="M124.699 85.3742C122.892 82.5536 122.438 82.4398 118.351 75.267C116.055 70.7393 119.076 66.8053 120.873 65.4043C121.336 66.0292 122.647 67.9474 124.177 70.6209C125.708 73.2944 125.51 74.4519 125.221 74.6964C125.29 76.8483 129.597 81.6247 131.742 83.8255C131.22 84.4776 128.699 89.0421 127.655 91.4059C127.365 90.2104 125.221 86.1893 124.699 85.3742Z" fill="#E4E4E4" stroke="black" stroke-width="0.117247"/>
<path d="M122.959 79.0166C120.733 76.2126 118.901 71.4362 118.264 69.3984C117.481 70.0505 117.655 72.6588 117.829 73.6369C118.003 74.6151 118.785 75.7562 118.959 76.1637C119.133 76.5713 123.481 83.4181 124.177 84.3962C124.872 85.3743 125.742 87.086 125.916 87.4121C126.048 87.6596 127.162 89.9389 127.655 91.08L129.046 88.3087C127.945 86.3796 125.185 81.8205 122.959 79.0166Z" fill="#AFAFAF"/>
<path d="M128.525 66.2205L126.872 62.8786L128.698 63.3677C129.655 63.5307 130.525 63.4492 131.046 63.3677C133.046 62.8786 134.148 60.9496 134.611 59.7812C134.698 60.1888 134.872 64.6718 134.785 64.6718C134.959 66.9541 133.568 72.2522 133.481 72.9043C133.411 73.426 132.988 74.6975 132.785 75.2681C133.342 73.3119 127.626 67.7149 124.698 65.1609C126.003 65.976 127.829 66.1933 128.525 66.2205Z" fill="#AFAFAF"/>
<path d="M123.394 59.6996C122.264 58.3954 121.916 56.6837 121.916 55.7871C122.148 56.412 122.629 57.727 122.698 57.9879C122.785 58.3139 123.307 59.0475 124.177 60.1886C124.872 61.1015 126.09 62.3079 126.612 62.7969L126.698 63.0415C126.467 63.0143 126.003 62.9111 126.003 62.7154C126.003 62.4709 124.525 61.0037 123.394 59.6996Z" fill="black"/>
<path d="M136.878 52.8341C136.391 52.5081 136.496 52.8251 136.525 53.0153C136.785 53.5043 138.443 59.8441 138.53 60.3331C138.617 60.8222 139.574 62.0449 139.4 60.3331C139.226 58.6214 137.487 53.2417 136.878 52.8341Z" fill="#565656"/>
<path d="M136.437 68.9921C136.437 69.2529 134.524 72.0351 133.568 73.3936V73.5565C133.985 73.5565 135.742 71.2743 136.611 69.3995C136.582 69.155 136.437 68.7313 136.437 68.9921Z" fill="#19191B"/>
<path d="M126.003 87.9841C124.872 88.0656 121.597 84.452 120.003 82.4414C119.864 84.3976 124.872 89.5056 127.394 91.815L127.481 91.489V91.2445C127.481 90.9836 126.496 88.9622 126.003 87.9841Z" fill="#99B390"/>
<path d="M125.431 89.2713C124.607 89.5331 121.429 87.3715 119.831 86.1284C120.129 87.6369 124.903 90.6254 127.252 91.9311L127.25 91.6684L127.2 91.4829C127.146 91.285 125.998 89.926 125.431 89.2713Z" fill="#99B390"/>
<path d="M134.003 84.4786C134.351 84.2177 135.713 78.0665 136.351 75.0234C136.235 75.9744 136.003 77.9252 136.003 78.1208C136.003 78.3653 135.307 81.9518 134.959 83.1744C134.681 84.1525 134.206 84.4514 134.003 84.4786Z" fill="#AFAFAF"/>
<path d="M141.22 79.8339C141.777 78.3993 141.8 73.5305 141.742 71.2754C141.8 71.9818 141.916 73.4109 141.916 73.4762C141.916 73.5577 142.003 75.1879 142.003 75.5954C142.003 76.003 141.829 78.0407 141.742 78.5298C141.672 78.921 141.365 79.5622 141.22 79.8339Z" fill="#AFAFAF"/>
</g>
<path d="M47.2573 21.684C47.2573 22.444 46.9813 23.04 46.4293 23.472C45.8773 23.904 45.1213 24.12 44.1613 24.12C43.6973 24.12 43.2573 24.08 42.8413 24C42.4333 23.928 42.0853 23.82 41.7973 23.676V22.452C42.1173 22.596 42.4933 22.728 42.9253 22.848C43.3573 22.96 43.7973 23.016 44.2453 23.016C44.8213 23.016 45.2533 22.904 45.5413 22.68C45.8293 22.456 45.9733 22.156 45.9733 21.78C45.9733 21.516 45.9053 21.296 45.7693 21.12C45.6413 20.936 45.4373 20.768 45.1573 20.616C44.8773 20.464 44.5093 20.296 44.0533 20.112C43.6293 19.952 43.2533 19.764 42.9253 19.548C42.6053 19.332 42.3533 19.064 42.1693 18.744C41.9853 18.424 41.8933 18.032 41.8933 17.568C41.8933 16.864 42.1493 16.312 42.6613 15.912C43.1733 15.512 43.8453 15.312 44.6773 15.312C45.1413 15.312 45.5693 15.36 45.9613 15.456C46.3613 15.544 46.7413 15.668 47.1013 15.828L46.6933 16.896C46.3653 16.76 46.0293 16.648 45.6853 16.56C45.3493 16.472 45.0013 16.428 44.6413 16.428C44.1693 16.428 43.8093 16.532 43.5613 16.74C43.3133 16.948 43.1893 17.22 43.1893 17.556C43.1893 17.82 43.2493 18.044 43.3693 18.228C43.4893 18.404 43.6813 18.564 43.9453 18.708C44.2093 18.852 44.5573 19.012 44.9893 19.188C45.4693 19.38 45.8773 19.584 46.2133 19.8C46.5573 20.008 46.8173 20.264 46.9933 20.568C47.1693 20.864 47.2573 21.236 47.2573 21.684ZM51.3349 15.432C52.4549 15.432 53.2709 15.66 53.7829 16.116C54.2949 16.564 54.5509 17.192 54.5509 18C54.5509 18.48 54.4429 18.928 54.2269 19.344C54.0189 19.76 53.6669 20.1 53.1709 20.364C52.6749 20.62 52.0029 20.748 51.1549 20.748H50.2309V24H48.9349V15.432H51.3349ZM51.2389 16.524H50.2309V19.656H51.0109C51.7389 19.656 52.2869 19.532 52.6549 19.284C53.0309 19.036 53.2189 18.624 53.2189 18.048C53.2189 17.536 53.0589 17.156 52.7389 16.908C52.4189 16.652 51.9189 16.524 51.2389 16.524ZM62.9306 15.432V20.976C62.9306 21.568 62.8066 22.104 62.5586 22.584C62.3106 23.056 61.9346 23.432 61.4306 23.712C60.9346 23.984 60.3026 24.12 59.5346 24.12C58.4466 24.12 57.6186 23.832 57.0506 23.256C56.4906 22.672 56.2106 21.904 56.2106 20.952V15.432H57.5066V20.892C57.5066 22.308 58.2026 23.016 59.5946 23.016C60.3146 23.016 60.8346 22.824 61.1546 22.44C61.4826 22.056 61.6466 21.536 61.6466 20.88V15.432H62.9306ZM72.078 19.632C72.078 21.08 71.678 22.172 70.878 22.908C70.086 23.636 68.974 24 67.542 24H65.142V15.432H67.794C68.666 15.432 69.422 15.592 70.062 15.912C70.702 16.232 71.198 16.704 71.55 17.328C71.902 17.944 72.078 18.712 72.078 19.632ZM70.722 19.668C70.722 18.588 70.458 17.796 69.93 17.292C69.41 16.78 68.67 16.524 67.71 16.524H66.438V22.908H67.482C69.642 22.908 70.722 21.828 70.722 19.668Z" fill="#141414"/>
<path d="M85.7825 21.2552L86.8319 22.2986C87.182 21.9496 87.5978 21.6727 88.0556 21.4838C88.5135 21.2949 89.0043 21.1977 89.5 21.1977C89.9957 21.1977 90.4865 21.2949 90.9444 21.4838C91.4022 21.6727 91.818 21.9496 92.1681 22.2986L93.2175 21.2552C92.7294 20.7696 92.1499 20.3844 91.512 20.1217C90.8741 19.8589 90.1905 19.7236 89.5 19.7236C88.8096 19.7236 88.1259 19.8589 87.488 20.1217C86.8501 20.3844 86.2706 20.7696 85.7825 21.2552V21.2552ZM83.3924 18.8787L84.4418 19.9221C85.1054 19.2605 85.8937 18.7355 86.7617 18.3773C87.6297 18.0191 88.5602 17.8347 89.5 17.8347C90.4398 17.8347 91.3703 18.0191 92.2383 18.3773C93.1063 18.7355 93.8946 19.2605 94.5582 19.9221L95.6093 18.877C94.8072 18.0794 93.8549 17.4467 92.8069 17.0151C91.7588 16.5834 90.6355 16.3612 89.5011 16.3612C88.3667 16.3612 87.2434 16.5834 86.1953 17.0151C85.1473 17.4467 84.195 18.0794 83.3929 18.877L83.3924 18.8787ZM89.5 13C87.9211 12.998 86.3573 13.3062 84.8985 13.9071C83.4398 14.5079 82.1149 15.3895 81 16.5011L82.0517 17.5468C83.0289 16.5727 84.1898 15.7999 85.468 15.2726C86.7461 14.7453 88.1162 14.4739 89.5 14.4739C90.8838 14.4739 92.2539 14.7453 93.532 15.2726C94.8102 15.7999 95.9711 16.5727 96.9483 17.5468L98 16.5011C96.8851 15.3895 95.5602 14.5079 94.1015 13.9071C92.6427 13.3062 91.0789 12.998 89.5 13V13ZM89.5 22.7894C89.2801 22.7894 89.0652 22.8542 88.8824 22.9756C88.6996 23.0971 88.5571 23.2697 88.4729 23.4717C88.3888 23.6737 88.3668 23.8959 88.4097 24.1103C88.4526 24.3247 88.5584 24.5217 88.7139 24.6763C88.8694 24.8309 89.0675 24.9361 89.2831 24.9788C89.4988 25.0214 89.7223 24.9995 89.9254 24.9159C90.1286 24.8322 90.3022 24.6905 90.4243 24.5088C90.5465 24.327 90.6117 24.1133 90.6117 23.8947C90.6117 23.6015 90.4946 23.3204 90.2861 23.1131C90.0776 22.9058 89.7948 22.7894 89.5 22.7894V22.7894Z" fill="#141414"/>
</svg>
