<svg width="596" height="280" viewBox="0 0 596 280" fill="none" xmlns="http://www.w3.org/2000/svg">
<rect x="9" y="10" width="587" height="195" rx="50" fill="#141414"/>
<rect x="1.5" y="1.5" width="584" height="192" rx="48.5" fill="#52BDF9" stroke="#141414" stroke-width="3"/>
<path d="M110.92 116.08C110.92 118.613 110 120.64 108.16 122.16C106.347 123.653 103.76 124.4 100.4 124.4C97.3871 124.4 94.6938 123.827 92.3205 122.68V117.04C93.6805 117.627 95.0805 118.173 96.5205 118.68C97.9871 119.16 99.4405 119.4 100.88 119.4C102.374 119.4 103.427 119.12 104.04 118.56C104.68 117.973 105 117.24 105 116.36C105 115.64 104.747 115.027 104.24 114.52C103.76 114.013 103.107 113.547 102.28 113.12C101.454 112.667 100.507 112.187 99.4405 111.68C98.7738 111.36 98.0538 110.987 97.2805 110.56C96.5071 110.107 95.7605 109.56 95.0405 108.92C94.3471 108.253 93.7738 107.453 93.3205 106.52C92.8671 105.587 92.6405 104.467 92.6405 103.16C92.6405 100.6 93.5071 98.6133 95.2405 97.2C96.9738 95.76 99.3338 95.04 102.32 95.04C103.814 95.04 105.227 95.2133 106.56 95.56C107.92 95.9067 109.334 96.4 110.8 97.04L108.84 101.76C107.534 101.227 106.36 100.813 105.32 100.52C104.28 100.227 103.214 100.08 102.12 100.08C100.974 100.08 100.094 100.347 99.4805 100.88C98.8671 101.413 98.5605 102.107 98.5605 102.96C98.5605 103.973 99.0138 104.773 99.9205 105.36C100.827 105.947 102.174 106.667 103.96 107.52C105.427 108.213 106.667 108.933 107.68 109.68C108.72 110.427 109.52 111.307 110.08 112.32C110.64 113.333 110.92 114.587 110.92 116.08ZM124.592 101.72C127.525 101.72 129.765 102.36 131.312 103.64C132.885 104.893 133.672 106.827 133.672 109.44V124H129.512L128.352 121.04H128.192C127.258 122.213 126.272 123.067 125.232 123.6C124.192 124.133 122.765 124.4 120.952 124.4C119.005 124.4 117.392 123.84 116.112 122.72C114.832 121.573 114.192 119.827 114.192 117.48C114.192 115.16 115.005 113.453 116.632 112.36C118.258 111.24 120.698 110.627 123.952 110.52L127.752 110.4V109.44C127.752 108.293 127.445 107.453 126.832 106.92C126.245 106.387 125.418 106.12 124.352 106.12C123.285 106.12 122.245 106.28 121.232 106.6C120.218 106.893 119.205 107.267 118.192 107.72L116.232 103.68C117.405 103.067 118.698 102.587 120.112 102.24C121.552 101.893 123.045 101.72 124.592 101.72ZM127.752 113.88L125.432 113.96C123.512 114.013 122.178 114.36 121.432 115C120.685 115.64 120.312 116.48 120.312 117.52C120.312 118.427 120.578 119.08 121.112 119.48C121.645 119.853 122.338 120.04 123.192 120.04C124.472 120.04 125.552 119.667 126.432 118.92C127.312 118.147 127.752 117.067 127.752 115.68V113.88ZM136.652 102.16H143.172L147.292 114.44C147.506 115.027 147.666 115.64 147.772 116.28C147.879 116.893 147.959 117.547 148.012 118.24H148.132C148.212 117.547 148.319 116.893 148.452 116.28C148.612 115.64 148.786 115.027 148.972 114.44L153.012 102.16H159.412L150.172 126.8C149.346 129.067 148.132 130.76 146.532 131.88C144.959 133.027 143.132 133.6 141.052 133.6C140.386 133.6 139.799 133.56 139.292 133.48C138.812 133.427 138.386 133.36 138.012 133.28V128.56C138.306 128.613 138.652 128.667 139.052 128.72C139.479 128.773 139.919 128.8 140.372 128.8C141.626 128.8 142.612 128.413 143.332 127.64C144.079 126.893 144.626 125.987 144.972 124.92L145.332 123.84L136.652 102.16ZM185.096 101.76C187.55 101.76 189.536 102.72 191.056 104.64C192.576 106.533 193.336 109.333 193.336 113.04C193.336 116.747 192.55 119.573 190.976 121.52C189.403 123.44 187.39 124.4 184.936 124.4C183.363 124.4 182.11 124.12 181.176 123.56C180.243 122.973 179.483 122.32 178.896 121.6H178.576C178.79 122.72 178.896 123.787 178.896 124.8V133.6H172.936V102.16H177.776L178.616 105H178.896C179.483 104.12 180.27 103.36 181.256 102.72C182.243 102.08 183.523 101.76 185.096 101.76ZM183.176 106.52C181.63 106.52 180.536 107 179.896 107.96C179.283 108.92 178.95 110.387 178.896 112.36V113C178.896 115.107 179.203 116.733 179.816 117.88C180.456 119 181.603 119.56 183.256 119.56C184.616 119.56 185.616 119 186.256 117.88C186.923 116.733 187.256 115.093 187.256 112.96C187.256 108.667 185.896 106.52 183.176 106.52ZM218.089 113.04C218.089 116.667 217.129 119.467 215.209 121.44C213.316 123.413 210.729 124.4 207.449 124.4C205.422 124.4 203.609 123.96 202.009 123.08C200.436 122.2 199.196 120.92 198.289 119.24C197.382 117.533 196.929 115.467 196.929 113.04C196.929 109.413 197.876 106.627 199.769 104.68C201.662 102.733 204.262 101.76 207.569 101.76C209.622 101.76 211.436 102.2 213.009 103.08C214.582 103.96 215.822 105.24 216.729 106.92C217.636 108.573 218.089 110.613 218.089 113.04ZM203.009 113.04C203.009 115.2 203.356 116.84 204.049 117.96C204.769 119.053 205.929 119.6 207.529 119.6C209.102 119.6 210.236 119.053 210.929 117.96C211.649 116.84 212.009 115.2 212.009 113.04C212.009 110.88 211.649 109.267 210.929 108.2C210.236 107.107 209.089 106.56 207.489 106.56C205.916 106.56 204.769 107.107 204.049 108.2C203.356 109.267 203.009 110.88 203.009 113.04ZM232.215 119.64C232.881 119.64 233.521 119.573 234.135 119.44C234.748 119.307 235.361 119.147 235.975 118.96V123.4C235.335 123.667 234.535 123.893 233.575 124.08C232.641 124.293 231.615 124.4 230.495 124.4C229.188 124.4 228.015 124.187 226.975 123.76C225.961 123.333 225.148 122.6 224.535 121.56C223.948 120.493 223.655 119.027 223.655 117.16V106.64H220.815V104.12L224.095 102.12L225.815 97.52H229.615V102.16H235.735V106.64H229.615V117.16C229.615 117.987 229.855 118.613 230.335 119.04C230.815 119.44 231.441 119.64 232.215 119.64ZM249.318 101.72C252.252 101.72 254.492 102.36 256.038 103.64C257.612 104.893 258.398 106.827 258.398 109.44V124H254.238L253.078 121.04H252.918C251.985 122.213 250.998 123.067 249.958 123.6C248.918 124.133 247.492 124.4 245.678 124.4C243.732 124.4 242.118 123.84 240.838 122.72C239.558 121.573 238.918 119.827 238.918 117.48C238.918 115.16 239.732 113.453 241.358 112.36C242.985 111.24 245.425 110.627 248.678 110.52L252.478 110.4V109.44C252.478 108.293 252.172 107.453 251.558 106.92C250.972 106.387 250.145 106.12 249.078 106.12C248.012 106.12 246.972 106.28 245.958 106.6C244.945 106.893 243.932 107.267 242.918 107.72L240.958 103.68C242.132 103.067 243.425 102.587 244.838 102.24C246.278 101.893 247.772 101.72 249.318 101.72ZM252.478 113.88L250.158 113.96C248.238 114.013 246.905 114.36 246.158 115C245.412 115.64 245.038 116.48 245.038 117.52C245.038 118.427 245.305 119.08 245.838 119.48C246.372 119.853 247.065 120.04 247.918 120.04C249.198 120.04 250.278 119.667 251.158 118.92C252.038 118.147 252.478 117.067 252.478 115.68V113.88ZM273.699 119.64C274.366 119.64 275.006 119.573 275.619 119.44C276.232 119.307 276.846 119.147 277.459 118.96V123.4C276.819 123.667 276.019 123.893 275.059 124.08C274.126 124.293 273.099 124.4 271.979 124.4C270.672 124.4 269.499 124.187 268.459 123.76C267.446 123.333 266.632 122.6 266.019 121.56C265.432 120.493 265.139 119.027 265.139 117.16V106.64H262.299V104.12L265.579 102.12L267.299 97.52H271.099V102.16H277.219V106.64H271.099V117.16C271.099 117.987 271.339 118.613 271.819 119.04C272.299 119.44 272.926 119.64 273.699 119.64ZM301.683 113.04C301.683 116.667 300.723 119.467 298.803 121.44C296.909 123.413 294.323 124.4 291.043 124.4C289.016 124.4 287.203 123.96 285.603 123.08C284.029 122.2 282.789 120.92 281.883 119.24C280.976 117.533 280.523 115.467 280.523 113.04C280.523 109.413 281.469 106.627 283.363 104.68C285.256 102.733 287.856 101.76 291.163 101.76C293.216 101.76 295.029 102.2 296.603 103.08C298.176 103.96 299.416 105.24 300.323 106.92C301.229 108.573 301.683 110.613 301.683 113.04ZM286.603 113.04C286.603 115.2 286.949 116.84 287.643 117.96C288.363 119.053 289.523 119.6 291.123 119.6C292.696 119.6 293.829 119.053 294.523 117.96C295.243 116.84 295.603 115.2 295.603 113.04C295.603 110.88 295.243 109.267 294.523 108.2C293.829 107.107 292.683 106.56 291.083 106.56C289.509 106.56 288.363 107.107 287.643 108.2C286.949 109.267 286.603 110.88 286.603 113.04ZM319.999 93.6C320.879 93.6 321.639 93.8133 322.279 94.24C322.919 94.64 323.239 95.4 323.239 96.52C323.239 97.6133 322.919 98.3733 322.279 98.8C321.639 99.2267 320.879 99.44 319.999 99.44C319.092 99.44 318.319 99.2267 317.679 98.8C317.066 98.3733 316.759 97.6133 316.759 96.52C316.759 95.4 317.066 94.64 317.679 94.24C318.319 93.8133 319.092 93.6 319.999 93.6ZM322.959 102.16V124H316.999V102.16H322.959ZM341.266 106.64H336.106V124H330.146V106.64H326.866V103.76L330.146 102.16V100.56C330.146 98.6933 330.453 97.2533 331.066 96.24C331.706 95.2 332.6 94.4667 333.746 94.04C334.92 93.6133 336.293 93.4 337.866 93.4C339.04 93.4 340.093 93.4933 341.026 93.68C341.986 93.8667 342.76 94.08 343.346 94.32L341.826 98.68C341.373 98.5467 340.88 98.4267 340.346 98.32C339.813 98.1867 339.2 98.12 338.506 98.12C337.68 98.12 337.066 98.3733 336.666 98.88C336.293 99.3867 336.106 100.027 336.106 100.8V102.16H341.266V106.64ZM375.086 102.16V124H370.526L369.726 121.2H369.406C368.712 122.32 367.752 123.133 366.526 123.64C365.326 124.147 364.046 124.4 362.686 124.4C360.339 124.4 358.459 123.773 357.046 122.52C355.632 121.24 354.926 119.2 354.926 116.4V102.16H360.886V114.92C360.886 116.467 361.166 117.64 361.726 118.44C362.286 119.24 363.179 119.64 364.406 119.64C366.219 119.64 367.459 119.027 368.126 117.8C368.792 116.547 369.126 114.76 369.126 112.44V102.16H375.086ZM393.535 101.76C393.828 101.76 394.175 101.773 394.575 101.8C394.975 101.827 395.295 101.867 395.535 101.92L395.095 107.52C394.908 107.467 394.628 107.427 394.255 107.4C393.908 107.347 393.602 107.32 393.335 107.32C392.322 107.32 391.348 107.507 390.415 107.88C389.482 108.227 388.722 108.8 388.135 109.6C387.575 110.4 387.295 111.493 387.295 112.88V124H381.335V102.16H385.855L386.735 105.84H387.015C387.655 104.72 388.535 103.76 389.655 102.96C390.775 102.16 392.068 101.76 393.535 101.76ZM422.09 101.76C422.383 101.76 422.73 101.773 423.13 101.8C423.53 101.827 423.85 101.867 424.09 101.92L423.65 107.52C423.463 107.467 423.183 107.427 422.81 107.4C422.463 107.347 422.156 107.32 421.89 107.32C420.876 107.32 419.903 107.507 418.97 107.88C418.036 108.227 417.276 108.8 416.69 109.6C416.13 110.4 415.85 111.493 415.85 112.88V124H409.89V102.16H414.41L415.29 105.84H415.57C416.21 104.72 417.09 103.76 418.21 102.96C419.33 102.16 420.623 101.76 422.09 101.76ZM436.272 101.76C439.286 101.76 441.672 102.627 443.432 104.36C445.192 106.067 446.072 108.507 446.072 111.68V114.56H431.992C432.046 116.24 432.539 117.56 433.472 118.52C434.432 119.48 435.752 119.96 437.432 119.96C438.846 119.96 440.126 119.827 441.272 119.56C442.419 119.267 443.606 118.827 444.832 118.24V122.84C443.766 123.373 442.632 123.76 441.432 124C440.259 124.267 438.832 124.4 437.152 124.4C434.966 124.4 433.032 124 431.352 123.2C429.672 122.373 428.352 121.133 427.392 119.48C426.432 117.827 425.952 115.747 425.952 113.24C425.952 110.68 426.379 108.56 427.232 106.88C428.112 105.173 429.326 103.893 430.872 103.04C432.419 102.187 434.219 101.76 436.272 101.76ZM436.312 106C435.166 106 434.206 106.373 433.432 107.12C432.686 107.867 432.246 109.027 432.112 110.6H440.472C440.446 109.267 440.099 108.173 439.432 107.32C438.766 106.44 437.726 106 436.312 106ZM459.865 101.72C462.798 101.72 465.038 102.36 466.585 103.64C468.158 104.893 468.945 106.827 468.945 109.44V124H464.785L463.625 121.04H463.465C462.532 122.213 461.545 123.067 460.505 123.6C459.465 124.133 458.038 124.4 456.225 124.4C454.278 124.4 452.665 123.84 451.385 122.72C450.105 121.573 449.465 119.827 449.465 117.48C449.465 115.16 450.278 113.453 451.905 112.36C453.532 111.24 455.972 110.627 459.225 110.52L463.025 110.4V109.44C463.025 108.293 462.718 107.453 462.105 106.92C461.518 106.387 460.692 106.12 459.625 106.12C458.558 106.12 457.518 106.28 456.505 106.6C455.492 106.893 454.478 107.267 453.465 107.72L451.505 103.68C452.678 103.067 453.972 102.587 455.385 102.24C456.825 101.893 458.318 101.72 459.865 101.72ZM463.025 113.88L460.705 113.96C458.785 114.013 457.452 114.36 456.705 115C455.958 115.64 455.585 116.48 455.585 117.52C455.585 118.427 455.852 119.08 456.385 119.48C456.918 119.853 457.612 120.04 458.465 120.04C459.745 120.04 460.825 119.667 461.705 118.92C462.585 118.147 463.025 117.067 463.025 115.68V113.88ZM481.006 124H475.046V93.6H481.006V124ZM486.393 105.08C486.393 103.853 486.727 103 487.393 102.52C488.06 102.013 488.873 101.76 489.833 101.76C490.767 101.76 491.567 102.013 492.233 102.52C492.9 103 493.233 103.853 493.233 105.08C493.233 106.253 492.9 107.107 492.233 107.64C491.567 108.147 490.767 108.4 489.833 108.4C488.873 108.4 488.06 108.147 487.393 107.64C486.727 107.107 486.393 106.253 486.393 105.08ZM486.393 121.2C486.393 119.973 486.727 119.12 487.393 118.64C488.06 118.133 488.873 117.88 489.833 117.88C490.767 117.88 491.567 118.133 492.233 118.64C492.9 119.12 493.233 119.973 493.233 121.2C493.233 122.373 492.9 123.227 492.233 123.76C491.567 124.267 490.767 124.52 489.833 124.52C488.873 124.52 488.06 124.267 487.393 123.76C486.727 123.227 486.393 122.373 486.393 121.2Z" fill="#333333"/>
<path d="M33.8175 258.408C33.8175 260.184 33.5215 261.736 32.9295 263.064C32.3535 264.376 31.4655 265.4 30.2655 266.136C29.0655 266.872 27.5295 267.24 25.6575 267.24C23.8015 267.24 22.2655 266.872 21.0495 266.136C19.8495 265.4 18.9535 264.368 18.3615 263.04C17.7855 261.712 17.4975 260.16 17.4975 258.384C17.4975 256.608 17.7855 255.064 18.3615 253.752C18.9535 252.44 19.8495 251.424 21.0495 250.704C22.2655 249.968 23.8095 249.6 25.6815 249.6C27.5375 249.6 29.0655 249.968 30.2655 250.704C31.4655 251.424 32.3535 252.448 32.9295 253.776C33.5215 255.088 33.8175 256.632 33.8175 258.408ZM21.3135 258.408C21.3135 260.2 21.6575 261.616 22.3455 262.656C23.0335 263.68 24.1375 264.192 25.6575 264.192C27.2095 264.192 28.3215 263.68 28.9935 262.656C29.6655 261.616 30.0015 260.2 30.0015 258.408C30.0015 256.6 29.6655 255.184 28.9935 254.16C28.3215 253.136 27.2175 252.624 25.6815 252.624C24.1455 252.624 23.0335 253.136 22.3455 254.16C21.6575 255.184 21.3135 256.6 21.3135 258.408ZM44.519 253.656C45.927 253.656 47.055 254.04 47.903 254.808C48.751 255.56 49.175 256.776 49.175 258.456V267H45.599V259.344C45.599 258.4 45.431 257.696 45.095 257.232C44.759 256.752 44.223 256.512 43.487 256.512C42.399 256.512 41.655 256.888 41.255 257.64C40.855 258.376 40.655 259.44 40.655 260.832V267H37.079V253.896H39.815L40.295 255.576H40.487C40.903 254.904 41.471 254.416 42.191 254.112C42.927 253.808 43.703 253.656 44.519 253.656ZM56.4285 267H52.8525V248.76H56.4285V267ZM61.965 248.76C62.493 248.76 62.949 248.888 63.333 249.144C63.717 249.384 63.909 249.84 63.909 250.512C63.909 251.168 63.717 251.624 63.333 251.88C62.949 252.136 62.493 252.264 61.965 252.264C61.421 252.264 60.957 252.136 60.573 251.88C60.205 251.624 60.021 251.168 60.021 250.512C60.021 249.84 60.205 249.384 60.573 249.144C60.957 248.888 61.421 248.76 61.965 248.76ZM63.741 253.896V267H60.165V253.896H63.741ZM74.9175 253.656C76.3255 253.656 77.4535 254.04 78.3015 254.808C79.1495 255.56 79.5735 256.776 79.5735 258.456V267H75.9975V259.344C75.9975 258.4 75.8295 257.696 75.4935 257.232C75.1575 256.752 74.6215 256.512 73.8855 256.512C72.7975 256.512 72.0535 256.888 71.6535 257.64C71.2535 258.376 71.0535 259.44 71.0535 260.832V267H67.4775V253.896H70.2135L70.6935 255.576H70.8855C71.3015 254.904 71.8695 254.416 72.5895 254.112C73.3255 253.808 74.1015 253.656 74.9175 253.656ZM88.6509 253.656C90.4589 253.656 91.8909 254.176 92.9469 255.216C94.0029 256.24 94.5309 257.704 94.5309 259.608V261.336H86.0829C86.1149 262.344 86.4109 263.136 86.9709 263.712C87.5469 264.288 88.3389 264.576 89.3469 264.576C90.1949 264.576 90.9629 264.496 91.6509 264.336C92.3389 264.16 93.0509 263.896 93.7869 263.544V266.304C93.1469 266.624 92.4669 266.856 91.7469 267C91.0429 267.16 90.1869 267.24 89.1789 267.24C87.8669 267.24 86.7069 267 85.6989 266.52C84.6909 266.024 83.8989 265.28 83.3229 264.288C82.7469 263.296 82.4589 262.048 82.4589 260.544C82.4589 259.008 82.7149 257.736 83.2269 256.728C83.7549 255.704 84.4829 254.936 85.4109 254.424C86.3389 253.912 87.4189 253.656 88.6509 253.656ZM88.6749 256.2C87.9869 256.2 87.4109 256.424 86.9469 256.872C86.4989 257.32 86.2349 258.016 86.1549 258.96H91.1709C91.1549 258.16 90.9469 257.504 90.5469 256.992C90.1469 256.464 89.5229 256.2 88.6749 256.2ZM108.945 249.864C111.281 249.864 113.001 250.288 114.105 251.136C115.225 251.984 115.785 253.272 115.785 255C115.785 255.784 115.633 256.472 115.329 257.064C115.041 257.64 114.649 258.136 114.153 258.552C113.673 258.952 113.153 259.28 112.593 259.536L117.633 267H113.601L109.521 260.424H107.577V267H103.953V249.864H108.945ZM108.681 252.84H107.577V257.472H108.753C109.953 257.472 110.809 257.272 111.321 256.872C111.849 256.472 112.113 255.88 112.113 255.096C112.113 254.28 111.833 253.704 111.273 253.368C110.729 253.016 109.865 252.84 108.681 252.84ZM131.413 260.424C131.413 262.6 130.837 264.28 129.685 265.464C128.549 266.648 126.997 267.24 125.029 267.24C123.813 267.24 122.725 266.976 121.765 266.448C120.821 265.92 120.077 265.152 119.533 264.144C118.989 263.12 118.717 261.88 118.717 260.424C118.717 258.248 119.285 256.576 120.421 255.408C121.557 254.24 123.117 253.656 125.101 253.656C126.333 253.656 127.421 253.92 128.365 254.448C129.309 254.976 130.053 255.744 130.597 256.752C131.141 257.744 131.413 258.968 131.413 260.424ZM122.365 260.424C122.365 261.72 122.573 262.704 122.989 263.376C123.421 264.032 124.117 264.36 125.077 264.36C126.021 264.36 126.701 264.032 127.117 263.376C127.549 262.704 127.765 261.72 127.765 260.424C127.765 259.128 127.549 258.16 127.117 257.52C126.701 256.864 126.013 256.536 125.053 256.536C124.109 256.536 123.421 256.864 122.989 257.52C122.573 258.16 122.365 259.128 122.365 260.424ZM149.752 253.656C151.24 253.656 152.36 254.04 153.112 254.808C153.88 255.56 154.264 256.776 154.264 258.456V267H150.688V259.344C150.688 257.456 150.032 256.512 148.72 256.512C147.776 256.512 147.104 256.848 146.704 257.52C146.304 258.192 146.104 259.16 146.104 260.424V267H142.528V259.344C142.528 257.456 141.872 256.512 140.56 256.512C139.568 256.512 138.88 256.888 138.496 257.64C138.128 258.376 137.944 259.44 137.944 260.832V267H134.368V253.896H137.104L137.584 255.576H137.776C138.176 254.904 138.72 254.416 139.408 254.112C140.112 253.808 140.84 253.656 141.592 253.656C142.552 253.656 143.368 253.816 144.04 254.136C144.712 254.44 145.224 254.92 145.576 255.576H145.888C146.288 254.904 146.84 254.416 147.544 254.112C148.264 253.808 149 253.656 149.752 253.656ZM163.322 253.632C165.082 253.632 166.426 254.016 167.354 254.784C168.298 255.536 168.77 256.696 168.77 258.264V267H166.274L165.578 265.224H165.482C164.922 265.928 164.33 266.44 163.706 266.76C163.082 267.08 162.226 267.24 161.138 267.24C159.97 267.24 159.002 266.904 158.234 266.232C157.466 265.544 157.082 264.496 157.082 263.088C157.082 261.696 157.57 260.672 158.546 260.016C159.522 259.344 160.986 258.976 162.938 258.912L165.218 258.84V258.264C165.218 257.576 165.034 257.072 164.666 256.752C164.314 256.432 163.818 256.272 163.178 256.272C162.538 256.272 161.914 256.368 161.306 256.56C160.698 256.736 160.09 256.96 159.482 257.232L158.306 254.808C159.01 254.44 159.786 254.152 160.634 253.944C161.498 253.736 162.394 253.632 163.322 253.632ZM165.218 260.928L163.826 260.976C162.674 261.008 161.874 261.216 161.426 261.6C160.978 261.984 160.754 262.488 160.754 263.112C160.754 263.656 160.914 264.048 161.234 264.288C161.554 264.512 161.97 264.624 162.482 264.624C163.25 264.624 163.898 264.4 164.426 263.952C164.954 263.488 165.218 262.84 165.218 262.008V260.928ZM179.871 253.656C181.279 253.656 182.407 254.04 183.255 254.808C184.103 255.56 184.527 256.776 184.527 258.456V267H180.951V259.344C180.951 258.4 180.783 257.696 180.447 257.232C180.111 256.752 179.575 256.512 178.839 256.512C177.751 256.512 177.007 256.888 176.607 257.64C176.207 258.376 176.007 259.44 176.007 260.832V267H172.431V253.896H175.167L175.647 255.576H175.839C176.255 254.904 176.823 254.416 177.543 254.112C178.279 253.808 179.055 253.656 179.871 253.656ZM193.532 267.24C191.58 267.24 190.068 266.704 188.996 265.632C187.94 264.544 187.412 262.84 187.412 260.52C187.412 258.92 187.684 257.616 188.228 256.608C188.772 255.6 189.524 254.856 190.484 254.376C191.46 253.896 192.58 253.656 193.844 253.656C194.74 253.656 195.516 253.744 196.172 253.92C196.844 254.096 197.428 254.304 197.924 254.544L196.868 257.304C196.308 257.08 195.78 256.896 195.284 256.752C194.804 256.608 194.324 256.536 193.844 256.536C191.988 256.536 191.06 257.856 191.06 260.496C191.06 261.808 191.3 262.776 191.78 263.4C192.276 264.024 192.964 264.336 193.844 264.336C194.596 264.336 195.26 264.24 195.836 264.048C196.412 263.84 196.972 263.56 197.516 263.208V266.256C196.972 266.608 196.396 266.856 195.788 267C195.196 267.16 194.444 267.24 193.532 267.24ZM205.932 253.656C207.74 253.656 209.172 254.176 210.228 255.216C211.284 256.24 211.812 257.704 211.812 259.608V261.336H203.364C203.396 262.344 203.692 263.136 204.252 263.712C204.828 264.288 205.62 264.576 206.628 264.576C207.476 264.576 208.244 264.496 208.932 264.336C209.62 264.16 210.332 263.896 211.068 263.544V266.304C210.428 266.624 209.748 266.856 209.028 267C208.324 267.16 207.468 267.24 206.46 267.24C205.148 267.24 203.988 267 202.98 266.52C201.972 266.024 201.18 265.28 200.604 264.288C200.028 263.296 199.74 262.048 199.74 260.544C199.74 259.008 199.996 257.736 200.508 256.728C201.036 255.704 201.764 254.936 202.692 254.424C203.62 253.912 204.7 253.656 205.932 253.656ZM205.956 256.2C205.268 256.2 204.692 256.424 204.228 256.872C203.78 257.32 203.516 258.016 203.436 258.96H208.452C208.436 258.16 208.228 257.504 207.828 256.992C207.428 256.464 206.804 256.2 205.956 256.2ZM231.338 262.248C231.338 263.768 230.786 264.984 229.682 265.896C228.594 266.792 227.042 267.24 225.026 267.24C223.218 267.24 221.602 266.896 220.178 266.208V262.824C220.994 263.176 221.834 263.504 222.698 263.808C223.578 264.096 224.45 264.24 225.314 264.24C226.21 264.24 226.842 264.072 227.21 263.736C227.594 263.384 227.786 262.944 227.786 262.416C227.786 261.984 227.634 261.616 227.33 261.312C227.042 261.008 226.65 260.728 226.154 260.472C225.658 260.2 225.09 259.912 224.45 259.608C224.05 259.416 223.618 259.192 223.154 258.936C222.69 258.664 222.242 258.336 221.81 257.952C221.394 257.552 221.05 257.072 220.778 256.512C220.506 255.952 220.37 255.28 220.37 254.496C220.37 252.96 220.89 251.768 221.93 250.92C222.97 250.056 224.386 249.624 226.178 249.624C227.074 249.624 227.922 249.728 228.722 249.936C229.538 250.144 230.386 250.44 231.266 250.824L230.09 253.656C229.306 253.336 228.602 253.088 227.978 252.912C227.354 252.736 226.714 252.648 226.058 252.648C225.37 252.648 224.842 252.808 224.474 253.128C224.106 253.448 223.922 253.864 223.922 254.376C223.922 254.984 224.194 255.464 224.738 255.816C225.282 256.168 226.09 256.6 227.162 257.112C228.042 257.528 228.786 257.96 229.394 258.408C230.018 258.856 230.498 259.384 230.834 259.992C231.17 260.6 231.338 261.352 231.338 262.248ZM239.493 267.24C237.541 267.24 236.029 266.704 234.957 265.632C233.901 264.544 233.373 262.84 233.373 260.52C233.373 258.92 233.645 257.616 234.189 256.608C234.733 255.6 235.485 254.856 236.445 254.376C237.421 253.896 238.541 253.656 239.805 253.656C240.701 253.656 241.477 253.744 242.133 253.92C242.805 254.096 243.389 254.304 243.885 254.544L242.829 257.304C242.269 257.08 241.741 256.896 241.245 256.752C240.765 256.608 240.285 256.536 239.805 256.536C237.949 256.536 237.021 257.856 237.021 260.496C237.021 261.808 237.261 262.776 237.741 263.4C238.237 264.024 238.925 264.336 239.805 264.336C240.557 264.336 241.221 264.24 241.797 264.048C242.373 263.84 242.933 263.56 243.477 263.208V266.256C242.933 266.608 242.357 266.856 241.749 267C241.157 267.16 240.405 267.24 239.493 267.24ZM251.869 253.632C253.629 253.632 254.973 254.016 255.901 254.784C256.845 255.536 257.317 256.696 257.317 258.264V267H254.821L254.125 265.224H254.029C253.469 265.928 252.877 266.44 252.253 266.76C251.629 267.08 250.773 267.24 249.685 267.24C248.517 267.24 247.549 266.904 246.781 266.232C246.013 265.544 245.629 264.496 245.629 263.088C245.629 261.696 246.117 260.672 247.093 260.016C248.069 259.344 249.533 258.976 251.485 258.912L253.765 258.84V258.264C253.765 257.576 253.581 257.072 253.213 256.752C252.861 256.432 252.365 256.272 251.725 256.272C251.085 256.272 250.461 256.368 249.853 256.56C249.245 256.736 248.637 256.96 248.029 257.232L246.853 254.808C247.557 254.44 248.333 254.152 249.181 253.944C250.045 253.736 250.941 253.632 251.869 253.632ZM253.765 260.928L252.373 260.976C251.221 261.008 250.421 261.216 249.973 261.6C249.525 261.984 249.301 262.488 249.301 263.112C249.301 263.656 249.461 264.048 249.781 264.288C250.101 264.512 250.517 264.624 251.029 264.624C251.797 264.624 252.445 264.4 252.973 263.952C253.501 263.488 253.765 262.84 253.765 262.008V260.928ZM276.361 253.656C277.849 253.656 278.969 254.04 279.721 254.808C280.489 255.56 280.873 256.776 280.873 258.456V267H277.297V259.344C277.297 257.456 276.641 256.512 275.329 256.512C274.385 256.512 273.713 256.848 273.313 257.52C272.913 258.192 272.713 259.16 272.713 260.424V267H269.137V259.344C269.137 257.456 268.481 256.512 267.169 256.512C266.177 256.512 265.489 256.888 265.105 257.64C264.737 258.376 264.553 259.44 264.553 260.832V267H260.977V253.896H263.713L264.193 255.576H264.385C264.785 254.904 265.329 254.416 266.017 254.112C266.721 253.808 267.449 253.656 268.201 253.656C269.161 253.656 269.977 253.816 270.649 254.136C271.321 254.44 271.833 254.92 272.185 255.576H272.497C272.897 254.904 273.449 254.416 274.153 254.112C274.873 253.808 275.609 253.656 276.361 253.656ZM293.7 263.112C293.7 264.44 293.228 265.464 292.284 266.184C291.356 266.888 289.964 267.24 288.108 267.24C287.196 267.24 286.412 267.176 285.756 267.048C285.1 266.936 284.444 266.744 283.788 266.472V263.52C284.492 263.84 285.252 264.104 286.068 264.312C286.884 264.52 287.604 264.624 288.228 264.624C288.932 264.624 289.428 264.52 289.716 264.312C290.02 264.104 290.172 263.832 290.172 263.496C290.172 263.272 290.108 263.072 289.98 262.896C289.868 262.72 289.612 262.52 289.212 262.296C288.812 262.072 288.188 261.784 287.34 261.432C286.524 261.08 285.852 260.736 285.324 260.4C284.796 260.048 284.404 259.632 284.148 259.152C283.892 258.656 283.764 258.04 283.764 257.304C283.764 256.088 284.236 255.176 285.18 254.568C286.124 253.96 287.38 253.656 288.948 253.656C289.764 253.656 290.54 253.736 291.276 253.896C292.012 254.056 292.772 254.32 293.556 254.688L292.476 257.256C291.836 256.984 291.228 256.76 290.652 256.584C290.076 256.392 289.492 256.296 288.9 256.296C287.844 256.296 287.316 256.584 287.316 257.16C287.316 257.368 287.38 257.56 287.508 257.736C287.652 257.896 287.916 258.072 288.3 258.264C288.7 258.456 289.284 258.712 290.052 259.032C290.804 259.336 291.452 259.656 291.996 259.992C292.54 260.312 292.956 260.72 293.244 261.216C293.548 261.696 293.7 262.328 293.7 263.112ZM308.096 253.632C309.856 253.632 311.2 254.016 312.128 254.784C313.072 255.536 313.544 256.696 313.544 258.264V267H311.048L310.352 265.224H310.256C309.696 265.928 309.104 266.44 308.48 266.76C307.856 267.08 307 267.24 305.912 267.24C304.744 267.24 303.776 266.904 303.008 266.232C302.24 265.544 301.856 264.496 301.856 263.088C301.856 261.696 302.344 260.672 303.32 260.016C304.296 259.344 305.76 258.976 307.712 258.912L309.992 258.84V258.264C309.992 257.576 309.808 257.072 309.44 256.752C309.088 256.432 308.592 256.272 307.952 256.272C307.312 256.272 306.688 256.368 306.08 256.56C305.472 256.736 304.864 256.96 304.256 257.232L303.08 254.808C303.784 254.44 304.56 254.152 305.408 253.944C306.272 253.736 307.168 253.632 308.096 253.632ZM309.992 260.928L308.6 260.976C307.448 261.008 306.648 261.216 306.2 261.6C305.752 261.984 305.528 262.488 305.528 263.112C305.528 263.656 305.688 264.048 306.008 264.288C306.328 264.512 306.744 264.624 307.256 264.624C308.024 264.624 308.672 264.4 309.2 263.952C309.728 263.488 309.992 262.84 309.992 262.008V260.928ZM324.644 253.656C326.052 253.656 327.18 254.04 328.028 254.808C328.876 255.56 329.3 256.776 329.3 258.456V267H325.724V259.344C325.724 258.4 325.556 257.696 325.22 257.232C324.884 256.752 324.348 256.512 323.612 256.512C322.524 256.512 321.78 256.888 321.38 257.64C320.98 258.376 320.78 259.44 320.78 260.832V267H317.204V253.896H319.94L320.42 255.576H320.612C321.028 254.904 321.596 254.416 322.316 254.112C323.052 253.808 323.828 253.656 324.644 253.656ZM337.129 267.24C335.673 267.24 334.481 266.672 333.553 265.536C332.641 264.384 332.185 262.696 332.185 260.472C332.185 258.232 332.649 256.536 333.577 255.384C334.505 254.232 335.721 253.656 337.225 253.656C338.169 253.656 338.945 253.84 339.553 254.208C340.161 254.576 340.641 255.032 340.993 255.576H341.113C341.065 255.32 341.009 254.952 340.945 254.472C340.881 253.976 340.849 253.472 340.849 252.96V248.76H344.425V267H341.689L340.993 265.296H340.849C340.497 265.84 340.025 266.304 339.433 266.688C338.841 267.056 338.073 267.24 337.129 267.24ZM338.377 264.384C339.369 264.384 340.065 264.096 340.465 263.52C340.865 262.928 341.073 262.048 341.089 260.88V260.496C341.089 259.216 340.889 258.24 340.489 257.568C340.105 256.896 339.385 256.56 338.329 256.56C337.545 256.56 336.929 256.904 336.481 257.592C336.033 258.264 335.809 259.24 335.809 260.52C335.809 261.8 336.033 262.768 336.481 263.424C336.929 264.064 337.561 264.384 338.377 264.384ZM368.727 267H365.103V259.608H358.311V267H354.687V249.864H358.311V256.584H365.103V249.864H368.727V267ZM384.655 260.424C384.655 262.6 384.079 264.28 382.927 265.464C381.791 266.648 380.239 267.24 378.271 267.24C377.055 267.24 375.967 266.976 375.007 266.448C374.063 265.92 373.319 265.152 372.775 264.144C372.231 263.12 371.959 261.88 371.959 260.424C371.959 258.248 372.527 256.576 373.663 255.408C374.799 254.24 376.359 253.656 378.343 253.656C379.575 253.656 380.663 253.92 381.607 254.448C382.551 254.976 383.295 255.744 383.839 256.752C384.383 257.744 384.655 258.968 384.655 260.424ZM375.607 260.424C375.607 261.72 375.815 262.704 376.231 263.376C376.663 264.032 377.359 264.36 378.319 264.36C379.263 264.36 379.943 264.032 380.359 263.376C380.791 262.704 381.007 261.72 381.007 260.424C381.007 259.128 380.791 258.16 380.359 257.52C379.943 256.864 379.255 256.536 378.295 256.536C377.351 256.536 376.663 256.864 376.231 257.52C375.815 258.16 375.607 259.128 375.607 260.424ZM397.918 267L396.91 262.416C396.846 262.144 396.75 261.744 396.622 261.216C396.51 260.672 396.382 260.096 396.238 259.488C396.094 258.864 395.958 258.296 395.83 257.784C395.702 257.256 395.614 256.872 395.566 256.632H395.47C395.422 256.872 395.334 257.256 395.206 257.784C395.094 258.296 394.966 258.864 394.822 259.488C394.678 260.096 394.542 260.672 394.414 261.216C394.286 261.76 394.19 262.176 394.126 262.464L393.07 267H389.23L385.51 253.896H389.062L390.574 259.704C390.686 260.104 390.782 260.584 390.862 261.144C390.958 261.704 391.046 262.248 391.126 262.776C391.206 263.288 391.262 263.696 391.294 264H391.39C391.406 263.776 391.438 263.48 391.486 263.112C391.534 262.728 391.59 262.336 391.654 261.936C391.734 261.536 391.798 261.176 391.846 260.856C391.91 260.52 391.958 260.296 391.99 260.184L393.598 253.896H397.534L399.07 260.184C399.134 260.408 399.206 260.768 399.286 261.264C399.382 261.76 399.462 262.264 399.526 262.776C399.606 263.288 399.646 263.696 399.646 264H399.742C399.774 263.728 399.83 263.336 399.91 262.824C399.99 262.296 400.078 261.744 400.174 261.168C400.286 260.592 400.398 260.104 400.51 259.704L402.07 253.896H405.574L401.806 267H397.918ZM419.451 264.384C419.851 264.384 420.235 264.344 420.603 264.264C420.971 264.184 421.339 264.088 421.707 263.976V266.64C421.323 266.8 420.843 266.936 420.267 267.048C419.707 267.176 419.091 267.24 418.419 267.24C417.635 267.24 416.931 267.112 416.307 266.856C415.699 266.6 415.211 266.16 414.843 265.536C414.491 264.896 414.315 264.016 414.315 262.896V256.584H412.611V255.072L414.579 253.872L415.611 251.112H417.891V253.896H421.563V256.584H417.891V262.896C417.891 263.392 418.035 263.768 418.323 264.024C418.611 264.264 418.987 264.384 419.451 264.384ZM436.241 260.424C436.241 262.6 435.665 264.28 434.513 265.464C433.377 266.648 431.825 267.24 429.857 267.24C428.641 267.24 427.553 266.976 426.593 266.448C425.649 265.92 424.905 265.152 424.361 264.144C423.817 263.12 423.545 261.88 423.545 260.424C423.545 258.248 424.113 256.576 425.249 255.408C426.385 254.24 427.945 253.656 429.929 253.656C431.161 253.656 432.249 253.92 433.193 254.448C434.137 254.976 434.881 255.744 435.425 256.752C435.969 257.744 436.241 258.968 436.241 260.424ZM427.193 260.424C427.193 261.72 427.401 262.704 427.817 263.376C428.249 264.032 428.945 264.36 429.905 264.36C430.849 264.36 431.529 264.032 431.945 263.376C432.377 262.704 432.593 261.72 432.593 260.424C432.593 259.128 432.377 258.16 431.945 257.52C431.529 256.864 430.841 256.536 429.881 256.536C428.937 256.536 428.249 256.864 427.817 257.52C427.401 258.16 427.193 259.128 427.193 260.424ZM455.823 262.248C455.823 263.768 455.271 264.984 454.167 265.896C453.079 266.792 451.527 267.24 449.511 267.24C447.703 267.24 446.087 266.896 444.663 266.208V262.824C445.479 263.176 446.319 263.504 447.183 263.808C448.063 264.096 448.935 264.24 449.799 264.24C450.695 264.24 451.327 264.072 451.695 263.736C452.079 263.384 452.271 262.944 452.271 262.416C452.271 261.984 452.119 261.616 451.815 261.312C451.527 261.008 451.135 260.728 450.639 260.472C450.143 260.2 449.575 259.912 448.935 259.608C448.535 259.416 448.103 259.192 447.639 258.936C447.175 258.664 446.727 258.336 446.295 257.952C445.879 257.552 445.535 257.072 445.263 256.512C444.991 255.952 444.855 255.28 444.855 254.496C444.855 252.96 445.375 251.768 446.415 250.92C447.455 250.056 448.871 249.624 450.663 249.624C451.559 249.624 452.407 249.728 453.207 249.936C454.023 250.144 454.871 250.44 455.751 250.824L454.575 253.656C453.791 253.336 453.087 253.088 452.463 252.912C451.839 252.736 451.199 252.648 450.543 252.648C449.855 252.648 449.327 252.808 448.959 253.128C448.591 253.448 448.407 253.864 448.407 254.376C448.407 254.984 448.679 255.464 449.223 255.816C449.767 256.168 450.575 256.6 451.647 257.112C452.527 257.528 453.271 257.96 453.879 258.408C454.503 258.856 454.983 259.384 455.319 259.992C455.655 260.6 455.823 261.352 455.823 262.248ZM465.945 253.656C467.417 253.656 468.609 254.232 469.521 255.384C470.433 256.52 470.889 258.2 470.889 260.424C470.889 262.648 470.417 264.344 469.473 265.512C468.529 266.664 467.321 267.24 465.849 267.24C464.905 267.24 464.153 267.072 463.593 266.736C463.033 266.384 462.577 265.992 462.225 265.56H462.033C462.161 266.232 462.225 266.872 462.225 267.48V272.76H458.649V253.896H461.553L462.057 255.6H462.225C462.577 255.072 463.049 254.616 463.641 254.232C464.233 253.848 465.001 253.656 465.945 253.656ZM464.793 256.512C463.865 256.512 463.209 256.8 462.825 257.376C462.457 257.952 462.257 258.832 462.225 260.016V260.4C462.225 261.664 462.409 262.64 462.777 263.328C463.161 264 463.849 264.336 464.841 264.336C465.657 264.336 466.257 264 466.641 263.328C467.041 262.64 467.241 261.656 467.241 260.376C467.241 257.8 466.425 256.512 464.793 256.512ZM485.741 260.424C485.741 262.6 485.165 264.28 484.013 265.464C482.877 266.648 481.325 267.24 479.357 267.24C478.141 267.24 477.053 266.976 476.093 266.448C475.149 265.92 474.405 265.152 473.861 264.144C473.317 263.12 473.045 261.88 473.045 260.424C473.045 258.248 473.613 256.576 474.749 255.408C475.885 254.24 477.445 253.656 479.429 253.656C480.661 253.656 481.749 253.92 482.693 254.448C483.637 254.976 484.381 255.744 484.925 256.752C485.469 257.744 485.741 258.968 485.741 260.424ZM476.693 260.424C476.693 261.72 476.901 262.704 477.317 263.376C477.749 264.032 478.445 264.36 479.405 264.36C480.349 264.36 481.029 264.032 481.445 263.376C481.877 262.704 482.093 261.72 482.093 260.424C482.093 259.128 481.877 258.16 481.445 257.52C481.029 256.864 480.341 256.536 479.381 256.536C478.437 256.536 477.749 256.864 477.317 257.52C476.901 258.16 476.693 259.128 476.693 260.424ZM494.216 264.384C494.616 264.384 495 264.344 495.368 264.264C495.736 264.184 496.104 264.088 496.472 263.976V266.64C496.088 266.8 495.608 266.936 495.032 267.048C494.472 267.176 493.856 267.24 493.184 267.24C492.4 267.24 491.696 267.112 491.072 266.856C490.464 266.6 489.976 266.16 489.608 265.536C489.256 264.896 489.08 264.016 489.08 262.896V256.584H487.376V255.072L489.344 253.872L490.376 251.112H492.656V253.896H496.328V256.584H492.656V262.896C492.656 263.392 492.8 263.768 493.088 264.024C493.376 264.264 493.752 264.384 494.216 264.384ZM512.225 267H508.601V252.888H503.945V249.864H516.881V252.888H512.225V267ZM522.811 248.76V252.48C522.811 253.12 522.787 253.736 522.739 254.328C522.707 254.92 522.675 255.336 522.643 255.576H522.835C523.251 254.904 523.787 254.416 524.443 254.112C525.099 253.808 525.827 253.656 526.627 253.656C528.051 253.656 529.187 254.04 530.035 254.808C530.899 255.56 531.331 256.776 531.331 258.456V267H527.755V259.344C527.755 257.456 527.051 256.512 525.643 256.512C524.571 256.512 523.827 256.888 523.411 257.64C523.011 258.376 522.811 259.44 522.811 260.832V267H519.235V248.76H522.811ZM540.409 253.656C542.217 253.656 543.649 254.176 544.705 255.216C545.761 256.24 546.289 257.704 546.289 259.608V261.336H537.841C537.873 262.344 538.169 263.136 538.729 263.712C539.305 264.288 540.097 264.576 541.105 264.576C541.953 264.576 542.721 264.496 543.409 264.336C544.097 264.16 544.809 263.896 545.545 263.544V266.304C544.905 266.624 544.225 266.856 543.505 267C542.801 267.16 541.945 267.24 540.937 267.24C539.625 267.24 538.465 267 537.457 266.52C536.449 266.024 535.657 265.28 535.081 264.288C534.505 263.296 534.217 262.048 534.217 260.544C534.217 259.008 534.473 257.736 534.985 256.728C535.513 255.704 536.241 254.936 537.169 254.424C538.097 253.912 539.177 253.656 540.409 253.656ZM540.433 256.2C539.745 256.2 539.169 256.424 538.705 256.872C538.257 257.32 537.993 258.016 537.913 258.96H542.929C542.913 258.16 542.705 257.504 542.305 256.992C541.905 256.464 541.281 256.2 540.433 256.2ZM564.572 253.656C566.06 253.656 567.18 254.04 567.932 254.808C568.7 255.56 569.084 256.776 569.084 258.456V267H565.508V259.344C565.508 257.456 564.852 256.512 563.54 256.512C562.596 256.512 561.924 256.848 561.524 257.52C561.124 258.192 560.924 259.16 560.924 260.424V267H557.348V259.344C557.348 257.456 556.692 256.512 555.38 256.512C554.388 256.512 553.7 256.888 553.316 257.64C552.948 258.376 552.764 259.44 552.764 260.832V267H549.188V253.896H551.924L552.404 255.576H552.596C552.996 254.904 553.54 254.416 554.228 254.112C554.932 253.808 555.66 253.656 556.412 253.656C557.372 253.656 558.188 253.816 558.86 254.136C559.532 254.44 560.044 254.92 560.396 255.576H560.708C561.108 254.904 561.66 254.416 562.364 254.112C563.084 253.808 563.82 253.656 564.572 253.656Z" fill="#333333"/>
<rect x="45" y="20" width="497" height="36" rx="15.4489" fill="#A5DCFB"/>
</svg>
