<svg width="700" height="173" viewBox="0 0 700 173" fill="none" xmlns="http://www.w3.org/2000/svg">
<rect x="1.5" y="1.5" width="697" height="170" rx="48.5" fill="#D1F2FD" stroke="black" stroke-width="3"/>
<path d="M53.6 57L48.896 42.96H48.8C48.816 43.28 48.84 43.736 48.872 44.328C48.904 44.904 48.928 45.536 48.944 46.224C48.976 46.896 48.992 47.528 48.992 48.12V57H46.232V39.864H50.504L55.016 53.328H55.112L59.816 39.864H64.088V57H61.16V47.976C61.16 47.432 61.168 46.84 61.184 46.2C61.216 45.544 61.24 44.928 61.256 44.352C61.288 43.776 61.312 43.32 61.328 42.984H61.232L56.336 57H53.6ZM79.8491 50.472C79.8491 52.632 79.2891 54.304 78.1691 55.488C77.0491 56.656 75.5291 57.24 73.6091 57.24C72.4251 57.24 71.3691 56.976 70.4411 56.448C69.5131 55.92 68.7851 55.152 68.2571 54.144C67.7291 53.136 67.4651 51.912 67.4651 50.472C67.4651 48.312 68.0171 46.656 69.1211 45.504C70.2411 44.336 71.7611 43.752 73.6811 43.752C74.8811 43.752 75.9451 44.016 76.8731 44.544C77.8011 45.056 78.5291 45.816 79.0571 46.824C79.5851 47.816 79.8491 49.032 79.8491 50.472ZM70.5611 50.472C70.5611 51.848 70.8011 52.912 71.2811 53.664C71.7771 54.416 72.5691 54.792 73.6571 54.792C74.7451 54.792 75.5291 54.416 76.0091 53.664C76.5051 52.912 76.7531 51.848 76.7531 50.472C76.7531 49.096 76.5051 48.04 76.0091 47.304C75.5291 46.568 74.7371 46.2 73.6331 46.2C72.5611 46.2 71.7771 46.568 71.2811 47.304C70.8011 48.04 70.5611 49.096 70.5611 50.472ZM91.8313 53.232C91.8313 54.544 91.3593 55.544 90.4153 56.232C89.4873 56.904 88.1513 57.24 86.4073 57.24C85.4953 57.24 84.7113 57.176 84.0553 57.048C83.4153 56.92 82.7913 56.72 82.1833 56.448V53.88C82.8233 54.184 83.5273 54.44 84.2953 54.648C85.0793 54.856 85.8153 54.96 86.5033 54.96C87.3353 54.96 87.9353 54.832 88.3033 54.576C88.6713 54.32 88.8553 53.976 88.8553 53.544C88.8553 53.288 88.7833 53.064 88.6393 52.872C88.4953 52.664 88.2073 52.44 87.7753 52.2C87.3593 51.96 86.7353 51.664 85.9033 51.312C85.0713 50.992 84.3753 50.664 83.8153 50.328C83.2713 49.976 82.8553 49.568 82.5673 49.104C82.2953 48.64 82.1593 48.04 82.1593 47.304C82.1593 46.136 82.6153 45.256 83.5273 44.664C84.4553 44.056 85.6873 43.752 87.2233 43.752C88.0233 43.752 88.7753 43.832 89.4793 43.992C90.1993 44.152 90.9193 44.392 91.6393 44.712L90.6793 46.944C90.0713 46.688 89.4793 46.472 88.9033 46.296C88.3273 46.12 87.7353 46.032 87.1273 46.032C85.7993 46.032 85.1353 46.408 85.1353 47.16C85.1353 47.432 85.2153 47.664 85.3753 47.856C85.5513 48.048 85.8473 48.256 86.2633 48.48C86.6953 48.688 87.3033 48.944 88.0872 49.248C88.8553 49.552 89.5193 49.872 90.0793 50.208C90.6393 50.528 91.0713 50.928 91.3753 51.408C91.6793 51.888 91.8313 52.496 91.8313 53.232ZM99.7809 54.816C100.149 54.816 100.509 54.784 100.861 54.72C101.229 54.64 101.565 54.552 101.869 54.456V56.712C101.549 56.856 101.133 56.976 100.621 57.072C100.109 57.184 99.5729 57.24 99.0129 57.24C98.2769 57.24 97.6049 57.12 96.9969 56.88C96.3889 56.624 95.9089 56.192 95.5569 55.584C95.2049 54.976 95.0289 54.128 95.0289 53.04V46.272H93.2769V44.952L95.1969 43.896L96.1569 41.136H98.0529V43.992H101.749V46.272H98.0529V53.016C98.0529 53.624 98.2129 54.08 98.5329 54.384C98.8529 54.672 99.2689 54.816 99.7809 54.816ZM122.341 50.472C122.341 52.632 121.781 54.304 120.661 55.488C119.541 56.656 118.021 57.24 116.101 57.24C114.917 57.24 113.861 56.976 112.933 56.448C112.005 55.92 111.277 55.152 110.749 54.144C110.221 53.136 109.957 51.912 109.957 50.472C109.957 48.312 110.509 46.656 111.613 45.504C112.733 44.336 114.253 43.752 116.173 43.752C117.373 43.752 118.437 44.016 119.365 44.544C120.293 45.056 121.021 45.816 121.549 46.824C122.077 47.816 122.341 49.032 122.341 50.472ZM113.053 50.472C113.053 51.848 113.293 52.912 113.773 53.664C114.269 54.416 115.061 54.792 116.149 54.792C117.237 54.792 118.021 54.416 118.501 53.664C118.997 52.912 119.245 51.848 119.245 50.472C119.245 49.096 118.997 48.04 118.501 47.304C118.021 46.568 117.229 46.2 116.125 46.2C115.053 46.2 114.269 46.568 113.773 47.304C113.293 48.04 113.053 49.096 113.053 50.472ZM132.211 46.272H129.067V57H126.043V46.272H123.955V44.832L126.043 43.968V43.08C126.043 41.416 126.435 40.264 127.219 39.624C128.019 38.968 129.107 38.64 130.483 38.64C131.107 38.64 131.675 38.696 132.187 38.808C132.715 38.904 133.147 39.016 133.483 39.144L132.715 41.4C132.443 41.32 132.139 41.248 131.803 41.184C131.483 41.104 131.131 41.064 130.747 41.064C130.171 41.064 129.747 41.248 129.475 41.616C129.203 41.968 129.067 42.48 129.067 43.152V43.992H132.211V46.272ZM145.648 54.816C146.016 54.816 146.376 54.784 146.728 54.72C147.096 54.64 147.432 54.552 147.736 54.456V56.712C147.416 56.856 147 56.976 146.488 57.072C145.976 57.184 145.44 57.24 144.88 57.24C144.144 57.24 143.472 57.12 142.864 56.88C142.256 56.624 141.776 56.192 141.424 55.584C141.072 54.976 140.896 54.128 140.896 53.04V46.272H139.144V44.952L141.064 43.896L142.024 41.136H143.92V43.992H147.616V46.272H143.92V53.016C143.92 53.624 144.08 54.08 144.4 54.384C144.72 54.672 145.136 54.816 145.648 54.816ZM153.382 38.76V43.104C153.382 43.616 153.358 44.12 153.31 44.616C153.278 45.096 153.246 45.456 153.214 45.696H153.406C153.822 45.04 154.366 44.552 155.038 44.232C155.71 43.912 156.454 43.752 157.27 43.752C158.742 43.752 159.894 44.128 160.726 44.88C161.558 45.632 161.974 46.848 161.974 48.528V57H158.95V49.128C158.95 47.176 158.15 46.2 156.55 46.2C155.334 46.2 154.502 46.584 154.054 47.352C153.606 48.12 153.382 49.216 153.382 50.64V57H150.358V38.76H153.382ZM170.989 43.752C172.733 43.752 174.109 44.272 175.117 45.312C176.141 46.352 176.653 47.8 176.653 49.656V51.192H168.061C168.093 52.376 168.421 53.296 169.045 53.952C169.669 54.592 170.533 54.912 171.637 54.912C172.469 54.912 173.221 54.832 173.893 54.672C174.565 54.496 175.253 54.248 175.957 53.928V56.352C175.317 56.656 174.653 56.88 173.965 57.024C173.277 57.168 172.453 57.24 171.493 57.24C170.229 57.24 169.101 57 168.109 56.52C167.133 56.024 166.365 55.28 165.805 54.288C165.261 53.296 164.989 52.064 164.989 50.592C164.989 48.368 165.541 46.672 166.645 45.504C167.749 44.336 169.197 43.752 170.989 43.752ZM170.989 45.984C170.173 45.984 169.509 46.248 168.997 46.776C168.501 47.288 168.213 48.056 168.133 49.08H173.725C173.709 48.184 173.477 47.448 173.029 46.872C172.597 46.28 171.917 45.984 170.989 45.984ZM192.68 46.272H189.536V57H186.512V46.272H184.424V44.832L186.512 43.968V43.08C186.512 41.416 186.904 40.264 187.688 39.624C188.488 38.968 189.576 38.64 190.952 38.64C191.576 38.64 192.144 38.696 192.656 38.808C193.184 38.904 193.616 39.016 193.952 39.144L193.184 41.4C192.912 41.32 192.608 41.248 192.272 41.184C191.952 41.104 191.6 41.064 191.216 41.064C190.64 41.064 190.216 41.248 189.944 41.616C189.672 41.968 189.536 42.48 189.536 43.152V43.992H192.68V46.272ZM200.074 43.752C201.818 43.752 203.194 44.272 204.202 45.312C205.226 46.352 205.738 47.8 205.738 49.656V51.192H197.146C197.178 52.376 197.506 53.296 198.13 53.952C198.754 54.592 199.618 54.912 200.722 54.912C201.554 54.912 202.306 54.832 202.978 54.672C203.65 54.496 204.338 54.248 205.042 53.928V56.352C204.402 56.656 203.738 56.88 203.05 57.024C202.362 57.168 201.538 57.24 200.578 57.24C199.314 57.24 198.186 57 197.194 56.52C196.218 56.024 195.45 55.28 194.89 54.288C194.346 53.296 194.074 52.064 194.074 50.592C194.074 48.368 194.626 46.672 195.73 45.504C196.834 44.336 198.282 43.752 200.074 43.752ZM200.074 45.984C199.258 45.984 198.594 46.248 198.082 46.776C197.586 47.288 197.298 48.056 197.218 49.08H202.81C202.794 48.184 202.562 47.448 202.114 46.872C201.682 46.28 201.002 45.984 200.074 45.984ZM223.692 43.752C225.164 43.752 226.268 44.128 227.004 44.88C227.756 45.632 228.132 46.848 228.132 48.528V57H225.108V49.104C225.108 47.168 224.372 46.2 222.9 46.2C221.844 46.2 221.092 46.544 220.644 47.232C220.196 47.92 219.972 48.92 219.972 50.232V57H216.948V49.104C216.948 47.168 216.204 46.2 214.716 46.2C213.612 46.2 212.852 46.584 212.436 47.352C212.02 48.12 211.812 49.216 211.812 50.64V57H208.788V43.992H211.116L211.548 45.696H211.716C212.1 45.024 212.636 44.536 213.324 44.232C214.028 43.912 214.756 43.752 215.508 43.752C216.484 43.752 217.3 43.92 217.956 44.256C218.628 44.576 219.14 45.08 219.492 45.768H219.732C220.132 45.064 220.692 44.552 221.412 44.232C222.132 43.912 222.892 43.752 223.692 43.752ZM237.105 43.752C238.785 43.752 240.057 44.12 240.921 44.856C241.801 45.592 242.241 46.728 242.241 48.264V57H240.105L239.505 55.2H239.409C238.849 55.904 238.257 56.424 237.633 56.76C237.009 57.08 236.161 57.24 235.089 57.24C233.921 57.24 232.953 56.912 232.185 56.256C231.417 55.6 231.033 54.584 231.033 53.208C231.033 51.864 231.521 50.856 232.497 50.184C233.489 49.512 234.985 49.136 236.985 49.056L239.241 48.984V48.336C239.241 47.52 239.041 46.936 238.641 46.584C238.241 46.216 237.681 46.032 236.961 46.032C236.305 46.032 235.673 46.128 235.065 46.32C234.473 46.512 233.881 46.736 233.289 46.992L232.329 44.88C232.969 44.544 233.697 44.272 234.513 44.064C235.345 43.856 236.209 43.752 237.105 43.752ZM239.241 50.856L237.657 50.904C236.329 50.952 235.409 51.184 234.897 51.6C234.385 52 234.129 52.544 234.129 53.232C234.129 53.856 234.305 54.304 234.657 54.576C235.025 54.832 235.505 54.96 236.097 54.96C236.977 54.96 237.721 54.712 238.329 54.216C238.937 53.704 239.241 52.952 239.241 51.96V50.856ZM249.054 57H246.03V38.76H249.054V57ZM258.153 43.752C259.897 43.752 261.273 44.272 262.281 45.312C263.305 46.352 263.817 47.8 263.817 49.656V51.192H255.225C255.257 52.376 255.585 53.296 256.209 53.952C256.833 54.592 257.697 54.912 258.801 54.912C259.633 54.912 260.385 54.832 261.057 54.672C261.729 54.496 262.417 54.248 263.121 53.928V56.352C262.481 56.656 261.817 56.88 261.129 57.024C260.441 57.168 259.617 57.24 258.657 57.24C257.393 57.24 256.265 57 255.273 56.52C254.297 56.024 253.529 55.28 252.969 54.288C252.425 53.296 252.153 52.064 252.153 50.592C252.153 48.368 252.705 46.672 253.809 45.504C254.913 44.336 256.361 43.752 258.153 43.752ZM258.153 45.984C257.337 45.984 256.673 46.248 256.161 46.776C255.665 47.288 255.377 48.056 255.297 49.08H260.889C260.873 48.184 260.641 47.448 260.193 46.872C259.761 46.28 259.081 45.984 258.153 45.984ZM278.284 43.752C279.964 43.752 281.236 44.12 282.1 44.856C282.98 45.592 283.42 46.728 283.42 48.264V57H281.284L280.684 55.2H280.588C280.028 55.904 279.436 56.424 278.812 56.76C278.188 57.08 277.34 57.24 276.268 57.24C275.1 57.24 274.132 56.912 273.364 56.256C272.596 55.6 272.212 54.584 272.212 53.208C272.212 51.864 272.7 50.856 273.676 50.184C274.668 49.512 276.164 49.136 278.164 49.056L280.42 48.984V48.336C280.42 47.52 280.22 46.936 279.82 46.584C279.42 46.216 278.86 46.032 278.14 46.032C277.484 46.032 276.852 46.128 276.244 46.32C275.652 46.512 275.06 46.736 274.468 46.992L273.508 44.88C274.148 44.544 274.876 44.272 275.692 44.064C276.524 43.856 277.388 43.752 278.284 43.752ZM280.42 50.856L278.836 50.904C277.508 50.952 276.588 51.184 276.076 51.6C275.564 52 275.308 52.544 275.308 53.232C275.308 53.856 275.484 54.304 275.836 54.576C276.204 54.832 276.684 54.96 277.276 54.96C278.156 54.96 278.9 54.712 279.508 54.216C280.116 53.704 280.42 52.952 280.42 51.96V50.856ZM292.466 57.24C290.594 57.24 289.122 56.704 288.05 55.632C286.978 54.56 286.442 52.872 286.442 50.568C286.442 48.968 286.706 47.672 287.234 46.68C287.778 45.672 288.522 44.936 289.466 44.472C290.41 43.992 291.49 43.752 292.706 43.752C293.522 43.752 294.25 43.832 294.89 43.992C295.53 44.152 296.074 44.344 296.522 44.568L295.634 46.944C295.138 46.752 294.642 46.592 294.146 46.464C293.65 46.32 293.17 46.248 292.706 46.248C290.594 46.248 289.538 47.68 289.538 50.544C289.538 51.936 289.802 52.984 290.33 53.688C290.874 54.392 291.65 54.744 292.658 54.744C293.378 54.744 294.018 54.656 294.578 54.48C295.138 54.304 295.674 54.064 296.186 53.76V56.376C295.69 56.664 295.154 56.88 294.578 57.024C294.018 57.168 293.314 57.24 292.466 57.24ZM304.489 57.24C302.617 57.24 301.145 56.704 300.073 55.632C299.001 54.56 298.465 52.872 298.465 50.568C298.465 48.968 298.729 47.672 299.257 46.68C299.801 45.672 300.545 44.936 301.489 44.472C302.433 43.992 303.513 43.752 304.729 43.752C305.545 43.752 306.273 43.832 306.913 43.992C307.553 44.152 308.097 44.344 308.545 44.568L307.657 46.944C307.161 46.752 306.665 46.592 306.169 46.464C305.673 46.32 305.193 46.248 304.729 46.248C302.617 46.248 301.561 47.68 301.561 50.544C301.561 51.936 301.825 52.984 302.353 53.688C302.897 54.392 303.673 54.744 304.681 54.744C305.401 54.744 306.041 54.656 306.601 54.48C307.161 54.304 307.697 54.064 308.209 53.76V56.376C307.713 56.664 307.177 56.88 306.601 57.024C306.041 57.168 305.337 57.24 304.489 57.24ZM322.872 50.472C322.872 52.632 322.313 54.304 321.193 55.488C320.073 56.656 318.553 57.24 316.633 57.24C315.449 57.24 314.393 56.976 313.465 56.448C312.537 55.92 311.809 55.152 311.281 54.144C310.753 53.136 310.489 51.912 310.489 50.472C310.489 48.312 311.041 46.656 312.145 45.504C313.265 44.336 314.785 43.752 316.705 43.752C317.905 43.752 318.969 44.016 319.897 44.544C320.825 45.056 321.553 45.816 322.081 46.824C322.609 47.816 322.872 49.032 322.872 50.472ZM313.585 50.472C313.585 51.848 313.825 52.912 314.305 53.664C314.801 54.416 315.593 54.792 316.681 54.792C317.769 54.792 318.553 54.416 319.033 53.664C319.529 52.912 319.777 51.848 319.777 50.472C319.777 49.096 319.529 48.04 319.033 47.304C318.553 46.568 317.761 46.2 316.657 46.2C315.585 46.2 314.801 46.568 314.305 47.304C313.825 48.04 313.585 49.096 313.585 50.472ZM337.543 43.992V57H335.167L334.759 55.32H334.615C334.183 55.992 333.599 56.48 332.863 56.784C332.143 57.088 331.375 57.24 330.559 57.24C329.103 57.24 327.959 56.864 327.127 56.112C326.311 55.36 325.903 54.152 325.903 52.488V43.992H328.927V51.888C328.927 53.824 329.727 54.792 331.327 54.792C332.543 54.792 333.375 54.416 333.823 53.664C334.287 52.896 334.519 51.792 334.519 50.352V43.992H337.543ZM348.357 43.752C349.813 43.752 350.949 44.128 351.765 44.88C352.597 45.632 353.013 46.848 353.013 48.528V57H349.989V49.128C349.989 47.176 349.189 46.2 347.589 46.2C346.373 46.2 345.541 46.584 345.093 47.352C344.645 48.12 344.421 49.216 344.421 50.64V57H341.397V43.992H343.725L344.157 45.696H344.325C344.741 45.024 345.309 44.536 346.029 44.232C346.765 43.912 347.541 43.752 348.357 43.752ZM361.836 54.816C362.204 54.816 362.564 54.784 362.916 54.72C363.284 54.64 363.62 54.552 363.924 54.456V56.712C363.604 56.856 363.188 56.976 362.676 57.072C362.164 57.184 361.628 57.24 361.068 57.24C360.332 57.24 359.66 57.12 359.052 56.88C358.444 56.624 357.964 56.192 357.612 55.584C357.26 54.976 357.084 54.128 357.084 53.04V46.272H355.332V44.952L357.252 43.896L358.212 41.136H360.108V43.992H363.804V46.272H360.108V53.016C360.108 53.624 360.268 54.08 360.588 54.384C360.908 54.672 361.324 54.816 361.836 54.816ZM375.402 53.232C375.402 54.544 374.93 55.544 373.986 56.232C373.058 56.904 371.722 57.24 369.978 57.24C369.066 57.24 368.282 57.176 367.626 57.048C366.986 56.92 366.362 56.72 365.754 56.448V53.88C366.394 54.184 367.098 54.44 367.866 54.648C368.65 54.856 369.386 54.96 370.074 54.96C370.906 54.96 371.506 54.832 371.874 54.576C372.242 54.32 372.426 53.976 372.426 53.544C372.426 53.288 372.354 53.064 372.21 52.872C372.066 52.664 371.778 52.44 371.346 52.2C370.93 51.96 370.306 51.664 369.474 51.312C368.642 50.992 367.946 50.664 367.386 50.328C366.842 49.976 366.426 49.568 366.138 49.104C365.866 48.64 365.73 48.04 365.73 47.304C365.73 46.136 366.186 45.256 367.098 44.664C368.026 44.056 369.258 43.752 370.794 43.752C371.594 43.752 372.346 43.832 373.05 43.992C373.77 44.152 374.49 44.392 375.21 44.712L374.25 46.944C373.642 46.688 373.05 46.472 372.474 46.296C371.898 46.12 371.306 46.032 370.698 46.032C369.37 46.032 368.706 46.408 368.706 47.16C368.706 47.432 368.786 47.664 368.946 47.856C369.122 48.048 369.418 48.256 369.834 48.48C370.266 48.688 370.874 48.944 371.658 49.248C372.426 49.552 373.09 49.872 373.65 50.208C374.21 50.528 374.642 50.928 374.946 51.408C375.25 51.888 375.402 52.496 375.402 53.232ZM396.162 50.472C396.162 52.632 395.602 54.304 394.482 55.488C393.362 56.656 391.842 57.24 389.922 57.24C388.738 57.24 387.682 56.976 386.754 56.448C385.826 55.92 385.098 55.152 384.57 54.144C384.042 53.136 383.778 51.912 383.778 50.472C383.778 48.312 384.33 46.656 385.434 45.504C386.554 44.336 388.074 43.752 389.994 43.752C391.194 43.752 392.258 44.016 393.186 44.544C394.114 45.056 394.842 45.816 395.37 46.824C395.898 47.816 396.162 49.032 396.162 50.472ZM386.874 50.472C386.874 51.848 387.114 52.912 387.594 53.664C388.09 54.416 388.882 54.792 389.97 54.792C391.058 54.792 391.842 54.416 392.322 53.664C392.818 52.912 393.066 51.848 393.066 50.472C393.066 49.096 392.818 48.04 392.322 47.304C391.842 46.568 391.05 46.2 389.946 46.2C388.874 46.2 388.09 46.568 387.594 47.304C387.114 48.04 386.874 49.096 386.874 50.472ZM406.248 43.752C407.704 43.752 408.84 44.128 409.656 44.88C410.488 45.632 410.904 46.848 410.904 48.528V57H407.88V49.128C407.88 47.176 407.08 46.2 405.48 46.2C404.264 46.2 403.432 46.584 402.984 47.352C402.536 48.12 402.312 49.216 402.312 50.64V57H399.288V43.992H401.616L402.048 45.696H402.216C402.632 45.024 403.2 44.536 403.92 44.232C404.656 43.912 405.432 43.752 406.248 43.752ZM425.961 54.816C426.329 54.816 426.689 54.784 427.041 54.72C427.409 54.64 427.745 54.552 428.049 54.456V56.712C427.729 56.856 427.313 56.976 426.801 57.072C426.289 57.184 425.753 57.24 425.193 57.24C424.457 57.24 423.785 57.12 423.177 56.88C422.569 56.624 422.089 56.192 421.737 55.584C421.385 54.976 421.209 54.128 421.209 53.04V46.272H419.457V44.952L421.377 43.896L422.337 41.136H424.233V43.992H427.929V46.272H424.233V53.016C424.233 53.624 424.393 54.08 424.713 54.384C425.033 54.672 425.449 54.816 425.961 54.816ZM433.695 38.76V43.104C433.695 43.616 433.671 44.12 433.623 44.616C433.591 45.096 433.559 45.456 433.527 45.696H433.719C434.135 45.04 434.679 44.552 435.351 44.232C436.023 43.912 436.767 43.752 437.583 43.752C439.055 43.752 440.207 44.128 441.039 44.88C441.871 45.632 442.287 46.848 442.287 48.528V57H439.263V49.128C439.263 47.176 438.463 46.2 436.863 46.2C435.647 46.2 434.815 46.584 434.367 47.352C433.919 48.12 433.695 49.216 433.695 50.64V57H430.671V38.76H433.695ZM451.301 43.752C453.045 43.752 454.421 44.272 455.429 45.312C456.453 46.352 456.965 47.8 456.965 49.656V51.192H448.373C448.405 52.376 448.733 53.296 449.357 53.952C449.981 54.592 450.845 54.912 451.949 54.912C452.781 54.912 453.533 54.832 454.205 54.672C454.877 54.496 455.565 54.248 456.269 53.928V56.352C455.629 56.656 454.965 56.88 454.277 57.024C453.589 57.168 452.765 57.24 451.805 57.24C450.541 57.24 449.413 57 448.421 56.52C447.445 56.024 446.677 55.28 446.117 54.288C445.573 53.296 445.301 52.064 445.301 50.592C445.301 48.368 445.853 46.672 446.957 45.504C448.061 44.336 449.509 43.752 451.301 43.752ZM451.301 45.984C450.485 45.984 449.821 46.248 449.309 46.776C448.813 47.288 448.525 48.056 448.445 49.08H454.037C454.021 48.184 453.789 47.448 453.341 46.872C452.909 46.28 452.229 45.984 451.301 45.984ZM475.105 53.232C475.105 54.544 474.633 55.544 473.689 56.232C472.761 56.904 471.425 57.24 469.681 57.24C468.769 57.24 467.985 57.176 467.329 57.048C466.689 56.92 466.065 56.72 465.457 56.448V53.88C466.097 54.184 466.801 54.44 467.569 54.648C468.353 54.856 469.089 54.96 469.777 54.96C470.609 54.96 471.209 54.832 471.577 54.576C471.945 54.32 472.129 53.976 472.129 53.544C472.129 53.288 472.057 53.064 471.913 52.872C471.769 52.664 471.481 52.44 471.049 52.2C470.633 51.96 470.009 51.664 469.177 51.312C468.345 50.992 467.649 50.664 467.089 50.328C466.545 49.976 466.129 49.568 465.841 49.104C465.569 48.64 465.433 48.04 465.433 47.304C465.433 46.136 465.889 45.256 466.801 44.664C467.729 44.056 468.961 43.752 470.497 43.752C471.297 43.752 472.049 43.832 472.753 43.992C473.473 44.152 474.193 44.392 474.913 44.712L473.953 46.944C473.345 46.688 472.753 46.472 472.177 46.296C471.601 46.12 471.009 46.032 470.401 46.032C469.073 46.032 468.409 46.408 468.409 47.16C468.409 47.432 468.489 47.664 468.649 47.856C468.825 48.048 469.121 48.256 469.537 48.48C469.969 48.688 470.577 48.944 471.361 49.248C472.129 49.552 472.793 49.872 473.353 50.208C473.913 50.528 474.345 50.928 474.649 51.408C474.953 51.888 475.105 52.496 475.105 53.232ZM479.526 38.976C479.99 38.976 480.382 39.096 480.702 39.336C481.038 39.56 481.206 39.968 481.206 40.56C481.206 41.152 481.038 41.568 480.702 41.808C480.382 42.048 479.99 42.168 479.526 42.168C479.062 42.168 478.662 42.048 478.326 41.808C478.006 41.568 477.846 41.152 477.846 40.56C477.846 39.968 478.006 39.56 478.326 39.336C478.662 39.096 479.062 38.976 479.526 38.976ZM481.038 43.992V57H478.014V43.992H481.038ZM489.945 54.816C490.313 54.816 490.673 54.784 491.025 54.72C491.393 54.64 491.729 54.552 492.033 54.456V56.712C491.713 56.856 491.297 56.976 490.785 57.072C490.273 57.184 489.737 57.24 489.177 57.24C488.441 57.24 487.769 57.12 487.161 56.88C486.553 56.624 486.073 56.192 485.721 55.584C485.369 54.976 485.193 54.128 485.193 53.04V46.272H483.441V44.952L485.361 43.896L486.321 41.136H488.217V43.992H491.913V46.272H488.217V53.016C488.217 53.624 488.377 54.08 488.697 54.384C489.017 54.672 489.433 54.816 489.945 54.816ZM499.887 43.752C501.631 43.752 503.007 44.272 504.015 45.312C505.039 46.352 505.551 47.8 505.551 49.656V51.192H496.959C496.991 52.376 497.319 53.296 497.943 53.952C498.567 54.592 499.431 54.912 500.535 54.912C501.367 54.912 502.119 54.832 502.791 54.672C503.463 54.496 504.151 54.248 504.855 53.928V56.352C504.215 56.656 503.551 56.88 502.863 57.024C502.175 57.168 501.351 57.24 500.391 57.24C499.127 57.24 497.999 57 497.007 56.52C496.031 56.024 495.263 55.28 494.703 54.288C494.159 53.296 493.887 52.064 493.887 50.592C493.887 48.368 494.439 46.672 495.543 45.504C496.647 44.336 498.095 43.752 499.887 43.752ZM499.887 45.984C499.071 45.984 498.407 46.248 497.895 46.776C497.399 47.288 497.111 48.056 497.031 49.08H502.623C502.607 48.184 502.375 47.448 501.927 46.872C501.495 46.28 500.815 45.984 499.887 45.984ZM525.491 57L524.051 51.408C523.971 51.104 523.875 50.728 523.763 50.28C523.651 49.816 523.531 49.336 523.403 48.84C523.291 48.344 523.187 47.888 523.091 47.472C522.995 47.056 522.923 46.736 522.875 46.512H522.779C522.731 46.736 522.659 47.056 522.563 47.472C522.467 47.888 522.363 48.352 522.251 48.864C522.139 49.36 522.019 49.84 521.891 50.304C521.779 50.752 521.683 51.128 521.603 51.432L520.091 57H516.779L513.131 43.968H516.179L517.787 50.184C517.899 50.616 518.003 51.096 518.099 51.624C518.211 52.136 518.299 52.64 518.363 53.136C518.443 53.616 518.507 54.008 518.555 54.312H518.651C518.683 54.024 518.739 53.632 518.819 53.136C518.915 52.64 519.011 52.16 519.107 51.696C519.203 51.216 519.283 50.856 519.347 50.616L521.219 43.968H524.531L526.331 50.616C526.395 50.904 526.475 51.28 526.571 51.744C526.683 52.208 526.779 52.68 526.859 53.16C526.939 53.624 526.987 54 527.003 54.288H527.099C527.131 54.032 527.187 53.664 527.267 53.184C527.347 52.704 527.443 52.192 527.555 51.648C527.667 51.104 527.787 50.616 527.915 50.184L529.547 43.968H532.547L528.851 57H525.491ZM539.989 43.752C541.733 43.752 543.109 44.272 544.117 45.312C545.141 46.352 545.653 47.8 545.653 49.656V51.192H537.061C537.093 52.376 537.421 53.296 538.045 53.952C538.669 54.592 539.533 54.912 540.637 54.912C541.469 54.912 542.221 54.832 542.893 54.672C543.565 54.496 544.253 54.248 544.957 53.928V56.352C544.317 56.656 543.653 56.88 542.965 57.024C542.277 57.168 541.453 57.24 540.493 57.24C539.229 57.24 538.101 57 537.109 56.52C536.133 56.024 535.365 55.28 534.805 54.288C534.261 53.296 533.989 52.064 533.989 50.592C533.989 48.368 534.541 46.672 535.645 45.504C536.749 44.336 538.197 43.752 539.989 43.752ZM539.989 45.984C539.173 45.984 538.509 46.248 537.997 46.776C537.501 47.288 537.213 48.056 537.133 49.08H542.725C542.709 48.184 542.477 47.448 542.029 46.872C541.597 46.28 540.917 45.984 539.989 45.984ZM555.518 43.752C555.726 43.752 555.95 43.76 556.19 43.776C556.446 43.792 556.662 43.824 556.838 43.872L556.574 46.68C556.414 46.648 556.222 46.624 555.998 46.608C555.774 46.576 555.574 46.56 555.398 46.56C554.758 46.56 554.158 46.696 553.598 46.968C553.038 47.224 552.582 47.632 552.23 48.192C551.894 48.736 551.726 49.424 551.726 50.256V57H548.702V43.992H551.03L551.462 46.248H551.606C551.99 45.56 552.518 44.976 553.19 44.496C553.862 44 554.638 43.752 555.518 43.752ZM564.012 43.752C565.756 43.752 567.132 44.272 568.14 45.312C569.164 46.352 569.676 47.8 569.676 49.656V51.192H561.084C561.116 52.376 561.444 53.296 562.068 53.952C562.692 54.592 563.556 54.912 564.66 54.912C565.492 54.912 566.244 54.832 566.916 54.672C567.588 54.496 568.276 54.248 568.98 53.928V56.352C568.34 56.656 567.676 56.88 566.988 57.024C566.3 57.168 565.476 57.24 564.516 57.24C563.252 57.24 562.124 57 561.132 56.52C560.156 56.024 559.388 55.28 558.828 54.288C558.284 53.296 558.012 52.064 558.012 50.592C558.012 48.368 558.564 46.672 559.668 45.504C560.772 44.336 562.22 43.752 564.012 43.752ZM564.012 45.984C563.196 45.984 562.532 46.248 562.02 46.776C561.524 47.288 561.236 48.056 561.156 49.08H566.748C566.732 48.184 566.5 47.448 566.052 46.872C565.62 46.28 564.94 45.984 564.012 45.984ZM581.984 38.76V43.08C581.984 43.592 581.968 44.088 581.936 44.568C581.904 45.048 581.872 45.424 581.84 45.696H581.984C582.336 45.152 582.816 44.696 583.424 44.328C584.032 43.944 584.824 43.752 585.8 43.752C587.304 43.752 588.52 44.32 589.448 45.456C590.392 46.592 590.864 48.264 590.864 50.472C590.864 52.712 590.392 54.4 589.448 55.536C588.504 56.672 587.264 57.24 585.728 57.24C584.752 57.24 583.968 57.064 583.376 56.712C582.8 56.36 582.336 55.952 581.984 55.488H581.768L581.216 57H578.96V38.76H581.984ZM584.936 46.2C583.848 46.2 583.088 46.528 582.656 47.184C582.224 47.84 582 48.848 581.984 50.208V50.472C581.984 51.864 582.192 52.928 582.608 53.664C583.04 54.4 583.832 54.768 584.984 54.768C585.88 54.768 586.568 54.4 587.048 53.664C587.528 52.912 587.768 51.84 587.768 50.448C587.768 49.024 587.52 47.96 587.024 47.256C586.544 46.552 585.848 46.2 584.936 46.2ZM605.599 50.472C605.599 52.632 605.039 54.304 603.919 55.488C602.799 56.656 601.279 57.24 599.359 57.24C598.175 57.24 597.119 56.976 596.191 56.448C595.263 55.92 594.535 55.152 594.007 54.144C593.479 53.136 593.215 51.912 593.215 50.472C593.215 48.312 593.767 46.656 594.871 45.504C595.991 44.336 597.511 43.752 599.431 43.752C600.631 43.752 601.695 44.016 602.623 44.544C603.551 45.056 604.279 45.816 604.807 46.824C605.335 47.816 605.599 49.032 605.599 50.472ZM596.311 50.472C596.311 51.848 596.551 52.912 597.031 53.664C597.527 54.416 598.319 54.792 599.407 54.792C600.495 54.792 601.279 54.416 601.759 53.664C602.255 52.912 602.503 51.848 602.503 50.472C602.503 49.096 602.255 48.04 601.759 47.304C601.279 46.568 600.487 46.2 599.383 46.2C598.311 46.2 597.527 46.568 597.031 47.304C596.551 48.04 596.311 49.096 596.311 50.472ZM613.765 54.816C614.133 54.816 614.493 54.784 614.845 54.72C615.213 54.64 615.549 54.552 615.853 54.456V56.712C615.533 56.856 615.117 56.976 614.605 57.072C614.093 57.184 613.557 57.24 612.997 57.24C612.261 57.24 611.589 57.12 610.981 56.88C610.373 56.624 609.893 56.192 609.541 55.584C609.189 54.976 609.013 54.128 609.013 53.04V46.272H607.261V44.952L609.181 43.896L610.141 41.136H612.037V43.992H615.733V46.272H612.037V53.016C612.037 53.624 612.197 54.08 612.517 54.384C612.837 54.672 613.253 54.816 613.765 54.816ZM627.331 53.232C627.331 54.544 626.859 55.544 625.915 56.232C624.987 56.904 623.651 57.24 621.907 57.24C620.995 57.24 620.211 57.176 619.555 57.048C618.915 56.92 618.291 56.72 617.683 56.448V53.88C618.323 54.184 619.027 54.44 619.795 54.648C620.579 54.856 621.315 54.96 622.003 54.96C622.835 54.96 623.435 54.832 623.803 54.576C624.171 54.32 624.355 53.976 624.355 53.544C624.355 53.288 624.283 53.064 624.139 52.872C623.995 52.664 623.707 52.44 623.275 52.2C622.859 51.96 622.235 51.664 621.403 51.312C620.571 50.992 619.875 50.664 619.315 50.328C618.771 49.976 618.355 49.568 618.067 49.104C617.795 48.64 617.659 48.04 617.659 47.304C617.659 46.136 618.115 45.256 619.027 44.664C619.955 44.056 621.187 43.752 622.723 43.752C623.523 43.752 624.275 43.832 624.979 43.992C625.699 44.152 626.419 44.392 627.139 44.712L626.179 46.944C625.571 46.688 624.979 46.472 624.403 46.296C623.827 46.12 623.235 46.032 622.627 46.032C621.299 46.032 620.635 46.408 620.635 47.16C620.635 47.432 620.715 47.664 620.875 47.856C621.051 48.048 621.347 48.256 621.763 48.48C622.195 48.688 622.803 48.944 623.587 49.248C624.355 49.552 625.019 49.872 625.579 50.208C626.139 50.528 626.571 50.928 626.875 51.408C627.179 51.888 627.331 52.496 627.331 53.232ZM50.24 97.24C48.72 97.24 47.496 96.672 46.568 95.536C45.64 94.4 45.176 92.728 45.176 90.52C45.176 88.28 45.648 86.592 46.592 85.456C47.536 84.32 48.776 83.752 50.312 83.752C51.272 83.752 52.056 83.936 52.664 84.304C53.288 84.672 53.784 85.12 54.152 85.648H54.296C54.248 85.424 54.2 85.08 54.152 84.616C54.104 84.152 54.08 83.72 54.08 83.32V78.76H57.104V97H54.752L54.2 95.296H54.08C53.712 95.84 53.224 96.304 52.616 96.688C52.008 97.056 51.216 97.24 50.24 97.24ZM51.152 94.792C52.272 94.792 53.056 94.472 53.504 93.832C53.968 93.192 54.208 92.224 54.224 90.928V90.544C54.224 89.152 54 88.088 53.552 87.352C53.12 86.6 52.304 86.224 51.104 86.224C50.176 86.224 49.464 86.608 48.968 87.376C48.488 88.128 48.248 89.192 48.248 90.568C48.248 91.944 48.496 92.992 48.992 93.712C49.488 94.432 50.208 94.792 51.152 94.792ZM66.1994 83.752C67.9434 83.752 69.3194 84.272 70.3274 85.312C71.3514 86.352 71.8634 87.8 71.8634 89.656V91.192H63.2714C63.3034 92.376 63.6314 93.296 64.2554 93.952C64.8794 94.592 65.7434 94.912 66.8474 94.912C67.6794 94.912 68.4314 94.832 69.1034 94.672C69.7754 94.496 70.4634 94.248 71.1674 93.928V96.352C70.5274 96.656 69.8634 96.88 69.1754 97.024C68.4874 97.168 67.6634 97.24 66.7034 97.24C65.4394 97.24 64.3114 97 63.3194 96.52C62.3434 96.024 61.5754 95.28 61.0154 94.288C60.4714 93.296 60.1994 92.064 60.1994 90.592C60.1994 88.368 60.7514 86.672 61.8554 85.504C62.9594 84.336 64.4074 83.752 66.1994 83.752ZM66.1994 85.984C65.3834 85.984 64.7194 86.248 64.2074 86.776C63.7114 87.288 63.4234 88.056 63.3434 89.08H68.9354C68.9194 88.184 68.6874 87.448 68.2394 86.872C67.8074 86.28 67.1274 85.984 66.1994 85.984ZM83.7688 93.232C83.7688 94.544 83.2968 95.544 82.3528 96.232C81.4248 96.904 80.0888 97.24 78.3448 97.24C77.4328 97.24 76.6488 97.176 75.9928 97.048C75.3528 96.92 74.7288 96.72 74.1208 96.448V93.88C74.7608 94.184 75.4648 94.44 76.2328 94.648C77.0168 94.856 77.7528 94.96 78.4408 94.96C79.2728 94.96 79.8728 94.832 80.2408 94.576C80.6088 94.32 80.7928 93.976 80.7928 93.544C80.7928 93.288 80.7208 93.064 80.5768 92.872C80.4328 92.664 80.1448 92.44 79.7128 92.2C79.2968 91.96 78.6728 91.664 77.8408 91.312C77.0088 90.992 76.3128 90.664 75.7528 90.328C75.2088 89.976 74.7928 89.568 74.5048 89.104C74.2328 88.64 74.0968 88.04 74.0968 87.304C74.0968 86.136 74.5528 85.256 75.4648 84.664C76.3928 84.056 77.6248 83.752 79.1608 83.752C79.9608 83.752 80.7128 83.832 81.4168 83.992C82.1368 84.152 82.8568 84.392 83.5768 84.712L82.6168 86.944C82.0088 86.688 81.4168 86.472 80.8408 86.296C80.2648 86.12 79.6728 86.032 79.0648 86.032C77.7368 86.032 77.0728 86.408 77.0728 87.16C77.0728 87.432 77.1528 87.664 77.3128 87.856C77.4888 88.048 77.7848 88.256 78.2008 88.48C78.6328 88.688 79.2408 88.944 80.0247 89.248C80.7928 89.552 81.4568 89.872 82.0168 90.208C82.5768 90.528 83.0088 90.928 83.3128 91.408C83.6168 91.888 83.7688 92.496 83.7688 93.232ZM88.1904 78.976C88.6544 78.976 89.0464 79.096 89.3664 79.336C89.7024 79.56 89.8704 79.968 89.8704 80.56C89.8704 81.152 89.7024 81.568 89.3664 81.808C89.0464 82.048 88.6544 82.168 88.1904 82.168C87.7264 82.168 87.3264 82.048 86.9904 81.808C86.6704 81.568 86.5104 81.152 86.5104 80.56C86.5104 79.968 86.6704 79.56 86.9904 79.336C87.3264 79.096 87.7264 78.976 88.1904 78.976ZM89.7024 83.992V97H86.6784V83.992H89.7024ZM97.937 83.752C99.585 83.752 100.873 84.392 101.801 85.672H101.921L102.209 83.992H104.729V97.096C104.729 98.952 104.201 100.36 103.145 101.32C102.105 102.28 100.545 102.76 98.465 102.76C97.537 102.76 96.681 102.696 95.897 102.568C95.113 102.456 94.369 102.256 93.665 101.968V99.472C95.153 100.144 96.817 100.48 98.657 100.48C99.649 100.48 100.401 100.2 100.913 99.64C101.441 99.096 101.705 98.296 101.705 97.24V96.904C101.705 96.664 101.713 96.384 101.729 96.064C101.745 95.744 101.769 95.488 101.801 95.296H101.705C101.257 95.968 100.705 96.464 100.049 96.784C99.409 97.088 98.681 97.24 97.865 97.24C96.281 97.24 95.041 96.648 94.145 95.464C93.249 94.28 92.801 92.632 92.801 90.52C92.801 88.408 93.249 86.752 94.145 85.552C95.057 84.352 96.321 83.752 97.937 83.752ZM98.729 86.224C96.841 86.224 95.897 87.672 95.897 90.568C95.897 93.416 96.857 94.84 98.777 94.84C99.833 94.84 100.609 94.552 101.105 93.976C101.617 93.384 101.873 92.392 101.873 91V90.544C101.873 89.008 101.617 87.904 101.105 87.232C100.609 86.56 99.817 86.224 98.729 86.224ZM115.552 83.752C117.008 83.752 118.144 84.128 118.96 84.88C119.792 85.632 120.208 86.848 120.208 88.528V97H117.184V89.128C117.184 87.176 116.384 86.2 114.784 86.2C113.568 86.2 112.736 86.584 112.288 87.352C111.84 88.12 111.616 89.216 111.616 90.64V97H108.592V83.992H110.92L111.352 85.696H111.52C111.936 85.024 112.504 84.536 113.224 84.232C113.96 83.912 114.736 83.752 115.552 83.752ZM129.223 83.752C130.967 83.752 132.343 84.272 133.351 85.312C134.375 86.352 134.887 87.8 134.887 89.656V91.192H126.295C126.327 92.376 126.655 93.296 127.279 93.952C127.903 94.592 128.767 94.912 129.871 94.912C130.703 94.912 131.455 94.832 132.127 94.672C132.799 94.496 133.487 94.248 134.191 93.928V96.352C133.551 96.656 132.887 96.88 132.199 97.024C131.511 97.168 130.687 97.24 129.727 97.24C128.463 97.24 127.335 97 126.343 96.52C125.367 96.024 124.599 95.28 124.039 94.288C123.495 93.296 123.223 92.064 123.223 90.592C123.223 88.368 123.775 86.672 124.879 85.504C125.983 84.336 127.431 83.752 129.223 83.752ZM129.223 85.984C128.407 85.984 127.743 86.248 127.231 86.776C126.735 87.288 126.447 88.056 126.367 89.08H131.959C131.943 88.184 131.711 87.448 131.263 86.872C130.831 86.28 130.151 85.984 129.223 85.984ZM142.232 97.24C140.712 97.24 139.488 96.672 138.56 95.536C137.632 94.4 137.168 92.728 137.168 90.52C137.168 88.28 137.64 86.592 138.584 85.456C139.528 84.32 140.768 83.752 142.304 83.752C143.264 83.752 144.048 83.936 144.656 84.304C145.28 84.672 145.776 85.12 146.144 85.648H146.288C146.24 85.424 146.192 85.08 146.144 84.616C146.096 84.152 146.072 83.72 146.072 83.32V78.76H149.096V97H146.744L146.192 95.296H146.072C145.704 95.84 145.216 96.304 144.608 96.688C144 97.056 143.208 97.24 142.232 97.24ZM143.144 94.792C144.264 94.792 145.048 94.472 145.496 93.832C145.96 93.192 146.2 92.224 146.216 90.928V90.544C146.216 89.152 145.992 88.088 145.544 87.352C145.112 86.6 144.296 86.224 143.096 86.224C142.168 86.224 141.456 86.608 140.96 87.376C140.48 88.128 140.24 89.192 140.24 90.568C140.24 91.944 140.488 92.992 140.984 93.712C141.48 94.432 142.2 94.792 143.144 94.792ZM164.234 94.816C164.602 94.816 164.962 94.784 165.314 94.72C165.682 94.64 166.018 94.552 166.322 94.456V96.712C166.002 96.856 165.586 96.976 165.074 97.072C164.562 97.184 164.026 97.24 163.466 97.24C162.73 97.24 162.058 97.12 161.45 96.88C160.842 96.624 160.362 96.192 160.01 95.584C159.658 94.976 159.482 94.128 159.482 93.04V86.272H157.73V84.952L159.65 83.896L160.61 81.136H162.506V83.992H166.202V86.272H162.506V93.016C162.506 93.624 162.666 94.08 162.986 94.384C163.306 94.672 163.722 94.816 164.234 94.816ZM180.56 90.472C180.56 92.632 180 94.304 178.88 95.488C177.76 96.656 176.24 97.24 174.32 97.24C173.136 97.24 172.08 96.976 171.152 96.448C170.224 95.92 169.496 95.152 168.968 94.144C168.44 93.136 168.176 91.912 168.176 90.472C168.176 88.312 168.728 86.656 169.832 85.504C170.952 84.336 172.472 83.752 174.392 83.752C175.592 83.752 176.656 84.016 177.584 84.544C178.512 85.056 179.24 85.816 179.768 86.824C180.296 87.816 180.56 89.032 180.56 90.472ZM171.272 90.472C171.272 91.848 171.512 92.912 171.992 93.664C172.488 94.416 173.28 94.792 174.368 94.792C175.456 94.792 176.24 94.416 176.72 93.664C177.216 92.912 177.464 91.848 177.464 90.472C177.464 89.096 177.216 88.04 176.72 87.304C176.24 86.568 175.448 86.2 174.344 86.2C173.272 86.2 172.488 86.568 171.992 87.304C171.512 88.04 171.272 89.096 171.272 90.472ZM195.153 83.752C196.897 83.752 198.273 84.272 199.281 85.312C200.305 86.352 200.817 87.8 200.817 89.656V91.192H192.225C192.257 92.376 192.585 93.296 193.209 93.952C193.833 94.592 194.697 94.912 195.801 94.912C196.633 94.912 197.385 94.832 198.057 94.672C198.729 94.496 199.417 94.248 200.121 93.928V96.352C199.481 96.656 198.817 96.88 198.129 97.024C197.441 97.168 196.617 97.24 195.657 97.24C194.393 97.24 193.265 97 192.273 96.52C191.297 96.024 190.529 95.28 189.969 94.288C189.425 93.296 189.153 92.064 189.153 90.592C189.153 88.368 189.705 86.672 190.809 85.504C191.913 84.336 193.361 83.752 195.153 83.752ZM195.153 85.984C194.337 85.984 193.673 86.248 193.161 86.776C192.665 87.288 192.377 88.056 192.297 89.08H197.889C197.873 88.184 197.641 87.448 197.193 86.872C196.761 86.28 196.081 85.984 195.153 85.984ZM218.77 83.752C220.242 83.752 221.346 84.128 222.082 84.88C222.834 85.632 223.21 86.848 223.21 88.528V97H220.186V89.104C220.186 87.168 219.45 86.2 217.978 86.2C216.922 86.2 216.17 86.544 215.722 87.232C215.274 87.92 215.05 88.92 215.05 90.232V97H212.026V89.104C212.026 87.168 211.282 86.2 209.794 86.2C208.69 86.2 207.93 86.584 207.514 87.352C207.098 88.12 206.89 89.216 206.89 90.64V97H203.866V83.992H206.194L206.626 85.696H206.794C207.178 85.024 207.714 84.536 208.402 84.232C209.106 83.912 209.834 83.752 210.586 83.752C211.562 83.752 212.378 83.92 213.034 84.256C213.706 84.576 214.218 85.08 214.57 85.768H214.81C215.21 85.064 215.77 84.552 216.49 84.232C217.21 83.912 217.97 83.752 218.77 83.752ZM230.023 78.76V83.08C230.023 83.592 230.007 84.088 229.975 84.568C229.943 85.048 229.911 85.424 229.879 85.696H230.023C230.375 85.152 230.855 84.696 231.463 84.328C232.071 83.944 232.863 83.752 233.839 83.752C235.343 83.752 236.559 84.32 237.487 85.456C238.431 86.592 238.903 88.264 238.903 90.472C238.903 92.712 238.431 94.4 237.487 95.536C236.543 96.672 235.303 97.24 233.767 97.24C232.791 97.24 232.007 97.064 231.415 96.712C230.839 96.36 230.375 95.952 230.023 95.488H229.807L229.255 97H226.999V78.76H230.023ZM232.975 86.2C231.887 86.2 231.127 86.528 230.695 87.184C230.263 87.84 230.039 88.848 230.023 90.208V90.472C230.023 91.864 230.231 92.928 230.647 93.664C231.079 94.4 231.871 94.768 233.023 94.768C233.919 94.768 234.607 94.4 235.087 93.664C235.567 92.912 235.807 91.84 235.807 90.448C235.807 89.024 235.559 87.96 235.063 87.256C234.583 86.552 233.887 86.2 232.975 86.2ZM247.254 83.752C248.998 83.752 250.374 84.272 251.382 85.312C252.406 86.352 252.918 87.8 252.918 89.656V91.192H244.326C244.358 92.376 244.686 93.296 245.31 93.952C245.934 94.592 246.798 94.912 247.902 94.912C248.734 94.912 249.486 94.832 250.158 94.672C250.83 94.496 251.518 94.248 252.222 93.928V96.352C251.582 96.656 250.918 96.88 250.23 97.024C249.542 97.168 248.718 97.24 247.758 97.24C246.494 97.24 245.366 97 244.374 96.52C243.398 96.024 242.63 95.28 242.07 94.288C241.526 93.296 241.254 92.064 241.254 90.592C241.254 88.368 241.806 86.672 242.91 85.504C244.014 84.336 245.462 83.752 247.254 83.752ZM247.254 85.984C246.438 85.984 245.774 86.248 245.262 86.776C244.766 87.288 244.478 88.056 244.398 89.08H249.99C249.974 88.184 249.742 87.448 249.294 86.872C248.862 86.28 248.182 85.984 247.254 85.984ZM264.541 97H254.557V95.152L260.941 86.296H254.917V83.992H264.349V86.032L258.085 94.672H264.541V97ZM276.096 97H266.112V95.152L272.496 86.296H266.472V83.992H275.904V86.032L269.64 94.672H276.096V97ZM281.866 97H278.842V78.76H281.866V97ZM290.965 83.752C292.709 83.752 294.085 84.272 295.093 85.312C296.117 86.352 296.629 87.8 296.629 89.656V91.192H288.037C288.069 92.376 288.397 93.296 289.021 93.952C289.645 94.592 290.509 94.912 291.613 94.912C292.445 94.912 293.197 94.832 293.869 94.672C294.541 94.496 295.229 94.248 295.933 93.928V96.352C295.293 96.656 294.629 96.88 293.941 97.024C293.253 97.168 292.429 97.24 291.469 97.24C290.205 97.24 289.077 97 288.085 96.52C287.109 96.024 286.341 95.28 285.781 94.288C285.237 93.296 284.965 92.064 284.965 90.592C284.965 88.368 285.517 86.672 286.621 85.504C287.725 84.336 289.173 83.752 290.965 83.752ZM290.965 85.984C290.149 85.984 289.485 86.248 288.973 86.776C288.477 87.288 288.189 88.056 288.109 89.08H293.701C293.685 88.184 293.453 87.448 293.005 86.872C292.573 86.28 291.893 85.984 290.965 85.984ZM311.097 83.752C312.777 83.752 314.049 84.12 314.913 84.856C315.793 85.592 316.233 86.728 316.233 88.264V97H314.097L313.497 95.2H313.401C312.841 95.904 312.249 96.424 311.625 96.76C311.001 97.08 310.153 97.24 309.081 97.24C307.913 97.24 306.945 96.912 306.177 96.256C305.409 95.6 305.025 94.584 305.025 93.208C305.025 91.864 305.513 90.856 306.489 90.184C307.481 89.512 308.977 89.136 310.977 89.056L313.233 88.984V88.336C313.233 87.52 313.033 86.936 312.633 86.584C312.233 86.216 311.673 86.032 310.953 86.032C310.297 86.032 309.665 86.128 309.057 86.32C308.465 86.512 307.873 86.736 307.281 86.992L306.321 84.88C306.961 84.544 307.689 84.272 308.505 84.064C309.337 83.856 310.201 83.752 311.097 83.752ZM313.233 90.856L311.649 90.904C310.321 90.952 309.401 91.184 308.889 91.6C308.377 92 308.121 92.544 308.121 93.232C308.121 93.856 308.297 94.304 308.649 94.576C309.017 94.832 309.497 94.96 310.089 94.96C310.969 94.96 311.713 94.712 312.321 94.216C312.929 93.704 313.233 92.952 313.233 91.96V90.856ZM326.982 83.752C328.438 83.752 329.574 84.128 330.39 84.88C331.222 85.632 331.638 86.848 331.638 88.528V97H328.614V89.128C328.614 87.176 327.814 86.2 326.214 86.2C324.998 86.2 324.166 86.584 323.718 87.352C323.27 88.12 323.046 89.216 323.046 90.64V97H320.022V83.992H322.35L322.782 85.696H322.95C323.366 85.024 323.934 84.536 324.654 84.232C325.39 83.912 326.166 83.752 326.982 83.752ZM339.717 97.24C338.197 97.24 336.973 96.672 336.045 95.536C335.117 94.4 334.653 92.728 334.653 90.52C334.653 88.28 335.125 86.592 336.069 85.456C337.013 84.32 338.253 83.752 339.789 83.752C340.749 83.752 341.533 83.936 342.141 84.304C342.765 84.672 343.261 85.12 343.629 85.648H343.773C343.725 85.424 343.677 85.08 343.629 84.616C343.581 84.152 343.557 83.72 343.557 83.32V78.76H346.581V97H344.229L343.677 95.296H343.557C343.189 95.84 342.701 96.304 342.093 96.688C341.485 97.056 340.693 97.24 339.717 97.24ZM340.629 94.792C341.749 94.792 342.533 94.472 342.981 93.832C343.445 93.192 343.685 92.224 343.701 90.928V90.544C343.701 89.152 343.477 88.088 343.029 87.352C342.597 86.6 341.781 86.224 340.581 86.224C339.653 86.224 338.941 86.608 338.445 87.376C337.965 88.128 337.725 89.192 337.725 90.568C337.725 91.944 337.973 92.992 338.469 93.712C338.965 94.432 339.685 94.792 340.629 94.792ZM365.534 93.232C365.534 94.544 365.062 95.544 364.118 96.232C363.19 96.904 361.854 97.24 360.11 97.24C359.198 97.24 358.414 97.176 357.758 97.048C357.118 96.92 356.494 96.72 355.886 96.448V93.88C356.526 94.184 357.23 94.44 357.998 94.648C358.782 94.856 359.518 94.96 360.206 94.96C361.038 94.96 361.638 94.832 362.006 94.576C362.374 94.32 362.558 93.976 362.558 93.544C362.558 93.288 362.486 93.064 362.342 92.872C362.198 92.664 361.91 92.44 361.478 92.2C361.062 91.96 360.438 91.664 359.606 91.312C358.774 90.992 358.078 90.664 357.518 90.328C356.974 89.976 356.558 89.568 356.27 89.104C355.998 88.64 355.862 88.04 355.862 87.304C355.862 86.136 356.318 85.256 357.23 84.664C358.158 84.056 359.39 83.752 360.926 83.752C361.726 83.752 362.478 83.832 363.182 83.992C363.902 84.152 364.622 84.392 365.342 84.712L364.382 86.944C363.774 86.688 363.182 86.472 362.606 86.296C362.03 86.12 361.438 86.032 360.83 86.032C359.502 86.032 358.838 86.408 358.838 87.16C358.838 87.432 358.918 87.664 359.078 87.856C359.254 88.048 359.55 88.256 359.966 88.48C360.398 88.688 361.006 88.944 361.79 89.248C362.558 89.552 363.222 89.872 363.782 90.208C364.342 90.528 364.774 90.928 365.078 91.408C365.382 91.888 365.534 92.496 365.534 93.232ZM373.7 97.24C371.828 97.24 370.356 96.704 369.284 95.632C368.212 94.56 367.676 92.872 367.676 90.568C367.676 88.968 367.94 87.672 368.468 86.68C369.012 85.672 369.756 84.936 370.7 84.472C371.644 83.992 372.724 83.752 373.94 83.752C374.756 83.752 375.484 83.832 376.124 83.992C376.764 84.152 377.308 84.344 377.756 84.568L376.868 86.944C376.372 86.752 375.876 86.592 375.38 86.464C374.884 86.32 374.404 86.248 373.94 86.248C371.828 86.248 370.772 87.68 370.772 90.544C370.772 91.936 371.036 92.984 371.564 93.688C372.108 94.392 372.884 94.744 373.892 94.744C374.612 94.744 375.252 94.656 375.812 94.48C376.372 94.304 376.908 94.064 377.42 93.76V96.376C376.924 96.664 376.388 96.88 375.812 97.024C375.252 97.168 374.548 97.24 373.7 97.24ZM385.651 83.752C387.331 83.752 388.603 84.12 389.467 84.856C390.347 85.592 390.787 86.728 390.787 88.264V97H388.651L388.051 95.2H387.955C387.395 95.904 386.803 96.424 386.179 96.76C385.555 97.08 384.707 97.24 383.635 97.24C382.467 97.24 381.499 96.912 380.731 96.256C379.963 95.6 379.579 94.584 379.579 93.208C379.579 91.864 380.067 90.856 381.043 90.184C382.035 89.512 383.531 89.136 385.531 89.056L387.787 88.984V88.336C387.787 87.52 387.587 86.936 387.187 86.584C386.787 86.216 386.227 86.032 385.507 86.032C384.851 86.032 384.219 86.128 383.611 86.32C383.019 86.512 382.427 86.736 381.835 86.992L380.875 84.88C381.515 84.544 382.243 84.272 383.059 84.064C383.891 83.856 384.755 83.752 385.651 83.752ZM387.787 90.856L386.203 90.904C384.875 90.952 383.955 91.184 383.443 91.6C382.931 92 382.675 92.544 382.675 93.232C382.675 93.856 382.851 94.304 383.203 94.576C383.571 94.832 384.051 94.96 384.643 94.96C385.523 94.96 386.267 94.712 386.875 94.216C387.483 93.704 387.787 92.952 387.787 91.96V90.856ZM409.481 83.752C410.953 83.752 412.057 84.128 412.793 84.88C413.545 85.632 413.921 86.848 413.921 88.528V97H410.897V89.104C410.897 87.168 410.161 86.2 408.689 86.2C407.633 86.2 406.881 86.544 406.433 87.232C405.985 87.92 405.761 88.92 405.761 90.232V97H402.737V89.104C402.737 87.168 401.993 86.2 400.505 86.2C399.401 86.2 398.641 86.584 398.225 87.352C397.809 88.12 397.601 89.216 397.601 90.64V97H394.577V83.992H396.905L397.337 85.696H397.505C397.889 85.024 398.425 84.536 399.113 84.232C399.817 83.912 400.545 83.752 401.297 83.752C402.273 83.752 403.089 83.92 403.745 84.256C404.417 84.576 404.929 85.08 405.281 85.768H405.521C405.921 85.064 406.481 84.552 407.201 84.232C407.921 83.912 408.681 83.752 409.481 83.752ZM435.488 83.992V97H433.112L432.704 95.32H432.56C432.128 95.992 431.544 96.48 430.808 96.784C430.088 97.088 429.32 97.24 428.504 97.24C427.048 97.24 425.904 96.864 425.072 96.112C424.256 95.36 423.848 94.152 423.848 92.488V83.992H426.872V91.888C426.872 93.824 427.672 94.792 429.272 94.792C430.488 94.792 431.32 94.416 431.768 93.664C432.232 92.896 432.464 91.792 432.464 90.352V83.992H435.488ZM446.302 83.752C447.758 83.752 448.894 84.128 449.71 84.88C450.542 85.632 450.958 86.848 450.958 88.528V97H447.934V89.128C447.934 87.176 447.134 86.2 445.534 86.2C444.318 86.2 443.486 86.584 443.038 87.352C442.59 88.12 442.366 89.216 442.366 90.64V97H439.342V83.992H441.67L442.102 85.696H442.27C442.686 85.024 443.254 84.536 443.974 84.232C444.71 83.912 445.486 83.752 446.302 83.752ZM463.597 93.232C463.597 94.544 463.125 95.544 462.181 96.232C461.253 96.904 459.917 97.24 458.173 97.24C457.261 97.24 456.477 97.176 455.821 97.048C455.181 96.92 454.557 96.72 453.949 96.448V93.88C454.589 94.184 455.293 94.44 456.061 94.648C456.845 94.856 457.581 94.96 458.269 94.96C459.101 94.96 459.701 94.832 460.069 94.576C460.437 94.32 460.621 93.976 460.621 93.544C460.621 93.288 460.549 93.064 460.405 92.872C460.261 92.664 459.973 92.44 459.541 92.2C459.125 91.96 458.501 91.664 457.669 91.312C456.837 90.992 456.141 90.664 455.581 90.328C455.037 89.976 454.621 89.568 454.333 89.104C454.061 88.64 453.925 88.04 453.925 87.304C453.925 86.136 454.381 85.256 455.293 84.664C456.221 84.056 457.453 83.752 458.989 83.752C459.789 83.752 460.541 83.832 461.245 83.992C461.965 84.152 462.685 84.392 463.405 84.712L462.445 86.944C461.837 86.688 461.245 86.472 460.669 86.296C460.093 86.12 459.501 86.032 458.893 86.032C457.565 86.032 456.901 86.408 456.901 87.16C456.901 87.432 456.981 87.664 457.141 87.856C457.317 88.048 457.613 88.256 458.029 88.48C458.461 88.688 459.069 88.944 459.853 89.248C460.621 89.552 461.285 89.872 461.845 90.208C462.405 90.528 462.837 90.928 463.141 91.408C463.445 91.888 463.597 92.496 463.597 93.232ZM478.051 83.992V97H475.675L475.267 95.32H475.123C474.691 95.992 474.107 96.48 473.371 96.784C472.651 97.088 471.883 97.24 471.067 97.24C469.611 97.24 468.467 96.864 467.635 96.112C466.819 95.36 466.411 94.152 466.411 92.488V83.992H469.435V91.888C469.435 93.824 470.235 94.792 471.835 94.792C473.051 94.792 473.883 94.416 474.331 93.664C474.795 92.896 475.027 91.792 475.027 90.352V83.992H478.051ZM490.761 93.232C490.761 94.544 490.289 95.544 489.345 96.232C488.417 96.904 487.081 97.24 485.337 97.24C484.425 97.24 483.641 97.176 482.985 97.048C482.345 96.92 481.721 96.72 481.113 96.448V93.88C481.753 94.184 482.457 94.44 483.225 94.648C484.009 94.856 484.745 94.96 485.433 94.96C486.265 94.96 486.865 94.832 487.233 94.576C487.601 94.32 487.785 93.976 487.785 93.544C487.785 93.288 487.713 93.064 487.569 92.872C487.425 92.664 487.137 92.44 486.705 92.2C486.289 91.96 485.665 91.664 484.833 91.312C484.001 90.992 483.305 90.664 482.745 90.328C482.201 89.976 481.785 89.568 481.497 89.104C481.225 88.64 481.089 88.04 481.089 87.304C481.089 86.136 481.545 85.256 482.457 84.664C483.385 84.056 484.617 83.752 486.153 83.752C486.953 83.752 487.705 83.832 488.409 83.992C489.129 84.152 489.849 84.392 490.569 84.712L489.609 86.944C489.001 86.688 488.409 86.472 487.833 86.296C487.257 86.12 486.665 86.032 486.057 86.032C484.729 86.032 484.065 86.408 484.065 87.16C484.065 87.432 484.145 87.664 484.305 87.856C484.481 88.048 484.777 88.256 485.193 88.48C485.625 88.688 486.233 88.944 487.017 89.248C487.785 89.552 488.449 89.872 489.009 90.208C489.569 90.528 490.001 90.928 490.305 91.408C490.609 91.888 490.761 92.496 490.761 93.232ZM500.511 83.752C502.031 83.752 503.255 84.32 504.183 85.456C505.111 86.576 505.575 88.248 505.575 90.472C505.575 92.696 505.095 94.384 504.135 95.536C503.191 96.672 501.959 97.24 500.439 97.24C499.479 97.24 498.703 97.064 498.111 96.712C497.519 96.36 497.047 95.952 496.695 95.488H496.503C496.551 95.792 496.591 96.128 496.623 96.496C496.671 96.848 496.695 97.176 496.695 97.48V102.76H493.671V83.992H496.119L496.551 85.72H496.695C497.047 85.176 497.527 84.712 498.135 84.328C498.743 83.944 499.535 83.752 500.511 83.752ZM499.647 86.2C498.575 86.2 497.815 86.52 497.367 87.16C496.935 87.8 496.711 88.768 496.695 90.064V90.448C496.695 91.84 496.903 92.912 497.319 93.664C497.751 94.4 498.543 94.768 499.695 94.768C500.639 94.768 501.335 94.384 501.783 93.616C502.247 92.832 502.479 91.768 502.479 90.424C502.479 89.08 502.247 88.04 501.783 87.304C501.335 86.568 500.623 86.2 499.647 86.2ZM513.926 83.752C515.67 83.752 517.046 84.272 518.054 85.312C519.078 86.352 519.59 87.8 519.59 89.656V91.192H510.998C511.03 92.376 511.358 93.296 511.982 93.952C512.606 94.592 513.47 94.912 514.574 94.912C515.406 94.912 516.158 94.832 516.83 94.672C517.502 94.496 518.19 94.248 518.894 93.928V96.352C518.254 96.656 517.59 96.88 516.902 97.024C516.214 97.168 515.39 97.24 514.43 97.24C513.166 97.24 512.038 97 511.046 96.52C510.07 96.024 509.302 95.28 508.742 94.288C508.198 93.296 507.926 92.064 507.926 90.592C507.926 88.368 508.478 86.672 509.582 85.504C510.686 84.336 512.134 83.752 513.926 83.752ZM513.926 85.984C513.11 85.984 512.446 86.248 511.934 86.776C511.438 87.288 511.15 88.056 511.07 89.08H516.662C516.646 88.184 516.414 87.448 515.966 86.872C515.534 86.28 514.854 85.984 513.926 85.984ZM527.895 97.24C526.023 97.24 524.551 96.704 523.479 95.632C522.407 94.56 521.871 92.872 521.871 90.568C521.871 88.968 522.135 87.672 522.663 86.68C523.207 85.672 523.951 84.936 524.895 84.472C525.839 83.992 526.919 83.752 528.135 83.752C528.951 83.752 529.679 83.832 530.319 83.992C530.959 84.152 531.503 84.344 531.951 84.568L531.063 86.944C530.567 86.752 530.071 86.592 529.575 86.464C529.079 86.32 528.599 86.248 528.135 86.248C526.023 86.248 524.967 87.68 524.967 90.544C524.967 91.936 525.231 92.984 525.759 93.688C526.303 94.392 527.079 94.744 528.087 94.744C528.807 94.744 529.447 94.656 530.007 94.48C530.567 94.304 531.103 94.064 531.615 93.76V96.376C531.119 96.664 530.583 96.88 530.007 97.024C529.447 97.168 528.743 97.24 527.895 97.24ZM539.703 94.816C540.071 94.816 540.431 94.784 540.783 94.72C541.151 94.64 541.487 94.552 541.791 94.456V96.712C541.471 96.856 541.055 96.976 540.543 97.072C540.031 97.184 539.495 97.24 538.935 97.24C538.199 97.24 537.527 97.12 536.919 96.88C536.311 96.624 535.831 96.192 535.479 95.584C535.127 94.976 534.951 94.128 534.951 93.04V86.272H533.199V84.952L535.119 83.896L536.079 81.136H537.975V83.992H541.671V86.272H537.975V93.016C537.975 93.624 538.135 94.08 538.455 94.384C538.775 94.672 539.191 94.816 539.703 94.816ZM545.925 78.976C546.389 78.976 546.781 79.096 547.101 79.336C547.437 79.56 547.605 79.968 547.605 80.56C547.605 81.152 547.437 81.568 547.101 81.808C546.781 82.048 546.389 82.168 545.925 82.168C545.461 82.168 545.061 82.048 544.725 81.808C544.405 81.568 544.245 81.152 544.245 80.56C544.245 79.968 544.405 79.56 544.725 79.336C545.061 79.096 545.461 78.976 545.925 78.976ZM547.437 83.992V97H544.413V83.992H547.437ZM558.263 83.752C559.719 83.752 560.855 84.128 561.671 84.88C562.503 85.632 562.919 86.848 562.919 88.528V97H559.895V89.128C559.895 87.176 559.095 86.2 557.495 86.2C556.279 86.2 555.447 86.584 554.999 87.352C554.551 88.12 554.327 89.216 554.327 90.64V97H551.303V83.992H553.631L554.063 85.696H554.231C554.647 85.024 555.215 84.536 555.935 84.232C556.671 83.912 557.447 83.752 558.263 83.752ZM571.07 83.752C572.718 83.752 574.006 84.392 574.934 85.672H575.054L575.342 83.992H577.862V97.096C577.862 98.952 577.334 100.36 576.278 101.32C575.238 102.28 573.678 102.76 571.598 102.76C570.67 102.76 569.814 102.696 569.03 102.568C568.246 102.456 567.502 102.256 566.798 101.968V99.472C568.286 100.144 569.95 100.48 571.79 100.48C572.782 100.48 573.534 100.2 574.046 99.64C574.574 99.096 574.838 98.296 574.838 97.24V96.904C574.838 96.664 574.846 96.384 574.862 96.064C574.878 95.744 574.902 95.488 574.934 95.296H574.838C574.39 95.968 573.838 96.464 573.182 96.784C572.542 97.088 571.814 97.24 570.998 97.24C569.414 97.24 568.174 96.648 567.278 95.464C566.382 94.28 565.934 92.632 565.934 90.52C565.934 88.408 566.382 86.752 567.278 85.552C568.19 84.352 569.454 83.752 571.07 83.752ZM571.862 86.224C569.974 86.224 569.03 87.672 569.03 90.568C569.03 93.416 569.99 94.84 571.91 94.84C572.966 94.84 573.742 94.552 574.238 93.976C574.75 93.384 575.006 92.392 575.006 91V90.544C575.006 89.008 574.75 87.904 574.238 87.232C573.742 86.56 572.95 86.224 571.862 86.224ZM602.864 83.752C604.336 83.752 605.44 84.128 606.176 84.88C606.928 85.632 607.304 86.848 607.304 88.528V97H604.28V89.104C604.28 87.168 603.544 86.2 602.072 86.2C601.016 86.2 600.264 86.544 599.816 87.232C599.368 87.92 599.144 88.92 599.144 90.232V97H596.12V89.104C596.12 87.168 595.376 86.2 593.888 86.2C592.784 86.2 592.024 86.584 591.608 87.352C591.192 88.12 590.984 89.216 590.984 90.64V97H587.96V83.992H590.288L590.72 85.696H590.888C591.272 85.024 591.808 84.536 592.496 84.232C593.2 83.912 593.928 83.752 594.68 83.752C595.656 83.752 596.472 83.92 597.128 84.256C597.8 84.576 598.312 85.08 598.664 85.768H598.904C599.304 85.064 599.864 84.552 600.584 84.232C601.304 83.912 602.064 83.752 602.864 83.752ZM616.324 83.752C618.068 83.752 619.444 84.272 620.452 85.312C621.476 86.352 621.988 87.8 621.988 89.656V91.192H613.396C613.428 92.376 613.756 93.296 614.38 93.952C615.004 94.592 615.868 94.912 616.972 94.912C617.804 94.912 618.556 94.832 619.228 94.672C619.9 94.496 620.588 94.248 621.292 93.928V96.352C620.652 96.656 619.988 96.88 619.3 97.024C618.612 97.168 617.788 97.24 616.828 97.24C615.564 97.24 614.436 97 613.444 96.52C612.468 96.024 611.7 95.28 611.14 94.288C610.596 93.296 610.324 92.064 610.324 90.592C610.324 88.368 610.876 86.672 611.98 85.504C613.084 84.336 614.532 83.752 616.324 83.752ZM616.324 85.984C615.508 85.984 614.844 86.248 614.332 86.776C613.836 87.288 613.548 88.056 613.468 89.08H619.06C619.044 88.184 618.812 87.448 618.364 86.872C617.932 86.28 617.252 85.984 616.324 85.984ZM631.998 83.752C633.454 83.752 634.59 84.128 635.406 84.88C636.238 85.632 636.654 86.848 636.654 88.528V97H633.63V89.128C633.63 87.176 632.83 86.2 631.23 86.2C630.014 86.2 629.182 86.584 628.734 87.352C628.286 88.12 628.062 89.216 628.062 90.64V97H625.038V83.992H627.366L627.798 85.696H627.966C628.382 85.024 628.95 84.536 629.67 84.232C630.406 83.912 631.182 83.752 631.998 83.752ZM57.56 130.472C57.56 132.632 57 134.304 55.88 135.488C54.76 136.656 53.24 137.24 51.32 137.24C50.136 137.24 49.08 136.976 48.152 136.448C47.224 135.92 46.496 135.152 45.968 134.144C45.44 133.136 45.176 131.912 45.176 130.472C45.176 128.312 45.728 126.656 46.832 125.504C47.952 124.336 49.472 123.752 51.392 123.752C52.592 123.752 53.656 124.016 54.584 124.544C55.512 125.056 56.24 125.816 56.768 126.824C57.296 127.816 57.56 129.032 57.56 130.472ZM48.272 130.472C48.272 131.848 48.512 132.912 48.992 133.664C49.488 134.416 50.28 134.792 51.368 134.792C52.456 134.792 53.24 134.416 53.72 133.664C54.216 132.912 54.464 131.848 54.464 130.472C54.464 129.096 54.216 128.04 53.72 127.304C53.24 126.568 52.448 126.2 51.344 126.2C50.272 126.2 49.488 126.568 48.992 127.304C48.512 128.04 48.272 129.096 48.272 130.472ZM72.2302 123.992V137H69.8542L69.4462 135.32H69.3022C68.8702 135.992 68.2862 136.48 67.5502 136.784C66.8302 137.088 66.0622 137.24 65.2462 137.24C63.7902 137.24 62.6462 136.864 61.8142 136.112C60.9982 135.36 60.5902 134.152 60.5902 132.488V123.992H63.6142V131.888C63.6142 133.824 64.4142 134.792 66.0142 134.792C67.2302 134.792 68.0622 134.416 68.5102 133.664C68.9742 132.896 69.2062 131.792 69.2062 130.352V123.992H72.2302ZM81.1246 134.816C81.4926 134.816 81.8526 134.784 82.2046 134.72C82.5726 134.64 82.9086 134.552 83.2126 134.456V136.712C82.8926 136.856 82.4766 136.976 81.9646 137.072C81.4526 137.184 80.9166 137.24 80.3566 137.24C79.6206 137.24 78.9486 137.12 78.3406 136.88C77.7326 136.624 77.2526 136.192 76.9006 135.584C76.5486 134.976 76.3726 134.128 76.3726 133.04V126.272H74.6206V124.952L76.5406 123.896L77.5006 121.136H79.3966V123.992H83.0926V126.272H79.3966V133.016C79.3966 133.624 79.5566 134.08 79.8766 134.384C80.1966 134.672 80.6126 134.816 81.1246 134.816ZM103.685 130.472C103.685 132.632 103.125 134.304 102.005 135.488C100.885 136.656 99.365 137.24 97.445 137.24C96.261 137.24 95.205 136.976 94.277 136.448C93.349 135.92 92.621 135.152 92.093 134.144C91.565 133.136 91.301 131.912 91.301 130.472C91.301 128.312 91.853 126.656 92.957 125.504C94.077 124.336 95.597 123.752 97.517 123.752C98.717 123.752 99.781 124.016 100.709 124.544C101.637 125.056 102.365 125.816 102.893 126.824C103.421 127.816 103.685 129.032 103.685 130.472ZM94.397 130.472C94.397 131.848 94.637 132.912 95.117 133.664C95.613 134.416 96.405 134.792 97.493 134.792C98.581 134.792 99.365 134.416 99.845 133.664C100.341 132.912 100.589 131.848 100.589 130.472C100.589 129.096 100.341 128.04 99.845 127.304C99.365 126.568 98.573 126.2 97.469 126.2C96.397 126.2 95.613 126.568 95.117 127.304C94.637 128.04 94.397 129.096 94.397 130.472ZM113.555 126.272H110.411V137H107.387V126.272H105.299V124.832L107.387 123.968V123.08C107.387 121.416 107.779 120.264 108.563 119.624C109.363 118.968 110.451 118.64 111.827 118.64C112.451 118.64 113.019 118.696 113.531 118.808C114.059 118.904 114.491 119.016 114.827 119.144L114.059 121.4C113.787 121.32 113.483 121.248 113.147 121.184C112.827 121.104 112.475 121.064 112.091 121.064C111.515 121.064 111.091 121.248 110.819 121.616C110.547 121.968 110.411 122.48 110.411 123.152V123.992H113.555V126.272ZM126.992 134.816C127.36 134.816 127.72 134.784 128.072 134.72C128.44 134.64 128.776 134.552 129.08 134.456V136.712C128.76 136.856 128.344 136.976 127.832 137.072C127.32 137.184 126.784 137.24 126.224 137.24C125.488 137.24 124.816 137.12 124.208 136.88C123.6 136.624 123.12 136.192 122.768 135.584C122.416 134.976 122.24 134.128 122.24 133.04V126.272H120.488V124.952L122.408 123.896L123.368 121.136H125.264V123.992H128.96V126.272H125.264V133.016C125.264 133.624 125.424 134.08 125.744 134.384C126.064 134.672 126.48 134.816 126.992 134.816ZM134.726 118.76V123.104C134.726 123.616 134.702 124.12 134.654 124.616C134.622 125.096 134.59 125.456 134.558 125.696H134.75C135.166 125.04 135.71 124.552 136.382 124.232C137.054 123.912 137.798 123.752 138.614 123.752C140.086 123.752 141.238 124.128 142.07 124.88C142.902 125.632 143.318 126.848 143.318 128.528V137H140.294V129.128C140.294 127.176 139.494 126.2 137.894 126.2C136.678 126.2 135.846 126.584 135.398 127.352C134.95 128.12 134.726 129.216 134.726 130.64V137H131.702V118.76H134.726ZM152.332 123.752C154.076 123.752 155.452 124.272 156.46 125.312C157.484 126.352 157.996 127.8 157.996 129.656V131.192H149.404C149.436 132.376 149.764 133.296 150.388 133.952C151.012 134.592 151.876 134.912 152.98 134.912C153.812 134.912 154.564 134.832 155.236 134.672C155.908 134.496 156.596 134.248 157.3 133.928V136.352C156.66 136.656 155.996 136.88 155.308 137.024C154.62 137.168 153.796 137.24 152.836 137.24C151.572 137.24 150.444 137 149.452 136.52C148.476 136.024 147.708 135.28 147.148 134.288C146.604 133.296 146.332 132.064 146.332 130.592C146.332 128.368 146.884 126.672 147.988 125.504C149.092 124.336 150.54 123.752 152.332 123.752ZM152.332 125.984C151.516 125.984 150.852 126.248 150.34 126.776C149.844 127.288 149.556 128.056 149.476 129.08H155.068C155.052 128.184 154.82 127.448 154.372 126.872C153.94 126.28 153.26 125.984 152.332 125.984ZM162.558 118.976C163.022 118.976 163.414 119.096 163.734 119.336C164.07 119.56 164.238 119.968 164.238 120.56C164.238 121.152 164.07 121.568 163.734 121.808C163.414 122.048 163.022 122.168 162.558 122.168C162.094 122.168 161.694 122.048 161.358 121.808C161.038 121.568 160.878 121.152 160.878 120.56C160.878 119.968 161.038 119.56 161.358 119.336C161.694 119.096 162.094 118.976 162.558 118.976ZM164.07 123.992V137H161.046V123.992H164.07ZM174.752 123.752C174.96 123.752 175.184 123.76 175.424 123.776C175.68 123.792 175.896 123.824 176.072 123.872L175.808 126.68C175.648 126.648 175.456 126.624 175.232 126.608C175.008 126.576 174.808 126.56 174.632 126.56C173.992 126.56 173.392 126.696 172.832 126.968C172.272 127.224 171.816 127.632 171.464 128.192C171.128 128.736 170.96 129.424 170.96 130.256V137H167.936V123.992H170.264L170.696 126.248H170.84C171.224 125.56 171.752 124.976 172.424 124.496C173.096 124 173.872 123.752 174.752 123.752ZM187.741 137H184.717V118.76H187.741V137ZM193.12 118.976C193.584 118.976 193.976 119.096 194.296 119.336C194.632 119.56 194.8 119.968 194.8 120.56C194.8 121.152 194.632 121.568 194.296 121.808C193.976 122.048 193.584 122.168 193.12 122.168C192.656 122.168 192.256 122.048 191.92 121.808C191.6 121.568 191.44 121.152 191.44 120.56C191.44 119.968 191.6 119.56 191.92 119.336C192.256 119.096 192.656 118.976 193.12 118.976ZM194.632 123.992V137H191.608V123.992H194.632ZM205.243 126.272H202.099V137H199.075V126.272H196.987V124.832L199.075 123.968V123.08C199.075 121.416 199.467 120.264 200.251 119.624C201.051 118.968 202.139 118.64 203.515 118.64C204.139 118.64 204.707 118.696 205.219 118.808C205.747 118.904 206.179 119.016 206.515 119.144L205.747 121.4C205.475 121.32 205.171 121.248 204.835 121.184C204.515 121.104 204.163 121.064 203.779 121.064C203.203 121.064 202.779 121.248 202.507 121.616C202.235 121.968 202.099 122.48 202.099 123.152V123.992H205.243V126.272ZM212.637 123.752C214.381 123.752 215.757 124.272 216.765 125.312C217.789 126.352 218.301 127.8 218.301 129.656V131.192H209.709C209.741 132.376 210.069 133.296 210.693 133.952C211.317 134.592 212.181 134.912 213.285 134.912C214.117 134.912 214.869 134.832 215.541 134.672C216.213 134.496 216.901 134.248 217.605 133.928V136.352C216.965 136.656 216.301 136.88 215.613 137.024C214.925 137.168 214.101 137.24 213.141 137.24C211.877 137.24 210.749 137 209.757 136.52C208.781 136.024 208.013 135.28 207.453 134.288C206.909 133.296 206.637 132.064 206.637 130.592C206.637 128.368 207.189 126.672 208.293 125.504C209.397 124.336 210.845 123.752 212.637 123.752ZM212.637 125.984C211.821 125.984 211.157 126.248 210.645 126.776C210.149 127.288 209.861 128.056 209.781 129.08H215.373C215.357 128.184 215.125 127.448 214.677 126.872C214.245 126.28 213.565 125.984 212.637 125.984ZM236.441 133.232C236.441 134.544 235.969 135.544 235.025 136.232C234.097 136.904 232.761 137.24 231.017 137.24C230.105 137.24 229.321 137.176 228.665 137.048C228.025 136.92 227.401 136.72 226.793 136.448V133.88C227.433 134.184 228.137 134.44 228.905 134.648C229.689 134.856 230.425 134.96 231.113 134.96C231.945 134.96 232.545 134.832 232.913 134.576C233.281 134.32 233.465 133.976 233.465 133.544C233.465 133.288 233.393 133.064 233.249 132.872C233.105 132.664 232.817 132.44 232.385 132.2C231.969 131.96 231.345 131.664 230.513 131.312C229.681 130.992 228.985 130.664 228.425 130.328C227.881 129.976 227.465 129.568 227.177 129.104C226.905 128.64 226.769 128.04 226.769 127.304C226.769 126.136 227.225 125.256 228.137 124.664C229.065 124.056 230.297 123.752 231.833 123.752C232.633 123.752 233.385 123.832 234.089 123.992C234.809 124.152 235.529 124.392 236.249 124.712L235.289 126.944C234.681 126.688 234.089 126.472 233.513 126.296C232.937 126.12 232.345 126.032 231.737 126.032C230.409 126.032 229.745 126.408 229.745 127.16C229.745 127.432 229.825 127.664 229.985 127.856C230.161 128.048 230.457 128.256 230.873 128.48C231.305 128.688 231.913 128.944 232.697 129.248C233.465 129.552 234.129 129.872 234.689 130.208C235.249 130.528 235.681 130.928 235.985 131.408C236.289 131.888 236.441 132.496 236.441 133.232ZM244.534 123.752C246.214 123.752 247.486 124.12 248.35 124.856C249.23 125.592 249.67 126.728 249.67 128.264V137H247.534L246.934 135.2H246.838C246.278 135.904 245.686 136.424 245.062 136.76C244.438 137.08 243.59 137.24 242.518 137.24C241.35 137.24 240.382 136.912 239.614 136.256C238.846 135.6 238.462 134.584 238.462 133.208C238.462 131.864 238.95 130.856 239.926 130.184C240.918 129.512 242.414 129.136 244.414 129.056L246.67 128.984V128.336C246.67 127.52 246.47 126.936 246.07 126.584C245.67 126.216 245.11 126.032 244.39 126.032C243.734 126.032 243.102 126.128 242.494 126.32C241.902 126.512 241.31 126.736 240.718 126.992L239.758 124.88C240.398 124.544 241.126 124.272 241.942 124.064C242.774 123.856 243.638 123.752 244.534 123.752ZM246.67 130.856L245.086 130.904C243.758 130.952 242.838 131.184 242.326 131.6C241.814 132 241.558 132.544 241.558 133.232C241.558 133.856 241.734 134.304 242.086 134.576C242.454 134.832 242.934 134.96 243.526 134.96C244.406 134.96 245.15 134.712 245.758 134.216C246.366 133.704 246.67 132.952 246.67 131.96V130.856ZM256.46 137L251.516 123.992H254.708L257.3 131.504C257.46 131.968 257.604 132.48 257.732 133.04C257.876 133.6 257.964 134.072 257.996 134.456H258.092C258.14 134.056 258.236 133.584 258.38 133.04C258.524 132.48 258.676 131.968 258.836 131.504L261.428 123.992H264.62L259.676 137H256.46ZM268.073 118.976C268.537 118.976 268.929 119.096 269.249 119.336C269.585 119.56 269.753 119.968 269.753 120.56C269.753 121.152 269.585 121.568 269.249 121.808C268.929 122.048 268.537 122.168 268.073 122.168C267.609 122.168 267.209 122.048 266.873 121.808C266.553 121.568 266.393 121.152 266.393 120.56C266.393 119.968 266.553 119.56 266.873 119.336C267.209 119.096 267.609 118.976 268.073 118.976ZM269.585 123.992V137H266.561V123.992H269.585ZM280.412 123.752C281.868 123.752 283.004 124.128 283.82 124.88C284.652 125.632 285.068 126.848 285.068 128.528V137H282.044V129.128C282.044 127.176 281.244 126.2 279.644 126.2C278.428 126.2 277.596 126.584 277.148 127.352C276.7 128.12 276.476 129.216 276.476 130.64V137H273.452V123.992H275.78L276.212 125.696H276.38C276.796 125.024 277.364 124.536 278.084 124.232C278.82 123.912 279.596 123.752 280.412 123.752ZM293.218 123.752C294.866 123.752 296.154 124.392 297.082 125.672H297.202L297.49 123.992H300.01V137.096C300.01 138.952 299.482 140.36 298.426 141.32C297.386 142.28 295.826 142.76 293.746 142.76C292.818 142.76 291.962 142.696 291.178 142.568C290.394 142.456 289.65 142.256 288.946 141.968V139.472C290.434 140.144 292.098 140.48 293.938 140.48C294.93 140.48 295.682 140.2 296.194 139.64C296.722 139.096 296.986 138.296 296.986 137.24V136.904C296.986 136.664 296.994 136.384 297.01 136.064C297.026 135.744 297.05 135.488 297.082 135.296H296.986C296.538 135.968 295.986 136.464 295.33 136.784C294.69 137.088 293.962 137.24 293.146 137.24C291.562 137.24 290.322 136.648 289.426 135.464C288.53 134.28 288.082 132.632 288.082 130.52C288.082 128.408 288.53 126.752 289.426 125.552C290.338 124.352 291.602 123.752 293.218 123.752ZM294.01 126.224C292.122 126.224 291.178 127.672 291.178 130.568C291.178 133.416 292.138 134.84 294.058 134.84C295.114 134.84 295.89 134.552 296.386 133.976C296.898 133.384 297.154 132.392 297.154 131V130.544C297.154 129.008 296.898 127.904 296.386 127.232C295.89 126.56 295.098 126.224 294.01 126.224ZM312.73 133.232C312.73 134.544 312.258 135.544 311.314 136.232C310.386 136.904 309.05 137.24 307.306 137.24C306.394 137.24 305.61 137.176 304.954 137.048C304.314 136.92 303.69 136.72 303.082 136.448V133.88C303.722 134.184 304.426 134.44 305.194 134.648C305.978 134.856 306.714 134.96 307.402 134.96C308.234 134.96 308.834 134.832 309.202 134.576C309.57 134.32 309.754 133.976 309.754 133.544C309.754 133.288 309.682 133.064 309.538 132.872C309.394 132.664 309.106 132.44 308.674 132.2C308.258 131.96 307.634 131.664 306.802 131.312C305.97 130.992 305.274 130.664 304.714 130.328C304.17 129.976 303.754 129.568 303.466 129.104C303.194 128.64 303.058 128.04 303.058 127.304C303.058 126.136 303.514 125.256 304.426 124.664C305.354 124.056 306.586 123.752 308.122 123.752C308.922 123.752 309.674 123.832 310.378 123.992C311.098 124.152 311.818 124.392 312.538 124.712L311.578 126.944C310.97 126.688 310.378 126.472 309.802 126.296C309.226 126.12 308.634 126.032 308.026 126.032C306.698 126.032 306.034 126.408 306.034 127.16C306.034 127.432 306.114 127.664 306.274 127.856C306.45 128.048 306.746 128.256 307.162 128.48C307.594 128.688 308.202 128.944 308.986 129.248C309.754 129.552 310.418 129.872 310.978 130.208C311.538 130.528 311.97 130.928 312.274 131.408C312.578 131.888 312.73 132.496 312.73 133.232ZM315.207 135.464C315.207 134.792 315.383 134.32 315.735 134.048C316.087 133.76 316.519 133.616 317.031 133.616C317.527 133.616 317.959 133.76 318.327 134.048C318.695 134.32 318.879 134.792 318.879 135.464C318.879 136.12 318.695 136.592 318.327 136.88C317.959 137.168 317.527 137.312 317.031 137.312C316.519 137.312 316.087 137.168 315.735 136.88C315.383 136.592 315.207 136.12 315.207 135.464Z" fill="#141414"/>
</svg>
