<svg width="224" height="123" viewBox="0 0 224 123" fill="none" xmlns="http://www.w3.org/2000/svg">
<rect x="2" y="5" width="222" height="118" rx="50" fill="#141414"/>
<rect x="1.5" y="1.5" width="219" height="115" rx="48.5" fill="#52BDF9" stroke="#141414" stroke-width="3"/>
<path d="M90.264 71.248C90.264 72.768 89.712 73.984 88.608 74.896C87.52 75.792 85.968 76.24 83.952 76.24C82.144 76.24 80.528 75.896 79.104 75.208V71.824C79.92 72.176 80.76 72.504 81.624 72.808C82.504 73.096 83.376 73.24 84.24 73.24C85.136 73.24 85.768 73.072 86.136 72.736C86.52 72.384 86.712 71.944 86.712 71.416C86.712 70.984 86.56 70.616 86.256 70.312C85.968 70.008 85.576 69.728 85.08 69.472C84.584 69.2 84.016 68.912 83.376 68.608C82.976 68.416 82.544 68.192 82.08 67.936C81.616 67.664 81.168 67.336 80.736 66.952C80.32 66.552 79.976 66.072 79.704 65.512C79.432 64.952 79.296 64.28 79.296 63.496C79.296 61.96 79.816 60.768 80.856 59.92C81.896 59.056 83.312 58.624 85.104 58.624C86 58.624 86.848 58.728 87.648 58.936C88.464 59.144 89.312 59.44 90.192 59.824L89.016 62.656C88.232 62.336 87.528 62.088 86.904 61.912C86.28 61.736 85.64 61.648 84.984 61.648C84.296 61.648 83.768 61.808 83.4 62.128C83.032 62.448 82.848 62.864 82.848 63.376C82.848 63.984 83.12 64.464 83.664 64.816C84.208 65.168 85.016 65.6 86.088 66.112C86.968 66.528 87.712 66.96 88.32 67.408C88.944 67.856 89.424 68.384 89.76 68.992C90.096 69.6 90.264 70.352 90.264 71.248ZM98.4668 62.632C100.227 62.632 101.571 63.016 102.499 63.784C103.443 64.536 103.915 65.696 103.915 67.264V76H101.419L100.723 74.224H100.627C100.067 74.928 99.4748 75.44 98.8508 75.76C98.2268 76.08 97.3708 76.24 96.2828 76.24C95.1148 76.24 94.1468 75.904 93.3788 75.232C92.6108 74.544 92.2268 73.496 92.2268 72.088C92.2268 70.696 92.7148 69.672 93.6908 69.016C94.6668 68.344 96.1308 67.976 98.0828 67.912L100.363 67.84V67.264C100.363 66.576 100.179 66.072 99.8108 65.752C99.4588 65.432 98.9628 65.272 98.3228 65.272C97.6828 65.272 97.0588 65.368 96.4508 65.56C95.8428 65.736 95.2348 65.96 94.6268 66.232L93.4508 63.808C94.1548 63.44 94.9308 63.152 95.7788 62.944C96.6428 62.736 97.5388 62.632 98.4668 62.632ZM100.363 69.928L98.9708 69.976C97.8188 70.008 97.0188 70.216 96.5708 70.6C96.1228 70.984 95.8988 71.488 95.8988 72.112C95.8988 72.656 96.0588 73.048 96.3788 73.288C96.6988 73.512 97.1148 73.624 97.6268 73.624C98.3948 73.624 99.0428 73.4 99.5708 72.952C100.099 72.488 100.363 71.84 100.363 71.008V69.928ZM105.703 62.896H109.615L112.087 70.264C112.215 70.616 112.311 70.984 112.375 71.368C112.439 71.736 112.487 72.128 112.519 72.544H112.591C112.639 72.128 112.703 71.736 112.783 71.368C112.879 70.984 112.983 70.616 113.095 70.264L115.519 62.896H119.359L113.815 77.68C113.319 79.04 112.591 80.056 111.631 80.728C110.687 81.416 109.591 81.76 108.343 81.76C107.943 81.76 107.591 81.736 107.287 81.688C106.999 81.656 106.743 81.616 106.519 81.568V78.736C106.695 78.768 106.903 78.8 107.143 78.832C107.399 78.864 107.663 78.88 107.935 78.88C108.687 78.88 109.279 78.648 109.711 78.184C110.159 77.736 110.487 77.192 110.695 76.552L110.911 75.904L105.703 62.896ZM129.274 57.76C129.802 57.76 130.258 57.888 130.642 58.144C131.026 58.384 131.218 58.84 131.218 59.512C131.218 60.168 131.026 60.624 130.642 60.88C130.258 61.136 129.802 61.264 129.274 61.264C128.73 61.264 128.266 61.136 127.882 60.88C127.514 60.624 127.33 60.168 127.33 59.512C127.33 58.84 127.514 58.384 127.882 58.144C128.266 57.888 128.73 57.76 129.274 57.76ZM131.05 62.896V76H127.474V62.896H131.05ZM140.306 73.384C140.706 73.384 141.09 73.344 141.458 73.264C141.826 73.184 142.194 73.088 142.562 72.976V75.64C142.178 75.8 141.698 75.936 141.122 76.048C140.562 76.176 139.946 76.24 139.274 76.24C138.49 76.24 137.786 76.112 137.162 75.856C136.554 75.6 136.066 75.16 135.698 74.536C135.346 73.896 135.17 73.016 135.17 71.896V65.584H133.466V64.072L135.434 62.872L136.466 60.112H138.746V62.896H142.418V65.584H138.746V71.896C138.746 72.392 138.89 72.768 139.178 73.024C139.466 73.264 139.842 73.384 140.306 73.384Z" fill="#333333"/>
<rect x="29" y="15" width="163" height="16" rx="8" fill="#A5DCFB"/>
</svg>
