<svg width="736" height="140" viewBox="0 0 736 140" fill="none" xmlns="http://www.w3.org/2000/svg">
<rect x="1.5" y="1.5" width="733" height="137" rx="48.5" fill="#D1F2FD" stroke="black" stroke-width="3"/>
<path d="M48.376 58H45.304V43.456H40.384V40.864H53.296V43.456H48.376V58ZM58.6555 39.76V44.104C58.6555 44.616 58.6315 45.12 58.5835 45.616C58.5515 46.096 58.5195 46.456 58.4875 46.696H58.6795C59.0955 46.04 59.6395 45.552 60.3115 45.232C60.9835 44.912 61.7275 44.752 62.5435 44.752C64.0155 44.752 65.1675 45.128 65.9995 45.88C66.8315 46.632 67.2475 47.848 67.2475 49.528V58H64.2235V50.128C64.2235 48.176 63.4235 47.2 61.8235 47.2C60.6075 47.2 59.7755 47.584 59.3275 48.352C58.8795 49.12 58.6555 50.216 58.6555 51.64V58H55.6315V39.76H58.6555ZM72.5419 39.976C73.0059 39.976 73.3979 40.096 73.7179 40.336C74.0539 40.56 74.2219 40.968 74.2219 41.56C74.2219 42.152 74.0539 42.568 73.7179 42.808C73.3979 43.048 73.0059 43.168 72.5419 43.168C72.0779 43.168 71.6779 43.048 71.3419 42.808C71.0219 42.568 70.8619 42.152 70.8619 41.56C70.8619 40.968 71.0219 40.56 71.3419 40.336C71.6779 40.096 72.0779 39.976 72.5419 39.976ZM74.0539 44.992V58H71.0299V44.992H74.0539ZM86.7766 54.232C86.7766 55.544 86.3046 56.544 85.3606 57.232C84.4326 57.904 83.0966 58.24 81.3526 58.24C80.4406 58.24 79.6566 58.176 79.0006 58.048C78.3606 57.92 77.7366 57.72 77.1286 57.448V54.88C77.7686 55.184 78.4726 55.44 79.2406 55.648C80.0246 55.856 80.7606 55.96 81.4486 55.96C82.2806 55.96 82.8806 55.832 83.2486 55.576C83.6166 55.32 83.8006 54.976 83.8006 54.544C83.8006 54.288 83.7286 54.064 83.5846 53.872C83.4406 53.664 83.1526 53.44 82.7206 53.2C82.3046 52.96 81.6806 52.664 80.8486 52.312C80.0166 51.992 79.3206 51.664 78.7606 51.328C78.2166 50.976 77.8006 50.568 77.5126 50.104C77.2406 49.64 77.1046 49.04 77.1046 48.304C77.1046 47.136 77.5606 46.256 78.4726 45.664C79.4006 45.056 80.6326 44.752 82.1686 44.752C82.9686 44.752 83.7206 44.832 84.4246 44.992C85.1446 45.152 85.8646 45.392 86.5846 45.712L85.6246 47.944C85.0166 47.688 84.4246 47.472 83.8486 47.296C83.2726 47.12 82.6806 47.032 82.0726 47.032C80.7446 47.032 80.0806 47.408 80.0806 48.16C80.0806 48.432 80.1606 48.664 80.3206 48.856C80.4966 49.048 80.7926 49.256 81.2086 49.48C81.6406 49.688 82.2486 49.944 83.0326 50.248C83.8006 50.552 84.4646 50.872 85.0246 51.208C85.5846 51.528 86.0166 51.928 86.3206 52.408C86.6246 52.888 86.7766 53.496 86.7766 54.232ZM106.577 58L105.137 52.408C105.057 52.104 104.961 51.728 104.849 51.28C104.737 50.816 104.617 50.336 104.489 49.84C104.377 49.344 104.273 48.888 104.177 48.472C104.081 48.056 104.009 47.736 103.961 47.512H103.865C103.817 47.736 103.745 48.056 103.649 48.472C103.553 48.888 103.449 49.352 103.337 49.864C103.225 50.36 103.105 50.84 102.977 51.304C102.865 51.752 102.769 52.128 102.689 52.432L101.177 58H97.8646L94.2166 44.968H97.2646L98.8726 51.184C98.9846 51.616 99.0886 52.096 99.1846 52.624C99.2966 53.136 99.3846 53.64 99.4486 54.136C99.5286 54.616 99.5926 55.008 99.6406 55.312H99.7366C99.7686 55.024 99.8246 54.632 99.9046 54.136C100.001 53.64 100.097 53.16 100.193 52.696C100.289 52.216 100.369 51.856 100.433 51.616L102.305 44.968H105.617L107.417 51.616C107.481 51.904 107.561 52.28 107.657 52.744C107.769 53.208 107.865 53.68 107.945 54.16C108.025 54.624 108.073 55 108.089 55.288H108.185C108.217 55.032 108.273 54.664 108.353 54.184C108.433 53.704 108.529 53.192 108.641 52.648C108.753 52.104 108.873 51.616 109.001 51.184L110.633 44.968H113.633L109.937 58H106.577ZM121.074 44.752C122.818 44.752 124.194 45.272 125.202 46.312C126.226 47.352 126.738 48.8 126.738 50.656V52.192H118.146C118.178 53.376 118.506 54.296 119.13 54.952C119.754 55.592 120.618 55.912 121.722 55.912C122.554 55.912 123.306 55.832 123.978 55.672C124.65 55.496 125.338 55.248 126.042 54.928V57.352C125.402 57.656 124.738 57.88 124.05 58.024C123.362 58.168 122.538 58.24 121.578 58.24C120.314 58.24 119.186 58 118.194 57.52C117.218 57.024 116.45 56.28 115.89 55.288C115.346 54.296 115.074 53.064 115.074 51.592C115.074 49.368 115.626 47.672 116.73 46.504C117.834 45.336 119.282 44.752 121.074 44.752ZM121.074 46.984C120.258 46.984 119.594 47.248 119.082 47.776C118.586 48.288 118.298 49.056 118.218 50.08H123.81C123.794 49.184 123.562 48.448 123.114 47.872C122.682 47.28 122.002 46.984 121.074 46.984ZM132.812 39.76V44.08C132.812 44.592 132.796 45.088 132.764 45.568C132.732 46.048 132.7 46.424 132.668 46.696H132.812C133.164 46.152 133.644 45.696 134.252 45.328C134.86 44.944 135.652 44.752 136.628 44.752C138.132 44.752 139.348 45.32 140.276 46.456C141.22 47.592 141.692 49.264 141.692 51.472C141.692 53.712 141.22 55.4 140.276 56.536C139.332 57.672 138.092 58.24 136.556 58.24C135.58 58.24 134.796 58.064 134.204 57.712C133.628 57.36 133.164 56.952 132.812 56.488H132.596L132.044 58H129.788V39.76H132.812ZM135.764 47.2C134.676 47.2 133.916 47.528 133.484 48.184C133.052 48.84 132.828 49.848 132.812 51.208V51.472C132.812 52.864 133.02 53.928 133.436 54.664C133.868 55.4 134.66 55.768 135.812 55.768C136.708 55.768 137.396 55.4 137.876 54.664C138.356 53.912 138.596 52.84 138.596 51.448C138.596 50.024 138.348 48.96 137.852 48.256C137.372 47.552 136.676 47.2 135.764 47.2ZM153.667 54.232C153.667 55.544 153.195 56.544 152.251 57.232C151.323 57.904 149.987 58.24 148.243 58.24C147.331 58.24 146.547 58.176 145.891 58.048C145.251 57.92 144.627 57.72 144.019 57.448V54.88C144.659 55.184 145.363 55.44 146.131 55.648C146.915 55.856 147.651 55.96 148.339 55.96C149.171 55.96 149.771 55.832 150.139 55.576C150.507 55.32 150.691 54.976 150.691 54.544C150.691 54.288 150.619 54.064 150.475 53.872C150.331 53.664 150.043 53.44 149.611 53.2C149.195 52.96 148.571 52.664 147.739 52.312C146.907 51.992 146.211 51.664 145.651 51.328C145.107 50.976 144.691 50.568 144.403 50.104C144.131 49.64 143.995 49.04 143.995 48.304C143.995 47.136 144.451 46.256 145.363 45.664C146.291 45.056 147.523 44.752 149.059 44.752C149.859 44.752 150.611 44.832 151.315 44.992C152.035 45.152 152.755 45.392 153.475 45.712L152.515 47.944C151.907 47.688 151.315 47.472 150.739 47.296C150.163 47.12 149.571 47.032 148.963 47.032C147.635 47.032 146.971 47.408 146.971 48.16C146.971 48.432 147.051 48.664 147.211 48.856C147.387 49.048 147.683 49.256 148.099 49.48C148.531 49.688 149.139 49.944 149.923 50.248C150.691 50.552 151.355 50.872 151.915 51.208C152.475 51.528 152.907 51.928 153.211 52.408C153.515 52.888 153.667 53.496 153.667 54.232ZM158.089 39.976C158.553 39.976 158.945 40.096 159.265 40.336C159.601 40.56 159.769 40.968 159.769 41.56C159.769 42.152 159.601 42.568 159.265 42.808C158.945 43.048 158.553 43.168 158.089 43.168C157.625 43.168 157.225 43.048 156.889 42.808C156.569 42.568 156.409 42.152 156.409 41.56C156.409 40.968 156.569 40.56 156.889 40.336C157.225 40.096 157.625 39.976 158.089 39.976ZM159.601 44.992V58H156.577V44.992H159.601ZM168.507 55.816C168.875 55.816 169.235 55.784 169.587 55.72C169.955 55.64 170.291 55.552 170.595 55.456V57.712C170.275 57.856 169.859 57.976 169.347 58.072C168.835 58.184 168.299 58.24 167.739 58.24C167.003 58.24 166.331 58.12 165.723 57.88C165.115 57.624 164.635 57.192 164.283 56.584C163.931 55.976 163.755 55.128 163.755 54.04V47.272H162.003V45.952L163.923 44.896L164.883 42.136H166.779V44.992H170.475V47.272H166.779V54.016C166.779 54.624 166.939 55.08 167.259 55.384C167.579 55.672 167.995 55.816 168.507 55.816ZM178.449 44.752C180.193 44.752 181.569 45.272 182.577 46.312C183.601 47.352 184.113 48.8 184.113 50.656V52.192H175.521C175.553 53.376 175.881 54.296 176.505 54.952C177.129 55.592 177.993 55.912 179.097 55.912C179.929 55.912 180.681 55.832 181.353 55.672C182.025 55.496 182.713 55.248 183.417 54.928V57.352C182.777 57.656 182.113 57.88 181.425 58.024C180.737 58.168 179.913 58.24 178.953 58.24C177.689 58.24 176.561 58 175.569 57.52C174.593 57.024 173.825 56.28 173.265 55.288C172.721 54.296 172.449 53.064 172.449 51.592C172.449 49.368 173.001 47.672 174.105 46.504C175.209 45.336 176.657 44.752 178.449 44.752ZM178.449 46.984C177.633 46.984 176.969 47.248 176.457 47.776C175.961 48.288 175.673 49.056 175.593 50.08H181.185C181.169 49.184 180.937 48.448 180.489 47.872C180.057 47.28 179.377 46.984 178.449 46.984ZM198.437 55.816C198.805 55.816 199.165 55.784 199.517 55.72C199.885 55.64 200.221 55.552 200.525 55.456V57.712C200.205 57.856 199.789 57.976 199.277 58.072C198.765 58.184 198.229 58.24 197.669 58.24C196.933 58.24 196.261 58.12 195.653 57.88C195.045 57.624 194.565 57.192 194.213 56.584C193.861 55.976 193.685 55.128 193.685 54.04V47.272H191.933V45.952L193.853 44.896L194.813 42.136H196.709V44.992H200.405V47.272H196.709V54.016C196.709 54.624 196.869 55.08 197.189 55.384C197.509 55.672 197.925 55.816 198.437 55.816ZM208.379 44.752C210.123 44.752 211.499 45.272 212.507 46.312C213.531 47.352 214.043 48.8 214.043 50.656V52.192H205.451C205.483 53.376 205.811 54.296 206.435 54.952C207.059 55.592 207.923 55.912 209.027 55.912C209.859 55.912 210.611 55.832 211.283 55.672C211.955 55.496 212.643 55.248 213.347 54.928V57.352C212.707 57.656 212.043 57.88 211.355 58.024C210.667 58.168 209.843 58.24 208.883 58.24C207.619 58.24 206.491 58 205.499 57.52C204.523 57.024 203.755 56.28 203.195 55.288C202.651 54.296 202.379 53.064 202.379 51.592C202.379 49.368 202.931 47.672 204.035 46.504C205.139 45.336 206.587 44.752 208.379 44.752ZM208.379 46.984C207.563 46.984 206.899 47.248 206.387 47.776C205.891 48.288 205.603 49.056 205.523 50.08H211.115C211.099 49.184 210.867 48.448 210.419 47.872C209.987 47.28 209.307 46.984 208.379 46.984ZM220.116 58H217.092V39.76H220.116V58ZM227.007 58H223.983V39.76H227.007V58ZM239.73 54.232C239.73 55.544 239.258 56.544 238.314 57.232C237.386 57.904 236.05 58.24 234.306 58.24C233.394 58.24 232.61 58.176 231.954 58.048C231.314 57.92 230.69 57.72 230.082 57.448V54.88C230.722 55.184 231.426 55.44 232.194 55.648C232.978 55.856 233.714 55.96 234.402 55.96C235.234 55.96 235.834 55.832 236.202 55.576C236.57 55.32 236.754 54.976 236.754 54.544C236.754 54.288 236.682 54.064 236.538 53.872C236.394 53.664 236.106 53.44 235.674 53.2C235.258 52.96 234.634 52.664 233.802 52.312C232.97 51.992 232.274 51.664 231.714 51.328C231.17 50.976 230.754 50.568 230.466 50.104C230.194 49.64 230.058 49.04 230.058 48.304C230.058 47.136 230.514 46.256 231.426 45.664C232.354 45.056 233.586 44.752 235.122 44.752C235.922 44.752 236.674 44.832 237.378 44.992C238.098 45.152 238.818 45.392 239.538 45.712L238.578 47.944C237.97 47.688 237.378 47.472 236.802 47.296C236.226 47.12 235.634 47.032 235.026 47.032C233.698 47.032 233.034 47.408 233.034 48.16C233.034 48.432 233.114 48.664 233.274 48.856C233.45 49.048 233.746 49.256 234.162 49.48C234.594 49.688 235.202 49.944 235.986 50.248C236.754 50.552 237.418 50.872 237.978 51.208C238.538 51.528 238.97 51.928 239.274 52.408C239.578 52.888 239.73 53.496 239.73 54.232ZM253.914 55.816C254.282 55.816 254.642 55.784 254.994 55.72C255.362 55.64 255.698 55.552 256.002 55.456V57.712C255.682 57.856 255.266 57.976 254.754 58.072C254.242 58.184 253.706 58.24 253.146 58.24C252.41 58.24 251.738 58.12 251.13 57.88C250.522 57.624 250.042 57.192 249.69 56.584C249.338 55.976 249.162 55.128 249.162 54.04V47.272H247.41V45.952L249.33 44.896L250.29 42.136H252.186V44.992H255.882V47.272H252.186V54.016C252.186 54.624 252.346 55.08 252.666 55.384C252.986 55.672 253.402 55.816 253.914 55.816ZM261.648 39.76V44.104C261.648 44.616 261.624 45.12 261.576 45.616C261.544 46.096 261.512 46.456 261.48 46.696H261.672C262.088 46.04 262.632 45.552 263.304 45.232C263.976 44.912 264.72 44.752 265.536 44.752C267.008 44.752 268.16 45.128 268.992 45.88C269.824 46.632 270.24 47.848 270.24 49.528V58H267.216V50.128C267.216 48.176 266.416 47.2 264.816 47.2C263.6 47.2 262.768 47.584 262.32 48.352C261.872 49.12 261.648 50.216 261.648 51.64V58H258.624V39.76H261.648ZM279.254 44.752C280.998 44.752 282.374 45.272 283.382 46.312C284.406 47.352 284.918 48.8 284.918 50.656V52.192H276.326C276.358 53.376 276.686 54.296 277.31 54.952C277.934 55.592 278.798 55.912 279.902 55.912C280.734 55.912 281.486 55.832 282.158 55.672C282.83 55.496 283.518 55.248 284.222 54.928V57.352C283.582 57.656 282.918 57.88 282.23 58.024C281.542 58.168 280.718 58.24 279.758 58.24C278.494 58.24 277.366 58 276.374 57.52C275.398 57.024 274.63 56.28 274.07 55.288C273.526 54.296 273.254 53.064 273.254 51.592C273.254 49.368 273.806 47.672 274.91 46.504C276.014 45.336 277.462 44.752 279.254 44.752ZM279.254 46.984C278.438 46.984 277.774 47.248 277.262 47.776C276.766 48.288 276.478 49.056 276.398 50.08H281.99C281.974 49.184 281.742 48.448 281.294 47.872C280.862 47.28 280.182 46.984 279.254 46.984ZM303.058 54.232C303.058 55.544 302.586 56.544 301.642 57.232C300.714 57.904 299.378 58.24 297.634 58.24C296.722 58.24 295.938 58.176 295.282 58.048C294.642 57.92 294.018 57.72 293.41 57.448V54.88C294.05 55.184 294.754 55.44 295.522 55.648C296.306 55.856 297.042 55.96 297.73 55.96C298.562 55.96 299.162 55.832 299.53 55.576C299.898 55.32 300.082 54.976 300.082 54.544C300.082 54.288 300.01 54.064 299.866 53.872C299.722 53.664 299.434 53.44 299.002 53.2C298.586 52.96 297.962 52.664 297.13 52.312C296.298 51.992 295.602 51.664 295.042 51.328C294.498 50.976 294.082 50.568 293.794 50.104C293.522 49.64 293.386 49.04 293.386 48.304C293.386 47.136 293.842 46.256 294.754 45.664C295.682 45.056 296.914 44.752 298.45 44.752C299.25 44.752 300.002 44.832 300.706 44.992C301.426 45.152 302.146 45.392 302.866 45.712L301.906 47.944C301.298 47.688 300.706 47.472 300.13 47.296C299.554 47.12 298.962 47.032 298.354 47.032C297.026 47.032 296.362 47.408 296.362 48.16C296.362 48.432 296.442 48.664 296.602 48.856C296.778 49.048 297.074 49.256 297.49 49.48C297.922 49.688 298.53 49.944 299.314 50.248C300.082 50.552 300.746 50.872 301.306 51.208C301.866 51.528 302.298 51.928 302.602 52.408C302.906 52.888 303.058 53.496 303.058 54.232ZM311.007 55.816C311.375 55.816 311.735 55.784 312.087 55.72C312.455 55.64 312.791 55.552 313.095 55.456V57.712C312.775 57.856 312.359 57.976 311.847 58.072C311.335 58.184 310.799 58.24 310.239 58.24C309.503 58.24 308.831 58.12 308.223 57.88C307.615 57.624 307.135 57.192 306.783 56.584C306.431 55.976 306.255 55.128 306.255 54.04V47.272H304.503V45.952L306.423 44.896L307.383 42.136H309.279V44.992H312.975V47.272H309.279V54.016C309.279 54.624 309.439 55.08 309.759 55.384C310.079 55.672 310.495 55.816 311.007 55.816ZM327.333 51.472C327.333 53.632 326.773 55.304 325.653 56.488C324.533 57.656 323.013 58.24 321.093 58.24C319.909 58.24 318.853 57.976 317.925 57.448C316.997 56.92 316.269 56.152 315.741 55.144C315.213 54.136 314.949 52.912 314.949 51.472C314.949 49.312 315.501 47.656 316.605 46.504C317.725 45.336 319.245 44.752 321.165 44.752C322.365 44.752 323.429 45.016 324.357 45.544C325.285 46.056 326.013 46.816 326.541 47.824C327.069 48.816 327.333 50.032 327.333 51.472ZM318.045 51.472C318.045 52.848 318.285 53.912 318.765 54.664C319.261 55.416 320.053 55.792 321.141 55.792C322.229 55.792 323.013 55.416 323.493 54.664C323.989 53.912 324.237 52.848 324.237 51.472C324.237 50.096 323.989 49.04 323.493 48.304C323.013 47.568 322.221 47.2 321.117 47.2C320.045 47.2 319.261 47.568 318.765 48.304C318.285 49.04 318.045 50.096 318.045 51.472ZM337.276 44.752C337.484 44.752 337.708 44.76 337.948 44.776C338.204 44.792 338.42 44.824 338.596 44.872L338.332 47.68C338.172 47.648 337.98 47.624 337.756 47.608C337.532 47.576 337.332 47.56 337.156 47.56C336.516 47.56 335.916 47.696 335.356 47.968C334.796 48.224 334.34 48.632 333.988 49.192C333.652 49.736 333.484 50.424 333.484 51.256V58H330.46V44.992H332.788L333.22 47.248H333.364C333.748 46.56 334.276 45.976 334.948 45.496C335.62 45 336.396 44.752 337.276 44.752ZM339.062 44.992H342.351L344.943 52.336C345.119 52.8 345.263 53.256 345.375 53.704C345.487 54.152 345.567 54.608 345.615 55.072H345.711C345.775 54.672 345.871 54.232 345.999 53.752C346.127 53.272 346.271 52.8 346.431 52.336L348.927 44.992H352.191L346.647 59.728C346.151 61.024 345.471 62.016 344.607 62.704C343.759 63.408 342.711 63.76 341.463 63.76C341.063 63.76 340.719 63.736 340.431 63.688C340.143 63.656 339.887 63.616 339.663 63.568V61.168C339.839 61.2 340.047 61.232 340.287 61.264C340.543 61.296 340.807 61.312 341.079 61.312C341.831 61.312 342.423 61.088 342.855 60.64C343.303 60.208 343.647 59.664 343.887 59.008L344.271 57.952L339.062 44.992ZM371.982 51.472C371.982 53.632 371.422 55.304 370.302 56.488C369.182 57.656 367.662 58.24 365.742 58.24C364.558 58.24 363.502 57.976 362.574 57.448C361.646 56.92 360.918 56.152 360.39 55.144C359.862 54.136 359.598 52.912 359.598 51.472C359.598 49.312 360.15 47.656 361.254 46.504C362.374 45.336 363.894 44.752 365.814 44.752C367.014 44.752 368.078 45.016 369.006 45.544C369.934 46.056 370.662 46.816 371.19 47.824C371.718 48.816 371.982 50.032 371.982 51.472ZM362.694 51.472C362.694 52.848 362.934 53.912 363.414 54.664C363.91 55.416 364.702 55.792 365.79 55.792C366.878 55.792 367.662 55.416 368.142 54.664C368.638 53.912 368.886 52.848 368.886 51.472C368.886 50.096 368.638 49.04 368.142 48.304C367.662 47.568 366.87 47.2 365.766 47.2C364.694 47.2 363.91 47.568 363.414 48.304C362.934 49.04 362.694 50.096 362.694 51.472ZM381.852 47.272H378.708V58H375.684V47.272H373.596V45.832L375.684 44.968V44.08C375.684 42.416 376.076 41.264 376.86 40.624C377.66 39.968 378.748 39.64 380.124 39.64C380.748 39.64 381.316 39.696 381.828 39.808C382.356 39.904 382.788 40.016 383.124 40.144L382.356 42.4C382.084 42.32 381.78 42.248 381.444 42.184C381.124 42.104 380.772 42.064 380.388 42.064C379.812 42.064 379.388 42.248 379.116 42.616C378.844 42.968 378.708 43.48 378.708 44.152V44.992H381.852V47.272ZM395.289 55.816C395.657 55.816 396.017 55.784 396.369 55.72C396.737 55.64 397.073 55.552 397.377 55.456V57.712C397.057 57.856 396.641 57.976 396.129 58.072C395.617 58.184 395.081 58.24 394.521 58.24C393.785 58.24 393.113 58.12 392.505 57.88C391.897 57.624 391.417 57.192 391.065 56.584C390.713 55.976 390.537 55.128 390.537 54.04V47.272H388.785V45.952L390.705 44.896L391.665 42.136H393.561V44.992H397.257V47.272H393.561V54.016C393.561 54.624 393.721 55.08 394.041 55.384C394.361 55.672 394.777 55.816 395.289 55.816ZM403.023 39.76V44.104C403.023 44.616 402.999 45.12 402.951 45.616C402.919 46.096 402.887 46.456 402.855 46.696H403.047C403.463 46.04 404.007 45.552 404.679 45.232C405.351 44.912 406.095 44.752 406.911 44.752C408.383 44.752 409.535 45.128 410.367 45.88C411.199 46.632 411.615 47.848 411.615 49.528V58H408.591V50.128C408.591 48.176 407.791 47.2 406.191 47.2C404.975 47.2 404.143 47.584 403.695 48.352C403.247 49.12 403.023 50.216 403.023 51.64V58H399.999V39.76H403.023ZM420.629 44.752C422.373 44.752 423.749 45.272 424.757 46.312C425.781 47.352 426.293 48.8 426.293 50.656V52.192H417.701C417.733 53.376 418.061 54.296 418.685 54.952C419.309 55.592 420.173 55.912 421.277 55.912C422.109 55.912 422.861 55.832 423.533 55.672C424.205 55.496 424.893 55.248 425.597 54.928V57.352C424.957 57.656 424.293 57.88 423.605 58.024C422.917 58.168 422.093 58.24 421.133 58.24C419.869 58.24 418.741 58 417.749 57.52C416.773 57.024 416.005 56.28 415.445 55.288C414.901 54.296 414.629 53.064 414.629 51.592C414.629 49.368 415.181 47.672 416.285 46.504C417.389 45.336 418.837 44.752 420.629 44.752ZM420.629 46.984C419.813 46.984 419.149 47.248 418.637 47.776C418.141 48.288 417.853 49.056 417.773 50.08H423.365C423.349 49.184 423.117 48.448 422.669 47.872C422.237 47.28 421.557 46.984 420.629 46.984ZM446.449 58L444.889 53.464H438.433L436.897 58H433.633L439.921 40.792H443.425L449.713 58H446.449ZM444.097 50.824L442.609 46.408C442.545 46.184 442.449 45.88 442.321 45.496C442.193 45.112 442.065 44.72 441.937 44.32C441.825 43.904 441.737 43.56 441.673 43.288C441.593 43.608 441.489 43.976 441.361 44.392C441.249 44.808 441.137 45.2 441.025 45.568C440.913 45.936 440.833 46.216 440.785 46.408L439.273 50.824H444.097ZM460.534 54.232C460.534 55.544 460.062 56.544 459.118 57.232C458.19 57.904 456.854 58.24 455.11 58.24C454.198 58.24 453.414 58.176 452.758 58.048C452.118 57.92 451.494 57.72 450.886 57.448V54.88C451.526 55.184 452.23 55.44 452.998 55.648C453.782 55.856 454.518 55.96 455.206 55.96C456.038 55.96 456.638 55.832 457.006 55.576C457.374 55.32 457.558 54.976 457.558 54.544C457.558 54.288 457.486 54.064 457.342 53.872C457.198 53.664 456.91 53.44 456.478 53.2C456.062 52.96 455.438 52.664 454.606 52.312C453.774 51.992 453.078 51.664 452.518 51.328C451.974 50.976 451.558 50.568 451.27 50.104C450.998 49.64 450.862 49.04 450.862 48.304C450.862 47.136 451.318 46.256 452.23 45.664C453.158 45.056 454.39 44.752 455.926 44.752C456.726 44.752 457.478 44.832 458.182 44.992C458.902 45.152 459.622 45.392 460.342 45.712L459.382 47.944C458.774 47.688 458.182 47.472 457.606 47.296C457.03 47.12 456.438 47.032 455.83 47.032C454.502 47.032 453.838 47.408 453.838 48.16C453.838 48.432 453.918 48.664 454.078 48.856C454.254 49.048 454.55 49.256 454.966 49.48C455.398 49.688 456.006 49.944 456.79 50.248C457.558 50.552 458.222 50.872 458.782 51.208C459.342 51.528 459.774 51.928 460.078 52.408C460.382 52.888 460.534 53.496 460.534 54.232ZM466.468 39.76V44.104C466.468 44.616 466.444 45.12 466.396 45.616C466.364 46.096 466.332 46.456 466.3 46.696H466.492C466.908 46.04 467.452 45.552 468.124 45.232C468.796 44.912 469.54 44.752 470.356 44.752C471.828 44.752 472.98 45.128 473.812 45.88C474.644 46.632 475.06 47.848 475.06 49.528V58H472.036V50.128C472.036 48.176 471.236 47.2 469.636 47.2C468.42 47.2 467.588 47.584 467.14 48.352C466.692 49.12 466.468 50.216 466.468 51.64V58H463.444V39.76H466.468ZM481.866 58H478.842V39.76H481.866V58ZM490.965 44.752C492.709 44.752 494.085 45.272 495.093 46.312C496.117 47.352 496.629 48.8 496.629 50.656V52.192H488.037C488.069 53.376 488.397 54.296 489.021 54.952C489.645 55.592 490.509 55.912 491.613 55.912C492.445 55.912 493.197 55.832 493.869 55.672C494.541 55.496 495.229 55.248 495.933 54.928V57.352C495.293 57.656 494.629 57.88 493.941 58.024C493.253 58.168 492.429 58.24 491.469 58.24C490.205 58.24 489.077 58 488.085 57.52C487.109 57.024 486.341 56.28 485.781 55.288C485.237 54.296 484.965 53.064 484.965 51.592C484.965 49.368 485.517 47.672 486.621 46.504C487.725 45.336 489.173 44.752 490.965 44.752ZM490.965 46.984C490.149 46.984 489.485 47.248 488.973 47.776C488.477 48.288 488.189 49.056 488.109 50.08H493.701C493.685 49.184 493.453 48.448 493.005 47.872C492.573 47.28 491.893 46.984 490.965 46.984ZM497.266 44.992H500.554L503.146 52.336C503.322 52.8 503.466 53.256 503.578 53.704C503.69 54.152 503.77 54.608 503.818 55.072H503.914C503.978 54.672 504.074 54.232 504.202 53.752C504.33 53.272 504.474 52.8 504.634 52.336L507.13 44.992H510.394L504.85 59.728C504.354 61.024 503.674 62.016 502.81 62.704C501.962 63.408 500.914 63.76 499.666 63.76C499.266 63.76 498.922 63.736 498.634 63.688C498.346 63.656 498.09 63.616 497.866 63.568V61.168C498.042 61.2 498.25 61.232 498.49 61.264C498.746 61.296 499.01 61.312 499.282 61.312C500.034 61.312 500.626 61.088 501.058 60.64C501.506 60.208 501.85 59.664 502.09 59.008L502.474 57.952L497.266 44.992ZM526.225 58L521.521 43.96H521.425C521.441 44.28 521.465 44.736 521.497 45.328C521.529 45.904 521.553 46.536 521.569 47.224C521.601 47.896 521.617 48.528 521.617 49.12V58H518.857V40.864H523.129L527.641 54.328H527.737L532.441 40.864H536.713V58H533.785V48.976C533.785 48.432 533.793 47.84 533.809 47.2C533.841 46.544 533.865 45.928 533.881 45.352C533.913 44.776 533.937 44.32 533.953 43.984H533.857L528.961 58H526.225ZM546.042 44.752C547.722 44.752 548.994 45.12 549.858 45.856C550.738 46.592 551.178 47.728 551.178 49.264V58H549.042L548.442 56.2H548.346C547.786 56.904 547.194 57.424 546.57 57.76C545.946 58.08 545.098 58.24 544.026 58.24C542.858 58.24 541.89 57.912 541.122 57.256C540.354 56.6 539.97 55.584 539.97 54.208C539.97 52.864 540.458 51.856 541.434 51.184C542.426 50.512 543.922 50.136 545.922 50.056L548.178 49.984V49.336C548.178 48.52 547.978 47.936 547.578 47.584C547.178 47.216 546.618 47.032 545.898 47.032C545.242 47.032 544.61 47.128 544.002 47.32C543.41 47.512 542.818 47.736 542.226 47.992L541.266 45.88C541.906 45.544 542.634 45.272 543.45 45.064C544.282 44.856 545.146 44.752 546.042 44.752ZM548.178 51.856L546.594 51.904C545.266 51.952 544.346 52.184 543.834 52.6C543.322 53 543.066 53.544 543.066 54.232C543.066 54.856 543.242 55.304 543.594 55.576C543.962 55.832 544.442 55.96 545.034 55.96C545.914 55.96 546.658 55.712 547.266 55.216C547.874 54.704 548.178 53.952 548.178 52.96V51.856ZM559.263 58.24C557.743 58.24 556.519 57.672 555.591 56.536C554.663 55.4 554.199 53.728 554.199 51.52C554.199 49.28 554.671 47.592 555.615 46.456C556.559 45.32 557.799 44.752 559.335 44.752C560.295 44.752 561.079 44.936 561.687 45.304C562.311 45.672 562.807 46.12 563.175 46.648H563.319C563.271 46.424 563.223 46.08 563.175 45.616C563.127 45.152 563.103 44.72 563.103 44.32V39.76H566.127V58H563.775L563.223 56.296H563.103C562.735 56.84 562.247 57.304 561.639 57.688C561.031 58.056 560.239 58.24 559.263 58.24ZM560.175 55.792C561.295 55.792 562.079 55.472 562.527 54.832C562.991 54.192 563.231 53.224 563.247 51.928V51.544C563.247 50.152 563.023 49.088 562.575 48.352C562.143 47.6 561.327 47.224 560.127 47.224C559.199 47.224 558.487 47.608 557.991 48.376C557.511 49.128 557.271 50.192 557.271 51.568C557.271 52.944 557.519 53.992 558.015 54.712C558.511 55.432 559.231 55.792 560.175 55.792ZM571.503 39.976C571.967 39.976 572.359 40.096 572.679 40.336C573.015 40.56 573.183 40.968 573.183 41.56C573.183 42.152 573.015 42.568 572.679 42.808C572.359 43.048 571.967 43.168 571.503 43.168C571.039 43.168 570.639 43.048 570.303 42.808C569.983 42.568 569.823 42.152 569.823 41.56C569.823 40.968 569.983 40.56 570.303 40.336C570.639 40.096 571.039 39.976 571.503 39.976ZM573.015 44.992V58H569.991V44.992H573.015ZM585.738 54.232C585.738 55.544 585.266 56.544 584.322 57.232C583.394 57.904 582.058 58.24 580.314 58.24C579.402 58.24 578.618 58.176 577.962 58.048C577.322 57.92 576.698 57.72 576.09 57.448V54.88C576.73 55.184 577.434 55.44 578.202 55.648C578.986 55.856 579.722 55.96 580.41 55.96C581.242 55.96 581.842 55.832 582.21 55.576C582.578 55.32 582.762 54.976 582.762 54.544C582.762 54.288 582.69 54.064 582.546 53.872C582.402 53.664 582.114 53.44 581.682 53.2C581.266 52.96 580.642 52.664 579.81 52.312C578.978 51.992 578.282 51.664 577.722 51.328C577.178 50.976 576.762 50.568 576.474 50.104C576.202 49.64 576.066 49.04 576.066 48.304C576.066 47.136 576.522 46.256 577.434 45.664C578.362 45.056 579.594 44.752 581.13 44.752C581.93 44.752 582.682 44.832 583.386 44.992C584.106 45.152 584.826 45.392 585.546 45.712L584.586 47.944C583.978 47.688 583.386 47.472 582.81 47.296C582.234 47.12 581.642 47.032 581.034 47.032C579.706 47.032 579.042 47.408 579.042 48.16C579.042 48.432 579.122 48.664 579.282 48.856C579.458 49.048 579.754 49.256 580.17 49.48C580.602 49.688 581.21 49.944 581.993 50.248C582.762 50.552 583.426 50.872 583.986 51.208C584.546 51.528 584.978 51.928 585.282 52.408C585.586 52.888 585.738 53.496 585.738 54.232ZM600.263 51.472C600.263 53.632 599.703 55.304 598.583 56.488C597.463 57.656 595.943 58.24 594.023 58.24C592.839 58.24 591.783 57.976 590.855 57.448C589.927 56.92 589.199 56.152 588.671 55.144C588.143 54.136 587.879 52.912 587.879 51.472C587.879 49.312 588.431 47.656 589.535 46.504C590.655 45.336 592.175 44.752 594.095 44.752C595.295 44.752 596.359 45.016 597.287 45.544C598.215 46.056 598.943 46.816 599.471 47.824C599.999 48.816 600.263 50.032 600.263 51.472ZM590.975 51.472C590.975 52.848 591.215 53.912 591.695 54.664C592.191 55.416 592.983 55.792 594.071 55.792C595.159 55.792 595.943 55.416 596.423 54.664C596.919 53.912 597.167 52.848 597.167 51.472C597.167 50.096 596.919 49.04 596.423 48.304C595.943 47.568 595.151 47.2 594.047 47.2C592.975 47.2 592.191 47.568 591.695 48.304C591.215 49.04 590.975 50.096 590.975 51.472ZM610.349 44.752C611.805 44.752 612.941 45.128 613.757 45.88C614.589 46.632 615.005 47.848 615.005 49.528V58H611.981V50.128C611.981 48.176 611.181 47.2 609.581 47.2C608.365 47.2 607.533 47.584 607.085 48.352C606.637 49.12 606.413 50.216 606.413 51.64V58H603.389V44.992H605.717L606.149 46.696H606.317C606.733 46.024 607.301 45.536 608.021 45.232C608.757 44.912 609.533 44.752 610.349 44.752ZM628.046 39.76V44.104C628.046 44.616 628.022 45.12 627.974 45.616C627.942 46.096 627.91 46.456 627.878 46.696H628.07C628.486 46.04 629.03 45.552 629.702 45.232C630.374 44.912 631.118 44.752 631.934 44.752C633.406 44.752 634.558 45.128 635.39 45.88C636.222 46.632 636.638 47.848 636.638 49.528V58H633.614V50.128C633.614 48.176 632.814 47.2 631.214 47.2C629.998 47.2 629.166 47.584 628.718 48.352C628.27 49.12 628.046 50.216 628.046 51.64V58H625.022V39.76H628.046ZM645.605 44.752C647.285 44.752 648.557 45.12 649.421 45.856C650.301 46.592 650.741 47.728 650.741 49.264V58H648.605L648.005 56.2H647.909C647.349 56.904 646.757 57.424 646.133 57.76C645.509 58.08 644.661 58.24 643.589 58.24C642.421 58.24 641.453 57.912 640.685 57.256C639.917 56.6 639.533 55.584 639.533 54.208C639.533 52.864 640.021 51.856 640.997 51.184C641.989 50.512 643.485 50.136 645.485 50.056L647.741 49.984V49.336C647.741 48.52 647.541 47.936 647.141 47.584C646.741 47.216 646.181 47.032 645.461 47.032C644.805 47.032 644.173 47.128 643.565 47.32C642.973 47.512 642.381 47.736 641.789 47.992L640.829 45.88C641.469 45.544 642.197 45.272 643.013 45.064C643.845 44.856 644.709 44.752 645.605 44.752ZM647.741 51.856L646.157 51.904C644.829 51.952 643.909 52.184 643.397 52.6C642.885 53 642.629 53.544 642.629 54.232C642.629 54.856 642.805 55.304 643.157 55.576C643.525 55.832 644.005 55.96 644.597 55.96C645.477 55.96 646.221 55.712 646.829 55.216C647.437 54.704 647.741 53.952 647.741 52.96V51.856ZM659.786 58.24C657.914 58.24 656.442 57.704 655.37 56.632C654.298 55.56 653.762 53.872 653.762 51.568C653.762 49.968 654.026 48.672 654.554 47.68C655.098 46.672 655.842 45.936 656.786 45.472C657.73 44.992 658.81 44.752 660.026 44.752C660.842 44.752 661.57 44.832 662.21 44.992C662.85 45.152 663.394 45.344 663.842 45.568L662.954 47.944C662.458 47.752 661.962 47.592 661.466 47.464C660.97 47.32 660.49 47.248 660.026 47.248C657.914 47.248 656.858 48.68 656.858 51.544C656.858 52.936 657.122 53.984 657.65 54.688C658.194 55.392 658.97 55.744 659.978 55.744C660.698 55.744 661.338 55.656 661.898 55.48C662.458 55.304 662.994 55.064 663.506 54.76V57.376C663.01 57.664 662.474 57.88 661.898 58.024C661.338 58.168 660.634 58.24 659.786 58.24ZM669.553 39.76V48.424C669.553 48.84 669.537 49.28 669.505 49.744C669.473 50.208 669.441 50.648 669.409 51.064H669.481C669.673 50.776 669.913 50.448 670.201 50.08C670.489 49.712 670.761 49.384 671.017 49.096L674.857 44.992H678.289L673.081 50.608L678.625 58H675.097L671.065 52.432L669.553 53.68V58H666.553V39.76H669.553ZM47.128 84.752C48.808 84.752 50.08 85.12 50.944 85.856C51.824 86.592 52.264 87.728 52.264 89.264V98H50.128L49.528 96.2H49.432C48.872 96.904 48.28 97.424 47.656 97.76C47.032 98.08 46.184 98.24 45.112 98.24C43.944 98.24 42.976 97.912 42.208 97.256C41.44 96.6 41.056 95.584 41.056 94.208C41.056 92.864 41.544 91.856 42.52 91.184C43.512 90.512 45.008 90.136 47.008 90.056L49.264 89.984V89.336C49.264 88.52 49.064 87.936 48.664 87.584C48.264 87.216 47.704 87.032 46.984 87.032C46.328 87.032 45.696 87.128 45.088 87.32C44.496 87.512 43.904 87.736 43.312 87.992L42.352 85.88C42.992 85.544 43.72 85.272 44.536 85.064C45.368 84.856 46.232 84.752 47.128 84.752ZM49.264 91.856L47.68 91.904C46.352 91.952 45.432 92.184 44.92 92.6C44.408 93 44.152 93.544 44.152 94.232C44.152 94.856 44.328 95.304 44.68 95.576C45.048 95.832 45.528 95.96 46.12 95.96C47 95.96 47.744 95.712 48.352 95.216C48.96 94.704 49.264 93.952 49.264 92.96V91.856ZM63.0134 84.752C64.4694 84.752 65.6054 85.128 66.4214 85.88C67.2534 86.632 67.6694 87.848 67.6694 89.528V98H64.6454V90.128C64.6454 88.176 63.8454 87.2 62.2454 87.2C61.0294 87.2 60.1974 87.584 59.7494 88.352C59.3014 89.12 59.0774 90.216 59.0774 91.64V98H56.0534V84.992H58.3814L58.8134 86.696H58.9814C59.3974 86.024 59.9654 85.536 60.6854 85.232C61.4214 84.912 62.1974 84.752 63.0134 84.752ZM75.7478 98.24C74.2278 98.24 73.0038 97.672 72.0758 96.536C71.1478 95.4 70.6838 93.728 70.6838 91.52C70.6838 89.28 71.1558 87.592 72.0998 86.456C73.0438 85.32 74.2838 84.752 75.8198 84.752C76.7798 84.752 77.5638 84.936 78.1718 85.304C78.7958 85.672 79.2918 86.12 79.6598 86.648H79.8038C79.7558 86.424 79.7078 86.08 79.6598 85.616C79.6118 85.152 79.5878 84.72 79.5878 84.32V79.76H82.6118V98H80.2598L79.7078 96.296H79.5878C79.2198 96.84 78.7318 97.304 78.1238 97.688C77.5158 98.056 76.7238 98.24 75.7478 98.24ZM76.6598 95.792C77.7798 95.792 78.5638 95.472 79.0118 94.832C79.4758 94.192 79.7158 93.224 79.7318 91.928V91.544C79.7318 90.152 79.5078 89.088 79.0598 88.352C78.6278 87.6 77.8118 87.224 76.6118 87.224C75.6838 87.224 74.9718 87.608 74.4758 88.376C73.9958 89.128 73.7558 90.192 73.7558 91.568C73.7558 92.944 74.0038 93.992 74.4998 94.712C74.9958 95.432 75.7158 95.792 76.6598 95.792ZM94.2216 79.976C94.6856 79.976 95.0776 80.096 95.3976 80.336C95.7336 80.56 95.9016 80.968 95.9016 81.56C95.9016 82.152 95.7336 82.568 95.3976 82.808C95.0776 83.048 94.6856 83.168 94.2216 83.168C93.7576 83.168 93.3576 83.048 93.0216 82.808C92.7016 82.568 92.5416 82.152 92.5416 81.56C92.5416 80.968 92.7016 80.56 93.0216 80.336C93.3576 80.096 93.7576 79.976 94.2216 79.976ZM95.7336 84.992V98H92.7096V84.992H95.7336ZM108.456 94.232C108.456 95.544 107.984 96.544 107.04 97.232C106.112 97.904 104.776 98.24 103.032 98.24C102.12 98.24 101.336 98.176 100.68 98.048C100.04 97.92 99.4163 97.72 98.8083 97.448V94.88C99.4483 95.184 100.152 95.44 100.92 95.648C101.704 95.856 102.44 95.96 103.128 95.96C103.96 95.96 104.56 95.832 104.928 95.576C105.296 95.32 105.48 94.976 105.48 94.544C105.48 94.288 105.408 94.064 105.264 93.872C105.12 93.664 104.832 93.44 104.4 93.2C103.984 92.96 103.36 92.664 102.528 92.312C101.696 91.992 101 91.664 100.44 91.328C99.8963 90.976 99.4803 90.568 99.1923 90.104C98.9203 89.64 98.7843 89.04 98.7843 88.304C98.7843 87.136 99.2403 86.256 100.152 85.664C101.08 85.056 102.312 84.752 103.848 84.752C104.648 84.752 105.4 84.832 106.104 84.992C106.824 85.152 107.544 85.392 108.264 85.712L107.304 87.944C106.696 87.688 106.104 87.472 105.528 87.296C104.952 87.12 104.36 87.032 103.752 87.032C102.424 87.032 101.76 87.408 101.76 88.16C101.76 88.432 101.84 88.664 102 88.856C102.176 89.048 102.472 89.256 102.888 89.48C103.32 89.688 103.928 89.944 104.712 90.248C105.48 90.552 106.144 90.872 106.704 91.208C107.264 91.528 107.696 91.928 108 92.408C108.304 92.888 108.456 93.496 108.456 94.232ZM122.856 98.24C120.984 98.24 119.512 97.704 118.44 96.632C117.368 95.56 116.832 93.872 116.832 91.568C116.832 89.968 117.096 88.672 117.624 87.68C118.168 86.672 118.912 85.936 119.856 85.472C120.8 84.992 121.88 84.752 123.096 84.752C123.912 84.752 124.64 84.832 125.28 84.992C125.92 85.152 126.464 85.344 126.912 85.568L126.024 87.944C125.528 87.752 125.032 87.592 124.536 87.464C124.04 87.32 123.56 87.248 123.096 87.248C120.984 87.248 119.928 88.68 119.928 91.544C119.928 92.936 120.192 93.984 120.72 94.688C121.264 95.392 122.04 95.744 123.048 95.744C123.768 95.744 124.408 95.656 124.968 95.48C125.528 95.304 126.064 95.064 126.576 94.76V97.376C126.08 97.664 125.544 97.88 124.968 98.024C124.408 98.168 123.704 98.24 122.856 98.24ZM136.44 84.752C136.648 84.752 136.872 84.76 137.112 84.776C137.368 84.792 137.584 84.824 137.76 84.872L137.496 87.68C137.336 87.648 137.144 87.624 136.92 87.608C136.696 87.576 136.496 87.56 136.32 87.56C135.68 87.56 135.08 87.696 134.52 87.968C133.96 88.224 133.504 88.632 133.152 89.192C132.816 89.736 132.648 90.424 132.648 91.256V98H129.624V84.992H131.952L132.384 87.248H132.528C132.912 86.56 133.44 85.976 134.112 85.496C134.784 85 135.56 84.752 136.44 84.752ZM144.934 84.752C146.678 84.752 148.054 85.272 149.062 86.312C150.086 87.352 150.598 88.8 150.598 90.656V92.192H142.006C142.038 93.376 142.366 94.296 142.99 94.952C143.614 95.592 144.478 95.912 145.582 95.912C146.414 95.912 147.166 95.832 147.838 95.672C148.51 95.496 149.198 95.248 149.902 94.928V97.352C149.262 97.656 148.598 97.88 147.91 98.024C147.222 98.168 146.398 98.24 145.438 98.24C144.174 98.24 143.046 98 142.054 97.52C141.078 97.024 140.31 96.28 139.75 95.288C139.206 94.296 138.934 93.064 138.934 91.592C138.934 89.368 139.486 87.672 140.59 86.504C141.694 85.336 143.142 84.752 144.934 84.752ZM144.934 86.984C144.118 86.984 143.454 87.248 142.942 87.776C142.446 88.288 142.158 89.056 142.078 90.08H147.67C147.654 89.184 147.422 88.448 146.974 87.872C146.542 87.28 145.862 86.984 144.934 86.984ZM158.831 84.752C160.511 84.752 161.783 85.12 162.647 85.856C163.527 86.592 163.967 87.728 163.967 89.264V98H161.831L161.231 96.2H161.135C160.575 96.904 159.983 97.424 159.359 97.76C158.735 98.08 157.887 98.24 156.815 98.24C155.647 98.24 154.679 97.912 153.911 97.256C153.143 96.6 152.759 95.584 152.759 94.208C152.759 92.864 153.247 91.856 154.223 91.184C155.215 90.512 156.711 90.136 158.711 90.056L160.967 89.984V89.336C160.967 88.52 160.767 87.936 160.367 87.584C159.967 87.216 159.407 87.032 158.687 87.032C158.031 87.032 157.399 87.128 156.791 87.32C156.199 87.512 155.607 87.736 155.015 87.992L154.055 85.88C154.695 85.544 155.423 85.272 156.239 85.064C157.071 84.856 157.935 84.752 158.831 84.752ZM160.967 91.856L159.383 91.904C158.055 91.952 157.135 92.184 156.623 92.6C156.111 93 155.855 93.544 155.855 94.232C155.855 94.856 156.031 95.304 156.383 95.576C156.751 95.832 157.231 95.96 157.823 95.96C158.703 95.96 159.447 95.712 160.055 95.216C160.663 94.704 160.967 93.952 160.967 92.96V91.856ZM172.797 95.816C173.165 95.816 173.525 95.784 173.877 95.72C174.245 95.64 174.581 95.552 174.885 95.456V97.712C174.565 97.856 174.149 97.976 173.637 98.072C173.125 98.184 172.589 98.24 172.029 98.24C171.293 98.24 170.621 98.12 170.013 97.88C169.405 97.624 168.925 97.192 168.573 96.584C168.221 95.976 168.045 95.128 168.045 94.04V87.272H166.293V85.952L168.213 84.896L169.173 82.136H171.069V84.992H174.765V87.272H171.069V94.016C171.069 94.624 171.229 95.08 171.549 95.384C171.869 95.672 172.285 95.816 172.797 95.816ZM182.739 84.752C184.483 84.752 185.859 85.272 186.867 86.312C187.891 87.352 188.403 88.8 188.403 90.656V92.192H179.811C179.843 93.376 180.171 94.296 180.795 94.952C181.419 95.592 182.283 95.912 183.387 95.912C184.219 95.912 184.971 95.832 185.643 95.672C186.315 95.496 187.003 95.248 187.707 94.928V97.352C187.067 97.656 186.403 97.88 185.715 98.024C185.027 98.168 184.203 98.24 183.243 98.24C181.979 98.24 180.851 98 179.859 97.52C178.883 97.024 178.115 96.28 177.555 95.288C177.011 94.296 176.739 93.064 176.739 91.592C176.739 89.368 177.291 87.672 178.395 86.504C179.499 85.336 180.947 84.752 182.739 84.752ZM182.739 86.984C181.923 86.984 181.259 87.248 180.747 87.776C180.251 88.288 179.963 89.056 179.883 90.08H185.475C185.459 89.184 185.227 88.448 184.779 87.872C184.347 87.28 183.667 86.984 182.739 86.984ZM195.748 98.24C194.228 98.24 193.004 97.672 192.076 96.536C191.148 95.4 190.684 93.728 190.684 91.52C190.684 89.28 191.156 87.592 192.1 86.456C193.044 85.32 194.284 84.752 195.82 84.752C196.78 84.752 197.564 84.936 198.172 85.304C198.796 85.672 199.292 86.12 199.66 86.648H199.804C199.756 86.424 199.708 86.08 199.66 85.616C199.612 85.152 199.588 84.72 199.588 84.32V79.76H202.612V98H200.26L199.708 96.296H199.588C199.22 96.84 198.732 97.304 198.124 97.688C197.516 98.056 196.724 98.24 195.748 98.24ZM196.66 95.792C197.78 95.792 198.564 95.472 199.012 94.832C199.476 94.192 199.716 93.224 199.732 91.928V91.544C199.732 90.152 199.508 89.088 199.06 88.352C198.628 87.6 197.812 87.224 196.612 87.224C195.684 87.224 194.972 87.608 194.476 88.376C193.996 89.128 193.756 90.192 193.756 91.568C193.756 92.944 194.004 93.992 194.5 94.712C194.996 95.432 195.716 95.792 196.66 95.792ZM217.75 95.816C218.118 95.816 218.478 95.784 218.83 95.72C219.198 95.64 219.534 95.552 219.838 95.456V97.712C219.518 97.856 219.102 97.976 218.59 98.072C218.078 98.184 217.542 98.24 216.982 98.24C216.246 98.24 215.574 98.12 214.966 97.88C214.358 97.624 213.878 97.192 213.526 96.584C213.174 95.976 212.998 95.128 212.998 94.04V87.272H211.246V85.952L213.166 84.896L214.126 82.136H216.022V84.992H219.718V87.272H216.022V94.016C216.022 94.624 216.182 95.08 216.502 95.384C216.822 95.672 217.238 95.816 217.75 95.816ZM234.076 91.472C234.076 93.632 233.516 95.304 232.396 96.488C231.276 97.656 229.756 98.24 227.836 98.24C226.652 98.24 225.596 97.976 224.668 97.448C223.74 96.92 223.012 96.152 222.484 95.144C221.956 94.136 221.692 92.912 221.692 91.472C221.692 89.312 222.244 87.656 223.348 86.504C224.468 85.336 225.988 84.752 227.908 84.752C229.108 84.752 230.172 85.016 231.1 85.544C232.028 86.056 232.756 86.816 233.284 87.824C233.812 88.816 234.076 90.032 234.076 91.472ZM224.788 91.472C224.788 92.848 225.028 93.912 225.508 94.664C226.004 95.416 226.796 95.792 227.884 95.792C228.972 95.792 229.756 95.416 230.236 94.664C230.732 93.912 230.98 92.848 230.98 91.472C230.98 90.096 230.732 89.04 230.236 88.304C229.756 87.568 228.964 87.2 227.86 87.2C226.788 87.2 226.004 87.568 225.508 88.304C225.028 89.04 224.788 90.096 224.788 91.472ZM250.276 84.752C251.796 84.752 253.02 85.32 253.948 86.456C254.876 87.576 255.34 89.248 255.34 91.472C255.34 93.696 254.86 95.384 253.9 96.536C252.956 97.672 251.724 98.24 250.204 98.24C249.244 98.24 248.468 98.064 247.876 97.712C247.284 97.36 246.812 96.952 246.46 96.488H246.268C246.316 96.792 246.356 97.128 246.388 97.496C246.436 97.848 246.46 98.176 246.46 98.48V103.76H243.436V84.992H245.884L246.316 86.72H246.46C246.812 86.176 247.292 85.712 247.9 85.328C248.508 84.944 249.3 84.752 250.276 84.752ZM249.412 87.2C248.34 87.2 247.58 87.52 247.132 88.16C246.7 88.8 246.476 89.768 246.46 91.064V91.448C246.46 92.84 246.668 93.912 247.084 94.664C247.516 95.4 248.308 95.768 249.46 95.768C250.404 95.768 251.1 95.384 251.548 94.616C252.012 93.832 252.244 92.768 252.244 91.424C252.244 90.08 252.012 89.04 251.548 88.304C251.1 87.568 250.388 87.2 249.412 87.2ZM265.276 84.752C265.484 84.752 265.708 84.76 265.948 84.776C266.204 84.792 266.42 84.824 266.596 84.872L266.332 87.68C266.172 87.648 265.98 87.624 265.756 87.608C265.532 87.576 265.332 87.56 265.156 87.56C264.516 87.56 263.916 87.696 263.356 87.968C262.796 88.224 262.34 88.632 261.988 89.192C261.652 89.736 261.484 90.424 261.484 91.256V98H258.46V84.992H260.788L261.22 87.248H261.364C261.748 86.56 262.276 85.976 262.948 85.496C263.62 85 264.396 84.752 265.276 84.752ZM280.154 91.472C280.154 93.632 279.594 95.304 278.474 96.488C277.354 97.656 275.834 98.24 273.914 98.24C272.73 98.24 271.674 97.976 270.746 97.448C269.818 96.92 269.09 96.152 268.562 95.144C268.034 94.136 267.77 92.912 267.77 91.472C267.77 89.312 268.322 87.656 269.426 86.504C270.546 85.336 272.066 84.752 273.986 84.752C275.186 84.752 276.25 85.016 277.178 85.544C278.106 86.056 278.834 86.816 279.362 87.824C279.89 88.816 280.154 90.032 280.154 91.472ZM270.866 91.472C270.866 92.848 271.106 93.912 271.586 94.664C272.082 95.416 272.874 95.792 273.962 95.792C275.05 95.792 275.834 95.416 276.314 94.664C276.81 93.912 277.058 92.848 277.058 91.472C277.058 90.096 276.81 89.04 276.314 88.304C275.834 87.568 275.042 87.2 273.938 87.2C272.866 87.2 272.082 87.568 271.586 88.304C271.106 89.04 270.866 90.096 270.866 91.472ZM288.32 95.816C288.688 95.816 289.048 95.784 289.4 95.72C289.768 95.64 290.104 95.552 290.408 95.456V97.712C290.088 97.856 289.672 97.976 289.16 98.072C288.648 98.184 288.112 98.24 287.552 98.24C286.816 98.24 286.144 98.12 285.536 97.88C284.928 97.624 284.448 97.192 284.096 96.584C283.744 95.976 283.568 95.128 283.568 94.04V87.272H281.816V85.952L283.736 84.896L284.696 82.136H286.592V84.992H290.288V87.272H286.592V94.016C286.592 94.624 286.752 95.08 287.072 95.384C287.392 95.672 287.808 95.816 288.32 95.816ZM298.262 84.752C300.006 84.752 301.382 85.272 302.39 86.312C303.414 87.352 303.926 88.8 303.926 90.656V92.192H295.334C295.366 93.376 295.694 94.296 296.318 94.952C296.942 95.592 297.806 95.912 298.91 95.912C299.742 95.912 300.494 95.832 301.166 95.672C301.838 95.496 302.526 95.248 303.23 94.928V97.352C302.59 97.656 301.926 97.88 301.238 98.024C300.55 98.168 299.726 98.24 298.766 98.24C297.502 98.24 296.374 98 295.382 97.52C294.406 97.024 293.638 96.28 293.078 95.288C292.534 94.296 292.262 93.064 292.262 91.592C292.262 89.368 292.814 87.672 293.918 86.504C295.022 85.336 296.47 84.752 298.262 84.752ZM298.262 86.984C297.446 86.984 296.782 87.248 296.27 87.776C295.774 88.288 295.486 89.056 295.406 90.08H300.998C300.982 89.184 300.75 88.448 300.302 87.872C299.87 87.28 299.19 86.984 298.262 86.984ZM312.231 98.24C310.359 98.24 308.887 97.704 307.815 96.632C306.743 95.56 306.207 93.872 306.207 91.568C306.207 89.968 306.471 88.672 306.999 87.68C307.543 86.672 308.287 85.936 309.231 85.472C310.175 84.992 311.255 84.752 312.471 84.752C313.287 84.752 314.015 84.832 314.655 84.992C315.295 85.152 315.839 85.344 316.287 85.568L315.399 87.944C314.903 87.752 314.407 87.592 313.911 87.464C313.415 87.32 312.935 87.248 312.471 87.248C310.359 87.248 309.303 88.68 309.303 91.544C309.303 92.936 309.567 93.984 310.095 94.688C310.639 95.392 311.415 95.744 312.423 95.744C313.143 95.744 313.783 95.656 314.343 95.48C314.903 95.304 315.439 95.064 315.951 94.76V97.376C315.455 97.664 314.919 97.88 314.343 98.024C313.783 98.168 313.079 98.24 312.231 98.24ZM324.039 95.816C324.407 95.816 324.767 95.784 325.119 95.72C325.487 95.64 325.823 95.552 326.127 95.456V97.712C325.807 97.856 325.391 97.976 324.879 98.072C324.367 98.184 323.831 98.24 323.271 98.24C322.535 98.24 321.863 98.12 321.255 97.88C320.647 97.624 320.167 97.192 319.815 96.584C319.463 95.976 319.287 95.128 319.287 94.04V87.272H317.535V85.952L319.455 84.896L320.415 82.136H322.311V84.992H326.007V87.272H322.311V94.016C322.311 94.624 322.471 95.08 322.791 95.384C323.111 95.672 323.527 95.816 324.039 95.816ZM333.039 84.992H336.327L338.919 92.336C339.095 92.8 339.239 93.256 339.351 93.704C339.463 94.152 339.543 94.608 339.591 95.072H339.687C339.751 94.672 339.847 94.232 339.975 93.752C340.103 93.272 340.247 92.8 340.407 92.336L342.903 84.992H346.167L340.623 99.728C340.127 101.024 339.447 102.016 338.583 102.704C337.735 103.408 336.687 103.76 335.439 103.76C335.039 103.76 334.695 103.736 334.407 103.688C334.119 103.656 333.863 103.616 333.639 103.568V101.168C333.815 101.2 334.023 101.232 334.263 101.264C334.519 101.296 334.783 101.312 335.055 101.312C335.807 101.312 336.399 101.088 336.831 100.64C337.279 100.208 337.623 99.664 337.863 99.008L338.247 97.952L333.039 84.992ZM359.724 91.472C359.724 93.632 359.164 95.304 358.044 96.488C356.924 97.656 355.404 98.24 353.484 98.24C352.3 98.24 351.244 97.976 350.316 97.448C349.388 96.92 348.66 96.152 348.132 95.144C347.604 94.136 347.34 92.912 347.34 91.472C347.34 89.312 347.892 87.656 348.996 86.504C350.116 85.336 351.636 84.752 353.556 84.752C354.756 84.752 355.82 85.016 356.748 85.544C357.676 86.056 358.404 86.816 358.932 87.824C359.46 88.816 359.724 90.032 359.724 91.472ZM350.436 91.472C350.436 92.848 350.676 93.912 351.156 94.664C351.652 95.416 352.444 95.792 353.532 95.792C354.62 95.792 355.404 95.416 355.884 94.664C356.38 93.912 356.628 92.848 356.628 91.472C356.628 90.096 356.38 89.04 355.884 88.304C355.404 87.568 354.612 87.2 353.508 87.2C352.436 87.2 351.652 87.568 351.156 88.304C350.676 89.04 350.436 90.096 350.436 91.472ZM374.394 84.992V98H372.018L371.61 96.32H371.466C371.034 96.992 370.45 97.48 369.714 97.784C368.994 98.088 368.226 98.24 367.41 98.24C365.954 98.24 364.81 97.864 363.978 97.112C363.162 96.36 362.754 95.152 362.754 93.488V84.992H365.778V92.888C365.778 94.824 366.578 95.792 368.178 95.792C369.394 95.792 370.226 95.416 370.674 94.664C371.138 93.896 371.37 92.792 371.37 91.352V84.992H374.394ZM389.667 84.752C391.347 84.752 392.619 85.12 393.483 85.856C394.363 86.592 394.803 87.728 394.803 89.264V98H392.667L392.067 96.2H391.971C391.411 96.904 390.819 97.424 390.195 97.76C389.571 98.08 388.723 98.24 387.651 98.24C386.483 98.24 385.515 97.912 384.747 97.256C383.979 96.6 383.595 95.584 383.595 94.208C383.595 92.864 384.083 91.856 385.059 91.184C386.051 90.512 387.547 90.136 389.547 90.056L391.803 89.984V89.336C391.803 88.52 391.603 87.936 391.203 87.584C390.803 87.216 390.243 87.032 389.523 87.032C388.867 87.032 388.235 87.128 387.627 87.32C387.035 87.512 386.443 87.736 385.851 87.992L384.891 85.88C385.531 85.544 386.259 85.272 387.075 85.064C387.907 84.856 388.771 84.752 389.667 84.752ZM391.803 91.856L390.219 91.904C388.891 91.952 387.971 92.184 387.459 92.6C386.947 93 386.691 93.544 386.691 94.232C386.691 94.856 386.867 95.304 387.219 95.576C387.587 95.832 388.067 95.96 388.659 95.96C389.539 95.96 390.283 95.712 390.891 95.216C391.499 94.704 391.803 93.952 391.803 92.96V91.856ZM402.96 84.752C404.608 84.752 405.896 85.392 406.824 86.672H406.944L407.232 84.992H409.752V98.096C409.752 99.952 409.224 101.36 408.168 102.32C407.128 103.28 405.568 103.76 403.488 103.76C402.56 103.76 401.704 103.696 400.92 103.568C400.136 103.456 399.392 103.256 398.688 102.968V100.472C400.176 101.144 401.84 101.48 403.68 101.48C404.672 101.48 405.424 101.2 405.936 100.64C406.464 100.096 406.728 99.296 406.728 98.24V97.904C406.728 97.664 406.736 97.384 406.752 97.064C406.768 96.744 406.792 96.488 406.824 96.296H406.728C406.28 96.968 405.728 97.464 405.072 97.784C404.432 98.088 403.704 98.24 402.888 98.24C401.304 98.24 400.064 97.648 399.168 96.464C398.272 95.28 397.824 93.632 397.824 91.52C397.824 89.408 398.272 87.752 399.168 86.552C400.08 85.352 401.344 84.752 402.96 84.752ZM403.752 87.224C401.864 87.224 400.92 88.672 400.92 91.568C400.92 94.416 401.88 95.84 403.8 95.84C404.856 95.84 405.632 95.552 406.128 94.976C406.64 94.384 406.896 93.392 406.896 92V91.544C406.896 90.008 406.64 88.904 406.128 88.232C405.632 87.56 404.84 87.224 403.752 87.224ZM418.8 84.752C420.48 84.752 421.752 85.12 422.616 85.856C423.496 86.592 423.936 87.728 423.936 89.264V98H421.8L421.2 96.2H421.104C420.544 96.904 419.952 97.424 419.328 97.76C418.704 98.08 417.856 98.24 416.784 98.24C415.616 98.24 414.648 97.912 413.88 97.256C413.112 96.6 412.728 95.584 412.728 94.208C412.728 92.864 413.216 91.856 414.192 91.184C415.184 90.512 416.68 90.136 418.68 90.056L420.936 89.984V89.336C420.936 88.52 420.736 87.936 420.336 87.584C419.936 87.216 419.376 87.032 418.656 87.032C418 87.032 417.368 87.128 416.76 87.32C416.168 87.512 415.576 87.736 414.984 87.992L414.024 85.88C414.664 85.544 415.392 85.272 416.208 85.064C417.04 84.856 417.904 84.752 418.8 84.752ZM420.936 91.856L419.352 91.904C418.024 91.952 417.104 92.184 416.592 92.6C416.08 93 415.824 93.544 415.824 94.232C415.824 94.856 416 95.304 416.352 95.576C416.72 95.832 417.2 95.96 417.792 95.96C418.672 95.96 419.416 95.712 420.024 95.216C420.632 94.704 420.936 93.952 420.936 92.96V91.856ZM429.237 79.976C429.701 79.976 430.093 80.096 430.413 80.336C430.749 80.56 430.917 80.968 430.917 81.56C430.917 82.152 430.749 82.568 430.413 82.808C430.093 83.048 429.701 83.168 429.237 83.168C428.773 83.168 428.373 83.048 428.037 82.808C427.717 82.568 427.557 82.152 427.557 81.56C427.557 80.968 427.717 80.56 428.037 80.336C428.373 80.096 428.773 79.976 429.237 79.976ZM430.749 84.992V98H427.725V84.992H430.749ZM441.576 84.752C443.032 84.752 444.168 85.128 444.984 85.88C445.816 86.632 446.232 87.848 446.232 89.528V98H443.208V90.128C443.208 88.176 442.408 87.2 440.808 87.2C439.592 87.2 438.76 87.584 438.312 88.352C437.864 89.12 437.64 90.216 437.64 91.64V98H434.616V84.992H436.944L437.376 86.696H437.544C437.96 86.024 438.528 85.536 439.248 85.232C439.984 84.912 440.76 84.752 441.576 84.752ZM458.87 94.232C458.87 95.544 458.398 96.544 457.454 97.232C456.526 97.904 455.19 98.24 453.446 98.24C452.534 98.24 451.75 98.176 451.094 98.048C450.454 97.92 449.83 97.72 449.222 97.448V94.88C449.862 95.184 450.566 95.44 451.334 95.648C452.118 95.856 452.854 95.96 453.542 95.96C454.374 95.96 454.974 95.832 455.342 95.576C455.71 95.32 455.894 94.976 455.894 94.544C455.894 94.288 455.822 94.064 455.678 93.872C455.534 93.664 455.246 93.44 454.814 93.2C454.398 92.96 453.774 92.664 452.942 92.312C452.11 91.992 451.414 91.664 450.854 91.328C450.31 90.976 449.894 90.568 449.606 90.104C449.334 89.64 449.198 89.04 449.198 88.304C449.198 87.136 449.654 86.256 450.566 85.664C451.494 85.056 452.726 84.752 454.262 84.752C455.062 84.752 455.814 84.832 456.518 84.992C457.238 85.152 457.958 85.392 458.678 85.712L457.718 87.944C457.11 87.688 456.518 87.472 455.942 87.296C455.366 87.12 454.774 87.032 454.166 87.032C452.838 87.032 452.174 87.408 452.174 88.16C452.174 88.432 452.254 88.664 452.414 88.856C452.59 89.048 452.886 89.256 453.302 89.48C453.734 89.688 454.342 89.944 455.126 90.248C455.894 90.552 456.558 90.872 457.118 91.208C457.678 91.528 458.11 91.928 458.414 92.408C458.718 92.888 458.87 93.496 458.87 94.232ZM466.82 95.816C467.188 95.816 467.548 95.784 467.9 95.72C468.268 95.64 468.604 95.552 468.908 95.456V97.712C468.588 97.856 468.172 97.976 467.66 98.072C467.148 98.184 466.612 98.24 466.052 98.24C465.316 98.24 464.644 98.12 464.036 97.88C463.428 97.624 462.948 97.192 462.596 96.584C462.244 95.976 462.068 95.128 462.068 94.04V87.272H460.316V85.952L462.236 84.896L463.196 82.136H465.092V84.992H468.788V87.272H465.092V94.016C465.092 94.624 465.252 95.08 465.572 95.384C465.892 95.672 466.308 95.816 466.82 95.816ZM482.804 95.816C483.172 95.816 483.532 95.784 483.884 95.72C484.252 95.64 484.588 95.552 484.892 95.456V97.712C484.572 97.856 484.156 97.976 483.644 98.072C483.132 98.184 482.596 98.24 482.036 98.24C481.3 98.24 480.628 98.12 480.02 97.88C479.412 97.624 478.932 97.192 478.58 96.584C478.228 95.976 478.052 95.128 478.052 94.04V87.272H476.3V85.952L478.22 84.896L479.18 82.136H481.076V84.992H484.772V87.272H481.076V94.016C481.076 94.624 481.236 95.08 481.556 95.384C481.876 95.672 482.292 95.816 482.804 95.816ZM490.538 79.76V84.104C490.538 84.616 490.514 85.12 490.466 85.616C490.434 86.096 490.402 86.456 490.37 86.696H490.562C490.978 86.04 491.522 85.552 492.194 85.232C492.866 84.912 493.61 84.752 494.426 84.752C495.898 84.752 497.05 85.128 497.882 85.88C498.714 86.632 499.13 87.848 499.13 89.528V98H496.106V90.128C496.106 88.176 495.306 87.2 493.706 87.2C492.49 87.2 491.658 87.584 491.21 88.352C490.762 89.12 490.538 90.216 490.538 91.64V98H487.514V79.76H490.538ZM508.145 84.752C509.889 84.752 511.265 85.272 512.273 86.312C513.297 87.352 513.809 88.8 513.809 90.656V92.192H505.217C505.249 93.376 505.577 94.296 506.201 94.952C506.825 95.592 507.689 95.912 508.793 95.912C509.625 95.912 510.377 95.832 511.049 95.672C511.721 95.496 512.409 95.248 513.113 94.928V97.352C512.473 97.656 511.809 97.88 511.121 98.024C510.433 98.168 509.609 98.24 508.649 98.24C507.385 98.24 506.257 98 505.265 97.52C504.289 97.024 503.521 96.28 502.961 95.288C502.417 94.296 502.145 93.064 502.145 91.592C502.145 89.368 502.697 87.672 503.801 86.504C504.905 85.336 506.353 84.752 508.145 84.752ZM508.145 86.984C507.329 86.984 506.665 87.248 506.153 87.776C505.657 88.288 505.369 89.056 505.289 90.08H510.881C510.865 89.184 510.633 88.448 510.185 87.872C509.753 87.28 509.073 86.984 508.145 86.984ZM525.714 94.232C525.714 95.544 525.242 96.544 524.298 97.232C523.37 97.904 522.034 98.24 520.29 98.24C519.378 98.24 518.594 98.176 517.938 98.048C517.298 97.92 516.674 97.72 516.066 97.448V94.88C516.706 95.184 517.41 95.44 518.178 95.648C518.962 95.856 519.698 95.96 520.386 95.96C521.218 95.96 521.818 95.832 522.186 95.576C522.554 95.32 522.738 94.976 522.738 94.544C522.738 94.288 522.666 94.064 522.522 93.872C522.378 93.664 522.09 93.44 521.658 93.2C521.242 92.96 520.618 92.664 519.786 92.312C518.954 91.992 518.258 91.664 517.698 91.328C517.154 90.976 516.738 90.568 516.45 90.104C516.178 89.64 516.042 89.04 516.042 88.304C516.042 87.136 516.498 86.256 517.41 85.664C518.338 85.056 519.57 84.752 521.106 84.752C521.906 84.752 522.658 84.832 523.362 84.992C524.082 85.152 524.802 85.392 525.522 85.712L524.562 87.944C523.954 87.688 523.362 87.472 522.786 87.296C522.21 87.12 521.618 87.032 521.01 87.032C519.682 87.032 519.018 87.408 519.018 88.16C519.018 88.432 519.098 88.664 519.258 88.856C519.434 89.048 519.73 89.256 520.146 89.48C520.578 89.688 521.186 89.944 521.97 90.248C522.738 90.552 523.402 90.872 523.962 91.208C524.522 91.528 524.954 91.928 525.258 92.408C525.562 92.888 525.714 93.496 525.714 94.232ZM533.856 84.752C535.6 84.752 536.976 85.272 537.984 86.312C539.008 87.352 539.52 88.8 539.52 90.656V92.192H530.928C530.96 93.376 531.288 94.296 531.912 94.952C532.536 95.592 533.4 95.912 534.504 95.912C535.336 95.912 536.088 95.832 536.76 95.672C537.432 95.496 538.12 95.248 538.824 94.928V97.352C538.184 97.656 537.52 97.88 536.832 98.024C536.144 98.168 535.32 98.24 534.36 98.24C533.096 98.24 531.968 98 530.976 97.52C530 97.024 529.232 96.28 528.672 95.288C528.128 94.296 527.856 93.064 527.856 91.592C527.856 89.368 528.408 87.672 529.512 86.504C530.616 85.336 532.064 84.752 533.856 84.752ZM533.856 86.984C533.04 86.984 532.376 87.248 531.864 87.776C531.368 88.288 531.08 89.056 531 90.08H536.592C536.576 89.184 536.344 88.448 535.896 87.872C535.464 87.28 534.784 86.984 533.856 86.984ZM557.659 94.232C557.659 95.544 557.187 96.544 556.243 97.232C555.315 97.904 553.979 98.24 552.235 98.24C551.323 98.24 550.539 98.176 549.883 98.048C549.243 97.92 548.619 97.72 548.011 97.448V94.88C548.651 95.184 549.355 95.44 550.123 95.648C550.907 95.856 551.643 95.96 552.331 95.96C553.163 95.96 553.763 95.832 554.131 95.576C554.499 95.32 554.683 94.976 554.683 94.544C554.683 94.288 554.611 94.064 554.467 93.872C554.323 93.664 554.035 93.44 553.603 93.2C553.187 92.96 552.563 92.664 551.731 92.312C550.899 91.992 550.203 91.664 549.643 91.328C549.099 90.976 548.683 90.568 548.395 90.104C548.123 89.64 547.987 89.04 547.987 88.304C547.987 87.136 548.443 86.256 549.355 85.664C550.283 85.056 551.515 84.752 553.051 84.752C553.851 84.752 554.603 84.832 555.307 84.992C556.027 85.152 556.747 85.392 557.467 85.712L556.507 87.944C555.899 87.688 555.307 87.472 554.731 87.296C554.155 87.12 553.563 87.032 552.955 87.032C551.627 87.032 550.963 87.408 550.963 88.16C550.963 88.432 551.043 88.664 551.203 88.856C551.379 89.048 551.675 89.256 552.091 89.48C552.523 89.688 553.131 89.944 553.915 90.248C554.683 90.552 555.347 90.872 555.907 91.208C556.467 91.528 556.899 91.928 557.203 92.408C557.507 92.888 557.659 93.496 557.659 94.232ZM565.825 98.24C563.953 98.24 562.481 97.704 561.409 96.632C560.337 95.56 559.801 93.872 559.801 91.568C559.801 89.968 560.065 88.672 560.593 87.68C561.137 86.672 561.881 85.936 562.825 85.472C563.769 84.992 564.849 84.752 566.065 84.752C566.881 84.752 567.609 84.832 568.249 84.992C568.889 85.152 569.433 85.344 569.881 85.568L568.993 87.944C568.497 87.752 568.001 87.592 567.505 87.464C567.009 87.32 566.529 87.248 566.065 87.248C563.953 87.248 562.897 88.68 562.897 91.544C562.897 92.936 563.161 93.984 563.689 94.688C564.233 95.392 565.009 95.744 566.017 95.744C566.737 95.744 567.377 95.656 567.937 95.48C568.497 95.304 569.033 95.064 569.545 94.76V97.376C569.049 97.664 568.513 97.88 567.937 98.024C567.377 98.168 566.673 98.24 565.825 98.24ZM577.776 84.752C579.456 84.752 580.728 85.12 581.592 85.856C582.472 86.592 582.912 87.728 582.912 89.264V98H580.776L580.176 96.2H580.08C579.52 96.904 578.928 97.424 578.304 97.76C577.68 98.08 576.832 98.24 575.76 98.24C574.592 98.24 573.624 97.912 572.856 97.256C572.088 96.6 571.704 95.584 571.704 94.208C571.704 92.864 572.192 91.856 573.168 91.184C574.16 90.512 575.656 90.136 577.656 90.056L579.912 89.984V89.336C579.912 88.52 579.712 87.936 579.312 87.584C578.912 87.216 578.352 87.032 577.632 87.032C576.976 87.032 576.344 87.128 575.736 87.32C575.144 87.512 574.552 87.736 573.96 87.992L573 85.88C573.64 85.544 574.368 85.272 575.184 85.064C576.016 84.856 576.88 84.752 577.776 84.752ZM579.912 91.856L578.328 91.904C577 91.952 576.08 92.184 575.568 92.6C575.056 93 574.8 93.544 574.8 94.232C574.8 94.856 574.976 95.304 575.328 95.576C575.696 95.832 576.176 95.96 576.768 95.96C577.648 95.96 578.392 95.712 579 95.216C579.608 94.704 579.912 93.952 579.912 92.96V91.856ZM601.606 84.752C603.078 84.752 604.182 85.128 604.918 85.88C605.67 86.632 606.046 87.848 606.046 89.528V98H603.022V90.104C603.022 88.168 602.286 87.2 600.814 87.2C599.758 87.2 599.006 87.544 598.558 88.232C598.11 88.92 597.886 89.92 597.886 91.232V98H594.862V90.104C594.862 88.168 594.118 87.2 592.63 87.2C591.526 87.2 590.766 87.584 590.35 88.352C589.934 89.12 589.726 90.216 589.726 91.64V98H586.702V84.992H589.03L589.462 86.696H589.63C590.014 86.024 590.55 85.536 591.238 85.232C591.942 84.912 592.67 84.752 593.422 84.752C594.398 84.752 595.214 84.92 595.87 85.256C596.542 85.576 597.054 86.08 597.406 86.768H597.646C598.046 86.064 598.606 85.552 599.326 85.232C600.046 84.912 600.806 84.752 601.606 84.752ZM618.691 94.232C618.691 95.544 618.219 96.544 617.275 97.232C616.347 97.904 615.011 98.24 613.267 98.24C612.355 98.24 611.571 98.176 610.915 98.048C610.275 97.92 609.651 97.72 609.043 97.448V94.88C609.683 95.184 610.387 95.44 611.155 95.648C611.939 95.856 612.675 95.96 613.363 95.96C614.195 95.96 614.795 95.832 615.163 95.576C615.531 95.32 615.715 94.976 615.715 94.544C615.715 94.288 615.643 94.064 615.499 93.872C615.355 93.664 615.067 93.44 614.635 93.2C614.219 92.96 613.595 92.664 612.763 92.312C611.931 91.992 611.235 91.664 610.675 91.328C610.131 90.976 609.715 90.568 609.427 90.104C609.155 89.64 609.019 89.04 609.019 88.304C609.019 87.136 609.475 86.256 610.387 85.664C611.315 85.056 612.547 84.752 614.083 84.752C614.883 84.752 615.635 84.832 616.339 84.992C617.059 85.152 617.779 85.392 618.499 85.712L617.539 87.944C616.931 87.688 616.339 87.472 615.763 87.296C615.187 87.12 614.595 87.032 613.987 87.032C612.659 87.032 611.995 87.408 611.995 88.16C611.995 88.432 612.075 88.664 612.235 88.856C612.411 89.048 612.707 89.256 613.123 89.48C613.555 89.688 614.163 89.944 614.947 90.248C615.715 90.552 616.379 90.872 616.939 91.208C617.499 91.528 617.931 91.928 618.235 92.408C618.539 92.888 618.691 93.496 618.691 94.232ZM621.168 96.464C621.168 95.792 621.344 95.32 621.696 95.048C622.048 94.76 622.48 94.616 622.992 94.616C623.488 94.616 623.92 94.76 624.288 95.048C624.656 95.32 624.84 95.792 624.84 96.464C624.84 97.12 624.656 97.592 624.288 97.88C623.92 98.168 623.488 98.312 622.992 98.312C622.48 98.312 622.048 98.168 621.696 97.88C621.344 97.592 621.168 97.12 621.168 96.464Z" fill="#141414"/>
</svg>
