<svg width="700" height="173" viewBox="0 0 700 173" fill="none" xmlns="http://www.w3.org/2000/svg">
<path d="M50 1.5H650C676.786 1.5 698.5 23.2142 698.5 50V123C698.5 149.786 676.786 171.5 650 171.5H50C23.2142 171.5 1.5 149.786 1.5 123V50C1.5 23.2142 23.2142 1.5 50 1.5Z" fill="#D1F2FD" stroke="black" stroke-width="3"/>
<path d="M52.376 57H49.304V42.456H44.384V39.864H57.296V42.456H52.376V57ZM62.6555 38.76V43.104C62.6555 43.616 62.6315 44.12 62.5835 44.616C62.5515 45.096 62.5195 45.456 62.4875 45.696H62.6795C63.0955 45.04 63.6395 44.552 64.3115 44.232C64.9835 43.912 65.7275 43.752 66.5435 43.752C68.0155 43.752 69.1675 44.128 69.9995 44.88C70.8315 45.632 71.2475 46.848 71.2475 48.528V57H68.2235V49.128C68.2235 47.176 67.4235 46.2 65.8235 46.2C64.6075 46.2 63.7755 46.584 63.3275 47.352C62.8795 48.12 62.6555 49.216 62.6555 50.64V57H59.6315V38.76H62.6555ZM80.2619 43.752C82.0059 43.752 83.3819 44.272 84.3899 45.312C85.4139 46.352 85.9259 47.8 85.9259 49.656V51.192H77.3339C77.3659 52.376 77.6939 53.296 78.3179 53.952C78.9419 54.592 79.8059 54.912 80.9099 54.912C81.7419 54.912 82.4939 54.832 83.1659 54.672C83.8379 54.496 84.5259 54.248 85.2299 53.928V56.352C84.5899 56.656 83.9259 56.88 83.2379 57.024C82.5499 57.168 81.7259 57.24 80.7659 57.24C79.5019 57.24 78.3739 57 77.3819 56.52C76.4059 56.024 75.6379 55.28 75.0779 54.288C74.5339 53.296 74.2619 52.064 74.2619 50.592C74.2619 48.368 74.8139 46.672 75.9179 45.504C77.0219 44.336 78.4699 43.752 80.2619 43.752ZM80.2619 45.984C79.4459 45.984 78.7819 46.248 78.2699 46.776C77.7739 47.288 77.4859 48.056 77.4059 49.08H82.9979C82.9819 48.184 82.7499 47.448 82.3019 46.872C81.8699 46.28 81.1899 45.984 80.2619 45.984ZM98.5216 57H95.4976V39.864H105.218V42.432H98.5216V47.472H104.762V50.04H98.5216V57ZM108.412 39.864H113.572C115.796 39.864 117.476 40.184 118.612 40.824C119.764 41.464 120.34 42.576 120.34 44.16C120.34 45.152 120.092 45.984 119.596 46.656C119.1 47.328 118.388 47.744 117.46 47.904V48.024C118.084 48.136 118.652 48.344 119.164 48.648C119.676 48.936 120.076 49.36 120.364 49.92C120.668 50.464 120.82 51.184 120.82 52.08C120.82 53.632 120.268 54.84 119.164 55.704C118.076 56.568 116.58 57 114.676 57H108.412V39.864ZM111.484 46.848H113.98C115.196 46.848 116.028 46.656 116.476 46.272C116.94 45.888 117.172 45.32 117.172 44.568C117.172 43.8 116.892 43.248 116.332 42.912C115.788 42.576 114.924 42.408 113.74 42.408H111.484V46.848ZM111.484 49.32V54.432H114.268C115.516 54.432 116.38 54.192 116.86 53.712C117.356 53.232 117.604 52.592 117.604 51.792C117.604 51.056 117.348 50.464 116.836 50.016C116.34 49.552 115.436 49.32 114.124 49.32H111.484ZM130.157 57H122.957V55.248L125.021 54.48V42.408L122.957 41.616V39.864H130.157V41.616L128.093 42.408V54.48L130.157 55.248V57ZM145.994 43.752C146.202 43.752 146.426 43.76 146.666 43.776C146.922 43.792 147.138 43.824 147.314 43.872L147.05 46.68C146.89 46.648 146.698 46.624 146.474 46.608C146.25 46.576 146.05 46.56 145.874 46.56C145.234 46.56 144.634 46.696 144.074 46.968C143.514 47.224 143.058 47.632 142.706 48.192C142.37 48.736 142.202 49.424 142.202 50.256V57H139.178V43.992H141.506L141.938 46.248H142.082C142.466 45.56 142.994 44.976 143.666 44.496C144.338 44 145.114 43.752 145.994 43.752ZM154.489 43.752C156.233 43.752 157.609 44.272 158.617 45.312C159.641 46.352 160.153 47.8 160.153 49.656V51.192H151.561C151.593 52.376 151.921 53.296 152.545 53.952C153.169 54.592 154.033 54.912 155.137 54.912C155.969 54.912 156.721 54.832 157.393 54.672C158.065 54.496 158.753 54.248 159.457 53.928V56.352C158.817 56.656 158.153 56.88 157.465 57.024C156.777 57.168 155.953 57.24 154.993 57.24C153.729 57.24 152.601 57 151.609 56.52C150.633 56.024 149.865 55.28 149.305 54.288C148.761 53.296 148.489 52.064 148.489 50.592C148.489 48.368 149.041 46.672 150.145 45.504C151.249 44.336 152.697 43.752 154.489 43.752ZM154.489 45.984C153.673 45.984 153.009 46.248 152.497 46.776C152.001 47.288 151.713 48.056 151.633 49.08H157.225C157.209 48.184 156.977 47.448 156.529 46.872C156.097 46.28 155.417 45.984 154.489 45.984ZM168.458 57.24C166.586 57.24 165.114 56.704 164.042 55.632C162.97 54.56 162.434 52.872 162.434 50.568C162.434 48.968 162.698 47.672 163.226 46.68C163.77 45.672 164.514 44.936 165.458 44.472C166.402 43.992 167.482 43.752 168.698 43.752C169.514 43.752 170.242 43.832 170.882 43.992C171.522 44.152 172.066 44.344 172.514 44.568L171.626 46.944C171.13 46.752 170.634 46.592 170.138 46.464C169.642 46.32 169.162 46.248 168.698 46.248C166.586 46.248 165.53 47.68 165.53 50.544C165.53 51.936 165.794 52.984 166.322 53.688C166.866 54.392 167.642 54.744 168.65 54.744C169.37 54.744 170.01 54.656 170.57 54.48C171.13 54.304 171.666 54.064 172.178 53.76V56.376C171.682 56.664 171.146 56.88 170.57 57.024C170.01 57.168 169.306 57.24 168.458 57.24ZM180.457 43.752C182.201 43.752 183.577 44.272 184.585 45.312C185.609 46.352 186.121 47.8 186.121 49.656V51.192H177.529C177.561 52.376 177.889 53.296 178.513 53.952C179.137 54.592 180.001 54.912 181.105 54.912C181.937 54.912 182.689 54.832 183.361 54.672C184.033 54.496 184.721 54.248 185.425 53.928V56.352C184.785 56.656 184.121 56.88 183.433 57.024C182.745 57.168 181.921 57.24 180.961 57.24C179.697 57.24 178.569 57 177.577 56.52C176.601 56.024 175.833 55.28 175.273 54.288C174.729 53.296 174.457 52.064 174.457 50.592C174.457 48.368 175.009 46.672 176.113 45.504C177.217 44.336 178.665 43.752 180.457 43.752ZM180.457 45.984C179.641 45.984 178.977 46.248 178.465 46.776C177.969 47.288 177.681 48.056 177.601 49.08H183.193C183.177 48.184 182.945 47.448 182.497 46.872C182.065 46.28 181.385 45.984 180.457 45.984ZM190.683 38.976C191.147 38.976 191.539 39.096 191.859 39.336C192.195 39.56 192.363 39.968 192.363 40.56C192.363 41.152 192.195 41.568 191.859 41.808C191.539 42.048 191.147 42.168 190.683 42.168C190.219 42.168 189.819 42.048 189.483 41.808C189.163 41.568 189.003 41.152 189.003 40.56C189.003 39.968 189.163 39.56 189.483 39.336C189.819 39.096 190.219 38.976 190.683 38.976ZM192.195 43.992V57H189.171V43.992H192.195ZM199.061 57L194.117 43.992H197.309L199.901 51.504C200.061 51.968 200.205 52.48 200.333 53.04C200.477 53.6 200.565 54.072 200.597 54.456H200.693C200.741 54.056 200.837 53.584 200.981 53.04C201.125 52.48 201.277 51.968 201.437 51.504L204.029 43.992H207.221L202.277 57H199.061ZM214.395 43.752C216.139 43.752 217.515 44.272 218.523 45.312C219.547 46.352 220.059 47.8 220.059 49.656V51.192H211.467C211.499 52.376 211.827 53.296 212.451 53.952C213.075 54.592 213.939 54.912 215.043 54.912C215.875 54.912 216.627 54.832 217.299 54.672C217.971 54.496 218.659 54.248 219.363 53.928V56.352C218.723 56.656 218.059 56.88 217.371 57.024C216.683 57.168 215.859 57.24 214.899 57.24C213.635 57.24 212.507 57 211.515 56.52C210.539 56.024 209.771 55.28 209.211 54.288C208.667 53.296 208.395 52.064 208.395 50.592C208.395 48.368 208.947 46.672 210.051 45.504C211.155 44.336 212.603 43.752 214.395 43.752ZM214.395 45.984C213.579 45.984 212.915 46.248 212.403 46.776C211.907 47.288 211.619 48.056 211.539 49.08H217.131C217.115 48.184 216.883 47.448 216.435 46.872C216.003 46.28 215.323 45.984 214.395 45.984ZM231.964 53.232C231.964 54.544 231.492 55.544 230.548 56.232C229.62 56.904 228.284 57.24 226.54 57.24C225.628 57.24 224.844 57.176 224.188 57.048C223.548 56.92 222.924 56.72 222.316 56.448V53.88C222.956 54.184 223.66 54.44 224.428 54.648C225.212 54.856 225.948 54.96 226.636 54.96C227.468 54.96 228.068 54.832 228.436 54.576C228.804 54.32 228.988 53.976 228.988 53.544C228.988 53.288 228.916 53.064 228.772 52.872C228.628 52.664 228.34 52.44 227.908 52.2C227.492 51.96 226.868 51.664 226.036 51.312C225.204 50.992 224.508 50.664 223.948 50.328C223.404 49.976 222.988 49.568 222.7 49.104C222.428 48.64 222.292 48.04 222.292 47.304C222.292 46.136 222.748 45.256 223.66 44.664C224.588 44.056 225.82 43.752 227.356 43.752C228.156 43.752 228.908 43.832 229.612 43.992C230.332 44.152 231.052 44.392 231.772 44.712L230.812 46.944C230.204 46.688 229.612 46.472 229.036 46.296C228.46 46.12 227.868 46.032 227.26 46.032C225.932 46.032 225.268 46.408 225.268 47.16C225.268 47.432 225.348 47.664 225.508 47.856C225.684 48.048 225.98 48.256 226.396 48.48C226.828 48.688 227.436 48.944 228.22 49.248C228.988 49.552 229.652 49.872 230.212 50.208C230.772 50.528 231.204 50.928 231.508 51.408C231.812 51.888 231.964 52.496 231.964 53.232ZM256.012 43.752C257.484 43.752 258.588 44.128 259.324 44.88C260.076 45.632 260.452 46.848 260.452 48.528V57H257.428V49.104C257.428 47.168 256.692 46.2 255.22 46.2C254.164 46.2 253.412 46.544 252.964 47.232C252.516 47.92 252.292 48.92 252.292 50.232V57H249.268V49.104C249.268 47.168 248.524 46.2 247.036 46.2C245.932 46.2 245.172 46.584 244.756 47.352C244.34 48.12 244.132 49.216 244.132 50.64V57H241.108V43.992H243.436L243.868 45.696H244.036C244.42 45.024 244.956 44.536 245.644 44.232C246.348 43.912 247.076 43.752 247.828 43.752C248.804 43.752 249.62 43.92 250.276 44.256C250.948 44.576 251.46 45.08 251.812 45.768H252.052C252.452 45.064 253.012 44.552 253.732 44.232C254.452 43.912 255.212 43.752 256.012 43.752ZM275.857 50.472C275.857 52.632 275.297 54.304 274.177 55.488C273.057 56.656 271.537 57.24 269.617 57.24C268.433 57.24 267.377 56.976 266.449 56.448C265.521 55.92 264.793 55.152 264.265 54.144C263.737 53.136 263.473 51.912 263.473 50.472C263.473 48.312 264.025 46.656 265.129 45.504C266.249 44.336 267.769 43.752 269.689 43.752C270.889 43.752 271.953 44.016 272.881 44.544C273.809 45.056 274.537 45.816 275.065 46.824C275.593 47.816 275.857 49.032 275.857 50.472ZM266.569 50.472C266.569 51.848 266.809 52.912 267.289 53.664C267.785 54.416 268.577 54.792 269.665 54.792C270.753 54.792 271.537 54.416 272.017 53.664C272.513 52.912 272.761 51.848 272.761 50.472C272.761 49.096 272.513 48.04 272.017 47.304C271.537 46.568 270.745 46.2 269.641 46.2C268.569 46.2 267.785 46.568 267.289 47.304C266.809 48.04 266.569 49.096 266.569 50.472ZM285.799 43.752C286.007 43.752 286.231 43.76 286.471 43.776C286.727 43.792 286.943 43.824 287.119 43.872L286.855 46.68C286.695 46.648 286.503 46.624 286.279 46.608C286.055 46.576 285.855 46.56 285.679 46.56C285.039 46.56 284.439 46.696 283.879 46.968C283.319 47.224 282.863 47.632 282.511 48.192C282.175 48.736 282.007 49.424 282.007 50.256V57H278.983V43.992H281.311L281.743 46.248H281.887C282.271 45.56 282.799 44.976 283.471 44.496C284.143 44 284.919 43.752 285.799 43.752ZM294.293 43.752C296.037 43.752 297.413 44.272 298.421 45.312C299.445 46.352 299.957 47.8 299.957 49.656V51.192H291.365C291.397 52.376 291.725 53.296 292.349 53.952C292.973 54.592 293.837 54.912 294.941 54.912C295.773 54.912 296.525 54.832 297.197 54.672C297.869 54.496 298.557 54.248 299.261 53.928V56.352C298.621 56.656 297.957 56.88 297.269 57.024C296.581 57.168 295.757 57.24 294.797 57.24C293.533 57.24 292.405 57 291.413 56.52C290.437 56.024 289.669 55.28 289.109 54.288C288.565 53.296 288.293 52.064 288.293 50.592C288.293 48.368 288.845 46.672 289.949 45.504C291.053 44.336 292.501 43.752 294.293 43.752ZM294.293 45.984C293.477 45.984 292.813 46.248 292.301 46.776C291.805 47.288 291.517 48.056 291.437 49.08H297.029C297.013 48.184 296.781 47.448 296.333 46.872C295.901 46.28 295.221 45.984 294.293 45.984ZM314.281 54.816C314.649 54.816 315.009 54.784 315.361 54.72C315.729 54.64 316.065 54.552 316.369 54.456V56.712C316.049 56.856 315.633 56.976 315.121 57.072C314.609 57.184 314.073 57.24 313.513 57.24C312.777 57.24 312.105 57.12 311.497 56.88C310.889 56.624 310.409 56.192 310.057 55.584C309.705 54.976 309.529 54.128 309.529 53.04V46.272H307.777V44.952L309.697 43.896L310.657 41.136H312.553V43.992H316.249V46.272H312.553V53.016C312.553 53.624 312.713 54.08 313.033 54.384C313.353 54.672 313.769 54.816 314.281 54.816ZM322.015 38.76V43.104C322.015 43.616 321.991 44.12 321.943 44.616C321.911 45.096 321.879 45.456 321.847 45.696H322.039C322.455 45.04 322.999 44.552 323.671 44.232C324.343 43.912 325.087 43.752 325.903 43.752C327.375 43.752 328.527 44.128 329.359 44.88C330.191 45.632 330.607 46.848 330.607 48.528V57H327.583V49.128C327.583 47.176 326.783 46.2 325.183 46.2C323.967 46.2 323.135 46.584 322.687 47.352C322.239 48.12 322.015 49.216 322.015 50.64V57H318.991V38.76H322.015ZM339.573 43.752C341.253 43.752 342.525 44.12 343.389 44.856C344.269 45.592 344.709 46.728 344.709 48.264V57H342.573L341.973 55.2H341.877C341.317 55.904 340.725 56.424 340.101 56.76C339.477 57.08 338.629 57.24 337.557 57.24C336.389 57.24 335.421 56.912 334.653 56.256C333.885 55.6 333.501 54.584 333.501 53.208C333.501 51.864 333.989 50.856 334.965 50.184C335.957 49.512 337.453 49.136 339.453 49.056L341.709 48.984V48.336C341.709 47.52 341.509 46.936 341.109 46.584C340.709 46.216 340.149 46.032 339.429 46.032C338.773 46.032 338.141 46.128 337.533 46.32C336.941 46.512 336.349 46.736 335.757 46.992L334.797 44.88C335.437 44.544 336.165 44.272 336.981 44.064C337.813 43.856 338.677 43.752 339.573 43.752ZM341.709 50.856L340.125 50.904C338.797 50.952 337.877 51.184 337.365 51.6C336.853 52 336.597 52.544 336.597 53.232C336.597 53.856 336.773 54.304 337.125 54.576C337.493 54.832 337.973 54.96 338.565 54.96C339.445 54.96 340.189 54.712 340.797 54.216C341.405 53.704 341.709 52.952 341.709 51.96V50.856ZM355.459 43.752C356.915 43.752 358.051 44.128 358.867 44.88C359.699 45.632 360.115 46.848 360.115 48.528V57H357.091V49.128C357.091 47.176 356.291 46.2 354.691 46.2C353.475 46.2 352.643 46.584 352.195 47.352C351.747 48.12 351.523 49.216 351.523 50.64V57H348.499V43.992H350.827L351.259 45.696H351.427C351.843 45.024 352.411 44.536 353.131 44.232C353.867 43.912 354.643 43.752 355.459 43.752ZM377.572 57H374.548V46.32C374.548 45.808 374.556 45.264 374.572 44.688C374.588 44.112 374.612 43.576 374.644 43.08C374.484 43.24 374.284 43.432 374.044 43.656C373.804 43.864 373.556 44.08 373.3 44.304L371.38 45.84L369.868 43.968L375.052 39.864H377.572V57ZM388.906 46.224C389.994 46.224 390.954 46.424 391.786 46.824C392.618 47.208 393.266 47.784 393.73 48.552C394.21 49.32 394.45 50.256 394.45 51.36C394.45 53.184 393.874 54.624 392.722 55.68C391.586 56.72 389.938 57.24 387.778 57.24C386.882 57.24 386.042 57.16 385.258 57C384.474 56.84 383.794 56.608 383.218 56.304V53.616C383.81 53.936 384.522 54.2 385.354 54.408C386.186 54.616 386.97 54.72 387.706 54.72C388.842 54.72 389.73 54.472 390.37 53.976C391.026 53.48 391.354 52.704 391.354 51.648C391.354 50.704 391.05 49.984 390.442 49.488C389.834 48.976 388.89 48.72 387.61 48.72C387.162 48.72 386.674 48.76 386.146 48.84C385.634 48.92 385.21 49 384.874 49.08L383.578 48.36L384.226 39.864H393.25V42.504H386.89L386.53 46.464C386.802 46.416 387.122 46.368 387.49 46.32C387.858 46.256 388.33 46.224 388.906 46.224ZM400.576 54.216L400.744 54.48C400.52 55.328 400.216 56.256 399.832 57.264C399.448 58.288 399.064 59.232 398.68 60.096H396.496C396.72 59.168 396.944 58.16 397.168 57.072C397.392 56 397.56 55.048 397.672 54.216H400.576ZM415.079 48.432C415.079 50.272 414.887 51.848 414.503 53.16C414.119 54.472 413.495 55.48 412.631 56.184C411.767 56.888 410.623 57.24 409.199 57.24C407.183 57.24 405.703 56.464 404.759 54.912C403.815 53.344 403.343 51.184 403.343 48.432C403.343 46.576 403.535 44.992 403.919 43.68C404.303 42.368 404.919 41.36 405.767 40.656C406.631 39.952 407.775 39.6 409.199 39.6C411.199 39.6 412.679 40.376 413.639 41.928C414.599 43.48 415.079 45.648 415.079 48.432ZM406.391 48.432C406.391 50.528 406.591 52.104 406.991 53.16C407.407 54.216 408.143 54.744 409.199 54.744C410.239 54.744 410.967 54.224 411.383 53.184C411.815 52.128 412.031 50.544 412.031 48.432C412.031 46.32 411.815 44.736 411.383 43.68C410.967 42.624 410.239 42.096 409.199 42.096C408.143 42.096 407.407 42.624 406.991 43.68C406.591 44.736 406.391 46.32 406.391 48.432ZM428.814 48.432C428.814 50.272 428.622 51.848 428.238 53.16C427.854 54.472 427.23 55.48 426.366 56.184C425.502 56.888 424.358 57.24 422.934 57.24C420.918 57.24 419.438 56.464 418.494 54.912C417.55 53.344 417.078 51.184 417.078 48.432C417.078 46.576 417.27 44.992 417.654 43.68C418.038 42.368 418.654 41.36 419.502 40.656C420.366 39.952 421.51 39.6 422.934 39.6C424.934 39.6 426.414 40.376 427.374 41.928C428.334 43.48 428.814 45.648 428.814 48.432ZM420.126 48.432C420.126 50.528 420.326 52.104 420.726 53.16C421.142 54.216 421.878 54.744 422.934 54.744C423.974 54.744 424.702 54.224 425.118 53.184C425.55 52.128 425.766 50.544 425.766 48.432C425.766 46.32 425.55 44.736 425.118 43.68C424.702 42.624 423.974 42.096 422.934 42.096C421.878 42.096 421.142 42.624 420.726 43.68C420.326 44.736 420.126 46.32 420.126 48.432ZM442.548 48.432C442.548 50.272 442.356 51.848 441.972 53.16C441.588 54.472 440.964 55.48 440.1 56.184C439.236 56.888 438.092 57.24 436.668 57.24C434.652 57.24 433.172 56.464 432.228 54.912C431.284 53.344 430.812 51.184 430.812 48.432C430.812 46.576 431.004 44.992 431.388 43.68C431.772 42.368 432.388 41.36 433.236 40.656C434.1 39.952 435.244 39.6 436.668 39.6C438.668 39.6 440.148 40.376 441.108 41.928C442.068 43.48 442.548 45.648 442.548 48.432ZM433.86 48.432C433.86 50.528 434.06 52.104 434.46 53.16C434.876 54.216 435.612 54.744 436.668 54.744C437.708 54.744 438.436 54.224 438.852 53.184C439.284 52.128 439.5 50.544 439.5 48.432C439.5 46.32 439.284 44.736 438.852 43.68C438.436 42.624 437.708 42.096 436.668 42.096C435.612 42.096 434.876 42.624 434.46 43.68C434.06 44.736 433.86 46.32 433.86 48.432ZM458.557 43.752C458.765 43.752 458.989 43.76 459.229 43.776C459.485 43.792 459.701 43.824 459.877 43.872L459.613 46.68C459.453 46.648 459.261 46.624 459.037 46.608C458.813 46.576 458.613 46.56 458.437 46.56C457.797 46.56 457.197 46.696 456.637 46.968C456.077 47.224 455.621 47.632 455.269 48.192C454.933 48.736 454.765 49.424 454.765 50.256V57H451.741V43.992H454.069L454.501 46.248H454.645C455.029 45.56 455.557 44.976 456.229 44.496C456.901 44 457.677 43.752 458.557 43.752ZM473.435 50.472C473.435 52.632 472.875 54.304 471.755 55.488C470.635 56.656 469.115 57.24 467.195 57.24C466.011 57.24 464.955 56.976 464.027 56.448C463.099 55.92 462.371 55.152 461.843 54.144C461.315 53.136 461.051 51.912 461.051 50.472C461.051 48.312 461.603 46.656 462.707 45.504C463.827 44.336 465.347 43.752 467.267 43.752C468.467 43.752 469.531 44.016 470.459 44.544C471.387 45.056 472.115 45.816 472.643 46.824C473.171 47.816 473.435 49.032 473.435 50.472ZM464.147 50.472C464.147 51.848 464.387 52.912 464.867 53.664C465.363 54.416 466.155 54.792 467.243 54.792C468.331 54.792 469.115 54.416 469.595 53.664C470.091 52.912 470.339 51.848 470.339 50.472C470.339 49.096 470.091 48.04 469.595 47.304C469.115 46.568 468.323 46.2 467.219 46.2C466.147 46.2 465.363 46.568 464.867 47.304C464.387 48.04 464.147 49.096 464.147 50.472ZM491.465 43.752C492.937 43.752 494.041 44.128 494.777 44.88C495.529 45.632 495.905 46.848 495.905 48.528V57H492.881V49.104C492.881 47.168 492.145 46.2 490.673 46.2C489.617 46.2 488.865 46.544 488.417 47.232C487.969 47.92 487.745 48.92 487.745 50.232V57H484.721V49.104C484.721 47.168 483.977 46.2 482.489 46.2C481.385 46.2 480.625 46.584 480.209 47.352C479.793 48.12 479.585 49.216 479.585 50.64V57H476.561V43.992H478.889L479.321 45.696H479.489C479.873 45.024 480.409 44.536 481.097 44.232C481.801 43.912 482.529 43.752 483.281 43.752C484.257 43.752 485.073 43.92 485.729 44.256C486.401 44.576 486.913 45.08 487.265 45.768H487.505C487.905 45.064 488.465 44.552 489.185 44.232C489.905 43.912 490.665 43.752 491.465 43.752ZM504.878 43.752C506.558 43.752 507.83 44.12 508.694 44.856C509.574 45.592 510.014 46.728 510.014 48.264V57H507.878L507.278 55.2H507.182C506.622 55.904 506.03 56.424 505.406 56.76C504.782 57.08 503.934 57.24 502.862 57.24C501.694 57.24 500.726 56.912 499.958 56.256C499.19 55.6 498.806 54.584 498.806 53.208C498.806 51.864 499.294 50.856 500.27 50.184C501.262 49.512 502.758 49.136 504.758 49.056L507.014 48.984V48.336C507.014 47.52 506.814 46.936 506.414 46.584C506.014 46.216 505.454 46.032 504.734 46.032C504.078 46.032 503.446 46.128 502.838 46.32C502.246 46.512 501.654 46.736 501.062 46.992L500.102 44.88C500.742 44.544 501.47 44.272 502.286 44.064C503.118 43.856 503.982 43.752 504.878 43.752ZM507.014 50.856L505.43 50.904C504.102 50.952 503.182 51.184 502.67 51.6C502.158 52 501.902 52.544 501.902 53.232C501.902 53.856 502.078 54.304 502.43 54.576C502.798 54.832 503.278 54.96 503.87 54.96C504.75 54.96 505.494 54.712 506.102 54.216C506.71 53.704 507.014 52.952 507.014 51.96V50.856ZM520.763 43.752C522.219 43.752 523.355 44.128 524.171 44.88C525.003 45.632 525.419 46.848 525.419 48.528V57H522.395V49.128C522.395 47.176 521.595 46.2 519.995 46.2C518.779 46.2 517.947 46.584 517.499 47.352C517.051 48.12 516.827 49.216 516.827 50.64V57H513.803V43.992H516.131L516.563 45.696H516.731C517.147 45.024 517.715 44.536 518.435 44.232C519.171 43.912 519.947 43.752 520.763 43.752ZM534.458 57.24C532.586 57.24 531.114 56.704 530.042 55.632C528.97 54.56 528.434 52.872 528.434 50.568C528.434 48.968 528.698 47.672 529.226 46.68C529.77 45.672 530.514 44.936 531.458 44.472C532.402 43.992 533.482 43.752 534.698 43.752C535.514 43.752 536.242 43.832 536.882 43.992C537.522 44.152 538.066 44.344 538.514 44.568L537.626 46.944C537.13 46.752 536.634 46.592 536.138 46.464C535.642 46.32 535.162 46.248 534.698 46.248C532.586 46.248 531.53 47.68 531.53 50.544C531.53 51.936 531.794 52.984 532.322 53.688C532.866 54.392 533.642 54.744 534.65 54.744C535.37 54.744 536.01 54.656 536.57 54.48C537.13 54.304 537.666 54.064 538.178 53.76V56.376C537.682 56.664 537.146 56.88 536.57 57.024C536.01 57.168 535.306 57.24 534.458 57.24ZM546.457 43.752C548.201 43.752 549.577 44.272 550.585 45.312C551.609 46.352 552.121 47.8 552.121 49.656V51.192H543.529C543.561 52.376 543.889 53.296 544.513 53.952C545.137 54.592 546.001 54.912 547.105 54.912C547.937 54.912 548.689 54.832 549.361 54.672C550.033 54.496 550.721 54.248 551.425 53.928V56.352C550.785 56.656 550.121 56.88 549.433 57.024C548.745 57.168 547.921 57.24 546.961 57.24C545.697 57.24 544.569 57 543.577 56.52C542.601 56.024 541.833 55.28 541.273 54.288C540.729 53.296 540.457 52.064 540.457 50.592C540.457 48.368 541.009 46.672 542.113 45.504C543.217 44.336 544.665 43.752 546.457 43.752ZM546.457 45.984C545.641 45.984 544.977 46.248 544.465 46.776C543.969 47.288 543.681 48.056 543.601 49.08H549.193C549.177 48.184 548.945 47.448 548.497 46.872C548.065 46.28 547.385 45.984 546.457 45.984ZM570.261 53.232C570.261 54.544 569.789 55.544 568.845 56.232C567.917 56.904 566.581 57.24 564.837 57.24C563.925 57.24 563.141 57.176 562.485 57.048C561.845 56.92 561.221 56.72 560.613 56.448V53.88C561.253 54.184 561.957 54.44 562.725 54.648C563.509 54.856 564.245 54.96 564.933 54.96C565.765 54.96 566.365 54.832 566.733 54.576C567.101 54.32 567.285 53.976 567.285 53.544C567.285 53.288 567.213 53.064 567.069 52.872C566.925 52.664 566.637 52.44 566.205 52.2C565.789 51.96 565.165 51.664 564.333 51.312C563.501 50.992 562.805 50.664 562.245 50.328C561.701 49.976 561.285 49.568 560.997 49.104C560.725 48.64 560.589 48.04 560.589 47.304C560.589 46.136 561.045 45.256 561.957 44.664C562.885 44.056 564.117 43.752 565.653 43.752C566.453 43.752 567.205 43.832 567.909 43.992C568.629 44.152 569.349 44.392 570.069 44.712L569.109 46.944C568.501 46.688 567.909 46.472 567.333 46.296C566.757 46.12 566.165 46.032 565.557 46.032C564.229 46.032 563.565 46.408 563.565 47.16C563.565 47.432 563.645 47.664 563.805 47.856C563.981 48.048 564.277 48.256 564.693 48.48C565.125 48.688 565.733 48.944 566.517 49.248C567.285 49.552 567.949 49.872 568.509 50.208C569.069 50.528 569.501 50.928 569.805 51.408C570.109 51.888 570.261 52.496 570.261 53.232ZM578.427 57.24C576.555 57.24 575.083 56.704 574.011 55.632C572.939 54.56 572.403 52.872 572.403 50.568C572.403 48.968 572.667 47.672 573.195 46.68C573.739 45.672 574.483 44.936 575.427 44.472C576.371 43.992 577.451 43.752 578.667 43.752C579.483 43.752 580.211 43.832 580.851 43.992C581.491 44.152 582.035 44.344 582.483 44.568L581.595 46.944C581.099 46.752 580.603 46.592 580.107 46.464C579.611 46.32 579.131 46.248 578.667 46.248C576.555 46.248 575.499 47.68 575.499 50.544C575.499 51.936 575.763 52.984 576.291 53.688C576.835 54.392 577.611 54.744 578.619 54.744C579.339 54.744 579.979 54.656 580.539 54.48C581.099 54.304 581.635 54.064 582.147 53.76V56.376C581.651 56.664 581.115 56.88 580.539 57.024C579.979 57.168 579.275 57.24 578.427 57.24ZM590.378 43.752C592.058 43.752 593.33 44.12 594.194 44.856C595.074 45.592 595.514 46.728 595.514 48.264V57H593.378L592.778 55.2H592.682C592.122 55.904 591.53 56.424 590.906 56.76C590.282 57.08 589.434 57.24 588.362 57.24C587.194 57.24 586.226 56.912 585.458 56.256C584.69 55.6 584.306 54.584 584.306 53.208C584.306 51.864 584.794 50.856 585.77 50.184C586.762 49.512 588.258 49.136 590.258 49.056L592.514 48.984V48.336C592.514 47.52 592.314 46.936 591.914 46.584C591.514 46.216 590.954 46.032 590.234 46.032C589.578 46.032 588.946 46.128 588.338 46.32C587.746 46.512 587.154 46.736 586.562 46.992L585.602 44.88C586.242 44.544 586.97 44.272 587.786 44.064C588.618 43.856 589.482 43.752 590.378 43.752ZM592.514 50.856L590.93 50.904C589.602 50.952 588.682 51.184 588.17 51.6C587.658 52 587.402 52.544 587.402 53.232C587.402 53.856 587.578 54.304 587.93 54.576C588.298 54.832 588.778 54.96 589.37 54.96C590.25 54.96 590.994 54.712 591.602 54.216C592.21 53.704 592.514 52.952 592.514 51.96V50.856ZM614.207 43.752C615.679 43.752 616.783 44.128 617.519 44.88C618.271 45.632 618.647 46.848 618.647 48.528V57H615.623V49.104C615.623 47.168 614.887 46.2 613.415 46.2C612.359 46.2 611.607 46.544 611.159 47.232C610.711 47.92 610.487 48.92 610.487 50.232V57H607.463V49.104C607.463 47.168 606.719 46.2 605.231 46.2C604.127 46.2 603.367 46.584 602.951 47.352C602.535 48.12 602.327 49.216 602.327 50.64V57H599.303V43.992H601.631L602.063 45.696H602.231C602.615 45.024 603.151 44.536 603.839 44.232C604.543 43.912 605.271 43.752 606.023 43.752C606.999 43.752 607.815 43.92 608.471 44.256C609.143 44.576 609.655 45.08 610.007 45.768H610.247C610.647 45.064 611.207 44.552 611.927 44.232C612.647 43.912 613.407 43.752 614.207 43.752ZM51.2 97.24C49.328 97.24 47.856 96.704 46.784 95.632C45.712 94.56 45.176 92.872 45.176 90.568C45.176 88.968 45.44 87.672 45.968 86.68C46.512 85.672 47.256 84.936 48.2 84.472C49.144 83.992 50.224 83.752 51.44 83.752C52.256 83.752 52.984 83.832 53.624 83.992C54.264 84.152 54.808 84.344 55.256 84.568L54.368 86.944C53.872 86.752 53.376 86.592 52.88 86.464C52.384 86.32 51.904 86.248 51.44 86.248C49.328 86.248 48.272 87.68 48.272 90.544C48.272 91.936 48.536 92.984 49.064 93.688C49.608 94.392 50.384 94.744 51.392 94.744C52.112 94.744 52.752 94.656 53.312 94.48C53.872 94.304 54.408 94.064 54.92 93.76V96.376C54.424 96.664 53.888 96.88 53.312 97.024C52.752 97.168 52.048 97.24 51.2 97.24ZM69.5834 90.472C69.5834 92.632 69.0234 94.304 67.9034 95.488C66.7834 96.656 65.2634 97.24 63.3434 97.24C62.1594 97.24 61.1034 96.976 60.1754 96.448C59.2474 95.92 58.5194 95.152 57.9914 94.144C57.4634 93.136 57.1994 91.912 57.1994 90.472C57.1994 88.312 57.7514 86.656 58.8554 85.504C59.9754 84.336 61.4954 83.752 63.4154 83.752C64.6154 83.752 65.6794 84.016 66.6074 84.544C67.5354 85.056 68.2634 85.816 68.7914 86.824C69.3194 87.816 69.5834 89.032 69.5834 90.472ZM60.2954 90.472C60.2954 91.848 60.5354 92.912 61.0154 93.664C61.5114 94.416 62.3034 94.792 63.3914 94.792C64.4794 94.792 65.2634 94.416 65.7434 93.664C66.2394 92.912 66.4874 91.848 66.4874 90.472C66.4874 89.096 66.2394 88.04 65.7434 87.304C65.2634 86.568 64.4714 86.2 63.3674 86.2C62.2954 86.2 61.5114 86.568 61.0154 87.304C60.5354 88.04 60.2954 89.096 60.2954 90.472ZM87.6136 83.752C89.0856 83.752 90.1896 84.128 90.9256 84.88C91.6776 85.632 92.0536 86.848 92.0536 88.528V97H89.0296V89.104C89.0296 87.168 88.2936 86.2 86.8216 86.2C85.7656 86.2 85.0136 86.544 84.5656 87.232C84.1176 87.92 83.8936 88.92 83.8936 90.232V97H80.8696V89.104C80.8696 87.168 80.1256 86.2 78.6376 86.2C77.5336 86.2 76.7736 86.584 76.3576 87.352C75.9416 88.12 75.7336 89.216 75.7336 90.64V97H72.7096V83.992H75.0376L75.4696 85.696H75.6376C76.0216 85.024 76.5576 84.536 77.2456 84.232C77.9496 83.912 78.6776 83.752 79.4296 83.752C80.4056 83.752 81.2216 83.92 81.8776 84.256C82.5496 84.576 83.0616 85.08 83.4136 85.768H83.6536C84.0536 85.064 84.6136 84.552 85.3336 84.232C86.0536 83.912 86.8136 83.752 87.6136 83.752ZM102.682 83.752C104.202 83.752 105.426 84.32 106.354 85.456C107.282 86.576 107.746 88.248 107.746 90.472C107.746 92.696 107.266 94.384 106.306 95.536C105.362 96.672 104.13 97.24 102.61 97.24C101.65 97.24 100.874 97.064 100.282 96.712C99.6904 96.36 99.2184 95.952 98.8664 95.488H98.6744C98.7224 95.792 98.7624 96.128 98.7944 96.496C98.8424 96.848 98.8664 97.176 98.8664 97.48V102.76H95.8424V83.992H98.2904L98.7224 85.72H98.8664C99.2184 85.176 99.6984 84.712 100.306 84.328C100.914 83.944 101.706 83.752 102.682 83.752ZM101.818 86.2C100.746 86.2 99.9864 86.52 99.5384 87.16C99.1064 87.8 98.8824 88.768 98.8664 90.064V90.448C98.8664 91.84 99.0744 92.912 99.4904 93.664C99.9224 94.4 100.714 94.768 101.866 94.768C102.81 94.768 103.506 94.384 103.954 93.616C104.418 92.832 104.65 91.768 104.65 90.424C104.65 89.08 104.418 88.04 103.954 87.304C103.506 86.568 102.794 86.2 101.818 86.2ZM113.89 97H110.866V78.76H113.89V97ZM122.941 83.752C124.621 83.752 125.893 84.12 126.757 84.856C127.637 85.592 128.077 86.728 128.077 88.264V97H125.941L125.341 95.2H125.245C124.685 95.904 124.093 96.424 123.469 96.76C122.845 97.08 121.997 97.24 120.925 97.24C119.757 97.24 118.789 96.912 118.021 96.256C117.253 95.6 116.869 94.584 116.869 93.208C116.869 91.864 117.357 90.856 118.333 90.184C119.325 89.512 120.821 89.136 122.821 89.056L125.077 88.984V88.336C125.077 87.52 124.877 86.936 124.477 86.584C124.077 86.216 123.517 86.032 122.797 86.032C122.141 86.032 121.509 86.128 120.901 86.32C120.309 86.512 119.717 86.736 119.125 86.992L118.165 84.88C118.805 84.544 119.533 84.272 120.349 84.064C121.181 83.856 122.045 83.752 122.941 83.752ZM125.077 90.856L123.493 90.904C122.165 90.952 121.245 91.184 120.733 91.6C120.221 92 119.965 92.544 119.965 93.232C119.965 93.856 120.141 94.304 120.493 94.576C120.861 94.832 121.341 94.96 121.933 94.96C122.813 94.96 123.557 94.712 124.165 94.216C124.773 93.704 125.077 92.952 125.077 91.96V90.856ZM133.378 78.976C133.842 78.976 134.234 79.096 134.554 79.336C134.89 79.56 135.058 79.968 135.058 80.56C135.058 81.152 134.89 81.568 134.554 81.808C134.234 82.048 133.842 82.168 133.378 82.168C132.914 82.168 132.514 82.048 132.178 81.808C131.858 81.568 131.698 81.152 131.698 80.56C131.698 79.968 131.858 79.56 132.178 79.336C132.514 79.096 132.914 78.976 133.378 78.976ZM134.89 83.992V97H131.866V83.992H134.89ZM145.717 83.752C147.173 83.752 148.309 84.128 149.125 84.88C149.957 85.632 150.372 86.848 150.372 88.528V97H147.349V89.128C147.349 87.176 146.549 86.2 144.949 86.2C143.733 86.2 142.901 86.584 142.453 87.352C142.005 88.12 141.781 89.216 141.781 90.64V97H138.757V83.992H141.085L141.517 85.696H141.685C142.101 85.024 142.669 84.536 143.389 84.232C144.125 83.912 144.901 83.752 145.717 83.752ZM159.195 94.816C159.563 94.816 159.923 94.784 160.275 94.72C160.643 94.64 160.979 94.552 161.283 94.456V96.712C160.963 96.856 160.547 96.976 160.035 97.072C159.523 97.184 158.987 97.24 158.427 97.24C157.691 97.24 157.019 97.12 156.411 96.88C155.803 96.624 155.323 96.192 154.971 95.584C154.619 94.976 154.443 94.128 154.443 93.04V86.272H152.691V84.952L154.611 83.896L155.571 81.136H157.467V83.992H161.163V86.272H157.467V93.016C157.467 93.624 157.627 94.08 157.947 94.384C158.267 94.672 158.683 94.816 159.195 94.816ZM172.761 93.232C172.761 94.544 172.289 95.544 171.345 96.232C170.417 96.904 169.081 97.24 167.337 97.24C166.425 97.24 165.641 97.176 164.985 97.048C164.345 96.92 163.721 96.72 163.113 96.448V93.88C163.753 94.184 164.457 94.44 165.225 94.648C166.009 94.856 166.745 94.96 167.433 94.96C168.265 94.96 168.865 94.832 169.233 94.576C169.601 94.32 169.785 93.976 169.785 93.544C169.785 93.288 169.713 93.064 169.569 92.872C169.425 92.664 169.137 92.44 168.705 92.2C168.289 91.96 167.665 91.664 166.833 91.312C166.001 90.992 165.305 90.664 164.745 90.328C164.201 89.976 163.785 89.568 163.497 89.104C163.225 88.64 163.089 88.04 163.089 87.304C163.089 86.136 163.545 85.256 164.457 84.664C165.385 84.056 166.617 83.752 168.153 83.752C168.953 83.752 169.705 83.832 170.409 83.992C171.129 84.152 171.849 84.392 172.569 84.712L171.609 86.944C171.001 86.688 170.409 86.472 169.833 86.296C169.257 86.12 168.665 86.032 168.057 86.032C166.729 86.032 166.065 86.408 166.065 87.16C166.065 87.432 166.145 87.664 166.305 87.856C166.481 88.048 166.777 88.256 167.193 88.48C167.625 88.688 168.233 88.944 169.017 89.248C169.785 89.552 170.449 89.872 171.009 90.208C171.569 90.528 172.001 90.928 172.305 91.408C172.609 91.888 172.761 92.496 172.761 93.232ZM187.089 83.752C188.769 83.752 190.041 84.12 190.905 84.856C191.785 85.592 192.225 86.728 192.225 88.264V97H190.089L189.489 95.2H189.393C188.833 95.904 188.241 96.424 187.617 96.76C186.993 97.08 186.145 97.24 185.073 97.24C183.905 97.24 182.937 96.912 182.169 96.256C181.401 95.6 181.017 94.584 181.017 93.208C181.017 91.864 181.505 90.856 182.481 90.184C183.473 89.512 184.969 89.136 186.969 89.056L189.225 88.984V88.336C189.225 87.52 189.025 86.936 188.625 86.584C188.225 86.216 187.665 86.032 186.945 86.032C186.289 86.032 185.657 86.128 185.049 86.32C184.457 86.512 183.865 86.736 183.273 86.992L182.313 84.88C182.953 84.544 183.681 84.272 184.497 84.064C185.329 83.856 186.193 83.752 187.089 83.752ZM189.225 90.856L187.641 90.904C186.313 90.952 185.393 91.184 184.881 91.6C184.369 92 184.113 92.544 184.113 93.232C184.113 93.856 184.289 94.304 184.641 94.576C185.009 94.832 185.489 94.96 186.081 94.96C186.961 94.96 187.705 94.712 188.313 94.216C188.921 93.704 189.225 92.952 189.225 91.96V90.856ZM200.305 83.992H203.593L206.185 91.336C206.361 91.8 206.505 92.256 206.617 92.704C206.729 93.152 206.809 93.608 206.857 94.072H206.953C207.017 93.672 207.113 93.232 207.241 92.752C207.369 92.272 207.513 91.8 207.673 91.336L210.169 83.992H213.433L207.889 98.728C207.393 100.024 206.713 101.016 205.849 101.704C205.001 102.408 203.953 102.76 202.705 102.76C202.305 102.76 201.961 102.736 201.673 102.688C201.385 102.656 201.129 102.616 200.905 102.568V100.168C201.081 100.2 201.289 100.232 201.529 100.264C201.785 100.296 202.049 100.312 202.321 100.312C203.073 100.312 203.665 100.088 204.097 99.64C204.545 99.208 204.889 98.664 205.129 98.008L205.513 96.952L200.305 83.992ZM220.606 83.752C222.35 83.752 223.726 84.272 224.734 85.312C225.758 86.352 226.27 87.8 226.27 89.656V91.192H217.678C217.71 92.376 218.038 93.296 218.662 93.952C219.286 94.592 220.15 94.912 221.254 94.912C222.086 94.912 222.838 94.832 223.51 94.672C224.182 94.496 224.87 94.248 225.574 93.928V96.352C224.934 96.656 224.27 96.88 223.582 97.024C222.894 97.168 222.07 97.24 221.11 97.24C219.846 97.24 218.718 97 217.726 96.52C216.75 96.024 215.982 95.28 215.422 94.288C214.878 93.296 214.606 92.064 214.606 90.592C214.606 88.368 215.158 86.672 216.262 85.504C217.366 84.336 218.814 83.752 220.606 83.752ZM220.606 85.984C219.79 85.984 219.126 86.248 218.614 86.776C218.118 87.288 217.83 88.056 217.75 89.08H223.342C223.326 88.184 223.094 87.448 222.646 86.872C222.214 86.28 221.534 85.984 220.606 85.984ZM234.503 83.752C236.183 83.752 237.455 84.12 238.319 84.856C239.199 85.592 239.639 86.728 239.639 88.264V97H237.503L236.903 95.2H236.807C236.247 95.904 235.655 96.424 235.031 96.76C234.407 97.08 233.559 97.24 232.487 97.24C231.319 97.24 230.351 96.912 229.583 96.256C228.815 95.6 228.431 94.584 228.431 93.208C228.431 91.864 228.919 90.856 229.895 90.184C230.887 89.512 232.383 89.136 234.383 89.056L236.639 88.984V88.336C236.639 87.52 236.439 86.936 236.039 86.584C235.639 86.216 235.079 86.032 234.359 86.032C233.703 86.032 233.071 86.128 232.463 86.32C231.871 86.512 231.279 86.736 230.687 86.992L229.727 84.88C230.367 84.544 231.095 84.272 231.911 84.064C232.743 83.856 233.607 83.752 234.503 83.752ZM236.639 90.856L235.055 90.904C233.727 90.952 232.807 91.184 232.295 91.6C231.783 92 231.527 92.544 231.527 93.232C231.527 93.856 231.703 94.304 232.055 94.576C232.423 94.832 232.903 94.96 233.495 94.96C234.375 94.96 235.119 94.712 235.727 94.216C236.335 93.704 236.639 92.952 236.639 91.96V90.856ZM250.244 83.752C250.452 83.752 250.676 83.76 250.916 83.776C251.172 83.792 251.388 83.824 251.564 83.872L251.3 86.68C251.14 86.648 250.948 86.624 250.724 86.608C250.5 86.576 250.3 86.56 250.124 86.56C249.484 86.56 248.884 86.696 248.324 86.968C247.764 87.224 247.308 87.632 246.956 88.192C246.62 88.736 246.452 89.424 246.452 90.256V97H243.428V83.992H245.756L246.188 86.248H246.332C246.716 85.56 247.244 84.976 247.916 84.496C248.588 84 249.364 83.752 250.244 83.752ZM255.522 94.216L255.69 94.48C255.466 95.328 255.162 96.256 254.778 97.264C254.394 98.288 254.01 99.232 253.626 100.096H251.442C251.666 99.168 251.89 98.16 252.114 97.072C252.338 96 252.506 95.048 252.618 94.216H255.522ZM270.667 83.752C272.347 83.752 273.619 84.12 274.483 84.856C275.363 85.592 275.803 86.728 275.803 88.264V97H273.667L273.067 95.2H272.971C272.411 95.904 271.819 96.424 271.195 96.76C270.571 97.08 269.723 97.24 268.651 97.24C267.483 97.24 266.515 96.912 265.747 96.256C264.979 95.6 264.595 94.584 264.595 93.208C264.595 91.864 265.083 90.856 266.059 90.184C267.051 89.512 268.547 89.136 270.547 89.056L272.803 88.984V88.336C272.803 87.52 272.603 86.936 272.203 86.584C271.803 86.216 271.243 86.032 270.523 86.032C269.867 86.032 269.235 86.128 268.627 86.32C268.035 86.512 267.443 86.736 266.851 86.992L265.891 84.88C266.531 84.544 267.259 84.272 268.075 84.064C268.907 83.856 269.771 83.752 270.667 83.752ZM272.803 90.856L271.219 90.904C269.891 90.952 268.971 91.184 268.459 91.6C267.947 92 267.691 92.544 267.691 93.232C267.691 93.856 267.867 94.304 268.219 94.576C268.587 94.832 269.067 94.96 269.659 94.96C270.539 94.96 271.283 94.712 271.891 94.216C272.499 93.704 272.803 92.952 272.803 91.96V90.856ZM286.552 83.752C288.008 83.752 289.144 84.128 289.96 84.88C290.792 85.632 291.208 86.848 291.208 88.528V97H288.184V89.128C288.184 87.176 287.384 86.2 285.784 86.2C284.568 86.2 283.736 86.584 283.288 87.352C282.84 88.12 282.616 89.216 282.616 90.64V97H279.592V83.992H281.92L282.352 85.696H282.52C282.936 85.024 283.504 84.536 284.224 84.232C284.96 83.912 285.736 83.752 286.552 83.752ZM299.287 97.24C297.767 97.24 296.543 96.672 295.615 95.536C294.687 94.4 294.223 92.728 294.223 90.52C294.223 88.28 294.695 86.592 295.639 85.456C296.583 84.32 297.823 83.752 299.359 83.752C300.319 83.752 301.103 83.936 301.711 84.304C302.335 84.672 302.831 85.12 303.199 85.648H303.343C303.295 85.424 303.247 85.08 303.199 84.616C303.151 84.152 303.127 83.72 303.127 83.32V78.76H306.151V97H303.799L303.247 95.296H303.127C302.759 95.84 302.271 96.304 301.663 96.688C301.055 97.056 300.263 97.24 299.287 97.24ZM300.199 94.792C301.319 94.792 302.103 94.472 302.551 93.832C303.015 93.192 303.255 92.224 303.271 90.928V90.544C303.271 89.152 303.047 88.088 302.599 87.352C302.167 86.6 301.351 86.224 300.151 86.224C299.223 86.224 298.511 86.608 298.015 87.376C297.535 88.128 297.295 89.192 297.295 90.568C297.295 91.944 297.543 92.992 298.039 93.712C298.535 94.432 299.255 94.792 300.199 94.792ZM321.289 94.816C321.657 94.816 322.017 94.784 322.369 94.72C322.737 94.64 323.073 94.552 323.377 94.456V96.712C323.057 96.856 322.641 96.976 322.129 97.072C321.617 97.184 321.081 97.24 320.521 97.24C319.785 97.24 319.113 97.12 318.505 96.88C317.897 96.624 317.417 96.192 317.065 95.584C316.713 94.976 316.537 94.128 316.537 93.04V86.272H314.785V84.952L316.705 83.896L317.665 81.136H319.561V83.992H323.257V86.272H319.561V93.016C319.561 93.624 319.721 94.08 320.041 94.384C320.361 94.672 320.777 94.816 321.289 94.816ZM329.023 78.76V83.104C329.023 83.616 328.999 84.12 328.951 84.616C328.919 85.096 328.887 85.456 328.855 85.696H329.047C329.463 85.04 330.007 84.552 330.679 84.232C331.351 83.912 332.095 83.752 332.911 83.752C334.383 83.752 335.535 84.128 336.367 84.88C337.199 85.632 337.615 86.848 337.615 88.528V97H334.591V89.128C334.591 87.176 333.791 86.2 332.191 86.2C330.975 86.2 330.143 86.584 329.695 87.352C329.247 88.12 329.023 89.216 329.023 90.64V97H325.999V78.76H329.023ZM346.629 83.752C348.373 83.752 349.749 84.272 350.757 85.312C351.781 86.352 352.293 87.8 352.293 89.656V91.192H343.701C343.733 92.376 344.061 93.296 344.685 93.952C345.309 94.592 346.173 94.912 347.277 94.912C348.109 94.912 348.861 94.832 349.533 94.672C350.205 94.496 350.893 94.248 351.597 93.928V96.352C350.957 96.656 350.293 96.88 349.605 97.024C348.917 97.168 348.093 97.24 347.133 97.24C345.869 97.24 344.741 97 343.749 96.52C342.773 96.024 342.005 95.28 341.445 94.288C340.901 93.296 340.629 92.064 340.629 90.592C340.629 88.368 341.181 86.672 342.285 85.504C343.389 84.336 344.837 83.752 346.629 83.752ZM346.629 85.984C345.813 85.984 345.149 86.248 344.637 86.776C344.141 87.288 343.853 88.056 343.773 89.08H349.365C349.349 88.184 349.117 87.448 348.669 86.872C348.237 86.28 347.557 85.984 346.629 85.984ZM364.198 93.232C364.198 94.544 363.726 95.544 362.782 96.232C361.854 96.904 360.518 97.24 358.774 97.24C357.862 97.24 357.078 97.176 356.422 97.048C355.782 96.92 355.158 96.72 354.55 96.448V93.88C355.19 94.184 355.894 94.44 356.662 94.648C357.446 94.856 358.182 94.96 358.87 94.96C359.702 94.96 360.302 94.832 360.67 94.576C361.038 94.32 361.222 93.976 361.222 93.544C361.222 93.288 361.15 93.064 361.006 92.872C360.862 92.664 360.574 92.44 360.142 92.2C359.726 91.96 359.102 91.664 358.27 91.312C357.438 90.992 356.742 90.664 356.182 90.328C355.638 89.976 355.222 89.568 354.934 89.104C354.662 88.64 354.526 88.04 354.526 87.304C354.526 86.136 354.982 85.256 355.894 84.664C356.822 84.056 358.054 83.752 359.59 83.752C360.39 83.752 361.142 83.832 361.846 83.992C362.566 84.152 363.286 84.392 364.006 84.712L363.046 86.944C362.438 86.688 361.846 86.472 361.27 86.296C360.694 86.12 360.102 86.032 359.494 86.032C358.166 86.032 357.502 86.408 357.502 87.16C357.502 87.432 357.582 87.664 357.742 87.856C357.918 88.048 358.214 88.256 358.63 88.48C359.062 88.688 359.67 88.944 360.454 89.248C361.222 89.552 361.886 89.872 362.446 90.208C363.006 90.528 363.438 90.928 363.742 91.408C364.046 91.888 364.198 92.496 364.198 93.232ZM372.34 83.752C374.084 83.752 375.46 84.272 376.468 85.312C377.492 86.352 378.004 87.8 378.004 89.656V91.192H369.412C369.444 92.376 369.772 93.296 370.396 93.952C371.02 94.592 371.884 94.912 372.988 94.912C373.82 94.912 374.572 94.832 375.244 94.672C375.916 94.496 376.604 94.248 377.308 93.928V96.352C376.668 96.656 376.004 96.88 375.316 97.024C374.628 97.168 373.804 97.24 372.844 97.24C371.58 97.24 370.452 97 369.46 96.52C368.484 96.024 367.716 95.28 367.156 94.288C366.612 93.296 366.34 92.064 366.34 90.592C366.34 88.368 366.892 86.672 367.996 85.504C369.1 84.336 370.548 83.752 372.34 83.752ZM372.34 85.984C371.524 85.984 370.86 86.248 370.348 86.776C369.852 87.288 369.564 88.056 369.484 89.08H375.076C375.06 88.184 374.828 87.448 374.38 86.872C373.948 86.28 373.268 85.984 372.34 85.984ZM390.312 78.76V83.08C390.312 83.592 390.296 84.088 390.264 84.568C390.232 85.048 390.2 85.424 390.168 85.696H390.312C390.664 85.152 391.144 84.696 391.752 84.328C392.36 83.944 393.152 83.752 394.128 83.752C395.632 83.752 396.848 84.32 397.776 85.456C398.72 86.592 399.192 88.264 399.192 90.472C399.192 92.712 398.72 94.4 397.776 95.536C396.832 96.672 395.592 97.24 394.056 97.24C393.08 97.24 392.296 97.064 391.704 96.712C391.128 96.36 390.664 95.952 390.312 95.488H390.096L389.544 97H387.288V78.76H390.312ZM393.264 86.2C392.176 86.2 391.416 86.528 390.984 87.184C390.552 87.84 390.328 88.848 390.312 90.208V90.472C390.312 91.864 390.52 92.928 390.936 93.664C391.368 94.4 392.16 94.768 393.312 94.768C394.208 94.768 394.896 94.4 395.376 93.664C395.856 92.912 396.096 91.84 396.096 90.448C396.096 89.024 395.848 87.96 395.352 87.256C394.872 86.552 394.176 86.2 393.264 86.2ZM413.927 90.472C413.927 92.632 413.367 94.304 412.247 95.488C411.127 96.656 409.607 97.24 407.687 97.24C406.503 97.24 405.447 96.976 404.519 96.448C403.591 95.92 402.863 95.152 402.335 94.144C401.807 93.136 401.543 91.912 401.543 90.472C401.543 88.312 402.095 86.656 403.199 85.504C404.319 84.336 405.839 83.752 407.759 83.752C408.959 83.752 410.023 84.016 410.951 84.544C411.879 85.056 412.607 85.816 413.135 86.824C413.663 87.816 413.927 89.032 413.927 90.472ZM404.639 90.472C404.639 91.848 404.879 92.912 405.359 93.664C405.855 94.416 406.647 94.792 407.735 94.792C408.823 94.792 409.607 94.416 410.087 93.664C410.583 92.912 410.831 91.848 410.831 90.472C410.831 89.096 410.583 88.04 410.087 87.304C409.607 86.568 408.815 86.2 407.711 86.2C406.639 86.2 405.855 86.568 405.359 87.304C404.879 88.04 404.639 89.096 404.639 90.472ZM422.093 94.816C422.461 94.816 422.821 94.784 423.173 94.72C423.541 94.64 423.877 94.552 424.181 94.456V96.712C423.861 96.856 423.445 96.976 422.933 97.072C422.421 97.184 421.885 97.24 421.325 97.24C420.589 97.24 419.917 97.12 419.309 96.88C418.701 96.624 418.221 96.192 417.869 95.584C417.517 94.976 417.341 94.128 417.341 93.04V86.272H415.589V84.952L417.509 83.896L418.469 81.136H420.365V83.992H424.061V86.272H420.365V93.016C420.365 93.624 420.525 94.08 420.845 94.384C421.165 94.672 421.581 94.816 422.093 94.816ZM435.659 93.232C435.659 94.544 435.187 95.544 434.243 96.232C433.315 96.904 431.979 97.24 430.235 97.24C429.323 97.24 428.539 97.176 427.883 97.048C427.243 96.92 426.619 96.72 426.011 96.448V93.88C426.651 94.184 427.355 94.44 428.123 94.648C428.907 94.856 429.643 94.96 430.331 94.96C431.163 94.96 431.763 94.832 432.131 94.576C432.499 94.32 432.683 93.976 432.683 93.544C432.683 93.288 432.611 93.064 432.467 92.872C432.323 92.664 432.035 92.44 431.603 92.2C431.187 91.96 430.563 91.664 429.731 91.312C428.899 90.992 428.203 90.664 427.643 90.328C427.099 89.976 426.683 89.568 426.395 89.104C426.123 88.64 425.987 88.04 425.987 87.304C425.987 86.136 426.443 85.256 427.355 84.664C428.283 84.056 429.515 83.752 431.051 83.752C431.851 83.752 432.603 83.832 433.307 83.992C434.027 84.152 434.747 84.392 435.467 84.712L434.507 86.944C433.899 86.688 433.307 86.472 432.731 86.296C432.155 86.12 431.563 86.032 430.955 86.032C429.627 86.032 428.963 86.408 428.963 87.16C428.963 87.432 429.043 87.664 429.203 87.856C429.379 88.048 429.675 88.256 430.091 88.48C430.523 88.688 431.131 88.944 431.915 89.248C432.683 89.552 433.347 89.872 433.907 90.208C434.467 90.528 434.899 90.928 435.203 91.408C435.507 91.888 435.659 92.496 435.659 93.232ZM449.987 83.752C451.667 83.752 452.939 84.12 453.803 84.856C454.683 85.592 455.123 86.728 455.123 88.264V97H452.987L452.387 95.2H452.291C451.731 95.904 451.139 96.424 450.515 96.76C449.891 97.08 449.043 97.24 447.971 97.24C446.803 97.24 445.835 96.912 445.067 96.256C444.299 95.6 443.915 94.584 443.915 93.208C443.915 91.864 444.403 90.856 445.379 90.184C446.371 89.512 447.867 89.136 449.867 89.056L452.123 88.984V88.336C452.123 87.52 451.923 86.936 451.523 86.584C451.123 86.216 450.563 86.032 449.843 86.032C449.187 86.032 448.555 86.128 447.947 86.32C447.355 86.512 446.763 86.736 446.171 86.992L445.211 84.88C445.851 84.544 446.579 84.272 447.395 84.064C448.227 83.856 449.091 83.752 449.987 83.752ZM452.123 90.856L450.539 90.904C449.211 90.952 448.291 91.184 447.779 91.6C447.267 92 447.011 92.544 447.011 93.232C447.011 93.856 447.187 94.304 447.539 94.576C447.907 94.832 448.387 94.96 448.979 94.96C449.859 94.96 450.603 94.712 451.211 94.216C451.819 93.704 452.123 92.952 452.123 91.96V90.856ZM465.729 83.752C465.937 83.752 466.161 83.76 466.401 83.776C466.657 83.792 466.873 83.824 467.049 83.872L466.785 86.68C466.625 86.648 466.433 86.624 466.209 86.608C465.985 86.576 465.785 86.56 465.609 86.56C464.969 86.56 464.369 86.696 463.809 86.968C463.249 87.224 462.793 87.632 462.441 88.192C462.105 88.736 461.937 89.424 461.937 90.256V97H458.913V83.992H461.241L461.673 86.248H461.817C462.201 85.56 462.729 84.976 463.401 84.496C464.073 84 464.849 83.752 465.729 83.752ZM474.223 83.752C475.967 83.752 477.343 84.272 478.351 85.312C479.375 86.352 479.887 87.8 479.887 89.656V91.192H471.295C471.327 92.376 471.655 93.296 472.279 93.952C472.903 94.592 473.767 94.912 474.871 94.912C475.703 94.912 476.455 94.832 477.127 94.672C477.799 94.496 478.487 94.248 479.191 93.928V96.352C478.551 96.656 477.887 96.88 477.199 97.024C476.511 97.168 475.687 97.24 474.727 97.24C473.463 97.24 472.335 97 471.343 96.52C470.367 96.024 469.599 95.28 469.039 94.288C468.495 93.296 468.223 92.064 468.223 90.592C468.223 88.368 468.775 86.672 469.879 85.504C470.983 84.336 472.431 83.752 474.223 83.752ZM474.223 85.984C473.407 85.984 472.743 86.248 472.231 86.776C471.735 87.288 471.447 88.056 471.367 89.08H476.959C476.943 88.184 476.711 87.448 476.263 86.872C475.831 86.28 475.151 85.984 474.223 85.984ZM500.787 90.472C500.787 92.632 500.227 94.304 499.107 95.488C497.987 96.656 496.467 97.24 494.547 97.24C493.363 97.24 492.307 96.976 491.379 96.448C490.451 95.92 489.723 95.152 489.195 94.144C488.667 93.136 488.403 91.912 488.403 90.472C488.403 88.312 488.955 86.656 490.059 85.504C491.179 84.336 492.699 83.752 494.619 83.752C495.819 83.752 496.883 84.016 497.811 84.544C498.739 85.056 499.467 85.816 499.995 86.824C500.523 87.816 500.787 89.032 500.787 90.472ZM491.499 90.472C491.499 91.848 491.739 92.912 492.219 93.664C492.715 94.416 493.507 94.792 494.595 94.792C495.683 94.792 496.467 94.416 496.947 93.664C497.443 92.912 497.691 91.848 497.691 90.472C497.691 89.096 497.443 88.04 496.947 87.304C496.467 86.568 495.675 86.2 494.571 86.2C493.499 86.2 492.715 86.568 492.219 87.304C491.739 88.04 491.499 89.096 491.499 90.472ZM510.873 83.752C512.329 83.752 513.465 84.128 514.281 84.88C515.113 85.632 515.529 86.848 515.529 88.528V97H512.505V89.128C512.505 87.176 511.705 86.2 510.105 86.2C508.889 86.2 508.057 86.584 507.609 87.352C507.161 88.12 506.937 89.216 506.937 90.64V97H503.913V83.992H506.241L506.673 85.696H506.841C507.257 85.024 507.825 84.536 508.545 84.232C509.281 83.912 510.057 83.752 510.873 83.752ZM522.335 97H519.311V78.76H522.335V97ZM524.258 83.992H527.546L530.138 91.336C530.314 91.8 530.458 92.256 530.57 92.704C530.682 93.152 530.762 93.608 530.81 94.072H530.906C530.97 93.672 531.066 93.232 531.194 92.752C531.322 92.272 531.466 91.8 531.626 91.336L534.122 83.992H537.386L531.842 98.728C531.346 100.024 530.666 101.016 529.802 101.704C528.954 102.408 527.906 102.76 526.658 102.76C526.258 102.76 525.914 102.736 525.626 102.688C525.338 102.656 525.082 102.616 524.858 102.568V100.168C525.034 100.2 525.242 100.232 525.482 100.264C525.738 100.296 526.002 100.312 526.274 100.312C527.026 100.312 527.618 100.088 528.05 99.64C528.498 99.208 528.842 98.664 529.082 98.008L529.466 96.952L524.258 83.992ZM549.929 83.752C551.577 83.752 552.865 84.392 553.793 85.672H553.913L554.201 83.992H556.721V97.096C556.721 98.952 556.193 100.36 555.137 101.32C554.097 102.28 552.537 102.76 550.457 102.76C549.529 102.76 548.673 102.696 547.889 102.568C547.105 102.456 546.361 102.256 545.657 101.968V99.472C547.145 100.144 548.809 100.48 550.649 100.48C551.641 100.48 552.393 100.2 552.905 99.64C553.433 99.096 553.697 98.296 553.697 97.24V96.904C553.697 96.664 553.705 96.384 553.721 96.064C553.737 95.744 553.761 95.488 553.793 95.296H553.697C553.249 95.968 552.697 96.464 552.041 96.784C551.401 97.088 550.673 97.24 549.857 97.24C548.273 97.24 547.033 96.648 546.137 95.464C545.241 94.28 544.793 92.632 544.793 90.52C544.793 88.408 545.241 86.752 546.137 85.552C547.049 84.352 548.313 83.752 549.929 83.752ZM550.721 86.224C548.833 86.224 547.889 87.672 547.889 90.568C547.889 93.416 548.849 94.84 550.769 94.84C551.825 94.84 552.601 94.552 553.097 93.976C553.609 93.384 553.865 92.392 553.865 91V90.544C553.865 89.008 553.609 87.904 553.097 87.232C552.601 86.56 551.809 86.224 550.721 86.224ZM565.817 83.752C567.561 83.752 568.937 84.272 569.945 85.312C570.969 86.352 571.481 87.8 571.481 89.656V91.192H562.889C562.921 92.376 563.249 93.296 563.873 93.952C564.497 94.592 565.361 94.912 566.465 94.912C567.297 94.912 568.049 94.832 568.721 94.672C569.393 94.496 570.081 94.248 570.785 93.928V96.352C570.145 96.656 569.481 96.88 568.793 97.024C568.105 97.168 567.281 97.24 566.321 97.24C565.057 97.24 563.929 97 562.937 96.52C561.961 96.024 561.193 95.28 560.633 94.288C560.089 93.296 559.817 92.064 559.817 90.592C559.817 88.368 560.369 86.672 561.473 85.504C562.577 84.336 564.025 83.752 565.817 83.752ZM565.817 85.984C565.001 85.984 564.337 86.248 563.825 86.776C563.329 87.288 563.041 88.056 562.961 89.08H568.553C568.537 88.184 568.305 87.448 567.857 86.872C567.425 86.28 566.745 85.984 565.817 85.984ZM579.57 94.816C579.938 94.816 580.298 94.784 580.65 94.72C581.018 94.64 581.354 94.552 581.658 94.456V96.712C581.338 96.856 580.922 96.976 580.41 97.072C579.898 97.184 579.362 97.24 578.802 97.24C578.066 97.24 577.394 97.12 576.786 96.88C576.178 96.624 575.698 96.192 575.346 95.584C574.994 94.976 574.818 94.128 574.818 93.04V86.272H573.066V84.952L574.986 83.896L575.946 81.136H577.842V83.992H581.538V86.272H577.842V93.016C577.842 93.624 578.002 94.08 578.322 94.384C578.642 94.672 579.058 94.816 579.57 94.816ZM589.32 94.816C589.688 94.816 590.048 94.784 590.4 94.72C590.768 94.64 591.104 94.552 591.408 94.456V96.712C591.088 96.856 590.672 96.976 590.16 97.072C589.648 97.184 589.112 97.24 588.552 97.24C587.816 97.24 587.144 97.12 586.536 96.88C585.928 96.624 585.448 96.192 585.096 95.584C584.744 94.976 584.568 94.128 584.568 93.04V86.272H582.816V84.952L584.736 83.896L585.696 81.136H587.592V83.992H591.288V86.272H587.592V93.016C587.592 93.624 587.752 94.08 588.072 94.384C588.392 94.672 588.808 94.816 589.32 94.816ZM595.542 78.976C596.006 78.976 596.398 79.096 596.718 79.336C597.054 79.56 597.222 79.968 597.222 80.56C597.222 81.152 597.054 81.568 596.718 81.808C596.398 82.048 596.006 82.168 595.542 82.168C595.078 82.168 594.678 82.048 594.342 81.808C594.022 81.568 593.862 81.152 593.862 80.56C593.862 79.968 594.022 79.56 594.342 79.336C594.678 79.096 595.078 78.976 595.542 78.976ZM597.054 83.992V97H594.03V83.992H597.054ZM607.881 83.752C609.337 83.752 610.473 84.128 611.289 84.88C612.121 85.632 612.537 86.848 612.537 88.528V97H609.513V89.128C609.513 87.176 608.713 86.2 607.113 86.2C605.897 86.2 605.065 86.584 604.617 87.352C604.169 88.12 603.945 89.216 603.945 90.64V97H600.921V83.992H603.249L603.681 85.696H603.849C604.265 85.024 604.833 84.536 605.553 84.232C606.289 83.912 607.065 83.752 607.881 83.752ZM620.687 83.752C622.335 83.752 623.623 84.392 624.551 85.672H624.671L624.959 83.992H627.479V97.096C627.479 98.952 626.951 100.36 625.895 101.32C624.855 102.28 623.295 102.76 621.215 102.76C620.287 102.76 619.431 102.696 618.647 102.568C617.863 102.456 617.119 102.256 616.415 101.968V99.472C617.903 100.144 619.567 100.48 621.407 100.48C622.399 100.48 623.151 100.2 623.663 99.64C624.191 99.096 624.455 98.296 624.455 97.24V96.904C624.455 96.664 624.463 96.384 624.479 96.064C624.495 95.744 624.519 95.488 624.551 95.296H624.455C624.007 95.968 623.455 96.464 622.799 96.784C622.159 97.088 621.431 97.24 620.615 97.24C619.031 97.24 617.791 96.648 616.895 95.464C615.999 94.28 615.551 92.632 615.551 90.52C615.551 88.408 615.999 86.752 616.895 85.552C617.807 84.352 619.071 83.752 620.687 83.752ZM621.479 86.224C619.591 86.224 618.647 87.672 618.647 90.568C618.647 93.416 619.607 94.84 621.527 94.84C622.583 94.84 623.359 94.552 623.855 93.976C624.367 93.384 624.623 92.392 624.623 91V90.544C624.623 89.008 624.367 87.904 623.855 87.232C623.359 86.56 622.567 86.224 621.479 86.224ZM54.8 133.232C54.8 134.544 54.328 135.544 53.384 136.232C52.456 136.904 51.12 137.24 49.376 137.24C48.464 137.24 47.68 137.176 47.024 137.048C46.384 136.92 45.76 136.72 45.152 136.448V133.88C45.792 134.184 46.496 134.44 47.264 134.648C48.048 134.856 48.784 134.96 49.472 134.96C50.304 134.96 50.904 134.832 51.272 134.576C51.64 134.32 51.824 133.976 51.824 133.544C51.824 133.288 51.752 133.064 51.608 132.872C51.464 132.664 51.176 132.44 50.744 132.2C50.328 131.96 49.704 131.664 48.872 131.312C48.04 130.992 47.344 130.664 46.784 130.328C46.24 129.976 45.824 129.568 45.536 129.104C45.264 128.64 45.128 128.04 45.128 127.304C45.128 126.136 45.584 125.256 46.496 124.664C47.424 124.056 48.656 123.752 50.192 123.752C50.992 123.752 51.744 123.832 52.448 123.992C53.168 124.152 53.888 124.392 54.608 124.712L53.648 126.944C53.04 126.688 52.448 126.472 51.872 126.296C51.296 126.12 50.704 126.032 50.096 126.032C48.768 126.032 48.104 126.408 48.104 127.16C48.104 127.432 48.184 127.664 48.344 127.856C48.52 128.048 48.816 128.256 49.232 128.48C49.664 128.688 50.272 128.944 51.056 129.248C51.824 129.552 52.488 129.872 53.048 130.208C53.608 130.528 54.04 130.928 54.344 131.408C54.648 131.888 54.8 132.496 54.8 133.232ZM72.6136 123.752C74.0856 123.752 75.1896 124.128 75.9256 124.88C76.6776 125.632 77.0536 126.848 77.0536 128.528V137H74.0296V129.104C74.0296 127.168 73.2936 126.2 71.8216 126.2C70.7656 126.2 70.0136 126.544 69.5656 127.232C69.1176 127.92 68.8936 128.92 68.8936 130.232V137H65.8696V129.104C65.8696 127.168 65.1256 126.2 63.6376 126.2C62.5336 126.2 61.7736 126.584 61.3576 127.352C60.9416 128.12 60.7336 129.216 60.7336 130.64V137H57.7096V123.992H60.0376L60.4696 125.696H60.6376C61.0216 125.024 61.5576 124.536 62.2456 124.232C62.9496 123.912 63.6776 123.752 64.4296 123.752C65.4056 123.752 66.2216 123.92 66.8776 124.256C67.5496 124.576 68.0616 125.08 68.4136 125.768H68.6536C69.0536 125.064 69.6136 124.552 70.3336 124.232C71.0536 123.912 71.8136 123.752 72.6136 123.752ZM86.0264 123.752C87.7064 123.752 88.9784 124.12 89.8424 124.856C90.7224 125.592 91.1624 126.728 91.1624 128.264V137H89.0264L88.4264 135.2H88.3304C87.7704 135.904 87.1784 136.424 86.5544 136.76C85.9304 137.08 85.0824 137.24 84.0104 137.24C82.8424 137.24 81.8744 136.912 81.1064 136.256C80.3384 135.6 79.9544 134.584 79.9544 133.208C79.9544 131.864 80.4424 130.856 81.4184 130.184C82.4104 129.512 83.9064 129.136 85.9064 129.056L88.1624 128.984V128.336C88.1624 127.52 87.9624 126.936 87.5624 126.584C87.1624 126.216 86.6024 126.032 85.8824 126.032C85.2264 126.032 84.5944 126.128 83.9864 126.32C83.3944 126.512 82.8024 126.736 82.2104 126.992L81.2504 124.88C81.8904 124.544 82.6184 124.272 83.4344 124.064C84.2664 123.856 85.1304 123.752 86.0264 123.752ZM88.1624 130.856L86.5784 130.904C85.2504 130.952 84.3304 131.184 83.8184 131.6C83.3064 132 83.0504 132.544 83.0504 133.232C83.0504 133.856 83.2264 134.304 83.5784 134.576C83.9464 134.832 84.4264 134.96 85.0184 134.96C85.8984 134.96 86.6424 134.712 87.2504 134.216C87.8584 133.704 88.1624 132.952 88.1624 131.96V130.856ZM101.768 123.752C101.976 123.752 102.2 123.76 102.44 123.776C102.696 123.792 102.912 123.824 103.088 123.872L102.824 126.68C102.664 126.648 102.472 126.624 102.248 126.608C102.024 126.576 101.824 126.56 101.648 126.56C101.008 126.56 100.408 126.696 99.8478 126.968C99.2878 127.224 98.8318 127.632 98.4798 128.192C98.1438 128.736 97.9758 129.424 97.9758 130.256V137H94.9518V123.992H97.2798L97.7118 126.248H97.8558C98.2398 125.56 98.7678 124.976 99.4398 124.496C100.112 124 100.888 123.752 101.768 123.752ZM110.539 134.816C110.907 134.816 111.267 134.784 111.619 134.72C111.987 134.64 112.323 134.552 112.627 134.456V136.712C112.307 136.856 111.891 136.976 111.379 137.072C110.867 137.184 110.331 137.24 109.771 137.24C109.035 137.24 108.363 137.12 107.755 136.88C107.147 136.624 106.667 136.192 106.315 135.584C105.963 134.976 105.787 134.128 105.787 133.04V126.272H104.035V124.952L105.955 123.896L106.915 121.136H108.811V123.992H112.507V126.272H108.811V133.016C108.811 133.624 108.971 134.08 109.291 134.384C109.611 134.672 110.027 134.816 110.539 134.816ZM120.481 123.752C122.225 123.752 123.601 124.272 124.609 125.312C125.633 126.352 126.145 127.8 126.145 129.656V131.192H117.553C117.585 132.376 117.913 133.296 118.537 133.952C119.161 134.592 120.025 134.912 121.129 134.912C121.961 134.912 122.713 134.832 123.385 134.672C124.057 134.496 124.745 134.248 125.449 133.928V136.352C124.809 136.656 124.145 136.88 123.457 137.024C122.769 137.168 121.945 137.24 120.985 137.24C119.721 137.24 118.593 137 117.601 136.52C116.625 136.024 115.857 135.28 115.297 134.288C114.753 133.296 114.481 132.064 114.481 130.592C114.481 128.368 115.033 126.672 116.137 125.504C117.241 124.336 118.689 123.752 120.481 123.752ZM120.481 125.984C119.665 125.984 119.001 126.248 118.489 126.776C117.993 127.288 117.705 128.056 117.625 129.08H123.217C123.201 128.184 122.969 127.448 122.521 126.872C122.089 126.28 121.409 125.984 120.481 125.984ZM136.01 123.752C136.218 123.752 136.442 123.76 136.682 123.776C136.938 123.792 137.154 123.824 137.33 123.872L137.066 126.68C136.906 126.648 136.714 126.624 136.49 126.608C136.266 126.576 136.066 126.56 135.89 126.56C135.25 126.56 134.65 126.696 134.09 126.968C133.53 127.224 133.074 127.632 132.722 128.192C132.386 128.736 132.218 129.424 132.218 130.256V137H129.194V123.992H131.522L131.954 126.248H132.098C132.482 125.56 133.01 124.976 133.682 124.496C134.354 124 135.13 123.752 136.01 123.752ZM151.159 123.752C152.839 123.752 154.111 124.12 154.975 124.856C155.855 125.592 156.295 126.728 156.295 128.264V137H154.159L153.559 135.2H153.463C152.903 135.904 152.311 136.424 151.687 136.76C151.063 137.08 150.215 137.24 149.143 137.24C147.975 137.24 147.007 136.912 146.239 136.256C145.471 135.6 145.087 134.584 145.087 133.208C145.087 131.864 145.575 130.856 146.551 130.184C147.543 129.512 149.039 129.136 151.039 129.056L153.295 128.984V128.336C153.295 127.52 153.095 126.936 152.695 126.584C152.295 126.216 151.735 126.032 151.015 126.032C150.359 126.032 149.727 126.128 149.119 126.32C148.527 126.512 147.935 126.736 147.343 126.992L146.383 124.88C147.023 124.544 147.751 124.272 148.567 124.064C149.399 123.856 150.263 123.752 151.159 123.752ZM153.295 130.856L151.711 130.904C150.383 130.952 149.463 131.184 148.951 131.6C148.439 132 148.183 132.544 148.183 133.232C148.183 133.856 148.359 134.304 148.711 134.576C149.079 134.832 149.559 134.96 150.151 134.96C151.031 134.96 151.775 134.712 152.383 134.216C152.991 133.704 153.295 132.952 153.295 131.96V130.856ZM167.045 123.752C168.501 123.752 169.637 124.128 170.453 124.88C171.285 125.632 171.701 126.848 171.701 128.528V137H168.677V129.128C168.677 127.176 167.877 126.2 166.277 126.2C165.061 126.2 164.229 126.584 163.781 127.352C163.333 128.12 163.109 129.216 163.109 130.64V137H160.085V123.992H162.413L162.845 125.696H163.013C163.429 125.024 163.997 124.536 164.717 124.232C165.453 123.912 166.229 123.752 167.045 123.752ZM179.779 137.24C178.259 137.24 177.035 136.672 176.107 135.536C175.179 134.4 174.715 132.728 174.715 130.52C174.715 128.28 175.187 126.592 176.131 125.456C177.075 124.32 178.315 123.752 179.851 123.752C180.811 123.752 181.595 123.936 182.203 124.304C182.827 124.672 183.323 125.12 183.691 125.648H183.835C183.787 125.424 183.739 125.08 183.691 124.616C183.643 124.152 183.619 123.72 183.619 123.32V118.76H186.643V137H184.291L183.739 135.296H183.619C183.251 135.84 182.763 136.304 182.155 136.688C181.547 137.056 180.755 137.24 179.779 137.24ZM180.691 134.792C181.811 134.792 182.595 134.472 183.043 133.832C183.507 133.192 183.747 132.224 183.763 130.928V130.544C183.763 129.152 183.539 128.088 183.091 127.352C182.659 126.6 181.843 126.224 180.643 126.224C179.715 126.224 179.003 126.608 178.507 127.376C178.027 128.128 177.787 129.192 177.787 130.568C177.787 131.944 178.035 132.992 178.531 133.712C179.027 134.432 179.747 134.792 180.691 134.792ZM201.925 123.752C203.605 123.752 204.877 124.12 205.741 124.856C206.621 125.592 207.061 126.728 207.061 128.264V137H204.925L204.325 135.2H204.229C203.669 135.904 203.077 136.424 202.453 136.76C201.829 137.08 200.981 137.24 199.909 137.24C198.741 137.24 197.773 136.912 197.005 136.256C196.237 135.6 195.853 134.584 195.853 133.208C195.853 131.864 196.341 130.856 197.317 130.184C198.309 129.512 199.805 129.136 201.805 129.056L204.061 128.984V128.336C204.061 127.52 203.861 126.936 203.461 126.584C203.061 126.216 202.501 126.032 201.781 126.032C201.125 126.032 200.493 126.128 199.885 126.32C199.293 126.512 198.701 126.736 198.109 126.992L197.149 124.88C197.789 124.544 198.517 124.272 199.333 124.064C200.165 123.856 201.029 123.752 201.925 123.752ZM204.061 130.856L202.477 130.904C201.149 130.952 200.229 131.184 199.717 131.6C199.205 132 198.949 132.544 198.949 133.232C198.949 133.856 199.125 134.304 199.477 134.576C199.845 134.832 200.325 134.96 200.917 134.96C201.797 134.96 202.541 134.712 203.149 134.216C203.757 133.704 204.061 132.952 204.061 131.96V130.856ZM217.69 123.752C219.21 123.752 220.434 124.32 221.362 125.456C222.29 126.576 222.754 128.248 222.754 130.472C222.754 132.696 222.274 134.384 221.314 135.536C220.37 136.672 219.138 137.24 217.618 137.24C216.658 137.24 215.882 137.064 215.29 136.712C214.698 136.36 214.226 135.952 213.874 135.488H213.682C213.73 135.792 213.77 136.128 213.802 136.496C213.85 136.848 213.874 137.176 213.874 137.48V142.76H210.85V123.992H213.298L213.73 125.72H213.874C214.226 125.176 214.706 124.712 215.314 124.328C215.922 123.944 216.714 123.752 217.69 123.752ZM216.826 126.2C215.754 126.2 214.994 126.52 214.546 127.16C214.114 127.8 213.89 128.768 213.874 130.064V130.448C213.874 131.84 214.082 132.912 214.498 133.664C214.93 134.4 215.722 134.768 216.874 134.768C217.818 134.768 218.514 134.384 218.962 133.616C219.426 132.832 219.658 131.768 219.658 130.424C219.658 129.08 219.426 128.04 218.962 127.304C218.514 126.568 217.802 126.2 216.826 126.2ZM232.714 123.752C234.234 123.752 235.458 124.32 236.386 125.456C237.314 126.576 237.778 128.248 237.778 130.472C237.778 132.696 237.298 134.384 236.338 135.536C235.394 136.672 234.162 137.24 232.642 137.24C231.682 137.24 230.906 137.064 230.314 136.712C229.722 136.36 229.25 135.952 228.898 135.488H228.706C228.754 135.792 228.794 136.128 228.826 136.496C228.874 136.848 228.898 137.176 228.898 137.48V142.76H225.874V123.992H228.322L228.754 125.72H228.898C229.25 125.176 229.73 124.712 230.338 124.328C230.946 123.944 231.738 123.752 232.714 123.752ZM231.85 126.2C230.778 126.2 230.018 126.52 229.57 127.16C229.138 127.8 228.914 128.768 228.898 130.064V130.448C228.898 131.84 229.106 132.912 229.522 133.664C229.954 134.4 230.746 134.768 231.898 134.768C232.842 134.768 233.538 134.384 233.986 133.616C234.45 132.832 234.682 131.768 234.682 130.424C234.682 129.08 234.45 128.04 233.986 127.304C233.538 126.568 232.826 126.2 231.85 126.2ZM246.129 123.752C247.873 123.752 249.249 124.272 250.257 125.312C251.281 126.352 251.793 127.8 251.793 129.656V131.192H243.201C243.233 132.376 243.561 133.296 244.185 133.952C244.809 134.592 245.673 134.912 246.777 134.912C247.609 134.912 248.361 134.832 249.033 134.672C249.705 134.496 250.393 134.248 251.097 133.928V136.352C250.457 136.656 249.793 136.88 249.105 137.024C248.417 137.168 247.593 137.24 246.633 137.24C245.369 137.24 244.241 137 243.249 136.52C242.273 136.024 241.505 135.28 240.945 134.288C240.401 133.296 240.129 132.064 240.129 130.592C240.129 128.368 240.681 126.672 241.785 125.504C242.889 124.336 244.337 123.752 246.129 123.752ZM246.129 125.984C245.313 125.984 244.649 126.248 244.137 126.776C243.641 127.288 243.353 128.056 243.273 129.08H248.865C248.849 128.184 248.617 127.448 248.169 126.872C247.737 126.28 247.057 125.984 246.129 125.984ZM260.026 123.752C261.706 123.752 262.978 124.12 263.842 124.856C264.722 125.592 265.162 126.728 265.162 128.264V137H263.026L262.426 135.2H262.33C261.77 135.904 261.178 136.424 260.554 136.76C259.93 137.08 259.082 137.24 258.01 137.24C256.842 137.24 255.874 136.912 255.106 136.256C254.338 135.6 253.954 134.584 253.954 133.208C253.954 131.864 254.442 130.856 255.418 130.184C256.41 129.512 257.906 129.136 259.906 129.056L262.162 128.984V128.336C262.162 127.52 261.962 126.936 261.562 126.584C261.162 126.216 260.602 126.032 259.882 126.032C259.226 126.032 258.594 126.128 257.986 126.32C257.394 126.512 256.802 126.736 256.21 126.992L255.25 124.88C255.89 124.544 256.618 124.272 257.434 124.064C258.266 123.856 259.13 123.752 260.026 123.752ZM262.162 130.856L260.578 130.904C259.25 130.952 258.33 131.184 257.818 131.6C257.306 132 257.05 132.544 257.05 133.232C257.05 133.856 257.226 134.304 257.578 134.576C257.946 134.832 258.426 134.96 259.018 134.96C259.898 134.96 260.642 134.712 261.25 134.216C261.858 133.704 262.162 132.952 262.162 131.96V130.856ZM275.768 123.752C275.976 123.752 276.2 123.76 276.44 123.776C276.696 123.792 276.912 123.824 277.088 123.872L276.824 126.68C276.664 126.648 276.472 126.624 276.248 126.608C276.024 126.576 275.824 126.56 275.648 126.56C275.008 126.56 274.408 126.696 273.848 126.968C273.288 127.224 272.832 127.632 272.48 128.192C272.144 128.736 271.976 129.424 271.976 130.256V137H268.952V123.992H271.28L271.712 126.248H271.856C272.24 125.56 272.768 124.976 273.44 124.496C274.112 124 274.888 123.752 275.768 123.752ZM281.011 118.976C281.475 118.976 281.867 119.096 282.187 119.336C282.523 119.56 282.691 119.968 282.691 120.56C282.691 121.152 282.523 121.568 282.187 121.808C281.867 122.048 281.475 122.168 281.011 122.168C280.547 122.168 280.147 122.048 279.811 121.808C279.491 121.568 279.331 121.152 279.331 120.56C279.331 119.968 279.491 119.56 279.811 119.336C280.147 119.096 280.547 118.976 281.011 118.976ZM282.523 123.992V137H279.499V123.992H282.523ZM293.349 123.752C294.805 123.752 295.941 124.128 296.757 124.88C297.589 125.632 298.005 126.848 298.005 128.528V137H294.981V129.128C294.981 127.176 294.181 126.2 292.581 126.2C291.365 126.2 290.533 126.584 290.085 127.352C289.637 128.12 289.413 129.216 289.413 130.64V137H286.389V123.992H288.717L289.149 125.696H289.317C289.733 125.024 290.301 124.536 291.021 124.232C291.757 123.912 292.533 123.752 293.349 123.752ZM306.156 123.752C307.804 123.752 309.092 124.392 310.02 125.672H310.14L310.428 123.992H312.948V137.096C312.948 138.952 312.42 140.36 311.364 141.32C310.324 142.28 308.764 142.76 306.684 142.76C305.756 142.76 304.9 142.696 304.116 142.568C303.332 142.456 302.588 142.256 301.884 141.968V139.472C303.372 140.144 305.036 140.48 306.876 140.48C307.868 140.48 308.62 140.2 309.132 139.64C309.66 139.096 309.924 138.296 309.924 137.24V136.904C309.924 136.664 309.932 136.384 309.948 136.064C309.964 135.744 309.988 135.488 310.02 135.296H309.924C309.476 135.968 308.924 136.464 308.268 136.784C307.628 137.088 306.9 137.24 306.084 137.24C304.5 137.24 303.26 136.648 302.364 135.464C301.468 134.28 301.02 132.632 301.02 130.52C301.02 128.408 301.468 126.752 302.364 125.552C303.276 124.352 304.54 123.752 306.156 123.752ZM306.948 126.224C305.06 126.224 304.116 127.672 304.116 130.568C304.116 133.416 305.076 134.84 306.996 134.84C308.052 134.84 308.828 134.552 309.324 133.976C309.836 133.384 310.092 132.392 310.092 131V130.544C310.092 129.008 309.836 127.904 309.324 127.232C308.828 126.56 308.036 126.224 306.948 126.224ZM337.95 123.752C339.422 123.752 340.526 124.128 341.262 124.88C342.014 125.632 342.39 126.848 342.39 128.528V137H339.366V129.104C339.366 127.168 338.63 126.2 337.158 126.2C336.102 126.2 335.35 126.544 334.902 127.232C334.454 127.92 334.23 128.92 334.23 130.232V137H331.206V129.104C331.206 127.168 330.462 126.2 328.974 126.2C327.87 126.2 327.11 126.584 326.694 127.352C326.278 128.12 326.07 129.216 326.07 130.64V137H323.046V123.992H325.374L325.806 125.696H325.974C326.358 125.024 326.894 124.536 327.582 124.232C328.286 123.912 329.014 123.752 329.766 123.752C330.742 123.752 331.558 123.92 332.214 124.256C332.886 124.576 333.398 125.08 333.75 125.768H333.99C334.39 125.064 334.95 124.552 335.67 124.232C336.39 123.912 337.15 123.752 337.95 123.752ZM357.794 130.472C357.794 132.632 357.234 134.304 356.114 135.488C354.994 136.656 353.474 137.24 351.554 137.24C350.37 137.24 349.314 136.976 348.386 136.448C347.458 135.92 346.73 135.152 346.202 134.144C345.674 133.136 345.41 131.912 345.41 130.472C345.41 128.312 345.962 126.656 347.066 125.504C348.186 124.336 349.706 123.752 351.626 123.752C352.826 123.752 353.89 124.016 354.818 124.544C355.746 125.056 356.474 125.816 357.002 126.824C357.53 127.816 357.794 129.032 357.794 130.472ZM348.506 130.472C348.506 131.848 348.746 132.912 349.226 133.664C349.722 134.416 350.514 134.792 351.602 134.792C352.69 134.792 353.474 134.416 353.954 133.664C354.45 132.912 354.698 131.848 354.698 130.472C354.698 129.096 354.45 128.04 353.954 127.304C353.474 126.568 352.682 126.2 351.578 126.2C350.506 126.2 349.722 126.568 349.226 127.304C348.746 128.04 348.506 129.096 348.506 130.472ZM367.737 123.752C367.945 123.752 368.169 123.76 368.409 123.776C368.665 123.792 368.881 123.824 369.057 123.872L368.793 126.68C368.633 126.648 368.441 126.624 368.217 126.608C367.993 126.576 367.793 126.56 367.617 126.56C366.977 126.56 366.377 126.696 365.817 126.968C365.257 127.224 364.801 127.632 364.449 128.192C364.113 128.736 363.945 129.424 363.945 130.256V137H360.921V123.992H363.249L363.681 126.248H363.825C364.209 125.56 364.737 124.976 365.409 124.496C366.081 124 366.857 123.752 367.737 123.752ZM376.231 123.752C377.975 123.752 379.351 124.272 380.359 125.312C381.383 126.352 381.895 127.8 381.895 129.656V131.192H373.303C373.335 132.376 373.663 133.296 374.287 133.952C374.911 134.592 375.775 134.912 376.879 134.912C377.711 134.912 378.463 134.832 379.135 134.672C379.807 134.496 380.495 134.248 381.199 133.928V136.352C380.559 136.656 379.895 136.88 379.207 137.024C378.519 137.168 377.695 137.24 376.735 137.24C375.471 137.24 374.343 137 373.351 136.52C372.375 136.024 371.607 135.28 371.047 134.288C370.503 133.296 370.231 132.064 370.231 130.592C370.231 128.368 370.783 126.672 371.887 125.504C372.991 124.336 374.439 123.752 376.231 123.752ZM376.231 125.984C375.415 125.984 374.751 126.248 374.239 126.776C373.743 127.288 373.455 128.056 373.375 129.08H378.967C378.951 128.184 378.719 127.448 378.271 126.872C377.839 126.28 377.159 125.984 376.231 125.984ZM394.202 118.76V123.104C394.202 123.616 394.178 124.12 394.13 124.616C394.098 125.096 394.066 125.456 394.034 125.696H394.226C394.642 125.04 395.186 124.552 395.858 124.232C396.53 123.912 397.274 123.752 398.09 123.752C399.562 123.752 400.714 124.128 401.546 124.88C402.378 125.632 402.794 126.848 402.794 128.528V137H399.77V129.128C399.77 127.176 398.97 126.2 397.37 126.2C396.154 126.2 395.322 126.584 394.874 127.352C394.426 128.12 394.202 129.216 394.202 130.64V137H391.178V118.76H394.202ZM418.121 123.992V137H415.745L415.337 135.32H415.193C414.761 135.992 414.177 136.48 413.441 136.784C412.721 137.088 411.953 137.24 411.137 137.24C409.681 137.24 408.537 136.864 407.705 136.112C406.889 135.36 406.481 134.152 406.481 132.488V123.992H409.505V131.888C409.505 133.824 410.305 134.792 411.905 134.792C413.121 134.792 413.953 134.416 414.401 133.664C414.865 132.896 415.097 131.792 415.097 130.352V123.992H418.121ZM436.879 123.752C438.351 123.752 439.455 124.128 440.191 124.88C440.943 125.632 441.319 126.848 441.319 128.528V137H438.295V129.104C438.295 127.168 437.559 126.2 436.087 126.2C435.031 126.2 434.279 126.544 433.831 127.232C433.383 127.92 433.159 128.92 433.159 130.232V137H430.135V129.104C430.135 127.168 429.391 126.2 427.903 126.2C426.799 126.2 426.039 126.584 425.623 127.352C425.207 128.12 424.999 129.216 424.999 130.64V137H421.975V123.992H424.303L424.735 125.696H424.903C425.287 125.024 425.823 124.536 426.511 124.232C427.215 123.912 427.943 123.752 428.695 123.752C429.671 123.752 430.487 123.92 431.143 124.256C431.815 124.576 432.327 125.08 432.679 125.768H432.919C433.319 125.064 433.879 124.552 434.599 124.232C435.319 123.912 436.079 123.752 436.879 123.752ZM450.292 123.752C451.972 123.752 453.244 124.12 454.108 124.856C454.988 125.592 455.428 126.728 455.428 128.264V137H453.292L452.692 135.2H452.596C452.036 135.904 451.444 136.424 450.82 136.76C450.196 137.08 449.348 137.24 448.276 137.24C447.108 137.24 446.14 136.912 445.372 136.256C444.604 135.6 444.22 134.584 444.22 133.208C444.22 131.864 444.708 130.856 445.684 130.184C446.676 129.512 448.172 129.136 450.172 129.056L452.428 128.984V128.336C452.428 127.52 452.228 126.936 451.828 126.584C451.428 126.216 450.868 126.032 450.148 126.032C449.492 126.032 448.86 126.128 448.252 126.32C447.66 126.512 447.068 126.736 446.476 126.992L445.516 124.88C446.156 124.544 446.884 124.272 447.7 124.064C448.532 123.856 449.396 123.752 450.292 123.752ZM452.428 130.856L450.844 130.904C449.516 130.952 448.596 131.184 448.084 131.6C447.572 132 447.316 132.544 447.316 133.232C447.316 133.856 447.492 134.304 447.844 134.576C448.212 134.832 448.692 134.96 449.284 134.96C450.164 134.96 450.908 134.712 451.516 134.216C452.124 133.704 452.428 132.952 452.428 131.96V130.856ZM466.177 123.752C467.633 123.752 468.769 124.128 469.585 124.88C470.417 125.632 470.833 126.848 470.833 128.528V137H467.809V129.128C467.809 127.176 467.009 126.2 465.409 126.2C464.193 126.2 463.361 126.584 462.913 127.352C462.465 128.12 462.241 129.216 462.241 130.64V137H459.217V123.992H461.545L461.977 125.696H462.145C462.561 125.024 463.129 124.536 463.849 124.232C464.585 123.912 465.361 123.752 466.177 123.752ZM474.184 135.464C474.184 134.792 474.36 134.32 474.712 134.048C475.064 133.76 475.496 133.616 476.008 133.616C476.504 133.616 476.936 133.76 477.304 134.048C477.672 134.32 477.856 134.792 477.856 135.464C477.856 136.12 477.672 136.592 477.304 136.88C476.936 137.168 476.504 137.312 476.008 137.312C475.496 137.312 475.064 137.168 474.712 136.88C474.36 136.592 474.184 136.12 474.184 135.464Z" fill="#141414"/>
</svg>
