<svg width="429" height="834" viewBox="0 0 429 834" fill="none" xmlns="http://www.w3.org/2000/svg">
<path d="M367.893 11.9883H40.1302C17.9894 11.9883 0 29.9777 0 52.1185V793.637C0 815.778 17.9894 833.768 40.1302 833.768H367.695C389.836 833.768 407.825 815.778 407.825 793.637V52.1185C408.023 29.9777 389.836 11.9883 367.893 11.9883ZM388.057 783.555C388.057 796.01 377.777 806.289 365.323 806.289H42.7001C30.2459 806.289 19.9662 796.01 19.9662 783.555V62.2004C19.9662 49.7462 30.2459 39.4666 42.7001 39.4666H138.182C138.182 52.5138 148.857 63.1889 161.905 63.1889H253.235C266.283 63.1889 276.958 52.5138 276.958 39.4666H365.125C377.58 39.4666 387.859 49.7462 387.859 62.2004V783.555H388.057Z" fill="#CC92A7"/>
<g clip-path="url(#clip0)">
<rect x="38" y="21" width="382" height="781" fill="#F2F2F2"/>
<path d="M387.893 1.98828H60.1302C37.9894 1.98828 20 19.9777 20 42.1185V783.637C20 805.778 37.9894 823.768 60.1302 823.768H387.695C409.836 823.768 427.825 805.778 427.825 783.637V42.1185C428.023 19.9777 409.836 1.98828 387.893 1.98828ZM408.057 773.555C408.057 786.01 397.777 796.289 385.323 796.289H62.7001C50.2459 796.289 39.9662 786.01 39.9662 773.555V52.2004C39.9662 39.7462 50.2459 29.4666 62.7001 29.4666H158.182C158.182 42.5138 168.857 53.1889 181.905 53.1889H273.235C286.283 53.1889 296.958 42.5138 296.958 29.4666H385.125C397.58 29.4666 407.859 39.7462 407.859 52.2004V773.555H408.057Z" fill="#333333" stroke="black" stroke-miterlimit="10"/>
<rect x="50" y="148" width="347" height="615" rx="25" fill="white"/>
<rect x="64" y="165" width="319" height="392" rx="25" fill="#F4DC88"/>
<path d="M207.609 318.748L184.562 336.338L189.414 433.382L251.886 493.427L287.671 369.09L263.41 285.996L207.609 318.748Z" fill="#E4E4E4" stroke="black" stroke-width="1.26265"/>
<path d="M307.079 372.732L308.898 369.699C309.303 372.732 310.111 379.525 310.111 382.436C310.111 386.075 305.866 401.238 305.259 405.484C304.653 409.73 291.916 435.81 287.67 444.302C284.273 451.095 270.889 469.776 264.622 478.267C268.868 471.595 279.3 454.613 287.063 440.056C294.827 425.499 303.642 389.108 307.079 372.732Z" stroke="black" stroke-width="1.26265"/>
<path d="M128.761 492.817C134.584 483.113 150.596 451.169 157.875 436.41C160.705 436.41 168.914 437.259 179.103 440.656C189.293 444.052 206.397 504.745 213.675 534.667L207.61 555.896L184.322 541.479C182.879 540.586 181.265 539.981 179.582 539.764C150.415 536.007 147.166 548.819 140.286 555.896H115.418C102.074 541.339 121.483 504.947 128.761 492.817Z" fill="#B4D2A9" stroke="black" stroke-width="1.26265"/>
<path d="M176.676 336.334C175.516 336.721 167.78 340.58 165.758 342.399C161.877 409.845 215.089 462.693 242.181 480.687L249.459 472.802C230.05 468.557 206.396 411.543 206.396 398.806C206.396 388.617 191.435 352.104 183.954 335.121C183.146 335.323 180.315 335.121 176.676 336.334Z" fill="#B4D2A9" stroke="black" stroke-width="1.26265"/>
<path d="M239.754 226.554C220.345 204.719 195.68 213.008 185.774 219.882C165.394 230.071 170.408 264.158 175.463 279.929C179.91 292.464 193.294 318.868 211.248 324.205C233.689 330.877 245.641 326.527 255.524 311.468C268.261 292.059 264.015 253.847 239.754 226.554Z" fill="#E4E4E4" stroke="black" stroke-width="1.26265"/>
<path d="M347.11 357.564C345.169 340.096 319.21 333.303 306.473 332.09C290.299 371.514 257.344 450.969 257.344 450.969C257.344 450.969 250.672 472.197 240.968 480.082C233.204 486.39 214.281 533.456 205.79 556.504L255.525 557.11C256.333 553.269 264.622 530.423 270.081 520.112C282.121 497.37 330.734 409.725 341.045 392.136C349.293 378.064 348.525 363.225 347.11 357.564Z" fill="#E4E4E4" stroke="black" stroke-width="1.26265"/>
<path d="M159.691 315.108C142.223 282.598 145.745 238.686 159.692 223.523C168.79 210.179 196.207 187.495 233.083 203.507C279.179 223.523 290.097 267.8 293.13 279.324C296.162 290.848 299.801 321.174 321.636 343.616C344.442 373.214 323.456 424.688 310.112 446.725C316.888 431.366 313.676 394.488 310.753 374.463C314.016 408.515 275.417 469.174 261.433 482.691C261.282 482.86 261.133 483.002 260.984 483.116C261.13 482.98 261.28 482.838 261.433 482.691C269.609 473.472 279.709 383.46 275.54 373.335C272.629 380.128 265.836 392.744 253.099 405.481L260.984 366.057C268.869 326.633 260.377 253.243 240.362 227.163C233.806 218.62 211.977 208.24 197.905 215.032C184.764 219.48 172.431 231.409 172.431 257.489C172.431 272.046 177.283 281.75 179.709 288.422C180.55 290.733 196.086 315.108 206.394 322.387L217.921 347.861C209.429 347.861 174.251 335.124 159.691 315.108Z" fill="#313234" stroke="black" stroke-width="1.26265"/>
<path d="M192.447 491.001C179.847 470.012 176.678 469.166 148.172 415.792C132.159 382.101 153.226 352.828 165.761 342.402C168.996 347.052 178.134 361.326 188.809 381.22C199.485 401.114 198.11 409.727 196.088 411.546C196.573 427.558 226.614 463.101 241.575 479.477C237.936 484.329 220.349 518.294 213.07 535.884C211.049 526.988 196.088 497.066 192.447 491.001Z" fill="#E4E4E4" stroke="black" stroke-width="1.26265"/>
<path d="M180.315 443.691C164.788 422.827 152.01 387.284 147.562 372.121C142.104 376.973 143.317 396.382 144.53 403.66C145.743 410.939 151.201 419.43 152.414 422.463C153.627 425.495 183.954 476.443 188.806 483.722C193.658 491 199.724 503.737 200.936 506.163C201.857 508.005 209.63 524.965 213.067 533.457L222.771 512.835C215.089 498.48 195.842 464.555 180.315 443.691Z" fill="#AFAFAF"/>
<path d="M115.417 555.902H139.678H142.711C142.913 554.689 145.258 550.807 153.022 544.985C162.726 537.706 171.824 540.132 178.496 540.132C183.833 540.132 198.915 550.848 205.789 556.509L211.854 540.132H199.117C173.401 538.677 141.498 507.986 128.761 492.823C130.176 490.195 130.094 490.276 118.449 511.625C106.804 532.975 111.575 550.038 115.417 555.902Z" fill="#43ABAB" stroke="black" stroke-width="1.26265"/>
<path d="M219.133 348.468L207.609 323.601L220.346 327.24C227.018 328.453 233.083 327.846 236.723 327.24C250.673 323.601 258.355 309.246 261.59 300.553C262.197 303.585 263.41 336.944 262.803 336.944C264.016 353.927 254.312 393.351 253.705 398.203C253.22 402.085 250.268 411.547 248.853 415.792C252.735 401.236 212.866 359.588 192.446 340.583C201.544 346.649 214.281 348.266 219.133 348.468Z" fill="#AFAFAF"/>
<path d="M177.889 537.096C162.847 526.906 127.548 537.702 111.778 544.374C110.807 547.77 113.8 553.472 115.417 555.898H142.711C159.208 536.004 179.506 539.926 187.593 544.374C190.626 546.194 192.931 547.285 177.889 537.096Z" fill="#5ACFCF" stroke="black" stroke-width="1.26265"/>
<path d="M183.349 299.945C175.464 290.241 173.038 277.504 173.038 270.832C174.655 275.482 178.011 285.267 178.496 287.208C179.103 289.634 182.742 295.093 188.807 303.584C193.659 310.377 202.151 319.354 205.79 322.993L206.396 324.813C204.779 324.611 201.544 323.842 201.544 322.387C201.544 320.567 191.233 309.65 183.349 299.945Z" fill="black"/>
<path d="M277.4 248.862C274.004 246.436 274.731 248.795 274.934 250.21C276.753 253.849 288.317 301.024 288.923 304.663C289.53 308.302 296.202 317.4 294.989 304.663C293.776 291.926 281.646 251.895 277.4 248.862Z" fill="#565656"/>
<path d="M274.326 369.088C274.326 371.029 260.983 391.732 254.311 401.841V403.053C257.222 403.053 269.474 386.07 275.539 372.12C275.337 370.3 274.326 367.147 274.326 369.088Z" fill="#19191B"/>
<path d="M201.545 510.41C193.66 511.016 170.814 484.127 159.695 469.166C158.724 483.723 193.66 521.731 211.249 538.916L211.856 536.49V534.671C211.856 532.73 204.982 517.688 201.545 510.41Z" fill="#99B390"/>
<path d="M197.555 519.988C191.809 521.936 169.644 505.852 158.495 496.602C160.576 507.827 193.872 530.065 210.259 539.78L210.243 537.825L209.893 536.445C209.519 534.973 201.512 524.86 197.555 519.988Z" fill="#99B390"/>
<path d="M172.431 540.127C183.955 539.523 198.713 550.837 204.576 556.498L142.711 555.285C146.552 550.029 157.862 540.89 172.431 540.127Z" fill="#E4E4E4" stroke="black" stroke-width="1.26265"/>
<path d="M257.345 484.328C259.771 482.387 269.273 436.614 273.721 413.971C272.912 421.047 271.295 435.563 271.295 437.019C271.295 438.838 266.443 465.525 264.016 474.623C262.076 481.901 258.76 484.125 257.345 484.328Z" fill="#AFAFAF"/>
<path d="M307.685 449.755C311.567 439.081 311.729 402.851 311.324 386.07C311.729 391.327 312.537 401.961 312.537 402.446C312.537 403.053 313.144 415.183 313.144 418.216C313.144 421.249 311.931 436.412 311.324 440.051C310.839 442.962 308.696 447.734 307.685 449.755Z" fill="#AFAFAF"/>
<path d="M78.12 592.368C78.12 593.888 77.568 595.08 76.464 595.944C75.36 596.808 73.848 597.24 71.928 597.24C71 597.24 70.12 597.16 69.288 597C68.472 596.856 67.776 596.64 67.2 596.352V593.904C67.84 594.192 68.592 594.456 69.456 594.696C70.32 594.92 71.2 595.032 72.096 595.032C73.248 595.032 74.112 594.808 74.688 594.36C75.264 593.912 75.552 593.312 75.552 592.56C75.552 592.032 75.416 591.592 75.144 591.24C74.888 590.872 74.48 590.536 73.92 590.232C73.36 589.928 72.624 589.592 71.712 589.224C70.864 588.904 70.112 588.528 69.456 588.096C68.816 587.664 68.312 587.128 67.944 586.488C67.576 585.848 67.392 585.064 67.392 584.136C67.392 582.728 67.904 581.624 68.928 580.824C69.952 580.024 71.296 579.624 72.96 579.624C73.888 579.624 74.744 579.72 75.528 579.912C76.328 580.088 77.088 580.336 77.808 580.656L76.992 582.792C76.336 582.52 75.664 582.296 74.976 582.12C74.304 581.944 73.608 581.856 72.888 581.856C71.944 581.856 71.224 582.064 70.728 582.48C70.232 582.896 69.984 583.44 69.984 584.112C69.984 584.64 70.104 585.088 70.344 585.456C70.584 585.808 70.968 586.128 71.496 586.416C72.024 586.704 72.72 587.024 73.584 587.376C74.544 587.76 75.36 588.168 76.032 588.6C76.72 589.016 77.24 589.528 77.592 590.136C77.944 590.728 78.12 591.472 78.12 592.368ZM86.2753 583.824C87.9713 583.824 89.3073 584.352 90.2833 585.408C91.2593 586.448 91.7473 587.872 91.7473 589.68V591.072H83.0593C83.0913 592.4 83.4353 593.416 84.0913 594.12C84.7633 594.824 85.6993 595.176 86.8993 595.176C87.7313 595.176 88.4673 595.104 89.1073 594.96C89.7633 594.8 90.4353 594.568 91.1233 594.264V596.376C90.4673 596.664 89.8113 596.88 89.1553 597.024C88.4993 597.168 87.7153 597.24 86.8033 597.24C85.5393 597.24 84.4273 596.992 83.4673 596.496C82.5233 596 81.7793 595.264 81.2353 594.288C80.7073 593.296 80.4433 592.08 80.4433 590.64C80.4433 589.184 80.6833 587.952 81.1633 586.944C81.6593 585.936 82.3393 585.168 83.2033 584.64C84.0833 584.096 85.1073 583.824 86.2753 583.824ZM86.2753 585.792C85.3633 585.792 84.6273 586.088 84.0673 586.68C83.5233 587.272 83.2033 588.112 83.1073 589.2H89.2033C89.1873 588.192 88.9393 587.376 88.4593 586.752C87.9953 586.112 87.2673 585.792 86.2753 585.792ZM101.474 583.824C102.978 583.824 104.13 584.2 104.93 584.952C105.73 585.704 106.13 586.912 106.13 588.576V597H103.61V588.936C103.61 586.92 102.722 585.912 100.946 585.912C99.6177 585.912 98.7057 586.304 98.2097 587.088C97.7137 587.872 97.4657 589 97.4657 590.472V597H94.9217V584.064H96.9377L97.2977 585.792H97.4417C97.8577 585.12 98.4257 584.624 99.1457 584.304C99.8817 583.984 100.658 583.824 101.474 583.824ZM118.631 593.352C118.631 594.616 118.167 595.584 117.239 596.256C116.311 596.912 115.023 597.24 113.375 597.24C112.463 597.24 111.679 597.168 111.023 597.024C110.383 596.896 109.791 596.704 109.247 596.448V594.216C109.807 594.488 110.463 594.736 111.215 594.96C111.983 595.168 112.727 595.272 113.447 595.272C114.407 595.272 115.095 595.12 115.511 594.816C115.943 594.512 116.159 594.104 116.159 593.592C116.159 593.304 116.079 593.048 115.919 592.824C115.759 592.584 115.455 592.344 115.007 592.104C114.575 591.848 113.935 591.56 113.087 591.24C112.255 590.904 111.551 590.576 110.975 590.256C110.415 589.92 109.983 589.528 109.679 589.08C109.375 588.616 109.223 588.024 109.223 587.304C109.223 586.184 109.671 585.328 110.567 584.736C111.479 584.128 112.679 583.824 114.167 583.824C114.951 583.824 115.687 583.904 116.375 584.064C117.079 584.224 117.759 584.448 118.415 584.736L117.575 586.68C117.015 586.44 116.439 586.24 115.847 586.08C115.255 585.904 114.655 585.816 114.047 585.816C113.279 585.816 112.695 585.936 112.295 586.176C111.895 586.416 111.695 586.752 111.695 587.184C111.695 587.488 111.791 587.752 111.983 587.976C112.175 588.2 112.495 588.424 112.943 588.648C113.407 588.872 114.039 589.144 114.839 589.464C115.639 589.768 116.319 590.08 116.879 590.4C117.455 590.72 117.887 591.112 118.175 591.576C118.479 592.04 118.631 592.632 118.631 593.352ZM132.8 584.064V597H130.76L130.4 595.296H130.28C129.864 595.968 129.288 596.464 128.552 596.784C127.816 597.088 127.04 597.24 126.224 597.24C124.704 597.24 123.544 596.864 122.744 596.112C121.944 595.36 121.544 594.168 121.544 592.536V584.064H124.112V592.152C124.112 594.152 124.984 595.152 126.728 595.152C128.056 595.152 128.976 594.76 129.488 593.976C130 593.192 130.256 592.072 130.256 590.616V584.064H132.8ZM148.181 590.52C148.181 592.664 147.629 594.32 146.525 595.488C145.421 596.656 143.933 597.24 142.061 597.24C140.893 597.24 139.853 596.976 138.941 596.448C138.045 595.92 137.333 595.16 136.805 594.168C136.293 593.16 136.037 591.944 136.037 590.52C136.037 588.376 136.581 586.728 137.669 585.576C138.757 584.408 140.245 583.824 142.133 583.824C143.317 583.824 144.357 584.088 145.253 584.616C146.165 585.128 146.877 585.88 147.389 586.872C147.917 587.864 148.181 589.08 148.181 590.52ZM138.653 590.52C138.653 591.976 138.925 593.112 139.469 593.928C140.029 594.744 140.909 595.152 142.109 595.152C143.309 595.152 144.181 594.744 144.725 593.928C145.285 593.112 145.565 591.976 145.565 590.52C145.565 589.048 145.285 587.92 144.725 587.136C144.165 586.336 143.285 585.936 142.085 585.936C140.885 585.936 140.013 586.336 139.469 587.136C138.925 587.92 138.653 589.048 138.653 590.52ZM162.542 584.064V597H160.502L160.142 595.296H160.022C159.606 595.968 159.03 596.464 158.294 596.784C157.558 597.088 156.782 597.24 155.966 597.24C154.446 597.24 153.286 596.864 152.486 596.112C151.686 595.36 151.286 594.168 151.286 592.536V584.064H153.854V592.152C153.854 594.152 154.726 595.152 156.47 595.152C157.798 595.152 158.718 594.76 159.23 593.976C159.742 593.192 159.998 592.072 159.998 590.616V584.064H162.542ZM175.115 593.352C175.115 594.616 174.651 595.584 173.723 596.256C172.795 596.912 171.507 597.24 169.859 597.24C168.947 597.24 168.163 597.168 167.507 597.024C166.867 596.896 166.275 596.704 165.731 596.448V594.216C166.291 594.488 166.947 594.736 167.699 594.96C168.467 595.168 169.211 595.272 169.931 595.272C170.891 595.272 171.579 595.12 171.995 594.816C172.427 594.512 172.643 594.104 172.643 593.592C172.643 593.304 172.563 593.048 172.403 592.824C172.243 592.584 171.939 592.344 171.491 592.104C171.059 591.848 170.419 591.56 169.571 591.24C168.739 590.904 168.035 590.576 167.459 590.256C166.899 589.92 166.467 589.528 166.163 589.08C165.859 588.616 165.707 588.024 165.707 587.304C165.707 586.184 166.155 585.328 167.051 584.736C167.963 584.128 169.163 583.824 170.651 583.824C171.435 583.824 172.171 583.904 172.859 584.064C173.563 584.224 174.243 584.448 174.899 584.736L174.059 586.68C173.499 586.44 172.923 586.24 172.331 586.08C171.739 585.904 171.139 585.816 170.531 585.816C169.763 585.816 169.179 585.936 168.779 586.176C168.379 586.416 168.179 586.752 168.179 587.184C168.179 587.488 168.275 587.752 168.467 587.976C168.659 588.2 168.979 588.424 169.427 588.648C169.891 588.872 170.523 589.144 171.323 589.464C172.123 589.768 172.803 590.08 173.363 590.4C173.939 590.72 174.371 591.112 174.659 591.576C174.963 592.04 175.115 592.632 175.115 593.352ZM191.324 597H188.324L182.708 589.104L181.028 590.496V597H178.436V579.864H181.028V588.144C181.444 587.664 181.86 587.184 182.276 586.704C182.692 586.208 183.108 585.72 183.524 585.24L188.156 579.864H191.132L184.58 587.352L191.324 597ZM194.608 579.144C194.992 579.144 195.328 579.256 195.616 579.48C195.904 579.704 196.048 580.08 196.048 580.608C196.048 581.12 195.904 581.496 195.616 581.736C195.328 581.96 194.992 582.072 194.608 582.072C194.192 582.072 193.84 581.96 193.552 581.736C193.28 581.496 193.144 581.12 193.144 580.608C193.144 580.08 193.28 579.704 193.552 579.48C193.84 579.256 194.192 579.144 194.608 579.144ZM195.856 584.064V597H193.312V584.064H195.856ZM204.507 595.176C204.843 595.176 205.187 595.152 205.539 595.104C205.891 595.04 206.195 594.96 206.451 594.864V596.784C206.163 596.912 205.787 597.016 205.323 597.096C204.875 597.192 204.419 597.24 203.955 597.24C203.251 597.24 202.603 597.12 202.011 596.88C201.419 596.64 200.947 596.224 200.595 595.632C200.259 595.04 200.091 594.216 200.091 593.16V586.008H198.291V584.856L200.187 583.896L201.075 581.16H202.635V584.064H206.331V586.008H202.635V593.112C202.635 593.816 202.803 594.336 203.139 594.672C203.491 595.008 203.947 595.176 204.507 595.176ZM213.695 595.176C214.031 595.176 214.375 595.152 214.727 595.104C215.079 595.04 215.383 594.96 215.639 594.864V596.784C215.351 596.912 214.975 597.016 214.511 597.096C214.063 597.192 213.607 597.24 213.143 597.24C212.439 597.24 211.791 597.12 211.199 596.88C210.607 596.64 210.135 596.224 209.783 595.632C209.447 595.04 209.279 594.216 209.279 593.16V586.008H207.479V584.856L209.375 583.896L210.263 581.16H211.823V584.064H215.519V586.008H211.823V593.112C211.823 593.816 211.991 594.336 212.327 594.672C212.679 595.008 213.135 595.176 213.695 595.176ZM223.314 583.824C225.01 583.824 226.346 584.352 227.322 585.408C228.298 586.448 228.786 587.872 228.786 589.68V591.072H220.098C220.13 592.4 220.474 593.416 221.13 594.12C221.802 594.824 222.738 595.176 223.938 595.176C224.77 595.176 225.506 595.104 226.146 594.96C226.802 594.8 227.474 594.568 228.162 594.264V596.376C227.506 596.664 226.85 596.88 226.194 597.024C225.538 597.168 224.754 597.24 223.842 597.24C222.578 597.24 221.466 596.992 220.506 596.496C219.562 596 218.818 595.264 218.274 594.288C217.746 593.296 217.482 592.08 217.482 590.64C217.482 589.184 217.722 587.952 218.202 586.944C218.698 585.936 219.378 585.168 220.242 584.64C221.122 584.096 222.146 583.824 223.314 583.824ZM223.314 585.792C222.402 585.792 221.666 586.088 221.106 586.68C220.562 587.272 220.242 588.112 220.146 589.2H226.242C226.226 588.192 225.978 587.376 225.498 586.752C225.034 586.112 224.306 585.792 223.314 585.792ZM238.513 583.824C240.017 583.824 241.169 584.2 241.969 584.952C242.769 585.704 243.169 586.912 243.169 588.576V597H240.649V588.936C240.649 586.92 239.761 585.912 237.985 585.912C236.657 585.912 235.745 586.304 235.249 587.088C234.753 587.872 234.505 589 234.505 590.472V597H231.961V584.064H233.977L234.337 585.792H234.481C234.897 585.12 235.465 584.624 236.185 584.304C236.921 583.984 237.697 583.824 238.513 583.824Z" fill="black"/>
<path d="M77.6 613.272C77.6 614.456 77.4027 615.491 77.008 616.376C76.6133 617.251 76.0213 617.933 75.232 618.424C74.4427 618.915 73.4613 619.16 72.288 619.16C71.0827 619.16 70.0853 618.915 69.296 618.424C68.5067 617.933 67.92 617.245 67.536 616.36C67.152 615.475 66.96 614.44 66.96 613.256C66.96 612.083 67.152 611.059 67.536 610.184C67.9307 609.309 68.5227 608.627 69.312 608.136C70.1013 607.645 71.0987 607.4 72.304 607.4C73.4773 607.4 74.4533 607.645 75.232 608.136C76.0213 608.616 76.6133 609.299 77.008 610.184C77.4027 611.059 77.6 612.088 77.6 613.272ZM68.784 613.272C68.784 614.637 69.0667 615.715 69.632 616.504C70.1973 617.293 71.0827 617.688 72.288 617.688C73.504 617.688 74.3893 617.293 74.944 616.504C75.4987 615.715 75.776 614.637 75.776 613.272C75.776 611.907 75.4987 610.835 74.944 610.056C74.4 609.277 73.52 608.888 72.304 608.888C71.088 608.888 70.1973 609.277 69.632 610.056C69.0667 610.835 68.784 611.907 68.784 613.272ZM84.2585 610.216C85.2612 610.216 86.0292 610.467 86.5625 610.968C87.0958 611.469 87.3625 612.275 87.3625 613.384V619H85.6825V613.624C85.6825 612.28 85.0905 611.608 83.9065 611.608C83.0212 611.608 82.4132 611.869 82.0825 612.392C81.7518 612.915 81.5865 613.667 81.5865 614.648V619H79.8905V610.376H81.2345L81.4745 611.528H81.5705C81.8478 611.08 82.2265 610.749 82.7065 610.536C83.1972 610.323 83.7145 610.216 84.2585 610.216ZM91.6646 619H89.9686V606.84H91.6646V619ZM95.192 607.096C95.448 607.096 95.672 607.171 95.864 607.32C96.056 607.469 96.152 607.72 96.152 608.072C96.152 608.413 96.056 608.664 95.864 608.824C95.672 608.973 95.448 609.048 95.192 609.048C94.9147 609.048 94.68 608.973 94.488 608.824C94.3067 608.664 94.216 608.413 94.216 608.072C94.216 607.72 94.3067 607.469 94.488 607.32C94.68 607.171 94.9147 607.096 95.192 607.096ZM96.024 610.376V619H94.328V610.376H96.024ZM103.055 610.216C104.058 610.216 104.826 610.467 105.359 610.968C105.893 611.469 106.159 612.275 106.159 613.384V619H104.479V613.624C104.479 612.28 103.887 611.608 102.703 611.608C101.818 611.608 101.21 611.869 100.879 612.392C100.549 612.915 100.383 613.667 100.383 614.648V619H98.6874V610.376H100.031L100.271 611.528H100.367C100.645 611.08 101.023 610.749 101.503 610.536C101.994 610.323 102.511 610.216 103.055 610.216ZM112.158 610.216C113.288 610.216 114.179 610.568 114.83 611.272C115.48 611.965 115.806 612.915 115.806 614.12V615.048H110.014C110.035 615.933 110.264 616.611 110.702 617.08C111.15 617.549 111.774 617.784 112.574 617.784C113.128 617.784 113.619 617.736 114.046 617.64C114.483 617.533 114.931 617.379 115.39 617.176V618.584C114.952 618.776 114.515 618.92 114.078 619.016C113.64 619.112 113.118 619.16 112.51 619.16C111.667 619.16 110.926 618.995 110.286 618.664C109.656 618.333 109.16 617.843 108.798 617.192C108.446 616.531 108.27 615.72 108.27 614.76C108.27 613.789 108.43 612.968 108.75 612.296C109.08 611.624 109.534 611.112 110.11 610.76C110.696 610.397 111.379 610.216 112.158 610.216ZM112.158 611.528C111.55 611.528 111.059 611.725 110.686 612.12C110.323 612.515 110.11 613.075 110.046 613.8H114.11C114.099 613.128 113.934 612.584 113.614 612.168C113.304 611.741 112.819 611.528 112.158 611.528Z" fill="#27AE60"/>
<path d="M68.064 641L72.624 631.08H66.624V629.576H74.448V630.792L69.904 641H68.064ZM90.3045 632.216C91.2752 632.216 92.0058 632.467 92.4965 632.968C92.9872 633.469 93.2325 634.275 93.2325 635.384V641H91.5365V635.608C91.5365 634.275 90.9978 633.608 89.9205 633.608C89.1525 633.608 88.6032 633.848 88.2725 634.328C87.9418 634.797 87.7765 635.475 87.7765 636.36V641H86.0965V635.608C86.0965 634.275 85.5525 633.608 84.4645 633.608C83.6538 633.608 83.0938 633.869 82.7845 634.392C82.4858 634.915 82.3365 635.667 82.3365 636.648V641H80.6405V632.376H81.9845L82.2245 633.528H82.3205C82.5765 633.08 82.9338 632.749 83.3925 632.536C83.8512 632.323 84.3365 632.216 84.8485 632.216C86.1818 632.216 87.0565 632.68 87.4725 633.608H87.6005C87.8778 633.128 88.2618 632.776 88.7525 632.552C89.2432 632.328 89.7605 632.216 90.3045 632.216ZM96.692 629.096C96.948 629.096 97.172 629.171 97.364 629.32C97.556 629.469 97.652 629.72 97.652 630.072C97.652 630.413 97.556 630.664 97.364 630.824C97.172 630.973 96.948 631.048 96.692 631.048C96.4147 631.048 96.18 630.973 95.988 630.824C95.8067 630.664 95.716 630.413 95.716 630.072C95.716 629.72 95.8067 629.469 95.988 629.32C96.18 629.171 96.4147 629.096 96.692 629.096ZM97.524 632.376V641H95.828V632.376H97.524ZM101.883 641H100.187V628.84H101.883V641ZM107.939 632.216C109.069 632.216 109.96 632.568 110.611 633.272C111.261 633.965 111.587 634.915 111.587 636.12V637.048H105.795C105.816 637.933 106.045 638.611 106.483 639.08C106.931 639.549 107.555 639.784 108.355 639.784C108.909 639.784 109.4 639.736 109.827 639.64C110.264 639.533 110.712 639.379 111.171 639.176V640.584C110.733 640.776 110.296 640.92 109.859 641.016C109.421 641.112 108.899 641.16 108.291 641.16C107.448 641.16 106.707 640.995 106.067 640.664C105.437 640.333 104.941 639.843 104.579 639.192C104.227 638.531 104.051 637.72 104.051 636.76C104.051 635.789 104.211 634.968 104.531 634.296C104.861 633.624 105.315 633.112 105.891 632.76C106.477 632.397 107.16 632.216 107.939 632.216ZM107.939 633.528C107.331 633.528 106.84 633.725 106.467 634.12C106.104 634.515 105.891 635.075 105.827 635.8H109.891C109.88 635.128 109.715 634.584 109.395 634.168C109.085 633.741 108.6 633.528 107.939 633.528ZM119.431 638.568C119.431 639.411 119.122 640.056 118.503 640.504C117.884 640.941 117.026 641.16 115.927 641.16C115.319 641.16 114.796 641.112 114.359 641.016C113.932 640.931 113.538 640.803 113.175 640.632V639.144C113.548 639.325 113.986 639.491 114.487 639.64C114.999 639.779 115.495 639.848 115.975 639.848C116.615 639.848 117.074 639.747 117.351 639.544C117.639 639.341 117.783 639.069 117.783 638.728C117.783 638.536 117.73 638.365 117.623 638.216C117.516 638.056 117.314 637.896 117.015 637.736C116.727 637.565 116.3 637.373 115.735 637.16C115.18 636.936 114.711 636.717 114.327 636.504C113.954 636.28 113.666 636.019 113.463 635.72C113.26 635.411 113.159 635.016 113.159 634.536C113.159 633.789 113.458 633.219 114.055 632.824C114.663 632.419 115.463 632.216 116.455 632.216C116.978 632.216 117.468 632.269 117.927 632.376C118.396 632.483 118.85 632.632 119.287 632.824L118.727 634.12C118.354 633.96 117.97 633.827 117.575 633.72C117.18 633.603 116.78 633.544 116.375 633.544C115.863 633.544 115.474 633.624 115.207 633.784C114.94 633.944 114.807 634.168 114.807 634.456C114.807 634.659 114.871 634.835 114.999 634.984C115.127 635.133 115.34 635.283 115.639 635.432C115.948 635.581 116.37 635.763 116.903 635.976C117.436 636.179 117.89 636.387 118.263 636.6C118.647 636.813 118.935 637.075 119.127 637.384C119.33 637.693 119.431 638.088 119.431 638.568ZM128.953 632.216C130.031 632.216 130.836 632.456 131.369 632.936C131.913 633.405 132.185 634.147 132.185 635.16V641H130.985L130.649 639.8H130.585C130.212 640.269 129.817 640.616 129.401 640.84C128.996 641.053 128.431 641.16 127.705 641.16C126.927 641.16 126.281 640.952 125.769 640.536C125.257 640.109 125.001 639.448 125.001 638.552C125.001 637.677 125.332 637.011 125.993 636.552C126.655 636.093 127.673 635.843 129.049 635.8L130.521 635.752V635.272C130.521 634.643 130.377 634.2 130.089 633.944C129.801 633.677 129.396 633.544 128.873 633.544C128.436 633.544 128.015 633.608 127.609 633.736C127.204 633.864 126.815 634.019 126.441 634.2L125.897 632.968C126.303 632.755 126.767 632.579 127.289 632.44C127.823 632.291 128.377 632.216 128.953 632.216ZM130.505 636.856L129.353 636.888C128.372 636.931 127.689 637.096 127.305 637.384C126.932 637.661 126.745 638.056 126.745 638.568C126.745 639.016 126.879 639.341 127.145 639.544C127.412 639.747 127.759 639.848 128.185 639.848C128.847 639.848 129.396 639.661 129.833 639.288C130.281 638.915 130.505 638.355 130.505 637.608V636.856ZM141.853 640.984L140.621 636.68C140.535 636.403 140.445 636.083 140.349 635.72C140.263 635.357 140.183 635.016 140.109 634.696C140.034 634.365 139.975 634.115 139.933 633.944H139.869C139.837 634.115 139.783 634.365 139.709 634.696C139.634 635.027 139.549 635.373 139.453 635.736C139.367 636.099 139.282 636.419 139.197 636.696L137.917 640.984H136.029L133.645 632.36H135.373L136.493 636.728C136.61 637.176 136.717 637.656 136.813 638.168C136.919 638.669 136.994 639.075 137.037 639.384H137.101C137.133 639.203 137.175 638.963 137.229 638.664C137.293 638.365 137.357 638.067 137.421 637.768C137.495 637.459 137.565 637.208 137.629 637.016L139.005 632.36H140.861L142.205 637.016C142.269 637.229 142.338 637.485 142.413 637.784C142.487 638.072 142.551 638.36 142.605 638.648C142.669 638.925 142.711 639.165 142.733 639.368H142.797C142.818 639.197 142.855 638.963 142.909 638.664C142.962 638.365 143.026 638.045 143.101 637.704C143.186 637.363 143.266 637.037 143.341 636.728L144.493 632.36H146.205L143.789 640.984H141.853ZM151.047 632.216C152.124 632.216 152.93 632.456 153.463 632.936C154.007 633.405 154.279 634.147 154.279 635.16V641H153.079L152.743 639.8H152.679C152.306 640.269 151.911 640.616 151.495 640.84C151.09 641.053 150.524 641.16 149.799 641.16C149.02 641.16 148.375 640.952 147.863 640.536C147.351 640.109 147.095 639.448 147.095 638.552C147.095 637.677 147.426 637.011 148.087 636.552C148.748 636.093 149.767 635.843 151.143 635.8L152.615 635.752V635.272C152.615 634.643 152.471 634.2 152.183 633.944C151.895 633.677 151.49 633.544 150.967 633.544C150.53 633.544 150.108 633.608 149.703 633.736C149.298 633.864 148.908 634.019 148.535 634.2L147.991 632.968C148.396 632.755 148.86 632.579 149.383 632.44C149.916 632.291 150.471 632.216 151.047 632.216ZM152.599 636.856L151.447 636.888C150.466 636.931 149.783 637.096 149.399 637.384C149.026 637.661 148.839 638.056 148.839 638.568C148.839 639.016 148.972 639.341 149.239 639.544C149.506 639.747 149.852 639.848 150.279 639.848C150.94 639.848 151.49 639.661 151.927 639.288C152.375 638.915 152.599 638.355 152.599 637.608V636.856ZM155.579 632.376H157.403L159.195 637.272C159.333 637.645 159.451 638.008 159.547 638.36C159.653 638.701 159.733 639.037 159.786 639.368H159.851C159.904 639.091 159.984 638.765 160.091 638.392C160.208 638.019 160.336 637.64 160.475 637.256L162.171 632.376H163.995L160.299 642.168C159.989 643 159.573 643.651 159.051 644.12C158.539 644.6 157.867 644.84 157.035 644.84C156.768 644.84 156.539 644.824 156.347 644.792C156.155 644.771 155.989 644.744 155.851 644.712V643.368C155.957 643.389 156.096 643.411 156.267 643.432C156.437 643.453 156.613 643.464 156.795 643.464C157.285 643.464 157.68 643.32 157.979 643.032C158.277 642.755 158.512 642.387 158.683 641.928L159.035 641L155.579 632.376Z" fill="#828282"/>
<path d="M74.64 667L73.424 663.704H69.008L67.792 667H66L70.336 655.528H72.128L76.448 667H74.64ZM72.944 662.2L71.792 658.984C71.76 658.867 71.7013 658.691 71.616 658.456C71.5413 658.221 71.4667 657.976 71.392 657.72C71.3173 657.464 71.2587 657.256 71.216 657.096C71.1307 657.427 71.0347 657.779 70.928 658.152C70.8213 658.525 70.736 658.803 70.672 658.984L69.52 662.2H72.944ZM79.4928 667H77.7968V654.84H79.4928V667ZM89.2121 666.984L87.9801 662.68C87.8948 662.403 87.8041 662.083 87.7081 661.72C87.6228 661.357 87.5428 661.016 87.4681 660.696C87.3935 660.365 87.3348 660.115 87.2921 659.944H87.2281C87.1961 660.115 87.1428 660.365 87.0681 660.696C86.9935 661.027 86.9081 661.373 86.8121 661.736C86.7268 662.099 86.6415 662.419 86.5561 662.696L85.2761 666.984H83.3881L81.0041 658.36H82.7321L83.8521 662.728C83.9695 663.176 84.0761 663.656 84.1721 664.168C84.2788 664.669 84.3535 665.075 84.3961 665.384H84.4601C84.4921 665.203 84.5348 664.963 84.5881 664.664C84.6521 664.365 84.7161 664.067 84.7801 663.768C84.8548 663.459 84.9241 663.208 84.9881 663.016L86.3641 658.36H88.2201L89.5641 663.016C89.6281 663.229 89.6975 663.485 89.7721 663.784C89.8468 664.072 89.9108 664.36 89.9641 664.648C90.0281 664.925 90.0708 665.165 90.0921 665.368H90.1561C90.1775 665.197 90.2148 664.963 90.2681 664.664C90.3215 664.365 90.3855 664.045 90.4601 663.704C90.5455 663.363 90.6255 663.037 90.7001 662.728L91.8521 658.36H93.5641L91.1481 666.984H89.2121ZM98.4064 658.216C99.4837 658.216 100.289 658.456 100.822 658.936C101.366 659.405 101.638 660.147 101.638 661.16V667H100.438L100.102 665.8H100.038C99.665 666.269 99.2704 666.616 98.8544 666.84C98.449 667.053 97.8837 667.16 97.1584 667.16C96.3797 667.16 95.7344 666.952 95.2224 666.536C94.7104 666.109 94.4544 665.448 94.4544 664.552C94.4544 663.677 94.785 663.011 95.4464 662.552C96.1077 662.093 97.1264 661.843 98.5024 661.8L99.9744 661.752V661.272C99.9744 660.643 99.8304 660.2 99.5424 659.944C99.2544 659.677 98.849 659.544 98.3264 659.544C97.889 659.544 97.4677 659.608 97.0624 659.736C96.657 659.864 96.2677 660.019 95.8944 660.2L95.3504 658.968C95.7557 658.755 96.2197 658.579 96.7424 658.44C97.2757 658.291 97.8304 658.216 98.4064 658.216ZM99.9584 662.856L98.8064 662.888C97.825 662.931 97.1424 663.096 96.7584 663.384C96.385 663.661 96.1984 664.056 96.1984 664.568C96.1984 665.016 96.3317 665.341 96.5984 665.544C96.865 665.747 97.2117 665.848 97.6384 665.848C98.2997 665.848 98.849 665.661 99.2864 665.288C99.7344 664.915 99.9584 664.355 99.9584 663.608V662.856ZM102.938 658.376H104.762L106.554 663.272C106.693 663.645 106.81 664.008 106.906 664.36C107.013 664.701 107.093 665.037 107.146 665.368H107.21C107.263 665.091 107.343 664.765 107.45 664.392C107.567 664.019 107.695 663.64 107.834 663.256L109.53 658.376H111.354L107.658 668.168C107.349 669 106.933 669.651 106.41 670.12C105.898 670.6 105.226 670.84 104.394 670.84C104.127 670.84 103.898 670.824 103.706 670.792C103.514 670.771 103.349 670.744 103.21 670.712V669.368C103.317 669.389 103.455 669.411 103.626 669.432C103.797 669.453 103.973 669.464 104.154 669.464C104.645 669.464 105.039 669.32 105.338 669.032C105.637 668.755 105.871 668.387 106.042 667.928L106.394 667L102.938 658.376ZM118.415 664.568C118.415 665.411 118.106 666.056 117.487 666.504C116.869 666.941 116.01 667.16 114.911 667.16C114.303 667.16 113.781 667.112 113.343 667.016C112.917 666.931 112.522 666.803 112.159 666.632V665.144C112.533 665.325 112.97 665.491 113.471 665.64C113.983 665.779 114.479 665.848 114.959 665.848C115.599 665.848 116.058 665.747 116.335 665.544C116.623 665.341 116.767 665.069 116.767 664.728C116.767 664.536 116.714 664.365 116.607 664.216C116.501 664.056 116.298 663.896 115.999 663.736C115.711 663.565 115.285 663.373 114.719 663.16C114.165 662.936 113.695 662.717 113.311 662.504C112.938 662.28 112.65 662.019 112.447 661.72C112.245 661.411 112.143 661.016 112.143 660.536C112.143 659.789 112.442 659.219 113.039 658.824C113.647 658.419 114.447 658.216 115.439 658.216C115.962 658.216 116.453 658.269 116.911 658.376C117.381 658.483 117.834 658.632 118.271 658.824L117.711 660.12C117.338 659.96 116.954 659.827 116.559 659.72C116.165 659.603 115.765 659.544 115.359 659.544C114.847 659.544 114.458 659.624 114.191 659.784C113.925 659.944 113.791 660.168 113.791 660.456C113.791 660.659 113.855 660.835 113.983 660.984C114.111 661.133 114.325 661.283 114.623 661.432C114.933 661.581 115.354 661.763 115.887 661.976C116.421 662.179 116.874 662.387 117.247 662.6C117.631 662.813 117.919 663.075 118.111 663.384C118.314 663.693 118.415 664.088 118.415 664.568ZM128.85 658.216C128.999 658.216 129.159 658.227 129.33 658.248C129.511 658.259 129.666 658.275 129.794 658.296L129.618 659.88C129.34 659.805 129.052 659.768 128.754 659.768C128.327 659.768 127.922 659.875 127.538 660.088C127.164 660.301 126.86 660.611 126.626 661.016C126.402 661.411 126.29 661.891 126.29 662.456V667H124.594V658.376H125.938L126.162 659.912H126.226C126.503 659.453 126.86 659.059 127.298 658.728C127.735 658.387 128.252 658.216 128.85 658.216ZM134.47 658.216C135.601 658.216 136.491 658.568 137.142 659.272C137.793 659.965 138.118 660.915 138.118 662.12V663.048H132.326C132.347 663.933 132.577 664.611 133.014 665.08C133.462 665.549 134.086 665.784 134.886 665.784C135.441 665.784 135.931 665.736 136.358 665.64C136.795 665.533 137.243 665.379 137.702 665.176V666.584C137.265 666.776 136.827 666.92 136.39 667.016C135.953 667.112 135.43 667.16 134.822 667.16C133.979 667.16 133.238 666.995 132.598 666.664C131.969 666.333 131.473 665.843 131.11 665.192C130.758 664.531 130.582 663.72 130.582 662.76C130.582 661.789 130.742 660.968 131.062 660.296C131.393 659.624 131.846 659.112 132.422 658.76C133.009 658.397 133.691 658.216 134.47 658.216ZM134.47 659.528C133.862 659.528 133.371 659.725 132.998 660.12C132.635 660.515 132.422 661.075 132.358 661.8H136.422C136.411 661.128 136.246 660.584 135.926 660.168C135.617 659.741 135.131 659.528 134.47 659.528ZM143.578 658.216C144.656 658.216 145.461 658.456 145.994 658.936C146.538 659.405 146.81 660.147 146.81 661.16V667H145.61L145.274 665.8H145.21C144.837 666.269 144.442 666.616 144.026 666.84C143.621 667.053 143.056 667.16 142.33 667.16C141.552 667.16 140.906 666.952 140.394 666.536C139.882 666.109 139.626 665.448 139.626 664.552C139.626 663.677 139.957 663.011 140.618 662.552C141.28 662.093 142.298 661.843 143.674 661.8L145.146 661.752V661.272C145.146 660.643 145.002 660.2 144.714 659.944C144.426 659.677 144.021 659.544 143.498 659.544C143.061 659.544 142.64 659.608 142.234 659.736C141.829 659.864 141.44 660.019 141.066 660.2L140.522 658.968C140.928 658.755 141.392 658.579 141.914 658.44C142.448 658.291 143.002 658.216 143.578 658.216ZM145.13 662.856L143.978 662.888C142.997 662.931 142.314 663.096 141.93 663.384C141.557 663.661 141.37 664.056 141.37 664.568C141.37 665.016 141.504 665.341 141.77 665.544C142.037 665.747 142.384 665.848 142.81 665.848C143.472 665.848 144.021 665.661 144.458 665.288C144.906 664.915 145.13 664.355 145.13 663.608V662.856ZM152.382 667.16C151.347 667.16 150.51 666.787 149.87 666.04C149.24 665.293 148.926 664.184 148.926 662.712C148.926 661.229 149.246 660.109 149.886 659.352C150.526 658.595 151.368 658.216 152.414 658.216C153.064 658.216 153.598 658.339 154.014 658.584C154.43 658.829 154.766 659.128 155.022 659.48H155.118C155.096 659.341 155.07 659.128 155.038 658.84C155.006 658.552 154.99 658.296 154.99 658.072V654.84H156.686V667H155.358L155.07 665.848H154.99C154.744 666.221 154.414 666.536 153.998 666.792C153.582 667.037 153.043 667.16 152.382 667.16ZM152.782 665.768C153.614 665.768 154.2 665.539 154.542 665.08C154.883 664.611 155.054 663.912 155.054 662.984V662.728C155.054 661.725 154.888 660.957 154.558 660.424C154.238 659.88 153.64 659.608 152.766 659.608C152.072 659.608 151.55 659.891 151.198 660.456C150.846 661.011 150.67 661.773 150.67 662.744C150.67 663.715 150.846 664.461 151.198 664.984C151.55 665.507 152.078 665.768 152.782 665.768ZM158.032 658.376H159.856L161.648 663.272C161.786 663.645 161.904 664.008 162 664.36C162.106 664.701 162.186 665.037 162.24 665.368H162.304C162.357 665.091 162.437 664.765 162.544 664.392C162.661 664.019 162.789 663.64 162.928 663.256L164.624 658.376H166.448L162.752 668.168C162.442 669 162.026 669.651 161.504 670.12C160.992 670.6 160.32 670.84 159.488 670.84C159.221 670.84 158.992 670.824 158.8 670.792C158.608 670.771 158.442 670.744 158.304 670.712V669.368C158.41 669.389 158.549 669.411 158.72 669.432C158.89 669.453 159.066 669.464 159.248 669.464C159.738 669.464 160.133 669.32 160.432 669.032C160.73 668.755 160.965 668.387 161.136 667.928L161.488 667L158.032 658.376ZM176.145 659.672H174.017V667H172.321V659.672H170.865V658.872L172.321 658.344V657.8C172.321 656.701 172.572 655.923 173.073 655.464C173.585 654.995 174.295 654.76 175.201 654.76C175.575 654.76 175.916 654.792 176.225 654.856C176.535 654.92 176.796 654.989 177.009 655.064L176.577 656.36C176.396 656.307 176.193 656.259 175.969 656.216C175.756 656.163 175.527 656.136 175.281 656.136C174.439 656.136 174.017 656.696 174.017 657.816V658.376H176.145V659.672ZM185.256 662.68C185.256 664.109 184.888 665.213 184.152 665.992C183.416 666.771 182.424 667.16 181.176 667.16C180.397 667.16 179.704 666.984 179.096 666.632C178.499 666.28 178.024 665.773 177.672 665.112C177.331 664.44 177.16 663.629 177.16 662.68C177.16 661.251 177.523 660.152 178.248 659.384C178.973 658.605 179.965 658.216 181.224 658.216C182.013 658.216 182.707 658.392 183.304 658.744C183.912 659.085 184.387 659.587 184.728 660.248C185.08 660.909 185.256 661.72 185.256 662.68ZM178.904 662.68C178.904 663.651 179.085 664.408 179.448 664.952C179.821 665.496 180.408 665.768 181.208 665.768C182.008 665.768 182.589 665.496 182.952 664.952C183.325 664.408 183.512 663.651 183.512 662.68C183.512 661.699 183.325 660.947 182.952 660.424C182.579 659.891 181.992 659.624 181.192 659.624C180.392 659.624 179.811 659.891 179.448 660.424C179.085 660.947 178.904 661.699 178.904 662.68ZM191.662 658.216C191.811 658.216 191.971 658.227 192.142 658.248C192.323 658.259 192.478 658.275 192.606 658.296L192.43 659.88C192.153 659.805 191.865 659.768 191.566 659.768C191.139 659.768 190.734 659.875 190.35 660.088C189.977 660.301 189.673 660.611 189.438 661.016C189.214 661.411 189.102 661.891 189.102 662.456V667H187.406V658.376H188.75L188.974 659.912H189.038C189.315 659.453 189.673 659.059 190.11 658.728C190.547 658.387 191.065 658.216 191.662 658.216ZM201.703 658.216C202.781 658.216 203.586 658.456 204.119 658.936C204.663 659.405 204.935 660.147 204.935 661.16V667H203.735L203.399 665.8H203.335C202.962 666.269 202.567 666.616 202.151 666.84C201.746 667.053 201.181 667.16 200.455 667.16C199.677 667.16 199.031 666.952 198.519 666.536C198.007 666.109 197.751 665.448 197.751 664.552C197.751 663.677 198.082 663.011 198.743 662.552C199.405 662.093 200.423 661.843 201.799 661.8L203.271 661.752V661.272C203.271 660.643 203.127 660.2 202.839 659.944C202.551 659.677 202.146 659.544 201.623 659.544C201.186 659.544 200.765 659.608 200.359 659.736C199.954 659.864 199.565 660.019 199.191 660.2L198.647 658.968C199.053 658.755 199.517 658.579 200.039 658.44C200.573 658.291 201.127 658.216 201.703 658.216ZM203.255 662.856L202.103 662.888C201.122 662.931 200.439 663.096 200.055 663.384C199.682 663.661 199.495 664.056 199.495 664.568C199.495 665.016 199.629 665.341 199.895 665.544C200.162 665.747 200.509 665.848 200.935 665.848C201.597 665.848 202.146 665.661 202.583 665.288C203.031 664.915 203.255 664.355 203.255 663.608V662.856ZM214.679 658.216C215.82 658.216 216.7 658.648 217.319 659.512H217.399L217.591 658.376H218.967V667.112C218.967 668.339 218.636 669.267 217.975 669.896C217.324 670.525 216.327 670.84 214.983 670.84C214.354 670.84 213.778 670.797 213.255 670.712C212.743 670.627 212.268 670.493 211.831 670.312V668.824C212.748 669.272 213.831 669.496 215.079 669.496C215.783 669.496 216.327 669.293 216.711 668.888C217.095 668.493 217.287 667.933 217.287 667.208V666.92C217.287 666.781 217.292 666.6 217.303 666.376C217.314 666.152 217.324 665.981 217.335 665.864H217.271C216.983 666.312 216.62 666.643 216.183 666.856C215.746 667.059 215.244 667.16 214.679 667.16C213.591 667.16 212.738 666.771 212.119 665.992C211.511 665.203 211.207 664.109 211.207 662.712C211.207 661.325 211.511 660.232 212.119 659.432C212.738 658.621 213.591 658.216 214.679 658.216ZM215.031 659.624C214.359 659.624 213.842 659.891 213.479 660.424C213.127 660.957 212.951 661.725 212.951 662.728C212.951 663.731 213.127 664.493 213.479 665.016C213.842 665.539 214.37 665.8 215.063 665.8C215.852 665.8 216.428 665.587 216.791 665.16C217.164 664.723 217.351 664.013 217.351 663.032V662.712C217.351 661.613 217.164 660.824 216.791 660.344C216.418 659.864 215.831 659.624 215.031 659.624ZM229.225 662.68C229.225 664.109 228.857 665.213 228.121 665.992C227.385 666.771 226.393 667.16 225.145 667.16C224.366 667.16 223.673 666.984 223.065 666.632C222.468 666.28 221.993 665.773 221.641 665.112C221.3 664.44 221.129 663.629 221.129 662.68C221.129 661.251 221.492 660.152 222.217 659.384C222.942 658.605 223.934 658.216 225.193 658.216C225.982 658.216 226.676 658.392 227.273 658.744C227.881 659.085 228.356 659.587 228.697 660.248C229.049 660.909 229.225 661.72 229.225 662.68ZM222.873 662.68C222.873 663.651 223.054 664.408 223.417 664.952C223.79 665.496 224.377 665.768 225.177 665.768C225.977 665.768 226.558 665.496 226.921 664.952C227.294 664.408 227.481 663.651 227.481 662.68C227.481 661.699 227.294 660.947 226.921 660.424C226.548 659.891 225.961 659.624 225.161 659.624C224.361 659.624 223.78 659.891 223.417 660.424C223.054 660.947 222.873 661.699 222.873 662.68ZM238.975 662.68C238.975 664.109 238.607 665.213 237.871 665.992C237.135 666.771 236.143 667.16 234.895 667.16C234.116 667.16 233.423 666.984 232.815 666.632C232.218 666.28 231.743 665.773 231.391 665.112C231.05 664.44 230.879 663.629 230.879 662.68C230.879 661.251 231.242 660.152 231.967 659.384C232.692 658.605 233.684 658.216 234.943 658.216C235.732 658.216 236.426 658.392 237.023 658.744C237.631 659.085 238.106 659.587 238.447 660.248C238.799 660.909 238.975 661.72 238.975 662.68ZM232.623 662.68C232.623 663.651 232.804 664.408 233.167 664.952C233.54 665.496 234.127 665.768 234.927 665.768C235.727 665.768 236.308 665.496 236.671 664.952C237.044 664.408 237.231 663.651 237.231 662.68C237.231 661.699 237.044 660.947 236.671 660.424C236.298 659.891 235.711 659.624 234.911 659.624C234.111 659.624 233.53 659.891 233.167 660.424C232.804 660.947 232.623 661.699 232.623 662.68ZM244.085 667.16C243.05 667.16 242.213 666.787 241.573 666.04C240.944 665.293 240.629 664.184 240.629 662.712C240.629 661.229 240.949 660.109 241.589 659.352C242.229 658.595 243.072 658.216 244.117 658.216C244.768 658.216 245.301 658.339 245.717 658.584C246.133 658.829 246.469 659.128 246.725 659.48H246.821C246.8 659.341 246.773 659.128 246.741 658.84C246.709 658.552 246.693 658.296 246.693 658.072V654.84H248.389V667H247.061L246.773 665.848H246.693C246.448 666.221 246.117 666.536 245.701 666.792C245.285 667.037 244.746 667.16 244.085 667.16ZM244.485 665.768C245.317 665.768 245.904 665.539 246.245 665.08C246.586 664.611 246.757 663.912 246.757 662.984V662.728C246.757 661.725 246.592 660.957 246.261 660.424C245.941 659.88 245.344 659.608 244.469 659.608C243.776 659.608 243.253 659.891 242.901 660.456C242.549 661.011 242.373 661.773 242.373 662.744C242.373 663.715 242.549 664.461 242.901 664.984C243.253 665.507 243.781 665.768 244.485 665.768ZM258.307 665.784C258.531 665.784 258.76 665.768 258.995 665.736C259.23 665.693 259.432 665.64 259.603 665.576V666.856C259.411 666.941 259.16 667.011 258.851 667.064C258.552 667.128 258.248 667.16 257.939 667.16C257.47 667.16 257.038 667.08 256.643 666.92C256.248 666.76 255.934 666.483 255.699 666.088C255.475 665.693 255.363 665.144 255.363 664.44V659.672H254.163V658.904L255.427 658.264L256.019 656.44H257.059V658.376H259.523V659.672H257.059V664.408C257.059 664.877 257.171 665.224 257.395 665.448C257.63 665.672 257.934 665.784 258.307 665.784ZM262.192 655.096C262.448 655.096 262.672 655.171 262.864 655.32C263.056 655.469 263.152 655.72 263.152 656.072C263.152 656.413 263.056 656.664 262.864 656.824C262.672 656.973 262.448 657.048 262.192 657.048C261.915 657.048 261.68 656.973 261.488 656.824C261.307 656.664 261.216 656.413 261.216 656.072C261.216 655.72 261.307 655.469 261.488 655.32C261.68 655.171 261.915 655.096 262.192 655.096ZM263.024 658.376V667H261.328V658.376H263.024ZM275.351 658.216C276.322 658.216 277.053 658.467 277.543 658.968C278.034 659.469 278.279 660.275 278.279 661.384V667H276.583V661.608C276.583 660.275 276.045 659.608 274.967 659.608C274.199 659.608 273.65 659.848 273.319 660.328C272.989 660.797 272.823 661.475 272.823 662.36V667H271.143V661.608C271.143 660.275 270.599 659.608 269.511 659.608C268.701 659.608 268.141 659.869 267.831 660.392C267.533 660.915 267.383 661.667 267.383 662.648V667H265.687V658.376H267.031L267.271 659.528H267.367C267.623 659.08 267.981 658.749 268.439 658.536C268.898 658.323 269.383 658.216 269.895 658.216C271.229 658.216 272.103 658.68 272.519 659.608H272.647C272.925 659.128 273.309 658.776 273.799 658.552C274.29 658.328 274.807 658.216 275.351 658.216ZM284.267 658.216C285.398 658.216 286.288 658.568 286.939 659.272C287.59 659.965 287.915 660.915 287.915 662.12V663.048H282.123C282.144 663.933 282.374 664.611 282.811 665.08C283.259 665.549 283.883 665.784 284.683 665.784C285.238 665.784 285.728 665.736 286.155 665.64C286.592 665.533 287.04 665.379 287.499 665.176V666.584C287.062 666.776 286.624 666.92 286.187 667.016C285.75 667.112 285.227 667.16 284.619 667.16C283.776 667.16 283.035 666.995 282.395 666.664C281.766 666.333 281.27 665.843 280.907 665.192C280.555 664.531 280.379 663.72 280.379 662.76C280.379 661.789 280.539 660.968 280.859 660.296C281.19 659.624 281.643 659.112 282.219 658.76C282.806 658.397 283.488 658.216 284.267 658.216ZM284.267 659.528C283.659 659.528 283.168 659.725 282.795 660.12C282.432 660.515 282.219 661.075 282.155 661.8H286.219C286.208 661.128 286.043 660.584 285.723 660.168C285.414 659.741 284.928 659.528 284.267 659.528ZM293.947 659.336C293.947 658.909 294.049 658.611 294.251 658.44C294.465 658.259 294.726 658.168 295.035 658.168C295.334 658.168 295.59 658.259 295.803 658.44C296.027 658.611 296.139 658.909 296.139 659.336C296.139 659.741 296.027 660.035 295.803 660.216C295.59 660.397 295.334 660.488 295.035 660.488C294.726 660.488 294.465 660.397 294.251 660.216C294.049 660.035 293.947 659.741 293.947 659.336ZM293.947 666.056C293.947 665.64 294.049 665.347 294.251 665.176C294.465 665.005 294.726 664.92 295.035 664.92C295.334 664.92 295.59 665.005 295.803 665.176C296.027 665.347 296.139 665.64 296.139 666.056C296.139 666.472 296.027 666.771 295.803 666.952C295.59 667.133 295.334 667.224 295.035 667.224C294.726 667.224 294.465 667.133 294.251 666.952C294.049 666.771 293.947 666.472 293.947 666.056ZM301.586 662.616C301.586 663.907 301.394 665.149 301.01 666.344C300.626 667.528 300.034 668.589 299.234 669.528H297.73C298.466 668.536 299.021 667.443 299.394 666.248C299.768 665.053 299.954 663.837 299.954 662.6C299.954 661.331 299.762 660.093 299.378 658.888C299.005 657.683 298.45 656.579 297.714 655.576H299.234C300.034 656.547 300.626 657.64 301.01 658.856C301.394 660.061 301.586 661.315 301.586 662.616Z" fill="#141414"/>
<path d="M135.453 111.281V122H133.438V111.312L127.641 99.5938H129.812L134.422 108.906L139.031 99.5938H141.203L135.453 111.281ZM153.172 117.609C153.172 118.255 153.047 118.865 152.797 119.438C152.557 120.01 152.224 120.51 151.797 120.938C151.37 121.365 150.87 121.703 150.297 121.953C149.724 122.193 149.115 122.312 148.469 122.312H147.188C146.542 122.312 145.932 122.193 145.359 121.953C144.786 121.703 144.286 121.365 143.859 120.938C143.432 120.51 143.094 120.01 142.844 119.438C142.604 118.865 142.484 118.255 142.484 117.609V110.391C142.484 109.745 142.604 109.135 142.844 108.562C143.094 107.99 143.432 107.49 143.859 107.062C144.286 106.635 144.786 106.302 145.359 106.062C145.932 105.812 146.542 105.688 147.188 105.688H148.469C149.115 105.688 149.724 105.812 150.297 106.062C150.87 106.302 151.37 106.635 151.797 107.062C152.224 107.49 152.557 107.99 152.797 108.562C153.047 109.135 153.172 109.745 153.172 110.391V117.609ZM151.25 110.281C151.25 109.896 151.177 109.536 151.031 109.203C150.885 108.859 150.688 108.562 150.438 108.312C150.188 108.062 149.891 107.865 149.547 107.719C149.214 107.573 148.854 107.5 148.469 107.5H147.188C146.802 107.5 146.438 107.573 146.094 107.719C145.76 107.865 145.469 108.062 145.219 108.312C144.969 108.562 144.771 108.859 144.625 109.203C144.479 109.536 144.406 109.896 144.406 110.281V117.719C144.406 118.104 144.479 118.469 144.625 118.812C144.771 119.146 144.969 119.438 145.219 119.688C145.469 119.938 145.76 120.135 146.094 120.281C146.438 120.427 146.802 120.5 147.188 120.5H148.469C148.854 120.5 149.214 120.427 149.547 120.281C149.891 120.135 150.188 119.938 150.438 119.688C150.688 119.438 150.885 119.146 151.031 118.812C151.177 118.469 151.25 118.104 151.25 117.719V110.281ZM167.062 122L166 120.375C165.562 120.969 165.016 121.443 164.359 121.797C163.703 122.141 162.984 122.312 162.203 122.312H161.719C161.073 122.312 160.464 122.193 159.891 121.953C159.318 121.703 158.818 121.365 158.391 120.938C157.964 120.51 157.625 120.01 157.375 119.438C157.135 118.865 157.016 118.255 157.016 117.609V106H158.938V117.719C158.938 118.104 159.01 118.469 159.156 118.812C159.302 119.146 159.5 119.438 159.75 119.688C160 119.938 160.292 120.135 160.625 120.281C160.969 120.427 161.333 120.5 161.719 120.5H163C163.385 120.5 163.745 120.427 164.078 120.281C164.422 120.135 164.719 119.938 164.969 119.688C165.219 119.438 165.417 119.146 165.562 118.812C165.708 118.469 165.781 118.104 165.781 117.719V106H167.703V122H167.062ZM189.766 124.016C189.766 124.661 189.641 125.255 189.391 125.797C189.151 126.339 188.818 126.802 188.391 127.188C187.964 127.573 187.464 127.87 186.891 128.078C186.318 128.297 185.708 128.406 185.062 128.406H184.266C183.62 128.406 183.01 128.297 182.438 128.078C181.865 127.87 181.365 127.573 180.938 127.188C180.51 126.802 180.172 126.339 179.922 125.797C179.682 125.255 179.562 124.661 179.562 124.016V123.953C179.562 123.328 179.677 122.755 179.906 122.234C180.135 121.714 180.448 121.26 180.844 120.875C180.344 120.573 179.943 120.167 179.641 119.656C179.349 119.135 179.203 118.562 179.203 117.938C179.203 117.375 179.323 116.854 179.562 116.375C179.802 115.885 180.13 115.49 180.547 115.188C180.047 114.75 179.651 114.224 179.359 113.609C179.068 112.995 178.922 112.323 178.922 111.594V110.391C178.922 109.745 179.042 109.135 179.281 108.562C179.531 107.99 179.87 107.49 180.297 107.062C180.724 106.635 181.224 106.302 181.797 106.062C182.37 105.812 182.979 105.688 183.625 105.688H184.422C185.203 105.688 185.922 105.865 186.578 106.219C187.245 106.562 187.797 107.031 188.234 107.625L189.281 106H189.922V111.594C189.922 112.24 189.797 112.849 189.547 113.422C189.307 113.995 188.974 114.495 188.547 114.922C188.12 115.349 187.62 115.688 187.047 115.938C186.474 116.177 185.865 116.297 185.219 116.297H182.438C182.219 116.297 182.01 116.344 181.812 116.438C181.615 116.521 181.438 116.635 181.281 116.781C181.135 116.927 181.021 117.104 180.938 117.312C180.854 117.51 180.812 117.719 180.812 117.938C180.812 118.156 180.854 118.365 180.938 118.562C181.021 118.76 181.135 118.938 181.281 119.094C181.438 119.24 181.615 119.354 181.812 119.438C182.01 119.521 182.219 119.562 182.438 119.562H185.062C185.708 119.562 186.318 119.672 186.891 119.891C187.464 120.099 187.964 120.396 188.391 120.781C188.818 121.167 189.151 121.63 189.391 122.172C189.641 122.714 189.766 123.307 189.766 123.953V124.016ZM188.016 110.281C188.016 109.896 187.943 109.536 187.797 109.203C187.651 108.859 187.448 108.562 187.188 108.312C186.938 108.062 186.641 107.865 186.297 107.719C185.964 107.573 185.604 107.5 185.219 107.5H183.625C183.24 107.5 182.875 107.573 182.531 107.719C182.198 107.865 181.906 108.062 181.656 108.312C181.406 108.562 181.208 108.859 181.062 109.203C180.917 109.536 180.844 109.896 180.844 110.281V111.703C180.844 112.089 180.917 112.453 181.062 112.797C181.208 113.13 181.406 113.422 181.656 113.672C181.906 113.922 182.198 114.12 182.531 114.266C182.875 114.411 183.24 114.484 183.625 114.484H185.219C185.604 114.484 185.964 114.411 186.297 114.266C186.641 114.12 186.938 113.922 187.188 113.672C187.448 113.422 187.651 113.13 187.797 112.797C187.943 112.453 188.016 112.089 188.016 111.703V110.281ZM187.938 123.859C187.938 123.474 187.865 123.125 187.719 122.812C187.573 122.51 187.375 122.255 187.125 122.047C186.875 121.839 186.578 121.677 186.234 121.562C185.901 121.448 185.542 121.391 185.156 121.391H184.172C183.786 121.391 183.422 121.448 183.078 121.562C182.745 121.677 182.453 121.839 182.203 122.047C181.953 122.255 181.755 122.51 181.609 122.812C181.464 123.125 181.391 123.474 181.391 123.859V124.109C181.391 124.495 181.464 124.839 181.609 125.141C181.755 125.443 181.953 125.698 182.203 125.906C182.453 126.125 182.745 126.292 183.078 126.406C183.422 126.521 183.786 126.578 184.172 126.578H185.156C185.542 126.578 185.901 126.521 186.234 126.406C186.578 126.292 186.875 126.125 187.125 125.906C187.375 125.698 187.573 125.443 187.719 125.141C187.865 124.839 187.938 124.495 187.938 124.109V123.859ZM204.141 117.609C204.141 118.255 204.016 118.865 203.766 119.438C203.526 120.01 203.193 120.51 202.766 120.938C202.339 121.365 201.839 121.703 201.266 121.953C200.693 122.193 200.083 122.312 199.438 122.312H198.156C197.51 122.312 196.901 122.193 196.328 121.953C195.755 121.703 195.255 121.365 194.828 120.938C194.401 120.51 194.062 120.01 193.812 119.438C193.573 118.865 193.453 118.255 193.453 117.609V110.391C193.453 109.745 193.573 109.135 193.812 108.562C194.062 107.99 194.401 107.49 194.828 107.062C195.255 106.635 195.755 106.302 196.328 106.062C196.901 105.812 197.51 105.688 198.156 105.688H199.438C200.083 105.688 200.693 105.812 201.266 106.062C201.839 106.302 202.339 106.635 202.766 107.062C203.193 107.49 203.526 107.99 203.766 108.562C204.016 109.135 204.141 109.745 204.141 110.391V117.609ZM202.219 110.281C202.219 109.896 202.146 109.536 202 109.203C201.854 108.859 201.656 108.562 201.406 108.312C201.156 108.062 200.859 107.865 200.516 107.719C200.182 107.573 199.823 107.5 199.438 107.5H198.156C197.771 107.5 197.406 107.573 197.062 107.719C196.729 107.865 196.438 108.062 196.188 108.312C195.938 108.562 195.74 108.859 195.594 109.203C195.448 109.536 195.375 109.896 195.375 110.281V117.719C195.375 118.104 195.448 118.469 195.594 118.812C195.74 119.146 195.938 119.438 196.188 119.688C196.438 119.938 196.729 120.135 197.062 120.281C197.406 120.427 197.771 120.5 198.156 120.5H199.438C199.823 120.5 200.182 120.427 200.516 120.281C200.859 120.135 201.156 119.938 201.406 119.688C201.656 119.438 201.854 119.146 202 118.812C202.146 118.469 202.219 118.104 202.219 117.719V110.281ZM213.812 122C213.229 122 212.677 121.891 212.156 121.672C211.646 121.453 211.198 121.151 210.812 120.766C210.438 120.38 210.135 119.932 209.906 119.422C209.688 118.911 209.578 118.365 209.578 117.781V107.828H206.703V106H209.578V102.156L211.5 101.844V106H215.562V107.828H211.5V117.875C211.5 118.198 211.557 118.5 211.672 118.781C211.797 119.052 211.964 119.292 212.172 119.5C212.38 119.708 212.625 119.875 212.906 120C213.188 120.115 213.49 120.172 213.812 120.172H215.562V122H213.812ZM236.531 122L235.469 120.406C235.031 120.979 234.484 121.443 233.828 121.797C233.172 122.141 232.453 122.312 231.672 122.312H231.188C230.542 122.312 229.932 122.193 229.359 121.953C228.786 121.703 228.286 121.365 227.859 120.938C227.432 120.51 227.094 120.01 226.844 119.438C226.604 118.865 226.484 118.255 226.484 117.609V117.453C226.484 116.807 226.604 116.198 226.844 115.625C227.094 115.052 227.432 114.552 227.859 114.125C228.286 113.698 228.786 113.365 229.359 113.125C229.932 112.875 230.542 112.75 231.188 112.75H235.25V110.281C235.25 109.896 235.177 109.536 235.031 109.203C234.885 108.859 234.688 108.562 234.438 108.312C234.188 108.062 233.891 107.865 233.547 107.719C233.214 107.573 232.854 107.5 232.469 107.5H231.344C230.958 107.5 230.594 107.573 230.25 107.719C229.917 107.865 229.625 108.062 229.375 108.312C229.125 108.562 228.927 108.859 228.781 109.203C228.635 109.536 228.562 109.896 228.562 110.281V110.859L226.641 110.547V110.391C226.641 109.745 226.76 109.135 227 108.562C227.25 107.99 227.589 107.49 228.016 107.062C228.443 106.635 228.943 106.302 229.516 106.062C230.089 105.812 230.698 105.688 231.344 105.688H232.469C233.115 105.688 233.724 105.812 234.297 106.062C234.87 106.302 235.37 106.635 235.797 107.062C236.224 107.49 236.557 107.99 236.797 108.562C237.047 109.135 237.172 109.745 237.172 110.391V122H236.531ZM235.25 114.25H231.188C230.802 114.25 230.438 114.323 230.094 114.469C229.76 114.615 229.469 114.818 229.219 115.078C228.969 115.328 228.771 115.625 228.625 115.969C228.479 116.302 228.406 116.661 228.406 117.047V117.719C228.406 118.104 228.479 118.469 228.625 118.812C228.771 119.146 228.969 119.438 229.219 119.688C229.469 119.938 229.76 120.135 230.094 120.281C230.438 120.427 230.802 120.5 231.188 120.5H232.469C232.854 120.5 233.214 120.427 233.547 120.281C233.891 120.135 234.188 119.938 234.438 119.688C234.688 119.438 234.885 119.146 235.031 118.812C235.177 118.469 235.25 118.104 235.25 117.719V114.25ZM265.281 122V110.281C265.281 109.896 265.208 109.536 265.062 109.203C264.917 108.859 264.719 108.562 264.469 108.312C264.219 108.062 263.922 107.865 263.578 107.719C263.245 107.573 262.885 107.5 262.5 107.5H261.547C261.161 107.5 260.797 107.573 260.453 107.719C260.12 107.865 259.823 108.062 259.562 108.312C259.312 108.562 259.115 108.859 258.969 109.203C258.823 109.536 258.75 109.896 258.75 110.281V122H256.844V110.281C256.844 109.896 256.771 109.536 256.625 109.203C256.479 108.859 256.276 108.562 256.016 108.312C255.766 108.062 255.469 107.865 255.125 107.719C254.792 107.573 254.432 107.5 254.047 107.5H253.094C252.708 107.5 252.344 107.573 252 107.719C251.667 107.865 251.375 108.062 251.125 108.312C250.875 108.562 250.677 108.859 250.531 109.203C250.385 109.536 250.312 109.896 250.312 110.281V122H248.391V106H249.031L250.078 107.625C250.516 107.031 251.062 106.562 251.719 106.219C252.385 105.865 253.109 105.688 253.891 105.688H254.047C254.953 105.688 255.771 105.911 256.5 106.359C257.229 106.807 257.792 107.401 258.188 108.141C258.385 107.776 258.63 107.443 258.922 107.141C259.214 106.839 259.536 106.583 259.891 106.375C260.245 106.156 260.63 105.99 261.047 105.875C261.464 105.75 261.896 105.688 262.344 105.688H262.5C263.146 105.688 263.755 105.812 264.328 106.062C264.901 106.302 265.401 106.635 265.828 107.062C266.255 107.49 266.589 107.99 266.828 108.562C267.078 109.135 267.203 109.745 267.203 110.391V122H265.281ZM281.094 122L280.031 120.406C279.594 120.979 279.047 121.443 278.391 121.797C277.734 122.141 277.016 122.312 276.234 122.312H275.75C275.104 122.312 274.495 122.193 273.922 121.953C273.349 121.703 272.849 121.365 272.422 120.938C271.995 120.51 271.656 120.01 271.406 119.438C271.167 118.865 271.047 118.255 271.047 117.609V117.453C271.047 116.807 271.167 116.198 271.406 115.625C271.656 115.052 271.995 114.552 272.422 114.125C272.849 113.698 273.349 113.365 273.922 113.125C274.495 112.875 275.104 112.75 275.75 112.75H279.812V110.281C279.812 109.896 279.74 109.536 279.594 109.203C279.448 108.859 279.25 108.562 279 108.312C278.75 108.062 278.453 107.865 278.109 107.719C277.776 107.573 277.417 107.5 277.031 107.5H275.906C275.521 107.5 275.156 107.573 274.812 107.719C274.479 107.865 274.188 108.062 273.938 108.312C273.688 108.562 273.49 108.859 273.344 109.203C273.198 109.536 273.125 109.896 273.125 110.281V110.859L271.203 110.547V110.391C271.203 109.745 271.323 109.135 271.562 108.562C271.812 107.99 272.151 107.49 272.578 107.062C273.005 106.635 273.505 106.302 274.078 106.062C274.651 105.812 275.26 105.688 275.906 105.688H277.031C277.677 105.688 278.286 105.812 278.859 106.062C279.432 106.302 279.932 106.635 280.359 107.062C280.786 107.49 281.12 107.99 281.359 108.562C281.609 109.135 281.734 109.745 281.734 110.391V122H281.094ZM279.812 114.25H275.75C275.365 114.25 275 114.323 274.656 114.469C274.323 114.615 274.031 114.818 273.781 115.078C273.531 115.328 273.333 115.625 273.188 115.969C273.042 116.302 272.969 116.661 272.969 117.047V117.719C272.969 118.104 273.042 118.469 273.188 118.812C273.333 119.146 273.531 119.438 273.781 119.688C274.031 119.938 274.323 120.135 274.656 120.281C275 120.427 275.365 120.5 275.75 120.5H277.031C277.417 120.5 277.776 120.427 278.109 120.281C278.453 120.135 278.75 119.938 279 119.688C279.25 119.438 279.448 119.146 279.594 118.812C279.74 118.469 279.812 118.104 279.812 117.719V114.25ZM291.406 122C290.823 122 290.271 121.891 289.75 121.672C289.24 121.453 288.792 121.151 288.406 120.766C288.031 120.38 287.729 119.932 287.5 119.422C287.281 118.911 287.172 118.365 287.172 117.781V107.828H284.297V106H287.172V102.156L289.094 101.844V106H293.156V107.828H289.094V117.875C289.094 118.198 289.151 118.5 289.266 118.781C289.391 119.052 289.557 119.292 289.766 119.5C289.974 119.708 290.219 119.875 290.5 120C290.781 120.115 291.083 120.172 291.406 120.172H293.156V122H291.406ZM307.391 117.609C307.391 118.255 307.266 118.865 307.016 119.438C306.776 120.01 306.443 120.51 306.016 120.938C305.589 121.365 305.089 121.703 304.516 121.953C303.943 122.193 303.333 122.312 302.688 122.312H301.406C300.76 122.312 300.151 122.193 299.578 121.953C299.005 121.703 298.505 121.365 298.078 120.938C297.651 120.51 297.312 120.01 297.062 119.438C296.823 118.865 296.703 118.255 296.703 117.609V110.391C296.703 109.745 296.823 109.135 297.062 108.562C297.312 107.99 297.651 107.49 298.078 107.062C298.505 106.635 299.005 106.302 299.578 106.062C300.151 105.812 300.76 105.688 301.406 105.688H302.688C303.333 105.688 303.943 105.812 304.516 106.062C305.089 106.302 305.589 106.635 306.016 107.062C306.443 107.49 306.776 107.99 307.016 108.562C307.266 109.135 307.391 109.745 307.391 110.391V111.031L305.469 111.344V110.281C305.469 109.896 305.396 109.536 305.25 109.203C305.104 108.859 304.906 108.562 304.656 108.312C304.406 108.062 304.109 107.865 303.766 107.719C303.432 107.573 303.073 107.5 302.688 107.5H301.406C301.021 107.5 300.656 107.573 300.312 107.719C299.979 107.865 299.688 108.062 299.438 108.312C299.188 108.562 298.99 108.859 298.844 109.203C298.698 109.536 298.625 109.896 298.625 110.281V117.719C298.625 118.104 298.698 118.469 298.844 118.812C298.99 119.146 299.188 119.438 299.438 119.688C299.688 119.938 299.979 120.135 300.312 120.281C300.656 120.427 301.021 120.5 301.406 120.5H302.688C303.073 120.5 303.432 120.427 303.766 120.281C304.109 120.135 304.406 119.938 304.656 119.688C304.906 119.438 305.104 119.146 305.25 118.812C305.396 118.469 305.469 118.104 305.469 117.719V116.656L307.391 116.969V117.609ZM320 122V110.281C320 109.896 319.927 109.536 319.781 109.203C319.635 108.859 319.438 108.562 319.188 108.312C318.938 108.062 318.641 107.865 318.297 107.719C317.964 107.573 317.604 107.5 317.219 107.5H315.938C315.552 107.5 315.188 107.573 314.844 107.719C314.51 107.865 314.219 108.062 313.969 108.312C313.719 108.562 313.521 108.859 313.375 109.203C313.229 109.536 313.156 109.896 313.156 110.281V122H311.234V99.5938H313.156V107.344C313.594 106.823 314.12 106.417 314.734 106.125C315.349 105.833 316.016 105.688 316.734 105.688H317.219C317.865 105.688 318.474 105.812 319.047 106.062C319.62 106.302 320.12 106.635 320.547 107.062C320.974 107.49 321.307 107.99 321.547 108.562C321.797 109.135 321.922 109.745 321.922 110.391V122H320ZM327.75 115.219H326.625L325.766 99.5938H328.609L327.75 115.219ZM325.984 122V119.594H328.391V122H325.984Z" fill="black"/>
</g>
<defs>
<clipPath id="clip0">
<rect x="19" width="410" height="823.756" fill="white"/>
</clipPath>
</defs>
</svg>
